<svg xmlns="http://www.w3.org/2000/svg" xmlns:xlink="http://www.w3.org/1999/xlink" width="384" height="64" viewBox="0 0 384 64"><defs><use xlink:href="#a" id="c" fill="#d0d0d0" stroke="#b2b2b2"/><use xlink:href="#a" id="d" fill="#ff6157" stroke="#e24640"/><use xlink:href="#a" id="h" fill="#ffc12f" stroke="#dfa023"/><use xlink:href="#a" id="k" fill="#2acb42" stroke="#1bac2c"/><use xlink:href="#a" id="q" fill="#8e8e93" stroke="#747479"/><use xlink:href="#a" id="f" fill="#bf4842" stroke="#a12b25"/><use xlink:href="#a" id="j" fill="#bf8e23" stroke="#a06f04"/><use xlink:href="#a" id="m" fill="#1e9730" stroke="#007912"/><use xlink:href="#a" id="r" fill="#6a6a6e" stroke="#505054"/><use xlink:href="#b" id="t" fill="#ffffff33"/><use xlink:href="#b" id="v" fill="#ff6157"/><use xlink:href="#b" id="x" fill="#ffc12f"/><use xlink:href="#b" id="A" fill="#2acb42"/><use xlink:href="#b" id="C" fill="#ffffff7f"/><use xlink:href="#b" id="w" fill="#bf4842"/><use xlink:href="#b" id="y" fill="#bf8e23"/><use xlink:href="#b" id="B" fill="#1e9730"/><use xlink:href="#b" id="D" fill="#ffffff9f"/><path id="e" d="m8 7.3 2.15-2.15a.5.5 0 0 1 .7.7L8.7 8l2.15 2.15a.5.5 0 0 1-.7.7L8 8.7l-2.15 2.15a.5.5 0 0 1-.7-.7L7.3 8 5.15 5.85a.5.5 0 0 1 .7-.7z"/><path id="l" d="M7.5 7.5v-3a.5.5 0 0 1 1 0v3h3a.5.5 0 0 1 0 1h-3v3a.5.5 0 0 1-1 0v-3h-3a.5.5 0 0 1 0-1z"/><path id="n" d="M5 6.5V10a1 1 0 0 0 1 1h3.5zm6 3V6a1 1 0 0 0-1-1H6.5z"/><path id="o" d="M3.5 8H7a1 1 0 0 1 1 1v3.5zM8 3.5V7a1 1 0 0 0 1 1h3.5z"/><circle id="a" cx="8" cy="8" r="5.75" stroke-width=".5"/><circle id="b" cx="8" cy="8" r="6"/><circle id="g" cx="8" cy="8" r="2"/><rect id="i" width="8" height="1" x="4" y="7.5" rx=".5"/></defs><use xlink:href="#c"/><use xlink:href="#d" y="16"/><use xlink:href="#d" y="32"/><use xlink:href="#e" y="32" fill="#7e0508"/><use xlink:href="#f" y="48"/><use xlink:href="#e" y="48" fill="#4d0000"/><use xlink:href="#c" x="16"/><use xlink:href="#g" x="16" fill="#6e6e6e"/><use xlink:href="#d" x="16" y="16"/><use xlink:href="#g" x="16" y="16" fill="#7e0508"/><use xlink:href="#d" x="16" y="32"/><use xlink:href="#g" x="16" y="32" fill="#7e0508"/><use xlink:href="#f" x="16" y="48"/><use xlink:href="#g" x="16" y="48" fill="#4d0000"/><use xlink:href="#c" x="32"/><use xlink:href="#h" x="32" y="16"/><use xlink:href="#h" x="32" y="32"/><use xlink:href="#i" x="32" y="32" fill="#995900"/><use xlink:href="#j" x="32" y="48"/><use xlink:href="#i" x="32" y="48" fill="#592800"/><use xlink:href="#c" x="48"/><use xlink:href="#k" x="48" y="16"/><use xlink:href="#k" x="48" y="32"/><use xlink:href="#l" x="48" y="32" fill="#006300"/><use xlink:href="#m" x="48" y="48"/><use xlink:href="#l" x="48" y="48" fill="#003100"/><use xlink:href="#c" x="64"/><use xlink:href="#k" x="64" y="16"/><use xlink:href="#k" x="64" y="32"/><use xlink:href="#n" x="64" y="32" fill="#006300"/><use xlink:href="#m" x="64" y="48"/><use xlink:href="#n" x="64" y="48" fill="#003100"/><use xlink:href="#c" x="80"/><use xlink:href="#k" x="80" y="16"/><use xlink:href="#k" x="80" y="32"/><use xlink:href="#o" x="80" y="32" fill="#006300"/><use xlink:href="#m" x="80" y="48"/><use xlink:href="#o" x="80" y="48" fill="#003100"/><use xlink:href="#c" x="96"/><use xlink:href="#q" x="96" y="16"/><use xlink:href="#q" x="96" y="32"/><use xlink:href="#e" x="96" y="32" fill="#27272c"/><use xlink:href="#r" x="96" y="48"/><use xlink:href="#e" x="96" y="48" fill="#040407"/><use xlink:href="#c" x="112"/><use xlink:href="#g" x="112" fill="#6e6e6e"/><use xlink:href="#q" x="112" y="16"/><use xlink:href="#g" x="112" y="16" fill="#27272c"/><use xlink:href="#q" x="112" y="32"/><use xlink:href="#g" x="112" y="32" fill="#27272c"/><use xlink:href="#r" x="112" y="48"/><use xlink:href="#g" x="112" y="48" fill="#040407"/><use xlink:href="#c" x="128"/><use xlink:href="#q" x="128" y="16"/><use xlink:href="#q" x="128" y="32"/><use xlink:href="#i" x="128" y="32" fill="#27272c"/><use xlink:href="#r" x="128" y="48"/><use xlink:href="#i" x="128" y="48" fill="#040407"/><use xlink:href="#c" x="144"/><use xlink:href="#q" x="144" y="16"/><use xlink:href="#q" x="144" y="32"/><use xlink:href="#l" x="144" y="32" fill="#27272c"/><use xlink:href="#r" x="144" y="48"/><use xlink:href="#l" x="144" y="48" fill="#040407"/><use xlink:href="#c" x="160"/><use xlink:href="#q" x="160" y="16"/><use xlink:href="#q" x="160" y="32"/><use xlink:href="#n" x="160" y="32" fill="#27272c"/><use xlink:href="#r" x="160" y="48"/><use xlink:href="#n" x="160" y="48" fill="#040407"/><use xlink:href="#c" x="176"/><use xlink:href="#q" x="176" y="16"/><use xlink:href="#q" x="176" y="32"/><use xlink:href="#o" x="176" y="32" fill="#27272c"/><use xlink:href="#r" x="176" y="48"/><use xlink:href="#o" x="176" y="48" fill="#040407"/><use xlink:href="#t" x="192"/><use xlink:href="#v" x="192" y="16"/><use xlink:href="#v" x="192" y="32"/><use xlink:href="#e" x="192" y="32" fill="#7e0508"/><use xlink:href="#w" x="192" y="48"/><use xlink:href="#e" x="192" y="48" fill="#4d0000"/><use xlink:href="#t" x="208"/><use xlink:href="#g" x="208" fill="#0000007f"/><use xlink:href="#v" x="208" y="16"/><use xlink:href="#g" x="208" y="16" fill="#7e0508"/><use xlink:href="#v" x="208" y="32"/><use xlink:href="#g" x="208" y="32" fill="#7e0508"/><use xlink:href="#w" x="208" y="48"/><use xlink:href="#g" x="208" y="48" fill="#4d0000"/><use xlink:href="#t" x="224"/><use xlink:href="#x" x="224" y="16"/><use xlink:href="#x" x="224" y="32"/><use xlink:href="#i" x="224" y="32" fill="#995900"/><use xlink:href="#y" x="224" y="48"/><use xlink:href="#i" x="224" y="48" fill="#592800"/><use xlink:href="#t" x="240"/><use xlink:href="#A" x="240" y="16"/><use xlink:href="#A" x="240" y="32"/><use xlink:href="#l" x="240" y="32" fill="#006300"/><use xlink:href="#B" x="240" y="48"/><use xlink:href="#l" x="240" y="48" fill="#003100"/><use xlink:href="#t" x="256"/><use xlink:href="#A" x="256" y="16"/><use xlink:href="#A" x="256" y="32"/><use xlink:href="#n" x="256" y="32" fill="#006300"/><use xlink:href="#B" x="256" y="48"/><use xlink:href="#n" x="256" y="48" fill="#003100"/><use xlink:href="#t" x="272"/><use xlink:href="#A" x="272" y="16"/><use xlink:href="#A" x="272" y="32"/><use xlink:href="#o" x="272" y="32" fill="#006300"/><use xlink:href="#B" x="272" y="48"/><use xlink:href="#o" x="272" y="48" fill="#003100"/><use xlink:href="#t" x="288"/><use xlink:href="#C" x="288" y="16"/><use xlink:href="#C" x="288" y="32"/><use xlink:href="#e" x="288" y="32" fill="#222"/><use xlink:href="#D" x="288" y="48"/><use xlink:href="#e" x="288" y="48" fill="#222"/><use xlink:href="#t" x="304"/><use xlink:href="#g" x="304" fill="#6e6e6e"/><use xlink:href="#C" x="304" y="16"/><use xlink:href="#g" x="304" y="16" fill="#262626"/><use xlink:href="#C" x="304" y="32"/><use xlink:href="#g" x="304" y="32" fill="#262626"/><use xlink:href="#D" x="304" y="48"/><use xlink:href="#g" x="304" y="48" fill="#262626"/><use xlink:href="#t" x="320"/><use xlink:href="#C" x="320" y="16"/><use xlink:href="#C" x="320" y="32"/><use xlink:href="#i" x="320" y="32" fill="#262626"/><use xlink:href="#D" x="320" y="48"/><use xlink:href="#i" x="320" y="48" fill="#262626"/><use xlink:href="#t" x="336"/><use xlink:href="#C" x="336" y="16"/><use xlink:href="#C" x="336" y="32"/><use xlink:href="#l" x="336" y="32" fill="#262626"/><use xlink:href="#D" x="336" y="48"/><use xlink:href="#l" x="336" y="48" fill="#262626"/><use xlink:href="#t" x="352"/><use xlink:href="#C" x="352" y="16"/><use xlink:href="#C" x="352" y="32"/><use xlink:href="#n" x="352" y="32" fill="#262626"/><use xlink:href="#D" x="352" y="48"/><use xlink:href="#n" x="352" y="48" fill="#262626"/><use xlink:href="#t" x="368"/><use xlink:href="#C" x="368" y="16"/><use xlink:href="#C" x="368" y="32"/><use xlink:href="#o" x="368" y="32" fill="#262626"/><use xlink:href="#D" x="368" y="48"/><use xlink:href="#o" x="368" y="48" fill="#262626"/></svg>
