<svg viewBox="0 0 30 30" xmlns="http://www.w3.org/2000/svg"><g fill="#0A6"><path d="M0 30V0h30v30h-8.5l2.5-2.5v-25H6v16.75a3.5 3.5 0 0 0-3.5 3.5V24H6v3.5L3.5 30H0z"/><circle cx="17.625" cy="7.125" r="2.125"/><path d="M8.5 14.5l2.102-3.27a.5.5 0 0 1 .421-.23h6.249a.5.5 0 0 1 .378.173l2.95 3.404a.5.5 0 0 0 .378.173H24.5" fill="none" stroke="#0A6" stroke-width="2" stroke-linecap="round"/><path d="M3.75 23h8.307a1.5 1.5 0 0 0 1.498-1.442l.195-5.058h-.5l4.208 8.858a2 2 0 0 0 1.806 1.142h1.986l-4.787-9.573a1 1 0 0 1-.016-.861L18.75 11h-5l-2.175 4.784a4 4 0 0 0-.355 1.502L11 23l.75-2.5H6a2.25 2.25 0 0 0-2.25 2.25V23zM17.75 27.5H21L18.5 30h-3.25z"/></g></svg>
