<svg xmlns="http://www.w3.org/2000/svg" width="384" height="384" viewBox="0 0 384 384"><path fill="#ddf7dd" d="M0 0h384v384H0z"/><path fill="#151" d="M34.162 25.038c-3.525 6.187-7.2 11.362-15.075 18.187-.637.563 0 1.238.563.938 6.337-3.45 10.537-6.788 14.212-11.363.038 4.8-.15 8.475-.412 19.163-.075 3.112 4.65 1.8 4.575-1.275-.15-6.45-.225-13.913-.188-18.038.975-.9 1.35-1.312 1.35-1.762 0-.525-1.35-1.2-2.662-1.688l1.987-3.037c1.538-.975 1.65-1.388 1.65-1.8 0-.263-.487-.675-1.162-1.05 4.125 0 8.25.075 11.887.187.825.038 1.05-.787.525-1.35-1.875-2.212-2.962-2.85-3.712-2.85-.863 0-1.65 1.275-2.85 2.888H20.737c-1.612 0-.525 1.35.6 1.312 3.525-.112 8.475-.187 13.725-.225-.187.45-.487 1.013-.9 1.763m6.525 6.112c-.787-.375-1.237.375-.712.863 6.262 5.812 7.125 10.762 8.925 10.762 1.462 0 2.7-1.875 2.7-3.225 0-2.175-3.3-4.575-10.913-8.4m22.65-12.825c-.487-.187-1.012.3-.6.863 2.175 2.925.863 5.962 2.813 5.962 1.087 0 3.037-1.95 3.037-3.075 0-1.462-2.175-2.625-5.25-3.75M67.8 34.563c-.338-.15-.563-.188-.713-.15v-1.05c1.163-1.538 2.25-3.15 3.375-4.913 1.575-1.012 1.613-1.462 1.613-1.762 0-.75-2.1-2.4-2.963-2.4-.562 0-1.312.787-2.137 2.025h-8.438c-1.537 0-.675 1.2.413 1.2 2.25-.15 4.875-.15 7.987-.113l-1.612 2.85c-.45-.15-.863-.225-1.088-.225-.75 0-.562.338-.412 2.625-2.175 3.375-4.5 6.375-7.275 9.15-.525.525-.038 1.2.562.825a37.6 37.6 0 0 0 6.825-5.512c-.037 4.125-.487 9.975-.825 14.437-.262 3.338 4.088 1.613 4.088-1.237.037-2.55-.075-10.425-.113-15.15l.263.337c2.7 3.3 2.287 6.338 3.787 6.338 1.013 0 2.025-1.463 2.025-2.438 0-.937-1.162-2.55-3.712-4.012h.037c1.538-.675 3.188-1.8 3.825-2.4.338-.113 1.163-.263 1.163-.975 0-.375-1.763-2.363-2.888-2.4-.375 0-.412.375-.862 1.275-.825 1.837-1.5 3.075-2.1 4.012l-.038.038zm1.875 17.4c-.413.6.075 1.162.637.75 7.613-5.738 10.238-15.3 11.25-25.538.713-.525 1.238-1.087 1.238-1.762 0-.375-.75-.825-1.65-1.163l4.912.038c.113 10.912-.525 18.15-1.35 21.487-.637 2.85-1.012 2.888-5.812 2.25-.788-.112-.9.788-.263 1.013 4.8 1.762 2.325 4.125 4.5 4.125 1.8 0 4.088-1.538 5.025-4.95 1.088-4.125 1.463-10.8 1.763-22.5.937-.75 1.275-.975 1.275-1.538 0-.825-2.55-2.962-3.45-2.962-.788 0-1.313.675-2.175 2.025H73.35c-1.613 0-.638 1.237.487 1.2 1.125-.113 2.475-.15 4.013-.188-.113.638-.075 1.913-.375 4.388-1.013 9-3.075 16.762-7.8 23.325m46.687-31.5c.375 4.837.15 16.35-.187 24.675-.225 5.775 1.875 7.875 7.05 7.875 4.5 0 7.575-1.388 7.575-3.375 0-1.8-1.575.225-1.425-6.9 0-.975-1.013-.975-1.125-.075-.375 2.925-.788 4.725-1.275 5.362-.638.825-1.688 1.313-3.488 1.313-2.737 0-3.712-.938-3.675-4.575.038-2.55.075-5.813.188-9.713 3.15-1.237 5.25-2.362 7.612-3.787 1.238-.3 2.288-.6 2.288-1.2 0-.488-2.175-3.113-3.263-3.113-.487 0-.487.263-1.425 1.275-1.425 1.725-3.075 3.675-5.175 5.7.075-3.3.225-7.087.413-11.287.862-.675 1.2-1.275 1.2-1.65 0-.675-3.188-1.875-4.65-1.875-.563 0-.713.3-.638 1.35m-5.325 11.662h-.6l.113-9.15c.937-.825 1.462-1.387 1.462-1.837 0-.825-3.225-1.725-4.575-1.725-.787 0-.787.525-.675 1.987.525 6.563.375 16.013.3 24.563l-3.075.75c-.112-7.838-.112-13.088-.112-16.95.937-.9 1.2-1.425 1.2-1.8 0-.713-2.963-1.575-4.313-1.575-.675 0-.637.412-.6.937.413 6.075.563 13.238.563 20.1-3.15.638-3.788.488-3.788 1.2.038 1.088 2.138 3.975 2.925 3.975.338 0 .863-.375 1.688-1.237 4.8-2.025 8.175-3.6 13.35-6.375.712-.338.45-1.163-.3-.975l-4.163 1.087V33.138l4.688.075c.75.037 1.125-.525.487-1.388-.787-1.125-1.837-2.287-2.512-2.287s-1.163.975-2.063 2.587m51.863-5.512h-3.413l.038-4.05c1.162-1.125 1.35-1.688 1.35-2.1 0-.825-3.788-1.875-5.063-1.875-1.05 0-.637.262-.45 7.162v.863H136.5c-1.65 0-.525 1.387.637 1.312 4.5-.15 11.325-.225 18.263-.187.037 3.975 0 9.9-.075 15.487-.075 5.213-.263 4.913-6.075 4.275-.863-.075-.863.938-.15 1.163 5.775 1.912 2.812 4.537 5.137 4.537 2.513 0 5.363-3.412 5.288-8.212a892 892 0 0 1-.038-17.25c3.113.037 6.15.112 8.925.187.788.038 1.013-.75.525-1.35-1.575-1.95-2.662-2.775-3.412-2.775-.788 0-1.5 1.2-2.625 2.813m-20.4 4.237c-.75-.337-1.313.375-.825.938 3.9 4.762 3.112 8.662 5.212 8.662 1.238 0 2.775-1.875 2.813-3.562.037-1.425-1.688-3.638-7.2-6.038m33.975 13.763c-2.288.6-2.625.45-2.625 1.162 0 .975 1.837 3.713 2.7 3.75.375 0 .825-.525 1.5-1.237 1.987-1.35 4.612-3.038 8.437-5.813.45-.337.225-1.162-.562-.9l-4.013 1.388.075-11.775L186 31.3c.675.038 1.05-.525.45-1.312-.788-1.05-1.688-1.95-2.25-1.95-.638 0-1.088.825-1.875 2.175h-.338l.113-6.938c.9-.825 1.425-1.425 1.425-1.875 0-.825-3.263-1.725-4.463-1.725-.787 0-.75.525-.675 1.988.15 2.775.225 5.437.225 8.55h-3.825c-1.387 0-.675 1.087.3 1.05l3.525-.075c-.037 3.375-.112 7.425-.225 12.9zm10.875-20.888c.187 1.988.262 5.1.3 8.588l-3.9 1.425c-1.538.562.037 1.65 1.2 1.05.862-.45 1.687-.825 2.7-1.238 0 4.05-.038 8.4-.15 11.888-.15 5.55 2.325 7.387 9.675 7.387 6.75 0 10.612-1.725 10.65-3.75.037-1.837-1.425.375-1.163-6.075.038-1.012-.937-1.012-1.125-.112-.525 2.55-.9 4.012-1.725 4.837-1.05 1.013-3.6 1.575-6.45 1.575-5.175 0-6.487-.637-6.45-4.087L191.1 32.2l3.45-1.275c-.075 3.75-.263 7.988-.525 12.713-.113 2.437 3.787 1.425 3.75-1.05-.113-3.863 0-8.138.112-12.9l3.825-1.388c-.112 4.613-.187 7.313-.525 8.738-.337 1.575-.525 1.837-2.812 1.387-.525-.112-.75.638-.338.9 2.513 1.463.938 3.713 2.4 3.713 1.613 0 3.263-1.388 3.938-4.35.375-1.725.675-4.125.862-9.638.675-.637.9-1.012.9-1.425 0-.637-2.362-2.287-3.112-2.287-.6 0-1.013.562-1.8 1.987l-3.3 1.2.187-6.225c1.238-1.162 1.35-1.462 1.35-1.8 0-.675-3-1.687-4.237-1.687-.638 0-.863.412-.788 1.425.15 2.737.188 5.887.113 9.525l-3.413 1.275.075-5.1c.863-.675 1.088-1.313 1.088-1.688 0-.675-2.963-1.875-4.35-1.875-.563 0-.713.3-.6 1.35m33.712-5.137c-.787 0-.675.675-1.012 2.662a42 42 0 0 1-1.425 5.4c-1.013-.712-2.438-1.312-3.075-1.312-.9 0-.45 1.2-.375 5.587.075 5.213-.075 13.35-.413 19.425-.15 2.7 3.975 1.35 3.975-1.5V47.2h5.663l-.075 2.138c-.075 2.025 3.937 1.387 3.9-1.688-.15-8.4-.188-17.287-.038-19.125.45-.375.975-.825.975-1.537 0-.713-2.475-2.25-3.262-2.25-.75 0-1.2 1.05-1.65 2.1h-4.65c1.5-1.275 3.037-3 4.162-4.575 1.35-1.013 1.5-1.275 1.5-1.613 0-.637-3.45-2.062-4.2-2.062m12.9-.15c-.6 0-.712.6-.975 1.8-.637 3.037-1.912 7.05-3.712 10.912-.375.788.412.9.712.6 1.163-1.087 2.25-2.362 3.263-3.787h8.437c.263 8.887-.487 16.387-1.387 18.487-1.05 2.438-1.2 2.7-5.663 2.063-.787-.113-1.05.937-.15 1.162 4.8 1.275 2.588 4.05 4.538 4.05 2.175 0 4.125-1.987 5.025-6.112 1.237-5.625 1.425-11.663 1.537-18.3.675-.6 1.313-1.013 1.313-1.875 0-.6-2.325-2.663-3.713-2.663-.712 0-1.462 1.425-1.837 2.1H234c.862-1.237 1.65-2.587 2.437-4.012 1.5-1.313 1.65-1.688 1.65-2.138 0-.9-3.225-2.287-4.125-2.287m-1.275 13.837c-.787-.375-1.387.188-.862 1.013 3.037 4.762 1.312 7.425 3.787 7.425 1.275 0 2.475-2.138 2.475-3.225 0-1.688-2.625-3.788-5.4-5.213m-13.95 13.875.038-9.487h5.775l-.15 9.487zm.038-10.537v-7.725h5.775v7.725zm47.437.487H261.3c1.387-1.275 2.662-2.625 3.9-4.012 2.25.037 4.5.075 6.6.187.712 0 1.05-.6.487-1.312-1.125-1.388-1.987-2.063-2.587-2.063-.675 0-1.2.9-2.063 2.213h-1.612c1.35-1.613 2.662-3.338 3.975-5.138 1.5-.862 2.287-1.275 2.287-1.837 0-.6-2.25-2.7-3.262-2.7-.525 0-.6.675-1.275 1.8l-.488.825c-.6-.788-1.312-1.425-1.725-1.425-.525 0-.937.675-1.575 1.725h-1.2l.113-2.475c.862-.9 1.387-1.463 1.387-1.838 0-.712-3.037-1.575-4.425-1.575-.675 0-.712.413-.675.938l.113 4.95H254.4c-1.388 0-.675 1.087.337 1.087a87 87 0 0 1 4.575-.112 300 300 0 0 1-.075 5.775h-6.75c-1.462 0-.6 1.162.45 1.125a185 185 0 0 1 8.663-.188c-.863 1.05-1.838 2.1-2.925 3.225-.75-.3-1.463-.487-1.8-.487-.638 0-.525.637-.375 2.662-1.5 1.5-3.263 3.15-5.325 5.1-.638.6-.038 1.238.487.9A68 68 0 0 0 256.65 40c.075 3.038-.15 7.988-.375 11.1-.188 2.663 3.787 1.388 3.75-1.012V49h6.075l-.075 1.5c-.075 1.875 3.862 1.313 3.75-1.575-.113-3.337-.188-8.287-.075-10.912.375-.338 1.05-.938 1.05-1.538-.038-.6-2.288-2.062-3-2.062s-1.125.937-1.538 1.687m14.175-13.425h-3.375c-1.087-.787-2.887-1.612-3.562-1.612-.975 0-.488 1.2-.338 5.55.263 7.237.188 10.875-.3 26.587-.075 2.438 4.125 1.088 4.05-2.1a882 882 0 0 1-.112-27.412h3.712c-.675 3.15-1.425 6.075-2.212 8.475-.15.487-.225.825.225 1.312 2.1 2.325 3.9 5.738 3.187 8.513-.375 1.237-.825 2.137-3.787 1.5-.638-.113-.863.562-.338.862 3.525 2.1 1.35 3.638 3.338 3.638 1.687 0 3.45-1.575 4.2-3.75 1.612-4.613-.75-8.85-5.888-11.7 1.988-2.4 3.9-5.25 5.325-7.838.75-.525 1.238-.862 1.2-1.575 0-.75-2.362-2.475-3.412-2.475-.75 0-1.2.75-1.913 2.025m-20.362 25.313.037-5.175h6.188l-.113 5.175zm.075-6.188v-4.612l.075-.075h6.075V41.8zm2.362-10.762.225-5.7 3.713.112c-1.35 2.1-2.588 3.863-3.938 5.588m31.95-11.363c-.675-.262-1.05.488-.637.975 3.337 3.788 1.912 6.6 3.9 6.6 1.162 0 2.625-2.062 2.625-3.262 0-2.213-2.175-2.925-5.888-4.313m.188 11.813h-3.75c-1.425 0-.375 1.462.562 1.35 1.425-.15 2.625-.263 3.563-.263l-.188 12.788c0 .862-.412 1.237-1.762 2.175-.225.15-.563.3-.563.637 0 .563 2.1 3.338 2.963 3.338.337 0 .675-.15 1.387-1.763 1.425-1.762 3-3.787 4.575-6.037.225.15.563.262.9.225 2.025-.113 4.688-.188 7.613-.225-1.725 3.712-4.988 6.525-10.575 8.962-.638.263-.375 1.163.225 1.013 8.55-2.1 12.525-4.95 14.325-9.938 3.075 0 6.187.113 8.925.263.825.037 1.162-.675.562-1.388-1.462-1.8-2.55-2.625-3.3-2.625-.787 0-1.462 1.163-2.587 2.813h-3.3c.712-2.513.975-5.513 1.012-9.15.825-1.238.938-1.65.938-2.138 0-.75-2.925-1.462-4.013-1.462-.937 0-.787.6-.675 2.737.225 3.938-.075 7.238-1.162 10.013h-8.25l.075-.113c.412-.562-.075-1.012-.638-.6-.937.713-2.025 1.463-3.037 2.175.037-3.45.075-6.9.225-10.35.975-.9 1.35-1.35 1.35-1.762.037-.825-2.438-2.7-3.188-2.7-.6 0-1.387.862-2.212 2.025m25.762-4.95c-.525 0-1.125.525-1.8 1.537h-5.287v-3.75c2.55.038 5.175.075 7.687.188.75.037 1.05-.6.488-1.35-1.275-1.575-2.288-2.363-2.963-2.363-.75 0-1.35 1.05-2.325 2.588h-2.887l.037-1.35c.975-.9 1.35-1.425 1.35-1.8 0-.713-3.187-1.613-4.65-1.613-.712 0-.712.413-.675.975.075 1.163.15 2.438.188 3.788H303c-1.388 0-.638 1.125.375 1.087 1.8-.075 3.9-.112 6.15-.15l-.038 3.75h-7.95c-1.537 0-.675 1.163.45 1.125 3.975-.225 10.425-.187 16.688-.112-.338 1.65-.9 3.225-1.575 5.1-.225.45.225.975.6.675 1.387-1.013 2.737-2.438 3.862-3.9 1.425-1.05 1.725-1.388 1.725-1.8 0-.788-2.025-2.625-2.925-2.625m-6.187 18.525c-.713-.3-1.163.525-.638.975 5.175 4.65 5.25 7.312 7.088 7.312 1.087 0 2.175-1.687 2.175-2.775 0-1.387-1.95-2.812-8.625-5.512m-9.3-14.813c-.675-.225-.9.375-.6.75 2.737 3.338 2.062 5.063 3.637 5.063 1.125 0 2.063-1.725 2.063-2.363 0-1.387-1.913-2.475-5.1-3.45m-2.25 5.325c-.488-.15-.825.45-.488.788 3.3 3.562 2.475 5.212 4.05 5.212.788 0 1.95-1.387 1.95-2.437 0-1.35-1.462-2.288-5.512-3.563m41.737-16.987c-.675 0-.787.712-2.4 2.512-2.25 2.513-4.8 5.025-9.9 8.813-.525.412-.075 1.012.488.787a53 53 0 0 0 8.512-4.575c2.438 3.225 1.425 4.65 3.15 4.65.975 0 2.438-1.05 2.438-2.512 0-.9-1.2-1.988-4.425-2.925l2.175-1.575h8.775c-2.813 3.525-8.775 8.85-19.5 13.312-.638.263-.225 1.088.375.938 12.6-3 20.175-9.338 22.725-12.075 1.687-1.275 1.875-1.575 1.875-2.1 0-.75-2.475-2.7-3.375-2.7-.675 0-1.013.375-2.1 1.575h-7.5l.675-.563c2.287-.975 2.4-1.425 2.4-1.725 0-.637-3.6-1.837-4.388-1.837m4.388 14.362c-.525 0-.825.413-1.463 1.088-3.037 3.112-7.125 6.15-13.162 9.825-.488.3-.15.975.337.825 3.375-1.163 6.338-2.438 8.813-3.713 2.437 3.338 1.837 5.063 3.487 5.063 1.013 0 2.55-1.163 2.55-2.55 0-.938-1.387-2.175-4.762-3.188a61 61 0 0 0 3.637-2.212h8.438C353.55 43 346.35 48.7 331.762 53.013c-.712.225-.45 1.162.188 1.05 18.45-2.738 24.975-9.263 28.05-13.35 1.725-1.35 2.1-1.8 2.1-2.363 0-.975-2.588-3-3.413-3-.675 0-1.05.45-2.1 1.65h-6.825l.6-.45c1.988-.9 2.325-1.237 2.325-1.537 0-.563-3.225-2.025-3.937-2.063M22.387 79.7c-.187-.862-.862-.825-1.05.038-.9 4.087-2.025 4.725-2.025 6.487 0 1.05.638 2.625 1.725 2.625 1.65 0 2.25-4.762 1.35-9.15m-3.862 24.225c-.375.525.187 1.05.637.713 5.25-4.088 7.05-8.1 7.688-12.675 1.837 4.012 1.35 6.825 3.262 6.825 1.163 0 1.988-1.875 1.988-2.55 0-1.913-2.063-3.675-5.1-5.7.112-.975.15-1.988.187-3l.113-3.75.075-.038a19 19 0 0 0 3.9-2.437c1.237-.675 1.8-.75 1.8-1.238 0-.487-1.913-3.037-2.513-3.037-.525 0-.675.525-1.2 1.687a40 40 0 0 1-2.025 3.788l.225-8.1c.863-.675 1.2-1.238 1.2-1.613 0-.712-3.112-1.837-4.425-1.837-.675 0-.75.412-.675.937.638 5.475.563 10.538.3 15.525-.375 7.538-1.725 11.138-5.437 16.5m27.112-30.262H31.5c-1.5 0-.563 1.237.487 1.237 1.838-.075 3.975-.112 6.3-.112l-.075.675c-.15 1.162-.487 2.925-.787 4.35h-.45c-1.013-.6-2.513-1.2-3.375-1.2-.525 0-.488.3-.45 1.95.075 5.85 0 10.425-.225 15-.113 1.95 3.712 1.312 3.712-1.313V80.825h8.55l-.037 14.663c0 1.65 3.937.862 3.787-1.575-.262-4.163-.337-9.563-.15-12.188 1.013-.75 1.088-.937 1.088-1.237 0-.713-2.213-2.325-3.113-2.325-.825 0-1.35.9-1.762 1.65h-5.963c1.05-.825 1.875-1.763 2.325-2.4 1.275-.975 1.5-1.313 1.5-1.613s-.562-.675-1.312-1.05c3.037 0 6.187.075 9.262.15.788.038 1.088-.675.488-1.35-1.425-1.762-2.475-2.55-3.15-2.55-.788 0-1.463 1.125-2.513 2.663m-17.362 31.2c-.638.337-.15 1.087.337.937 14.063-4.2 13.95-9.975 13.988-19.575.787-1.162.825-1.5.825-1.8 0-.712-2.625-1.537-3.863-1.537-.825 0-.487.525-.45 4.05.075 7.687.113 12.075-10.837 17.925m14.25-7.95c-.563-.225-.938.487-.525.862 4.612 4.125 4.8 7.5 6.787 7.5.938 0 2.025-1.575 2.025-2.7 0-1.987-2.625-3.45-8.287-5.662m19.237-15.75c-.262 2.362 3.713 1.2 3.713-.225v-.075h18.112v.037c-.075 1.538 3.675 1.238 3.675-.712 0-.975.038-1.575.113-2.138.412-.487 1.087-.862 1.087-1.575 0-.6-2.212-1.8-3.15-1.8-.712 0-1.237.788-1.725 1.725h-3.862l.075-1.087c.675-.525.975-.863.975-1.163v-.075l9.187.15c.675 0 .9-.712.413-1.275-1.575-1.837-2.513-2.287-3.15-2.287-.75 0-1.388 1.05-2.4 2.362H59.437c-1.5 0-.6 1.238.525 1.2 2.55-.075 5.775-.112 9.3-.15v.038l.075 2.287H65.7c-.938-.712-2.475-1.35-3.263-1.35-.637 0-.675.488-.637 1.013.075 1.5.112 3.675-.038 5.1m11.963-.113c-.6 0-.6.488-1.613 1.763-.9 1.05-2.137 2.362-4.237 4.312-.3-.15-.638-.262-.863-.262-.487-.038-.6.262-1.275 1.125-2.025 2.25-4.987 4.912-8.362 7.5-.45.337-.113.937.337.787 1.875-.637 3.75-1.5 5.438-2.512v.862a95 95 0 0 1-.713 9.638c-.375 2.925 3.975 1.2 3.975-.825 0-2.4-.037-8.175 0-9.188 1.013-.75 1.088-1.125 1.088-1.35 0-.3-.75-.675-1.613-.937A39 39 0 0 0 68.1 90.05c.862-.45 1.8-.787 1.8-1.275 0-.225-.45-.637-.975-1.05A36 36 0 0 0 72.337 86c-.037.113 0 .263 0 .413.075 2.325.075 4.875-.15 7.012-.112 1.425 3 .9 3.263-.412h7.8v.45c0 1.312 3.337.975 3.3-.675a87 87 0 0 1 0-4.425c.375-.375 1.087-.863 1.087-1.65 0-.525-2.362-1.763-3.15-1.763-.637 0-1.087.638-1.687 1.238h-7.238c-.787-.338-1.8-.6-2.55-.638a25 25 0 0 0 1.463-1.012c4.275-.113 9.3-.075 14.662.037.638 0 .975-.562.375-1.237-1.087-1.35-1.912-1.875-2.475-1.875-.637 0-1.162.862-1.987 2.062h-9.263c1.35-.562 1.463-.787 1.463-.975 0-.45-2.625-1.5-3.525-1.5m2.062 12.15c-.412 0-.525.3-1.5 1.688-1.2 1.725-3.112 3.712-6.337 6.15-.488.375-.15 1.012.412.787C71.55 100.4 73.65 99.2 75.187 98A29 29 0 0 0 78 100.438c-2.213 1.2-5.438 2.512-10.313 4.012-.562.188-.375.938.15.863 5.963-.675 9.9-1.8 12.675-3.188 3.225 2.025 6.225 3.225 6.975 3.225 1.013 0 .6-1.537 3.3-2.287.638-.188.713-.975-.037-1.088-1.65-.262-4.238-.6-7.463-1.612a15 15 0 0 0 2.438-2.475c1.5-.938 1.612-1.088 1.612-1.575 0-.638-2.25-1.838-2.925-1.838-.637 0-1.05.525-1.687 1.163h-5.138l.038-.038c1.687-.637 1.725-1.087 1.725-1.312 0-.375-2.438-1.088-3.563-1.088m-8.925-11.7c-.45 0-.487.45-1.837 1.725-1.575 1.5-3.413 3.15-6.563 5.363-.45.337-.15.825.3.712 3.3-.825 6.375-2.437 8.963-4.275 1.05-.45 2.025-.712 2.025-1.237 0-.563-1.988-2.25-2.888-2.288m-1.387-1.65v-2.437h3.9v2.437zm7.087 0v-2.437H76.5l-.038 2.437zm0-3.45.038-1.087c.525-.525.825-.863.825-1.163 0-.037 0-.075-.038-.075h3.15V76.4zm2.925 15.638V90.05h7.8l-.037 1.988zm0-2.925v-1.95h7.8v1.95zm.488 8.25.75-.75h5.737c-.6.9-1.387 1.725-2.512 2.587a52 52 0 0 1-3.975-1.837m3.637-17.513.075-2.437H83.7l-.075 2.437zm31.05-6.675c-2.25 3.75-6.337 9.413-14.175 15.9-.562.488-.112 1.125.488.825 7.537-3.862 12.675-8.1 17.775-14.737 5.062 7.65 11.062 13.912 12.45 13.912 1.35 0 .337-2.137 3.787-3.187.563-.15.6-.9-.037-1.163-1.913-.75-7.8-4.087-15.6-10.387 1.462-.563 1.575-.938 1.575-1.275 0-.75-3.038-2.7-4.163-2.7-.787 0-.825.675-2.1 2.812m.525 30.938c-.187 2.887 4.65 1.912 4.613-1.275-.113-6.413-.188-10.313-.15-18.15.975-.9 1.35-1.313 1.35-1.763 0-.825-3.488-2.175-4.725-2.175-.863 0-.6.525-.6 2.925.037 5.4 0 12.675-.488 20.438m42.788-16.95c.15 4.575 0 8.662-.075 11.737-.113 4.275 2.25 6 7.5 6 5.212 0 7.762-1.537 7.762-3.375 0-1.837-1.687.225-1.462-6.487.037-.938-1.05-.9-1.125-.038-.45 4.05-1.163 6.15-4.5 6.15-3.563 0-4.313-.487-4.313-3.337 0-2.4.038-5.138.113-9 .675-.75 1.012-1.163 1.012-1.538 0-.262-.375-.487-.937-.675 3.375.038 6.637.113 9.562.225.788.038 1.05-.75.563-1.35-1.613-1.95-2.663-2.775-3.413-2.775-.825 0-1.5 1.2-2.625 2.813h-8.175c.188-5.438.375-9.338.525-11.475 1.013-.9 1.5-1.425 1.5-1.8 0-.675-3.487-1.538-4.95-1.538-.787 0-.712.375-.675 1.425.075 3.825.075 8.4-.037 13.388h-13.538c-1.65 0-.525 1.35.638 1.312 2.437-.112 5.662-.187 9.262-.225-.187.45-.15 1.5-.675 3.638-1.087 4.35-4.387 9.937-10.05 14.55-.562.45-.112 1.237.563.937 7.575-3.412 12.3-8.7 14.1-15.937 1.125-1.125 1.162-1.35 1.162-1.65 0-.6-1.537-1.238-2.925-1.575h5.213zM140.812 74.15c-.75-.412-1.5.075-.787.975 3.825 4.913 2.212 8.475 4.687 8.475 1.313 0 2.7-2.025 2.7-3.262 0-1.65-2.55-3.975-6.6-6.188m21.338-.6c-.563 0-.375.113-1.575 2.138-.975 1.65-2.625 4.125-4.725 7.05-.338.487.112.937.525.712 3-1.575 5.062-3.187 7.312-5.1 1.313-.45 2.325-.9 2.325-1.612 0-.638-2.7-3.188-3.862-3.188m19.912 3.038c.075 1.65.113 3.3.15 5.175h-6.862c-1.463 0-.638 1.162.412 1.162 1.875-.075 4.088-.15 6.45-.15v1.088a1.1 1.1 0 0 0-.337-.075c-.525 0-.525.637-1.463 2.55-1.837 3.862-4.312 8.062-6.975 11.25-.375.45.075 1.012.563.712 3.45-2.025 6.112-4.837 8.325-8.325-.075 3.6-.225 8.025-.638 13.838-.225 3.187 4.125 1.687 4.125-.675 0-2.888-.225-13.2-.187-20.363 1.875.038 3.825.075 5.737.15.75.038 1.088-.562.525-1.35-.975-1.312-1.987-2.287-2.625-2.287-.712 0-1.237.937-2.137 2.475h-1.5l.112-3.938c1.013-1.087 1.238-1.537 1.238-1.762 0-.263-.525-.6-1.238-.863 1.238-.3 2.4-.562 3.375-.862 2.025-.188 2.25-.375 2.25-.675-.037-.525-2.55-2.7-3.637-2.7-.638-.038-.75.187-1.613.637-2.55 1.35-5.925 2.775-10.5 4.538-.675.262-.412.937.3.825 2.138-.3 4.2-.638 6.113-1.013zm4.425 8.962c-.6-.337-1.125.038-.562.975 2.887 4.613 2.062 7.088 3.975 7.088.937 0 1.8-2.1 1.8-3.113 0-1.125-1.575-2.812-5.213-4.95m15.863-9.637h-5.663c-.862-.788-2.475-1.538-3.412-1.538-.9 0-.525 1.05-.45 4.425.075 5.475.037 15.825-.263 23.063-.112 2.4 3.938 1.012 3.975-1.5v-1.875h5.85l-.037 2.737c-.038 2.025 4.2 1.388 4.125-1.687-.338-9.675-.3-15.225-.225-21.825.412-.375 1.05-.975 1.05-1.538 0-.862-2.438-2.287-3.225-2.287-.75 0-1.313 1.087-1.725 2.025M196.5 77h5.887c.113 5.25.075 12.75 0 20.4h-5.85c-.037-4.537-.075-11.587-.037-20.4m40.912-6.037c-1.2 0-6.825 2.662-15.825 4.537-.937-.675-2.925-1.387-3.675-1.387-1.05 0-.637 1.125-.562 2.7.6 10.95.3 18.45-4.425 26.25-.263.45.337 1.012.787.562 6.038-5.587 7.613-9.862 7.8-20.4 6.488-.15 15.9-.15 23.738.075.787.038 1.012-.75.487-1.387-1.65-1.988-2.775-2.738-3.525-2.738-.825 0-1.537 1.238-2.7 2.888H221.55l-.038-5.513c7.238-.337 14.325-1.087 18-1.65 2.55 0 2.925.038 2.925-.525 0-.675-3.862-3.412-5.025-3.412M237.9 89.6h-10.313c-1.087-.75-3-1.5-3.675-1.5-.9 0-.45 1.238-.525 5.325-.037 2.925-.15 7.538-.412 10.238-.263 2.512 4.35 1.425 4.35-.975V101.6h10.462l-.037 2.175c-.038 1.575 4.575 1.2 4.387-1.725-.187-2.775-.262-8.212-.187-10.5.675-.75 1.05-1.237 1.05-1.575 0-.75-2.55-2.25-3.338-2.25-.787 0-1.312 1.088-1.762 1.875m-10.575 10.988v-9.975h10.65l-.15 9.975zm47.7-29.888c-1.088.038-3.188 1.388-17.85 3.563-.6.075-.488.9 0 .9 3.675-.113 6.975-.263 9.862-.413l.113 2.963h-13.125c-1.538 0-.6 1.275.562 1.237 2.625-.112 6-.15 9.75-.187-.3.3-.637.787-1.387 1.575-2.85 2.887-5.775 5.325-10.125 8.175-.638.45-.3 1.05.3.825 4.65-1.575 10.687-4.875 13.95-7.95l-.188 4.462c-.112 2.325 4.013 1.613 4.013-.787 0-1.988-.15-3.788-.225-5.363 6.112 6.15 9.75 8.55 10.837 8.55 1.013 0 .825-1.762 3.488-2.25.6-.112.712-.975.037-1.162-2.212-.675-6.412-2.325-14.25-6.113 4.238.038 8.588.113 12.413.225.712 0 .975-.712.487-1.312-1.462-1.8-2.475-2.513-3.15-2.513-.75 0-1.387 1.088-2.4 2.588h-7.387l.037-1.238c.863-.787 1.088-1.162 1.088-1.462 0-.188-.225-.375-.6-.525 2.175-.15 3.975-.3 5.325-.45 2.625.075 2.962.075 2.925-.338 0-.562-3.375-3-4.5-3m.15 15.6c-.713 0-1.088.413-1.95 1.5h-13.65c-1.65 0-.638 1.313.525 1.238 3-.225 7.837-.225 12.712-.15-.637.787-1.35 1.5-2.25 2.325-.9-.413-2.325-.675-3.375-.675-1.012 0-.112 1.2.188 2.512l.15.975h-14.7c-1.613 0-.563 1.35.637 1.275 3.6-.112 8.738-.187 14.175-.225.15 1.763.038 3.488-.15 4.313-.45 1.987-.562 2.175-5.437 1.725-.75-.075-.713.9-.15 1.012 4.95 1.2 2.85 3.675 4.8 3.675 1.875 0 4.95-1.837 4.987-6.75a25 25 0 0 0-.225-3.937c4.5 0 9.075.075 13.088.187.75.038.975-.75.487-1.35-1.537-1.875-2.587-2.662-3.3-2.662-.787 0-1.5 1.162-2.55 2.737h-7.95a7 7 0 0 0-.3-1.05c.225-.337.488-.712.488-1.05 1.837-.487 3.3-1.087 4.8-1.725 1.425-.375 2.212-.75 2.212-1.125 0-.712-2.175-2.775-3.262-2.775m-9.113-7.537 1.05-.038v.525c-.337-.187-.675-.375-1.05-.487m39.675-8.813c-.6-.112-1.087.413-.637.975 1.5 1.913 1.125 3.675 1.725 4.313h-9.975c-.075-.563-.15-1.05-.3-1.538-.225-.9-.863-.825-1.125-.112-1.388 3.9-3.263 4.65-3.263 6.187 0 .975.825 2.175 2.063 2.175 1.8 0 2.7-2.85 2.662-5.55 5.288-.225 13.8-.187 21.713-.15a19 19 0 0 1-.9 2.813c-.188.487.262.937.712.712 1.425-.675 2.963-1.5 4.238-2.362 1.312-.563 1.387-.75 1.387-1.088-.037-.787-2.737-2.775-3.712-2.775-.638 0-1.088.713-1.575 1.688h-9.975c1.125-.45 2.362-1.35 2.362-2.213 0-1.537-2.175-2.325-5.4-3.075m-1.5 21.938c-.487-.188-.862.187-.562.675 2.662 4.575 1.612 6.562 3.262 6.562 1.013 0 2.063-1.387 2.063-2.925 0-1.687-1.313-2.887-4.763-4.312m-9.15-1.613c-.487 0-.375.563-1.162 3.038-.6 1.95-1.613 4.35-3.413 7.65-.375.562.188.937.675.562 3.188-2.4 4.65-4.725 5.888-6.937.937-1.05 1.387-1.613 1.387-1.988 0-.862-2.55-2.287-3.375-2.325m23.663-10.462c-.75 0-1.05.375-1.725 1.575h-7.5c-1.463 0-.75 1.087.3 1.05l.862-.038c.938 4.5 2.025 8.288 3.263 11.775-1.913 3.675-4.875 7.05-9.375 9.9-.488.375-.225 1.05.525.788 4.687-1.725 7.987-4.313 10.275-7.275 2.175 4.312 4.687 7.425 5.325 7.425 1.012 0 .75-1.538 3.15-2.513.6-.225.712-.75.112-1.162-1.762-1.313-4.087-3.525-6.6-6.75 1.95-3.563 2.85-7.425 3.338-11.025 1.162-.825 1.275-1.088 1.275-1.425 0-.75-2.1-2.325-3.225-2.325m-15.038 2.437h-1.837l.037-1.875c.825-.9 1.2-1.35 1.2-1.725 0-.75-2.925-1.425-4.237-1.425-.675 0-.6.413-.563.938.075.937.263 5.062.15 9.562h-6.337c-1.425 0-.638 1.163.412 1.125a155 155 0 0 1 6.375-.15c.038.263.113.675.15 1.313.15 2.887.338 5.362.15 8.325-.187 2.812-.45 2.812-3.75 2.512-.75-.075-.862.975-.187 1.163 3.862 1.087 1.425 3.45 3.45 3.45s3.862-2.213 3.937-5.4c.075-3.15-.075-5.4-.337-9.413.675-.637.75-.862.75-1.087 0-.3-.675-.638-1.463-.863 2.513 0 5.175.038 7.725.15.75.038 1.05-.562.488-1.312-1.163-1.425-2.1-2.175-2.738-2.175-.675 0-1.237.937-2.175 2.362h-3.037l-.038-4.575c1.8 0 3.263.038 6.038.075.712.038 1.05-.487.412-1.312-.975-1.2-1.912-1.988-2.512-1.988-.675 0-1.2.9-2.063 2.325m7.988.113c1.612-.038 3.3-.038 5.325 0-.225 3.112-.788 6.187-1.875 9.112-1.2-2.512-2.363-5.512-3.45-9.112m45.037-6.225h-3.15l.075-2.138c.825-.9 1.275-1.5 1.275-1.875 0-.675-3.037-1.462-4.387-1.462-.675 0-.788.412-.788.937a91 91 0 0 1 0 4.538h-6.45v-2.1c.825-.938 1.275-1.463 1.275-1.838 0-.75-3.262-1.5-4.612-1.5-.675 0-.675.413-.638.938l.113 4.5h-8.363c-1.612 0-.562 1.312.638 1.275 2.1-.075 4.762-.15 7.762-.188 0 1.425-.037 2.85-.112 4.163-.075 1.875 4.012 1.05 3.975-1.013l-.038-3.187h6.413l-.188 3.975c-.075 1.687 3.9 1.2 3.975-1.05l.038-2.888c3.037.038 5.962.113 8.625.188.787.037 1.012-.75.525-1.35-1.538-1.913-2.625-2.738-3.375-2.738-.788 0-1.463 1.163-2.588 2.813M341.025 104.3c-.113 2.85 4.612 1.575 4.537-1.575-.15-5.4-.187-8.587-.112-15.525.937-.9 1.275-1.312 1.275-1.837 0-.15-.188-.3-.45-.45l8.587.037c.038 2.7-.112 5.775-.712 8.363-.675 2.887-.975 2.925-5.4 2.437-.788-.075-.9.788-.263 1.013 4.425 1.575 2.063 3.9 4.163 3.9 2.175 0 4.087-1.8 4.987-4.95.713-2.4.9-5.925 1.05-9.3.9-.713 1.238-1.013 1.238-1.575 0-.788-2.325-2.738-3.3-2.738-.825 0-1.275.6-2.1 1.763h-22.238c-1.612 0-.675 1.275.525 1.237 2.288-.112 5.25-.187 8.588-.187v.075a388 388 0 0 1-.375 19.312M33.15 124.688c-2.25 3.337-6.638 8.812-14.475 15.487-.563.488-.15 1.163.487.825 7.538-4.087 12.863-8.325 18.113-14.475C42.45 133.538 48.112 140.1 49.5 140.1c1.35 0 .375-1.875 3.675-2.85.562-.187.712-.9.075-1.162-1.913-.863-7.2-3.863-15.3-10.238 1.387-.487 1.5-.825 1.5-1.2.037-.712-2.963-2.625-4.088-2.625-.787 0-.9.75-2.212 2.663m3.562 11.85h-7.387c-1.35 0-.6 1.125.375 1.125 3.712-.113 7.425-.113 12.15.037.787.038 1.125-.637.487-1.387-1.425-1.688-2.437-2.438-3.15-2.438-.75 0-1.425 1.125-2.475 2.663m-12.037 6.75c-1.575 0-.675 1.237.45 1.2 3.675-.188 8.962-.15 14.475-.113-1.163 3.9-2.588 8.138-4.088 11.888-.937 2.362 3.863 3.037 4.838-.525.862-2.888 1.65-5.438 3.15-9.825 1.162-.975 1.5-1.425 1.537-1.838 0-.9-2.512-2.737-3.225-2.737-.712 0-1.237.262-2.4 1.95zm46.312-7.463h-2.7l.038-3.487 5.55.112c.637.038.975-.525.375-1.2-.938-1.162-1.65-1.65-2.138-1.65-.6 0-1.05.75-1.762 1.8h-1.988l.075-3.15 5.888.113c.637.037.975-.525.412-1.238-1.05-1.237-1.837-1.762-2.362-1.762-.6 0-1.125.825-1.875 1.95h-2.025l.037-1.388c.938-.9 1.275-1.425 1.275-1.8 0-.712-3-1.575-4.35-1.575-.675 0-.675.413-.637.938l.112 3.825h-5.1c-1.387 0-.675 1.087.338 1.05a93 93 0 0 1 4.762-.113v3.15h-4.537c-1.388 0-.675 1.088.3 1.05a75 75 0 0 1 4.237-.112l-.075 3.487H58.05c-1.388 0-.638 1.088.375 1.088 4.312-.225 10.5-.188 16.387 0 .675 0 1.013-.563.413-1.238-1.013-1.275-1.8-1.8-2.363-1.8-.6 0-1.087.825-1.875 1.95m-1.35 3.45h-5.362c-.975-.637-2.513-1.237-3.113-1.237-.787 0-.375 1.05-.375 4.687 0 3.488-.112 8.925-.525 13.425-.225 2.475 3.9.863 3.9-1.462v-6.225h5.625v1.95c.038 2.85-.187 2.812-3.337 2.55-.713-.075-.788.825-.15 1.012 3.562 1.013 1.687 3.338 3.412 3.338 1.575 0 3.525-1.575 3.488-4.875-.113-7.5-.225-8.55-.15-11.25.375-.3 1.05-.9 1.05-1.538 0-.6-2.288-2.025-2.925-2.025-.713 0-1.163.938-1.538 1.65m10.275-16.537c-.787 0-.6.6-1.35 2.775-.825 2.25-2.175 4.912-4.087 7.875-.375.525.037.787.375.562 2.362-1.575 4.275-3.562 5.737-5.587h3.038c-.9 2.175-1.763 3.637-2.738 5.25h-4.125c-1.425 0-.75 1.05.263 1.05l2.925-.113a3.3 3.3 0 0 0 0 .863l.15 3.375h-4.913c-1.462 0-.712 1.125.338 1.087 1.35-.075 2.925-.112 4.612-.15l.113 4.5h-4.463c-1.425 0-.75 1.05.3 1.05 1.238-.075 2.625-.112 4.163-.15l.037 4.65c.038 3.788-.525 3.6-4.762 3.263-.713-.038-.75.9-.113 1.05 4.688 1.237 1.988 3.712 4.275 3.712 1.763 0 4.238-1.987 4.125-6.225l-.187-6.45 2.7.038v1.275c-.038 2.25 3.412 1.387 3.375-.675 0-1.688-.188-3.038-.225-6l2.625.075c.562.037.937-.45.412-1.2-.412-.675-1.162-1.538-1.612-1.538-.488 0-.788.6-1.35 1.688h-.075l.037-2.738c.675-.487 1.35-1.012 1.35-1.725 0-.712-2.175-2.362-2.85-2.362-.6 0-1.237.975-1.612 1.65h-4.163c1.575-1.088 3.413-2.625 4.8-4.163 1.013-.637 1.463-.937 1.463-1.35-.038-.637-2.138-2.55-2.925-2.55-.563 0-1.163.713-1.913 1.838h-2.4l.338-.525c.975-.863 1.687-1.35 1.687-2.025 0-.638-2.475-2.1-3.375-2.1m-15.75 24.712v-3.15h5.588v3.15zm0-4.162v-3h5.55l.038 3zm19.013-8.738h3.262l-.037 4.238h-3.038l-.037-2.4c.225-.375.487-.713.487-1.163 0-.225-.262-.487-.637-.675m.225 5.175h3l-.038 4.5h-2.775zm40.425-13.8H97.612c-1.612 0-.525 1.388.638 1.313 5.25-.188 13.65-.263 21.712-.15l.075 2.587c.075 7.463-.037 13.875-.112 18.3-.075 4.05.075 4.538-5.738 4.05-.862-.075-.862.9-.15 1.125 5.963 1.838 2.663 4.238 5.1 4.238 2.813 0 5.025-3.3 4.95-8.025-.112-8.1-.075-16.275 0-19.725 1.163-1.125 1.388-1.65 1.388-2.063 0-.15-.15-.262-.375-.412l4.462.112c.788.038 1.013-.787.525-1.387-1.687-2.063-2.775-2.85-3.562-2.85-.825 0-1.538 1.237-2.7 2.887m-12.713 6.638h-5.587c-1.088-.788-2.925-1.425-3.6-1.425-.938 0-.6.712-.6 4.912 0 2.888-.038 6.45-.3 10.425-.188 2.663 4.087 1.575 4.087-.975v-1.65h5.963l-.038 1.763c-.037 1.725 4.313 1.35 4.088-1.838-.3-3.862-.3-6.9-.225-8.962.937-.9 1.05-1.313 1.05-1.688 0-.75-2.288-2.25-3.113-2.25-.6 0-1.05.638-1.725 1.688m-6 10.237.038-9.225h6.037l-.112 9.225zm45.075-20.587c-.562-.188-1.162.337-.712.975 1.762 2.4 1.312 4.275 2.062 4.987h-9.712a5.2 5.2 0 0 0-.375-1.35c-.338-.862-.863-.825-1.163-.075-1.537 4.05-3.45 4.613-3.45 6.3 0 1.013.788 2.475 2.063 2.475 1.912 0 3.112-3.412 3-6.337h21.675c-.375 1.35-.788 2.475-1.425 4.087-.188.45.375.9.862.6 1.575-.937 3.188-2.025 4.5-3.225 1.5-.787 1.575-1.05 1.575-1.425 0-.75-2.325-2.887-3.45-2.887-.675 0-1.312.75-1.987 1.837h-10.088c1.05-.525 2.213-1.65 2.213-2.512 0-1.613-2.438-2.438-5.588-3.45m-2.175 8.625c-.487 0-.675.6-1.5 1.612-2.925 3.6-5.4 5.963-9.9 9.3-.562.413-.112.975.413.788 4.987-1.8 9.45-4.5 12.225-7.088 1.35-.562 2.175-.9 2.175-1.65 0-.825-2.438-2.962-3.413-2.962m6.375.675c-.75-.188-1.012.637-.375.975 7.613 4.2 8.588 8.212 10.425 8.212.863 0 1.95-1.5 1.95-2.662 0-2.138-3.487-4.313-12-6.525m3.525 10.687h-16.125c-1.5 0-.562 1.275.488 1.238 2.25-.075 5.025-.113 7.987-.15.075 3.187-.075 6.862-.262 11.1h-12.975c-1.613 0-.525 1.35.637 1.312 7.163-.262 20.288-.3 30.075 0 .788.038 1.013-.75.488-1.387-1.613-1.988-2.7-2.813-3.488-2.813-.825 0-1.537 1.2-2.662 2.888H154.5c-.15-4.088-.075-6.638-.038-9.15.975-.825 1.163-1.2 1.163-1.538 0-.112-.15-.262-.375-.375l7.537.113c.75.037 1.05-.675.488-1.35-1.35-1.65-2.325-2.363-3-2.363-.75 0-1.35 1.013-2.363 2.475m31.5-18.15c-.712 0-1.012.413-1.8 1.538h-10.537c-1.65 0-.638 1.312.487 1.275 2.55-.188 6.075-.188 9.975-.15-.637 1.65-1.35 3.15-2.362 5.025-.825-.338-1.875-.525-2.363-.45-.862.112-.3 1.087.263 3.637.15.788.3 1.763.412 2.888-2.437.6-4.425 1.05-6.075 1.35-2.362.45-2.662.3-2.625 1.012.038 1.013 1.838 3.9 2.663 3.9.337 0 .712-.3 1.612-1.125 1.463-.6 2.963-1.2 4.613-1.95.15 3.15.037 6.45-.375 8.438-.525 2.587-1.275 2.775-5.438 2.325-.712-.075-.825.9-.262 1.087 4.875 1.65 2.7 4.2 4.537 4.2 1.95 0 5.288-2.137 5.4-9.9a63 63 0 0 0-.375-7.762c1.688-.825 3.6-1.838 5.813-3.075.637-.338.412-1.05-.263-.9l-5.925 1.537c-.187-1.275-.45-2.325-.712-3.112.262-.488.337-.713.337-1.163 0-.15-.075-.262-.225-.412a26 26 0 0 0 4.725-3.675c1.275-.563 2.025-1.013 2.025-1.725 0-.6-2.437-2.813-3.525-2.813m4.913.375c.337 4.725-.15 21.413-.263 24.488-.225 5.7 2.063 7.8 7.163 7.8 4.875 0 7.687-1.425 7.687-3.413 0-1.8-1.65.225-1.537-6.337 0-.975-.975-.975-1.088-.075-.225 1.912-.6 3.6-1.05 4.612-.487 1.125-1.875 1.463-3.525 1.463-2.887 0-3.712-.863-3.675-4.425.038-4.913.038-12.188.638-21.938.862-.675 1.2-1.275 1.2-1.65 0-.675-3.338-1.875-4.875-1.875-.563 0-.675.3-.675 1.35m46.087 14.175h-8.475c-.037-3.637.038-6.825.113-9.825 3.862 0 7.837.075 11.25.225.787.075 1.05-.712.525-1.312-1.538-1.875-2.55-2.625-3.263-2.625-.787 0-1.5 1.162-2.55 2.7h-5.962l.037-1.875c.975-.9 1.463-1.313 1.425-1.838 0-.675-3.637-1.462-4.912-1.462-.788 0-.675.525-.638 1.125l.15 4.05H216.45c-1.538 0-.525 1.275.6 1.237 2.812-.15 6.787-.225 11.062-.225.075 3.225.113 6.488.113 9.825h-14.138c-1.612 0-.562 1.35.638 1.275 2.737-.112 6.45-.187 10.537-.225-.375.375-.712 1.163-1.612 2.625-2.55 4.088-6.075 8.363-10.538 12.413-.525.487-.15 1.125.525.787 5.7-2.775 10.463-6.9 14.4-12.037l.15-.113c-.075 4.163-.225 8.475-.412 13.05-.15 2.85 4.65 1.5 4.537-1.537-.225-5.625-.45-9.938-.525-13.8 5.7 9.825 9.863 13.537 10.95 13.537 1.013 0 .338-1.612 3.638-2.587.787-.225.787-.75.075-1.163-2.925-1.762-5.775-3.675-14.475-11.175 4.837 0 9.75.075 13.95.225.787.038 1.012-.75.525-1.35-1.575-1.95-2.663-2.737-3.413-2.737-.787 0-1.5 1.2-2.625 2.812m-20.287-8.475c-.788-.337-1.35.15-.825.975 2.962 4.35 1.687 6.638 3.787 6.638 1.313 0 2.438-1.763 2.438-3.15-.038-1.538-2.7-3.338-5.4-4.463m17.625-.15c-.525 0-.525.225-1.088 1.275-.9 1.875-2.025 4.125-3.3 6.188-.3.525.038.9.638.562 2.175-1.125 3.525-1.987 5.475-3.787 1.687-.788 1.837-1.05 1.837-1.538 0-.562-2.437-2.7-3.562-2.7m-11.1 9.675h1.575v1.163c-.45-.45-1.013-.9-1.575-1.163m41.025-7.275c-1.2 0-.675.675-.15 4.05.675 4.238.637 10.575.187 12.825-.562 2.663-2.137 2.813-6.15 2.288-.825-.113-1.087.9-.262 1.2 5.475 1.875 3.225 4.687 5.175 4.687 3.225 0 5.325-3.562 5.662-8.55.3-4.387.15-8.287-.675-12.975.938-1.087.863-1.725 0-2.325 3.45-1.5 7.463-3.6 9.938-5.4 2.025-.637 2.175-.862 2.175-1.35-.038-.862-3.113-3.187-4.313-3.187-.675 0-1.725 1.05-2.625 2.212h-21.225c-1.725 0-.562 1.388.675 1.35 4.425-.337 12.788-.3 20.213-.187-1.913 2.062-3.825 4.05-5.85 6-.825-.375-2.025-.638-2.775-.638m49.65-8.737c-.788 0-1.688 1.162-2.138 1.912h-19.275c-1.575 0-.712 1.238.45 1.2 4.725-.187 12.038-.15 19.163-.112l-.038 3.675h-18.262c-1.575 0-.713 1.2.412 1.2 4.5-.188 11.138-.15 17.85-.15l-.075 4.35h-20.4c-1.687 0-.675 1.312.563 1.275 4.575-.263 12.525-.225 19.8-.15v.637c-.075 2.475 4.312 1.125 4.312-1.087 0-2.025-.375-3.263-.3-8.138.788-.562 1.613-1.125 1.613-1.95s-2.813-2.662-3.675-2.662m-11.175 14.025c-1.088 0-.638.412-.825 3.562-.45 7.388-4.275 11.55-13.913 15.15-.712.263-.525 1.125.263 1.013 9.3-1.575 14.662-5.1 16.762-10.875 4.913 7.462 10.763 10.725 12.075 10.725 1.425 0 .638-1.988 4.238-3.038.637-.187.675-.9-.038-1.05-1.875-.45-8.887-2.1-15.862-7.875.337-1.312.525-2.7.6-4.2 1.162-1.125 1.35-1.5 1.35-1.8 0-.712-2.85-1.612-4.65-1.612m11.625 1.837c-.488 0-.6.263-1.35 1.2-1.2 1.463-3.188 3.45-4.763 4.95-.525.488-.225 1.013.375.863 1.988-.45 4.463-1.125 6.863-2.288 1.35-.262 2.325-.525 2.325-1.05s-2.438-3.675-3.45-3.675m-17.513 1.125c-.187-.862-.862-.9-1.2-.15-1.762 3.938-4.087 4.2-4.087 5.925 0 .825.9 2.325 2.175 2.325 2.325 0 4.012-4.012 3.112-8.1m43.238-18.15c-.6 0-.9 1.05-6.825 4.05-.9-.45-2.4-.937-3.225-.937-.75 0-.563.787-.375 1.875.187 1.8.3 3.675.412 5.887.075 1.613-.15 2.063-1.162 2.4-.6.225-.788.338-.788.675 0 .975 2.213 3.225 3 3.225.225 0 .525-.037 1.2-1.012 2.1-1.425 4.313-2.963 6.9-5.25.525 1.762.525 2.775 1.65 2.737 1.2-.037 2.175-1.837 2.175-3-.037-1.725-2.475-3.525-4.837-4.35-.638-.225-1.125.075-.675.788a14.2 14.2 0 0 1 1.387 2.887c-1.875.863-3.75 1.538-5.437 2.175-.113-2.925-.15-5.287-.113-6.9 4.05-.562 6.675-1.237 8.55-1.725 1.35 0 1.613-.225 1.613-.675 0-.525-2.738-2.85-3.45-2.85m10.912 18.863h-15.187c-.938-.675-2.513-1.463-3.825-1.463-.863 0-.525.9-.413 4.388.113 3.787-.037 7.725-.3 12.262-.112 2.063 4.125 1.35 4.125-1.162v-.263h15.9v1.5c0 1.275 4.313 1.2 4.125-1.875-.187-3.75-.3-8.625-.112-10.987.412-.45 1.162-1.2 1.162-1.838 0-.675-2.587-2.212-3.6-2.212-.862 0-1.425 1.012-1.875 1.65m-9.487 2.85v3.3h-6.113v-5.138h6.075zm-6.113 9.9V148.5h6.113l-.113 5.588zm4.125-14.325c-.487.412.038.975.488.787 5.85-2.475 9.075-6.675 10.35-10.237 1.312-1.013 1.387-1.313 1.387-1.688-.037-.525-.975-1.125-1.95-1.575l4.875.075c-.187 3.713-.45 5.325-.862 6.563-.525 1.5-.675 1.8-4.2 1.35-.75-.113-.825.862-.15 1.087 3.562 1.238 1.95 3.188 3.45 3.188 1.762 0 2.925-1.013 3.675-2.625.9-1.95 1.275-4.125 1.537-8.025.9-.938 1.05-1.388 1.05-1.875 0-.713-2.662-2.325-3.375-2.325-.562 0-1.012.6-1.537 1.687h-10.463c-1.462 0-.75 1.088.338 1.05a46 46 0 0 1 3.337-.112c-.112.262-.225.637-.337 1.162-1.35 4.688-3.75 8.4-7.613 11.513m5.7 14.325V148.5h6.15l-.037 5.588zm.038-6.6.037-3.675c.788-.675.788-1.05.788-1.275 0-.075-.038-.113-.113-.188h5.438l-.038 5.138zM40.687 176.463c.338 9.15.188 18.6.075 24.937-.075 5.325 1.2 7.35 6.225 7.35 3.9 0 6.45-1.687 6.45-3.6 0-1.8-1.537.525-1.425-5.962 0-.975-1.012-.975-1.125-.075-.225 2.137-.562 3.75-.975 4.537-.487.863-1.537 1.35-2.85 1.35-2.475 0-2.737-1.2-2.737-3.975 0-4.987.112-12.487.412-22.387.788-.675 1.088-1.275 1.088-1.65-.038-.675-3.075-1.875-4.5-1.875-.525 0-.675.3-.638 1.35M34.05 175.3c-.788 0-.825 1.125-12.075 4.688-.675.187-.563 1.087.225.975l5.925-.713v5.925h-8.138c-1.425 0-.637 1.163.413 1.163 2.25-.075 4.875-.113 7.687-.113-.037 2.25-.112 4.538-.225 6.938H27c-1.013-.6-2.963-1.275-3.638-1.275-.975 0-.412 1.012-.412 4.687 0 2.775-.188 7.8-.413 10.463-.225 2.437 4.088 1.237 4.05-.938v-1.762H33.6v1.762c0 1.875 4.087 1.35 3.937-1.612-.15-3.188-.262-6.675-.187-9.338.487-.525 1.087-1.162 1.087-1.762-.037-.6-2.437-2.1-3.187-2.1s-1.163.9-1.688 1.875h-2.287l.45-6.938 7.35.113c.712.037 1.012-.6.45-1.35-1.088-1.388-2.1-2.25-2.738-2.25-.675 0-1.237.937-2.175 2.437H31.8l.187-3.45c1.088-1.012 1.163-1.387 1.163-1.687 0-.45-.9-.9-1.913-1.238 2.175-.337 3.788-.637 4.838-.937 1.725.075 2.025-.113 2.025-.6 0-.563-3.188-2.963-4.05-2.963m-7.463 28.988.075-9.113h7.05l-.075 9.113zm41.138-22.313c-.075 1.388 3.862.938 3.787-.862l-.075-1.613 6.375.038-.037 1.65c-.038 1.387 3.862 1.05 3.862-.9v-.713c2.888.038 5.7.113 8.288.188.712 0 .937-.713.45-1.313-1.463-1.762-2.4-2.325-3.038-2.325-.712 0-1.35 1.013-2.325 2.363h-3.375l.038-.788c1.162-.975 1.237-1.387 1.237-1.612 0-.675-3-1.388-4.35-1.388-.675 0-.787.375-.787.825.075 1.013.112 1.95.075 2.963h-6.413l-.037-.788c1.162-.975 1.275-1.425 1.275-1.687-.038-.675-3.113-1.35-4.5-1.35-.675 0-.675.412-.638.825l.188 3h-8.513c-1.612 0-.562 1.312.638 1.275 2.137-.113 4.875-.188 7.912-.225zm-4.875-.225c-.75-.225-1.088.45-.675.863 2.85 3.3 1.762 5.55 3.712 5.55 1.088 0 2.4-1.913 2.4-2.775 0-1.538-1.912-2.55-5.437-3.638m-4.05 6.45c-.6-.15-.938.563-.563.9 3.638 3.75 2.55 5.663 4.313 5.625.975.038 2.137-1.612 2.137-2.887 0-1.538-1.65-2.363-5.887-3.638m.112 10.05c-.487-.112-.9.488-.337.9 3.562 2.438 3.562 2.175 1.987 6.863-.975 2.737 4.613 5.025 4.425 1.087l-.187-4.012c-.075-1.988.037-2.775.45-3.863l4.875-12.3c.262-.675-.6-1.012-.9-.412L63.15 199.3c-1.313-.337-2.7-.712-4.238-1.05m16.95-16.762c-.787 0-.562.3-1.312 1.912-1.088 2.288-2.963 5.175-6.075 9.113-.338.412.075.937.6.637 2.775-1.762 4.5-3.3 5.925-4.912 1.012 1.012 2.062 2.025 3.187 2.962-2.662 2.363-6.337 4.463-11.287 6.413-.713.262-.6 1.087.262.937 1.613-.337 3.15-.712 4.575-1.162-.037.712.038 1.912 0 3.9a79 79 0 0 1-.375 6.562c-.262 2.588 4.125 1.5 4.125-.9v-.675h7.088v1.8c-.038 1.613 4.35 1.275 4.125-1.8q-.337-4.05-.225-6.187c.525-.375.9-.863.9-1.313 0-.75-2.325-2.212-3.15-2.212-.6 0-1.05.562-1.688 1.275h-6.675c-.6-.45-1.5-.863-2.25-1.088 2.7-1.012 4.95-2.25 6.863-3.675 3.637 2.813 7.012 4.725 8.175 4.725 1.387 0 .562-1.2 3.075-2.137.787-.3.75-.975-.075-1.163-1.388-.337-4.838-1.162-9.113-3.15a18.5 18.5 0 0 0 3-3.487c1.725-1.05 1.95-1.35 1.95-1.8 0-.713-2.325-2.588-3.225-2.588-.675 0-1.275.863-1.912 1.725h-4.875c1.912-1.275 2.062-1.575 2.062-1.987 0-.6-2.55-1.725-3.675-1.725m-.375 23.737.038-6.375h7.125l-.038 6.375zm.188-17.812.937-1.2h5.625c-.712 1.275-1.575 2.512-2.662 3.637-1.275-.712-2.588-1.5-3.9-2.437m43.537-12.338c-1.087 0-1.05 1.463-19.125 5.513-.637.15-.487 1.012.113.975 3.262-.225 6.15-.525 8.7-.788.112 1.388.187 3.75.187 6.525l-8.962.75c-1.463.15-.45 1.313.637 1.2a591 591 0 0 1 8.325-.862c0 2.212-.037 4.65-.075 7.012l-11.587 1.013c-1.538.15-.45 1.35.712 1.237 2.888-.337 6.713-.75 10.838-1.125l-.113 3.225c-.337 7.913 4.388 8.925 9.638 8.925 5.062 0 8.85-.825 10.837-1.8 1.05-.525 1.688-1.05 1.688-1.987 0-1.875-1.65.337-1.575-5.85 0-.938-.938-.975-1.05-.075-.263 1.987-.825 3.562-1.613 4.275-1.087 1.012-4.012 1.837-8.175 1.837-4.612 0-5.7-1.05-5.662-5.812l.037-3.113a552 552 0 0 1 14.1-1.05c.788-.037.938-.825.375-1.387-1.725-1.8-2.887-2.475-3.6-2.4-.825.037-1.387 1.275-2.362 3l-8.513.75.075-7.013c3.675-.3 7.538-.6 11.138-.787.787-.038.975-.788.337-1.425-1.65-1.688-2.775-2.363-3.487-2.288-.788.038-1.35 1.238-2.288 2.925l-5.7.488.075-4.988c.938-.75 1.238-1.162 1.238-1.537 0-.113-.113-.225-.3-.338 3.15-.45 5.55-.9 7.237-1.237 3.225.15 3.488-.038 3.488-.525 0-.563-4.088-3.263-5.588-3.263m25.388-.75c-.713 0-.75.525-1.163 1.613-1.162 3.112-3.3 6.675-5.962 9.862-.488.6-.038 1.05.525.75 2.775-1.762 4.912-3.3 7.2-6.15 5.812-.15 13.987-.15 21.15.038.787.037 1.05-.713.487-1.35-1.612-1.913-2.662-2.663-3.412-2.663-.825 0-1.5 1.2-2.625 2.813h-14.7l.562-.75c1.238-.825 2.138-1.313 2.138-1.95 0-.6-3.15-2.213-4.2-2.213m19.537 26.813h-1.725c.3-2.438.488-4.838.6-7.613l6.113.113c.712.037.937-.675.525-1.313-1.238-1.612-2.288-2.587-2.963-2.587-.75 0-1.312 1.05-2.287 2.662h-1.313l.188-5.85c.675-.6 1.612-1.012 1.612-1.875 0-.6-2.437-2.662-3.825-2.662-.712 0-1.35 1.425-1.725 2.1h-11.925c-1.162-.9-2.662-1.613-3.45-1.613-1.012 0-.787 1.313-.937 3.338a53 53 0 0 1-.975 6.562h-6.6c-1.613 0-.563 1.313.637 1.275l5.738-.15c-.563 2.363-1.238 4.425-1.95 6-.638 1.013-1.538 1.763-1.538 2.213 0 .675 2.25 2.25 2.963 2.25.675 0 1.312-.825 2.512-1.725a264 264 0 0 1 14.363.037c-.075.525-.188.938-.3 1.2-.825 2.25-.675 2.175-5.813 1.8-.825-.075-1.05.9-.15 1.125 4.875 1.313 2.738 3.713 4.575 3.713 2.7 0 5.063-2.738 5.775-7.725l6.338.225c.75.037 1.012-.825.637-1.463-1.05-1.462-2.212-2.55-2.887-2.55-.75 0-1.275.863-2.213 2.513m-13.05-15.075c-.825-.263-1.125.3-.787.825 1.8 2.587.637 4.95 2.4 4.95s2.775-1.65 2.775-2.625c0-1.275-1.5-2.25-4.388-3.15m-.75 8.512c-.825-.225-1.2.15-.825.863 1.913 3.375 1.2 5.025 2.925 5.025 1.125 0 2.4-1.463 2.4-2.663 0-1.125-1.35-2.325-4.5-3.225m-6.712 6.45c1.012-2.7 1.612-5.137 2.1-7.575 4.2-.037 8.887-.037 13.462 0-.187 2.925-.487 5.7-.787 7.65zm2.287-8.625c.45-2.325.75-4.65 1.088-7.237h12.45c.037 2.175-.038 4.725-.188 7.237zm35.925-13.837h-2.212c-.9-.863-2.363-1.613-3.188-1.613-.937 0-.487.9-.412 5.175.075 5.738.075 10.313-.45 22.088-.075 2.25 3.675 1.425 3.675-.863v-2.25h2.7l-.075 1.8c-.038 1.763 3.637 1.313 3.637-1.125-.112-10.125-.112-19.5 0-21.375.45-.412 1.088-.975 1.088-1.575 0-.75-2.175-2.25-2.963-2.25-.75 0-1.237.825-1.8 1.988m19.875-3.9c-1.575 0-1.462 1.387-14.025 3.75-.712.15-.6 1.05.038 1.05 4.725.075 13.05-.713 16.2-1.05 1.95.112 2.137.112 2.137-.375 0-.563-3.187-3.375-4.35-3.375m-1.875 21.225h-5.775c.488-1.088.9-2.213 1.163-3.263 3.75 0 7.837.075 11.475.225.675 0 1.012-.6.45-1.275-1.125-1.387-1.988-1.987-2.55-1.987-.638 0-1.163.862-2.025 2.1h-7.125l.112-.45c1.013-.9 1.5-1.575 1.5-1.95s-1.087-.9-2.212-1.275c3.487 0 7.35.075 10.837.187.675.038 1.013-.562.45-1.237-1.05-1.275-1.837-1.838-2.362-1.838-.6 0-1.125.825-1.913 1.95h-14.737c-1.463 0-.638 1.163.45 1.125 1.312-.075 2.887-.112 4.612-.15l-.337 2.625-.188 1.013h-5.1c-1.462 0-.6 1.162.45 1.125l4.425-.15c-1.087 4.237-4.012 9.975-8.325 13.95-.412.375-.037 1.012.563.712 4.087-2.062 7.125-5.437 9.187-9 .9 1.425 1.988 2.813 3.113 4.125-2.363 2.138-5.925 4.275-11.363 6.225-.637.225-.412 1.013.263.938 5.962-.825 10.275-2.663 13.237-4.875 3.15 3.037 6.038 4.837 6.675 4.837 1.05 0 .563-1.312 3.225-2.737.6-.3.563-.938-.037-1.088-1.65-.412-4.425-1.537-7.388-3.225 1.388-1.5 2.288-3.037 2.775-4.462 1.238-1.013 1.425-1.238 1.425-1.65 0-.938-2.362-2.4-3.15-2.4-.562 0-1.237.787-1.8 1.875m-10.8-15.75c-.487-.3-1.125.112-.712.675 1.987 3.3.9 5.325 2.775 5.325 1.012 0 1.95-1.35 1.95-2.213 0-1.275-1.725-2.475-4.013-3.787m5.513-.488c-.525-.225-.975.15-.638.675 2.063 3.15.75 5.663 2.7 5.663.9 0 1.988-1.613 1.988-2.438 0-1.312-1.613-2.737-4.05-3.9m7.725-.337c-.338 0-.413.375-.863 1.5l-2.062 4.687c-.15.338.075.975.862.375 1.5-1.05 3.3-2.512 4.05-3.412.788-.413 1.238-.563 1.238-1.013 0-.525-2.063-2.137-3.225-2.137M179.25 200.05l.037-10.387h2.888a955 955 0 0 1-.188 10.387zm.037-11.4.075-9.037h2.775c.038 1.95.075 5.25.038 9.037zm14.1 8.663.188-.375h6.262a13 13 0 0 1-2.212 3.787c-1.463-1.087-2.963-2.175-4.238-3.412m34.425-23.138c-.562-.15-1.125.338-.637.975 1.912 2.513.975 3.938 1.987 4.35h-14.137c-1.538 0-.6 1.238.562 1.2 2.963-.112 6.975-.187 11.325-.187l-.375.675c-3.187 5.175-4.425 5.4-6.375 5.437-1.837.038-2.625-.15-2.625.375 0 .863 2.138 4.2 2.963 4.2.375 0 .937-.3 1.875-.937a111 111 0 0 0 15.937-2.7c1.088 1.912 1.35 3.225 2.625 3.225s2.513-1.5 2.55-2.513c.038-1.612-2.287-3.712-8.025-5.887-.862-.375-1.275.412-.675.937 1.35 1.125 2.25 2.213 2.925 3.225-6.6.15-10.875.225-13.762.225 1.95-.825 4.575-2.325 6.262-3.862 1.65-.638 1.838-.975 1.838-1.35 0-.3-.638-.713-1.463-1.088 4.988.038 10.163.075 14.663.225.787.038 1.012-.712.525-1.312-1.538-1.875-2.625-2.625-3.338-2.625-.787 0-1.462 1.162-2.55 2.737h-9.15c1.238-.3 2.85-1.275 2.85-2.175 0-1.575-2.55-2.25-5.775-3.15m-3.337 16.725c-1.013 0-.3 1.2-1.05 4.988h-9.788c-1.537 0-.6 1.275.6 1.237 2.438-.075 5.55-.15 8.963-.187-.938 4.087-2.738 7.912-7.575 11.85-.488.375-.15 1.087.525.862 6.825-2.4 10.087-6.6 11.362-12.75l6.45.038c0 2.625 0 6.337-.112 11.137-.075 2.738 4.537 1.688 4.387-1.312-.187-4.913-.375-7.613-.45-9.825l9.113.187c.787 0 .975-.75.525-1.35-1.538-1.875-2.625-2.662-3.338-2.662-.787 0-1.462 1.162-2.55 2.775h-3.787v-1.763c1.05-.937 1.125-1.275 1.125-1.687 0-.75-3.225-1.763-4.425-1.763-.9 0-.675.525-.563 2.813l.038 2.4H227.7l.225-1.5c1.125-.938 1.275-1.35 1.275-1.688 0-.787-3.45-1.8-4.725-1.8m43.612-15.75c-.825 0-1.087.45-.825 1.463.375 1.612.825 3.825 1.5 8.137l-4.462.788c-1.425.225-.45 1.237.562 1.05l4.05-.788.263 1.763.45 2.887-6.263 1.163c-1.387.262-.375 1.275.638 1.05l5.85-1.2c.562 2.962 1.312 5.512 2.212 7.762A67.4 67.4 0 0 1 261.3 205.6c-.713.338-.375 1.088.337.9 4.125-1.012 7.913-2.55 11.663-4.687 1.8 3.337 4.2 5.7 7.275 7.275 2.662 1.312 4.837.45 4.837-1.5-.037-.9-1.762-.3-1.237-7.838.075-.825-.975-.937-1.088-.15-.825 5.025-1.312 6.075-4.162 3.375a14 14 0 0 1-2.438-3.15c1.838-1.2 3.675-2.587 5.55-4.087 1.538-.45 1.613-.713 1.613-1.05 0-.788-1.763-3.525-2.55-3.563-.45 0-.713.563-1.613 1.538-1.237 1.35-2.737 2.775-4.462 4.2-.713-1.8-1.313-3.825-1.8-6.038 3.412-.637 7.05-1.275 10.537-1.837.75-.113.9-.825.225-1.425-1.65-1.388-2.812-1.95-3.487-1.8-.75.112-1.163 1.312-1.913 3l-5.55 1.05c-.3-1.5-.562-3.038-.75-4.65a415 415 0 0 1 9.863-1.65c.675-.075.862-.75.15-1.313-1.313-1.087-2.175-1.5-2.738-1.5.488-.487.863-1.087.9-1.65 0-1.462-2.287-2.587-5.7-3.225-.6-.112-.975.45-.525.9 2.963 2.963 2.175 4.65 3.938 4.725.112 0 .225-.037.337-.075-.3.45-.562 1.088-.937 1.8l-5.4.975c-.188-1.8-.338-3.6-.45-5.475.862-1.2.975-1.537.975-1.875 0-.675-3-1.65-4.613-1.65m-14.55 21.675c-.525-.112-.862.488-.412.825 3.487 2.475 3.487 2.288 1.725 7.613-.938 2.85 4.462 5.437 4.5 1.687l.037-4.95c0-1.8.15-3.337.788-5.437l3.787-12.675c.188-.6-.712-.975-.975-.3-1.725 4.762-3.637 9.6-5.587 14.287-1.2-.375-2.4-.712-3.863-1.05m4.2-21.15c-.787-.262-1.162.488-.75.938 3.038 3.525 1.838 6.225 3.825 6.225 1.313 0 2.663-2.55 2.663-3.225 0-1.613-2.063-2.738-5.738-3.938m-4.5 8.025c-.6-.225-1.012.563-.675.938 3.75 4.087 2.55 6.525 4.388 6.525 1.05 0 2.4-1.95 2.4-3.3 0-1.613-1.8-2.663-6.113-4.163m63.975 0h-3.187l.037-3.262c2.775.037 5.663.075 8.363.15.675.037 1.012-.563.45-1.238-1.125-1.387-1.988-1.95-2.55-1.95-.638 0-1.163.863-2.025 2.1h-4.238l.038-1.5c.9-.9 1.312-1.425 1.312-1.8 0-.712-3.337-1.575-4.725-1.575-.712 0-.712.413-.675.938.075 1.237.15 2.55.188 3.937h-7.163c-1.425 0-.637 1.125.413 1.088 1.912-.075 4.237-.15 6.75-.15l.037 3.262h-6.262c-1.388 0-.638 1.125.375 1.088a132 132 0 0 1 5.85-.15l-.075 3.525H301.5l-.338.037 1.013-4.237c.15-.6-.713-.975-.938-.3-1.575 4.762-3.187 9.675-4.875 14.362a53 53 0 0 0-3.787-1.05c-.525-.15-.863.488-.413.825 3.45 2.475 3.45 2.288 1.763 7.65-.9 2.888 4.35 5.475 4.387 1.688l.038-4.95c0-1.838.262-3.338.787-5.513l1.838-7.725c.225.188.6.338.975.338 5.437-.263 14.55-.225 21.975 0 .675.037.975-.6.45-1.238-1.238-1.5-2.1-2.062-2.7-2.062-.675 0-1.238.937-2.1 2.175h-5.55v-3.525l7.237.15c.675.037 1.013-.563.413-1.238-1.163-1.35-1.95-1.837-2.475-1.837-.638 0-1.163.862-1.988 1.987m-.375 7.988h-9.075c-1.087-.638-2.775-1.238-3.412-1.238-.9 0-.413 1.05-.375 4.725.037 3.6-.225 8.663-.638 12.863-.262 2.512 4.313 1.425 4.313-1.163v-5.737h9.3v1.5c.037 2.887-.563 2.85-3.975 2.512-.825-.075-.863.863-.188 1.05 4.2 1.088 1.65 3.488 3.938 3.488 1.725 0 3.975-2.138 4.087-5.288.113-3.187-.15-6.412-.262-10.65 1.087-.9 1.125-1.162 1.125-1.462 0-.713-2.4-2.25-3.263-2.25-.75 0-1.2 1.05-1.575 1.65m-24.787-7.8c-.6-.188-.938.562-.6.937 3.637 3.9 2.4 6.3 4.2 6.3.937 0 2.362-2.025 2.362-3.3 0-1.612-1.65-2.587-5.962-3.937m3.975-8.325c-.713-.225-1.088.487-.675.975 2.925 3.45 1.725 6.037 3.562 6.037 1.2 0 2.588-2.512 2.588-3.225 0-1.687-1.95-2.662-5.475-3.787m11.625 24.562.037-3.337h9.188l.075 3.337zm.037-4.35V192.7h9.15l.038 3.075zm30.038-16.725h-2.588c-1.012-.862-2.625-1.612-3.3-1.612-.825 0-.337 1.087-.3 4.987.038 5.213-.075 13.35-.487 20.663-.113 2.4 3.637 1.125 3.675-1.388v-1.537h3.187l-.075 1.762c-.112 1.875 3.675 1.275 3.638-1.575-.113-9.15-.15-17.812-.038-19.65.488-.375.975-.862.975-1.575 0-.712-2.175-2.287-2.962-2.287-.713 0-1.2 1.087-1.725 2.212m18.712 4.463H353.4l.037-3.225c2.588.037 5.25.075 7.838.15.675.037 1.012-.563.45-1.238-1.163-1.387-1.988-1.95-2.55-1.95-.638 0-1.2.863-2.025 2.1h-3.675l.037-1.387c.938-.9 1.313-1.425 1.313-1.8-.038-.713-3.225-1.575-4.575-1.575-.713 0-.75.412-.713.937.075 1.2.15 2.513.15 3.825h-6.375c-1.387 0-.637 1.125.375 1.088 1.725-.075 3.788-.15 6.038-.15v3.225H344.1c-1.388 0-.638 1.087.375 1.087 1.537-.075 3.337-.112 5.25-.15l-.075 3.488h-7.35c-1.425 0-.638 1.162.45 1.125 5.025-.263 13.2-.225 20.1 0 .712 0 1.012-.6.45-1.275-1.163-1.425-2.025-2.025-2.625-2.025-.675 0-1.238.9-2.1 2.175H353.4v-3.488c2.25.038 4.612.075 6.937.15.638 0 .975-.562.413-1.237-1.088-1.313-1.875-1.8-2.4-1.8-.638 0-1.125.825-1.913 1.95m-.487 7.987h-8.138c-1.05-.637-2.7-1.2-3.337-1.2-.9 0-.45 1.013-.45 4.725 0 3.6-.225 8.888-.6 13.088-.263 2.512 4.237 1.125 4.237-1.238v-5.962h8.363v1.837c-.038 2.888-.413 2.85-3.75 2.588-.75-.075-.863.825-.188 1.012 3.975 1.05 1.65 3.375 3.825 3.375 1.725 0 3.938-2.062 3.938-5.212 0-3.413-.188-6.6-.075-10.913.862-.75 1.012-1.125 1.012-1.5 0-.75-2.512-2.212-3.225-2.212-.75 0-1.35 1.012-1.612 1.612m-21.188 7.65.075-9.562h3.3c-.037 3.112-.075 6.487-.187 9.562zm.075-10.575.038-8.512h3.225c.037 1.8.075 4.95.037 8.512zm12.788 3.938h8.4l.037 3.112h-8.437zm0 4.125h8.437v3.262h-8.4zm-307.2 50.725c-.9-.563-1.388.187-.75.975 1.687 2.1 2.812 4.087 3.637 5.775-6.675.412-10.95.6-14.362.75 2.587-2.363 4.987-4.988 7.462-8.7 1.65-.938 1.838-1.388 1.838-1.763 0-.45-.788-.937-1.688-1.387 5.213.037 10.65.075 15.3.225.788.037 1.013-.75.525-1.35-1.575-1.95-2.662-2.775-3.412-2.775-.788 0-1.5 1.2-2.625 2.812H37.8c-.038-2.775 0-5.175.037-7.462 3.525.037 7.125.075 10.5.15.788.037 1.013-.713.488-1.35-1.538-1.875-2.588-2.625-3.3-2.625-.788 0-1.463 1.162-2.55 2.7h-5.1l.075-3.263c1.275-.975 1.35-1.275 1.35-1.65 0-.825-3.75-1.725-5.063-1.725-.862 0-.75.525-.712 1.163l.15 5.475h-10.35c-1.538 0-.525 1.312.562 1.275 2.7-.075 6.113-.113 9.788-.15.037 2.437 0 4.875-.075 7.462H19.8c-1.65 0-.525 1.388.637 1.35 3.188-.112 7.538-.225 12.3-.225-.112.375-.262.825-.525 1.425-1.275 3.075-2.887 6.45-4.087 8.213s-1.725 2.062-3.188 2.1c-2.962.112-3.3.112-3.3.75 0 .975 2.888 4.725 3.75 4.725.375 0 .863-.3 2.25-1.238 4.013-.712 10.763-1.875 16.163-3.787 1.5 3.45 1.762 5.662 3.262 5.662 1.388 0 2.775-1.95 2.775-3.525 0-2.437-3.075-6.037-9.412-10.012m41.1-16.875H68.4c-1.163-.938-3.225-1.875-4.163-1.875-1.012 0-.637 1.012-.562 3.3.262 6.937.112 17.587-.563 27.3-.187 3 4.65 1.8 4.65-1.013v-1.237H81.75v2.512c0 2.175 4.612 1.425 4.462-1.875-.337-8.4-.412-19.612-.187-24.712 1.012-1.013 1.162-1.538 1.162-1.988 0-.825-2.7-2.625-3.6-2.625-.675 0-1.2.675-2.062 2.213m-13.763 25.387.075-12.675h13.988l-.075 12.675zm.075-13.762.038-10.538h13.987l-.037 10.538zm41.363.037h-6.038c-1.012-.637-2.625-1.275-3.225-1.275-.825 0-.412 1.088-.375 5.063.038 3.9-.112 9.675-.562 14.325-.263 2.512 4.05.9 4.05-1.463v-6.75h6.112v2.475c0 2.7-.15 2.775-3.562 2.55-.788-.075-.863.9-.15 1.05 4.012.9 1.687 3.413 3.712 3.413 1.613 0 3.488-1.763 3.488-5.1-.038-8.1-.15-9.375-.038-12.375.975-.9 1.088-1.2 1.088-1.613 0-.6-2.213-1.987-3-1.987-.713 0-1.125.937-1.5 1.687m2.4-3.6h-.938l.15-5.1 3.638.113c.6 0 .975-.525.412-1.238-.712-.975-1.5-1.725-1.987-1.725-.563 0-.975.713-1.65 1.875h-.375l.075-2.137c.75-.825 1.162-1.425 1.162-1.8 0-.713-2.437-1.613-3.825-1.613-.675 0-.75.413-.712.975.075 1.5.112 3 .112 4.575h-3.112v-2.062c.675-.825 1.125-1.425 1.125-1.8 0-.713-2.663-1.613-3.9-1.613-.713 0-.788.413-.75.975l.225 4.5h-3.113c-1.387 0-.675 1.088.375 1.088l2.738-.113.037 5.1h-4.65c-1.425 0-.637 1.125.413 1.088 4.537-.225 11.512-.225 17.887 0 .638.037.975-.525.45-1.238-.75-1.012-1.575-1.8-2.1-1.8-.562 0-.975.75-1.687 1.95m7.087-11.737c-.6 0-.712.675-.862 2.025-.525 4.387-1.538 9.787-3.525 16.162-.225.675.45.938.825.45a30 30 0 0 0 2.625-4.312c.675 3.075 1.5 5.887 2.587 9-1.5 3.45-3.937 6.6-7.8 9.675-.487.412-.225 1.162.45.862 4.088-1.875 6.863-4.237 8.813-7.012 2.325 4.612 4.725 7.837 5.325 7.837.975 0 .675-1.537 3.337-2.512.488-.188.563-.638.075-1.05-2.437-2.138-4.537-4.388-6.825-7.613 1.5-3.45 2.138-7.312 2.475-11.475.9-1.237 1.088-1.612 1.088-2.1 0-.375-.825-.787-1.763-1.05l4.65.075c.788.038 1.088-.562.45-1.35-1.237-1.575-2.325-2.437-3-2.437-.787 0-1.425 1.125-2.437 2.737h-4.95a81 81 0 0 0 1.087-3.862c1.275-1.313 1.35-1.725 1.35-2.063 0-.9-3.075-1.987-3.975-1.987m-15.675 16.35h6.113v3.337h-6.113zm0 4.35h6.113l.037 3.525h-6.112zm1.5-8.963.038-5.137h3.112l-.075 5.137zm13.95 1.013a52 52 0 0 0 1.463-3.863h2.55c-.075.375.037 1.088.037 2.25-.037 3.3-.337 6.3-1.087 9.113-1.05-2.063-2.025-4.613-2.963-7.5m41.325-9.45h-19.875c-1.537 0-.525 1.312.563 1.275 2.512-.075 5.775-.15 9.262-.188-.037.825.075 2.213.038 4.538 0 1.687-.113 3.225-.263 4.687h-12.675c-1.65 0-.525 1.388.675 1.313 3.038-.113 7.238-.188 11.888-.225-1.238 8.7-5.363 13.612-13.613 18.6-.6.375-.262 1.162.375.937 10.163-3.375 15.863-8.925 17.288-18.45 3 10.425 10.275 18 11.325 18 1.312 0 1.05-1.687 4.05-2.812.637-.225.712-.938.15-1.238-2.325-1.2-8.213-5.587-14.925-15.037 4.987 0 10.162.075 14.55.225.787.075 1.012-.75.525-1.35-1.613-1.988-2.7-2.813-3.45-2.813-.825 0-1.538 1.2-2.663 2.85h-9.187c.225-2.437.337-4.65.375-6.787 1.2-1.163 1.237-1.313 1.237-1.688 0-.262-.262-.487-.712-.75 3.637.038 7.312.075 10.65.188.825.037 1.05-.713.525-1.35-1.65-1.988-2.7-2.738-3.45-2.738-.825 0-1.538 1.2-2.663 2.813m41.888-3.188c-.713 0-1.163.375-1.95 1.5h-12.638c-1.65 0-.637 1.313.525 1.275 2.85-.262 7.313-.225 11.925-.15-.712.9-1.462 1.838-2.512 2.963-.863-.638-2.55-1.163-5.288-1.688-.6-.112-.9.563-.375.938 2.588 1.987 2.625 3.262 3.225 3.787h-4.537c-1.013-.637-2.7-1.237-3.3-1.237-.863 0-.375 1.05-.3 5.175.037 4.162-.075 9.825-.413 14.212-.187 2.55 3.938 1.463 3.9-1.2l-.037-5.475h3.937l-.15 6.038c-.075 2.587 3.638 1.237 3.638-.6l-.075-5.438h4.2v1.238c.037 2.775-.15 2.7-2.738 2.4-.712-.075-.75.75-.15.975 2.813 1.125.938 3.45 2.813 3.45 1.537 0 3.487-1.5 3.6-4.725.112-3.788-.3-7.613-.3-12.713 1.05-.9 1.087-1.162 1.087-1.5 0-.712-2.175-2.25-3.037-2.25-.675 0-1.238.975-1.575 1.65h-4.575c.712-.375 1.275-1.05 1.275-1.725 0-.187-.038-.375-.15-.562 1.987-.675 3.787-1.425 5.475-2.288 1.162-.337 1.95-.712 1.95-1.387 0-.525-2.325-2.663-3.45-2.663m-7.8 11.85.037 1.838h-4.087l-.038-4.05h4.05zm-16.05-10.8c-.713-.3-1.163.488-.675.975 3.375 3.563 2.025 7.088 4.275 7.088 1.312 0 2.587-2.063 2.587-3.263 0-2.175-2.362-3.3-6.187-4.8m.75 12.825-4.05-.037c-1.5 0-.413 1.35.562 1.237a39 39 0 0 1 3.825-.187c.15 3.712.375 10.425.188 12.187-3.9 1.763-5.175 1.875-5.175 2.7 0 .675 1.687 4.238 2.512 4.238.863 0 2.625-3.975 4.95-5.288.338-.187.6-.112.825.15 3.188 4.05 7.875 5.25 22.013 4.575 2.512-.112.9-1.837 3.525-3.637.75-.488.825-1.275-.225-1.125-15.788 2.362-22.088.787-24.713-1.125l-.037-11.288c.9-.9 1.275-1.35 1.275-1.762.037-.825-2.625-2.663-3.413-2.663-.6 0-1.237.863-2.062 2.025m11.25.825h4.087l-.037 4.388h-4.013zm7.35 0h4.162l.075 4.388h-4.2zm0-1.012.037-2.213c.788-.75.825-1.125.825-1.35 0-.15-.187-.337-.525-.487h3.75l.075 4.05zm19.35-12.563c-.713-.3-1.2.488-.713.975 3.45 3.263 1.725 7.2 4.238 7.2 1.237 0 2.512-2.175 2.512-3.375 0-2.175-2.025-3.225-6.037-4.8m.787 12.825-4.012-.037c-1.5 0-.413 1.35.562 1.237a38 38 0 0 1 3.788-.187c.15 3.937.375 10.2.187 11.962-3.825 1.838-5.062 1.95-5.062 3.038 0 .675 1.725 4.162 2.55 4.162.9 0 2.625-4.237 4.762-5.475.338-.187.6-.112.825.15 3.225 4.2 7.95 5.513 22.275 4.763 2.513-.113.9-1.763 3.525-3.563.75-.487.825-1.275-.225-1.125-15.975 2.4-22.312.638-24.937-1.35l-.113-11.175c.863-.9 1.238-1.35 1.238-1.762.037-.825-2.588-2.663-3.375-2.663-.6 0-1.163.863-1.988 2.025m21.263-14.025c-1.463 0-1.913.975-13.05 2.813-.675.112-.6.862 0 .862 1.875 0 4.312-.112 6.712-.225l.075 2.663h-8.737c-1.425 0-.638 1.162.45 1.125 1.65-.075 3.637-.15 5.812-.15-1.35 2.062-4.312 5.4-6.975 7.8-.487.412-.15 1.125.488.825 3.675-1.763 6.825-4.35 8.925-6.6 0 1.425-.075 2.887-.15 4.387-.075 1.763 3.6 1.313 3.6-.675l-.15-4.912c4.125 4.725 6.975 7.05 7.762 7.05 1.2 0 1.05-1.538 3.188-1.95.525-.075.6-.863.112-1.013-1.8-.562-5.287-2.212-10.912-4.95 3.112.038 6.3.113 9.225.188.712.037 1.012-.6.45-1.275-1.275-1.538-2.175-2.1-2.775-2.1-.675 0-1.275.937-2.175 2.25h-4.8c0-.413.037-.825.075-1.2.675-.6.825-.938.825-1.2 0-.15-.188-.3-.525-.45l4.8-.3c1.762.075 1.95.075 1.95-.263 0-.6-3.15-2.7-4.2-2.7m1.612 19.8h-2.437c.862-.862 1.5-1.762 1.987-2.475 1.613-.975 1.65-1.237 1.65-1.537 0-.638-2.25-2.025-3.075-2.025-.45 0-.862.262-1.612 1.35h-10.463c-1.5 0-.712 1.162.375 1.125l2.925-.15-.6 2.212c-.787 2.438-2.512 6.225-4.875 9.525-.412.6.15 1.05.675.713 3.6-2.325 6.075-5.738 8.025-10.013.6-.675 1.088-1.2 1.088-1.687 0-.3-.413-.563-.975-.75h3.712c-.3.862-.637 1.65-1.125 2.662-.6.488-1.462.713-1.462 1.163 0 .712 1.312 1.875 1.875 1.875.487 0 .825-.375 1.537-1.013h3c-.112 1.313-.712 3.225-1.275 3.9-.862 1.05-1.125.975-4.687.563-.638-.075-.825.787-.15.975 3.975 1.162 1.612 3.075 3.337 3.075 1.575 0 3.713-1.2 4.688-2.925.525-.9 1.05-2.363 1.5-4.163.862-.787.937-1.05.937-1.275 0-.6-2.175-2.287-3.075-2.287-.412 0-.787.225-1.5 1.162m42.675 11.813h-.15c.038-4.2.075-8.7.15-10.95.9-.975 1.05-1.163 1.05-1.613 0-.787-2.025-2.25-2.925-2.25-.75 0-1.162.975-1.65 1.688H266.85c-.9-.638-2.4-1.35-3.075-1.35-.863 0-.525.9-.488 4.237.038 3.113.038 7.163-.075 10.238h-3.3c-1.537 0-.637 1.237.525 1.2 6.075-.263 16.8-.263 25.463 0 .675 0 .975-.563.525-1.313-.413-.825-1.388-2.1-1.913-2.1-.562 0-.937.713-1.65 2.213M257.1 227.6c-.713-.225-1.013.488-.638.938 2.738 3.487 1.688 6.15 3.525 6.15 1.163 0 2.55-2.55 2.55-3.225 0-1.65-2.1-2.7-5.437-3.863m-4.125 8.325c-.563-.187-.938.488-.563.9 3.488 4.125 2.325 6.488 4.125 6.488.938 0 2.325-1.95 2.325-3.263 0-1.612-1.725-2.625-5.887-4.125m.225 13.163c-.525-.15-.9.487-.45.825 3.337 2.475 3.337 2.287 1.65 7.65-.825 2.625 4.275 5.475 4.312 1.687l.038-4.95c0-1.837.412-3.337 1.012-5.512l3.75-13.688c.15-.6-.6-.975-.862-.3-1.95 5.25-3.675 10.35-5.625 15.338a61 61 0 0 0-3.825-1.05m23.925-19.725h-8.213c-1.05-.6-2.7-1.2-3.375-1.2-.825 0-.487.975-.412 4.2.037 3.187 0 6.637-.15 10.237-.113 1.988 3.825 1.538 3.825-1.125v-.262h8.587v1.162c0 1.463 4.163 1.388 3.975-1.575-.15-3.15-.3-7.125-.112-9.337.412-.413 1.125-1.125 1.125-1.725s-2.475-2.063-3.45-2.063c-.825 0-1.388.938-1.8 1.688m-10.5 29.1v-12.075h2.325c.112 3.712.037 7.537 0 12.075zm2.1-28.088h8.775l-.038 4.2h-8.7zm.037 5.213h8.7l-.037 4.612H268.8zm3.113 22.875.037-11.138c.375-.412.638-.712.75-.937h1.575c0 3.712.038 7.537 0 12.075zm5.25 0c0-5.063.037-8.663.112-11.138.45-.412.713-.712.825-.937h1.463l-.113 12.075zm31.65-31.725c-1.125 0-.45.675.037 6.225l.488 4.912-6.113.038.038-2.7c1.05-1.013 1.237-1.425 1.237-1.8-.037-.45-1.312-.975-2.55-1.275 1.575-.338 2.813-.638 3.675-.9 1.575.037 1.838-.15 1.838-.638.037-.562-2.963-2.812-3.825-2.812-.675 0-.638 1.237-10.163 4.8-.637.225-.45 1.087.188.975 2.25-.338 4.2-.638 5.887-.975 0 .787.188 2.325.263 5.362l-7.2.038c-1.575.037-.525 1.35.637 1.275l6.563-.225.112 6.262c-2.4.675-4.425 1.2-6.037 1.613-2.213.525-2.4.3-2.4.9 0 .712 2.137 3.75 2.925 3.712.3 0 .6-.3 1.537-1.162l3.938-1.875-.038 3.15c-.112 4.687-.337 4.65-5.325 4.162-.75-.075-.862.938-.225 1.163 4.913 1.575 2.213 3.9 4.388 3.9 2.662 0 4.725-3.075 4.725-7.5l-.075-6.638c1.537-.825 3.225-1.8 5.137-2.962.675-.413.263-1.088-.375-.9l-4.8 1.425-.075-5.325 6.263-.038c.45 3.825 1.012 7.35 1.912 10.463-1.762 1.462-3.975 3.15-6.787 5.175-.638.487-.225 1.162.45.9a42 42 0 0 0 7.237-3.488c.863 2.213 1.95 4.2 3.375 5.925 3.938 4.65 8.4 4.2 8.363 1.575 0-1.875-1.5-.075-1.088-7.875.038-.937-1.087-.937-1.2-.15-.675 5.213-1.125 5.438-3.412 3.225-1.238-1.237-2.25-2.775-3.038-4.762 1.575-1.125 3.188-2.475 4.988-4.013 1.612-.525 1.687-.75 1.687-1.125 0-.75-1.987-3.187-2.737-3.187-.45 0-.638.525-1.538 1.612a43 43 0 0 1-3.412 3.638c-.563-2.25-1.013-4.875-1.313-7.913 3.263 0 6.525 0 9.488.075.712.038.937-.712.45-1.312-1.425-1.725-2.4-2.4-3.038-2.4-.75 0-1.387 1.05-2.362 2.512l-4.65.038c-.225-2.25-.375-4.763-.525-7.5.975-1.313.937-1.613.937-2.1.038-.825-3.712-1.5-4.462-1.5m5.925 1.95c-.675-.225-1.163.45-.6 1.012 3.187 3.375 2.512 5.663 4.35 5.663.712 0 2.325-1.613 2.287-2.625 0-1.613-2.437-2.925-6.037-4.05m39.862 3.75h-14.025l1.088-1.725c1.162-.788 1.725-1.275 1.725-1.95 0-.9-3.15-2.4-4.275-2.4-.713 0-.675.675-1.238 2.437-.975 2.85-2.962 7.013-5.737 11.175-.45.713.3 1.088.787.675 2.813-2.25 4.838-4.237 6.863-7.087l5.137-.075c.113 3.112.113 6.675.075 10.537h-14.4c-1.65 0-.525 1.388.638 1.35 3.525-.15 8.437-.225 13.725-.225a715 715 0 0 1-.413 14.663c-.15 3.225 4.725 1.612 4.65-1.538-.112-4.687-.15-9.037-.187-13.125 4.8 0 9.637.075 13.875.225.787.038 1.012-.787.525-1.387-1.688-2.063-2.775-2.85-3.563-2.85-.825 0-1.537 1.237-2.7 2.887h-8.137l.075-8.362c.9-.9 1.125-1.275 1.125-1.613 0-.187-.225-.375-.6-.562 3.562 0 7.237.075 10.687.15.825.037 1.088-.713.488-1.388-1.613-1.95-2.7-2.7-3.45-2.7-.863 0-1.575 1.238-2.738 2.888M45.675 282.113H19.762c-1.612 0-.525 1.387.638 1.312 3.037-.112 7.162-.187 11.625-.187.225 5.025.187 14.475-.225 28.612-.113 3.3 4.912 1.538 4.8-1.35-.338-8.475-.45-19.275-.263-25.012.863-.825 1.088-1.2 1.088-1.613 0-.225-.3-.45-.75-.637 5.137 0 10.462.075 15.037.225.788.037 1.013-.825.488-1.388-1.838-2.212-2.925-2.85-3.713-2.85-.862 0-1.612 1.275-2.812 2.888m-7.125 8.062c-.938-.262-1.275.488-.563 1.013 5.55 4.425 5.513 8.287 7.688 8.287 1.35 0 2.325-1.987 2.325-3.3 0-2.062-3.338-4.2-9.45-6M64.687 279.9c-.6 0-.487.713-1.2 2.85-1.837 5.438-2.55 7.313-3.9 7.275-.75 0-1.125-.037-1.125.6 0 1.163.938 3.713 1.575 3.713.338 0 .563-.188 1.2-.6a37 37 0 0 0 4.238-1.35c-2.775 6.262-4.313 6.825-5.363 6.937-.487.038-.825-.037-.825.75 0 1.163 1.275 3.788 1.913 3.788.412 0 .637-.15 1.125-.563 2.775-.975 5.662-2.175 8.7-3.562.6-.263.45-1.013-.15-.975l-7.988.6c2.4-1.838 5.025-5.138 6.675-7.725.488-.45.863-.788 1.163-1.05.225.225.637.337 1.087.262l3.75-.825.188 1.313.525 3.075-5.663 1.125c-1.387.3-.375 1.275.6 1.05l5.25-1.163c.563 2.85 1.2 5.363 1.988 7.575-2.85 2.175-6.15 4.35-9.938 6.563-.675.375-.337 1.05.338.862q5.287-1.519 10.687-4.837c1.763 3.825 4.125 6.337 7.163 7.575 2.7 1.087 4.8.337 4.8-1.65 0-.9-1.725-.3-1.088-7.838.075-.825-1.012-.937-1.162-.15-.863 5.025-1.313 6.413-4.013 3.75-1.012-.975-1.875-2.25-2.662-3.712a84 84 0 0 0 5.362-4.2c1.575-.525 1.613-.788 1.613-1.125 0-.788-1.8-3.3-2.55-3.3-.45 0-.713.525-1.575 1.537a38.6 38.6 0 0 1-4.088 4.163c-.637-1.763-1.125-3.75-1.575-5.888a513 513 0 0 1 9.788-1.875c.787-.112.9-.825.187-1.425-1.725-1.387-2.85-1.875-3.525-1.725-.75.15-1.162 1.35-1.875 3.038l-4.762.975c-.225-1.425-.45-2.85-.6-4.388 2.812-.562 5.85-1.087 9-1.65.675-.112.862-.787.15-1.35-1.088-.862-1.875-1.275-2.438-1.425.45-.487.863-1.125.863-1.725 0-1.5-2.213-2.175-5.7-3.037-.6-.15-.9.487-.488.9 3 2.962 2.475 4.425 3.863 4.575-.263.45-.525 1.05-.9 1.8l-4.463.862a127 127 0 0 1-.45-5.587C79.425 281.4 79.5 281.1 79.5 280.8c0-.937-3.938-1.65-4.838-1.65-.75 0-1.012.45-.637 1.988.3 1.275.712 3.412 1.387 7.837l-4.162.825v-.075c0-.937-2.513-2.587-3.263-2.587-.487 0-.6.525-1.537 2.887l-.413.975-4.612-.562c1.912-1.425 4.05-4.05 5.7-6.375 1.5-1.05 2.025-1.538 2.025-1.913 0-.9-3.563-2.25-4.463-2.25m-3.637 27.3c-2.438.825-2.775.45-2.775 1.275 0 1.088 2.025 3.825 2.887 3.825.413 0 .825-.525 1.313-1.2 2.55-1.65 5.137-3.45 9.225-6.45.562-.412.225-1.087-.563-.825-4.237 1.463-8.287 2.775-10.087 3.375m43.125-28.162c-.75 0-.638.6-1.388 2.662-1.012 2.813-1.987 5.363-4.8 9.6-.337.525.113.975.6.713 2.625-1.5 4.988-4.463 6.713-7.275a182 182 0 0 1 8.812.075c.75.037 1.088-.563.488-1.388-.938-1.275-1.988-2.362-2.663-2.362-.712 0-1.237 1.012-2.212 2.662H105.9l.412-.712c1.688-1.425 1.725-1.688 1.725-2.025 0-.675-2.962-1.95-3.862-1.95m14.025 0c-.75 0-.713.825-1.238 2.437-.825 2.55-1.912 5.1-4.65 8.888-.412.562.113.825.45.675 2.475-1.2 4.65-3.675 6.413-6.263 3.3-.075 5.887-.075 10.087.038.788.037 1.125-.563.45-1.388-1.162-1.462-2.212-2.4-2.925-2.4-.75 0-1.35 1.088-2.362 2.7h-4.575l.6-.975c1.537-1.275 1.65-1.575 1.65-1.912 0-.6-2.775-1.8-3.9-1.8m2.962 11.775c-1.087 0-1.837 1.237-19.5 3.262-.675.075-.562.938 0 .938 3.45-.038 6.638-.113 9.45-.225v1.612a24 24 0 0 1-.262 2.925H98.512c-1.65 0-.525 1.35.638 1.313 2.962-.113 7.05-.188 11.512-.225-1.275 5.587-5.1 9.15-13.125 12.262-.675.263-.45 1.013.225.9 10.2-1.762 15.338-5.887 16.988-12.787 4.5 8.587 9.75 12.6 11.062 12.6 1.35 0 .788-1.763 4.163-2.475.637-.15.75-1.013.075-1.238-1.5-.487-6-2.475-14.213-9.262 4.613 0 9.338.075 13.425.225.788.037 1.013-.75.525-1.35-1.537-1.875-2.55-2.663-3.262-2.663-.788 0-1.463 1.125-2.513 2.7h-8.925c.075-.975.15-1.95.188-3.037 1.237-.975 1.275-1.088 1.275-1.388 0-.112-.075-.225-.188-.337 2.438-.113 4.425-.263 5.925-.375 2.775.112 3.15.15 3.15-.3 0-.563-3.075-3.075-4.275-3.075m-14.625-5.738c-.75-.262-1.2.225-.75.825 2.213 3.038 1.125 5.438 3.075 5.438.938 0 2.25-1.35 2.25-2.4 0-.938-.975-2.438-4.575-3.863M121.05 285c-.788-.225-1.125.338-.563.938 2.888 3 2.213 5.137 3.863 5.137.975 0 2.1-1.2 2.1-2.25 0-1.087-.975-2.587-5.4-3.825m22.725 3.263c.637 3.337.375 8.25.487 12.375.188 8.512 3.75 11.962 11.25 11.962 5.138 0 8.325-1.125 8.325-3.15 0-1.875-1.575-.3-1.95-7.462-.075-1.05-1.2-1.163-1.237-.113-.15 2.85-.413 4.575-1.238 5.513-.525.637-1.8 1.125-4.425 1.125-4.537 0-6.262-2.288-6.75-6.6-.337-3.15-.375-6.6-.337-11.363.825-1.012.862-1.5.862-1.837 0-.638-3-1.838-4.462-1.838-.525 0-.713.338-.525 1.388m-3.45 4.987c-.263-1.125-.938-1.275-1.238-.15-1.5 5.55-3.9 6.263-3.9 8.588 0 1.387.975 3.45 2.438 3.45 2.437 0 4.05-6.188 2.7-11.888m9.262-14.175c-.787-.375-1.387.375-.9 1.013 4.125 5.062 3.113 8.85 5.213 8.85 1.312 0 2.925-1.838 2.925-3.6 0-1.425-1.425-3.6-7.238-6.263m12.188 11.025c-.788-.3-1.35.45-.788 1.05 4.35 4.575 3.563 8.85 5.7 8.85 1.275 0 2.738-2.025 2.738-3.75 0-1.425-1.913-3.937-7.65-6.15m40.012 4.238h-26.25c-1.612 0-.525 1.387.638 1.35 7.612-.263 21.225-.3 31.5 0 .825.037 1.012-.788.525-1.425-1.725-2.063-2.85-2.925-3.638-2.925-.862 0-1.612 1.275-2.775 3m38.55-12.6h-20.175c-.937-.825-3-1.688-3.825-1.688-1.012 0-.675.825-.562 3.113.3 5.962.112 16.537-.45 28.612-.113 2.625 4.312 1.575 4.312-.862v-.938h21l-.037 2.325c-.038 1.8 4.425 1.238 4.312-1.687-.337-10.425-.375-22.238-.225-26.85.488-.45 1.163-1.013 1.163-1.8 0-.713-2.738-2.4-3.638-2.4-.787 0-1.312 1.012-1.875 2.175m-5.887 9.637h-3.075a48 48 0 0 0 0-3.3c1.312-1.35 1.612-1.65 1.612-2.137 0-.975-3.787-1.65-4.875-1.65-.825 0-.525.562-.45 3.037.038 1.388.075 2.738.038 4.05h-6.263c-1.537 0-.562 1.275.488 1.238 1.612-.113 3.6-.15 5.7-.188-.3 5.4-1.875 10.013-6.9 13.5-.488.338-.113 1.125.487.863 7.388-3.075 9.638-7.913 10.088-14.363 2.55.038 5.175.113 7.65.225.75.038 1.087-.637.525-1.387-1.125-1.463-2.138-2.4-2.775-2.4-.713 0-1.313.975-2.25 2.512m-2.475 4.05c-.638-.45-1.163.338-.788.863 4.2 5.887 3.788 9.3 5.663 9.3 1.05 0 2.4-1.575 2.4-2.925-.038-1.313-1.613-3.3-7.275-7.238m-12.338 13.425.15-26.025h20.925c.113 4.8.113 14.85-.037 26.025zm42.225-27.225h-3.3c-.937-.75-2.55-1.575-3.6-1.575-.862 0-.562.788-.487 2.4.225 4.425.337 19.388-.525 29.25-.263 3.225 4.387 1.988 4.275-1.237-.188-5.25-.188-18.113-.038-27.825h3.75c-.187 1.162-1.312 5.55-1.837 7.237-.225.713-.488 1.013.112 1.688 1.425 1.725 2.363 2.85 2.363 5.812.037 1.95-.413 3.263-3.188 2.888-.712-.113-.825.637-.187.862 2.512.825 1.312 2.963 2.625 2.963 2.287 0 4.537-3.038 4.5-6-.038-4.163-3.488-6.338-5.4-7.538 1.612-1.8 3.637-4.462 4.837-6.562 1.35-.9 1.425-1.2 1.425-1.575 0-.713-2.662-2.738-3.6-2.738-.412 0-.937.263-1.725 1.95m16.838.075h-5.625c-.825-.75-2.738-1.687-3.825-1.687-1.2 0-.375.862-.45 7.95-.113 12.375-.6 17.587-6.375 23.925-.6.637 0 1.275.6.862 5.7-3.825 8.137-6.825 9.075-14.587h7.162v5.662c-.037 5.213-.075 5.213-4.837 4.838-.75-.075-.825.937-.188 1.087 4.463 1.125 2.775 3.825 4.5 3.825 2.738 0 4.388-3.112 4.463-6.45.112-7.537-.413-13.8-.263-22.95.563-.712 1.2-1.462 1.2-2.025 0-.712-2.475-2.475-3.675-2.475-.675 0-1.387 1.275-1.762 2.025m-6.488 15.413c.188-1.988.3-4.238.338-6.9h6.675l.037 6.9zm.338-14.4h6.6l.075 6.45h-6.675zm21.9 4.65c-.225-.9-.9-.825-1.05.075-.713 4.237-1.95 5.025-1.95 6.825 0 1.237.675 2.625 1.687 2.625 1.875 0 2.438-5.063 1.313-9.525M295.5 312c-.113 2.85 4.087 1.725 4.05-1.012-.038-13.388 0-20.4.075-24.863 2.475 3.788 1.537 5.438 3.037 5.438.6 0 1.425-.675 1.838-1.463.112.038.225.038.337.038l3.263-.075c-.563 9.937-2.888 15.937-7.688 21.787-.487.6.188 1.163.713.75 7.087-5.4 9.712-10.05 10.65-22.575 3.562 0 7.425.038 11.325.113.712 0 1.012-.638.412-1.35-1.312-1.613-2.25-2.325-2.887-2.325-.75 0-1.35 1.012-2.325 2.437h-6.45c.112-1.987.187-4.162.262-6.562 1.425-1.125 1.5-1.463 1.5-1.838 0-.675-3.637-1.65-4.912-1.65-.788 0-.6.525-.525 3.638.037 2.325.037 4.425-.038 6.412h-3.487c-.15-1.275-1.463-2.175-4.538-3.637-.225-.075-.375-.038-.487.037l.037-2.812c.975-.825 1.425-1.238 1.388-1.763 0-.675-3.15-1.537-4.425-1.537-.788 0-.713.525-.675 1.125.375 6.862.3 16.2-.45 31.687m17.025-18.937c.15 4.237-.075 9.3-.15 12.75-.113 5.1 1.312 6.975 5.887 6.975 3.788 0 6.375-1.5 6.375-3.338.038-1.725-1.462.375-1.312-5.85.037-.937-1.013-.937-1.088-.075-.225 2.063-.562 3.675-.975 4.425-.487.863-1.575 1.2-2.887 1.2-1.913 0-2.475-1.05-2.475-3 0-3.187 0-7.05.15-11.137.825-.638 1.05-1.238 1.05-1.575-.038-.675-2.588-1.65-3.975-1.65-.488 0-.638.262-.6 1.275m3.337-12.713c-.6-.225-.975.3-.6.825 2.588 3.675 1.763 5.588 3.525 5.588.713 0 2.288-1.388 2.288-2.475 0-1.463-1.875-2.738-5.213-3.938m20.025 28.088c-1.05.412-1.125.562-1.125.975 0 .937 2.288 3.862 3.113 3.862.712 0 1.237-.525 3.262-2.362a51.6 51.6 0 0 0 7.313-5.7c.412-.413 0-.975-.45-.788l-6.788 2.85.15-13.125 3.263-.037c5.512 10.425 12.525 18.525 14.1 18.525 1.275 0 .675-1.688 3.562-2.963.713-.3.675-.9 0-1.275-3.15-1.687-7.5-5.175-16.425-14.287 5.475 0 11.25.075 16.2.225.788.037 1.013-.75.488-1.35-1.613-2.025-2.7-2.85-3.488-2.85-.825 0-1.537 1.2-2.662 2.887h-15.038c.075-3.562.15-6.825.3-10.575 1.275-1.012 1.35-1.462 1.35-1.875.038-.825-3.562-1.762-4.875-1.762-.862 0-.75.525-.712 1.162.15 4.388.15 8.7.112 13.05h-6.3c-1.612 0-.525 1.35.638 1.313l5.662-.15c-.037 3.937-.112 7.912-.187 12-.038 1.35-.413 1.837-1.463 2.25m18-27.975c-2.475 2.512-4.537 4.125-10.575 9.075-.525.45-.225 1.125.413.862 5.437-2.212 8.55-3.9 12.675-6.637 2.137-.6 2.437-1.013 2.437-1.388 0-.6-2.475-3.112-3.375-3.112-.412 0-.787.337-1.575 1.2M41.85 348.738h-8.438a58.5 58.5 0 0 0 6.375-4.388c4.013.038 8.063.113 11.55.263.788.037 1.088-.75.563-1.388-1.613-1.912-2.7-2.7-3.413-2.7-.825 0-1.537 1.163-2.662 2.775h-4.8c1.95-1.65 3.937-3.562 6.112-5.812 1.988-.488 2.1-.825 2.1-1.275 0-.638-2.287-3.038-3.487-3.038-.488 0-.488.375-1.5 1.613l-1.313 1.575-.075-.075c-1.05-1.313-1.95-2.025-2.512-2.025-.675 0-1.2.862-2.063 2.137h-2.775l.075-2.287c1.538-1.313 1.575-1.688 1.575-1.913 0-.787-3.412-1.687-4.95-1.687-.75 0-.787.412-.75.975.075 1.575.075 3.225.113 4.912h-8.588c-1.537 0-.675 1.238.45 1.2 2.25-.112 5.063-.15 8.138-.15l-.113 5.85H20.1c-1.65 0-.6 1.35.637 1.313 3.488-.188 8.588-.3 14.025-.3-1.575 1.275-3.262 2.475-5.062 3.675-1.05-.375-2.138-.675-2.55-.675-.713 0-.525.6-.375 2.512a279 279 0 0 1-8.025 4.575c-.825.45-.225 1.238.45.975 2.887-1.2 5.437-2.25 7.725-3.3v.675c.037 3.15-.188 8.138-.413 11.4-.225 2.663 4.425 1.425 4.425-1.05v-.975h10.95l-.037 2.438c-.038 1.8 4.387 1.237 4.312-1.688-.112-3.75-.262-9.3-.15-12.225 1.05-.9 1.163-1.2 1.163-1.537 0-.713-2.775-2.325-3.525-2.325-.825 0-1.313 1.05-1.8 1.95m-10.913 12.375v-5.438h11.025l-.075 5.438zm0-6.45v-4.575l.6-.3h10.5l-.075 4.875zm4.425-11.363.113-5.85 6.412.15c-1.912 2.1-3.825 3.975-5.85 5.7zm49.088-5.25H69.412c-1.462 0-.6 1.2.45 1.2a258 258 0 0 1 11.25-.15c-.075.525-.15 1.425-.525 3.038-.3 1.237-.675 2.55-1.312 3.9-2.1-1.463-4.538-3.038-7.2-4.688-.75-.45-1.35.3-.6.938 2.737 2.287 4.875 4.312 6.525 6.075-1.8 2.812-4.8 5.737-10.125 8.812-.563.3-.225 1.125.375.938 5.925-1.8 9.637-4.275 12.075-7.163 3.712 4.388 4.237 6.488 5.812 6.488 1.05 0 2.588-2.475 1.388-4.35-.75-1.163-2.625-2.888-5.325-4.913 1.162-2.062 1.875-4.237 2.437-6.525.975-.9 1.163-1.162 1.163-1.462 0-.375-.563-.75-1.313-1.05l5.363.15c.787.037 1.087-.713.487-1.388-1.5-1.837-2.55-2.625-3.3-2.625-.787 0-1.462 1.163-2.587 2.775m-7.913-7.5c-.525-.187-1.2.338-.75.938 2.363 3 .563 6.037 2.7 6.037 1.125 0 3.525-2.025 3.525-3.187 0-1.538-2.437-2.738-5.475-3.788m-14.925 1.275c-.712-.3-1.162.488-.712.975 3.412 4.05 1.95 7.125 4.162 7.125 1.2 0 2.513-2.1 2.513-3.3 0-2.212-2.175-3.187-5.963-4.8m.675 12.825H58.05c-1.5 0-.413 1.388.562 1.275 1.575-.15 2.963-.262 4.013-.262.15 3.375.262 10.125.112 11.85-4.012 2.1-5.287 2.175-5.287 2.925 0 .675 1.537 4.312 2.362 4.312s2.738-3.975 5.325-5.662c.3-.188.488-.188.713.075 3.15 3.975 7.8 5.625 21.712 5.025 2.513-.113.9-1.913 3.525-3.713.75-.487.825-1.275-.225-1.125-15.6 2.288-21.75.675-24.337-1.537l-.038-10.763c.975-.9 1.35-1.35 1.35-1.762.038-.825-2.7-2.663-3.487-2.663-.6 0-1.238.863-2.063 2.025m48.3-14.025c-.712-.187-1.2.45-.712 1.013 3 3.525 1.762 6.45 3.862 6.45 1.35 0 3.188-1.95 3.188-3.3 0-1.875-2.7-3.15-6.338-4.163M98.212 359.65c0 .75 2.25 4.35 2.963 4.35 1.125 0 2.212-4.387 4.462-6.15.338-.262.638-.262.9.075 4.388 5.55 7.65 6.113 19.763 5.775 2.475-.075.825-2.175 3.487-3.937.713-.488.675-1.313-.375-1.163-13.537 1.988-17.737 1.388-22.237-1.8l-.3-.187c7.612-3.638 13.987-9.675 18.337-14.775 1.8-1.013 1.95-1.35 1.95-1.95 0-1.05-2.775-3.338-3.825-3.338-.637 0-1.725 1.125-2.587 2.325l-20.175.338c-1.763.037-.6 1.387.637 1.312 4.35-.337 12.113-.487 19.388-.562-3.788 5.662-8.063 10.35-14.888 16.012-.337-.037-.637.038-1.05.225-4.162 1.913-6.45 2.663-6.45 3.45m59.475-22.275c-.862-.412-1.275.338-.75.9a17 17 0 0 1 2.888 4.125c-6.488.263-11.625.413-14.475.488 1.95-1.05 4.687-3.225 6.825-5.85 1.537-.675 1.725-1.013 1.725-1.35s-.675-.75-1.538-1.125c4.95 0 10.125.037 14.7.15.713 0 .938-.713.413-1.313-1.538-1.837-2.513-2.4-3.188-2.4-.75 0-1.387 1.088-2.437 2.513h-24.225c-1.5 0-.6 1.237.525 1.2 2.85-.075 6.525-.15 10.537-.15l-.375.712c-4.2 6.638-4.65 7.425-6.6 7.463-1.8.037-2.55-.15-2.55.375-.075.9 1.838 4.425 2.625 4.425.375 0 .975-.338 1.875-.975 4.163-.488 10.313-1.313 16.65-3.113 1.05 2.325 1.35 3.975 2.625 3.975s2.625-1.8 2.625-3c0-1.8-2.85-4.575-7.875-7.05m5.025 24.825h-8.362l-.038-8.287c3.375.037 6.825.075 9.975.187.788.038 1.05-.712.488-1.35-1.5-1.875-2.588-2.662-3.3-2.662-.788 0-1.5 1.162-2.588 2.775h-4.537l.037-3.525c.938-.9 1.463-1.463 1.425-1.95-.037-.863-3.6-1.463-5.062-1.463-.825 0-.75.188-.563 2.85l.113 4.088h-10.013c-1.5 0-.562 1.237.525 1.237 2.588-.112 5.925-.15 9.488-.187.037 2.4.037 5.25-.075 8.287h-13.688c-1.612 0-.562 1.35.638 1.275 7.35-.262 21-.3 31.05 0 .787.038 1.012-.75.525-1.35-1.575-1.95-2.663-2.737-3.413-2.737-.787 0-1.5 1.2-2.625 2.812m21.188-27.3h-3.375c-1.013-.862-2.7-1.612-3.375-1.612-.863 0-.375 1.087-.338 4.987.038 5.213-.075 14.363-.487 22.05-.15 2.4 3.862 1.125 3.9-1.387V357.4h3.975l-.038 1.763c-.037 1.875 3.975 1.275 3.788-1.575-.15-2.775-.225-8.325-.225-13.05.112.3.525.337.825.037 1.8-1.95 3.337-3.675 4.8-5.925h.787c.225 6.75 0 15.863-.412 25.2-.15 3.075 4.312 1.575 4.275-1.237l-.113-7.05c2.85-.038 5.25-.038 8.963.075.787.037 1.125-.563.487-1.388-1.237-1.5-2.287-2.4-2.962-2.4-.788 0-1.388 1.088-2.4 2.7h-4.088l-.037-8.025c2.775-.037 4.912-.037 8.587.075.788.038 1.125-.562.488-1.387-1.2-1.5-2.25-2.363-2.925-2.363-.75 0-1.388 1.088-2.4 2.663h-3.713l.038-4.838c.825-.9 1.012-1.275 1.012-1.612 0-.15-.15-.3-.375-.45 2.813 0 5.85.037 9 .112.788.038 1.088-.637.488-1.387-1.425-1.688-2.475-2.475-3.188-2.475-.787 0-1.462 1.125-2.512 2.737h-8.363c.563-.9 1.088-1.875 1.65-3 1.613-1.275 1.725-1.612 1.725-2.025 0-.9-3.262-2.137-4.275-2.137-.675 0-.675.712-1.087 2.512-.75 2.738-2.25 6.863-4.238 10.95l-.037.113c-.038-3.6 0-6.675.037-7.463.788-.75.938-1.05.938-1.425 0-.862-2.213-2.437-3.075-2.437-.675 0-1.238 1.087-1.725 2.212m-3.638 21.488.075-10.388h4.013c-.038 3.413-.038 7.088-.113 10.388zm.075-11.4.075-9.075h3.863l.075 9.075zm59.775 17.175h-8.137l-.038-8.063c3.413.038 6.9.075 10.125.188.788.037 1.05-.713.488-1.35-1.463-1.8-2.513-2.588-3.225-2.588-.75 0-1.425 1.125-2.513 2.7h-4.875c.038-7.35.15-14.287.3-18.712.975-.9 1.5-1.463 1.5-1.95 0-.863-3.562-1.8-5.025-1.8-.825 0-.75.525-.637 3.187.15 3.525.15 10.65 0 19.275h-10.013c-1.5 0-.562 1.238.525 1.238 2.588-.113 5.888-.15 9.45-.188l-.187 8.063h-13.575c-1.613 0-.563 1.312.6 1.275 7.312-.263 20.812-.3 30.787 0 .825.037 1.013-.75.525-1.35-1.612-1.988-2.7-2.775-3.45-2.775-.825 0-1.5 1.2-2.625 2.85m-19.95-29.025c-.862 0-.6.637-1.425 4.837-.637 3.15-2.175 7.8-5.512 13.425-.3.45.187 1.088.675.675 3-2.662 5.362-5.85 7.087-9.375 2.475 4.875 1.425 6.938 3.375 6.938 1.05 0 2.213-1.988 2.213-3 0-1.163-1.313-2.888-4.875-4.838a.7.7 0 0 0-.263-.075 32 32 0 0 0 1.5-4.162c1.05-1.05 1.688-1.8 1.688-2.325 0-.863-3.6-2.138-4.463-2.1m17.963.375c-.638 0-.488.712-1.125 4.2-.263 1.425-1.988 7.162-4.2 11.512-.338.638.262.975.75.563 2.1-1.725 3.975-4.388 5.475-7.238 3.412 5.063 2.662 7.5 4.612 7.5 1.125 0 2.25-1.8 2.25-2.887 0-1.8-3.3-4.2-6.262-5.813.562-1.125 1.05-2.287 1.5-3.375 1.162-1.2 1.575-1.8 1.575-2.287 0-.938-3.638-2.175-4.575-2.175m16.725 26.362c0-1.95 1.5-3.45 3.375-3.45s3.375 1.5 3.375 3.45c0 1.913-1.5 3.413-3.375 3.413s-3.375-1.5-3.375-3.413m-1.613 0c0 2.775 2.213 4.95 4.988 4.95s4.987-2.175 4.987-4.95a4.96 4.96 0 0 0-4.987-4.987 4.96 4.96 0 0 0-4.988 4.987m26.373-4.912c-.788-.3-1.275.6-.75 1.162 4.05 4.425 3.262 8.175 5.7 8.175 1.575 0 2.662-1.687 2.662-3.15 0-1.95-2.062-4.012-7.612-6.187m29.11-6.863a3.025 3.025 0 0 0 3.037-3.037 3.025 3.025 0 0 0-3.038-3.038 3.025 3.025 0 0 0-3.037 3.038 3.025 3.025 0 0 0 3.037 3.037m.037 12.563c.9 0 1.125-.338 1.125.412 0 2.325-1.688 4.463-4.575 5.475-.975.338-.525 1.763.487 1.5 3.825-.975 6.225-4.125 6.225-8.175 0-3.3-1.575-4.575-3.3-4.575-1.687 0-2.85 1.238-2.85 2.7 0 1.5 1.238 2.663 2.888 2.663m26.185-8.138c-1.087-5.212 8.438-5.625 8.438-13.012 0-4.538-3.825-6.488-7.725-6.488-4.275 0-7.425 2.4-7.425 4.8 0 1.5.937 2.438 2.4 2.438 3.262 0 .562-5.7 4.612-5.7 1.838 0 3.563 1.387 3.563 4.425 0 5.85-6.525 5.7-5.438 13.8.188 1.387 1.838 1.087 1.575-.263m-.412 9.825a2.77 2.77 0 0 0 2.775-2.775 2.77 2.77 0 0 0-2.775-2.775 2.77 2.77 0 0 0-2.775 2.775 2.77 2.77 0 0 0 2.775 2.775m22.621-26.325c.188 4.913 1.463 10.575 1.838 16.613.075 1.387 1.5 1.387 1.575 0 .375-6.038 1.65-11.7 1.838-16.613.15-3.825-5.4-3.825-5.25 0m2.626 26.325a2.77 2.77 0 0 0 2.775-2.775 2.77 2.77 0 0 0-2.775-2.775 2.77 2.77 0 0 0-2.775 2.775 2.77 2.77 0 0 0 2.775 2.775"/></svg>
