<svg xmlns="http://www.w3.org/2000/svg" width="384" height="384" viewBox="0 0 384 384"><path fill="#25282b" d="M0 0h384v384H0z"/><path fill="#eb0" d="M80.55 95.635q-7.36 0-10.95-5.53t-3.59-16.822q0-11.43 3.87-17.177t11.305-5.747q7.36 0 10.95 5.69 3.59 5.689 3.59 17.234 0 11.176-3.844 16.764-3.845 5.588-11.331 5.588m0-5.18q4.51 0 6.872-4.325t2.362-12.847q0-8.967-2.102-13.355-2.103-4.388-6.497-4.388-4.51 0-6.873 4.477-2.361 4.478-2.361 13.266 0 8.701 2.102 12.937t6.497 4.235m8.948-30.422 2.886 2.314-20.47 25.478-2.366-3.14zm36.782 2.074h6.962L119.665 80.59 109.877 95h-6.974L116.1 77.042zm-23.377 0h6.974l10.202 14.9L133.242 95h-6.962l-10.076-14.445zm56.2-11.113V95h-5.774V50.994zm-5.151 38.67V95h-11.858v-5.336zm15.23 0V95h-10.674v-5.336zm-15.853-38.67v5.734l-10.612 3.609v-5.66zm25.369 37.585q7.413-5.86 11.838-10.118 4.426-4.258 6.657-8.023 2.232-3.765 2.232-7.454 0-3.563-2.062-5.504-2.063-1.94-6.006-1.94-2.616 0-5.382 1.396a15.8 15.8 0 0 0-4.838 3.787l-3.812-3.801q2.24-3.03 6.035-4.796t8.124-1.766q6.794 0 10.28 3.21 3.487 3.208 3.487 9.184 0 4.053-2.081 8.181t-6.366 8.536-11.12 9.576V95h-6.986zm28.406 1.085V95h-26.477v-5.336zm19.94 5.971q-6.147 0-11.163-1.524l.691-5.313.878.243a52 52 0 0 0 4.5 1.044q2.046.37 4.84.37 5.07 0 7.87-1.993 2.8-1.992 2.8-5.623 0-2.57-1.604-4.41t-4.649-2.792-7.338-.952h-1l-.703-3.809 9.055.774q5.501.444 8.816 3.527 3.314 3.083 3.314 8.128 0 5.859-4.251 9.094-4.252 3.236-12.056 3.236m-4.878-24.759q7.194-.976 10.8-3.415t3.606-5.962q0-2.847-1.883-4.403t-5.306-1.556q-2.589 0-5.27 1.189t-5.136 3.51l-3.858-3.86q2.782-3.117 6.476-4.568 3.694-1.452 8.428-1.452 5.928 0 9.151 2.572 3.224 2.572 3.224 7.271 0 3.995-2.653 6.971t-7.037 4.067v3.398l-9.838.047zm44.164-17.405-9.618 30.785h-5.97l9.607-30.785zm6.314 25.604v5.18H250.73l3.981-5.18zm10.902 0v5.18h-6.334v-5.18zm-5.7-28.08V95h-5.825V50.994zm41.45 29.793q0 7.048-4.352 10.948t-12.295 3.899q-6.39 0-11.406-1.524l.744-5.313.71.19q2.453.676 4.595 1.071 2.142.396 5.167.396 5.197 0 8.099-2.475 2.901-2.474 2.901-6.933 0-4.008-2.39-6.181-2.39-2.175-6.83-2.174-4.418 0-8.465 2.264l.21-4.644q2.38-1.467 4.79-2.082t4.93-.615q6.573 0 10.083 3.423t3.51 9.75M298.9 50.995l-.283 20.378-2.842 3.583h-2.74V50.994zm18.873 0v5.18h-21.894l-.572-5.18zM80.55 174.635q-7.36 0-10.95-5.53t-3.59-16.822q0-11.43 3.87-17.177 3.87-5.745 11.305-5.746 7.36 0 10.95 5.689t3.59 17.234q0 11.176-3.844 16.764-3.845 5.588-11.331 5.588m0-5.18q4.51 0 6.872-4.325t2.362-12.847q0-8.967-2.102-13.355-2.103-4.388-6.497-4.388-4.51 0-6.873 4.477-2.361 4.478-2.361 13.266 0 8.701 2.102 12.937t6.497 4.235m8.948-30.422 2.886 2.314-20.47 25.477-2.366-3.139zm21.251-11.515V174h-5.93v-46.482zm9.73 47.117q-3.996 0-6.401-1.828-2.406-1.827-2.815-5.101h-2.8l2.286-9.184q0 5.417 2.134 8.221t6.287 2.804q4.181 0 6.366-2.954 2.186-2.953 2.186-8.722 0-6.035-2.18-9.141-2.18-3.107-6.361-3.107-4.153 0-6.292 2.804-2.14 2.805-2.14 8.222l-2.228-9.306h2.742q.502-3.262 2.881-5.035 2.379-1.772 6.3-1.772 6.437 0 9.776 4.381 3.34 4.381 3.34 12.954 0 8.255-3.328 12.51t-9.754 4.254m38.625-44.641V174h-5.774v-44.006zm-5.151 38.67V174h-11.858v-5.336zm15.23 0V174h-10.674v-5.336zm-15.853-38.67v5.734l-10.612 3.609v-5.66zm38.854 44.641q-7.36 0-10.95-5.53-3.591-5.531-3.591-16.822 0-11.43 3.87-17.177 3.871-5.745 11.306-5.746 7.359 0 10.95 5.689t3.59 17.234q0 11.176-3.844 16.764-3.845 5.588-11.331 5.588m0-5.18q4.51 0 6.872-4.325t2.362-12.847q0-8.967-2.103-13.355-2.102-4.388-6.496-4.388-4.51 0-6.873 4.477-2.361 4.478-2.362 13.266 0 8.701 2.103 12.937 2.102 4.235 6.497 4.235m8.948-30.422 2.885 2.314-20.47 25.477-2.365-3.139zm28.262 35.602q-7.359 0-10.95-5.53t-3.59-16.822q0-11.43 3.87-17.177 3.871-5.745 11.305-5.746 7.36 0 10.95 5.689t3.59 17.234q0 11.176-3.843 16.764t-11.332 5.588m0-5.18q4.51 0 6.873-4.325 2.362-4.325 2.362-12.847 0-8.967-2.103-13.355-2.102-4.388-6.497-4.388-4.51 0-6.872 4.477t-2.362 13.266q0 8.701 2.103 12.937 2.102 4.235 6.496 4.235m8.949-30.422 2.885 2.314-20.47 25.477-2.365-3.139zm32.394-9.039V174h-5.775v-44.006zm-5.152 38.67V174h-11.857v-5.336zm15.231 0V174H270.14v-5.336zm-15.854-38.67v5.734l-10.611 3.609v-5.66zm38.854 44.641q-7.36 0-10.95-5.53t-3.59-16.822q0-11.43 3.87-17.177 3.87-5.745 11.305-5.746 7.36 0 10.95 5.689t3.59 17.234q0 11.176-3.843 16.764t-11.332 5.588m0-5.18q4.51 0 6.873-4.325 2.362-4.325 2.362-12.847 0-8.967-2.103-13.355-2.102-4.388-6.497-4.388-4.51 0-6.872 4.477t-2.362 13.266q0 8.701 2.102 12.937 2.103 4.235 6.497 4.235m8.949-30.422 2.885 2.314-20.47 25.477-2.365-3.139z"/><g fill-opacity=".5"><path fill="#eb0" d="M80.55 253.635q-7.36 0-10.95-5.53t-3.59-16.822q0-11.43 3.87-17.177 3.87-5.745 11.305-5.746 7.36 0 10.95 5.689t3.59 17.234q0 11.176-3.844 16.764-3.845 5.588-11.331 5.588m0-5.18q4.51 0 6.872-4.325t2.362-12.847q0-8.967-2.102-13.355-2.103-4.388-6.497-4.388-4.51 0-6.873 4.477-2.361 4.478-2.361 13.266 0 8.701 2.102 12.937t6.497 4.235m8.948-30.422 2.886 2.314-20.47 25.477-2.366-3.139z"/><path fill="#fff" d="m117.652 234.073 12.118-15.01 4.263 4.148-14.697 15.425-13.076 15.565-3.991-4.16zm9.202 19.562q-3.567 0-5.76-2.199t-3.55-7.052l-4.106-14.507q-.758-2.61-1.79-3.827-1.035-1.218-2.605-1.218-2.406 0-4.676 1.08l-1.765-4.9q3.913-1.476 6.856-1.477 3.544 0 5.737 2.194 2.193 2.192 3.538 7.047l4.148 14.506q.756 2.62 1.775 3.813 1.02 1.192 2.665 1.192 2.522 0 5.126-1.293l1.881 4.91q-1.94.877-3.7 1.304a16 16 0 0 1-3.774.427"/><path fill="#eb0" d="M159.103 208.995V253h-5.774v-44.006zm-5.151 38.669V253h-11.858v-5.336zm15.23 0V253h-10.674v-5.336zm-15.853-38.67v5.734l-10.612 3.609v-5.66zm25.369 37.585q7.413-5.86 11.838-10.118 4.426-4.258 6.657-8.023 2.232-3.764 2.232-7.454 0-3.563-2.062-5.504-2.063-1.94-6.006-1.94-2.616 0-5.382 1.396a15.8 15.8 0 0 0-4.838 3.787l-3.812-3.801q2.24-3.03 6.035-4.796t8.124-1.766q6.794 0 10.28 3.21 3.487 3.208 3.487 9.184 0 4.053-2.081 8.181t-6.366 8.536-11.12 9.576V253h-6.986zm28.406 1.085V253h-26.477v-5.336zm19.94 5.971q-6.147 0-11.163-1.524l.691-5.313.878.243a52 52 0 0 0 4.5 1.044q2.046.37 4.84.37 5.07 0 7.87-1.993 2.8-1.992 2.8-5.623 0-2.57-1.604-4.41t-4.649-2.792-7.338-.952h-1l-.703-3.809 9.055.774q5.501.444 8.816 3.527 3.314 3.083 3.314 8.128 0 5.859-4.251 9.094-4.252 3.236-12.056 3.236m-4.878-24.759q7.194-.976 10.8-3.415t3.606-5.962q0-2.847-1.883-4.403-1.883-1.557-5.306-1.556-2.589 0-5.27 1.189t-5.136 3.51l-3.858-3.86q2.782-3.117 6.476-4.568 3.694-1.452 8.428-1.452 5.928 0 9.151 2.572 3.224 2.572 3.224 7.271 0 3.995-2.653 6.971t-7.037 4.067v3.398l-9.838.047zm44.164-17.405-9.618 30.785h-5.97l9.607-30.785zm6.314 25.604v5.18H250.73l3.981-5.18zm10.902 0v5.18h-6.334v-5.18zm-5.7-28.08V253h-5.825v-44.006zm41.45 29.793q0 7.048-4.352 10.948t-12.295 3.899q-6.39 0-11.406-1.524l.744-5.313.71.19q2.453.676 4.595 1.071 2.142.396 5.167.396 5.197 0 8.099-2.475 2.901-2.474 2.901-6.933 0-4.008-2.39-6.181t-6.83-2.174q-4.418 0-8.465 2.264l.21-4.644q2.38-1.467 4.79-2.082t4.93-.615q6.573 0 10.083 3.423t3.51 9.75M298.9 208.994l-.283 20.379-2.842 3.583h-2.74v-23.961zm18.873 0v5.18h-21.894l-.572-5.18z"/></g><g fill-opacity=".5"><path fill="#eb0" d="M80.55 332.635q-7.36 0-10.95-5.53t-3.59-16.822q0-11.43 3.87-17.177t11.305-5.747q7.36 0 10.95 5.69 3.59 5.689 3.59 17.234 0 11.176-3.844 16.764-3.845 5.588-11.331 5.588m0-5.18q4.51 0 6.872-4.325t2.362-12.847q0-8.967-2.102-13.355-2.103-4.388-6.497-4.388-4.51 0-6.873 4.477-2.361 4.478-2.361 13.266 0 8.701 2.102 12.937t6.497 4.235m8.948-30.422 2.886 2.314-20.47 25.477-2.366-3.139z"/><path fill="#fff" d="M114.222 332.635a72.5 72.5 0 0 1-9.507-.635l2.228-5.475q1.714.421 3.876.696a32 32 0 0 0 3.927.273q6.675 0 10.117-4.006t3.442-10.62q0-3.892-1.332-6.464t-4.866-2.572q-2.766 0-5.2 1.781-2.433 1.782-4.068 5.515-1.633 3.733-1.824 9.265l-.531-13.398h2.58l-1.207 2.35q.278-3.356 1.776-5.797 1.499-2.443 3.961-3.728 2.463-1.285 5.557-1.285 5.843 0 8.411 4.09 2.57 4.09 2.569 10.302 0 5.993-2.37 10.443t-6.86 6.858q-4.491 2.407-10.68 2.407m-1.874-47.117L110.634 332h-5.919l1.715-46.482z"/><path fill="#eb0" d="M159.103 287.994V332h-5.774v-44.006zm-5.151 38.67V332h-11.858v-5.336zm15.23 0V332h-10.674v-5.336zm-15.853-38.67v5.734l-10.612 3.609v-5.66zm38.854 44.641q-7.36 0-10.95-5.53-3.591-5.531-3.591-16.822 0-11.43 3.87-17.177t11.306-5.747q7.359 0 10.95 5.69 3.59 5.689 3.59 17.234 0 11.176-3.844 16.764-3.845 5.588-11.331 5.588m0-5.18q4.51 0 6.872-4.325t2.362-12.847q0-8.967-2.103-13.355-2.102-4.388-6.496-4.388-4.51 0-6.873 4.477-2.361 4.478-2.362 13.266 0 8.701 2.103 12.937 2.102 4.235 6.497 4.235m8.948-30.422 2.885 2.314-20.47 25.477-2.365-3.139zm28.262 35.602q-7.359 0-10.95-5.53t-3.59-16.822q0-11.43 3.87-17.177t11.305-5.747q7.36 0 10.95 5.69 3.59 5.689 3.59 17.234 0 11.176-3.843 16.764t-11.332 5.588m0-5.18q4.51 0 6.873-4.325 2.362-4.325 2.362-12.847 0-8.967-2.103-13.355-2.102-4.388-6.497-4.388-4.51 0-6.872 4.477t-2.362 13.266q0 8.701 2.103 12.937 2.102 4.235 6.496 4.235m8.949-30.422 2.885 2.314-20.47 25.477-2.365-3.139zm32.394-9.039V332h-5.775v-44.006zm-5.152 38.67V332h-11.857v-5.336zm15.231 0V332H270.14v-5.336zm-15.854-38.67v5.734l-10.611 3.609v-5.66zm38.854 44.641q-7.36 0-10.95-5.53t-3.59-16.822q0-11.43 3.87-17.177t11.305-5.747q7.36 0 10.95 5.69 3.59 5.689 3.59 17.234 0 11.176-3.843 16.764t-11.332 5.588m0-5.18q4.51 0 6.873-4.325 2.362-4.325 2.362-12.847 0-8.967-2.103-13.355-2.102-4.388-6.497-4.388-4.51 0-6.872 4.477t-2.362 13.266q0 8.701 2.102 12.937 2.103 4.235 6.497 4.235m8.949-30.422 2.885 2.314-20.47 25.477-2.365-3.139z"/></g></svg>
