<svg xmlns="http://www.w3.org/2000/svg" width="384" height="384" viewBox="0 0 384 384"><path fill="#fff" stroke="#c9c9cd" d="M.5.5h383v383H.5z"/><path d="M78.728 68.32c-7.232-3.264-18.432-2.048-18.432 10.688V84h-4.8v2.88h4.8v23.168c0 2.816 0 3.328-4.608 3.84V116H70.92v-2.112c-4.864-.576-4.864-1.088-4.864-3.84V86.88h8.512V84h-8.512v-7.36c0-7.488 4.8-7.872 7.616-6.528l1.536 4.672h3.52z"/><path d="m100.96 116.768 10.24-1.792v-1.792c-4.672-.768-4.672-1.024-4.672-3.264V82.912l-10.176 1.792v1.728c4.416.768 4.416 1.024 4.416 3.136v19.712c-2.368 2.624-4.992 3.712-7.68 3.712-4.096 0-6.656-2.496-6.656-9.024V82.912l-10.176 1.792v1.728c4.416.768 4.416 1.024 4.416 3.136v15.744c0 7.808 3.648 11.712 10.176 11.712 4.032 0 7.232-1.472 10.112-4.736zm44.184-36.352c1.536-8.896-3.968-13.568-11.584-13.568-7.936 0-14.016 5.056-14.016 14.144V84h-4.8v2.88h4.8v23.168c0 2.816 0 3.328-4.608 3.84V116h14.336v-2.112c-3.968-.576-3.968-1.088-3.968-3.84V79.712c0-6.72 3.328-9.984 7.616-9.984 4.864 0 8.128 4.16 6.912 10.688-5.248 3.072-7.104 6.08-7.104 9.152 0 7.872 11.2 10.112 11.2 17.536 0 5.504-4.48 9.536-12.672 4.864v3.456c9.152 3.84 18.432-.256 18.368-9.28-.064-9.728-12.032-12.416-12.032-18.56 0-2.624 2.112-4.8 7.552-7.168m29.4 10.752v-6.336c-7.616-4.16-20.48-2.304-20.48 7.04 0 10.304 16.576 9.152 16.576 16.704 0 5.824-7.424 6.912-11.648 4.224l-1.92-5.312h-3.136v7.296c9.28 4.608 22.016 2.176 21.952-7.808-.064-10.944-16.96-9.472-16.96-16.576 0-5.056 7.488-5.952 10.56-3.712l1.856 4.48zm15.512-8.192-9.984 1.728v1.728c4.416.768 4.416 1.024 4.416 3.136v35.264c0 2.816 0 3.328-4.608 3.84v2.112h15.424v-2.112c-5.056-.576-5.056-1.088-5.056-3.84v-9.472c2.176 1.088 4.608 1.664 7.232 1.664 9.408 0 15.616-7.488 15.616-18.24 0-9.92-5.248-16.064-13.056-16.064-3.84 0-7.04 1.408-9.984 4.544zm.192 27.392V90.4c3.008-3.264 5.504-4.032 7.872-4.032 5.76 0 8.768 4.672 8.768 13.056 0 9.216-3.392 14.592-9.344 14.592-2.88 0-5.312-1.344-7.296-3.648m51.352 6.4 10.24-1.792v-1.792c-4.672-.768-4.672-1.024-4.672-3.264V82.912l-10.176 1.792v1.728c4.416.768 4.416 1.024 4.416 3.136v19.712c-2.368 2.624-4.992 3.712-7.68 3.712-4.096 0-6.656-2.496-6.656-9.024V82.912l-10.176 1.792v1.728c4.416.768 4.416 1.024 4.416 3.136v15.744c0 7.808 3.648 11.712 10.176 11.712 4.032 0 7.232-1.472 10.112-4.736zm36.76-33.536c-5.312-1.088-10.048.32-12.608 6.08v-6.336l-9.984 1.728v1.728c4.416.768 4.416 1.024 4.416 3.136v20.48c0 2.816 0 3.328-4.608 3.84V116h14.784v-2.112c-4.416-.576-4.416-1.088-4.416-3.84V93.216c2.048-5.696 7.616-7.232 10.624-3.648h1.792zm24.088 12.416H287.28c.768-6.72 4.096-10.112 8.384-10.112 4.416 0 7.296 3.584 6.784 10.112m-21.376 4.608c0 17.344 16.64 20.16 26.816 13.312v-2.752c-8.832 4.8-20.736 3.84-20.736-12.224v-.064h21.184c.832-10.048-4.032-15.808-12.16-15.808-8.576 0-15.104 6.592-15.104 17.536m41.944-17.28-9.984 1.728v1.728c4.416.768 4.416 1.024 4.416 3.136v20.48c0 2.816 0 3.328-4.608 3.84V116h14.784v-2.112c-4.416-.576-4.416-1.088-4.416-3.84V91.296c2.624-3.264 5.76-4.608 8.512-4.608 3.456 0 6.464 2.112 6.464 7.872v15.488c0 2.816 0 3.328-4.608 3.84V116h14.784v-2.112c-4.416-.576-4.416-1.088-4.416-3.84V93.216c0-6.848-3.904-10.496-9.856-10.496-4.352 0-8.256 1.984-11.072 5.504z"/><g fill="#8e8e93"><path d="M78.728 140.32c-7.232-3.264-18.432-2.048-18.432 10.688V156h-4.8v2.88h4.8v23.168c0 2.816 0 3.328-4.608 3.84V188H70.92v-2.112c-4.864-.576-4.864-1.088-4.864-3.84V158.88h8.512V156h-8.512v-7.36c0-7.488 4.8-7.872 7.616-6.528l1.536 4.672h3.52z"/><path d="m100.96 188.768 10.24-1.792v-1.792c-4.672-.768-4.672-1.024-4.672-3.264v-27.008l-10.176 1.792v1.728c4.416.768 4.416 1.024 4.416 3.136v19.712c-2.368 2.624-4.992 3.712-7.68 3.712-4.096 0-6.656-2.496-6.656-9.024v-21.056l-10.176 1.792v1.728c4.416.768 4.416 1.024 4.416 3.136v15.744c0 7.808 3.648 11.712 10.176 11.712 4.032 0 7.232-1.472 10.112-4.736zm26.584-.768v-2.112c-2.24-.576-2.24-1.088-2.24-3.84v-32.64c0-4.48 2.24-7.68 6.4-7.68 7.808 0 7.872 11.392 0 11.84v2.752c9.472 0 8.512 11.968 0 11.968v2.944c14.848 0 10.688 18.816-1.792 13.376v3.072c19.456 5.568 23.104-17.664 6.784-18.24 10.368-1.472 9.664-14.656-.32-14.656 10.112-2.176 9.216-15.744-3.904-15.744-7.552 0-12.928 4.352-12.928 11.84V156h-4.8v2.88h4.8v23.168c0 2.816 0 3.328-4.608 3.84V188z"/><path d="m159.592 154.976-9.984 1.728v1.728c4.416.768 4.416 1.024 4.416 3.136v35.264c0 2.816 0 3.328-4.608 3.84v2.112h15.424v-2.112c-5.056-.576-5.056-1.088-5.056-3.84v-9.472c2.176 1.088 4.608 1.664 7.232 1.664 9.408 0 15.616-7.488 15.616-18.24 0-9.92-5.248-16.064-13.056-16.064-3.84 0-7.04 1.408-9.984 4.544zm.192 27.392V162.4c3.008-3.264 5.504-4.032 7.872-4.032 5.76 0 8.768 4.672 8.768 13.056 0 9.216-3.392 14.592-9.344 14.592-2.88 0-5.312-1.344-7.296-3.648m51.352 6.4 10.24-1.792v-1.792c-4.672-.768-4.672-1.024-4.672-3.264v-27.008l-10.176 1.792v1.728c4.416.768 4.416 1.024 4.416 3.136v19.712c-2.368 2.624-4.992 3.712-7.68 3.712-4.096 0-6.656-2.496-6.656-9.024v-21.056l-10.176 1.792v1.728c4.416.768 4.416 1.024 4.416 3.136v15.744c0 7.808 3.648 11.712 10.176 11.712 4.032 0 7.232-1.472 10.112-4.736zm36.76-33.536c-5.312-1.088-10.048.32-12.608 6.08v-6.336l-9.984 1.728v1.728c4.416.768 4.416 1.024 4.416 3.136v20.48c0 2.816 0 3.328-4.608 3.84V188h14.784v-2.112c-4.416-.576-4.416-1.088-4.416-3.84v-16.832c2.048-5.696 7.616-7.232 10.624-3.648h1.792zm24.088 12.416h-15.168c.768-6.72 4.096-10.112 8.384-10.112 4.416 0 7.296 3.584 6.784 10.112m-21.376 4.608c0 17.344 16.64 20.16 26.816 13.312v-2.752c-8.832 4.8-20.736 3.84-20.736-12.224v-.064h21.184c.832-10.048-4.032-15.808-12.16-15.808-8.576 0-15.104 6.592-15.104 17.536m41.944-17.28-9.984 1.728v1.728c4.416.768 4.416 1.024 4.416 3.136v20.48c0 2.816 0 3.328-4.608 3.84V188h14.784v-2.112c-4.416-.576-4.416-1.088-4.416-3.84v-18.752c2.624-3.264 5.76-4.608 8.512-4.608 3.456 0 6.464 2.112 6.464 7.872v15.488c0 2.816 0 3.328-4.608 3.84V188h14.784v-2.112c-4.416-.576-4.416-1.088-4.416-3.84v-16.832c0-6.848-3.904-10.496-9.856-10.496-4.352 0-8.256 1.984-11.072 5.504z"/></g><path fill="#f90" d="M84.424 254.256c-6.528-2.688-18.112-2.432-20.928 11.456L62.664 270H56.84l-.576 2.88H76.36l.576-2.88H68.36l1.088-5.504c1.728-8.512 6.272-9.664 9.472-7.936l.896 4.608h3.2zm22.208 0c-6.528-2.688-18.112-2.432-20.928 11.456L84.872 270h-5.824l-.576 2.88h20.096l.576-2.88h-8.576l1.088-5.504c1.728-8.512 6.272-9.664 9.472-7.936l.896 4.608h3.2zm22.208 0c-6.528-2.688-18.112-2.432-20.928 11.456L107.08 270h-5.824l-.576 2.88h20.096l.576-2.88h-8.576l1.088-5.504c1.728-8.512 6.272-9.664 9.472-7.936l.896 4.608h3.2zm22.208 0c-6.528-2.688-18.112-2.432-20.928 11.456l-.832 4.288h-5.824l-.576 2.88h20.096l.576-2.88h-8.576l1.088-5.504c1.728-8.512 6.272-9.664 9.472-7.936l.896 4.608h3.2zm22.208 0c-6.528-2.688-18.112-2.432-20.928 11.456l-.832 4.288h-5.824l-.576 2.88h20.096l.576-2.88h-8.576l1.088-5.504c1.728-8.512 6.272-9.664 9.472-7.936l.896 4.608h3.2zm22.208 0c-6.528-2.688-18.112-2.432-20.928 11.456l-.832 4.288h-5.824l-.576 2.88H187.4l.576-2.88H179.4l1.088-5.504c1.728-8.512 6.272-9.664 9.472-7.936l.896 4.608h3.2z"/><path d="M82.824 257.008c-6.272-2.496-17.216-2.048-19.584 9.856L62.6 270h-5.76l-.576 2.88h5.76l-8.768 43.904h5.76l8.768-43.904h7.36l.576-2.88h-7.36l.896-4.416c1.344-6.784 5.248-7.68 8.128-6.4l.896 4.608h3.136zm22.272-.32c-6.272-2.496-17.216-2.048-19.584 9.984l-.64 3.328h-5.824l-.576 2.88h5.824l-8.832 43.904h5.76l8.768-43.904h7.36l.576-2.88h-7.36l.896-4.608c1.408-6.912 5.312-7.808 8.192-6.528l.896 4.672h3.136zm22.336-.64c-6.272-2.496-17.152-2.112-19.648 10.304L107.08 270h-5.824l-.576 2.88h5.824l-8.832 43.904h5.76l8.768-43.904h7.36l.576-2.88h-7.36l1.024-5.056c1.408-7.104 5.376-8 8.192-6.656l.896 4.608h3.136zm22.4-.896c-6.208-2.624-17.152-2.24-19.712 10.688l-.832 4.16h-5.824l-.576 2.88h5.824l-8.832 43.904h5.76l8.768-43.904h7.36l.576-2.88h-7.36l1.152-5.632c1.472-7.488 5.44-8.384 8.256-7.04l.896 4.608h3.2zm22.336-.64c-6.208-2.624-17.152-2.24-19.776 10.944l-.896 4.544h-5.824l-.576 2.88h5.824l-8.832 43.904h5.76l8.768-43.904h7.36l.576-2.88h-7.36l1.216-6.08c1.536-7.68 5.504-8.576 8.32-7.168l.896 4.608h3.2zm21.312-.32c-5.952-2.624-16.192-2.176-18.752 10.688l-1.024 5.12h-5.824l-.576 2.88h5.824l-8.832 43.904h5.76l8.768-43.904h8.576l.576-2.88H179.4l1.408-7.04c1.472-7.104 4.864-7.808 7.296-6.72l.896 4.672h3.136zm3.52 38.144 4.736-23.424-10.56 1.792-.32 1.728c4.224.768 4.224.832 3.776 3.136l-3.584 17.792c-2.112 10.56 5.312 10.944 11.008 7.552l.512-2.432c-4.992 1.6-6.976.704-5.568-6.144m-.32-34.112c0 2.112 1.728 3.904 3.968 3.904s3.968-1.792 3.968-3.904-1.728-3.904-3.968-3.904-3.968 1.792-3.968 3.904m19.456 34.112 4.736-23.424-10.56 1.792-.32 1.728c4.224.768 4.224.832 3.776 3.136l-3.584 17.792c-2.112 10.56 5.312 10.944 11.008 7.552l.512-2.432c-4.992 1.6-6.976.704-5.568-6.144m-6.272-33.536a3.44 3.44 0 0 0 3.456 3.456 3.44 3.44 0 0 0 3.456-3.456 3.44 3.44 0 0 0-3.456-3.456 3.44 3.44 0 0 0-3.456 3.456m12.8 0a3.44 3.44 0 0 0 3.456 3.456 3.44 3.44 0 0 0 3.456-3.456 3.44 3.44 0 0 0-3.456-3.456 3.44 3.44 0 0 0-3.456 3.456m12.608 33.536 4.736-23.424-10.56 1.792-.32 1.728c4.224.768 4.224.832 3.776 3.136l-3.584 17.792c-2.112 10.56 5.312 10.944 11.008 7.552l.512-2.432c-4.992 1.6-6.976.704-5.568-6.144m-.32-34.112c0 2.112 1.728 3.904 3.968 3.904s3.968-1.792 3.968-3.904-1.728-3.904-3.968-3.904-3.968 1.792-3.968 3.904m19.456 34.112 4.736-23.424-10.56 1.792-.32 1.728c4.224.768 4.224.832 3.776 3.136l-3.584 17.792c-2.112 10.56 5.312 10.944 11.008 7.552l.512-2.432c-4.992 1.6-6.976.704-5.568-6.144m-6.272-33.536a3.44 3.44 0 0 0 3.456 3.456 3.44 3.44 0 0 0 3.456-3.456 3.44 3.44 0 0 0-3.456-3.456 3.44 3.44 0 0 0-3.456 3.456m12.8 0a3.44 3.44 0 0 0 3.456 3.456 3.44 3.44 0 0 0 3.456-3.456 3.44 3.44 0 0 0-3.456-3.456 3.44 3.44 0 0 0-3.456 3.456m12.608 33.536 4.736-23.424-10.56 1.792-.32 1.728c4.224.768 4.224.832 3.776 3.136l-3.584 17.792c-2.112 10.56 5.312 10.944 11.008 7.552l.512-2.432c-4.992 1.6-6.976.704-5.568-6.144m-.32-34.112c0 2.112 1.728 3.904 3.968 3.904s3.968-1.792 3.968-3.904-1.728-3.904-3.968-3.904-3.968 1.792-3.968 3.904m19.456 34.112 4.736-23.424-10.56 1.792-.32 1.728c4.224.768 4.224.832 3.776 3.136l-3.584 17.792c-2.112 10.56 5.312 10.944 11.008 7.552l.512-2.432c-4.992 1.6-6.976.704-5.568-6.144m-6.272-33.536a3.44 3.44 0 0 0 3.456 3.456 3.44 3.44 0 0 0 3.456-3.456 3.44 3.44 0 0 0-3.456-3.456 3.44 3.44 0 0 0-3.456 3.456m12.8 0a3.44 3.44 0 0 0 3.456 3.456 3.44 3.44 0 0 0 3.456-3.456 3.44 3.44 0 0 0-3.456-3.456 3.44 3.44 0 0 0-3.456 3.456m12.608 33.536 4.736-23.424-10.56 1.792-.32 1.728c4.224.768 4.224.832 3.776 3.136l-3.584 17.792c-2.112 10.56 5.312 10.944 11.008 7.552l.512-2.432c-4.992 1.6-6.976.704-5.568-6.144m-.32-34.112c0 2.112 1.728 3.904 3.968 3.904s3.968-1.792 3.968-3.904-1.728-3.904-3.968-3.904-3.968 1.792-3.968 3.904"/></svg>
