<svg xmlns="http://www.w3.org/2000/svg" width="384" height="384" viewBox="0 0 384 384"><path fill="#fff" stroke="#c9c9cd" d="M.5.5h383v383H.5z"/><path fill="#446" d="M43 71v4h-4v-4zm4-4v4h-4v-4zm4 0h4v8h-4zm8 0h4v8h-4zm16 4v4h-4v-4zm-4-4v4h-4v-4zm-4-12H47v4h20zm-12-8v4h16v12H43V51h8V39h4v4h20v4zm50-8v4h8v-4h4v4h12v4h-12v4h-4v-4h-8v4h-4v4h-4v8h4v4h-4v8h-4V39zm16 32v4h-4v-4h-12v-4h12v-4h-8V51h4v8h4v-8h4v8h8v4h-8v4h8v4zm-16-16v8h-4v-8zm-4-12h-4v8h4zm70 28v4h-4v-4zm12 0v4h-4v-4zm-24-32v4h4v-4h12v8h8v12h-8v8h4v4h-8v-4h-4v4h-4v-4h4v-4h-4v4h-4v-4h4v-4h-4V47h-4v28h-4V55h-4v-4h4v-4h4v-8zm4 32v4h-4v-4zm20-8v4h-4v-4zm-12-4h-4v4h4zm-4-8h-4v4h4zm12 0h-8v4h8zm-8-8h-8v4h8zm38 28v4h-8v-4zm4-12v4h4v-4h4v4h8v4h-8v8h-8v-4h4v-4h-12v-4h4v-4zm24 12v4h-8v-4zm0-8v4h-4v-4zm-4-4v4h-4v-4zm-12-20v4h16v4h-16v4h16v4h-12v4h-4v-4h-4v4h-4v-4h-12v-4h16v-4h-16v-4h16v-4zm54 32v4h-12v-4zm4-8v8h-4v-8zm-4-4v4h-20v-4zm16 0v4h-12v-4zm-8-8v4h-4v4h-4v-4h-12v-4zm-8-12v4h16v8h-4v-4h-28v4h-4v-8h16v-4zm50 24h-4v-8h4v-4h4v-4h-12v16h4v4h-4v8h-4V55h-4v-4h4v-4h4v-8h4v4h8v-4h4v4h12v4h-12v16h4v4h-4v8h-4v-8h-4zh4v-8h-4zm20-4v12h-4V59zm-4-8v8h-4v-8zM47 129h-8v-4h8v-4h-8v-4h8v-4h-8V93h20v16h4V93h4v4h8v4h-8v8h8v20h-4v-4h-8v4h-4v-4h-4v4h-4v-4h-4zm8-8h-4v4h4zm4-8h-8v4h4v4h4zm12 0h-8v8h8zm-24-8h-4v4h4zm8 0h-4v4h4zm-8-8h-4v4h4zm8 0h-4v4h4zm38-4h12v4h8v-4h4v4h12v4h-4v16h-8v4h12v4h-12v4h-4v-4h-12v-4h12v-4h-8v-4h-4v4h-4v12h-4zm8 12h-4v8h4zm20 4h-4v4h4zm-8 0h-4v4h4zm0-8h-4v4h4zm-8 0h-4v4h4zm16 0h-4v4h4zm-20-4h-4v4h4zm54 8v24h-4v-12h-4v-4h4v-8zm24-4h-4v20h4v4h-4v4h-4v-8h-4v-4h4v-8h-4v8h-4v4h4v4h-4v4h-4v-16h4v-4h-4v-4h4v-4h-4v4h-4v-4h4v-8h4v4h20v24h-4zm-8 0h-4v4h4zm-20 0v4h-4v-4zm4-8v8h-4v-8zm58 32v4h-12v-4zm24 0v4h-8v-4zm-8-4v4h-16v-4h4v-4h-4v4h-8v-4h8v-4h12v4h-4v4zm-24-8v4h-4v-4zm32 0v4h-8v-4zm-16-20v4h16v4h-20v4h20v4h-8v4h-4v-4h-16v4h-4v-4h-4v-4h12v-4h-12v-4h16v-4zm50 24h-16v-4h16v-4h-8v-4h20v4h-8v4h16v4h-16v12h-12v-4h8zm4-24v4h16v8h-4v-4h-28v4h-4v-8h16v-4zm62 0h4v4h4v24h-4v4h4v4h-28v-4h-4v4h-4V93h16v4h4v-4h4v4h4zm-8 16h-4v4h-4v12h8v-4h-4v-8h4zm8 12h-4v4h4zm-20-4h-4v4h4zm12 0h12v-4h-12zm-8-8h-8v4h8zm20-4h-4v4h4zm-8 0h-4v4h4zm-12-8h-8v8h4v-4h4zm16 4h-4v4h4zm-8 0h-4v4h4zM47 159v20h4v4h-8v-12h-4v-4h4v-8zm16 20v4h-4v-4zm12-4v8h-4v-8zm-8 0v4h-4v-4zm0-12v4h-4v8h-4v-8h-4v12h-4v-16zm4 4v8h-4v-8zm0-20v4h4v16h-4v-12h-4v-8zm-28 8v4h-4v-4zm12-8v8h4v-8h4v8h4v4H51v-12zm-8 0v8h-4v-8zm66 28v-4h-4v-20h4v-4h4v4h12v20h-12v4h12v4h-4v4h-4v-4h-16v4h-4v-12h-4v12h-4v-36h4v12h4v-12h4v16h-8v4h8v8zm4-12h-4v4h4zm8 0h-4v4h4zm-8-8h-4v4h4zm8 0h-4v4h4zm30 0v28h-4v-20h-4v-4h4v-4zm20 4v8h4v4h-4v12h-8v-4h4v-20zm8 12v8h-4v-8zm-24 0h4v8h-4zm8-8v8h-4v-8zm-4-4v4h-4v-4zm4-12v4h16v8h-4v-4h-12v4h-4v-12zm-8 0v8h-4v-8zm66 0v8h4v-4h4v4h4v4h-8v4h8v4h-8v4h8v4h-8v8h-4v-8h-8v8h-8v-4h-4v4h-4v-16h4v8h4v-4h16v-4h-4v-4h4v-4h-4v-12zm-12 28h-4v4h4zm4-28v20h-12v-8h-4v-4h4v-4h-4v-4zm-4 12h-4v4h4zm0-8h-4v4h4zm24-4v4h-4v-4zm54 24v8h-4v-8zm-32 0v8h-4v-8zm28-8v8h-4v-8zm-24 4v4h-4v-4zm20-8v4h-4v-4zm-8-4v16h8v4h-8v8h-4v-8h-8v-4h8v-12h-4v8h-4v-8h4v-4h-12v-4h16v-4h4v4h16v4zm46-4v4h-4v8h4v20h-4v-12h-4v8h-4v-8h4v-16h-4v-4zm8 28v4h-4v-4zm12 0v4h-4v-4zm-8-4v4h-4v-4zm8-20h-4v20h-4v-4h-4v4h-4v-16h-4v-4h4v-8h4v8h4v-4h12v28h-4zm-8 4h-4v8h4zM71 201v4H59v4h16v4h-8v4h8v4h-4v4h-4v4h-8v4h8v4H39v-4h16v-4H43v-8h-4v-4h8v-4h-8v-4h16v-4H43v-4zm4 32v4h-4v-4zm-4-4v4h-4v-4zm-4-8h-8v4h8zm-12 0h-8v4h8zm8-8H51v4h12zm46 20v4h-4v-4zm-8-16v12h4v4h-4v4h-4v-20zm12 12v4h-4v-4zm12 8h-4v-12h-4v4h-4v-4h-8v-4h8v-8h-8v4h-4v-4h-4v4h-4v-4h4v-12h4v4h8v4h4v-8h4v8h4v-4h4v4h4v4h-4v8h4v4h-4zm-4-24h-4v8h4zm-16-4h-4v4h4zm24-8v4h-4v-4zm26 4v16h-4v-8h-4v-4h4v-4zm8 12v4h-4v-4zm4-16v4h16v8h-4v-4h-4v12h-8v-4h4v-8h-8v4h-4v-4h4v-8zm16 16v4h-4v-4zm-16-4v4h-4v-4zm-8-12v4h-4v-4zm-8 28v8h-4v-8zm24 0v8h-16v-4h12v-4zm8 0v8h-4v-8zm-24 0v4h-4v-4zm-4-4v4h-4v-4zm12 0v4h-8v-4zm12 0v4h-4v-4zm30 8v4h-8v-4zm-4-20v4h-4v-4zm16 4v4h16v16h-8v-4h4v-8h-12v4h8v4h-8v4h-4v-20h-4v16h-4v-8h-4v4h-4v-4h4v-4h4v-8h16v-4h-12v-4h12v-4h4v4h8v4h-8v4h8v4zm-12-12v8h-4v-8zm4-4v4h-4v-4zm-8 0v4h-4v-4zm58 32v4h-8v-4zm28 0v4h-8v-4zm-24-4v4h-4v-4zm16 0v4h-4v-4zm-12-4v4h-4v-4zm8 0v4h-4v-4zm-4-24v24h-4v-24zm-12 4v16h-4v-16zm20 12v4h-4v-4zm4-4v4h-4v-4zm4-8v8h-4v-8zm26 28v4h-8v-4zm16 0v4h-8v-4zm12 0v4h-4v-4zm-24-20v16h4v4h-8v-16h-8v-4zm24 0v4h-8v12h4v4h-8v-20zm-32 8v8h-4v-8zm16-4v12h-4v-12zm12 4h4v8h-4zm-16-12v4h-4v-4zm8 0v4h-4v-4zm-4-8v8h-4v-8zm-12 4v4h-4v-4zm20 0v4h-4v-4zm-16-4v4h-4v-4zm20 0v4h-4v-4zM51 255v8h8v20h4v-28h4v28h4v-20h4v28h-4v-4H59v4h-4v-8h-4v-4h-4v8h-4v-8h4v-24zm-8 32v4h-4v-4zm12-20h-4v12h4zm-12-4v12h-4v-12zm62 12v4h12v-4h4v4h8v4h-8v8h-4v-8h-12v4h-4v-4h-8v-4h8v-4zm-4 12v4h-4v-4zm-4-16v4h-4v-4zm32-12v4h-8v4h-4v-4h-4v4h4v4h-4v4h-4v-4h-4v-4h4v-4h4v-4zm0 12v4h-4v-4zm-28-4v4h-4v-4zm24 0v4h-4v-4zm-16-8v4h-4v4h-4v-4h-8v-4zm4-4v4h-4v-4zm54 32v4h-8v-4zm16 0v4h-4v-4zm-28 0v4h-8v-4zm16-4v4h-4v-4zm8 0v4h-4v-4zm-20 0v4h-4v-4zm16-8v8h-4v-8zm-16 0h-4v-4h-4v4h4v8h-4v-4h-4v-8h4v-4h-4v-4h8v-8h4v8h4v4h-4v4h4v12h-4zm16-20v4h8v4h-4v12h-4v-12h-4v4h-4v-4h4v-8zm-4 16v4h-4v-4zm-4-4v4h-4v-4zm-16-12v4h-4v-4zm16 0v4h-4v-4zm46 16v4h12v-4h4v4h8v4h-8v12h-4v-8h-4v8h-4v-4h-4v4h-4v-8h-4v8h-4v-8h4v-4h-4v-4h8v-4zm24 12v8h-4v-8zm-16-4h-8v4h8zm-12-12v4h-8v-4zm8-8v-4h4v4h16v4h-8v4h-4v-4h-4v8h-4v-8h-4v4h-4v-4h-8v-4zm20 8v4h-8v-4zm30 20v4h-12v-4zm24 0v4h-8v-4zm-20-4v4h-4v-4zm12 0v4h-4v-4zm-8-12v8h4v4h-8v-12zm-12 8v4h-4v-4zm4-4v4h-4v-4zm20 0v4h-8v-4zm-24-4v4h-8v-4zm4-4v4h-4v-4zm24 0v4h-12v-4zm-20-4v4h-4v-4zm8 0v4h-4v-4zm-4-8v8h-4v-8zm-12 4v4h-4v-4zm20 0v4h-4v-4zm-16-4v4h-4v-4zm20 0v4h-4v-4zm30 32v4h-8v-4zm16 0v4h-8v-4zm12 0v4h-4v-4zm-24-12v8h4v4h-8v-12zm16 0v8h4v4h-8v-12zm-24 0v8h-4v-8zm16 0v8h-4v-8zm12 0h4v8h-4zm-24-8v4h-8v-4zm16 0v4h-8v-4zm12 0v4h-4v-4zm-24-12v8h4v4h-8v-12zm16 0v8h4v4h-8v-12zm-24 0v8h-4v-8zm16 0v8h-4v-8zm12 0h4v8h-4zM55 341v-12h-4v8h-4v-8h-4v12zm20-16v8h-4v-8zm-4-8h-4v4h4zm-16-4H43v4h12zm-16 32v-20h8v-4h-8v-12h20v12h-8v4h12v-12h12v8h-4v4h-4v8h4v4h-4v8h-4v-16h-4v16zm58-4v4h-4v-4zm12 0v4h-4v-4zm8 0v4h-4v-4zm12 0v4h-8v-4zm-24-4v4h-4v-4zm0-28v4h8v-4h4v4h12v4h-4v12h-4v-12h-4v4h-4v4h-12v4h8v8h-4v-4h-8v4h-4v-4h4v-8h-4v-4h8v-4h-8v-4h8v-4zm12 24v4h-4v-4zm12 0v4h-8v-4zm-8-4v4h-4v-4zm-4-4v4h-4v-4zm-4-8h-8v4h8zm38 12v4h4v-4zm16 12h-4v-4h4v-4h-4v-20h4v16h4v-16h12v24h-8v8h-4v-8h-4zm12-24h-4v16h4zm-24 4h-4v4h4zm0-8h-4v4h4zm16-4v4h-4v-4zm-20 32h-4v-32h12v32h4v4h-8v-8h-4zm58 4v-12h-4v12h-4v-36h4v12h4v-12h4v16h-8v4h8v12h4v4zm16-4v4h-4v-4zm12-4v8h-4v-8zm-12-24v4h-4v4h16v12h-4v-8h-12v16h-4v-28zm4 24v4h-4v-4zm4-4v4h-4v-4zm-4-4v4h-4v-4zm8-20v4h-12v-4zm54 32v4h-20v-4zm-32 0v4h-4v-4zm12-4v4h-4v-4zm-8 0v4h-4v-4zm12-4v4h-4v-4zm-8 0v4h-4v-4zm12-4v4h-4v-4zm4-4v4h-4v-4zm-8-16v8h12v8h-4v-4h-28v-4h16v-8zm62 16v-4h-8v4zm-12 4h-8v4h8zm12 0h-8v4h8zm-20-4h8v-4h-8zm8-8v-4h-12v-4h28v4h-12v4h16v4h-4v16h-12v4h16v4h-36v-4h16v-4h-12v-16h-4v-4z"/></svg>
