<svg xmlns="http://www.w3.org/2000/svg" width="384" height="384" viewBox="0 0 384 384"><path fill="#8e1f2a" d="M0 0h384v384H0z"/><path fill="#fff" d="M51.6 110.08q-2.4 2.92-6.24 4.32 2 .36 4.4.32 5.32-.08 8.56-2.8 3.28-2.76 4.12-8 .88-5.4-1.28-8.8-2.24-3.56-7.24-4-5.56-.48-10.76.52-5.96 1.16-10.24 4.12l-1.68-3.12q9.8-5.64 22.64-4.8 6.68.44 9.84 4.88 2.96 4.2 2.16 11-.88 7.24-5.56 10.84-4.36 3.36-11.36 3.2-6.84-.16-10.28-2.96-3.24-2.64-3.2-7.44.04-4.04 2.6-6.4t7.08-2.36q5.76.2 7.68 3.84 1.88 3.44-1.24 7.64m-2.4-1.88q1.84-2.44.8-4.36-1.08-1.96-4.6-2-3.4-.04-5.12 1.44-1.52 1.28-1.64 3.52-.28 4.36 3.08 6.36 5.16-1.96 7.48-4.96M73 91.44v-2.76h16.64V83.8h3.12v4.88h12.28v2.76H92.76v19.28q8.4 1.56 15.12 3.16l-.64 3.16q-6.64-1.8-14.48-3.44v2.96q0 1.56-.48 2.4-.52.88-1.64 1.2-.72.2-2.08.2-2.24 0-5.52-.52.08-1.88-.24-3.04 3.76.8 5.48.6.64 0 1-.36t.36-1v-3.12a420 420 0 0 0-9.44-1.76q-3.6 3.04-7.68 5.96a12.4 12.4 0 0 0-2.36-1.84q8.88-5.44 15.28-12.52h-7.92v-2.08q6.36-5.36 9.44-9.24zm16.64.52q-3.92 4.72-8.36 8.56h8.36zm-7 17.08q4.04.56 7 1.12v-7.96q-3.08 3.32-7 6.84m48.96 1.04q-2.4 2.92-6.24 4.32 2 .36 4.4.32 5.32-.08 8.56-2.8 3.28-2.76 4.12-8 .88-5.4-1.28-8.8-2.24-3.56-7.24-4-5.56-.48-10.76.52-5.96 1.16-10.24 4.12l-1.68-3.12q9.8-5.64 22.64-4.8 6.68.44 9.84 4.88 2.96 4.2 2.16 11-.88 7.24-5.56 10.84-4.36 3.36-11.36 3.2-6.84-.16-10.28-2.96-3.24-2.64-3.2-7.44.04-4.04 2.6-6.4t7.08-2.36q5.76.2 7.68 3.84 1.88 3.44-1.24 7.64m-2.4-1.88q1.84-2.44.8-4.36-1.08-1.96-4.6-2-3.4-.04-5.12 1.44-1.52 1.28-1.64 3.52-.28 4.36 3.08 6.36 5.16-1.96 7.48-4.96m22.16-14.88v-2.88h15.92q1.6-3.36 2.56-7.24l3.32.8q-1.16 3.68-2.32 6.44h15.68v2.88h-17.04q-1.92 3.68-4.92 7.16h10.56v2q-7.08 8.16-13.4 12.4l16.88-1.12q-2.4-2.88-4.92-5.56l2.64-1.32q4.44 4.56 9.2 10.64l-2.08 2.24q-1.84-2.4-2.68-3.4l-21.12 1.4q-1.6.08-3.44.68l-1.24-2.92q8.04-4.24 15.32-12.32h-10.92v-2.08q3.96-3.88 6.32-7.8zm42 26.36V91.32h2.92v1.96q2.04-1.6 4.24-1.6 3.56 0 5.28 2.92 5.52-4.68 10.32-4.68 3.8 0 6.08 2.2 2.52 2.4 3.32 7.56 1.32 9.32-1.52 13.92-2.84 4.64-8.12 4.44-3.56-.12-6.4-1.52-.16-2.2-.44-3.36 3.16 2 6.4 2 4.56 0 6.4-3.96t.72-11.52q-1.12-6.92-6.52-6.92-4.24-.04-9.2 4.44.8 2.96.8 7.68 0 6.4-1.16 9.36-1.68 4.2-4.8 4.2-4.48 0-4.08-6.88.48-9 5.96-14.88-1.04-2-3.2-2-2.36 0-4.08 2.24v22.76zm11.4-14.8q0-2.92-.32-5.08-4.04 5.12-4.16 11.8-.04 3.56 1.28 3.64 1.2.08 2.04-1.72.64-1.4.92-3.48.24-1.88.24-5.16m11.92 4.28q-3.64-5.4-6.84-8.72l2.24-1.6q3.52 3.76 6.88 8.48zm-15.72-18.92a45 45 0 0 0-7.88-4.52l1.76-2.44q2.96 1.4 7.76 4.28zm50.64 19.84q-2.4 2.92-6.24 4.32 2 .36 4.4.32 5.32-.08 8.56-2.8 3.28-2.76 4.12-8 .88-5.4-1.28-8.8-2.24-3.56-7.24-4-5.56-.48-10.76.52-5.96 1.16-10.24 4.12l-1.68-3.12q9.8-5.64 22.64-4.8 6.68.44 9.84 4.88 2.96 4.2 2.16 11-.88 7.24-5.56 10.84-4.36 3.36-11.36 3.2-6.84-.16-10.28-2.96-3.24-2.64-3.2-7.44.04-4.04 2.6-6.4t7.08-2.36q5.76.2 7.68 3.84 1.88 3.44-1.24 7.64m-2.4-1.88q1.84-2.44.8-4.36-1.08-1.96-4.6-2-3.4-.04-5.12 1.44-1.52 1.28-1.64 3.52-.28 4.36 3.08 6.36 5.16-1.96 7.48-4.96m57.88 10.16-1.84 2.36q-7.16-5.84-14.08-10l1.68-2.2 2.32 1.48q4.64-3.24 7.44-7.56-5.12-2.6-10.72-3.16l-.4-2.24q6.24-3.92 9.96-8.28h-9.84v-2.6h14.36V88q-4.28 5.04-10.04 9.28a36.8 36.8 0 0 1 8.88 3.08l1.88.92q-3.36 5.84-9 10.32 4.84 3.24 9.4 6.76m-33.52-21.48V84.32h2.8v2.32q2.68-2.4 6.28-2.6 2.72-.12 4.16.96 1.28.96 1.08 2.48-.16 1.24-1.32 2.2-1.04.88-3.12 1.72 2.36-.16 3.56.44 1.12.56 1.4 2 .24 1.16-.68 2.44-.88 1.24-2.48 2.16h4.48v2.4h-19.44v-2.4h10.32q2.56-.6 3.88-1.92 1.12-1.08 1.12-2.4-.08-1.08-1.64-1.36t-4.04.32l-.6-1.84q5.2-1.48 5.68-3.76.12-.68-.4-1.04-.64-.44-2.12-.4-3.6.12-6.12 3.2v7.64zm7.88 9.68h-8.76v-2.32h12.28v1.32q-1.6 4.88-4.72 9.44l8.8-5.32q.08.96.88 2.28l-12.24 7.32q-.64.36-2.16 1.56l-2.32-2.4a15.7 15.7 0 0 0 2.04-1.64q4.28-4.16 6.2-10.24M331 89v-2.6h16.4V89h-8.88q1.24 2.88 1.6 5.72 3.32.44 5.12 2.76 1.92 2.48 1.76 6.72-.2 5.12-3.12 9.32-3 4.28-8.72 7.32-.56-.92-1.92-2.08 5.92-3.08 8.52-6.64 2.44-3.32 2.64-8 .08-2.68-.92-4.4-1.04-1.8-3.16-2.28 0 2.12-.28 4.08-.92 6-5.32 6.44-2.52.24-3.96-1.28-1.56-1.64-1.36-4.84t2.28-5.04q2.12-1.88 5.88-2.16-.64-3.4-2-5.64zm-10.72-3.08h9.36q-4.32 14.44-2.84 33.88h-2.72q-1-18.8 1.96-31.28h-5.76zm-7.76 20.4q-.88-7.52-2.44-16.08l2.68-.48q1.56 8.72 2.44 16.24zm5.6-2.72q-1.24-8.48-2.48-14.28l2.6-.52a202 202 0 0 1 2.52 14.44zm19.36-1.84q.44-1.96.36-4.52-2.6.16-4.16 1.4-1.52 1.2-1.76 3.12-.24 1.72.48 2.64.68.88 1.96.8 1.08-.08 1.88-.88.92-.92 1.24-2.56M35.68 150v-2.56h10v-4.08h3.08v4.08h8.72V150h-8.72v4.2h4.56q5.32-3.8 8.6-7.96l2.32 1.72q-3.24 3.48-6.64 6.24h6.92v2.6H54.2q-2.52 1.8-5.28 3.36h10.84v1.88q-2.04 2.84-4.72 4.8 10-1.04 10.52 4.24.16 1.76-.68 3.04-.92 1.44-3 2.2-4.8 1.8-14.4-.4.72 1.32 1.68 3.72l-2.44 1.12q-1.52-3.8-3.44-7l2.4-1 .72 1.16q9.64 1.28 13.28.48 3.32-.72 3-3-.32-3.2-7.8-2.32-2.92.32-5.56 1.88l-1.48-2.04q5.4-3.12 7.88-6.4H44.44q-5.04 2.48-11.6 4.88-.88-1.36-2.4-2.24 10.6-3.2 18.96-8.36H31.56v-2.6h14.12V150zM51 209v-2.6h16.4v2.6h-8.88q1.24 2.88 1.6 5.72 3.32.44 5.12 2.76 1.92 2.48 1.76 6.72-.2 5.12-3.12 9.32-3 4.28-8.72 7.32-.56-.92-1.92-2.08 5.92-3.08 8.52-6.64 2.44-3.32 2.64-8 .08-2.68-.92-4.4-1.04-1.8-3.16-2.28 0 2.12-.28 4.08-.92 6-5.32 6.44-2.52.24-3.96-1.28-1.56-1.64-1.36-4.84t2.28-5.04q2.12-1.88 5.88-2.16-.64-3.4-2-5.64zm-10.72-3.08h9.36q-4.32 14.44-2.84 33.88h-2.72q-1-18.8 1.96-31.28h-5.76zm-7.76 20.4q-.88-7.52-2.44-16.08l2.68-.48q1.56 8.72 2.44 16.24zm5.6-2.72q-1.24-8.48-2.48-14.28l2.6-.52a202 202 0 0 1 2.52 14.44zm19.36-1.84q.44-1.96.36-4.52-2.6.16-4.16 1.4-1.52 1.2-1.76 3.12-.24 1.72.48 2.64.68.88 1.96.8 1.08-.08 1.88-.88.92-.92 1.24-2.56m139.72 56.4v-2.08h8.84a8.4 8.4 0 0 0 .36-1.88q-3 .16-6.64.16-.36-1.48-.84-2.12 10 .16 18.52-.96l1.28 2q-4.68.56-9.56.8-.24 1.6-.36 2h11.88v2.08h-12.52q-.56 1.32-1.48 2.24-.72.72-2.36 1.8h5.56v-2.48h2.64v2.48h6v2.2h-6v3.8q.6.96.6 2.32 0 3.76-2.08 6.32h9.8v2.48h-24.96v-2.48h12q1.32-1.12 1.88-2.48-.96.36-2.2.36-1.96 0-3.16-1.16-1.16-1.12-1.16-3.08 0-1.88 1.36-3.08 1.32-1.16 3.4-1.16.96 0 1.88.2v-2.04h-10.12v-2.04q3.6-1.44 5.32-4.2zm-8.48-8.4q0 3-.44 7.2.12-.04 2.32-.48v-12.64h2.72v11.96l2.72-.8.68 2.64-3.4.96v21.6h-2.72v-20.96l-2.64.52q-.48 3.56-1 5.6l-2.68-.72q1.88-8.12 1.88-15.08zm31.92-1.6v2.08h-23.72v-2.08h7.04q-2.16-2.32-3.2-3.2l2-1.44q1.48 1.32 3.52 3.56l-1.08 1.08h6.88l-.84-.92q1.84-1.48 3.76-3.88l2 1.36a28 28 0 0 1-3.28 3.44zm-12.8 24.28q1.119 0 1.68-.28.6-.32.96-1.08.04-.16.04-.36.039-1.04-.72-1.56-.68-.48-1.88-.44-2.36.04-2.36 1.88 0 .84.64 1.36.6.48 1.64.48m32.12 7.12q-1.48 0-3.8-.28a9.5 9.5 0 0 0-1-3.24q2.72.36 4.4.36 1.52 0 2.16-.64t.64-2.04v-16.56q5.96-3.32 10.8-7.48h-25.12v-2.96h30.08v2.64q-5.64 5.32-12.52 9.48v15.48q0 2.68-1.36 3.96t-4.28 1.28m49.52-18.52q-4.4-.52-8.32 1.8l-1.8-1.08 1.32-11.96 2.88.36-1.12 9.6q3.84-1.36 7.12-1.12 3.24.24 4.92 1.4 1.76 1.2 2.48 3.88 1.119 4.16-1.08 7.88 3.36 3 6.04 7.08l-2.52 1.96q-2.2-3.88-5.36-6.72-4 3.8-10.76 4.6-4.36.52-7.08-1.2-2.64-1.68-2.72-4.88-.04-2.52 1.76-4.24 1.719-1.68 4.56-2 7.36-.84 13.76 3.56 1.04-2.12.64-4.68-.36-2.04-1.36-2.96-1.08-1-3.36-1.28m-13.28-15H298l-.16 5.72q-.08 2.4-1.48 3.44-1.24.92-3.96.92-4.041 0-7.56-.76-.08-1.76-.56-2.84 3.16 1.2 7.6 1.12 1.56-.04 2.12-.4.68-.44.72-1.72l.08-2.76h-18.6zm5.76 30.08q5.88-.12 9.88-3.76-6.16-4.16-11.88-3.32-3.48.6-3.6 3.52-.04 1.72 1.48 2.68 1.48.92 4.12.88m-12.92 3.6q-2.96-6.96-.56-14.24.84-2.64.4-4.92-.48-2.36-2.36-4l2.32-1.72q4.56 4.52 2.36 11.56-2.2 6.56.4 12.24zm2.44-27.52q-3.16-4.08-5.56-6.48l2.16-1.76q3.24 3.24 5.56 6.32zm53.6-3.2v-2.6h16.4v2.6h-8.88q1.24 2.88 1.6 5.72 3.32.44 5.12 2.76 1.92 2.48 1.76 6.72-.201 5.12-3.12 9.32-3 4.28-8.72 7.32-.561-.92-1.92-2.08 5.919-3.08 8.52-6.64 2.439-3.32 2.64-8 .08-2.68-.92-4.4-1.04-1.8-3.16-2.28 0 2.12-.28 4.08-.92 6-5.32 6.44-2.52.24-3.96-1.28-1.56-1.64-1.36-4.84t2.28-5.04q2.12-1.88 5.88-2.16-.64-3.4-2-5.64zm-10.72-3.08h9.36q-4.32 14.44-2.84 33.88h-2.72q-1-18.8 1.96-31.28h-5.76zm-7.76 20.4q-.88-7.52-2.44-16.08l2.68-.48q1.56 8.72 2.44 16.24zm5.6-2.72q-1.24-8.48-2.48-14.28l2.6-.52a202 202 0 0 1 2.52 14.44zm19.36-1.84q.44-1.96.36-4.52-2.6.16-4.16 1.4-1.52 1.2-1.76 3.12-.24 1.72.48 2.64.68.88 1.96.8 1.08-.08 1.88-.88.92-.92 1.24-2.56M101.665 175.4q-3.338 0-5.183-1.526t-2.283-4.655q-.134-1.095-.154-2.308t.074-3.103l.572-15.768h3.356l-.546 15.48a69 69 0 0 0-.1 3.186q-.006 1.362.102 2.182.227 1.728 1.298 2.592 1.069.865 2.993.865 1.455 0 2.55-.254 1.095-.253 2.536-.91l.993 2.779q-1.48.68-2.945 1.06t-3.263.38m5.055-20.32v3.041H88.765v-3.041zm15.04-1.16q2.959 0 5.017 1.328 2.06 1.328 3.086 3.661t1.026 5.267q0 3.076-1.04 5.617-1.042 2.539-3.168 4.073t-5.257 1.534q-2.958 0-5.043-1.328t-3.125-3.641-1.04-5.273q0-3.076 1.06-5.623t3.207-4.081 5.277-1.534m.04 3.029q-2.1 0-3.52 1.157-1.42 1.156-2.102 3.009a11.3 11.3 0 0 0-.683 3.925q0 3.012 1.473 5.159 1.473 2.145 4.352 2.146 2.1 0 3.526-1.144t2.095-2.976.67-3.931q0-3.04-1.453-5.192-1.453-2.154-4.358-2.153m23.4-3.029q2.958 0 5.017 1.328t3.086 3.661 1.026 5.267q0 3.076-1.04 5.617-1.042 2.539-3.168 4.073t-5.257 1.534q-2.958 0-5.043-1.328t-3.125-3.641-1.04-5.273q0-3.076 1.06-5.623t3.207-4.081 5.277-1.534m.04 3.029q-2.1 0-3.52 1.157-1.42 1.156-2.102 3.009a11.3 11.3 0 0 0-.683 3.925q0 3.012 1.473 5.159 1.473 2.145 4.352 2.146 2.1 0 3.526-1.144t2.095-2.976.67-3.931q0-3.04-1.453-5.192-1.453-2.154-4.358-2.153m40.147.047q-1.293 1.536-4.757 4.339t-5.241 3.872l-1.864-2.575q2.374-1.547 5.66-4.076t4.887-4.276h1.382zm1.163-2.716q1.031 2.235 2.614 5.016l.719 1.264q1.295 2.295 1.909 3.929.615 1.632.614 3.527 0 3.558-2.286 5.47-2.287 1.914-6.51 1.914-2.133 0-3.805-.36a15 15 0 0 1-3.38-1.184l.622-2.938q1.684.759 3.111 1.093a13.3 13.3 0 0 0 3.028.334q2.799 0 4.318-1.178 1.52-1.18 1.52-3.362a7.9 7.9 0 0 0-.681-3.213q-.681-1.555-2.043-3.97a100 100 0 0 1-1.548-2.823 14.5 14.5 0 0 1-.935-2.222l.295-1.297zm26.64 21.12q-3.18 0-4.853-1.487t-2.095-3.82-.036-5.315l1.356-10.498h3.091l-1.09 10.498q-.255 2.574-.103 4.153.153 1.58 1.065 2.497t2.898.917q1.104 0 2.033-.308t2.047-1.041l1.364 2.633a12.6 12.6 0 0 1-2.693 1.312q-1.35.459-2.985.459m-4.68-18.665q-1.182 1.629-4.447 4.29-3.267 2.66-6.245 4.42l-1.836-2.59a79 79 0 0 0 6.618-4.486q3.226-2.43 4.843-4.089h1.108zm.62-7.173a2.48 2.48 0 0 1-1.81-.742 2.44 2.44 0 0 1-.75-1.805q0-1.06.75-1.811t1.81-.75q1.062 0 1.812.75t.75 1.811-.75 1.805a2.48 2.48 0 0 1-1.812.743M224.336 175h-3.304l.734-20.72h2.749l.38 5.36zm5.129-15.966q.053-.983-.316-1.652t-1.311-.668q-1.436 0-2.228 2.197t-.928 6.369l-.42-7.507h.862q.24-1.993 1.155-2.923.914-.93 2.478-.93 2.215 0 3.016 1.566t.708 3.874l-.6 15.64h-3.003zm10.233 10.084q-.08 1.64.274 2.34.356.7 1.49.7h.882l-.106 3.042h-.923q-1.909 0-3.023-.612t-1.566-1.94q-.451-1.33-.306-3.53l.589-10.084q.055-.957-.302-1.639-.356-.681-1.272-.681-1.473 0-2.26 2.115-.785 2.115-.934 6.188l-.469-7.438h.975q.322-1.908 1.255-2.784.934-.875 2.562-.875 2.188 0 3.002 1.58.815 1.58.681 3.86zm6.935-14.838h2.815l.38 5.197-.826 22.923h-3.356zm5.137 21.12a44 44 0 0 1-5.804-.4l1.304-3.135q1.008.252 2.353.418t2.452.166q4.315 0 6.598-2.599 2.282-2.598 2.282-6.947 0-2.569-.927-4.262-.926-1.692-3.284-1.692-1.834 0-3.432 1.178-1.599 1.177-2.654 3.647-1.056 2.47-1.176 6.137l-.347-8.44h1.612l-.84 1.48q.188-2.178 1.19-3.77 1.004-1.59 2.608-2.426 1.603-.835 3.605-.835 3.68 0 5.315 2.573t1.635 6.48q0 3.787-1.487 6.594-1.486 2.807-4.305 4.32t-6.698 1.513m35.977-.866q-2.493.866-4.694.866-4.514 0-7.053-2.13t-3.485-5.553q-.947-3.422-.947-7.923 0-4.185 1.078-7.47 1.08-3.286 3.024-5.145 1.946-1.86 4.477-1.859 3.252 0 4.712 2.388 1.458 2.388 1.459 5.854 0 6.368-4.793 11.276-4.791 4.91-13.724 7.628l-.886-2.91q5.336-1.613 8.933-3.955 3.598-2.343 5.408-5.424t1.81-6.892q0-2.118-.612-3.54t-2.424-1.423q-1.527 0-2.707 1.503t-1.815 4.088q-.637 2.585-.637 5.753 0 3.41.623 6.175.622 2.764 2.455 4.635 1.831 1.869 5.176 1.869 1.96 0 3.827-.734zm14.959-2.163q3.23 0 6.497-1.44l.82 2.818q-1.651.798-3.596 1.225a18.2 18.2 0 0 1-3.904.426q-4.788 0-7.28-2.583-2.49-2.582-2.491-7.143 0-3.453 1.258-6.111 1.26-2.659 3.638-4.15 2.38-1.493 5.582-1.493 3.034 0 4.98 1.538 1.948 1.539 1.948 4.323 0 3.303-3.75 5.18t-10.626 2.079l-.678-2.754q5.678-.163 8.7-1.318 3.024-1.155 3.024-3.28 0-1.37-1.035-2.094t-2.627-.723q-2.211 0-3.864 1.068-1.652 1.068-2.54 3.012-.89 1.944-.889 4.524 0 3.202 1.69 5.05 1.69 1.845 5.143 1.846m18.169 8.203q1.525-1.418 2.38-2.632.857-1.215 1.017-2.366.2-1.3-.51-1.991-.711-.69-2.306-.69h-.62v-2.976h1.583q2.957 0 4.25 1.465 1.29 1.465.814 4.302-.333 1.84-1.494 3.747-1.16 1.907-3.175 3.707l-1.125 1.02-2.048-2.47zm-243.999 59q1.525-1.418 2.38-2.632.856-1.215 1.017-2.366.2-1.3-.511-1.991-.71-.69-2.305-.69h-.62v-2.976h1.583q2.957 0 4.25 1.465 1.29 1.466.813 4.302-.333 1.84-1.493 3.747t-3.175 3.707l-1.126 1.02-2.047-2.47zm44.831-23.578q-1.293 1.536-4.757 4.339t-5.241 3.872l-1.864-2.575q2.374-1.547 5.66-4.076t4.887-4.276h1.382zm1.164-2.716q1.03 2.235 2.613 5.016l.719 1.264q1.295 2.295 1.91 3.929.613 1.632.613 3.527 0 3.558-2.286 5.47-2.286 1.914-6.51 1.914-2.133 0-3.805-.36a15 15 0 0 1-3.38-1.184l.622-2.938q1.684.759 3.111 1.093a13.3 13.3 0 0 0 3.028.334q2.799 0 4.318-1.178 1.52-1.18 1.52-3.362a7.9 7.9 0 0 0-.681-3.213q-.681-1.555-2.042-3.97a100 100 0 0 1-1.55-2.823 14.5 14.5 0 0 1-.934-2.222l.295-1.297zm20.969-.36q2.958 0 5.017 1.328t3.086 3.661 1.026 5.267q0 3.075-1.04 5.617-1.042 2.539-3.168 4.073t-5.257 1.534q-2.958 0-5.043-1.328t-3.125-3.641-1.04-5.273q0-3.076 1.06-5.623t3.207-4.081 5.277-1.534m.04 3.029q-2.1 0-3.52 1.157-1.42 1.156-2.102 3.009a11.3 11.3 0 0 0-.683 3.925q0 3.012 1.473 5.159 1.473 2.145 4.352 2.146 2.1 0 3.525-1.144 1.426-1.143 2.096-2.976t.67-3.931q0-3.04-1.453-5.192-1.454-2.154-4.358-2.153M160.656 234h-3.304l.734-20.72h2.749l.381 5.36zm5.129-15.966q.053-.983-.316-1.652t-1.311-.668q-1.436 0-2.228 2.197t-.928 6.369l-.42-7.508h.862q.241-1.992 1.155-2.922.915-.93 2.478-.93 2.215 0 3.016 1.566t.708 3.874l-.6 15.64h-3.002zm10.233 10.084q-.08 1.64.275 2.34.354.7 1.49.7h.881l-.106 3.042h-.923q-1.909 0-3.023-.612t-1.566-1.94q-.451-1.33-.306-3.53l.59-10.084q.053-.957-.303-1.639-.356-.681-1.272-.681-1.473 0-2.259 2.115t-.935 6.188l-.469-7.438h.975q.321-1.908 1.256-2.784.933-.875 2.561-.875 2.188 0 3.002 1.58.815 1.58.681 3.86zm16.128 3.253q3.231 0 6.497-1.44l.821 2.818q-1.651.798-3.597 1.225a18.2 18.2 0 0 1-3.904.426q-4.787 0-7.28-2.583-2.49-2.582-2.49-7.143 0-3.453 1.258-6.111t3.637-4.15q2.38-1.494 5.582-1.493 3.034 0 4.981 1.538t1.947 4.323q0 3.303-3.75 5.18-3.748 1.876-10.626 2.079l-.678-2.754q5.678-.162 8.7-1.318 3.024-1.156 3.024-3.28 0-1.37-1.035-2.094t-2.627-.723q-2.211 0-3.863 1.068t-2.541 3.012-.889 4.524q0 3.202 1.69 5.05 1.69 1.845 5.143 1.846m25.359 3.029q-3.34 0-5.183-1.526t-2.284-4.655q-.134-1.095-.153-2.308-.021-1.212.073-3.103l.573-15.768h3.356l-.546 15.48a69 69 0 0 0-.1 3.186q-.006 1.362.102 2.182.227 1.728 1.297 2.592t2.993.865q1.455 0 2.55-.254 1.095-.253 2.537-.91l.992 2.779q-1.479.68-2.944 1.06-1.466.38-3.263.38m5.055-20.32v3.041h-17.955v-3.041zm20.709 20.32q-3.18 0-4.852-1.487t-2.096-3.82-.035-5.315l1.355-10.498h3.092l-1.09 10.498q-.255 2.574-.103 4.153.153 1.58 1.065 2.497t2.898.917q1.104 0 2.033-.308t2.047-1.041l1.364 2.633a12.6 12.6 0 0 1-2.693 1.312q-1.352.459-2.985.459m-4.68-18.665q-1.18 1.629-4.447 4.29-3.266 2.66-6.244 4.42l-1.837-2.59a79 79 0 0 0 6.62-4.486q3.225-2.43 4.842-4.089h1.108zm.621-7.173a2.48 2.48 0 0 1-1.811-.742 2.44 2.44 0 0 1-.75-1.805q0-1.06.75-1.811t1.811-.75q1.062 0 1.811.75.75.75.75 1.811 0 1.062-.75 1.805a2.48 2.48 0 0 1-1.81.743M254.416 234h-3.304l.734-20.72h2.749l.38 5.36zm5.129-15.966q.053-.983-.316-1.652t-1.311-.668q-1.436 0-2.228 2.197t-.928 6.369l-.42-7.508h.862q.24-1.992 1.155-2.922t2.477-.93q2.216 0 3.017 1.566t.708 3.874l-.6 15.64h-3.003zm10.233 10.084q-.08 1.64.274 2.34.356.7 1.49.7h.882l-.106 3.042h-.923q-1.909 0-3.024-.612t-1.566-1.94q-.45-1.33-.305-3.53l.589-10.084q.055-.957-.302-1.639-.356-.681-1.272-.681-1.473 0-2.26 2.115-.785 2.115-.934 6.188l-.469-7.438h.975q.321-1.908 1.255-2.784t2.562-.875q2.187 0 3.002 1.58t.681 3.86zm16.128 3.253q3.23 0 6.497-1.44l.82 2.818q-1.651.798-3.596 1.225a18.2 18.2 0 0 1-3.904.426q-4.788 0-7.28-2.583-2.49-2.582-2.491-7.143 0-3.453 1.258-6.111 1.26-2.659 3.638-4.15 2.38-1.494 5.582-1.493 3.034 0 4.98 1.538 1.948 1.539 1.948 4.323 0 3.303-3.75 5.18t-10.626 2.079l-.678-2.754q5.678-.162 8.7-1.318 3.024-1.156 3.024-3.28 0-1.37-1.035-2.094t-2.627-.723q-2.211 0-3.864 1.068-1.652 1.068-2.54 3.012-.89 1.944-.889 4.524 0 3.202 1.69 5.05 1.69 1.845 5.143 1.846m23.321-15.375q-1.294 1.536-4.758 4.339t-5.24 3.872l-1.865-2.575q2.375-1.547 5.661-4.076t4.887-4.276h1.381zm1.163-2.716q1.03 2.235 2.614 5.016l.719 1.264q1.295 2.295 1.909 3.929.614 1.632.614 3.527 0 3.558-2.287 5.47-2.286 1.914-6.51 1.914-2.132 0-3.804-.36a15 15 0 0 1-3.381-1.184l.623-2.938q1.683.759 3.11 1.093a13.3 13.3 0 0 0 3.029.334q2.798 0 4.318-1.178 1.52-1.18 1.52-3.362a7.9 7.9 0 0 0-.682-3.213q-.68-1.555-2.042-3.97a100 100 0 0 1-1.549-2.823 14.5 14.5 0 0 1-.934-2.222l.295-1.297zM45.544 283.41q.28-2.57-.389-4.016-.67-1.445-2.687-1.445-1.754 0-3.258 1.184-1.506 1.185-2.503 3.655-.996 2.469-1.116 6.123l-.36-8.826h1.638l-.76 1.48q.187-2.056 1.196-3.566a6.6 6.6 0 0 1 2.59-2.295q1.584-.784 3.452-.784 3.051 0 4.494 2.042 1.444 2.041 1.11 5.564l-.64 6.791q-.185 2.079.23 2.96.414.882 1.759.882h1.02l-.106 3.041h-1.062q-3.073 0-4.326-1.63-1.254-1.63-.882-5.252zm-10.015-8.13.407 5.405L35.364 296h-3.356l.734-20.72zm28.098-.36q4.287 0 6.258 2.02 1.972 2.018 1.826 5.774l-.308 7.464q-.066 1.649.603 2.386.669.736 2.386.75h.582l-.107 2.886h-.8q-3.03 0-4.245-1.372-1.216-1.37-1.077-4.291h-.606l.267-7.653q.094-2.418-1.044-3.677-1.14-1.258-3.839-1.258-1.347 0-2.934.32t-3.04.892l-.94-2.897q1.583-.664 3.436-1.004t3.582-.34m3.616 17.184 1.157-.6q-.35 2.348-2.186 3.622t-4.795 1.274q-3.173 0-4.933-1.513-1.761-1.513-1.761-4.27 0-2.72 1.824-4.488 1.823-1.767 5.093-2.353 3.27-.585 7.454.127l.106 2.766q-3.015-.763-5.577-.508t-4.06 1.394q-1.497 1.14-1.498 2.931 0 1.449.987 2.22.986.772 2.835.772 2.62 0 4.422-1.478 1.8-1.477 1.921-4.605l1.493 4.71zM93.44 296.4q-4.6 0-6.08-2.98t-.88-7.66l1.36-10.48h3.08l-1.08 10.48q-.24 2.6-.12 4.18t1.04 2.5 2.92.92q1.12 0 2.04-.32T97.8 292l1.36 2.64q-1.36.84-2.7 1.3t-3.02.46m-4.64-18.68q-1.2 1.64-4.46 4.3t-6.26 4.42l-1.8-2.6a87 87 0 0 0 6.62-4.48q3.22-2.4 4.82-4.08h1.12zm4.72-6.12a2.3 2.3 0 0 1-1.7-.7 2.3 2.3 0 0 1-.7-1.7q0-1 .7-1.68a2.35 2.35 0 0 1 1.7-.68q1 0 1.68.68t.68 1.68a2.35 2.35 0 0 1-.68 1.7q-.68.7-1.68.7m-8.24 0q-1 0-1.68-.7a2.35 2.35 0 0 1-.68-1.7q0-1 .68-1.68t1.68-.68a2.35 2.35 0 0 1 1.7.68q.7.68.7 1.68t-.7 1.7-1.7.7m19.933 3.39 4.745 17.994h.374q3.953-3.283 5.636-7.717 1.683-4.432 1.123-9.987h3.172q.652 6.637-1.574 11.818-2.227 5.18-7.317 8.902h-3.898l-5.67-20.72zm30.893 18.381q3.231 0 6.497-1.44l.821 2.818q-1.651.798-3.597 1.225a18.2 18.2 0 0 1-3.904.426q-4.787 0-7.28-2.582-2.49-2.583-2.49-7.144 0-3.453 1.258-6.111t3.637-4.15q2.38-1.494 5.582-1.493 3.034 0 4.981 1.538t1.947 4.323q0 3.303-3.75 5.18-3.748 1.876-10.626 2.079l-.678-2.754q5.678-.163 8.7-1.318 3.024-1.155 3.024-3.28 0-1.37-1.035-2.094t-2.627-.723q-2.211 0-3.863 1.068t-2.541 3.012-.888 4.524q0 3.202 1.69 5.05 1.689 1.845 5.142 1.846m23.479-25.291-.302 18.89h-2.806l-.223-18.89zm-1.665 28.32q-1.068 0-1.815-.75t-.747-1.844q0-1.059.747-1.8a2.48 2.48 0 0 1 1.815-.741 2.48 2.48 0 0 1 1.814.741q.747.741.747 1.8 0 1.095-.747 1.844t-1.814.75m198.956-174.826q1.524-1.418 2.38-2.632.857-1.215 1.017-2.366.2-1.3-.511-1.991-.71-.69-2.305-.69h-.62v-2.976h1.583q2.957 0 4.25 1.465 1.29 1.466.813 4.302-.333 1.84-1.493 3.747-1.162 1.907-3.175 3.707l-1.126 1.02-2.047-2.47zm-1.53 164.18q0-1.878.814-3.324.815-1.445 2.525-2.57 1.698-1.125 2.533-2.374a4.83 4.83 0 0 0 .834-2.737q0-1.826-1.166-2.827-1.168-1-3.286-1-1.71 0-3.448.678-1.74.678-3.49 1.906l-1.599-2.443a13.4 13.4 0 0 1 3.927-2.325 12.8 12.8 0 0 1 4.65-.858q3.73 0 5.782 1.74 2.052 1.742 2.052 4.93 0 2.2-1.094 4.002-1.094 1.8-3.351 3.311-1.321.87-1.948 1.898a4.26 4.26 0 0 0-.627 2.26v.948h-3.108zm1.614 10.646q-1.06 0-1.811-.75t-.75-1.837q0-1.062.75-1.805a2.48 2.48 0 0 1 1.811-.743 2.48 2.48 0 0 1 1.811.743q.75.743.75 1.805 0 1.087-.75 1.837t-1.811.75"/></svg>
