<svg xmlns="http://www.w3.org/2000/svg" width="384" height="384" viewBox="0 0 384 384"><path fill="#ddddf8" d="M0 0h384v384H0z"/><path fill="#3634a3" d="M352.053 18.93c-3.575-1.495-7.15-2.21-10.92-2.21-9.36 0-15.666 4.485-15.666 12.415 0 14.885 21.646 10.27 21.646 21.905 0 5.07-4.096 7.8-9.425 7.8-4.03 0-8.125-1.625-11.18-4.355l-1.95 6.175c3.9 2.015 8.06 3.12 12.87 3.12 9.75 0 15.664-4.875 15.664-13.195 0-16.12-21.71-11.31-21.71-21.84 0-4.485 3.77-7.215 9.36-7.215 3.12 0 6.24.91 9.296 2.925zM205.793 63V30.5h-5.525v18.46c0 4.875-2.6 10.205-8.84 10.205-7.15 0-7.15-7.02-7.15-10.335V30.5h-5.525v18.525c0 5.07 0 14.82 11.375 14.82 7.15 0 9.36-3.9 10.335-6.11V63zm-23.14-42.835c0 1.95 1.43 3.38 3.315 3.38s3.315-1.43 3.315-3.38c0-1.885-1.43-3.315-3.315-3.315s-3.315 1.43-3.315 3.315m12.61 0c0 1.95 1.43 3.38 3.314 3.38 1.886 0 3.316-1.43 3.316-3.38 0-1.885-1.43-3.315-3.316-3.315s-3.315 1.43-3.315 3.315M32.2 37.325v4.485h5.915v6.5c0 3.055 0 9.1-5.915 9.75v4.875h28.99V58.06H39.48c3.9-2.275 3.9-7.02 3.9-9.425V41.81h12.935v-4.485H43.38v-4.81c0-3.12 0-11.18 7.8-11.18 2.21 0 4.355.65 6.305 1.885l2.08-4.875c-2.47-1.04-5.33-1.625-8.19-1.625-13.26 0-13.26 11.895-13.26 16.12v4.485zm73.423 23.855c3.314 1.885 7.02 2.6 10.465 2.6 12.09 0 17.94-8.645 17.94-25.935 0-13.65-4.55-21.06-14.82-21.06-8.71 0-14.626 5.785-14.626 15.015 0 8.84 5.396 14.43 13.326 14.43 5.46 0 8.58-2.47 10.465-5.46-.26 10.01-3.25 18.265-12.025 18.265-3.445 0-6.5-1.3-8.84-3.25zm22.23-29.12c0 6.045-3.51 9.425-8.84 9.425-5.266 0-8.71-3.51-8.71-9.88 0-6.435 3.575-10.27 8.774-10.27 5.525 0 8.775 4.81 8.775 10.725M261.47 48.375h5.525c-2.275-10.66 10.985-9.815 10.985-20.865 0-6.63-5.005-10.79-12.74-10.79-4.81 0-9.295 1.625-12.35 3.835l2.405 5.395c3.055-2.99 6.11-4.55 9.75-4.55 4.485 0 7.085 2.275 7.085 6.305 0 8.775-12.545 8.385-10.66 20.67M260.43 59.1c0 2.21 1.69 3.9 3.9 3.9s3.9-1.69 3.9-3.9-1.69-3.9-3.9-3.9-3.9 1.69-3.9 3.9m111.145 181.775c-10.92 0-10.855 6.37-10.855 12.935 0 5.265.13 8.775-4.68 9.425v3.835c4.81.65 4.68 4.225 4.68 9.49 0 6.565-.065 13 10.855 13v-3.705c-5.85-.13-5.85-4.29-5.85-9.555 0-5.98.065-9.62-5.46-11.115 5.525-1.43 5.46-5.135 5.46-11.115 0-5.265 0-9.36 5.85-9.49zm5.85 0v3.705c5.85.13 5.85 4.225 5.85 9.49 0 5.98-.065 9.685 5.46 11.115-5.525 1.495-5.46 5.135-5.46 11.115 0 5.265 0 9.425-5.85 9.555v3.705c10.92 0 10.855-6.435 10.855-13 0-5.265-.13-8.84 4.68-9.49v-3.835c-4.81-.65-4.68-4.16-4.68-9.425 0-6.565.065-12.935-10.855-12.935M133.433 287.09l2.535 2.275 5.59-6.175c3.445 3.575 8.19 5.59 13.91 5.59 12.415 0 20.15-9.62 20.15-23.92 0-6.045-1.365-11.18-3.965-15.015l5.655-6.24-2.535-2.275-5.266 5.785c-3.38-3.445-8.06-5.395-13.715-5.395-12.415 0-20.41 9.165-20.41 23.465 0 6.11 1.43 11.31 4.03 15.275zm22.165-40.43c4.224 0 7.67 1.625 10.075 4.745l-22.166 24.505c-1.364-2.925-2.144-6.565-2.144-10.79 0-11.57 5.655-18.46 14.234-18.46m14.04 18.395c0 11.505-5.46 18.785-14.106 18.785-4.225 0-7.734-1.755-10.14-4.875l22.166-24.57c1.365 2.86 2.08 6.435 2.08 10.66m61.431-24.375a21 21 0 0 0-4.29-.455c-10.53 0-10.53 7.995-10.53 11.7v3.705h-5.85v4.55h5.85V288h5.525v-27.82h9.165v-4.55h-9.165v-3.705c0-3.445 0-7.215 5.394-7.215.976 0 2.21.13 3.38.65zm6.11-.13V288h5.59v-47.45zm61.852 47.385c1.56.325 3.185.585 4.94.585 8.645 0 13.91-5.07 13.91-13.52 0-8.255-5.005-11.96-11.765-12.415 5.46-.975 8.905-4.94 8.905-11.115 0-6.955-4.42-11.245-12.285-11.245-13.65 0-13.975 12.805-13.975 16.9V288h5.525v-30.875c0-4.16.325-12.415 8.32-12.415 4.29 0 7.15 2.405 7.15 7.085 0 4.03-2.015 8.255-8.45 9.165v4.42c7.15 0 11.18 3.445 11.18 9.62 0 5.85-3.575 9.1-8.45 9.1q-2.437 0-4.485-.975zM11.905 282.02c9.62-23.27 9.685-23.335 13.78-34.84-.65 12.09-.65 12.09-.78 40.82h5.72v-45.5h-8.19L9.24 276.625-3.5 242.5h-8.125V288h5.655c-.13-28.73-.13-28.73-.715-40.56 3.835 11.245 3.835 11.31 13.13 34.58zm69.393-23.79c-8.386 0-14.496 5.72-14.496 15.275 0 9.23 6.11 15.275 14.755 15.275 8.84 0 15.406-5.915 15.406-19.5 0-15.47-8.06-24.44-18.46-28.925l-2.6 3.705c8.514 3.705 14.494 10.075 15.34 19.63-1.43-3.185-4.745-5.46-9.945-5.46m.454 4.42c5.395 0 9.49 3.77 9.49 9.36 0 6.435-3.055 12.22-9.425 12.22-5.654 0-9.164-4.225-9.164-10.855 0-6.24 3.25-10.725 9.1-10.725M17.348 213h6.5l6.565-13.65h16.25v13.585h25.935v-4.81h-20.41v-16.25h18.2v-4.745h-18.2v-14.69h19.825v-4.81h-31.72zm15.34-18.46 10.594-22.1h3.38v22.1zm92.695-5.525v5.2c0 3.705-2.535 5.98-5.785 5.98-3.835 0-6.175-3.185-6.175-8.58s2.34-8.58 6.174-8.58c3.25 0 5.785 2.34 5.785 5.98m8.32 20.215c-4.42 2.08-9.36 2.73-12.87 2.73-12.285 0-20.41-7.93-20.41-20.41s8.124-20.67 19.825-20.67c10.854 0 18.525 6.565 18.525 18.525 0 4.875-1.3 10.855-5.33 10.855-3.316 0-3.316-3.965-3.316-5.135V179.59h-4.615v3.12c-1.494-3.055-4.16-3.835-6.695-3.835-6.5 0-10.594 5.135-10.594 12.74 0 7.67 4.094 12.74 10.594 12.74 2.99 0 6.566-1.105 8.126-5.33.715 3.705 3.705 4.875 6.63 4.875 7.02 0 9.684-7.02 9.684-14.69 0-14.69-10.27-22.49-23.01-22.49-14.56 0-24.504 9.88-24.504 24.83 0 14.885 9.945 24.57 25.025 24.57 3.575 0 9.49-.585 14.3-2.535zM252.37 213l14.69-21.385 16.77-24.115h-5.2l-14.69 21.385L247.17 213zm25.48-21.515c-5.98 0-9.88 4.355-9.88 10.985s3.9 10.92 9.88 10.92c6.045 0 9.88-4.29 9.88-10.92s-3.835-10.985-9.88-10.985m-24.635-24.375c-6.045 0-9.945 4.29-9.945 10.92s3.9 10.985 9.945 10.985c5.98 0 9.88-4.355 9.88-10.985s-3.9-10.92-9.88-10.92m24.635 28.535c3.25 0 5.265 2.47 5.265 6.825 0 4.225-2.015 6.825-5.265 6.825-3.185 0-5.2-2.6-5.2-6.825 0-4.355 2.015-6.825 5.2-6.825m-24.635-24.44c3.185 0 5.2 2.6 5.2 6.825 0 4.29-2.015 6.825-5.2 6.825-3.25 0-5.265-2.535-5.265-6.825 0-4.225 2.015-6.825 5.265-6.825m-79.76 19.305c0 14.365 7.865 23.27 21.45 23.27 5.395 0 10.14-1.365 13.78-3.38v-22.035h-14.43v4.745h8.97v13.78c-2.405 1.235-5.005 2.015-8.255 2.015-9.035 0-15.535-6.24-15.535-18.525 0-11.57 5.98-18.72 15.99-18.72 3.9 0 7.865 1.04 11.115 3.445l2.535-5.33c-3.445-1.885-8.385-3.055-13.455-3.055-13.91 0-22.165 8.97-22.165 23.79m165.403-23.79c-12.416 0-20.41 9.165-20.41 23.465 0 14.17 7.735 23.595 20.085 23.595l8.255 10.27h7.864l-10.334-11.18c8.97-2.47 14.365-11.05 14.365-23.01 0-14.17-7.606-23.14-19.825-23.14m-.195 4.94c8.514 0 14.04 6.825 14.04 18.395 0 11.505-5.46 18.785-14.105 18.785-8.58 0-14.17-7.215-14.17-18.72 0-11.57 5.654-18.46 14.235-18.46m-87.43 149.48 2.47 5.33c3.444-3.315 6.955-5.005 10.92-5.005 5.135 0 8.125 2.795 8.125 7.8 0 5.655-3.835 9.945-21.515 28.86v4.81h28.08v-5.005l-21.32.13c15.795-16.51 20.735-21.515 20.735-28.925 0-7.605-5.2-12.415-13.716-12.415a23.7 23.7 0 0 0-13.78 4.42m-131.407-4.55c-8.32 0-14.105 4.485-14.105 11.635 0 5.655 3.51 8.58 7.8 10.66-5.655 1.95-9.035 6.305-9.035 12.09 0 7.93 5.98 12.935 14.82 12.935 9.035 0 15.275-5.395 15.275-13.195 0-6.37-4.225-9.295-9.035-11.375 4.29-2.015 7.8-5.785 7.8-11.245 0-7.02-5.59-11.505-13.52-11.505m8.905 34.385c0 4.875-3.38 8.19-9.165 8.19-5.46 0-9.295-2.99-9.295-8.385 0-4.42 2.86-7.8 8.645-9.49 5.135 2.08 9.815 4.29 9.815 9.685m-17.225-22.62c0-4.355 3.12-7.085 8.125-7.085 4.875 0 8.06 2.6 8.06 7.15 0 4.03-3.12 7.28-7.345 8.84-4.745-1.95-8.84-4.03-8.84-8.905M326.118 317.5V363h5.72v-9.035h3.25c4.744 0 19.695 0 19.695-15.275 0-13.715-12.026-13.715-17.745-13.715h-5.2V317.5zm5.72 12.285h4.68c5.07 0 12.285 0 12.285 9.23 0 10.14-8.45 10.14-12.935 10.14h-4.03zm-300.223 2.34-.975 4.225h4.94a44 44 0 0 0-.195 4.16c0 .78 0 1.56.065 2.275h-3.835l-.975 4.225h5.265c1.69 10.4 7.865 16.77 17.745 16.77 2.73 0 5.915-.455 8.775-1.625l-1.17-5.005c-2.275 1.3-4.68 2.08-7.41 2.08-6.63 0-10.855-4.68-12.35-12.22h14.82l.975-4.225H40.975c-.065-.78-.065-1.625-.065-2.47 0-1.365.065-2.73.195-3.965H58.07l.975-4.225H41.82c1.755-6.695 5.915-10.855 12.285-10.855 2.275 0 4.55.52 6.565 1.495l1.56-4.81c-2.47-.845-5.2-1.235-7.865-1.235-9.945 0-15.99 5.98-18.135 15.405zM191.46 369.11h4.16V317.5h-4.16c-1.885 0-14.105 0-14.105 12.61s12.155 12.61 14.105 12.61zm10.465-51.61v51.61h4.16V317.5zM70.833 92.63v45.305h26.13v-4.81h-20.41v-16.25h18.2v-4.745h-18.2V97.44h19.825v-4.81zM4.918 138l18.655-40.43v-4.94h-28.73v5.135l22.945-.13L-1.387 138zm157.31-15.34v3.445c0 4.42-3.186 8.515-8.58 8.515-3.77 0-6.5-2.08-6.5-6.24 0-5.72 5.2-5.72 7.41-5.72zm-17.096-9.75c3.77-2.925 6.956-3.64 9.75-3.64 7.345 0 7.345 5.005 7.345 7.54v1.755h-7.8c-2.73 0-12.934 0-12.934 10.01 0 6.63 4.55 10.335 11.18 10.335 5.264 0 8.58-2.34 9.684-5.785V138h5.395v-21.71c0-2.925 0-11.44-12.35-11.44-3.77 0-7.994.78-11.96 2.73zm20.67-21.45h-3.64c-.065 2.795-1.04 4.615-2.535 4.615-2.47 0-2.99-5.005-8.125-5.005-4.875 0-6.24 4.485-6.24 8.32h3.64c.066-2.795.976-4.68 2.536-4.68 2.47 0 2.99 5.07 8.125 5.07 4.81 0 6.24-4.55 6.24-8.32m122.73 44.2c3.184 1.82 7.864 3.055 12.414 3.055 7.086 0 13.325-2.925 13.325-9.685 0-4.225-2.534-6.24-5.784-7.475 3.25-1.105 5.72-3.25 5.72-7.085 0-10.725-19.5-5.98-19.5-13.585 0-3.25 3.575-4.68 7.67-4.68 2.014 0 4.94.39 8.514 2.47l2.08-4.81c-2.73-1.235-6.304-2.145-10.27-2.145-7.02 0-13.39 2.86-13.39 9.425 0 3.965 2.34 5.98 5.46 7.15-3.12 1.17-5.59 3.315-5.59 7.15 0 10.985 19.63 6.11 19.63 13.845 0 2.925-2.86 4.875-7.54 4.875-3.315 0-6.89-.91-10.66-3.705zm20.54-20.345c0 2.535-1.95 4.16-5.135 5.005-4.875-1.105-9.62-1.755-9.62-5.655 0-2.535 2.014-4.16 5.005-5.005 4.875 1.105 9.75 1.755 9.75 5.655M241.175 92.63h-24.31l-.65 23.79h5.33c1.82-1.235 4.095-1.56 5.98-1.56 6.045 0 9.555 3.25 9.555 9.23 0 6.305-3.9 9.815-10.205 9.815-3.9 0-7.28-1.365-10.335-3.9l-2.405 5.46c3.25 1.95 8.125 3.25 12.74 3.25 9.88 0 16.055-5.85 16.055-14.82 0-8.32-5.33-13.65-14.105-13.65-2.535 0-5.07.455-6.89 1.43l.39-14.235h18.85zm116.555 40.885v4.42h33.41v-4.42l-13.39-40.95h-6.11zm4.81 0 12.09-36.725 11.57 36.725z"/></svg>
