<svg xmlns="http://www.w3.org/2000/svg" width="384" height="384" viewBox="0 0 384 384"><path fill="#b35" d="M0 0h384v384H0z"/><path fill="#fff" d="M53.782 46.141c-.641-.171-1.283.385-.727 1.112 2.18 2.864 1.112 4.488 2.266 4.959H39.204c-1.753 0-.684 1.41.641 1.368 3.378-.129 7.952-.214 12.911-.214l-.428.77c-3.633 5.899-5.044 6.155-7.267 6.198-2.095.043-2.993-.171-2.993.428 0 .983 2.437 4.788 3.378 4.788.427 0 1.068-.342 2.137-1.07a126.5 126.5 0 0 0 18.169-3.077c1.24 2.18 1.539 3.676 2.992 3.676s2.865-1.71 2.907-2.864c.043-1.838-2.607-4.232-9.148-6.712-.983-.427-1.454.47-.77 1.069 1.54 1.283 2.565 2.522 3.335 3.677-7.524.17-12.398.256-15.69.256 2.224-.94 5.216-2.65 7.14-4.403 1.881-.727 2.095-1.112 2.095-1.54 0-.341-.727-.811-1.668-1.239 5.686.043 11.586.086 16.716.257.897.042 1.154-.813.598-1.497-1.753-2.137-2.992-2.992-3.805-2.992-.897 0-1.667 1.325-2.907 3.12h-10.43c1.41-.341 3.248-1.453 3.248-2.479 0-1.795-2.907-2.565-6.583-3.591m-3.805 19.067c-1.154 0-.342 1.368-1.197 5.685H37.622c-1.752 0-.684 1.454.684 1.411 2.78-.085 6.327-.171 10.218-.214-1.069 4.66-3.121 9.02-8.636 13.51-.556.427-.17 1.239.599.983 7.78-2.736 11.5-7.524 12.953-14.535l7.353.042c0 2.993 0 7.225-.128 12.697-.086 3.12 5.172 1.924 5.001-1.496-.213-5.6-.427-8.678-.513-11.2l10.389.213c.897 0 1.111-.855.598-1.539-1.753-2.137-2.992-3.035-3.805-3.035-.897 0-1.667 1.325-2.907 3.163h-4.317v-2.009c1.197-1.069 1.282-1.453 1.282-1.924 0-.855-3.676-2.009-5.044-2.009-1.026 0-.77.599-.642 3.206l.043 2.736h-7.096l.256-1.71c1.283-1.068 1.454-1.539 1.454-1.923 0-.898-3.933-2.052-5.387-2.052m50.274-18.426c-1.282 0-.513.77.043 7.097l.556 5.6-6.969.043.043-3.078c1.197-1.154 1.411-1.625 1.411-2.052-.043-.513-1.496-1.112-2.907-1.454 1.795-.384 3.206-.726 4.19-1.026 1.795.043 2.094-.17 2.094-.726.043-.642-3.377-3.207-4.36-3.207-.77 0-.727 1.411-11.586 5.472-.726.257-.513 1.24.214 1.112 2.565-.385 4.788-.727 6.712-1.112 0 .898.214 2.65.3 6.114l-8.209.042c-1.795.043-.598 1.54.727 1.454l7.481-.257.128 7.14a293 293 0 0 1-6.882 1.838c-2.523.598-2.736.342-2.736 1.026 0 .812 2.436 4.275 3.334 4.232.342 0 .684-.342 1.753-1.325l4.489-2.138-.043 3.591c-.128 5.344-.385 5.301-6.07 4.746-.856-.086-.984 1.068-.257 1.325 5.6 1.795 2.522 4.446 5.002 4.446 3.035 0 5.386-3.506 5.386-8.55l-.085-7.567c1.752-.94 3.676-2.052 5.856-3.377.77-.47.3-1.24-.427-1.026l-5.472 1.624-.086-6.07 7.14-.043c.513 4.36 1.154 8.379 2.18 11.927-2.01 1.668-4.532 3.591-7.738 5.9-.727.556-.256 1.325.513 1.026a48 48 0 0 0 8.251-3.976c.983 2.522 2.223 4.788 3.847 6.755 4.49 5.3 9.576 4.788 9.534 1.795 0-2.137-1.71-.085-1.24-8.977.043-1.07-1.24-1.07-1.368-.171-.77 5.942-1.283 6.198-3.89 3.676-1.411-1.41-2.565-3.163-3.463-5.43 1.795-1.282 3.634-2.82 5.686-4.573 1.838-.599 1.923-.855 1.923-1.283 0-.855-2.265-3.634-3.12-3.634-.513 0-.727.599-1.753 1.839-1.154 1.368-2.351 2.693-3.89 4.146-.642-2.565-1.155-5.557-1.497-9.02 3.72 0 7.439 0 10.816.086.812.042 1.069-.813.513-1.497-1.624-1.966-2.736-2.736-3.463-2.736-.855 0-1.581 1.197-2.693 2.865l-5.3.042c-.257-2.565-.428-5.429-.6-8.55 1.112-1.496 1.07-1.838 1.07-2.394.042-.94-4.233-1.71-5.088-1.71m6.755 2.223c-.77-.256-1.326.513-.684 1.155 3.633 3.847 2.864 6.455 4.959 6.455.812 0 2.65-1.838 2.607-2.993 0-1.838-2.778-3.334-6.882-4.617m40.099 21.29c-1.026-.641-1.582.214-.855 1.111 1.924 2.394 3.206 4.66 4.147 6.584-7.61.47-12.483.684-16.373.855 2.95-2.693 5.685-5.686 8.507-9.918 1.881-1.069 2.095-1.582 2.095-2.01 0-.512-.898-1.068-1.924-1.581 5.942.043 12.141.085 17.442.256.898.043 1.154-.855.598-1.539-1.795-2.223-3.035-3.163-3.89-3.163-.898 0-1.71 1.368-2.992 3.206h-9.747c-.043-3.163 0-5.9.042-8.507 4.019.043 8.123.085 11.97.17.898.044 1.155-.811.556-1.538-1.753-2.138-2.95-2.993-3.762-2.993-.898 0-1.667 1.326-2.907 3.078h-5.814l.086-3.719c1.453-1.111 1.539-1.453 1.539-1.881 0-.94-4.275-1.966-5.772-1.966-.983 0-.855.598-.812 1.325l.171 6.241h-11.799c-1.753 0-.598 1.497.641 1.454 3.078-.086 6.969-.128 11.158-.171.043 2.779 0 5.557-.085 8.507h-15.732c-1.881 0-.599 1.582.726 1.539a404 404 0 0 1 14.022-.256c-.128.427-.299.94-.598 1.624-1.454 3.506-3.292 7.353-4.66 9.362s-1.966 2.352-3.634 2.394c-3.377.129-3.762.129-3.762.855 0 1.112 3.292 5.387 4.275 5.387.428 0 .984-.342 2.565-1.411 4.575-.812 12.27-2.137 18.426-4.318 1.71 3.933 2.009 6.456 3.719 6.456 1.582 0 3.163-2.223 3.163-4.019 0-2.779-3.505-6.883-10.73-11.414m44.375-2.993h-9.619a67 67 0 0 0 7.267-5.001c4.575.042 9.192.128 13.167.299.898.043 1.24-.855.642-1.582-1.839-2.18-3.078-3.078-3.89-3.078-.941 0-1.753 1.325-3.036 3.164h-5.472c2.223-1.881 4.489-4.062 6.968-6.627 2.266-.555 2.394-.94 2.394-1.453 0-.727-2.607-3.463-3.975-3.463-.556 0-.556.428-1.71 1.838l-1.497 1.796-.085-.086c-1.197-1.496-2.223-2.308-2.864-2.308-.77 0-1.368.983-2.352 2.437h-3.163l.085-2.608c1.753-1.496 1.796-1.924 1.796-2.18 0-.898-3.89-1.924-5.643-1.924-.855 0-.898.47-.855 1.111.085 1.796.085 3.677.128 5.6h-9.79c-1.752 0-.769 1.411.513 1.369 2.565-.129 5.772-.171 9.277-.171q-.064 3.27-.128 6.669h-12.953c-1.881 0-.684 1.539.726 1.496 3.976-.214 9.79-.342 15.989-.342-1.796 1.453-3.72 2.821-5.771 4.19-1.197-.428-2.437-.77-2.907-.77-.813 0-.599.684-.428 2.864a318 318 0 0 1-9.148 5.216c-.94.513-.257 1.41.513 1.111 3.291-1.368 6.198-2.565 8.806-3.762v.77c.043 3.59-.214 9.276-.47 12.996-.257 3.035 5.044 1.624 5.044-1.197v-1.112h12.483l-.042 2.779c-.043 2.052 5.001 1.41 4.916-1.924-.128-4.275-.3-10.602-.171-13.936 1.197-1.026 1.325-1.368 1.325-1.753 0-.812-3.163-2.65-4.018-2.65-.94 0-1.497 1.196-2.052 2.222M179.04 81.41v-6.2h12.568l-.086 6.199zm0-7.353V68.84l.683-.342h11.97l-.085 5.558zm5.044-12.953.128-6.67 7.31.172c-2.18 2.394-4.36 4.531-6.669 6.498zm31.122 19.793c1.069 0 1.325-.428 1.325.427 0 2.48-1.88 5.173-5.258 6.37-1.069.385-.599 2.052.556 1.753 4.446-1.112 7.353-4.874 7.353-9.833 0-3.762-1.967-5.3-4.019-5.3-2.009 0-3.463 1.581-3.463 3.334 0 1.838 1.497 3.249 3.506 3.249M48.01 134.778h-3.847c-1.154-.984-3.078-1.839-3.847-1.839-.984 0-.428 1.24-.385 5.686.043 5.942-.086 16.373-.556 25.137-.17 2.736 4.403 1.283 4.446-1.582v-1.752h4.532l-.043 2.009c-.043 2.137 4.531 1.453 4.318-1.796-.171-3.163-.257-9.49-.257-14.877.128.342.599.385.94.043 2.053-2.223 3.805-4.19 5.473-6.754h.897c.257 7.695 0 18.083-.47 28.728-.17 3.505 4.916 1.795 4.874-1.411l-.129-8.037c3.25-.043 5.985-.043 10.218.085.897.043 1.282-.641.555-1.581-1.41-1.71-2.607-2.736-3.377-2.736-.898 0-1.582 1.24-2.736 3.078h-4.66l-.042-9.149c3.163-.043 5.6-.043 9.79.086.897.042 1.282-.642.555-1.582-1.368-1.71-2.565-2.693-3.334-2.693-.855 0-1.582 1.24-2.736 3.035h-4.233L64 141.36c.94-1.026 1.154-1.453 1.154-1.838 0-.171-.17-.342-.427-.513 3.206 0 6.669.043 10.26.128.898.043 1.24-.727.556-1.582-1.625-1.923-2.822-2.821-3.634-2.821-.898 0-1.667 1.282-2.864 3.12H59.51c.642-1.025 1.24-2.137 1.881-3.42 1.839-1.453 1.967-1.838 1.967-2.308 0-1.026-3.72-2.437-4.874-2.437-.769 0-.769.813-1.24 2.865-.854 3.12-2.564 7.823-4.83 12.483l-.043.128c-.043-4.104 0-7.61.043-8.507.898-.855 1.069-1.197 1.069-1.625 0-.983-2.523-2.779-3.506-2.779-.77 0-1.41 1.24-1.966 2.523m-4.146 24.495.085-11.841h4.575c-.043 3.89-.043 8.08-.129 11.841zm.085-12.996.086-10.345h4.403l.086 10.345zm62.97-11.969H91.958c-1.326-1.068-3.677-2.137-4.746-2.137-1.154 0-.726 1.154-.64 3.762.298 7.909.127 20.05-.642 31.122-.214 3.42 5.301 2.052 5.301-1.154v-1.411h15.946v2.864c0 2.48 5.258 1.625 5.087-2.137-.385-9.576-.47-22.359-.214-28.173 1.154-1.154 1.325-1.752 1.325-2.265 0-.941-3.078-2.993-4.104-2.993-.769 0-1.368.77-2.35 2.522m-15.69 28.943.085-14.45h15.946l-.085 14.45zm.085-15.69.043-12.012h15.946l-.043 12.013zm47.196-17.656c-.812-.214-1.368.513-.812 1.154 3.42 4.019 2.01 7.353 4.403 7.353 1.54 0 3.634-2.223 3.634-3.762 0-2.137-3.078-3.59-7.225-4.745m-14.107 33.089c0 .855 2.565 4.959 3.377 4.959 1.283 0 2.522-5.002 5.087-7.011.385-.3.727-.3 1.026.085 5.002 6.327 8.721 6.968 22.53 6.584 2.821-.086.94-2.48 3.975-4.49.813-.555.77-1.495-.427-1.324-15.433 2.265-20.22 1.581-25.35-2.052l-.343-.214c8.678-4.147 15.946-11.03 20.905-16.844 2.052-1.154 2.223-1.539 2.223-2.223 0-1.197-3.164-3.804-4.36-3.804-.727 0-1.967 1.282-2.95 2.65l-23 .385c-2.009.043-.684 1.582.727 1.496 4.959-.385 13.808-.556 22.102-.641-4.318 6.455-9.192 11.799-16.972 18.254-.385-.043-.727.043-1.197.257-4.745 2.18-7.353 3.035-7.353 3.933m68.015-28.686h-14.962c-1.326-1.068-3.677-2.137-4.746-2.137-1.154 0-.726 1.154-.64 3.762.298 7.909.127 20.05-.642 31.122-.214 3.42 5.301 2.052 5.301-1.154v-1.411h15.946v2.864c0 2.48 5.258 1.625 5.087-2.137-.385-9.576-.47-22.359-.214-28.173 1.154-1.154 1.325-1.752 1.325-2.265 0-.941-3.078-2.993-4.104-2.993-.769 0-1.368.77-2.35 2.522m-15.689 28.942.085-14.45h15.946l-.085 14.45zm.085-15.69.043-12.012h15.946l-.043 12.013zm48.649-10.345c-4.019 7.054-8.208 12.954-17.186 20.734-.726.641 0 1.41.642 1.069 7.224-3.933 12.012-7.738 16.202-12.953.043 5.472-.171 9.661-.47 21.845-.086 3.548 5.3 2.052 5.215-1.454-.17-7.353-.256-15.86-.214-20.562 1.112-1.026 1.54-1.497 1.54-2.01 0-.598-1.54-1.368-3.036-1.923l2.266-3.463c1.753-1.112 1.881-1.582 1.881-2.052 0-.3-.556-.77-1.325-1.197 4.702 0 9.405.085 13.551.214.941.042 1.197-.898.599-1.54-2.138-2.522-3.377-3.248-4.232-3.248-.984 0-1.881 1.453-3.25 3.291h-27.488c-1.838 0-.598 1.54.684 1.497 4.019-.129 9.662-.214 15.647-.257-.214.513-.556 1.154-1.026 2.01m7.438 6.969c-.897-.428-1.41.427-.812.983 7.14 6.626 8.123 12.269 10.175 12.269 1.667 0 3.078-2.137 3.078-3.676 0-2.48-3.762-5.216-12.44-9.576m48.948-10.518h-29.882c-1.838 0-.599 1.582.727 1.496 5.985-.213 15.56-.299 24.752-.17l.085 2.949c.086 8.507-.042 15.818-.128 20.862-.085 4.617.086 5.173-6.54 4.617-.984-.085-.984 1.026-.172 1.283 6.798 2.094 3.036 4.83 5.814 4.83 3.207 0 5.729-3.762 5.643-9.148-.128-9.234-.085-18.554 0-22.487 1.326-1.282 1.582-1.88 1.582-2.351 0-.171-.17-.3-.427-.47l5.087.128c.898.043 1.154-.898.598-1.582-1.923-2.351-3.163-3.249-4.06-3.249-.941 0-1.754 1.411-3.079 3.292m-14.492 7.567h-6.37c-1.24-.898-3.334-1.625-4.104-1.625-1.069 0-.684.813-.684 5.6 0 3.292-.043 7.354-.342 11.885-.214 3.035 4.66 1.796 4.66-1.111V154.1h6.797l-.043 2.009c-.042 1.966 4.917 1.539 4.66-2.095-.342-4.403-.342-7.866-.256-10.217 1.068-1.026 1.197-1.496 1.197-1.924 0-.855-2.608-2.565-3.549-2.565-.684 0-1.197.727-1.966 1.924m-6.84 11.67.043-10.516h6.882l-.128 10.517zm48.778-23.169c-.684 0-1.026 1.197-7.78 4.617-1.027-.513-2.737-1.069-3.677-1.069-.855 0-.642.898-.428 2.138.214 2.052.342 4.19.47 6.712.086 1.838-.17 2.35-1.325 2.736-.684.256-.898.384-.898.769 0 1.112 2.523 3.677 3.42 3.677.257 0 .599-.043 1.368-1.155 2.394-1.624 4.917-3.377 7.866-5.985.599 2.01.599 3.164 1.881 3.121 1.368-.043 2.48-2.095 2.48-3.42-.043-1.966-2.822-4.018-5.515-4.959-.727-.256-1.282.086-.77.898a16 16 0 0 1 1.582 3.292c-2.137.983-4.275 1.752-6.198 2.479-.129-3.334-.171-6.028-.129-7.866 4.617-.641 7.61-1.41 9.747-1.966 1.54 0 1.839-.257 1.839-.77 0-.598-3.121-3.249-3.933-3.249m12.44 21.503h-17.314c-1.069-.77-2.864-1.667-4.36-1.667-.984 0-.599 1.026-.47 5.002.128 4.318-.043 8.806-.343 13.979-.128 2.351 4.703 1.539 4.703-1.325v-.3h18.126v1.71c0 1.454 4.916 1.369 4.702-2.137-.213-4.275-.342-9.832-.128-12.526.47-.513 1.325-1.368 1.325-2.094 0-.77-2.95-2.523-4.104-2.523-.983 0-1.624 1.155-2.137 1.881m-10.816 3.25v3.761h-6.968v-5.856h6.925zm-6.968 11.285v-6.37h6.968l-.128 6.37zm4.702-16.33c-.555.47.043 1.111.556.898 6.67-2.822 10.346-7.61 11.8-11.671 1.495-1.154 1.581-1.496 1.581-1.924-.043-.598-1.112-1.282-2.223-1.795l5.557.085c-.213 4.232-.513 6.07-.983 7.481-.598 1.71-.77 2.052-4.788 1.54-.855-.129-.94.983-.17 1.239 4.06 1.41 2.222 3.634 3.932 3.634 2.01 0 3.335-1.154 4.19-2.993 1.026-2.223 1.453-4.702 1.752-9.148 1.026-1.069 1.197-1.582 1.197-2.138 0-.812-3.035-2.65-3.847-2.65-.641 0-1.154.684-1.753 1.924h-11.927c-1.667 0-.855 1.24.385 1.197a52 52 0 0 1 3.804-.129c-.128.3-.256.727-.384 1.326-1.54 5.343-4.275 9.576-8.679 13.124m6.498 16.33v-6.37h7.011l-.042 6.37zm.043-7.524.043-4.19c.898-.769.898-1.196.898-1.453 0-.085-.043-.128-.129-.213h6.2l-.044 5.856zm24.368 5.002c0-2.223 1.71-3.933 3.847-3.933s3.848 1.71 3.848 3.933c0 2.18-1.71 3.89-3.848 3.89s-3.847-1.71-3.847-3.89m-1.839 0c0 3.164 2.523 5.643 5.686 5.643 3.164 0 5.686-2.48 5.686-5.643a5.656 5.656 0 0 0-5.686-5.686 5.656 5.656 0 0 0-5.686 5.686m-275.823 52c.385 10.43.214 21.204.086 28.429-.086 6.07 1.368 8.379 7.096 8.379 4.446 0 7.353-1.924 7.353-4.104 0-2.052-1.752.598-1.624-6.798 0-1.111-1.154-1.111-1.283-.085-.256 2.437-.64 4.275-1.111 5.173-.556.983-1.753 1.539-3.249 1.539-2.822 0-3.12-1.368-3.12-4.532 0-5.686.127-14.236.47-25.522.897-.77 1.24-1.453 1.24-1.88-.044-.77-3.506-2.138-5.13-2.138-.6 0-.77.342-.728 1.539m-7.566-1.325c-.898 0-.94 1.282-13.766 5.343-.77.214-.641 1.24.257 1.112l6.754-.812v6.754h-9.277c-1.624 0-.726 1.325.47 1.325a269 269 0 0 1 8.764-.128 261 261 0 0 1-.256 7.909h-.983c-1.155-.684-3.378-1.454-4.147-1.454-1.112 0-.47 1.155-.47 5.344 0 3.164-.214 8.892-.47 11.927-.257 2.779 4.66 1.411 4.616-1.068v-2.01h7.995v2.01c0 2.137 4.66 1.539 4.488-1.839-.17-3.633-.299-7.61-.213-10.644.555-.599 1.24-1.326 1.24-2.01-.043-.684-2.78-2.394-3.634-2.394s-1.326 1.026-1.924 2.138h-2.608l.513-7.909 8.38.128c.811.043 1.153-.684.512-1.539-1.24-1.581-2.394-2.565-3.12-2.565-.77 0-1.411 1.069-2.48 2.779h-3.206l.213-3.933c1.24-1.154 1.326-1.582 1.326-1.924 0-.513-1.026-1.026-2.18-1.41 2.479-.385 4.317-.727 5.514-1.07 1.967.086 2.309-.127 2.309-.683 0-.641-3.634-3.377-4.617-3.377m-8.508 33.045.086-10.388h8.037l-.086 10.388zm54.421-33.687c-1.282 0-.513.77.043 7.097l.556 5.6-6.969.043.043-3.078c1.197-1.154 1.411-1.625 1.411-2.052-.043-.513-1.496-1.112-2.907-1.454 1.795-.384 3.206-.726 4.19-1.026 1.795.043 2.094-.17 2.094-.726.043-.642-3.377-3.207-4.36-3.207-.77 0-.727 1.411-11.586 5.472-.726.257-.513 1.24.214 1.112 2.565-.385 4.788-.727 6.712-1.112 0 .898.214 2.65.3 6.114l-8.209.042c-1.795.043-.598 1.54.727 1.454l7.481-.257.128 7.14a293 293 0 0 1-6.882 1.838c-2.523.598-2.736.342-2.736 1.026 0 .812 2.436 4.275 3.334 4.232.342 0 .684-.342 1.753-1.325l4.489-2.138-.043 3.591c-.128 5.344-.385 5.301-6.07 4.746-.856-.086-.984 1.068-.257 1.325 5.6 1.795 2.522 4.446 5.002 4.446 3.035 0 5.386-3.506 5.386-8.55l-.085-7.567c1.752-.94 3.676-2.052 5.856-3.377.77-.47.3-1.24-.427-1.026l-5.472 1.624-.086-6.07 7.14-.043c.513 4.36 1.154 8.379 2.18 11.927-2.01 1.668-4.532 3.591-7.738 5.9-.727.556-.256 1.325.513 1.026a48 48 0 0 0 8.251-3.976c.983 2.522 2.223 4.788 3.847 6.755 4.49 5.3 9.576 4.788 9.534 1.795 0-2.137-1.71-.085-1.24-8.977.043-1.07-1.24-1.07-1.368-.171-.77 5.942-1.283 6.198-3.89 3.676-1.411-1.41-2.565-3.163-3.463-5.43 1.795-1.282 3.634-2.82 5.686-4.573 1.838-.599 1.923-.855 1.923-1.283 0-.855-2.265-3.634-3.12-3.634-.513 0-.727.599-1.753 1.839-1.154 1.368-2.351 2.693-3.89 4.146-.642-2.565-1.155-5.557-1.497-9.02 3.72 0 7.439 0 10.816.086.812.042 1.069-.813.513-1.497-1.624-1.966-2.736-2.736-3.463-2.736-.855 0-1.581 1.197-2.693 2.865l-5.3.042c-.257-2.565-.428-5.429-.6-8.55 1.112-1.496 1.07-1.838 1.07-2.394.042-.94-4.233-1.71-5.088-1.71m6.755 2.223c-.77-.256-1.326.513-.684 1.155 3.633 3.847 2.864 6.455 4.959 6.455.812 0 2.65-1.838 2.607-2.993 0-1.838-2.778-3.334-6.882-4.617m25.051 8.635c.727 3.806.428 9.406.556 14.108.214 9.705 4.275 13.638 12.825 13.638 5.857 0 9.49-1.283 9.49-3.591 0-2.138-1.795-.342-2.223-8.508-.085-1.197-1.368-1.325-1.41-.128-.171 3.249-.47 5.216-1.411 6.284-.599.727-2.052 1.283-5.045 1.283-5.172 0-7.139-2.608-7.695-7.524-.384-3.591-.427-7.524-.384-12.953.94-1.155.983-1.71.983-2.095 0-.727-3.42-2.095-5.087-2.095-.599 0-.813.385-.599 1.582m-3.933 5.687c-.299-1.283-1.069-1.454-1.41-.171-1.71 6.327-4.447 7.139-4.447 9.79 0 1.581 1.112 3.932 2.78 3.932 2.778 0 4.616-7.053 3.077-13.551m10.56-16.16c-.898-.427-1.582.428-1.027 1.154 4.703 5.772 3.549 10.09 5.943 10.09 1.496 0 3.334-2.095 3.334-4.105 0-1.624-1.624-4.104-8.25-7.139m13.893 12.569c-.898-.342-1.539.513-.898 1.197 4.96 5.215 4.062 10.089 6.498 10.089 1.454 0 3.121-2.309 3.121-4.275 0-1.625-2.18-4.49-8.72-7.011m38.902 7.565h-9.619a67 67 0 0 0 7.267-5.001c4.575.042 9.192.128 13.167.299.898.043 1.24-.855.642-1.582-1.839-2.18-3.078-3.078-3.89-3.078-.941 0-1.753 1.325-3.036 3.164h-5.472c2.223-1.881 4.489-4.062 6.968-6.627 2.266-.555 2.394-.94 2.394-1.453 0-.727-2.607-3.463-3.975-3.463-.556 0-.556.428-1.71 1.838l-1.497 1.796-.085-.086c-1.197-1.496-2.223-2.308-2.864-2.308-.77 0-1.368.983-2.352 2.437h-3.163l.085-2.608c1.753-1.496 1.796-1.924 1.796-2.18 0-.898-3.89-1.924-5.643-1.924-.855 0-.898.47-.855 1.111.085 1.796.085 3.677.128 5.6h-9.79c-1.752 0-.769 1.411.513 1.369 2.565-.129 5.772-.171 9.277-.171q-.064 3.27-.128 6.669h-12.953c-1.881 0-.684 1.539.726 1.496 3.976-.214 9.79-.342 15.989-.342-1.796 1.453-3.72 2.821-5.771 4.19-1.197-.428-2.437-.77-2.907-.77-.813 0-.599.684-.428 2.864a318 318 0 0 1-9.148 5.216c-.94.513-.257 1.41.513 1.111 3.291-1.368 6.198-2.565 8.806-3.762v.77c.043 3.59-.214 9.276-.47 12.996-.257 3.035 5.044 1.624 5.044-1.197v-1.112h12.483l-.042 2.779c-.043 2.052 5.001 1.41 4.916-1.924-.128-4.275-.3-10.602-.171-13.936 1.197-1.026 1.325-1.368 1.325-1.753 0-.812-3.163-2.65-4.018-2.65-.94 0-1.497 1.196-2.052 2.222m-12.44 14.108v-6.199h12.568l-.086 6.199zm0-7.353v-5.216l.683-.342h11.97l-.085 5.558zm5.044-12.953.128-6.67 7.31.172c-2.18 2.394-4.36 4.531-6.669 6.498zm31.122 19.793c1.069 0 1.325-.428 1.325.427 0 2.48-1.88 5.173-5.258 6.37-1.069.385-.599 2.052.556 1.753 4.446-1.112 7.353-4.874 7.353-9.833 0-3.762-1.967-5.3-4.019-5.3-2.009 0-3.463 1.581-3.463 3.334 0 1.838 1.497 3.249 3.506 3.249M53.312 298.755c-2.565 3.805-7.567 10.047-16.502 17.656-.641.556-.17 1.325.556.94 8.593-4.66 14.663-9.49 20.648-16.501 5.9 7.994 12.355 15.476 13.937 15.476 1.539 0 .427-2.138 4.19-3.25.64-.213.811-1.025.085-1.325-2.18-.983-8.208-4.403-17.442-11.67 1.581-.556 1.71-.941 1.71-1.368.042-.813-3.378-2.993-4.66-2.993-.898 0-1.026.855-2.522 3.035m4.061 13.51h-8.422c-1.539 0-.684 1.282.428 1.282 4.232-.128 8.464-.128 13.85.043.898.042 1.283-.727.556-1.582-1.624-1.924-2.778-2.779-3.59-2.779-.856 0-1.625 1.283-2.822 3.035m-13.723 7.694c-1.795 0-.77 1.411.513 1.368 4.19-.213 10.217-.17 16.502-.128-1.326 4.446-2.95 9.277-4.66 13.552-1.069 2.693 4.403 3.463 5.515-.599a268 268 0 0 1 3.59-11.2c1.326-1.112 1.71-1.625 1.753-2.095 0-1.026-2.864-3.12-3.676-3.12s-1.41.299-2.736 2.222zm63.27-19.151H91.958c-1.326-1.068-3.677-2.137-4.746-2.137-1.154 0-.726 1.154-.64 3.762.298 7.909.127 20.05-.642 31.122-.214 3.42 5.301 2.052 5.301-1.154v-1.411h15.946v2.864c0 2.48 5.258 1.625 5.087-2.137-.385-9.576-.47-22.359-.214-28.173 1.154-1.154 1.325-1.752 1.325-2.265 0-.941-3.078-2.993-4.104-2.993-.769 0-1.368.77-2.35 2.522m-15.69 28.943.085-14.45h15.946l-.085 14.45zm.085-15.69.043-12.012h15.946l-.043 12.013zm47.196-17.656c-.812-.214-1.368.513-.812 1.154 3.42 4.019 2.01 7.353 4.403 7.353 1.54 0 3.634-2.223 3.634-3.762 0-2.137-3.078-3.59-7.225-4.745m-14.107 33.089c0 .855 2.565 4.959 3.377 4.959 1.283 0 2.522-5.002 5.087-7.011.385-.3.727-.3 1.026.085 5.002 6.327 8.721 6.968 22.53 6.584 2.821-.086.94-2.48 3.975-4.49.813-.555.77-1.495-.427-1.324-15.433 2.265-20.22 1.581-25.35-2.052l-.343-.214c8.678-4.147 15.946-11.03 20.905-16.844 2.052-1.154 2.223-1.539 2.223-2.223 0-1.197-3.164-3.804-4.36-3.804-.727 0-1.967 1.282-2.95 2.65l-23 .385c-2.009.043-.684 1.582.727 1.496 4.959-.385 13.808-.556 22.102-.641-4.318 6.455-9.192 11.799-16.972 18.254-.385-.043-.727.043-1.197.257-4.745 2.18-7.353 3.035-7.353 3.933m68.015-28.686h-14.962c-1.326-1.068-3.677-2.137-4.746-2.137-1.154 0-.726 1.154-.64 3.762.298 7.909.127 20.05-.642 31.122-.214 3.42 5.301 2.052 5.301-1.154v-1.411h15.946v2.864c0 2.48 5.258 1.625 5.087-2.137-.385-9.576-.47-22.359-.214-28.173 1.154-1.154 1.325-1.752 1.325-2.265 0-.941-3.078-2.993-4.104-2.993-.769 0-1.368.77-2.35 2.522m-15.689 28.942.085-14.45h15.946l-.085 14.45zm.085-15.69.043-12.012h15.946l-.043 12.013zm47.965-17.698c-.77 0-.898.813-2.736 2.865-2.565 2.864-5.472 5.728-11.286 10.046-.599.47-.086 1.154.556.898a60.6 60.6 0 0 0 9.704-5.216c2.779 3.677 1.624 5.301 3.591 5.301 1.111 0 2.779-1.197 2.779-2.864 0-1.026-1.368-2.266-5.045-3.335l2.48-1.795h10.003c-3.206 4.018-10.003 10.089-22.23 15.176-.727.3-.256 1.24.428 1.069 14.364-3.42 23-10.645 25.906-13.766 1.924-1.453 2.138-1.795 2.138-2.394 0-.855-2.822-3.078-3.848-3.078-.77 0-1.154.428-2.394 1.796h-8.55l.77-.641c2.607-1.112 2.736-1.625 2.736-1.967 0-.727-4.104-2.095-5.002-2.095m5.002 16.374c-.599 0-.94.47-1.668 1.24-3.462 3.548-8.122 7.01-15.005 11.2-.556.342-.17 1.111.385.94 3.847-1.325 7.225-2.778 10.046-4.232 2.779 3.805 2.095 5.771 3.976 5.771 1.154 0 2.907-1.325 2.907-2.907 0-1.068-1.582-2.48-5.43-3.633 1.582-.898 2.993-1.753 4.147-2.523h9.62c-3.506 5.6-11.714 12.099-28.344 17.015-.812.256-.513 1.325.214 1.197 21.033-3.121 28.471-10.56 31.977-15.22 1.966-1.538 2.394-2.051 2.394-2.692 0-1.112-2.95-3.42-3.89-3.42-.77 0-1.198.513-2.395 1.88h-7.78l.684-.512c2.266-1.026 2.65-1.411 2.65-1.753 0-.641-3.676-2.309-4.488-2.351m25.008-5.985c-.213-.984-.983-.941-1.197.042-1.026 4.66-2.308 5.387-2.308 7.396 0 1.197.727 2.993 1.966 2.993 1.881 0 2.565-5.43 1.54-10.431m-4.403 27.616c-.427.599.214 1.197.727.812 5.985-4.66 8.037-9.234 8.764-14.45 2.094 4.575 1.539 7.781 3.719 7.781 1.325 0 2.266-2.137 2.266-2.907 0-2.18-2.352-4.19-5.814-6.498.128-1.111.17-2.265.213-3.42l.129-4.275.085-.042c1.454-.684 3.035-1.625 4.446-2.78 1.411-.769 2.052-.854 2.052-1.41s-2.18-3.463-2.864-3.463c-.599 0-.77.599-1.368 1.924a45 45 0 0 1-2.309 4.318l.257-9.234c.983-.77 1.368-1.411 1.368-1.838 0-.813-3.548-2.095-5.045-2.095-.769 0-.855.47-.769 1.069.727 6.241.641 12.012.342 17.698-.428 8.593-1.967 12.697-6.199 18.81m30.908-34.5h-16.116c-1.71 0-.642 1.412.555 1.412 2.095-.086 4.532-.129 7.182-.129l-.085.77c-.171 1.325-.556 3.334-.898 4.959h-.513c-1.154-.684-2.864-1.368-3.847-1.368-.599 0-.556.342-.513 2.223.085 6.669 0 11.884-.257 17.1-.128 2.223 4.232 1.496 4.232-1.496v-15.305h9.747l-.042 16.715c0 1.881 4.488.984 4.317-1.795-.299-4.745-.384-10.901-.17-13.894 1.154-.855 1.24-1.069 1.24-1.41 0-.813-2.523-2.651-3.549-2.651-.94 0-1.539 1.026-2.01 1.88h-6.797c1.197-.94 2.138-2.008 2.651-2.735 1.453-1.112 1.71-1.496 1.71-1.838s-.641-.77-1.496-1.197c3.462 0 7.053.085 10.559.17.898.043 1.24-.769.556-1.538-1.625-2.01-2.822-2.907-3.591-2.907-.898 0-1.668 1.282-2.865 3.035m-19.793 35.569c-.727.385-.17 1.24.385 1.069 16.031-4.788 15.903-11.372 15.946-22.316.897-1.325.94-1.71.94-2.052 0-.812-2.992-1.753-4.403-1.753-.94 0-.556.599-.513 4.617.085 8.764.128 13.766-12.355 20.435m16.245-9.063c-.641-.257-1.069.556-.598.983 5.258 4.703 5.472 8.55 7.737 8.55 1.07 0 2.309-1.795 2.309-3.078 0-2.266-2.993-3.933-9.448-6.455m19.92-20.008c-.256-1.026-1.025-.94-1.196.085-.813 4.831-2.223 5.729-2.223 7.78 0 1.412.77 2.993 1.923 2.993 2.138 0 2.78-5.771 1.497-10.858m1.198 28.087c-.129 3.249 4.66 1.966 4.617-1.155-.043-15.261 0-23.256.085-28.343 2.822 4.318 1.753 6.199 3.463 6.199.684 0 1.624-.77 2.095-1.667.128.042.256.042.384.042l3.72-.085c-.642 11.329-3.292 18.169-8.764 24.838-.556.684.214 1.325.812.855 8.08-6.156 11.072-11.457 12.141-25.736 4.061 0 8.465.043 12.91.128.813 0 1.155-.726.471-1.539-1.496-1.838-2.565-2.65-3.292-2.65-.855 0-1.539 1.154-2.65 2.779h-7.353c.128-2.266.213-4.746.299-7.482 1.624-1.282 1.71-1.667 1.71-2.094 0-.77-4.147-1.881-5.6-1.881-.898 0-.684.598-.599 4.146.043 2.65.043 5.045-.043 7.31H309.3c-.171-1.453-1.668-2.479-5.173-4.146-.257-.086-.428-.043-.556.043l.043-3.207c1.111-.94 1.624-1.41 1.582-2.009 0-.77-3.591-1.753-5.045-1.753-.898 0-.812.599-.77 1.283.428 7.823.343 18.468-.512 36.124m19.408-21.59c.171 4.832-.085 10.603-.17 14.536-.129 5.814 1.495 7.951 6.711 7.951 4.318 0 7.267-1.71 7.267-3.804.043-1.967-1.667.427-1.496-6.67.043-1.068-1.154-1.068-1.24-.085-.256 2.351-.64 4.19-1.111 5.045-.556.983-1.796 1.368-3.292 1.368-2.18 0-2.821-1.197-2.821-3.42 0-3.634 0-8.037.17-12.697.941-.727 1.198-1.411 1.198-1.796-.043-.77-2.95-1.88-4.532-1.88-.556 0-.727.299-.684 1.453m3.805-14.491c-.684-.257-1.112.342-.684.94 2.95 4.19 2.01 6.37 4.018 6.37.813 0 2.608-1.582 2.608-2.822 0-1.667-2.137-3.12-5.942-4.488m17.484 31.377c0-2.223 1.71-3.933 3.847-3.933s3.848 1.71 3.848 3.933c0 2.18-1.71 3.89-3.848 3.89s-3.847-1.71-3.847-3.89m-1.839 0c0 3.164 2.523 5.643 5.686 5.643 3.164 0 5.686-2.48 5.686-5.643a5.656 5.656 0 0 0-5.686-5.686 5.656 5.656 0 0 0-5.686 5.686"/></svg>
