<svg xmlns="http://www.w3.org/2000/svg" width="256" height="256" viewBox="0 0 256 256"><path fill="#eff1f5" d="M0 0h256v256H0z"/><path d="m74.003 89.27.832.625c3.378-4.06 5.519-6.894 7.634-9.813V124h1.236c4.144 0 6.585-1.766 6.585-2.241v-3.874h32.773c.89 0 1.504-.216 1.729-.838l-7.95-6.909-4.47 6.206h-5.414v-14.948h13.953c.953 0 1.513-.219 1.731-.84l-7.177-6.437-4.082 5.737h-4.425V85.527h13.953c.953 0 1.514-.221 1.732-.844l-7.178-6.51-4.082 5.737h-4.425V69.736h14.79c.953 0 1.51-.214 1.73-.836l-7.645-6.68-4.393 5.898h-10.23c3.507-3.59 6.966-7.211 9.848-11.081 1.58 0 2.573-.43 2.94-1.526l-11.337-2.5a198 198 0 0 1-3.446 15.107h-7.581l-1.256-.456c2.22-3.858 4.003-7.367 5.362-10.64 1.637-.066 2.335-.439 2.7-1.185l-11.47-3.575c-2.205 11.534-7.002 25.91-12.967 37.007m-17.466 13.718c.806-.321 1.368-.882 1.631-1.684 8.39-3.3 16.926-7.008 20.737-8.81l-.139-.887c-5.35.458-10.862.765-16.347 1.025 6.206-6.788 12.695-15.979 16-22.142 1.241-.008 2.195-.346 2.642-1.153l-9.32-3.54C69.717 72.5 65.5 83.39 60.65 92.716c-2.692.124-5.37.24-8.016.36zm1.594-20.984c3.189 1.925 6.853.391 6.79-3.759-.045-2.897-2.153-4.846-4.907-6.254 5.168-4.905 9.637-10.018 12.888-14.962 1.331.013 2.169-.375 2.531-1.03L64.923 52c-1.421 5.711-3.512 12.295-6.093 19.433-2.324-1.01-4.934-1.713-7.107-2.314l-.723.848c4.768 5.423 6.011 7.9 7.131 12.037m-.607 38.724c.804-.356 1.418-1.094 1.58-1.886 8.86-5.4 16.66-10.246 20.878-13.485l-.288-.891c-10.03 2.67-21.37 5.315-26.173 6.158zm32.766-19.332h9.08v14.948h-9.08zm0-1.54V85.527h9.08v14.329zm0-30.12h9.08V83.91h-9.08z"/><path fill="#404244" d="m154.232 89.302.832.625c3.376-4.057 5.516-6.888 7.63-9.804V124h1.236c4.142 0 6.582-1.764 6.582-2.239v-3.87h32.76c.89 0 1.504-.216 1.728-.837l-7.946-6.903-4.47 6.2h-5.41v-14.934h13.947c.953 0 1.512-.218 1.73-.84l-7.174-6.43-4.08 5.731h-4.423V85.563h13.947c.953 0 1.513-.221 1.731-.843l-7.175-6.505-4.08 5.732h-4.423v-14.16h14.783c.953 0 1.51-.214 1.73-.836l-7.643-6.674-4.39 5.893h-10.226c3.505-3.587 6.963-7.205 9.843-11.07 1.58 0 2.573-.43 2.94-1.526l-11.333-2.497a198 198 0 0 1-3.444 15.093h-7.578l-1.255-.456c2.218-3.854 4-7.36 5.359-10.63 1.636-.066 2.334-.438 2.7-1.184l-11.466-3.571c-2.205 11.522-7 25.886-12.962 36.973m-14.79-15.753c4.71-5.166 10.884-12.455 13.568-17.109 1.327-.096 2.127-.525 2.43-1.164L144.026 52c-.9 5.333-3.43 14.33-6.046 21.354a590 590 0 0 1-5.167-.504l3.462 10.362c.757-.237 1.422-.83 1.824-1.79 4.29-2.166 6.67-3.536 10.307-5.805a218 218 0 0 1-7.621 16.517c-2.657.122-5.302.236-7.913.355l3.491 10.109c.807-.32 1.368-.88 1.631-1.683 8.387-3.296 17.33-7.001 21.14-8.8l-.14-1.092c-5.29.453-10.74.757-16.165 1.016 6.17-6.235 12.458-15.49 15.817-21.499 1.242-.008 2.195-.346 2.642-1.152l-9.315-3.536c-.71 2.348-1.737 5.198-2.98 8.316-3.883-.19-6.464-.353-9.55-.62m-5.684 37.087 4.002 10.095c.803-.355 1.417-1.093 1.578-1.884 8.856-5.396 16.654-10.236 20.87-13.473l-.288-.89c-10.025 2.668-21.36 5.31-26.162 6.152m45.83-9.219v14.934h-9.076v-14.934zm0-15.854v14.315h-9.076V85.563zm-9.076-1.616v-14.16h9.076v14.16z"/><path fill="#72777d" d="m73.848 168.9.828.625c3.362-4.057 5.492-6.486 7.597-9.402V204h1.23c4.124 0 6.553-1.764 6.553-2.239v-3.87h33.015c.886 0 1.497-.216 1.72-.837l-7.91-6.903-4.45 6.2h-5.386v-14.934h13.884c.95 0 1.506-.218 1.724-.84l-7.142-6.43-4.063 5.731h-4.403v-14.315h13.884c.95 0 1.507-.221 1.725-.843l-7.144-6.505-4.062 5.732h-4.403v-14.16h14.717c.95 0 1.504-.214 1.722-.836l-7.608-6.977-4.37 6.196H91.393l-1.57-.456c1.778-3.711 3.237-7.62 4.532-11.274 1.63-.065 2.324-.438 2.688-1.183l-11.093-3.25c-1.399 11.523-6.167 25.806-12.103 36.892m-20.303 22.3 3.984 10.006c.8-.355 1.411-1.093 1.572-1.884 8.817-5.396 16.5-10.558 20.697-13.795l-.287-.89c-9.98 2.832-21.186 5.599-25.966 6.564m45.948-9.783v14.934h-9.437v-14.934zm0-15.854v14.315h-9.437v-14.315zm-35.566-33.08 11.365 3.28c-.302.64-1.099 1.07-2.42 1.167-3.01 4.881-8.945 12.05-13.668 17.11 2.803.257 6.975.707 9.507.805 1.238-3.122 2.26-6.3 2.967-8.65l9.274 3.541c-.445.808-1.394 1.146-2.63 1.154-3.344 6.018-9.283 15.609-15.426 21.853 5.4-.259 10.827-.564 16.093-1.018l.139 1.094c-3.262 1.55-10.303 4.51-17.522 7.41l-1.512.605-1.007.401-1.004.398c-.262.803-.821 1.364-1.624 1.685l-3.534-10.328c2.827-.032 5.291-.064 7.936-.151 2.78-5.443 5.133-11.303 7.267-16.542-3.621 2.272-5.992 3.644-10.262 5.814-.4.96-1.063 1.555-1.816 1.792l-3.446-10.539c1.992.203 3.65.367 5.144.505 2.604-7.036 5.148-15.848 6.18-21.386m35.566 17.303v14.16h-9.437v-14.16zM99.127 132c17.819 5.598 9.068 19.514 2.514 12.762.205-4.303-1.217-9.089-3.129-12.28Z"/><path fill="#a2a9b1" d="m177.621 132-.771.462c2.545 3.234 4.936 8.317 4.859 12.706 6.324 5.852 13.96-7.316-4.088-13.168m-13.882 72c3.393 0 6.517-1.617 6.517-2.08v-4.414h32.662c1.08 0 1.85-.385 2.082-1.232-2.776-2.695-7.404-5.75-7.404-5.75l-4.165 5.39h-6.606v-14.81h13.008c1.08 0 1.85-.385 2.082-1.232-2.622-2.619-7.018-5.596-7.018-5.596l-3.702 5.236h-4.37v-14.117h13.008c1.08 0 1.85-.385 2.082-1.232-2.622-2.619-7.018-5.52-7.018-5.52l-3.702 5.16h-4.37v-14.117h15.244c1.08 0 1.774-.385 2.006-1.233-2.7-2.618-7.25-5.595-7.25-5.595l-4.088 5.236h-22.443l-.848-.308c1.928-3.696 3.548-7.238 4.782-10.396 1.928 0 2.545-.539 2.853-1.386l-10.848-3.234c-.926 5.16-2.34 11.705-4.808 18.173l-8.56-4.851c-.849 2.387-2.314 5.313-3.934 8.317-4.01.308-8.432.462-11.517.616 5.09-4.62 11.286-11.628 14.602-16.942 1.543.077 2.391-.539 2.7-1.309l-9.64-3.927c-1.466 6.006-6.325 17.018-10.104 21.1-.54.385-2.16.77-2.16.77l3.471 8.547q.925-.346 1.62-1.386c3.162-1.078 6.647-2.63 9.27-3.707-3.471 5.852-8.345 12.1-11.815 15.258-.617.539-2.391.924-2.391.924l3.393 8.625c.771-.308 1.388-.925 2.005-1.772 8.638-3.234 16.273-6.622 20.284-8.47l-.154-.924c-7.019.924-14.757 1.694-19.847 2.156 7.25-6.16 16.068-15.401 20.232-21.793 1.003.154 1.697 0 2.237-.308-2.16 5.468-4.782 10.858-7.79 15.324l.849.693a66 66 0 0 0 8.329-9.01V204zm15.669-40.197h-9.152v-14.117h9.152zm0 15.71h-9.152v-14.118h9.152zm0 16.401h-9.152v-14.81h9.152zm-42.122 4.39c.848-.308 1.542-1.078 1.85-2.08a239 239 0 0 0 20.824-12.628l-.231-.924c-10.566 3.003-21.595 5.698-26.377 6.622z"/></svg>
