<svg xmlns="http://www.w3.org/2000/svg" width="384" height="384" viewBox="0 0 384 384"><path fill="#445" d="M0 0h384v384H0z"/><path fill="#ffe8ed" d="M240 360v2h-2v-2zm4 0v2h-2v-2zm6 0v2h-4v-2zm6-2v4h-2v-4zm-10-6v8h-2v-6h-2v6h-2v-6h-2v-2zm6 6v2h-2v-2zm4-14v2h-4v2h4v6h-2v4h-2v-6h2v-2h-4v6h-2v-8h2v-2h-2v-2zm-16 4v2h-2v-2zm6-4v6h-2v-6zm-4 0v4h-2v-4z"/><path fill="#ffdeae" d="M218 362v-8h-2v-2h4v-2h-4v-2h18v2h-4v2h4v2h-2v8zm12-2v-2h-10v2zm0-6h-10v2h10zm-2-4h-6v2h6zm-8-4v-2h10v2z"/><path fill="#fffbfb" d="M212 360v2h-2v-2zm-10-8h-2v-2h2v-2h2v-4h8v2h-2v2h2v6h-2v6h-2v-2h-2v-2h2v-2h-2v-6h-2v12h4v2h-6zm-4 4v2h2v2h-2v2h-2v-2h-2v-2h2v-2zm0-6v2h2v4h-2v-2h-2v2h-2v-4h2v-2zm12 0h-2v2h2zm-14-6v2h2v-2h2v2h2v2h-2v2h-2v-2h-2v2h-2v-6zm12 2h-2v2h2z"/><path fill="#fff4ca" d="M182 360v2h-2v-2zm-4-4v2h2v2h-2v2h-2v-2h-4v-2h4v-2zm10 4v-2h-2v2h-4v-6h2v-2h2v-2h2v2h2v10h-4v-2zm-2-4h-2v2h2zm-10-6v2h2v-2h2v2h2v2h-2v2h-2v-2h-2v2h-2v-2h-2v-2h2v-2zm12 4h-2v2h2zm-2-4h-2v-2h2v-2h-4v4h-2v-4h-4v2h-2v2h-2v-4h2v-2h14v2h2v4h-2v-2h-2zm-8-2v2h-2v-2z"/><path fill="#b1b1b5" d="M164 352v4h4v2h-4v2h4v2h-14v-2h8v-2h-4v-2h4v-2h-4v-2zm-12 8v2h-2v-2zm2-2v2h-2v-2zm2-2v2h-2v-2zm-4 0v2h-2v-2zm4-4v2h-2v2h-2v-2h-2v-2zm8 0v-2h2v-2h-2v2h-2v-2h2v-2h-4v4h-2v-4h-4v2h-2v2h-2v-4h2v-2h14v2h2v6zm-8-4v2h-2v-2z"/><path fill="#a2cfff" d="M128 344h6v2h4v-2h2v2h6v2h-2v8h-4v2h6v2h-6v2h-2v-2h-6v-2h6v-2h-4v-2h-2v2h-2v6h-2zm4 6h-2v4h2zm10 2h-2v2h2zm-4 0h-2v2h2zm0-4h-2v2h2zm-4 0h-2v2h2zm8 0h-2v2h2zm-10-2h-2v2h2z"/><path fill="#d2e7ff" d="M122 346h-8v-2h10v18h-4v-2h2zm-2 2v10h-6v-10zm-2 2h-2v6h2zm-6-6v6h-2v2h-2v4h2v2h-2v4h-2v-18zm0 8v4h-2v-4zm-2-6h-2v4h2z"/><path fill="#ffe4bb" d="M90 344v2h4v-2h2v2h6v2h-6v2h-2v-2h-4v2h-2v2h-2v4h2v2h-2v4h-2v-18zm8 16v2h-2v-2h-6v-2h6v-2h-4v-6h2v4h2v-4h2v4h4v2h-4v2h4v2zm-8-8v4h-2v-4zm-2-6h-2v4h2z"/><path fill="#dcd0c0" d="M64 350v12h-2v-12zm14-4H68v-2h12v18h-4v-2h2zm-4 2v2h2v2h-2v8h-4v-2h2v-2h-2v2h-4v-2h4v-2h2v-2h-6v-2h6v-2zm-8-2v2h-2v-2zm-2-2v2h-2v-2z"/><path fill="#d2d1ff" d="M46 356v2h2v-2zm10 0h-2v2h2zm0-6h-4v2h-2v2h2v-2h2v2h2zm-10 0h-4v4h2v-2h2zm2 2h-2v2h2zm2-2h-2v2h2zm-2-4h-6v2h6zm8 0h-6v2h6zm-6 12h2v2h2v2h-6v-2h-4v-4h-2v6h-2v-18h8v2h2v-2h8v18h-2v-2h-2v-2h-2v-2h-2z"/><path fill="#fff1bc" d="M32 352v-2h-4v2zm-6 2h-4v2h4zm6 0h-4v2h4zm-10-2h4v-2h-4zm4-4v-2h-6v-2h14v2h-6v2h8v2h-2v8h-6v2h8v2H18v-2h8v-2h-6v-8h-2v-2z"/><path fill="#ff8fa5" d="M360 331h2v2h2v-2h2v8h-12v-2h2v-2h-2v-12h4v-2h2v2h6v6h-2v2h-2v-2h-2zh-2v-2h-2v2h2v2h2zm-10 6v2h-2v-2zm8-2v2h2v-2zm-6-8v8h2v2h-4v-8h-2v-2zm12 8h-2v2h2zm0-8v-2h-8v2zm-12-6v4h-2v-4z"/><path fill="#fffcf8" d="M328 337v2h-2v-2zm14-12v4h2v10h-14v-2h2v-8h2v-4zm-4 10h-4v2h4zm4 0h-2v2h2zm-12-8v10h-2v-8h-2v-2zm8 4h-4v2h4zm4 0h-2v2h2zm-2-4h-4v2h4zm-10-6v4h-2v-4zm14 0v2h-12v-2z"/><path fill="#b49977" d="M310 339v-2h12v2zm-4-2v2h-2v-2zm2-10v8h2v2h-4v-8h-2v-2zm4 6v2h-2v-2zm10-2v4h-2v-4zm-8 0v2h-2v-2zm2-2v2h-2v-2zm4 0v2h-2v-2zm-2-8v4h4v2h-4v2h-2v-2h-6v-2h6v-4zm-10 0v4h-2v-4z"/><path fill="#ffdb4b" d="M288 339v-2h12v2zm-4-2v2h-2v-2zm2-10v8h2v2h-4v-8h-2v-2zm4 6v2h-2v-2zm8 0v2h-4v-2zm-6-2v2h-2v-2zm4-10v4h4v8h-2v-6h-4v4h-2v-4h-4v-2h6v-4zm-10 0v4h-2v-4z"/><path fill="#ffe7c3" d="M270 327v8h2v2h-2v2h-2v-10h-2v-2zm6 0v2h2v2h-2v2h2v2h-2v4h-2v-4h-2v-2h2v-2h-2v-2h2v-2zm-14 10v2h-2v-2zm2-10v2h2v2h-2v2h2v2h-2v2h-2v-2h-2v-2h2v-2h-2v-2h2v-2zm0-6v2h2v4h-2v-2h-2v2h-2v-4h2v-2zm12 0v2h2v4h-2v-2h-2v2h-2v-4h2v-2zm-6 0v4h-2v-4z"/><path fill="#eef" d="M248 321v12h4v-2h-2v-2h2v-2h2v2h2v2h-2v2h2v2h-2v4h-2v-4h-4v2h-2v-8h-2v-2h2v-6zm-2 16v2h-2v-2zm-6 0v2h-2v-2zm2-10v2h2v2h-2v2h2v2h-2v2h-2v-2h-2v-2h2v-2h-2v-2h2v-2zm0-6v2h2v4h-2v-2h-2v2h-2v-4h2v-2zm12 0v2h2v4h-2v-2h-2v2h-2v-4h2v-2z"/><path fill="#53e177" d="M224 333h-2v-2h2v-2h4v-2h2v2h4v2h-4v2h4v2h-4v4h-2v-4h-2v2h-2zh4v-2h-4zm-4 0h2v4h2v2h-4zm-2 0v6h-2v-6zm0-12h6v2h4v-2h2v2h4v2h-2v2h-2v-2h-2v2h-2v-2h-2v4h-4v4h-2zm4 2h-2v4h2z"/><path fill="#de9bff" d="M204 333v2h8v2h-8v2h-2v-2h-8v-2h4v-2h-2v-2h4v-2h-6v-2h6v-2h-6v-2h6v-2h2v12h-2v2h2v-2zm6-2v2h-6v-12h2v2h6v2h-6v2h6v2h-6v2z"/><path fill="#ffecef" d="M180 337v2h-2v-2zm6-8v2h4v2h-4v6h-2v-4h-2v2h-2v-2h2v-2h-2v-2h4v-2zm-8-8v8h-2v2h2v2h-2v2h-2v2h2v2h-4v-6h2v-4h-2v-8zm12 14v4h-2v-4zm-12 0v2h-2v-2zm8-12v4h-2v-2h-2v4h-2v-6zm2 4v2h-2v-2zm2-2v2h-2v-2zm-14-2h-2v4h2zm14-2v2h-4v-2z"/><path fill="#ffd5dd" d="M156 337v2h-6v-2zm12 0v2h-4v-2zm-10-2v2h-2v-2zm6 0v2h-4v-2zm2-4v4h-2v-2h-4v2h-2v-2h-4v2h-2v-4zm-16-2v-2h2v-4h6v-2h2v2h6v4h2v2zm10-2h4v-2h-4zm-2-2h-4v2h4z"/><path fill="#e6dcce" d="M138 337v2h-4v-2zm-8 0v2h-2v-2zm16 0v2h-2v-2zm-6-2v2h-2v-2zm-8-2v4h-2v-4zm12 2v2h-2v-2zm-2-4v4h-2v-4zm-6 2v2h-2v-2zm0-12v6h2v2h-4v4h-2v-6h2v-4h-4v10h-2v-12zm4 0v2h6v2h-2v6h-2v-6h-2v2h-2v-6zm0 8v2h-2v-2z"/><path fill="#d4c4b1" d="M114 321v4h6v-4h2v4h2v2h-2v2h2v2h-2v8h-4v-2h2v-4h-2v2h-4v-2h4v-2h2v-4h-6v2h-2v6h-2v-8h2v-4h-4v10h-2v-12zm-6 16v2h-2v-2zm6-2v2h-2v-2zm-4 0v2h-2v-2z"/><path fill="#b9dbff" d="M88 337v2h-4v-2zm10 2v-2h4v2zm-8-4v2h-2v-2zm8 0v2h-4v-2zm-6-2v2h-2v-2zm2-8v8h-2v-8zm6-4v12h-2v-10H88v10h-2v-12z"/><path fill="#ffeaee" d="M76 339v-2h4v2zm-10-2v2h-4v-2zm14-6v2h-2v2h-2v2H66v-2h2v-2h2v2h4v-2h2v-2zm-8-10v8h4v2h-2v2h-2v-2h-4v2h-2v2h-2v-2h-2v-2h4v-2h4v-8zm-4 0v2h-2v2h2v2h-2v2h-2v-8zm10 0v8h-2v-2h-2v-2h2v-2h-2v-2z"/><path fill="#ff8aa0" d="M44 337v2h-4v-2zm14 0v2h-4v-2zm-4-2v2H44v-2zm-10-10v2h4v-2zm10 4H44v2h10zm0-4h-4v2h4zm-6-2v-2h2v2h6v4h2v2h-2v6h-2v-2H44v2h-2v-6h-2v-2h2v-4z"/><path fill="#e6dacc" d="M24 337v2h-2v-2zm8 0v2h-4v-2zm-10-10v6h4v4h-2v-2h-2v2h-2v-8h-2v-2zm6 0v2h6v8h-2v-6h-4v2h-2v-6h-2v-2h4v-4h2v4h6v2zm-6-6v4h-2v-4z"/><path fill="#baa182" d="M352 304v8h2v2h-2v2h-2v-10h-2v-2zm14 8v4h-8v-2h6v-2zm0-12v8h-8v6h-2v-2h-2v-2h2v-4h8v-4h-8v-2zm-12 0v2h-2v-2zm-2-2v2h-2v-2z"/><path fill="#fefeff" d="M344 312v4h-8v-2h6v-2zm-12-2v6h-6v-6zm2-6h-8v-2h8v-2h10v8h-8v6h-2v-8h8v-4h-8zm-4 8h-2v2h2zm2-6v2h-6v-2zm0-8v2h-4v-2z"/><path fill="#bb9d76" d="M310 298v2h2v2h-2v2h4v-6h2v6h6v4h-2v-2h-4v4h-2v-4h-4v2h2v2h-4v4h2v2h-4v-2h-2v-2h2v-2h-2v-2h4v-2h-4v-2h4v-2h-4v-2h4v-2zm12 14v4h-4v-2h2v-2zm-6 2v2h-4v-2zm-4-2v2h-2v-2zm6-2v4h-2v-4zm-4 0v2h-2v-2zm6-2v2h-2v-2zm2-8v2h-2v-2zm-2-2v2h-2v-2z"/><path fill="#ffd79b" d="M286 306v2h2v2h-2v6h-2v-4h-2v-2h2v-4zm4 8v2h-2v-2zm4 0v2h-2v-2zm6 0v2h-2v-2zm0-8v4h-2v-2h-6v2h2v2h-2v2h-2v-2h-2v-2h2v-2h-2v-2h2v-6h4v-2h2v2h4v4h-2v-2h-2v4zm-2 4v4h-4v-2h2v-2zm-4-8h-2v4h2zm-8-4v2h2v6h-2v-4h-4v-2h2v-2z"/><path fill="#fafafa" d="M262 312v4h-2v-4zm16 2v2h-4v-2zm-8-4h-2v4h2zm4 0h-2v2h2zm-4-8v2h6v2h-6v2h8v2h-2v2h-2v2h-4v2h-6v-2h2v-4h-2v2h-2v-2h-2v-2h8v-2h-6v-2h6v-2h-8v-2h8v-2h2v2h8v2z"/><path fill="#ebebec" d="M244 306v2h2v2h-2v6h-2v-6h-2v2h-2v-2h2v-2h2v-2zm4 4v2h-2v-2zm0-4v2h-2v-2zm-2-2v2h-2v-2zm-2-6v2h4v4h-2v-2h-8v-2h4v-2zm6 0h2v6h2v2h-2v10h-2zm6 8v4h-2v-4z"/><path fill="#d5f7de" d="M228 310h2v2h2v-2h2v6h-2v-2h-2v2h-2v-2h-2v2h-2v-2h-2v2h-6v-2h2v-4h-2v-8h2v-4h2v4h2v2h2v-2h10v6h-2v2h-2v-2h-2zh-2v2h2zm-6-2h-2v6h2zm4 0h-2v2h2zm-6-4h-2v4h2zm12 0h-8v2h8zm2-6v2h-12v-2z"/><path fill="#cfbea9" d="M210 298v2h-6v2h8v2h-4v2h4v2h-2v2h-2v2h-4v2h4v2h-14v-2h8v-2h-6v-4h-2v-2h4v-2h-4v-2h8v-2h-6v-2zm2 16v2h-2v-2zm-2-2v2h-2v-2zm-2-4h-4v2h4zm-6 0h-4v2h4zm4-4h-6v2h6z"/><path fill="#ffe88e" d="M190 314v2h-2v-2zm-16 2h-2v-6h4v-2h-4v-4h2v2h2v-2h8v-2h-12v-2h4v-2h2v2h6v-2h2v2h4v4h-2v2h-2v4h2v4h-2v2h-6v-8h4v-2h-6v10h-2v-4h-2zm12-4h-2v2h2zm-2-2h-2v2h2zm6-2v2h-2v-2zm-2-6h-2v2h2z"/><path fill="#ffb546" d="M152 314v2h-2v-2zm6 0v2h-2v-2zm4 0v-2h2v-2h-2v2h-2v-2h-2v2h-2v-8h-2v2h-4v-2h4v-2h-4v-2h4v-2h2v2h6v-2h2v2h4v2h-2v2h2v2h-2v6h2v2h-4v2h-4v-2zm-2-2v2h-2v-2zm-4 0v2h-4v-2zm-2-4v2h-4v-2zm6-2h-2v2h2zm4 0h-2v2h2zm-4-4h-4v2h4zm4 0h-2v2h2z"/><path fill="#60e381" d="M146 304v8h-2v-6h-2v2h-2v2h-2v4h4v2h-8v-2h2v-2h-2v2h-4v2h-2v-8h2v-2h2v-4h-4v-2h4v-2h2v2h6v-2h2v2h4v2h-4v2zm0 10v2h-2v-2zm-2-2v2h-2v-2zm-12-4h-2v4h2zm10 2v2h-2v-2zm-6-2h-2v2h2zm4-6h-6v4h2v2h4zm-2 2v2h-2v-2zm-8 0v2h-2v-2z"/><path fill="#ffddab" d="M120 312v2h-4v2h-2v-2h-4v-2zm4 2v2h-4v-2zm-14 0v2h-4v-2zm14-4v2h-4v-2zm-18 2v-2h4v2zm6-14v2h6v-2h2v2h4v2h-6v2h4v4h-2v2h-10v-2h-4v-2h2v-2h2v-2h-4v-2h4v-2zm0 8h-2v2h2zm4-4h-4v2h2v4h2zm4 4h-2v2h2z"/><path fill="#ffc671" d="M90 308v2h6v-2h2v2h4v2h-4v2h-2v-2h-2v4h-2v-4h-2v2h-2v-2h-4v-2h4v-2zm-2 6v2h-4v-2zm14 0v2h-4v-2zm-18-12v-2h4v-2h2v2h6v-2h2v2h4v2h-4v2h4v2h-2v2h-2v-2h-4v2h-2v-2h-4v2h-2v-2h-2v-2h4v-2zm12 0h-6v2h6z"/><path fill="#58a8ff" d="M78 312v4H68v-2h8v-2zm-4-2v2h-4v-2zm6-2v2h-2v-2zm-6-6h-6v2h6zm2 4h2v2h-2v2h-2v-4h-6v8h-2v-6h-2v2h-2v-2h2v-2h2v-4h-4v-2h4v-2h2v2h6v-2h2v2h4v2h-4z"/><path fill="#58e27b" d="M54 302v2h-2v-2h-6v2h-2v-2h-4v-2h4v-2h2v2h6v-2h2v2h4v2zm-10 12v2h-4v-2zm14 0v2h-4v-2zm-10-2v2h-4v-2zm2 2v-2h4v2zm0-4v2h-2v-2zm2-2v2h-2v-2zm-4 0v2h-2v-2zm6-2v2h-2v-2zm-8 0v2h-2v-2z"/><path fill="#ffddab" d="M20 316h-2v-2h2v-4h-2v-2h2v-6h2v-4h2v2h2v2h2v2h-2v12h-4v-2h-2zm16-4v4h-6v-2h4v-2zm-12-2h-2v4h2zm4-6h6v6h-2v2h-2v2h-2zm4 2h-2v4h2zm-8 0h-2v2h2zm0-4h-2v2h2zm12 0v2h-2v-2zm-6-2v2h-2v-2zm4 0v2h-2v-2zm-2-2v2h-2v-2z"/><path fill="#fff5e7" d="M350 291v2h-2v-2zm10 0v2h-8v-2h2v-4h-2v4h-2v-4h-2v-2h2v-6h2v-4h2v2h2v4h2v2h-2v8zm6 0v2h-2v-2zm-2-4v4h-4v-2h2v-2zm-4 0v2h-2v-2zm6-4v4h-2v-2h-6v-2zm-12 0h-2v2h2zm0-4h-2v2h2zm12-2v4h-2v-2h-4v2h-2v-4z"/><path fill="#7e7bff" d="M328 275h6v2h4v-2h2v2h4v2h-2v2h2v2h-4v2h2v8h-4v-2h2v-4h-10v2h8v2h-8v2h-2v-6h-2v-4h2v2h2v-2h2v-2h-2v2h-2zm10 8h-6v2h6zm-2-4h-2v2h2zm4 0h-2v2h2zm-8-2h-2v2h2z"/><path fill="#fffefd" d="M320 291v2h-4v-2zm-14 0v2h-2v-2zm8-2h-2v2h2zm8 0v2h-2v-2zm-16-14h6v4h10v2h-2v2h2v4h-2v2h-4v2h-2v2h-6v-2h2v-4h-2v4h-2zm14 10h-2v2h2zm-4 0h-4v2h4zm-6-2h-2v2h2zm4-2h-2v2h2zm4 0h-2v2h2zm-8-4h-2v4h2zm10-2v2h-6v-2z"/><path fill="#eae1d4" d="M294 287v-2h2v2h4v2h-4v4h-4v-2h2v-2h-6v4h-2v-4h-2v4h-2v-18h6v12zm-8-4h-2v4h2zm10-8v2h4v2h-4v2h4v2h-2v2h-2v-2h-4v2h-2v-4h4v-2h-4v-2h4v-2zm-10 2h-2v4h2z"/><path fill="#f0eae2" d="M278 289v4h-6v-2h4v-2zm-18-6h6v-2h2v12h-4v-2h2v-2h-4v4h-2zm12 0v4h4v2h-4v2h-2v-8zm-6 2h-4v2h4zm12 0v2h-2v-2zm0-6v4h-6v-2h4v-2zm-16-2v2h4v2h-6v-4zm10-2v2h4v2h-4v2h-4v-2h2v-4zm-4 2v2h-2v-2zm-4-2v2h-2v-2zm14 0v2h-2v-2z"/><path fill="#aaa8ff" d="M256 289v4h-6v-2h4v-2zm-16 2v2h-2v-2zm12-10v6h-2v4h-2v-6h2v-2h-2v-2zm-12-6h6v4h2v2h-2v12h-4v-2h2v-4h-2v4h-2zm10 0v2h6v10h-2v-8h-6v-4zm-6 8h-2v2h2zm0-6h-2v4h2z"/><path fill="#f1d5ff" d="M220 291v2h-2v-10h-2v-2h6v-2h-6v-2h6v-2h2v6h2v-6h2v2h4v2h-4v2h4v-2h2v4h-2v10h-4v-2h2v-4h-10v2h8v2zm10-8h-10v2h10zm4-8v2h-2v-2z"/><path fill="#8c89ff" d="M196 285v2h2v-2zm8 6h-2v-2h2v-2h-2v-10h2v8h2v-8h6v12h-4v4h-2v-4h-2zm6-12h-2v8h2zm-12 2h-2v2h2zm0-4h-2v2h2zm8-2v2h-2v-2zm-10 16h-2v-16h6v16h2v2h-4v-4h-2z"/><path fill="#d7c9b6" d="M184 275v2h-2v16h-2v-4h-2v2h-6v-2h2v-12h-2v-2zm0 2h6v4h-2v2h-2v4h2v2h-2v4h-2zm-4 8h-4v4h2v-2h2zm10-2v4h-2v-4zm-10-2h-4v2h4zm8-2h-2v2h2zm-8-2h-4v2h4z"/><path fill="#8582ff" d="M162 275v4h2v-2h2v2h2v2h-4v2h4v2h-4v2h4v2h-4v4h-2v-4h-4v4h-4v-2h-2v2h-2v-8h2v4h2v-2h8v-2h-2v-2h2v-2h-2v-6zm-6 14h-2v2h2zm2-14v10h-6v-4h-2v-2h2v-2h-2v-2zm-2 6h-2v2h2zm0-4h-2v2h2zm12-2v2h-2v-2z"/><path fill="#bdbdc0" d="M138 291v2h-2v-2h-8v-2h8v-2h-4v-2h2v-2h2v2h2v-2h2v2h2v-2h2v2h2v2h-8v2h8v2zm-8-6v2h-2v-2zm2-2v2h-2v-2zm12-8v4h2v2h-4v2h-2v-2h-2v2h-2v-2h-2v2h-2v-2h-4v-2h6v-2h-4v-2zm-2 2h-6v2h6z"/><path fill="#ffeaee" d="M106 289v-2h8v-2h-6v-2h6v-2h-6v-6h14v6h-6v2h6v2h-6v2h8v2h-4v2h-2v-2h-4v2h4v2h-10v-2h4v-2zm16 2v2h-2v-2zm-6-14h-2v2h2zm-4 0h-2v2h2zm8 0h-2v2h2z"/><path fill="#ffc368" d="M88 291v2h-4v-2zm2-4h-2v-2h2v-2h2v-6h4v-2h2v2h4v6h-2v2h-2v-2h-2v-2h4v-2h-6v14h-2v-8h-2zm6-2h2v2h2v-2h2v8h-6zm-6 4v2h-2v-2zm10 0h-2v2h2zm-14-4v2h2v2h-4v-4zm0-8v4h2v4h-2v-2h-2v-6zm4 2v2h-2v-2zm-2-4v2h-2v-2z"/><path fill="#fefefe" d="M68 291v2h-6v-2zm6-4h2v2h2v-2h2v6h-2v-2h-2v2h-2v-2h-2v2h-2v-2h-2v-4h-2v-2h2v-4h-2v-2h14v6h-2v2h-2v-2h-2zh-2v2h2zm-10-2v2h2v2h-4v-4zm8 0h-2v2h2zm-8-8v4h2v4h-2v-2h-2v-6zm14 4h-8v2h8zm-12-6v2h-2v-2zm14 0v2H68v-2z"/><path fill="#9a9a9f" d="M42 291v2h-2v-2zm4 0v2h-2v-2zm0-4h-2v-2h2v-2h2v-6h4v-2h2v2h4v6h-2v2h-2v-2h-2v-2h4v-2h-6v14h-2v-4h-2zh2v-2h-2zm6-2h2v2h2v-2h2v8h-6zm-10 0v2h2v4h-2v-2h-2v-4zm14 4h-2v2h2zm-14-12v4h2v4h-2v-2h-2v-6zm4 2v2h-2v-2zm-2-4v2h-2v-2z"/><path fill="#a6a6aa" d="M22 291v2h-4v-2zm2-6v2h2v-2h2v2h4v2h-4v4h-4v-2h2v-2h-6v-2h2v-2zm12 6v2h-4v-2zm0-4v2h-2v-2zm-2-2v2h-2v-2zm-6-10v2h8v2h-8v2h8v2h-6v2h-2v-2h-2v2h-2v-2h-6v-2h8v-2h-8v-2h8v-2z"/><path fill="#fcfefc" d="M364 258v2h2v2h-2v8h-4v-2h2v-6h-6v-2h6v-2zm-12 6h2v6h-2zm-2 0v2h-2v-2zm10 0v2h-4v-2zm-8-2v2h-2v-2zm2-2v2h-2v-2zm4-2h-2v-2h2v-4h2v2h6v2h-4v2h-2v-2h-2zm-8 0h-2v-2h2v-4h2v2h4v2h-2v2h-2v-2h-2z"/><path fill="#e8b9ff" d="M344 266v4h-10v-2h8v-2zm-18 2v-2h6v-2h-4v-2h4v-2h-4v-2h2v-2h-2v2h-2v-2h2v-4h2v2h6v2h2v2h-4v2h8v2h-8v2h8v2h-8v2zm14-16v2h4v2h-2v2h-2v-2h-2v-4zm-6 4h-2v2h2z"/><path fill="#fff5f7" d="M316 262v6h2v2h-6v-2h2v-6zm4 4v-6h2v10h-2v-2h-2v-2zm-6-14v2h-4v4h4v2h-4v4h2v2h-2v4h-2v-6h-2v4h-2v-4h2v-2h2v-2h-4v-2h4v-2h-4v-2h4v-2zm4 0v10h-2v-10z"/><path fill="#b4b2ff" d="M298 270h-12v-2h10v-2h-10v2h-2v-2h-2v-2h18v2h-2zm-14-2v2h-2v-2zm8-14h2v-2h6v10h-18v-2h4v-2h-4v-2h4v-2h-4v-2h8v2h-2v2h2v2h-2v2h4zm2 6h4v-2h-4zm4-6h-4v2h4z"/><path fill="#faf8f6" d="M264 268v-4h-2v4h-2v-4h2v-8h-2v-2h6v2h-2v4h2v6h4v-2h-2v-10h2v-2h2v2h6v10h-6v2h6v2h-2v2h-2v-2zm8-8h-2v2h2zm4 0h-2v2h2zm-4-4h-2v2h2zm4 0h-2v2h2z"/><path fill="#ffc772" d="M248 268v2h-4v-2zm6 0v2h-2v-2zm-4-2v2h-2v-2zm-6-12v2h-2v4h2v8h-2v-4h-2v4h-2v-4h2v-8h-2v-2zm10 2h-2v10h-2v-2h-2v2h-2v-8h-2v-2h2v-4h2v4h2v-2h6v14h-2zm-4 2h-2v4h2z"/><path fill="#429dff" d="M218 266v4h-2v-4zm16 2v2h-2v-2zm-6-6v2h6v2h-2v2h-2v2h-8v-2h4v-2h-4v2h-2v-2h2v-2h4v-2zm2 4h-2v2h2zm-12-14v2h4v2h-2v4h2v2h-2v4h-2v-4h-2v-2h2v-4h-2v-4zm16 8v2h-2v-2zm-4-2v4h-2v-2h-2v2h-2v-2h2v-2h-4v-2h6v-2h-4v-2h10v2h-4v2h4v2z"/><path fill="#d1c0ab" d="M210 262v8h-12v-6h2v-2zm-2 2h-4v2h2v2h2zm-6 0h-2v4h4v-2h-2zm-6 0v2h-2v-2zm2-2v2h-2v-2zm2-10v2h6v-2h2v2h4v2h-8v2h8v2h-12v2h-2v-2h-4v-2h8v-2h-8v-2h4v-2z"/><path fill="#7fe99a" d="M176 252v2h4v4h2v2h-2v10h-2v-2h-4v2h-2v-14h2v-4zm12 16v2h-4v-2zm-2-16v4h4v12h-2v-10h-6v-2h2v-4zm-8 10h-4v4h4zm8 0v2h-4v-2zm-8-6h-4v4h4z"/><path fill="#e2fae8" d="M150 254v-2h18v2h-10v2h8v14h-14v-14h4v-2zm14 10h-10v4h10zm0-6h-10v4h10z"/><path fill="#e1efff" d="M132 268v2h-2v-16h4v-2h2v2h8v16h-2v-2zm10-12h-10v4h10zm0 10v-4h-10v4z"/><path fill="#fefeff" d="M118 264v4h4v-2h2v4h-14v-4h2v2h4v-4zm-10 2v4h-2v-4zm8-14v2h8v2h-2v2h2v6h-6v-2h4v-2h-4v2h-2v-2h-4v2h-2v4h-2v-2h-2v-2h2v-4h-2v-2h2v-2h6v-2zm0 10v2h-4v-2zm-2-6h-4v2h4zm6 0h-4v2h4z"/><path fill="#f3daff" d="M100 264h-4v2h-2v-2h-4v4h2v2h-4v-4h-2v4h-2v-4h2v-2h-2v-2h2v-4h-2v-2h2v-2h6v-2h2v2h8v2H88v2h14v2h-6v2h6v8h-4v-2h2zm-6 2v2h-2v-2zm4 0v2h-2v-2zm-4-6h-6v4h2v-2h4z"/><path fill="#97edad" d="M66 252v2h2v2h2v2h2v2h-2v6h2v-6h4v-2h2v2h2v2h-2v2h2v2h-2v4h-2v-4h-2v4h-2v-2h-4v2h-2v-2h2v-2h-2v2h-2v-2h-2v-2h2v-2h-2v-2h2v-2h-2v-4h2v-2zm-2 16v2h-2v-2zm12-6h-2v2h2zm-8 0h-2v2h2zm0-4h-2v2h2zm-2-2h-2v2h2zm12-4v2h2v4h-2v-2h-2v2h-2v-4h2v-2zm-6 2v2h-2v-2zm2-2v2h-2v-2z"/><path fill="#8986ff" d="M42 268v2h-2v-2zm6 0v2h-2v-2zm2 2v-2h4v-6h-2v-2h2v-4h-2v-2h6v2h-2v4h2v2h-2v6h2v2zm-4-16v2h-2v4h2v2h-2v2h2v2h-2v2h-2v-6h-2v-2h2v-4h-2v-2zm4-2v16h-2v-8h-2v-2h2v-6z"/><path fill="#b89f7e" d="M26 266v4h-2v-4zm6 2v2h-4v-2zm4 0v2h-2v-2zm-12-14v2h-2v4h2v2h-2v2h2v2h-2v2h-4v-2h2v-4h-2v-2h2v-4h-2v-2zm10 12v2h-2v-2zm-2-14v2h4v4h-2v-2h-2v4h4v6h-2v-4h-6v4h-2v-12h4v-2zm0 12v2h-2v-2zm-2-8h-2v4h2z"/><path fill="#9bedb0" d="M356 247v-10h10v10zm-4-2v2h-4v-2zm12 0v-2h-2v2zm-4-2h-2v2h2zm-10 0h-2v-2h2v-2h2v-4h2v10h-2v-4h-2zm14-2v-2h-2v2zm-4-2h-2v2h2zm-10-4v2h-2v-2zm2-4v4h-2v-4zm8-2v2h2v-2h2v2h2v2h-2v2h-2v-2h-2v2h-2v-2h-4v-2h4v-2zm-6 0v2h-2v-2zm-4 0v2h-2v-2z"/><path fill="#fff1dc" d="M330 245v2h-4v-2zm-2-10v2h-2v-2zm8 2v2h8v8h-4v-2h2v-4h-6v2h4v2h-4v2h-2v-10h-2v8h-2v-4h-2v2h-2v-2h2v-2h2v-4h8v-2h-6v-2h6v-2h2v2h4v2h-4v2h4v2zm-6-6v4h-2v-4zm2-2v2h-2v-2zm-4 0v2h-2v-2z"/><path fill="#a4a4a9" d="M314 243v-2h-2v-10h2v-2h2v2h6v10h-6v2h6v2h-2v2h-2v-2h-8v2h-2v-6h-2v6h-2v-18h2v6h2v-6h2v8h-4v2h4v4zm2-6h-2v2h2zm4 0h-2v2h2zm-4-4h-2v2h2zm4 0h-2v2h2z"/><path fill="#a1a1a5" d="M286 247v-6h-2v6h-2v-18h2v6h2v-6h2v8h-4v2h4v6h2v2zm8-2v2h-2v-2zm6-2v4h-2v-4zm-6-12v2h-2v2h8v6h-2v-4h-6v8h-2v-14zm2 12v2h-2v-2zm2-2v2h-2v-2zm-2-2v2h-2v-2zm4-10v2h-6v-2z"/><path fill="#8d8aff" d="M278 243v4h-14v-2h12v-2zm-14-8v2h10v-2h2v2h2v2h-2v2h-2v2h-10v2h-2v-6h-2v-2h2v-2zm10 4h-4v2h4zm-6 0h-4v2h4zm-6-6v2h-2v-2zm12 0v2h-10v-2zm4 0v2h-2v-2zm-14-2v2h-2v-2zm12 0v2h-2v-2zm-8-2v2h-4v-2zm6 0v2h-4v-2z"/><path fill="#2fdb5b" d="M248 245v2h-6v-2zm-8 0v2h-2v-2zm16 0v2h-4v-2zm-14-2v2h-2v-2zm10 0v2h-4v-2zm2-14v4h-2v-2h-4v4h2v-2h2v2h4v6h-2v2h-2v-2h-4v2h-2v-2h-2v2h-2v-2h-2v-2h-2v-4h4v-2h-2v-2h8v-2zm-10 8h-4v2h4zm10 0h-8v2h8zm-8-4h-2v2h2z"/><path fill="#eeedff" d="M218 245v2h-2v-2zm12-4v2h2v2h-2v2h-4v-2h2v-4zm4 4v2h-2v-2zm-10 0v2h-2v-2zm-4-4v4h-2v-4zm6 0v4h-2v-2h-2v-2zm8 0v2h-2v-2zm-12-12v4h2v-4h10v6h-2v2h2v2h-2v2h-2v-2h-2v2h-2v-2h-2v-2h2v-2h-4v6h-2v-12zm-4 4v6h-2v-6zm12 2h-2v2h2zm2-4h-6v2h6z"/><path fill="#ffcf87" d="M198 245v2h-4v-2zm8 0v2h-4v-2zm6 0v2h-2v-2zm-12-6v4h2v2h-4v-6zm8 0v4h2v2h-4v-6zm-12 0v4h-2v-4zm8 0v4h-2v-4zm6 0h2v4h-2zm-12-4v2h-4v-2zm8 0v2h-4v-2zm6 0v2h-2v-2zm-12-6v4h2v2h-4v-6zm8 0v4h2v2h-4v-6zm-12 0v4h-2v-4zm8 0v4h-2v-4zm6 0h2v4h-2z"/><path fill="#ffeda7" d="M176 245v2h-4v-2zm8 0v2h-4v-2zm6 0v2h-2v-2zm-12-10v8h2v2h-4v-8h-4v-2zm12 0v2h-4v6h2v2h-4v-10zm-16 4v4h-2v-4zm8-2v6h-2v-6zm6 2h2v4h-2zm-8-6v2h-2v-2zm4 0v2h-2v-2zm-2-4v4h-2v-4zm-6 2v2h-2v-2zm10 0v2h-2v-2zm-8-2v2h-2v-2zm10 0v2h-2v-2z"/><path fill="#8feba6" d="M152 245v2h-2v-2zm2-2v2h-2v-2zm2 0h2v4h-2zm4 0h2v4h-2zm8 2v2h-2v-2zm-2-2v2h-2v-2zm-2-6h-10v2h10zm-6-4v2h8v6h-14v-6h4v-6h2v2h10v2z"/><path fill="#67b0ff" d="M134 245v2h-6v-2zm12 0v2h-4v-2zm-10-2v2h-2v-2zm6 0v2h-2v-2zm-4-6v4h2v2h-4v-6zm-6 4v2h-2v-2zm2-2v2h-2v-2zm10 0v2h-4v-2zm-12-2v2h-4v-2zm2-2v2h-2v-2zm12 0v2h-6v-2zm-10-2v2h-2v-2zm4 0v2h-2v-2zm-2-4v4h-2v-4zm-6 2v2h-2v-2zm10 0v2h-2v-2zm-8-2v2h-2v-2zm10 0v2h-2v-2z"/><path fill="#d9cbba" d="M112 229v4h4v10h2v-14h2v14h2v-10h2v14h-2v-2h-6v2h-2v-4h-2v-2h-2v4h-2v-4h2v-12zm-4 16v2h-2v-2zm6-10h-2v6h2zm-6-2v6h-2v-6z"/><path fill="#ecf5ff" d="M88 245v2h-4v-2zm14 0v2h-4v-2zm-12-2v2h-2v-2zm8 0v2h-2v-2zm-6-2v2h-2v-2zm4 0v2h-2v-2zm-2-12v12h-2v-12zm-6 2v8h-2v-8zm10 6v2h-2v-2zm2-2v2h-2v-2zm2-4v4h-2v-4z"/><path fill="#c1c0ff" d="M64 243v4h-2v-4zm6 2v2h-4v-2zm10 0v2h-4v-2zm-8-2v2h-2v-2zm4 0v2h-2v-2zm-4-14v2h6v10h2v2h-4v-2h-2v2h-2v-2h-2v2h-6v-4h2v2h2v-10h2v-2zm2 10h-2v2h2zm-2-2h-2v2h2zm4 0h-2v2h2zm-10-2v2h-4v-2zm10-2h-2v2h2zm-4 0h-2v2h2zm-6-2v2h-2v-2zm-2-2v2h-2v-2z"/><path fill="#8ec4ff" d="M50 245v2h-4v-2zm8 0v2h-2v-2zm-4-10v2h2v2h-4v2h6v2h-2v2h-2v-2h-2v2h-2v-2h-4v-2h4v-2h-2v-2h2v-2zm-4-6v2h4v-2h2v2h2v2h-2v2h-2v-2h-4v2h-2v-2h-2v-2h2v-2zm-6 2v2h-2v-2zm-2-2v2h-2v-2zm-2 8v-2h4v2zm2 6v4h-2v-4zm2-4v4h-2v-4z"/><path fill="#ac8e69" d="M30 235v2h-2v4h4v-2h-2v-2h6v2h-2v2h2v2h-2v2h-2v-2h-4v2h-2v-2h-6v4h-2v-4h2v-4h2v2h4v-6zm6 10v2h-2v-2zm-10 0v2h-4v-2zm-4-10v2h-4v-2zm8-6v2h6v4h-2v-2h-2v2h-2v-2h-4v2h-2v-4h4v-2zm-8 2v2h-2v-2zm-2-2v2h-2v-2z"/><path fill="#a0a0a5" d="M366 206v18h-4v-2h2v-6h-2v-2h2v-8zm-16 14v4h-2v-4zm4 2v2h-2v-2zm6-2v2h-2v-2zm-4 0v2h-2v-2zm4-14v6h2v2h-2v2h-2v4h-2v-2h-2v-12zm-8 10v4h-2v-4zm6-8h-2v8h2zm-6 4v2h-4v-2zm0-4v2h-2v-2zm-2-2v2h-2v-2z"/><path fill="#ceb89c" d="M328 220v4h-2v-4zm12-2h-6v2h6zm-10-2v4h-2v-4zm-2-4v2h-2v-2zm10 2v2h4v8h-2v-2h-6v2h-2v-8h4v-2h-6v-2h6v-2h-4v-2h6v4h6v2zm-8-6v2h-2v-2zm-2-2v2h-2v-2zm14 0v2h-4v-2z"/><path fill="#99edaf" d="M306 220v4h-2v-4zm4 2v2h-2v-2zm6 0v2h-4v-2zm6 0v2h-4v-2zm0-14v4h-2v-2h-2v4h4v4h-2v-2h-8v6h-2v-14h6v-2h2v2zm-4 12v2h-2v-2zm-10-4v4h-2v-4zm12 2v2h-2v-2zm-4 0v2h-2v-2zm0-8h-4v4h4zm-8 2v2h-4v-2zm0-4v2h-2v-2zm-2-2v2h-2v-2z"/><path fill="#ffd83b" d="M290 222v2h-2v-16h4v-2h2v2h6v16h-2v-2zm8-12h-8v4h8zm0 10v-4h-8v4zm-12-12v2h-2v-2zm-2-2v2h-2v-2zm-2 8v-2h4v2zm2 6v4h-2v-4zm2-4v4h-2v-4z"/><path fill="#a5efb8" d="M262 220v4h-2v-4zm6 2v2h-4v-2zm10 0v2h-2v-2zm-6-2v2h-4v-2zm4 0v2h-2v-2zm-12-4v4h-2v-4zm10 2v2h-2v-2zm-2-2v2h-2v-2zm4-2v4h-2v-4zm-6-2v4h-2v-4zm-6 0v2h-4v-2zm12-2h-10v2h-2v-2h2v-2h12v6h-2zm-12-2v2h-2v-2zm-2-2v2h-2v-2z"/><path fill="#84e99e" d="M248 206v6h2v2h-2v10h-4v-2h2v-16zm-8 14v2h-2v-2zm16 0v2h-2v-2zm-14-4v4h-2v-4zm12 2v2h-2v-2zm-2-4v4h-2v-4zm-8-4v6h-2v-4h-4v-2zm10 2v2h-2v-2zm2-2v2h-2v-2z"/><path fill="#4ea3ff" d="M234 222v2h-2v-2zm-4 0v2h-4v-2zm-10-6h-2v2h-2v-4h6v-2h-6v-4h2v2h14v12h-2v-4h-2v-2h-6v2h6v2h-2v2h-2v2h-8v-2h4v-2h-2v-2h2zm4 4h-2v2h2zm6-8h-6v2h4v2h2zm4-6v2h-16v-2z"/><path fill="#f4f0ea" d="M212 220v4h-10v-2h8v-2zm-18 0v-2h6v-4h-4v-2h4v-2h-6v-2h10v2h-2v2h8v2h-8v2h10v2h-10v4h-2v-2zm16-14v2h-6v-2z"/><path fill="#ffe4e9" d="M182 220v4h-2v-4h-8v-2h8v-2h2v2h8v2zm-6-14v2h4v2h-4v2h4v2h-4v2h-4v-2h2v-8zm14 6v4h-6v-2h4v-2zm-6-6v2h4v2h-4v4h-2v-8zm6 0v2h-2v-2z"/><path fill="#5de27f" d="M152 206h2v6h4v2h-4v6h4v2h-4v2h-4v-2h2zm10 18v-2h4v-4h2v6zm0-18v6h4v2h-4v8h-2v-16zm6 4v2h-2v-2z"/><path fill="#e2d6c6" d="M138 206v2h-6v2h4v2h4v-6h2v4h4v2h-4v2h4v2h-4v4h2v2h2v2h-4v-2h-2v2h-4v-2h4v-4h-4v-2h-2v4h-2v-2h-2v-2h4v-4h-2v2h-2v-6h-2v-2zm-8 16v2h-2v-2zm2-2v2h-2v-2zm14-2v2h-2v-2zm-6-4h-4v2h4zm-10 0v2h-2v-2zm16-8v2h-2v-2z"/><path fill="#ff9db0" d="M116 214v2h2v-2h2v2h4v2h-4v6h-2v-2h-2v2h-2v-2h-2v-2h2v-2h-2v-2h2v-2zm8 6v4h-2v-4zm-16-4v-4h-2v-2h2v-4h2v4h2v2h-2v2h2v2h-2v6h2v2h-4v-4h-2v-4zm10 2h-2v2h2zm-4-4h-2v-2h2v-2h-2v-2h4v-2h2v2h6v2h-2v2h-2v-2h-2v4h-2v-2h-2zm10-2v2h-2v-2z"/><path fill="#ff8fa4" d="M88 206v4h2v2h-2v2h2v2h-2v8h-2v-4h-2v-4h2v-4h-2v-2h2v-4zm4 18v-6h-2v-2h2v-2h-2v-2h2v-2h-2v-2h2v-2h2v2h2v-2h2v2h4v2h-4v2h4v6h-2v6zm4-4h-2v2h2zm2-2h-2v2h2zm-2-4h-2v2h2zm4 0h-2v2h2zm-4-4h-2v2h2z"/><path fill="#bab9ff" d="M68 214v2h6v-2h2v2h4v2h-4v6h-2v-4h-2v4h-2v-2h-2v2h-2v-4h-2v4h-2v-4h2v-2h-2v-2h4v-2zm12 6v4h-2v-4zm-8-2h-4v2h4zm-6-6v2h-4v-2zm4-4v-2h2v2h8v2h-4v2h-2v-2h-2v4h-2v-4h-2v2h-2v-2h-4v-2zm10 4v2h-4v-2z"/><path fill="#a1a1a6" d="M44 206v4h2v2h-2v2h2v2h-2v4h2v2h-2v2h-2v-4h-2v-4h2v-4h-2v-2h2v-4zm14 12v4h-2v-4zm-10-2v4h-2v-4zm8 2h-4v2h2v2h-2v2h-2v-2h-2v-2h2v-4h4v-2h-4v2h-2v-2h-2v-2h4v-2h-4v-2h4v-2h2v2h6v2h-6v2h6v2h-2z"/><path fill="#c7e2ff" d="M30 216v2h-2v2h2v2h-2v2h-2v-2h-2v2h-6v-2h6v-2h2v-2h-2v2h-6v-2h6v-2zm6 6v2h-6v-2zm0-4v2h-6v-2zm-8-12v2h8v4h-2v2h-2v2h-2v-2h-6v2h-2v-2h-2v-2h-2v-4h8v-2zm6 4h-8v2h8zm-10 0h-4v2h4z"/><path fill="#f6f3ef" d="M360 189h-6v4h2v-2h2v6h-2v2h-2v2h-2v-8h-2v4h-2v-4h2v-2h2v-2h-4v-2h4v-4h2v4h12v2h-4v2h2v2h-2v8h-4v-2h2zm6 4v6h-2v-6zm-10 2h-2v2h2zm8-12v2h-8v-2z"/><path fill="#96ecac" d="M342 197v-4h-6v4zm-8-8h-2v2h2zm8-2h-6v4h6zm-6 12v2h-2v-8h-2v8h-2v-8h-2v4h-2v-4h2v-2h2v-2h-4v-2h4v-4h2v4h2v-2h2v-2h2v2h6v16h-2v-2z"/><path fill="#ff7892" d="M304 197v-4h2v-4h-2v-2h2v-4h2v4h8v-2h-6v-2h12v2h-4v2h4v14h-4v-2h2v-2h-2v-2h-2v2h-2v-2h2v-6h-4v8h2v2h-2v2h-2v-8h-2v8h-2v-4zm16-8h-2v6h2zm-10 0h-2v2h2z"/><path fill="#ffe16b" d="M292 197h-2v-2h2v-2h2v-4h-6v2h2v2h-2v4h2v2h-2v2h-2v-8h-2v4h-2v-4h2v-2h2v-2h-4v-2h4v-4h2v4h6v-4h2v4h4v2h-4v2h2v2h-2v8h-2v-6h-2zm8-4v4h-2v-4z"/><path fill="#e7ddcf" d="M266 183v4h2v2h-2v2h2v2h-2v6h2v2h-4v-8h-2v4h-2v-4h2v-2h2v-2h-4v-2h4v-4zm6 16v2h-2v-2zm6-2v4h-2v-4zm-8-2v4h-2v-4zm4 2v2h-2v-2zm2-2v2h-2v-2zm-4-10v4h6v6h-2v-4h-4v2h2v2h-4v-10zm6-2v2h-6v-2z"/><path fill="#f9f9ff" d="M250 189v2h4v2h-2v8h-2v-8h-2v2h-2v-2h2v-4zm-10 8h-2v-4h2v-2h2v-2h-4v-2h4v-4h2v4h2v2h-2v2h2v2h-2v2h2v2h-2v4h-2v-8h-2zm16-4v4h-2v-4zm0-8v2h-4v2h-2v-2h-4v-2z"/><path fill="#34dc5f" d="M228 197h-4v-2h4v-2h2v-4h-8v2h2v2h-2v8h-2v-8h-2v4h-2v-4h2v-2h2v-2h-4v-2h4v-4h2v4h8v-4h2v4h2v2h-2v2h2v2h-2v8h-4v-2h2v-4h-2z"/><path fill="#ffd941" d="M212 195v4h-2v-4zm-16 0v4h-2v-4zm14-4v4h-2v-4zm-12 2v2h-2v-2zm10-4v2h-2v-2zm-4-2v8h4v2h-4v4h-2v-4h-4v-2h4v-6h-2v4h-2v-4h2v-2h-6v-2h8v-2h2v2h8v2z"/><path fill="#ffd088" d="M182 183v4h8v2h-6v2h-2v10h-2v-10h-2v4h-2v-4h2v-2h-6v-2h8v-4zm8 14v2h-2v-2zm-16 0v2h-2v-2zm14-2v2h-2v-2zm-12 0v2h-2v-2zm10-4v4h-2v-4z"/><path fill="#bca385" d="M162 195v-2h2v8h-10v-8h2v2zm0 4v-2h-6v2zm-4-16v2h2v-2h2v2h6v2h-2v6h-2v-2h-2v2h-2v-2h-2v2h-2v-2h-2v2h-2v-6h-2v-2h6v-2zm2 4h-2v2h2zm-4 0h-2v2h2zm8 0h-2v2h2z"/><path fill="#5be27e" d="M132 199v2h-2v-2zm12 0v2h-2v-2zm-10 2v-2h2v-2h-2v2h-2v-2h-2v2h-2v-2h2v-4h-2v-2h4v-2h-2v-6h14v6h-2v2h4v2h-2v4h-2v2h-4v2zm12-4v2h-2v-2zm-4-4h-4v4h2v-2h2zm-6 0h-4v2h4zm4-4h-6v2h6zm2-4h-10v2h10z"/><path fill="#cac8ff" d="M124 201h-10v-8h-2v6h-6v-14h6v2h12v2h-2v2h2zm-14-8h-2v4h2zm12 2v-2h-6v2zm-6-6h-4v2h4zm-6-2h-2v4h2zm10 2h-2v2h2zm2-6v2h-6v-2zm-6 14v2h6v-2z"/><path fill="#7dbbff" d="M94 193h-6v2h-2v2h6v2h-6v2h-2v-8h4v-2h10v-2H88v2h-2v-8h14v8h2v8h-4v-2h2v-4h-4v8h-2zm4-8H88v2h10z"/><path fill="#419cff" d="M64 199v2h-2v-2zm4 0v2h-2v-2zm8-6h-4v2h-2v-2h2v-4h-4v-2h2v-4h2v4h2v-2h6v2h-2v4h2v2h-2v6h2v2h-8v-2h4zm-8-8v2h-2v4h4v2h-4v2h4v4h-2v-2h-2v2h-2v-6h-2v-2h2v-4h-2v-2zm6 10v2h-2v-2zm2-8h-2v4h2z"/><path fill="#49df70" d="M50 199v2h-2v-2zm-4 0v2h-2v-2zm-4-2v4h-2v-4zm16 2v2h-2v-2zm-6-2v2h-2v-2zm-8-14v2h6v-2h2v2h6v2h-2v6h-2v-6h-2v2h-2v-2h-6v4h4v8h-2v-6h-2v4h-2v-10h-2v-2h2v-2zm12 14v2h-2v-2zm-2-4v4h-2v-4zm-2-2v2h-2v-2zm-2-2v2h-2v-2z"/><path fill="#d5c7b4" d="M24 199v2h-4v-2zm4 0v2h-2v-2zm8 0v2h-2v-2zm-6-2v2h-2v-2zm-10-2h-2v-2h2v-6h-2v-2h8v2h-4v4h4v8h-2v-6h-4zm14 2v2h-2v-2zm-2-4v4h-2v-4zm-2-10v2h6v2h-2v6h-2v-6h-2v2h-2v-6zm0 8v2h-2v-2zm-2-2v2h-2v-2z"/><path fill="#dcccb8" d="M352 160v4h2v2h-2v2h2v2h-2v2h2v2h-2v4h-4v-2h2v-2h-2v-2h2v-6h-2v-2h2v-4zm14 16v2h-2v-2zm-10 0v2h-2v-2zm2-2h-2v-2h6v2h-2v4h-2zm6 0v2h-2v-2zm2-2v2h-2v-2zm-10-2v2h-2v-2zm8 0v2h-2v-2zm2-2v2h-2v-2zm-6-8v2h6v4h-2v2h-2v2h-2v-2h-2v2h-2v-2h-2v-2h2v-2h-2v-2h4v-2zm4 4h-6v2h6z"/><path fill="#cfba9f" d="M330 160v4h4v-4h8v4h2v6h-6v-2h-2v2h-4v2h-2v6h-4v-2h2v-2h-2v-2h2v-6h-2v-2h2v-4zm14 16v2h-2v-2zm-10 0v2h-2v-2zm0 0v-2h-2v-2h4v-2h2v2h6v2h-2v2h-2v-2h-2v4h-2v-2zm-2-10h-2v4h2zm4 0h-2v2h2zm6 0h-4v2h4zm-2-4h-4v2h4z"/><path fill="#ff829a" d="M314 174h-2v2h2zm4 0h-2v2h2zm-8-10h-2v2h2zm6-2v-2h4v4h-2v-2zv2h2v2h4v2h-4v2h-2v-2h-2v2h-2v-2h-4v2h4v2h2v-2h2v2h2v-2h2v2h2v2h-2v4h-10v-6h-2v6h-4v-2h2v-2h-2v-2h2v-6h-2v-2h2v-4h2v2zm-4 2v2h2v-2z"/><path fill="#e2a8ff" d="M288 174v-2h-2v6h-4v-2h2v-2h-2v-2h2v-6h-2v-2h2v-4h2v4h4v-4h10v6h-4v2h4v2h-4v2h4v2h-2v2h-2v-2h-2v2h2v2h-8v-2h4v-2zm12 2v2h-2v-2zm-6-6h-6v2h6zm0-4h-8v4h2v-2h6zm0-4h-2v2h2zm4 0h-2v2h2z"/><path fill="#8e8bff" d="M264 160v4h4v-4h2v2h2v2h2v2h-2v2h6v6h-2v-4h-4v2h2v2h-2v2h2v2h-6v-2h-2v2h-6v-2h2v-2h-2v-2h2v-6h-2v-2h2v-4zm14 16v2h-2v-2zm-12-4h-2v4h2zm10 2v2h-2v-2zm-6-2h-2v4h2zm-4-6h-2v4h2zm4 2h-2v2h2zm0-4h-2v2h2zm8-2v4h-2v-2h-2v-2z"/><path fill="#b4d8ff" d="M242 160v4h2v2h-2v2h2v2h-2v8h-4v-2h2v-2h-2v-2h2v-6h-2v-2h2v-4zm6 16v2h-2v-2zm2-6v2h2v-2h2v2h2v2h-2v4h-4v-2h2v-2h-8v-2h4v-2zm2-10v2h2v2h-2v2h2v-2h2v6h-2v-2h-2v2h-2v-2h-2v2h-2v-6h-2v-2h6v-2zm-2 4h-2v2h2zm6-4v2h-2v-2z"/><path fill="#e7ded3" d="M230 178h-2v-2h-2v2h-2v-8h-2v8h-4v-2h2v-4h-2v2h-2v-2h2v-2h2v-4h-4v-2h4v-4h2v4h2v-2h4v-2h2v2h2v-2h2v4h-4v2h4v12h-2v-2h-2zm2-6h-2v2h2zm-4 0h-2v2h2zm4-4h-2v2h2zm-4 0h-2v2h2zm-4-2h-2v2h2zm4-2h-4v2h4z"/><path fill="#ffcad4" d="M212 176v2h-4v-2zm-8 0v2h-4v-2zm-2-6v-2h2v-2h-6v2h2v2h-2v8h-4v-2h2v-2h-2v-2h2v-6h-2v-2h2v-4h2v4h4v-2h2v2h4v2h-2v2h4v2h-2v2h4v2h-6v2h-2v-2h-4v-4zv2h4v-2zm10-6v2h-2v-2zm-2-2v2h-2v-2zm-4-2v2h-2v-2z"/><path fill="#eeedff" d="M184 176v2h-6v-2zm2 2v-2h4v2zm-10-18v4h2v-2h4v-2h2v2h6v4h-2v-2h-8v2h-4v4h2v2h-2v6h-4v-2h2v-2h-2v-2h2v-6h-2v-2h2v-4zm10 14v2h-2v-2zm-2-8v2h6v2h-2v4h-2v-4h-2v4h-4v-2h2v-2h-4v-2h4v-2z"/><path fill="#65e485" d="M154 160v4h2v-4h2v4h2v-4h2v4h6v2h-8v2h8v6h-2v-4h-6v4h-2v-8h-4v2h2v2h-2v8h-4v-2h2v-2h-2v-2h2v-6h-2v-2h2v-4zm10 16v2h-4v-2zm4 0v2h-2v-2zm-10-2v4h-2v-4zm8 0v2h-2v-2zm-2-2v2h-2v-2zm4-12v2h-4v-2z"/><path fill="#5dabff" d="M146 160v2h-4v2h4v2h-4v2h4v2h-4v2h4v2h-4v4h-2v-4h-4v-2h4v-2h-2v-2h2v-2h-2v-2h2v-2h-2v-2zm-14 16v2h-2v-2zm2 0h-2v-2h-4v-2h4v-4h-4v-2h4v-2h-4v-2h6v4h2v2h-2v2h2v2h-2zm2-16v2h-2v-2z"/><path fill="#8c8aff" d="M118 176v2h-4v-2zm-12 2v-2h2v-2h-2v-2h2v-6h-2v-2h2v-4h2v4h4v-4h2v4h8v2h-8v2h8v4h-2v-2h-6v2h-2v-6h-4v2h2v2h-2v6h2v2zm18-2v2h-2v-2zm-2-4v4h-4v-2h2v-2zm-8 0v4h-2v-4zm4 0v2h-2v-2zm6-12v2h-4v-2z"/><path fill="#7f7cff" d="M102 174v4h-8v-2h6v-2zm-18-8v-2h4v-4h2v4h2v2h-2v2h2v-2h6v6h-4v4h-2v-6h-2v8h-4v-2h2v-4h-2v2h-2v-2h2v-2h2v-4zm10-6v2h8v10h-2v-8h-8v-4zm2 8h-2v2h2z"/><path fill="#439eff" d="M68 178h-4v-2h2v-4h-2v2h-2v-2h2v-2h2v-4h-4v-2h4v-4h2v4h2v-4h10v4h-2v-2h-6v6h8v6h-2v-4h-6v6h4v2h-6v-8h-2zm12-2v2h-2v-2zm-2-2v2h-2v-2zm-2-2v2h-2v-2zm-8-4h2v-2h-2zm10-4v2h-4v-2z"/><path fill="#fff1dd" d="M58 174v4h-8v-2h6v-2zm-6-10h-2v6h2zm4 0h-2v6h2zm-8 2h-2v2h2zm2 6v4h-2v-6h-2v8h-4v-2h2v-4h-2v2h-2v-2h2v-2h2v-4h-4v-2h4v-4h2v4h2v-2h10v10z"/><path fill="#fff0f3" d="M36 168v8h-2v-6h-4v4h-2v-4h-4v6h2v2h-6v-2h2v-4h-2v2h-2v-2h2v-2h2v-4h-4v-2h4v-4h2v4h4v2h-4v2zm-2 8v2h-2v-2zm-6-2v2h-2v-2zm8-12v4h-2v-4zm-6-2v4h-2v-4zm4 0v2h-2v-2z"/><path fill="#ffa3b5" d="M356 151h-4v-2h4v-2h2v-4h-10v-2h10v-4h2v4h6v2h-6v2h2v2h-2v8h-4v-2h2v-4h-2zm-4 0v2h-4v-2z"/><path fill="#fff4c8" d="M338 153v2h-2v-2zm6 0v2h-4v-2zm-12-4h-2v2h2zm12-2v2h-2v-2zm-10-2h-2v2h2zm6 0v4h2v2h-2v2h-2v-8h-2v4h-2v2h2v2h-2v2h-2v-2h-2v2h-2v-4h-2v-2h2v-2h2v-2h-4v-2h4v-2h-4v-2h4v-2h2v2h4v-2h2v6h6v2zm-4-4h-4v2h4zm8-2v2h-2v-2zm-2-2v2h-2v-2z"/><path fill="#ffeca0" d="M322 151v4h-4v-2h2v-2zm-10-14v2h-2v2h4v-4h2v4h6v2h-6v6h-2v-6h-4v2h2v2h-2v8h-6v-2h4v-4h-4v-2h4v-4h-4v-2h4v-2h-4v-2zm2 16v2h-2v-2zm4-4v4h-4v-2h2v-2zm2-2v2h-2v-2zm2-2v2h-2v-2zm0-8v2h-4v-2z"/><path fill="#f2f2f3" d="M288 155v-2h8v2zm-2-18v4h4v-2h2v2h4v2h-2v2h6v2h-2v2h-2v-2h-4v2h-2v-2h-2v-2h4v-2h-6v12h-2v-8h-2v-4h2v-6zm12 14v2h-2v-2zm-8-2v2h-2v-2zm10 0v2h-2v-2zm-4 0v2h-4v-2zm4-8v2h-2v-2zm-2-2v2h-2v-2zm-4-2v2h-2v-2z"/><path fill="#eee7de" d="M262 151v4h-2v-4zm12 0v4h-8v-2h6v-2zm4 0v4h-2v-4zm-12 0v2h-2v-2zm2-14v12h2v2h-4v-2h-2v2h-2v-2h-2v-2h6v-2h-6v-2h6v-2h-6v-2h6v-2zm2 0h2v2h6v2h-6v2h6v2h-6v2h6v2h-2v2h-2v-2h-4z"/><path fill="#f9f7f5" d="M242 139v8h-2v-4h-2v-2h2v-2zm4 6v2h-2v-2zm2-8v2h8v4h-2v-2h-2v6h-4v-2h2v-4h-4v2h-2v-2h2v-4zm8 8v2h-2v-2zm-8-2v2h-2v-2zm-4-6v2h-2v-2zm-4 14v4h-2v-4zm12 0v4h-8v-2h6v-2zm4 0v4h-2v-4zm-12 0v2h-2v-2zm-2-2v2h-2v-2zm6 0v2h-4v-2zm6 0v2h-2v-2z"/><path fill="#2fdb5b" d="M218 151v4h-2v-4zm12 0v4h-8v-2h6v-2zm4 0v4h-2v-4zm-12 0v2h-2v-2zm-2-2v2h-2v-2zm6 0v2h-4v-2zm6 0v2h-2v-2zm-4-6v2h4v2h-10v-2h4v-2h-6v4h-2v-4h-2v-2h2v-2h2v2h6v-2h-2v-2h8v2h-4v2h6v2zm-6-6v2h-2v-2z"/><path fill="#7f7cff" d="M196 151v4h-2v-4zm12 0v4h-8v-2h6v-2zm4 0v4h-2v-4zm-12 0v2h-2v-2zm-2-2v2h-2v-2zm14-4v4h-2v2h-2v-2h-4v2h-4v-2h4v-2h6v-2zm-14-6v8h-2v-4h-2v-2h2v-2zm2 4v-2h2v-4h2v2h2v-2h2v2h4v4h-2v-2h-2v2h-2v-2h-2v6h-2v-4zm10 0v2h-2v-2zm-10-6v2h-2v-2z"/><path fill="#ffe683" d="M186 151v4h-6v-2h4v-2zm-10 2v2h-4v-2zm4-10v6h2v2h-2v2h-4v-2h2v-8zm-6 4v4h-2v-4zm10-2v4h-2v-4zm-8-2v4h-2v-4zm10-4v6h-2v-6zm-4 0v2h-2v-2zm-2-2v2h-4v-2zm8 6h2v8h-2z"/><path fill="#b69c7b" d="M154 143v10h2v2h-4v-6h-2v-2h2v-4zm8 10v2h-2v-2zm6-2v4h-2v-4zm-4 0v2h-2v-2zm0-6v2h-2v4h-2v-4h-2v6h-2v-8zm2 2v4h-2v-4zm0-10v2h2v8h-2v-6h-2v-4zm-14 4v2h-2v-2zm6-4v4h2v-4h2v4h2v2h-8v-6zm-4 0v4h-2v-4z"/><path fill="#e1a6ff" d="M132 143v12h-2v-6h-2v-2h2v-4zm12-2h-2v10h2v2h-2v2h-2v-4h-2v-2h2v-4h-2v4h-2v2h2v2h-2v2h-2v-8h2v-2h-2v-2h2v-2h-2v2h-2v-2h2v-4h2v2h10v12h-2zm-4 0h-2v2h2zm-10 0v2h-2v-2zm2-4v4h-2v-4z"/><path fill="#ffc0cc" d="M110 145v10h-2v-6h-2v-2h2v-2zm10 2h-8v-2h2v-8h8v8h2v2h-2v2h2v2h-2v4h-4v-2h2v-2h-8v-2h8zm-4 6v2h-2v-2zm4-10h-4v2h4zm-8-2v4h-2v-4zm-4 0v2h-2v-2zm12-2h-4v2h4zm-10 0v2h-2v-2zm2-2v2h-2v-2z"/><path fill="#d0e6ff" d="M96 153v2h-4v-2zm-10-4h-2v-2h2v-2h2v8h2v2h-4zm16 4v2h-2v-2zm-10-4v4h-2v-4zm8 0v4h-4v-2h2v-2zm-4 0v2h-2v-2zm2-12v2h4v4h-2v-2h-2v4h4v4h-2v-2h-6v2h-2v-10h4v-2zm-2 4h-2v4h2zm-6 0v4h-2v-4zm-4 0v2h-2v-2zm2-2v2h-2v-2zm2-2v2h-2v-2z"/><path fill="#ffc56d" d="M68 145v2h4v2h-4v6h-2v-4h-2v4h-2v-4h2v-2h-2v-2h4v-2zm4 6v4h-2v-4zm-4-12v4h-2v-2h-2v4h-2v-6zm2 4v2h-2v-2zm2-2v2h-2v-2zm0-4v2h-4v-2zm4 16v2h-2v-2zm2-2v2h-2v-2zm0-4h2v4h-2zm-2 0v2h-2v-2zm2-2v2h-2v-2zm-2-2v2h-2v-2zm4 0v2h-2v-2zm-2-2v2h-2v-2zm2-4v4h-2v-4z"/><path fill="#d8ebff" d="M44 149h-2v6h-2v-6h2v-10h6v-2h2v2h8v2h-2v4h-2v-4h-4v2h2v2h-2v2h2v2h2v2h-2v2h2v2h-6v-2h2v-4h-4v2h2v2h-2v2h-2zm14 4v2h-2v-2zm-2-2v2h-2v-2zm2-6v6h-2v-6zm-12 0h-2v2h2zm8 0v2h-2v-2zm-6-4h-4v2h2v2h2z"/><path fill="#ff7892" d="M20 153v2h-2v-2zm-2-4v-2h4v-4h-4v-2h4v-4h2v4h4v-2h2v2h6v2h-4v4h4v2h-4v6h-2v-6h-6v2h-2v-2zm4 2v2h-2v-2zm8-8h-6v4h6zm2-6v2h-2v-2z"/><path fill="#ffaaba" d="M356 128h-4v4h-2v-6h-2v-2h4v2h4v-2h2v2h4v-2h2v8h-4v-2h2v-2h-4v4h-2zm10-6v2h-2v-2zm0-6v4h-2v2h-2v2h-2v-8zm-10-2v2h2v2h-2v2h2v2h-4v2h-2v-2h-2v-2h4v-2h-6v-2h6v-2zm8 4h-2v2h2z"/><path fill="#ffe4bd" d="M336 124h-4v6h-2v-4h-2v2h-2v-2h2v-2h2v-4h2v2h4v-2h2v2h6v8h-4v-2h2v-4h-4v8h-2zm0-10v2h8v2h-10v2h-2v-2h-6v-2h8v-2z"/><path fill="#4aa1ff" d="M306 120h6v-2h-8v-2h10v4h6v10h-4v-2h2v-6h-4v10h-2v-10h-4v8h-2zm14-6v2h-6v-2z"/><path fill="#ff7b95" d="M286 132v-2h12v-2h2v4zm12-16v10h-12v4h-2v-14zm-8 2h-4v6h4zm6 0h-4v6h4z"/><path fill="#fff8f9" d="M262 118v-4h2v2h4v-2h2v2h4v-2h2v4zm0 10v4h-2v-4zm2 2v-2h6v-2h-4v-2h10v2h-4v2h6v2h-6v2h-2v-2zm14-10v2h-14v6h-2v-6h-2v-2z"/><path fill="#dccdb9" d="M242 130v2h-4v-2zm14 0v2h-4v-2zm-8-10v2h8v2h-4v2h4v2h-4v2h-2v-2h-6v2h-2v-2h-4v-2h4v-6zm-2 2h-2v4h6v-2h-4zm2-8v2h8v4h-2v-2h-4v2h-2v-2h-8v2h-2v-4h8v-2z"/><path fill="#48df6e" d="M218 126v-2h6v-2h-6v-2h14v2h-6v2h6v2h-2v2h2v2h2v2h-18v-2h8v-4zm10 0h-2v4h4v-2h-2zm-2-12v2h8v4h-2v-2h-14v2h-2v-4h8v-2z"/><path fill="#ffd427" d="M200 130v2h-6v-2zm12 0v2h-6v-2zm-6-4v4h-6v-2h4v-2zm-6 0v2h-2v-2zm4-6v2h8v2h-4v2h-2v-2h-4v2h-2v-2h-6v-2h8v-2zm0-6v2h8v4h-2v-2h-14v2h-2v-4h8v-2z"/><path fill="#dbcbb6" d="M180 126h-8v-2h8v-2h-4v-2h10v2h-4v2h8v2h-8v6h-6v-2h4zm2-12v2h8v4h-2v-2h-14v2h-2v-4h8v-2z"/><path fill="#fefefe" d="M164 130v2h-4v-2zm2-4v4h-2v-4zm-10 0v6h-2v-8h-2v2h-2v-2h2v-2h2v-4h-4v-2h6v-2h2v2h10v2h-12v6h8v2zm12-2v2h-2v-2zm0-4v2h-2v2h-2v-2h-6v-2z"/><path fill="#ffb2c1" d="M138 130v2h-6v-2zm2-4v4h-2v-4zm-2-2v2h-10v-2zm8 0v2h-6v-2zm-4-4v2h-2v2h-2v-2h-6v-2zm-4-6v2h8v4h-2v-2h-14v2h-2v-4h8v-2z"/><path fill="#ffd83d" d="M118 130v2h-4v-2zm-10 0v2h-2v-2zm2-2v2h-2v-2zm4 0v2h-2v-2zm6-4v6h-2v-6zm-8 2v2h-2v-2zm-2-12v4h4v4h4v2h-4v2h-2v-6h-2v6h-4v-2h2v-4h-2v-2h2v-4zm14 8v2h-4v-2zm-4-4v4h-2v-4zm2-4v4h-2v-2h-6v-2z"/><path fill="#ede7df" d="M86 128v4h-2v-4zm14 2v-2h2v4h-8v-2zm-10-2v2h-2v-2zm-2-14v4h2v4h2v-6h2v4h2v-6h2v4h4v8h-2v-6h-2v6h-2v-4h-2v8h-2v-6h-4v4h-2v-2h-2v-8h2v-4zm12 12v2h-2v-2zm-12-6h-2v4h2z"/><path fill="#d3c4b0" d="M66 130v2h-4v-2zm14 0v2h-4v-2zm-10-16v2h8v10h2v2h-4v2h-4v-2h-2v2h-4v-2h-4v-2h2v-10h4v-2zm6 12h-2v2h2zm-8 0h-2v2h2zm6-2h-2v2h2zm-4 0h-2v2h2zm-2-2h-2v2h2zm8 0h-2v2h2zm0-4h-2v2h2zm-4 0h-2v2h2zm-4 0h-2v2h2z"/><path fill="#ffb647" d="M46 130v2h-6v-2zm12 0v2h-4v-2zm-12 0v-2h2v-2h-2v-2h6v2h-2v2h4v2zm0-4v2h-4v-2zm-4-2v2h-2v-2zm16 0v2h-4v-2zm-8-10v2h8v2H48v2h10v2h-4v2h-2v-2h-8v2h-2v-2h-2v-2h6v-2h-6v-2h8v-2z"/><path fill="#eee9e1" d="M24 124v2h6v-2h2v2h4v2h-4v4h-2v-4h-6v2h-2v-2h-4v-2h4v-2zm-2 6v2h-2v-2zm-2-8v2h-2v-2zm16 0v2h-2v-2zm0-6v2h-4v2h-2v-2h-2v2h2v2h-2v2h-2v-2h-2v-2h2v-2h2v-2zm-14 4v2h-2v-2zm12 0v2h-2v-2zm-8-4v2h-2v2h-2v-2h-4v-2zm2-2v2h-2v-2z"/><path fill="#f8fdf9" d="M362 107v-2h-4v2zm-6-2h-4v2h4zm0-4h-4v2h4zm6 0h-4v2h4zm-4-10v2h8v2h-4v2h-2v-2h-6v2h-2v-2h-4v-2h8v-2zm-8 18v-8h-2v-2h2v-2h2v2h10v-2h2v2h2v2h-2v8z"/><path fill="#409cff" d="M330 107v2h-4v-2zm14 0v2h-4v-2zm-12-2v2h-2v-2zm8 0v2h-2v-2zm-6-2v2h-2v-2zm4 0v2h-2v-2zm-2-2v2h-2v-2h-8v-2h8v-4h-6v-2h14v2h-6v4h8v2z"/><path fill="#d5c7b4" d="M306 109v-8h-2v-2h4v-2h2v2h6v-2h2v2h4v2h-2v8zm6-2v-2h-4v2zm0-6h-4v2h4zm-6-6v2h-2v-2zm10 0v2h-6v-2zm4-4v2h-2v2h-2v-2h-6v2h-4v-2h2v-2zm-6 14v2h4v-2zm4-2v-2h-4v2z"/><path fill="#ff6b88" d="M298 97v2h-14v-2h6v-2h-8v-2h8v-2h2v2h8v2h-8v2zm-14 10v2h-2v-2zm2-2v2h-2v-6h2v2h4v-2h2v2h4v-2h2v4z"/><path fill="#f8ecff" d="M260 109v-2h8v-2h-6v-2h2v-4h4v2h2v-2h2v-2h2v2h4v2h-4v2h2v2h-6v2h8v2zm8-8h-2v2h2zm4 0h-2v2h2zm-10-2v4h-2v-4zm6-8v2h4v-2h2v2h4v2h-2v2h-2v-2h-2v2h-2v-2h-2v2h-4v2h-2v-8zm-2 2h-2v2h2z"/><path fill="#65afff" d="M238 109v-2h8v-2h-6v-8h-2v-2h2v-2h2v10h4v-2h-2v-2h6v-2h-4v-6h10v6h-4v2h4v4h-2v2h-6v2h8v2zm16-8h-2v2h2zm-4 0h-2v2h2zm4-8h-6v2h6zm-10-2v2h-2v-2z"/><path fill="#e1d4c3" d="M234 107v2h-4v-2zm-8 0v2h-6v-2zm-8-2v2h-2v-2zm14-6v2h-2v2h4v2h-6v2h-2v-2h-8v-6h-2v-2h2v-6h2v6h2v-2h2v-2h2v2h4v2h-2v2zm2-4v2h-2v-2zm-2-2v2h-2v-2zm-4-2v2h-2v-2zm0 12v-2h-4v-2h2v-2h-4v2h-2v4h2v-2h2v2z"/><path fill="#f8eaff" d="M212 105v4h-8v-2h6v-2zm-14 2h-4v-2h4v-6h-4v-2h4v-6h2v6h2v-4h2v4h2v-6h2v4h4v8h-2v-6h-2v6h-2v-4h-2v8h-2v-2h-4zm12-4v2h-2v-2zm-8-4h-2v4h2z"/><path fill="#fff4e3" d="M184 91v2h-2v16h-2v-4h-2v2h-4v-2h-2V93h4v-2zm6 2v4h-2v-2h-2v2h2v2h-2v4h2v2h-2v4h-2V93zm-12 10h-4v2h4zm2-2h-2v2h2zm10-2v4h-2v-4zm-14-4h-2v6h2zm4 2h-2v2h2zm0-4h-2v2h2z"/><path fill="#ffeeac" d="M168 91v18h-4v-2h2V93h-4v-2zm-8 4h4v10h-4v-2h2v-6h-4v-4h-2v4h2v2h-2v4h2v2h-2v4h-2v-4h-4V93h4v-2h6zm-6 0h-2v8h2zm6 4v4h-2v-4z"/><path fill="#bef3cc" d="M146 107v2h-4v-2zm-8 0v2h-6v-2zm-4-14v2h2v-2h2v2h4v2h-2v2h4v2h-2v2h4v2h-6v2h-2v-2h-10V93zm-2 2h-2v8h2zm8 6h-4v2h4zm-2-4h-4v4h2v-2h2zm8-2v2h-2v-2zm-2-2v2h-2v-2zm-4-2v2h-2v-2z"/><path fill="#f1f7ff" d="M114 107v2h-4v-2zm10 0v2h-2v-2zm-6-2v2h-4v-2zm4 0v2h-2v-2zm-6-14v2h4v-2h2v2h2v2h-2v2h-2v-2h-4v2h-2v-2h-2v10h-6V93h8v-2zm4 12v2h-2v-2zm-10-8h-2v8h2zm12 4v4h-2v-4zm-4 2v2h-2v-2zm-2-2v2h-2v-2z"/><path fill="#ede7df" d="M84 95v-2h8v-2h2v2h8v2zm2 10v4h-2v-4zm12-4v2h-2v2h2v2h-4v2h-6v-2h2v-4h-2v2h-2v-2h2v-2zm4 6v2h-4v-2zm-8-4h-2v4h2zm6 0v2h-2v-2zm2-2v2h-2v-2zm-2-4v4h-2v-2H88v2h-2v-4z"/><path fill="#e5dcd0" d="M66 95h-2v8h2zm2 10h-4v2h-2V93h6zm4 4v-2h6v-2h2v4zm8-16v10h-8v4h-2V93zm-6 2h-2v6h2zm4 0h-2v6h2z"/><path fill="#e0d2c0" d="M46 107v2h-2v-2zm2-2v2h-2v-2zm-2-12v12h-6V93zm4 0v12h-2V93zm-6 2h-2v8h2zm14 12v2h-2v-2zm-2-4v4h-2v-4zm-4-12h2v12h-2z"/><path fill="#e2d5c4" d="M32 101H22v4h10zm2 8h-2v-2H22v2h-2V99h6v-4h-8v-2h8v-2h2v2h8v2h-8v4h6z"/><path fill="#d1bca2" d="M354 84v2h-6v-2zm12 0v2h-6v-2zm-6-2v2h-6v-2zm-2-14v2h8v2h-6v6h4v2h-2v2h-2v-2h-6v2h-2v-2h-2v-2h4v-6h-6v-2h8v-2zm-8 8v2h-2v-2zm16 0v2h-2v-2zm-8-4h-2v6h2zm-6 2v2h-2v-2zm12 0v2h-2v-2z"/><path fill="#b29673" d="M330 84v2h-4v-2zm4 0v2h-2v-2zm6 0v2h-4v-2zm4 0v2h-2v-2zm-12-2v2h-2v-2zm10 0v2h-2v-2zm-8-4v4h-2v-2h-2v2h-2v-2h-2v-2zm10 0v4h-2v-2h-2v2h-2v-2h-2v-2zm-8-2v2h-2v-2zm-10 0v-2h4v2zm8-2v2h-2v-2zm6 0v2h-4v-2zm4 0v2h-2v-2zm-12-2v2h-2v-2zm10 0v2h-2v-2zm-8-4v4h-2v-2h-2v2h-2v-2h-2v-2zm10 0v4h-2v-2h-2v2h-2v-2h-2v-2z"/><path fill="#d7c8b6" d="M308 84v2h-4v-2zm4 0v2h-2v-2zm6 0v2h-4v-2zm4 0v2h-2v-2zm-2-2v2h-2v-2zm-10 0v2h-2v-2zm-4-6v2h6v4h-2v-2h-2v2h-2v-2h-2v-4zm16 0v6h-2v-2h-2v2h-2v-2h-2v-2h6v-2zm-2-2v2h-4v-2zm-10 0v2h-4v-2zm6-2v2h-6v-2zm4-4v2h-2v2h-2v-2h-6v2h-2v-2h-4v-2z"/><path fill="#df9fff" d="M284 84v2h-2v-2zm8 0v2h-4v-2zm8 0v2h-2v-2zm-14-4v4h-2v-4zm8 2v2h-2v-2zm4 0v2h-2v-2zm-8-2v2h-2v-2zm6 0v2h-2v-2zm-8-4v4h-2v-2h-2v-2zm10 0v4h-2v-4zm-4-2v6h-2v-6zm-10 0v2h-2v-2zm14-2h-8v4h-2v-4h-6v-2h18v6h-2z"/><path fill="#84e99e" d="M264 84v2h-4v-2zm14 0v2h-6v-2zm-10-2v2h-4v-2zm4 0v2h-2v-2zm-2-2v2h-2v-2zm2-2v2h-2v-2zm-4 0v2h-2v-2zm6-4v4h-2v-4zm-8 0v4h-2v-4zm10-4v4h-2v-2h-14v-2z"/><path fill="#ae916d" d="M250 84v2h-10v-2zm6-4v4h-2v-4zm-4 2v2h-2v-2zm-10-2v2h-4v-2zm6 0v2h-4v-2zm-4-10v2h8v2h-6v2h10v2h-2v2h-2v-2h-2v2h-2v-2h-4v2h-2v-2h-4v-2h6v-2h-6v-2h4v-2zm12 2v2h-2v-2zm-2-2v2h-2v-2zm-8-2v2h-2v-2z"/><path fill="#98989d" d="M222 68h2v6h4v2h-4v10h-2zm10 8v2h-4v-2z"/><path fill="#bfbeff" d="M198 68v4h2v2h-2v12h-2V74h-2v-2h2v-4zm6 16v2h-2v-2zm6 2h-4v-2h2v-2h-8v-2h4v-2h2v2h2v-2h2v2h2v2h-2zm-2-18v2h2v2h-2v2h2v-2h2v6h-2v-2h-2v2h-2v-2h-2v2h-2v-6h-2v-2h6v-2zm-2 4h-2v2h2zm6-4v2h-2v-2z"/><path fill="#aef1bf" d="M190 82v2h-6v2h-2v-2h-10v-2h4v-2h-2V70h4v-2h2v2h8v10h-10v2zm-10-6h-4v2h4zm6 0h-4v2h4zm-6-4h-4v2h4zm6 0h-4v2h4z"/><path fill="#96ecac" d="M160 82v4h-2v-4h-8v-2h8v-4h-6v-2h6v-6h2v6h6v2h-6v4h8v2zm-4-12v2h-2v-2zm8 0v2h-2v-2zm-10-2v2h-2v-2zm12 0v2h-2v-2z"/><path fill="#f8f8f8" d="M146 82v4h-12v-2h10v-2zm-4-2v2h-2v-2zm0-8h-10v2h8v6h-6v4h-2v-8h-2v2h-2v-2h2v-4h2v-4h2v2h10v10h-2zm-4 4h-4v2h4z"/><path fill="#beddff" d="M116 84v2h-2v-2zm2 2v-2h4v2zm-6-8v2h2v2h-2v4h-4v-2h2v-2h-4v-2h4v-2zm6 2v4h-2v-4zm2-12v4h4v12h-2V74h-2v6h-2v-6h-2v-2h2v-4zm-8 0v2h4v2h-4v2h4v2h-2v2h-2v-2h-4v2h-2v-4h4v-2h-4v-2h4v-2z"/><path fill="#eecbff" d="M86 84v2h-2v-2zm6 2v-2h4v2zm-4-4v2h-2v-2zm4-14v2h6v4h2v2h-2v8h-2V72h-4v6h-2v-6h-4v-2h4v-2zm-2 10v4h-2v-4zm-4 0v2h-2v-2zm16-2v4h-2v-4zm-14-2v4h-2v-4z"/><path fill="#e9e0d3" d="M74 84v2h-2v-2zm6-16v18h-4v-2h2V68zm-8 0v8h2v-4h2v8h-2v-2h-4v4h2v2h-2v2h-4v-2h2v-6h-4v2h-2v-2h2v-2h6v-2h-6v-2h6v-2h-6v-2zm-8 14v4h-2v-4zm2-2v2h-2v-2zm8 0v2h-2v-2z"/><path fill="#d5c5b2" d="M48 84v2h-2v-2zm-6 0v2h-2v-2zm2-2v2h-2v-2zm0-4h-4v-2h4v-2h-2v-6h8v6h-4v2h4v8h-2v-6h-2v4h-2zm4-8h-4v2h4zm10-2v18h-4v-2h2V68zm-4 4v8h-2v-8z"/><path fill="#ffe4e9" d="M24 70h-4v12h14V70h-4v8h-6zm2 6h2v-8h8v18h-2v-2H20v2h-2V68h8z"/><path fill="#ffe2b8" d="M350 57v6h-2v-6zm6 4v2h-4v-2zm10 0v2h-2v-2zm-12-2h-2v-2h2v-2h2v-2h-4v4h-2v-4h2v-2h4v-2h-4v2h-2v-2h2v-2h6v-2h2v2h6v2h-8v2h8v2h-2v2h-2v2h-2v2h4v2h-8v-2h2v-2h-4zm12-4v2h-2v-2zm-4-2h-4v2h4zm-12-8v4h-2v-4z"/><path fill="#9c9ca1" d="M328 57v6h-2v-6zm8-4h-2v4h-2v-4h2v-2h-4v-2h6v-4h2v8h2v2h-2v8h-4v-2h2zm8 4v4h-2v-4zm-12 0v4h-2v-4zm10-2v2h-2v-2zm-12-2v4h-2v-4zm12-2v2h-2v-2zm-14-6v6h-2v-6zm16 4v2h-2v-2z"/><path fill="#ffe57d" d="M314 45v2h8v16h-4v-2h2V49h-6v4h-2v-4h-6v10h2v2h-2v2h-2V47h8v-2zm-4 12v2h-2v-2zm6-2h2v4h-2zm-4-2v4h-2v-4zm4 0v2h-2v-2z"/><path fill="#ffe371" d="M300 61v2h-4v-2zm-14 0v2h-4v-2zm2-4h2v-2h2v2h2v-4h-2v-2h-2v-2h-2v4h2v2h-2zm6-8h-2v2h2zm-6 10v2h-2v-2h-4v-2h4v-8h-4v-2h4v-2h2v2h6v-2h2v2h4v2h-4v8h4v2h-4v2h-2v-2z"/><path fill="#c3a885" d="M264 61v2h-4v-2zm14 0v2h-4v-2zm-6-8h-6v4h6zm2 0v4h4v2h-4v2h-2v-2h-6v2h-2v-2h-4v-2h4V47h6v2h-4v2h12v2zm2-8v2h-6v-2z"/><path fill="#32db5d" d="M240 61v2h-2v-2zm2-2v2h-2v-2zm0-6h2v6h-2zm4-6v6h-2v-6zm10 14v2h-2v-2zm-2-4v4h-2v-4zm-2-6v6h-2v-6zm-4-6h2v6h-2z"/><path fill="#e5b2ff" d="M228 61v2h-2v-2zm6 0v2h-2v-2zm-12-16v2h2v-2h6v4h4v6h-4v4h2v2h-4v-2h-2v2h-2v-2h2v-2h-2v2h-2v-2h2v-2h-2v-6h-2v14h-2V53h-2v-2h2v-2h2v-4zm2 16v2h-2v-2zm10-4v2h-2v-2zm-6-2h-2v2h2zm-2-4h-2v2h2zm6 0h-4v2h4zm-4-4h-4v2h4z"/><path fill="#ffe066" d="M200 45v2h2v-2h2v2h2v2h-2v2h2v2h-2v2h2v4h-2v-2h-2v2h-2v-2h2v-4h-2v-2h2v-2h-4v10h2v2h-2v2h-2V53h-2v-2h2v-2h2v-4zm12 14v4h-2v-4zm-8 0v2h2v2h-4v-4zm4 0v2h-2v-2zm2-4v4h-2v-4zm-2-2v2h-2v-2zm2-8v2h2v8h-2v-6h-2v2h-2v-2h2v-4z"/><path fill="#ba9c75" d="M176 49v12h2v2h-4V53h-2v-2h2v-2zm14 14h-4v-2h2v-2h-4v4h-4v-2h-2V49h12zm-8-4h-2v2h2zm0-4h-2v2h2zm6 0h-4v2h4zm0-4h-8v2h8zm2-6v2h-12v2h-2v-4z"/><path fill="#bea689" d="M154 49v6h2v2h-2v4h4v2h-6V53h-2v-2h2v-2zm12 12v2h-4v-2zm2-2v2h-2v-2zm0-10v2h-2v2h2v4h-2v2h-6v2h-2v-2h-2v-2h4v-2h-4v-2h2v-2h-2v-2zm-2 6h-4v2h4zm-2-4h-4v2h4zm-8-6v4h-2v-4zm10 0v2h-8v-2z"/><path fill="#ff90a6" d="M132 49v12h2v2h-4V53h-2v-2h2v-2zm8 8h2v2h2v-2h2v6h-2v-2h-2v2h-2v-2h-2v2h-2v-2h-2V49h12v6h-2v2h-2v-2h-2zh-2v-2h-2v2h2v2h2zm4-6h-8v2h8zm2-6v2h-12v2h-2v-4z"/><path fill="#ff8aa1" d="M110 49v4h4v-2h-2v-2h12v2h-2v2h2v2h-14v8h-2V53h-2v-2h2v-2zm4 10v2h8v-2zm6-8h-4v2h4zm-8-6v4h-2v-4zm10 0v2h-8v-2zm2 12v6h-12v-6z"/><path fill="#a8a8ac" d="M94 49v2h-2v-2h-4v4h2v-2h2v2h2v-2h2v2h4v-2h2v4h-2v4h-2v2h2v-2h2v4h-6v-2h-6v-6h-2v8h-2V53h-2v-2h2v-2h2v-4h2v2h4v-2h2v2h6v2h-2v2h-2v-2zm-2 10h2v-4h-2zm6-4h-2v4h2z"/><path fill="#ff6c89" d="M66 49v14h-2V53h-2v-2h2v-2zm14 12v2h-6v-2zm-8 0v2h-4v-2zm2-6h-2v2h2zm4 0h-2v2h2zm0-4h-2v2h2zm-4 0h-2v2h2zm0 8v2h-2v-2h-4v-2h2v-8h4v-2h-6v2h-2v-4h14v2h-4v2h4v10z"/><path fill="#b19572" d="M46 45v2h6v4h2v2h-2v2h-2v4h-2v-2h-2v-8h-2v12h2v2h-4V53h-2v-2h2v-2h2v-4zm10 0h2v18h-4v-2h2v-6h-2v-2h2zm-4 14v2h-2v-2zm-4 0v2h-2v-2zm2-10h-2v6h2z"/><path fill="#f1d5ff" d="M22 49v14h-2V53h-2v-2h2v-2zm10 2v4h2v2h-2v6h-4v-2h2V51zm4 6v4h-2v-4zm-12 0h2v4h-2zm4-4v4h-2v-4zm-2-2v2h-2v-2zm2-6v2h8v4h-2v-2h-6v2h-2v-6zm-4 0v4h-2v-4z"/><path fill="#57e17a" d="M356 34h-2v-4h2v-2h2v-2h-6v8h2v2h-2v4h-2V30h-2v-2h2v-2h2v-4h2v2h4v-2h2v2h6v2h-6v8h2v2h-2v4h-2v-4h-2zh2v-4h-2zm10-2v6h-2v-6zm-2-4v4h-2v-4z"/><path fill="#6fe68d" d="M330 26v14h-2V30h-2v-2h2v-2zm10 10v4h-2v-4h-6v-2h6v-4h-6v-2h6v-6h2v2h2v2h-2v2h4v2h-4v4h4v2zm-8-14v4h-2v-4zm4 0v4h-2v-4zm8 0v2h-2v-2z"/><path fill="#bababd" d="M312 38v2h-2V26h2v-2h2v-2h2v2h6v16h-2v-2zm-4-12v14h-2V30h-2v-2h2v-2zm12 0h-8v4h8zm-10-4v4h-2v-4zm10 14v-4h-8v4z"/><path fill="#ffe26e" d="M294 34v2h-2v-2h-4v-2h4v-2h-6v10h-2V30h-2v-2h2v-2h2v-4h2v2h10v4h2v2h-2v4zm-4 4v2h-2v-2zm2-2v2h-2v-2zm4-6h-2v2h2zm-4-4h-6v2h6zm4 0h-2v2h2z"/><path fill="#e2a7ff" d="M264 26v12h2v2h-4V30h-2v-2h2v-2zm10 12v2h-4v-2zm-6-4v4h-2v-4zm6-2h-4v2h-2v-6h-2v-2h4v-4h2v4h6v2h-8v2h6v8h-2zm-8-10v4h-2v-4z"/><path fill="#ffd698" d="M256 36v4h-8v-2h6v-2zm-18-6v-2h2v-2h2v14h-2V30zm14-8v4h4v8h-2v-6h-2v6h-2v-4h-2v8h-2v-6h-2v-2h2v-6h2v4h2v-6zm2 12v2h-2v-2zm-10-12v4h-2v-4z"/><path fill="#b3d7ff" d="M232 36v4h-10v-2h8v-2zm-12-8h10v6h-2v-4h-6v8h-2zm4 8v-2h4v2zm-6-8v2h-2v-2zm16 0v2h-2v-2zm-14-2v2h-2v-2zm12 0v2h-2v-2zm-10-2v2h-2v-2zm8 0v2h-2v-2zm-2-2v2h-6v-2z"/><path fill="#ffb3c1" d="M194 38v-2h18v2zm2-12v-2h14v2z"/><path fill="#c3c3c6" d="M190 38v2h-10v-2zm-16 0v2h-2v-2zm6-2v2h-2v-2zm-4 0v2h-2v-2zm6-2v2h-2v-2zm-4 0v2h-2v-2zm6-2v2h-2v-2zm2-2v2h-2v-2zm-4-8v4h6v4h-2v-2h-14v-2h8v-4z"/><path fill="#e4adff" d="M168 26v14h-4v-2h2V28h-6v2h-2v-2h-6v8h2v2h-2v2h-2V26h8v-2h-8v-2h18v2h-8v2zm-12 8v2h-2v-2zm6-2h2v4h-2zm-4-2v4h-2v-4zm4 0v2h-2v-2z"/><path fill="#fffaf2" d="M138 30v10h-2V30zm-8 4v2h-2v-2zm16-2v4h-2v-4zm-14 0v2h-2v-2zm2-2v2h-2v-2zm10 0v2h-2v-2zm-8-2v2h-2v-2zm6 0v2h-2v-2zm4-6v2h-8v4h-2v-4h-8v-2z"/><path fill="#e5d9ca" d="M110 38v2h-4v-2zm14 0v2h-4v-2zm-10-2v2h-4v-2zm6 0v2h-4v-2zm-4-2v2h-2v-2zm2-2v2h-2v-2zm-4 0v2h-2v-2zm-2-4v4h-2v-4zm8-6v2h4v2h-4v6h-2v-6h-12v-2h12v-2z"/><path fill="#fbf9f6" d="M86 38v2h-2v-2zm12 0v2h-4v-2zm-10-2v2h-2v-2zm2 0h-2v-4h2v-6h-6v-2h18v2H92v4h8v8h-2v-6h-8z"/><path fill="#b6d9ff" d="M70 40v-2h8v-4h2v6zm0-18v6h6v2h-6v8h-2v-6h-6v-2h6v-8zm10 4v2h-4v-2z"/><path fill="#fffdf5" d="M44 40v-2h4V26h-8v-2h18v2h-8v14z"/><path fill="#da8fff" d="M18 30v-2h18v2z"/><path fill="#fffaf3" d="M268 360v2h-2v-2zm-4-8v6h2v2h-2v2h-2v-10zm6 6v2h-2v-2zm6 4h-2v-6h-2v2h-2v-2h-4v-2h4v-4h-4v2h-2v-2h-2v2h-2v-2h2v-6h2v2h4v2h2v-4h2v4h2v-2h2v2h2v2h-2v4h2v2h-2zm-2-12h-2v4h2zm-8-2h-2v2h2zm12-4v2h-2v-2z"/><path fill="#c0a581" d="M288 360v2h-4v-2zm2 2v-2h6v2zm10-2v2h-2v-2zm-14-12v4h4v8h-2v-6h-6v-2h2v-4zm12 10v2h-2v-2zm-12-2v2h-4v-2zm14-2v4h-2v-4zm-4 2v2h-2v-2zm-2-2v2h-2v-2zm6-4v2h-2v-2zm-4 0v2h-4v-2zm-6-6v6h-2v-4h-6v-2zm8 4v2h-2v-2zm2-4v4h-2v-4zm-4 2v2h-2v-2zm-2-2v2h-2v-2z"/><path fill="#ff7691" d="M318 344h2v2h2v12h-2v2h2v2h-14v-2h-2v2h-2v-18h8v2h2v-2h2v2h2zm-4 8h-2v2h-2v6h4v-2h-2v-4h2zm4 6h-2v2h2zm-10-2h-2v2h2zm6 0h6v-2h-6zm-4-4h-4v2h4zm10-2h-2v2h2zm-4 0h-2v2h2zm-6-4h-4v4h2v-2h2zm8 2h-2v2h2zm-4 0h-2v2h2z"/><path fill="#ded2c4" d="M340 356h-2v4h2v2h-4v-2h-2v2h-4v-2h-2v2h-2v-2h2v-2h-2v-8h2v-2h4v-2h2v2h2v-2h2v2h2v-2h2v2h2v6h-2v4h2v4h-2v-2h-2zm-8 2h-2v2h2zm4-2h-2v2h2zm-6-2h-2v2h2zm4 0h-2v2h2zm8-2v-2h-2v2h-2v2h2v-2zm-8-2h-2v2h2zm-4 0h-2v2h2zm8 0h-2v2h2zm-10-4v2h-2v-2zm4-2v2h-4v-2zm4 0v2h-2v-2zm4 0v2h-2v-2zm4 0v2h-2v-2z"/><path fill="#fff9f1" d="M352 362h-4v-2h4v-2h-4v-2h4v-2h-4v-10h10v8h2v-8h2v2h4v2h-4v4h4v10h-2v-2h-4v2h-2v-2h-2v2h-2v-2h-2zm4-4h-2v2h2zm2-4h-4v2h2v2h2zm6 0h-4v4h4zm-12-4h-2v2h2zm4 0h-2v2h2zm-4-4h-2v2h2zm4 0h-2v2h2z"/></svg>
