<svg xmlns="http://www.w3.org/2000/svg" width="384" height="384" viewBox="0 0 384 384"><path fill="#930" d="M0 0h384v384H0z"/><path fill="#fff" d="M44.516 72.796v-3.612C40.428 67 33.54 67.84 33.54 73.272c0 6.132 9.156 5.432 9.156 10.276 0 3.668-3.836 4.284-7.028 2.8l-.812-3.528h-1.372v4.452c5.152 2.464 11.844 1.12 11.816-4.592-.056-6.412-9.324-5.572-9.324-10.22 0-3.304 4.2-3.64 6.468-2.408l.672 2.744zm13.832 15.54 4.48-.784v-.784c-2.044-.336-2.044-.448-2.044-1.428V73.524l-4.452.784v.756c1.932.336 1.932.448 1.932 1.372v8.624c-1.036 1.148-2.184 1.624-3.36 1.624-1.792 0-2.912-1.092-2.912-3.948v-9.212l-4.452.784v.756c1.932.336 1.932.448 1.932 1.372v6.888c0 3.416 1.596 5.124 4.452 5.124 1.764 0 3.164-.644 4.424-2.072zm16.52-14.672c-2.324-.476-4.396.14-5.516 2.66v-2.772l-4.368.756v.756c1.932.336 1.932.448 1.932 1.372v8.96c0 1.232 0 1.456-2.016 1.68V88h6.468v-.924c-1.932-.252-1.932-.476-1.932-1.68v-7.364c.896-2.492 3.332-3.164 4.648-1.596h.784zm11.536-6.524c-3.164-1.428-8.064-.896-8.064 4.676V74h-2.1v1.26h2.1v10.136c0 1.232 0 1.456-2.016 1.68V88h6.664v-.924c-2.128-.252-2.128-.476-2.128-1.68V75.26h3.724V74H80.86v-3.22c0-3.276 2.1-3.444 3.332-2.856l.672 2.044h1.54zm.896 7.952v2.716h1.82l.644-2.492c1.736-1.008 4.956-1.064 4.956 2.52v1.68c-4.368.616-8.344 1.316-8.344 5.096 0 4.312 5.768 5.096 8.484 1.82.336 2.212 2.604 2.324 4.424 1.176v-.784c-1.54.392-2.072-.56-2.072-1.876v-7.56c0-4.816-6.132-4.76-9.912-2.296m1.792 9.1c0-2.464 1.988-2.94 5.628-3.472v4.396c-2.156 2.66-5.628 2.1-5.628-.924m23.408-9.996c-5.46-2.156-11.144.364-11.172 6.888-.028 7.196 6.86 8.932 11.284 6.02v-1.148c-4.284 2.184-8.568.504-8.568-5.432 0-4.732 2.8-6.608 5.992-5.544l.672 2.464h1.792zm10.92 13.272V86.32c-2.688 1.092-4.48.504-4.48-2.352V75.26h4.34V74h-4.34v-3.416h-1.344L115.972 74h-1.484v1.26h1.932v9.156c0 4.536 4.032 4.648 7 3.052m2.744-12.376v2.716h1.82l.644-2.492c1.736-1.008 4.956-1.064 4.956 2.52v1.68c-4.368.616-8.344 1.316-8.344 5.096 0 4.312 5.768 5.096 8.484 1.82.336 2.212 2.604 2.324 4.424 1.176v-.784c-1.54.392-2.072-.56-2.072-1.876v-7.56c0-4.816-6.132-4.76-9.912-2.296m1.792 9.1c0-2.464 1.988-2.94 5.628-3.472v4.396c-2.156 2.66-5.628 2.1-5.628-.924m16.52-10.64-4.368.756v.756c1.932.336 1.932.448 1.932 1.372v8.96c0 1.232 0 1.456-2.016 1.68V88h6.468v-.924c-1.932-.252-1.932-.476-1.932-1.68v-8.204c1.148-1.428 2.52-2.016 3.724-2.016 1.512 0 2.828.924 2.828 3.444v6.776c0 1.232 0 1.456-2.016 1.68V88h6.468v-.924c-1.932-.252-1.932-.476-1.932-1.68v-7.364c0-2.996-1.708-4.592-4.312-4.592-1.904 0-3.612.868-4.844 2.408zm21.7 13.916V86.32c-2.688 1.092-4.48.504-4.48-2.352V75.26h4.34V74h-4.34v-3.416h-1.344L158.728 74h-1.484v1.26h1.932v9.156c0 4.536 4.032 4.648 7 3.052m10.836-10.332v-2.772c-3.332-1.82-8.96-1.008-8.96 3.08 0 4.508 7.252 4.004 7.252 7.308 0 2.548-3.248 3.024-5.096 1.848l-.84-2.324h-1.372v3.192c4.06 2.016 9.632.952 9.604-3.416-.028-4.788-7.42-4.144-7.42-7.252 0-2.212 3.276-2.604 4.62-1.624l.812 1.96zm10.78-2.044v2.716h1.82l.644-2.492c1.736-1.008 4.956-1.064 4.956 2.52v1.68c-4.368.616-8.344 1.316-8.344 5.096 0 4.312 5.768 5.096 8.484 1.82.336 2.212 2.604 2.324 4.424 1.176v-.784c-1.54.392-2.072-.56-2.072-1.876v-7.56c0-4.816-6.132-4.76-9.912-2.296m1.792 9.1c0-2.464 1.988-2.94 5.628-3.472v4.396c-2.156 2.66-5.628 2.1-5.628-.924m22.036-10.528c-2.324-.476-4.396.14-5.516 2.66v-2.772l-4.368.756v.756c1.932.336 1.932.448 1.932 1.372v8.96c0 1.232 0 1.456-2.016 1.68V88h6.468v-.924c-1.932-.252-1.932-.476-1.932-1.68v-7.364c.896-2.492 3.332-3.164 4.648-1.596h.784zm10.976 5.432h-6.636c.336-2.94 1.792-4.424 3.668-4.424 1.932 0 3.192 1.568 2.968 4.424m-9.352 2.016c0 7.588 7.28 8.82 11.732 5.824v-1.204c-3.864 2.1-9.072 1.68-9.072-5.348v-.028h9.268c.364-4.396-1.764-6.916-5.32-6.916-3.752 0-6.608 2.884-6.608 7.672m32.396-6.916c-5.46-2.156-11.144.364-11.172 6.888-.028 7.196 6.86 8.932 11.284 6.02v-1.148c-4.284 2.184-8.568.504-8.568-5.432 0-4.732 2.8-6.608 5.992-5.544l.672 2.464h1.792zm6.86-7.812-4.452.784v.756c1.932.336 1.932.448 1.932 1.372v16.1c0 1.232 0 1.456-2.016 1.68V88h6.468v-.924c-1.932-.252-1.932-.476-1.932-1.68v-8.204c1.148-1.428 2.52-2.016 3.724-2.016 1.512 0 2.828.924 2.828 3.444v6.776c0 1.232 0 1.456-2.016 1.68V88h6.468v-.924c-1.932-.252-1.932-.476-1.932-1.68v-7.364c0-2.996-1.708-4.592-4.312-4.592-1.876 0-3.556.812-4.76 2.296zm22.624 12.712h-6.636c.336-2.94 1.792-4.424 3.668-4.424 1.932 0 3.192 1.568 2.968 4.424m-9.352 2.016c0 7.588 7.28 8.82 11.732 5.824v-1.204c-3.864 2.1-9.072 1.68-9.072-5.348v-.028h9.268c.364-4.396-1.764-6.916-5.32-6.916-3.752 0-6.608 2.884-6.608 7.672m18.788-7.56-4.368.756v.756c1.932.336 1.932.448 1.932 1.372v8.96c0 1.232 0 1.456-2.016 1.68V88h6.468v-.924c-1.932-.252-1.932-.476-1.932-1.68V77.22c1.092-1.428 2.38-2.044 3.556-2.044 1.456 0 2.66.924 2.66 3.444v6.776c0 1.232 0 1.456-2.016 1.68V88h6.468v-.924c-1.932-.252-1.932-.476-1.932-1.68v-7.364q0-.588-.084-1.092c1.204-1.232 2.436-1.764 3.556-1.764 1.484 0 2.716.924 2.716 3.444v6.776c0 1.232 0 1.456-2.016 1.68V88h6.468v-.924c-1.932-.252-1.932-.476-1.932-1.68v-7.364c0-2.996-1.652-4.592-4.172-4.592-1.876 0-3.584.84-4.928 2.38-.616-1.568-1.932-2.38-3.724-2.38-1.848 0-3.5.84-4.704 2.38zm26.096-.028-4.452.784v.756c1.932.336 1.932.448 1.932 1.372v8.96c0 1.232 0 1.456-2.016 1.68V88h6.468v-.924c-1.932-.252-1.932-.476-1.932-1.68zm-3.136-4.676a1.72 1.72 0 0 0 1.736 1.708 1.72 1.72 0 0 0 1.736-1.708 1.72 1.72 0 0 0-1.736-1.708 1.72 1.72 0 0 0-1.736 1.708m18.676 5.348c-5.46-2.156-11.144.364-11.172 6.888-.028 7.196 6.86 8.932 11.284 6.02v-1.148c-4.284 2.184-8.568.504-8.568-5.432 0-4.732 2.8-6.608 5.992-5.544l.672 2.464h1.792zm3.528.896v2.716h1.82l.644-2.492c1.736-1.008 4.956-1.064 4.956 2.52v1.68c-4.368.616-8.344 1.316-8.344 5.096 0 4.312 5.768 5.096 8.484 1.82.336 2.212 2.604 2.324 4.424 1.176v-.784c-1.54.392-2.072-.56-2.072-1.876v-7.56c0-4.816-6.132-4.76-9.912-2.296m1.792 9.1c0-2.464 1.988-2.94 5.628-3.472v4.396c-2.156 2.66-5.628 2.1-5.628-.924m16.52-17.808-4.452.784v.756c1.932.336 1.932.448 1.932 1.372v16.1c0 1.232 0 1.456-2.016 1.68V88h6.468v-.924c-1.932-.252-1.932-.476-1.932-1.68zm-303.52 41.812c-5.46-2.156-11.144.364-11.172 6.888-.028 7.196 6.86 8.932 11.284 6.02v-1.148c-4.284 2.184-8.568.504-8.568-5.432 0-4.732 2.8-6.608 5.992-5.544l.672 2.464h1.792zm9.66-.756c-4.172 0-7.084 3.052-7.084 7.504 0 4.424 2.772 7.504 6.776 7.504 4.116 0 7-3.22 7-7.868 0-4.2-2.744-7.14-6.692-7.14m-.14 1.26c2.548 0 4.116 2.324 4.116 6.104 0 3.948-1.568 6.356-4.116 6.356-2.632 0-4.228-2.492-4.228-6.496 0-3.724 1.596-5.964 4.228-5.964m13.804-1.148-4.368.756v.756c1.932.336 1.932.448 1.932 1.372v8.96c0 1.232 0 1.456-2.016 1.68V122h6.468v-.924c-1.932-.252-1.932-.476-1.932-1.68v-8.176c1.092-1.428 2.38-2.044 3.556-2.044 1.456 0 2.66.924 2.66 3.444v6.776c0 1.232 0 1.456-2.016 1.68V122h6.468v-.924c-1.932-.252-1.932-.476-1.932-1.68v-7.364q0-.588-.084-1.092c1.204-1.232 2.436-1.764 3.556-1.764 1.484 0 2.716.924 2.716 3.444v6.776c0 1.232 0 1.456-2.016 1.68V122H87.3v-.924c-1.932-.252-1.932-.476-1.932-1.68v-7.364c0-2.996-1.652-4.592-4.172-4.592-1.876 0-3.584.84-4.928 2.38-.616-1.568-1.932-2.38-3.724-2.38-1.848 0-3.5.84-4.704 2.38zm25.844 0-4.368.756v.756c1.932.336 1.932.448 1.932 1.372v15.428c0 1.232 0 1.456-2.016 1.68v.924h6.748v-.924c-2.212-.252-2.212-.476-2.212-1.68v-4.144a7 7 0 0 0 3.164.728c4.116 0 6.832-3.276 6.832-7.98 0-4.34-2.296-7.028-5.712-7.028-1.68 0-3.08.616-4.368 1.988zm.084 11.984V110.8c1.316-1.428 2.408-1.764 3.444-1.764 2.52 0 3.836 2.044 3.836 5.712 0 4.032-1.484 6.384-4.088 6.384-1.26 0-2.324-.588-3.192-1.596m19.768-12.096c-4.172 0-7.084 3.052-7.084 7.504 0 4.424 2.772 7.504 6.776 7.504 4.116 0 7-3.22 7-7.868 0-4.2-2.744-7.14-6.692-7.14m-.14 1.26c2.548 0 4.116 2.324 4.116 6.104 0 3.948-1.568 6.356-4.116 6.356-2.632 0-4.228-2.492-4.228-6.496 0-3.724 1.596-5.964 4.228-5.964m19.74 13.636 4.48-.784v-.784c-2.044-.336-2.044-.448-2.044-1.428v-11.816l-4.452.784v.756c1.932.336 1.932.448 1.932 1.372v8.624c-1.036 1.148-2.184 1.624-3.36 1.624-1.792 0-2.912-1.092-2.912-3.948v-9.212l-4.452.784v.756c1.932.336 1.932.448 1.932 1.372v6.888c0 3.416 1.596 5.124 4.452 5.124 1.764 0 3.164-.644 4.424-2.072zm11.004-14.784-4.368.756v.756c1.932.336 1.932.448 1.932 1.372v8.96c0 1.232 0 1.456-2.016 1.68V122h6.468v-.924c-1.932-.252-1.932-.476-1.932-1.68v-8.204c1.148-1.428 2.52-2.016 3.724-2.016 1.512 0 2.828.924 2.828 3.444v6.776c0 1.232 0 1.456-2.016 1.68V122h6.468v-.924c-1.932-.252-1.932-.476-1.932-1.68v-7.364c0-2.996-1.708-4.592-4.312-4.592-1.904 0-3.612.868-4.844 2.408zm23.436 14.784 4.48-.784v-.784c-2.044-.336-2.044-.448-2.044-1.428v-18.956l-4.452.784v.756c1.932.336 1.932.448 1.932 1.372v4.844c-.952-.476-1.988-.7-3.136-.7-3.892 0-6.86 2.996-6.86 7.868 0 4.284 2.268 7.14 5.88 7.14 1.708 0 2.968-.644 4.2-1.932zm-7.364-7.42c0-3.92 1.624-6.16 4.088-6.16 1.4 0 2.464.672 3.192 1.876v8.568c-1.148 1.176-2.212 1.596-3.304 1.596-2.576 0-3.976-2.24-3.976-5.88m23.128-3.78v-2.772c-3.332-1.82-8.96-1.008-8.96 3.08 0 4.508 7.252 4.004 7.252 7.308 0 2.548-3.248 3.024-5.096 1.848l-.84-2.324h-1.372v3.192c4.06 2.016 9.632.952 9.604-3.416-.028-4.788-7.42-4.144-7.42-7.252 0-2.212 3.276-2.604 4.62-1.624l.812 1.96zm18.172 10.332v-1.148c-2.688 1.092-4.48.504-4.48-2.352v-8.708h4.34V108h-4.34v-3.416h-1.344L194.064 108h-1.484v1.26h1.932v9.156c0 4.536 4.032 4.648 7 3.052m6.076-21.084-4.452.784v.756c1.932.336 1.932.448 1.932 1.372v16.1c0 1.232 0 1.456-2.016 1.68V122h6.468v-.924c-1.932-.252-1.932-.476-1.932-1.68v-8.204c1.148-1.428 2.52-2.016 3.724-2.016 1.512 0 2.828.924 2.828 3.444v6.776c0 1.232 0 1.456-2.016 1.68V122h6.468v-.924c-1.932-.252-1.932-.476-1.932-1.68v-7.364c0-2.996-1.708-4.592-4.312-4.592-1.876 0-3.556.812-4.76 2.296zm14.224 8.708v2.716h1.82l.644-2.492c1.736-1.008 4.956-1.064 4.956 2.52v1.68c-4.368.616-8.344 1.316-8.344 5.096 0 4.312 5.768 5.096 8.484 1.82.336 2.212 2.604 2.324 4.424 1.176v-.784c-1.54.392-2.072-.56-2.072-1.876v-7.56c0-4.816-6.132-4.76-9.912-2.296m1.792 9.1c0-2.464 1.988-2.94 5.628-3.472v4.396c-2.156 2.66-5.628 2.1-5.628-.924m20.58 3.276v-1.148c-2.688 1.092-4.48.504-4.48-2.352v-8.708h4.34V108h-4.34v-3.416h-1.344L236.736 108h-1.484v1.26h1.932v9.156c0 4.536 4.032 4.648 7 3.052m18.592.868 4.48-.784v-.784c-2.044-.336-2.044-.448-2.044-1.428v-18.956l-4.452.784v.756c1.932.336 1.932.448 1.932 1.372v4.844c-.952-.476-1.988-.7-3.136-.7-3.892 0-6.86 2.996-6.86 7.868 0 4.284 2.268 7.14 5.88 7.14 1.708 0 2.968-.644 4.2-1.932zm-7.364-7.42c0-3.92 1.624-6.16 4.088-6.16 1.4 0 2.464.672 3.192 1.876v8.568c-1.148 1.176-2.212 1.596-3.304 1.596-2.576 0-3.976-2.24-3.976-5.88m23.436-1.82h-6.636c.336-2.94 1.792-4.424 3.668-4.424 1.932 0 3.192 1.568 2.968 4.424m-9.352 2.016c0 7.588 7.28 8.82 11.732 5.824v-1.204c-3.864 2.1-9.072 1.68-9.072-5.348v-.028h9.268c.364-4.396-1.764-6.916-5.32-6.916-3.752 0-6.608 2.884-6.608 7.672m25.676-6.916c-5.46-2.156-11.144.364-11.172 6.888-.028 7.196 6.86 8.932 11.284 6.02v-1.148c-4.284 2.184-8.568.504-8.568-5.432 0-4.732 2.8-6.608 5.992-5.544l.672 2.464h1.792zm12.376-.532c-2.324-.476-4.396.14-5.516 2.66v-2.772l-4.368.756v.756c1.932.336 1.932.448 1.932 1.372v8.96c0 1.232 0 1.456-2.016 1.68V122h6.468v-.924c-1.932-.252-1.932-.476-1.932-1.68v-7.364c.896-2.492 3.332-3.164 4.648-1.596h.784zm10.976 5.432h-6.636c.336-2.94 1.792-4.424 3.668-4.424 1.932 0 3.192 1.568 2.968 4.424m-9.352 2.016c0 7.588 7.28 8.82 11.732 5.824v-1.204c-3.864 2.1-9.072 1.68-9.072-5.348v-.028h9.268c.364-4.396-1.764-6.916-5.32-6.916-3.752 0-6.608 2.884-6.608 7.672m15.456-6.02v2.716h1.82l.644-2.492c1.736-1.008 4.956-1.064 4.956 2.52v1.68c-4.368.616-8.344 1.316-8.344 5.096 0 4.312 5.768 5.096 8.484 1.82.336 2.212 2.604 2.324 4.424 1.176v-.784c-1.54.392-2.072-.56-2.072-1.876v-7.56c0-4.816-6.132-4.76-9.912-2.296m1.792 9.1c0-2.464 1.988-2.94 5.628-3.472v4.396c-2.156 2.66-5.628 2.1-5.628-.924m21.28-7.056v-2.772c-3.332-1.82-8.96-1.008-8.96 3.08 0 4.508 7.252 4.004 7.252 7.308 0 2.548-3.248 3.024-5.096 1.848l-.84-2.324h-1.372v3.192c4.06 2.016 9.632.952 9.604-3.416-.028-4.788-7.42-4.144-7.42-7.252 0-2.212 3.276-2.604 4.62-1.624l.812 1.96zm12.46 1.96h-6.636c.336-2.94 1.792-4.424 3.668-4.424 1.932 0 3.192 1.568 2.968 4.424m-9.352 2.016c0 7.588 7.28 8.82 11.732 5.824v-1.204c-3.864 2.1-9.072 1.68-9.072-5.348v-.028h9.268c.364-4.396-1.764-6.916-5.32-6.916-3.752 0-6.608 2.884-6.608 7.672m-309.12 40.356v-1.148c-2.688 1.092-4.48.504-4.48-2.352v-8.708h4.34V142h-4.34v-3.416h-1.344L34.24 142h-1.484v1.26h1.932v9.156c0 4.536 4.032 4.648 7 3.052m6.076-21.084-4.452.784v.756c1.932.336 1.932.448 1.932 1.372v16.1c0 1.232 0 1.456-2.016 1.68V156h6.468v-.924c-1.932-.252-1.932-.476-1.932-1.68v-8.204c1.148-1.428 2.52-2.016 3.724-2.016 1.512 0 2.828.924 2.828 3.444v6.776c0 1.232 0 1.456-2.016 1.68V156h6.468v-.924c-1.932-.252-1.932-.476-1.932-1.68v-7.364c0-2.996-1.708-4.592-4.312-4.592-1.876 0-3.556.812-4.76 2.296zm22.624 12.712h-6.636c.336-2.94 1.792-4.424 3.668-4.424 1.932 0 3.192 1.568 2.968 4.424m-9.352 2.016c0 7.588 7.28 8.82 11.732 5.824v-1.204c-3.864 2.1-9.072 1.68-9.072-5.348v-.028h9.268c.364-4.396-1.764-6.916-5.32-6.916-3.752 0-6.608 2.884-6.608 7.672m30.268-3.976v-2.772c-3.332-1.82-8.96-1.008-8.96 3.08 0 4.508 7.252 4.004 7.252 7.308 0 2.548-3.248 3.024-5.096 1.848l-.84-2.324h-1.372v3.192c4.06 2.016 9.632.952 9.604-3.416-.028-4.788-7.42-4.144-7.42-7.252 0-2.212 3.276-2.604 4.62-1.624l.812 1.96zm13.328 11.2 4.48-.784v-.784c-2.044-.336-2.044-.448-2.044-1.428v-11.816l-4.452.784v.756c1.932.336 1.932.448 1.932 1.372v8.624c-1.036 1.148-2.184 1.624-3.36 1.624-1.792 0-2.912-1.092-2.912-3.948v-9.212l-4.452.784v.756c1.932.336 1.932.448 1.932 1.372v6.888c0 3.416 1.596 5.124 4.452 5.124 1.764 0 3.164-.644 4.424-2.072zm16.52-14.672c-2.324-.476-4.396.14-5.516 2.66v-2.772l-4.368.756v.756c1.932.336 1.932.448 1.932 1.372v8.96c0 1.232 0 1.456-2.016 1.68V156h6.468v-.924c-1.932-.252-1.932-.476-1.932-1.68v-7.364c.896-2.492 3.332-3.164 4.648-1.596h.784zm11.536-6.524c-3.164-1.428-8.064-.896-8.064 4.676V142h-2.1v1.26h2.1v10.136c0 1.232 0 1.456-2.016 1.68V156h6.664v-.924c-2.128-.252-2.128-.476-2.128-1.68V143.26h3.724V142h-3.724v-3.22c0-3.276 2.1-3.444 3.332-2.856l.672 2.044h1.54zm.896 7.952v2.716h1.82l.644-2.492c1.736-1.008 4.956-1.064 4.956 2.52v1.68c-4.368.616-8.344 1.316-8.344 5.096 0 4.312 5.768 5.096 8.484 1.82.336 2.212 2.604 2.324 4.424 1.176v-.784c-1.54.392-2.072-.56-2.072-1.876v-7.56c0-4.816-6.132-4.76-9.912-2.296m1.792 9.1c0-2.464 1.988-2.94 5.628-3.472v4.396c-2.156 2.66-5.628 2.1-5.628-.924m23.408-9.996c-5.46-2.156-11.144.364-11.172 6.888-.028 7.196 6.86 8.932 11.284 6.02v-1.148c-4.284 2.184-8.568.504-8.568-5.432 0-4.732 2.8-6.608 5.992-5.544l.672 2.464h1.792zm11.928 4.9h-6.636c.336-2.94 1.792-4.424 3.668-4.424 1.932 0 3.192 1.568 2.968 4.424m-9.352 2.016c0 7.588 7.28 8.82 11.732 5.824v-1.204c-3.864 2.1-9.072 1.68-9.072-5.348v-.028h9.268c.364-4.396-1.764-6.916-5.32-6.916-3.752 0-6.608 2.884-6.608 7.672m29.568 6.356v-1.148c-2.688 1.092-4.48.504-4.48-2.352v-8.708h4.34V142h-4.34v-3.416h-1.344L183.48 142h-1.484v1.26h1.932v9.156c0 4.536 4.032 4.648 7 3.052m11.144-8.372h-6.636c.336-2.94 1.792-4.424 3.668-4.424 1.932 0 3.192 1.568 2.968 4.424m-9.352 2.016c0 7.588 7.28 8.82 11.732 5.824v-1.204c-3.864 2.1-9.072 1.68-9.072-5.348v-.028h9.268c.364-4.396-1.764-6.916-5.32-6.916-3.752 0-6.608 2.884-6.608 7.672m18.788-7.56-4.368.756v.756c1.932.336 1.932.448 1.932 1.372v8.96c0 1.232 0 1.456-2.016 1.68V156h6.468v-.924c-1.932-.252-1.932-.476-1.932-1.68v-8.204c1.148-1.428 2.52-2.016 3.724-2.016 1.512 0 2.828.924 2.828 3.444v6.776c0 1.232 0 1.456-2.016 1.68V156h6.468v-.924c-1.932-.252-1.932-.476-1.932-1.68v-7.364c0-2.996-1.708-4.592-4.312-4.592-1.904 0-3.612.868-4.844 2.408zm22.4 3.584v-2.772c-3.332-1.82-8.96-1.008-8.96 3.08 0 4.508 7.252 4.004 7.252 7.308 0 2.548-3.248 3.024-5.096 1.848l-.84-2.324h-1.372v3.192c4.06 2.016 9.632.952 9.604-3.416-.028-4.788-7.42-4.144-7.42-7.252 0-2.212 3.276-2.604 4.62-1.624l.812 1.96zm7.476-3.612-4.452.784v.756c1.932.336 1.932.448 1.932 1.372v8.96c0 1.232 0 1.456-2.016 1.68V156h6.468v-.924c-1.932-.252-1.932-.476-1.932-1.68zm-3.136-4.676a1.72 1.72 0 0 0 1.736 1.708 1.72 1.72 0 0 0 1.736-1.708 1.72 1.72 0 0 0-1.736-1.708 1.72 1.72 0 0 0-1.736 1.708m14.588 4.592c-4.172 0-7.084 3.052-7.084 7.504 0 4.424 2.772 7.504 6.776 7.504 4.116 0 7-3.22 7-7.868 0-4.2-2.744-7.14-6.692-7.14m-.14 1.26c2.548 0 4.116 2.324 4.116 6.104 0 3.948-1.568 6.356-4.116 6.356-2.632 0-4.228-2.492-4.228-6.496 0-3.724 1.596-5.964 4.228-5.964m13.804-1.148-4.368.756v.756c1.932.336 1.932.448 1.932 1.372v8.96c0 1.232 0 1.456-2.016 1.68V156h6.468v-.924c-1.932-.252-1.932-.476-1.932-1.68v-8.204c1.148-1.428 2.52-2.016 3.724-2.016 1.512 0 2.828.924 2.828 3.444v6.776c0 1.232 0 1.456-2.016 1.68V156h6.468v-.924c-1.932-.252-1.932-.476-1.932-1.68v-7.364c0-2.996-1.708-4.592-4.312-4.592-1.904 0-3.612.868-4.844 2.408zm27.16-.112c-4.172 0-7.084 3.052-7.084 7.504 0 4.424 2.772 7.504 6.776 7.504 4.116 0 7-3.22 7-7.868 0-4.2-2.744-7.14-6.692-7.14m-.14 1.26c2.548 0 4.116 2.324 4.116 6.104 0 3.948-1.568 6.356-4.116 6.356-2.632 0-4.228-2.492-4.228-6.496 0-3.724 1.596-5.964 4.228-5.964m19.32-1.036c-2.324-.476-4.396.14-5.516 2.66v-2.772l-4.368.756v.756c1.932.336 1.932.448 1.932 1.372v8.96c0 1.232 0 1.456-2.016 1.68V156h6.468v-.924c-1.932-.252-1.932-.476-1.932-1.68v-7.364c.896-2.492 3.332-3.164 4.648-1.596h.784zm-275.128 33.86-4.452.784v.756c1.932.336 1.932.448 1.932 1.372v8.96c0 1.232 0 1.456-2.016 1.68V190h6.468v-.924c-1.932-.252-1.932-.476-1.932-1.68zm-3.136-4.676a1.72 1.72 0 0 0 1.736 1.708 1.72 1.72 0 0 0 1.736-1.708 1.72 1.72 0 0 0-1.736-1.708 1.72 1.72 0 0 0-1.736 1.708m11.788 4.704-4.368.756v.756c1.932.336 1.932.448 1.932 1.372v8.96c0 1.232 0 1.456-2.016 1.68V190h6.468v-.924c-1.932-.252-1.932-.476-1.932-1.68v-8.204c1.148-1.428 2.52-2.016 3.724-2.016 1.512 0 2.828.924 2.828 3.444v6.776c0 1.232 0 1.456-2.016 1.68V190h6.468v-.924c-1.932-.252-1.932-.476-1.932-1.68v-7.364c0-2.996-1.708-4.592-4.312-4.592-1.904 0-3.612.868-4.844 2.408zm21.7 13.916v-1.148c-2.688 1.092-4.48.504-4.48-2.352v-8.708h4.34V176h-4.34v-3.416H62.24L60.616 176h-1.484v1.26h1.932v9.156c0 4.536 4.032 4.648 7 3.052m11.144-8.372h-6.636c.336-2.94 1.792-4.424 3.668-4.424 1.932 0 3.192 1.568 2.968 4.424m-9.352 2.016c0 7.588 7.28 8.82 11.732 5.824v-1.204c-3.864 2.1-9.072 1.68-9.072-5.348v-.028h9.268c.364-4.396-1.764-6.916-5.32-6.916-3.752 0-6.608 2.884-6.608 7.672m24.304-7.448c-2.324-.476-4.396.14-5.516 2.66v-2.772l-4.368.756v.756c1.932.336 1.932.448 1.932 1.372v8.96c0 1.232 0 1.456-2.016 1.68V190h6.468v-.924c-1.932-.252-1.932-.476-1.932-1.68v-7.364c.896-2.492 3.332-3.164 4.648-1.596h.784zm11.536-6.524c-3.164-1.428-8.064-.896-8.064 4.676V176h-2.1v1.26h2.1v10.136c0 1.232 0 1.456-2.016 1.68V190h6.664v-.924c-2.128-.252-2.128-.476-2.128-1.68V177.26h3.724V176h-3.724v-3.22c0-3.276 2.1-3.444 3.332-2.856l.672 2.044h1.54zm.896 7.952v2.716h1.82l.644-2.492c1.736-1.008 4.956-1.064 4.956 2.52v1.68c-4.368.616-8.344 1.316-8.344 5.096 0 4.312 5.768 5.096 8.484 1.82.336 2.212 2.604 2.324 4.424 1.176v-.784c-1.54.392-2.072-.56-2.072-1.876v-7.56c0-4.816-6.132-4.76-9.912-2.296m1.792 9.1c0-2.464 1.988-2.94 5.628-3.472v4.396c-2.156 2.66-5.628 2.1-5.628-.924m23.408-9.996c-5.46-2.156-11.144.364-11.172 6.888-.028 7.196 6.86 8.932 11.284 6.02v-1.148c-4.284 2.184-8.568.504-8.568-5.432 0-4.732 2.8-6.608 5.992-5.544l.672 2.464h1.792zm6.944-.672-4.452.784v.756c1.932.336 1.932.448 1.932 1.372v8.96c0 1.232 0 1.456-2.016 1.68V190h6.468v-.924c-1.932-.252-1.932-.476-1.932-1.68zm-3.136-4.676a1.72 1.72 0 0 0 1.736 1.708 1.72 1.72 0 0 0 1.736-1.708 1.72 1.72 0 0 0-1.736-1.708 1.72 1.72 0 0 0-1.736 1.708m8.456 6.244v2.716h1.82l.644-2.492c1.736-1.008 4.956-1.064 4.956 2.52v1.68c-4.368.616-8.344 1.316-8.344 5.096 0 4.312 5.768 5.096 8.484 1.82.336 2.212 2.604 2.324 4.424 1.176v-.784c-1.54.392-2.072-.56-2.072-1.876v-7.56c0-4.816-6.132-4.76-9.912-2.296m1.792 9.1c0-2.464 1.988-2.94 5.628-3.472v4.396c-2.156 2.66-5.628 2.1-5.628-.924m16.52-17.808-4.452.784v.756c1.932.336 1.932.448 1.932 1.372v16.1c0 1.232 0 1.456-2.016 1.68V190h6.468v-.924c-1.932-.252-1.932-.476-1.932-1.68zm19.432 21.084v-1.148c-2.688 1.092-4.48.504-4.48-2.352v-8.708h4.34V176h-4.34v-3.416h-1.344L174.352 176h-1.484v1.26h1.932v9.156c0 4.536 4.032 4.648 7 3.052m11.144-8.372h-6.636c.336-2.94 1.792-4.424 3.668-4.424 1.932 0 3.192 1.568 2.968 4.424m-9.352 2.016c0 7.588 7.28 8.82 11.732 5.824v-1.204c-3.864 2.1-9.072 1.68-9.072-5.348v-.028h9.268c.364-4.396-1.764-6.916-5.32-6.916-3.752 0-6.608 2.884-6.608 7.672m18.788-7.56-4.368.756v.756c1.932.336 1.932.448 1.932 1.372v8.96c0 1.232 0 1.456-2.016 1.68V190h6.468v-.924c-1.932-.252-1.932-.476-1.932-1.68v-8.204c1.148-1.428 2.52-2.016 3.724-2.016 1.512 0 2.828.924 2.828 3.444v6.776c0 1.232 0 1.456-2.016 1.68V190h6.468v-.924c-1.932-.252-1.932-.476-1.932-1.68v-7.364c0-2.996-1.708-4.592-4.312-4.592-1.904 0-3.612.868-4.844 2.408zm22.4 3.584v-2.772c-3.332-1.82-8.96-1.008-8.96 3.08 0 4.508 7.252 4.004 7.252 7.308 0 2.548-3.248 3.024-5.096 1.848l-.84-2.324h-1.372v3.192c4.06 2.016 9.632.952 9.604-3.416-.028-4.788-7.42-4.144-7.42-7.252 0-2.212 3.276-2.604 4.62-1.624l.812 1.96zm7.476-3.612-4.452.784v.756c1.932.336 1.932.448 1.932 1.372v8.96c0 1.232 0 1.456-2.016 1.68V190h6.468v-.924c-1.932-.252-1.932-.476-1.932-1.68zm-3.136-4.676a1.72 1.72 0 0 0 1.736 1.708 1.72 1.72 0 0 0 1.736-1.708 1.72 1.72 0 0 0-1.736-1.708 1.72 1.72 0 0 0-1.736 1.708m14.588 4.592c-4.172 0-7.084 3.052-7.084 7.504 0 4.424 2.772 7.504 6.776 7.504 4.116 0 7-3.22 7-7.868 0-4.2-2.744-7.14-6.692-7.14m-.14 1.26c2.548 0 4.116 2.324 4.116 6.104 0 3.948-1.568 6.356-4.116 6.356-2.632 0-4.228-2.492-4.228-6.496 0-3.724 1.596-5.964 4.228-5.964m13.804-1.148-4.368.756v.756c1.932.336 1.932.448 1.932 1.372v8.96c0 1.232 0 1.456-2.016 1.68V190h6.468v-.924c-1.932-.252-1.932-.476-1.932-1.68v-8.204c1.148-1.428 2.52-2.016 3.724-2.016 1.512 0 2.828.924 2.828 3.444v6.776c0 1.232 0 1.456-2.016 1.68V190h6.468v-.924c-1.932-.252-1.932-.476-1.932-1.68v-7.364c0-2.996-1.708-4.592-4.312-4.592-1.904 0-3.612.868-4.844 2.408zm14.056 12.852c0 1.036.784 1.82 1.82 1.82s1.82-.784 1.82-1.82-.784-1.82-1.82-1.82-1.82.784-1.82 1.82M48.1 224.512H32.7v4.508h1.204l.84-3.164h4.312v15.372c0 1.288 0 1.596-2.408 1.848V244h7.42v-.924c-2.324-.28-2.324-.588-2.324-1.848v-15.372h4.396l.672 3.08H48.1zm6.328-2.128-4.452.784v.756c1.932.336 1.932.448 1.932 1.372v16.1c0 1.232 0 1.456-2.016 1.68V244h6.468v-.924c-1.932-.252-1.932-.476-1.932-1.68v-8.204c1.148-1.428 2.52-2.016 3.724-2.016 1.512 0 2.828.924 2.828 3.444v6.776c0 1.232 0 1.456-2.016 1.68V244h6.468v-.924c-1.932-.252-1.932-.476-1.932-1.68v-7.364c0-2.996-1.708-4.592-4.312-4.592-1.876 0-3.556.812-4.76 2.296zm22.624 12.712h-6.636c.336-2.94 1.792-4.424 3.668-4.424 1.932 0 3.192 1.568 2.968 4.424m-9.352 2.016c0 7.588 7.28 8.82 11.732 5.824v-1.204c-3.864 2.1-9.072 1.68-9.072-5.348v-.028h9.268c.364-4.396-1.764-6.916-5.32-6.916-3.752 0-6.608 2.884-6.608 7.672m21.924-4.816 3.584 11.872h1.484l3.948-10.584 3.696 10.584h1.484l3.808-11.872c.336-1.12.476-1.316 1.736-1.54v-.868h-4.984v.868c2.324.252 2.184.448 1.848 1.54l-2.632 8.26-3.696-10.668h-1.288l-3.948 10.696-2.464-8.288c-.308-1.12-.448-1.316 1.708-1.54v-.868h-5.992v.868c1.232.252 1.372.448 1.708 1.54m28.28-2.856c-4.172 0-7.084 3.052-7.084 7.504 0 4.424 2.772 7.504 6.776 7.504 4.116 0 7-3.22 7-7.868 0-4.2-2.744-7.14-6.692-7.14m-.14 1.26c2.548 0 4.116 2.324 4.116 6.104 0 3.948-1.568 6.356-4.116 6.356-2.632 0-4.228-2.492-4.228-6.496 0-3.724 1.596-5.964 4.228-5.964m19.32-1.036c-2.324-.476-4.396.14-5.516 2.66v-2.772l-4.368.756v.756c1.932.336 1.932.448 1.932 1.372v8.96c0 1.232 0 1.456-2.016 1.68V244h6.468v-.924c-1.932-.252-1.932-.476-1.932-1.68v-7.364c.896-2.492 3.332-3.164 4.648-1.596h.784zm11.704 14.672 4.48-.784v-.784c-2.044-.336-2.044-.448-2.044-1.428v-18.956l-4.452.784v.756c1.932.336 1.932.448 1.932 1.372v4.844c-.952-.476-1.988-.7-3.136-.7-3.892 0-6.86 2.996-6.86 7.868 0 4.284 2.268 7.14 5.88 7.14 1.708 0 2.968-.644 4.2-1.932zm-7.364-7.42c0-3.92 1.624-6.16 4.088-6.16 1.4 0 2.464.672 3.192 1.876v8.568c-1.148 1.176-2.212 1.596-3.304 1.596-2.576 0-3.976-2.24-3.976-5.88m30.184-3.668.532-2.828c-3.472-1.904-8.204-.98-8.876 2.352-.812 4.2 6.048 5.18 5.376 8.428-.392 1.932-2.996 2.66-5.04 1.232l-.448-2.324h-1.176l-.644 3.136c4.032 2.324 8.876 1.148 9.604-2.436.924-4.536-6.104-5.432-5.544-8.344.336-1.652 2.744-2.38 4.592-1.12l.392 1.904zm14.28 6.524 2.072-10.248-4.62.784-.14.756c1.848.336 1.848.364 1.652 1.372l-1.288 6.524c-1.82 2.576-3.108 3.612-4.508 3.612-1.372 0-1.988-.98-1.456-3.584l1.904-9.464-4.62.784-.14.756c1.848.336 1.848.364 1.652 1.372l-1.372 6.888c-.672 3.416.588 5.124 3.08 5.124 1.736 0 3.388-.868 5.152-3.472-.392 3.752 2.492 3.892 4.704 2.548l.224-1.064c-2.044.7-2.912.308-2.296-2.688m10.304-10.22-4.536.756-.14.756c1.848.336 1.848.364 1.652 1.372L190.872 244h2.52l1.484-7.532c2.352-4.9 4.34-5.32 5.46-4.088h.532l.56-2.716c-2.156-.448-4.032.112-6.104 4.116zm17.78-6.44c-2.856-1.176-7.924-1.064-9.156 5.012l-.364 1.876h-2.548l-.252 1.26h2.548l-3.864 19.208h2.52l3.836-19.208h3.752l.252-1.26h-3.752l.476-2.408c.756-3.724 2.744-4.228 4.144-3.472l.392 2.016h1.4zm8.484 16.66 2.044-10.164h-1.232l-.616.476c-1.12-.448-2.128-.644-3.024-.644-3.724 0-7.392 3.024-8.456 8.12-.868 4.284.728 6.888 3.668 6.888 1.988 0 3.64-1.204 4.984-3.164-.224 3.444 2.548 3.528 4.704 2.24l.224-1.064c-2.044.7-2.912.308-2.296-2.688m-8.54-2.968c.728-3.22 2.604-6.02 5.068-6.02.896 0 1.82.364 2.548 1.204l-1.456 7.14c-1.008 1.596-2.66 3.612-4.368 3.612-1.988 0-2.492-2.8-1.792-5.936M239.032 230c-3.92-1.54-10.164 0-11.564 6.692-1.568 7.42 5.292 9.548 9.772 6.244l.336-1.652c-5.516 3.584-8.484.588-7.448-4.76 1.036-5.292 4.816-6.216 6.3-5.6l.504 2.436h1.428zm8.54 13.216.252-1.232c-2.94 1.344-4.844 1.064-4.172-2.352l1.68-8.372h3.864l.252-1.26h-3.864l.812-4.088-2.604.476-.728 3.612h-2.352l-.252 1.26h2.352l-1.708 8.624c-1.064 5.292 3.612 5.348 6.468 3.332m14.168-3.444 2.044-10.164h-1.232l-.616.476c-1.12-.448-2.128-.644-3.024-.644-3.724 0-7.392 3.024-8.456 8.12-.868 4.284.728 6.888 3.668 6.888 1.988 0 3.64-1.204 4.984-3.164-.224 3.444 2.548 3.528 4.704 2.24l.224-1.064c-2.044.7-2.912.308-2.296-2.688m-8.54-2.968c.728-3.22 2.604-6.02 5.068-6.02.896 0 1.82.364 2.548 1.204l-1.456 7.14c-1.008 1.596-2.66 3.612-4.368 3.612-1.988 0-2.492-2.8-1.792-5.936m18.844-7.252-4.536.756-.14.756c1.848.336 1.848.364 1.652 1.372L266.724 244h2.52l1.68-8.484c2.128-3.444 3.752-4.34 4.956-4.34s1.596.868 1.148 3.052l-1.26 6.048c-.924 4.396 2.324 4.732 4.592 3.22l.224-1.036c-1.96.756-2.856.336-2.212-2.688l1.316-6.244c.532-2.52-.504-4.088-2.772-4.088-1.624 0-3.556.812-5.6 3.724zm18.508 13.664.252-1.232c-2.94 1.344-4.844 1.064-4.172-2.352l1.68-8.372h3.864l.252-1.26h-3.864l.812-4.088-2.604.476-.728 3.612h-2.352l-.252 1.26h2.352l-1.708 8.624c-1.064 5.292 3.612 5.348 6.468 3.332m14.084-13.692-4.452.784v.756c1.932.336 1.932.448 1.932 1.372v8.96c0 1.232 0 1.456-2.016 1.68V244h6.468v-.924c-1.932-.252-1.932-.476-1.932-1.68zm-3.136-4.676a1.72 1.72 0 0 0 1.736 1.708 1.72 1.72 0 0 0 1.736-1.708 1.72 1.72 0 0 0-1.736-1.708 1.72 1.72 0 0 0-1.736 1.708m16.548 8.288v-2.772c-3.332-1.82-8.96-1.008-8.96 3.08 0 4.508 7.252 4.004 7.252 7.308 0 2.548-3.248 3.024-5.096 1.848l-.84-2.324h-1.372v3.192c4.06 2.016 9.632.952 9.604-3.416-.028-4.788-7.42-4.144-7.42-7.252 0-2.212 3.276-2.604 4.62-1.624l.812 1.96zm10.78-2.044v2.716h1.82l.644-2.492c1.736-1.008 4.956-1.064 4.956 2.52v1.68c-4.368.616-8.344 1.316-8.344 5.096 0 4.312 5.768 5.096 8.484 1.82.336 2.212 2.604 2.324 4.424 1.176v-.784c-1.54.392-2.072-.56-2.072-1.876v-7.56c0-4.816-6.132-4.76-9.912-2.296m1.792 9.1c0-2.464 1.988-2.94 5.628-3.472v4.396c-2.156 2.66-5.628 2.1-5.628-.924M37.208 256.384l-4.452.784v.756c1.932.336 1.932.448 1.932 1.372v18.956h1.092l.924-.812a7.14 7.14 0 0 0 3.668 1.008c4.116 0 6.832-3.276 6.832-7.98 0-4.34-2.296-7.028-5.712-7.028-1.652 0-3.024.588-4.284 1.904zm0 19.152V266.8c1.316-1.428 2.408-1.764 3.444-1.764 2.52 0 3.836 2.044 3.836 5.712 0 4.032-1.484 6.384-4.088 6.384-1.26 0-2.324-.588-3.192-1.596m16.968-19.152-4.452.784v.756c1.932.336 1.932.448 1.932 1.372v16.1c0 1.232 0 1.456-2.016 1.68V278h6.468v-.924c-1.932-.252-1.932-.476-1.932-1.68zm13.72 12.712H61.26c.336-2.94 1.792-4.424 3.668-4.424 1.932 0 3.192 1.568 2.968 4.424m-9.352 2.016c0 7.588 7.28 8.82 11.732 5.824v-1.204c-3.864 2.1-9.072 1.68-9.072-5.348v-.028h9.268c.364-4.396-1.764-6.916-5.32-6.916-3.752 0-6.608 2.884-6.608 7.672m18.788-7.56-4.368.756v.756c1.932.336 1.932.448 1.932 1.372v8.96c0 1.232 0 1.456-2.016 1.68V278h6.468v-.924c-1.932-.252-1.932-.476-1.932-1.68v-8.204c1.148-1.428 2.52-2.016 3.724-2.016 1.512 0 2.828.924 2.828 3.444v6.776c0 1.232 0 1.456-2.016 1.68V278h6.468v-.924c-1.932-.252-1.932-.476-1.932-1.68v-7.364c0-2.996-1.708-4.592-4.312-4.592-1.904 0-3.612.868-4.844 2.408zm23.436 14.784 4.48-.784v-.784c-2.044-.336-2.044-.448-2.044-1.428v-18.956l-4.452.784v.756c1.932.336 1.932.448 1.932 1.372v4.844c-.952-.476-1.988-.7-3.136-.7-3.892 0-6.86 2.996-6.86 7.868 0 4.284 2.268 7.14 5.88 7.14 1.708 0 2.968-.644 4.2-1.932zm-7.364-7.42c0-3.92 1.624-6.16 4.088-6.16 1.4 0 2.464.672 3.192 1.876v8.568c-1.148 1.176-2.212 1.596-3.304 1.596-2.576 0-3.976-2.24-3.976-5.88m27.888-7.476c-4.172 0-7.084 3.052-7.084 7.504 0 4.424 2.772 7.504 6.776 7.504 4.116 0 7-3.22 7-7.868 0-4.2-2.744-7.14-6.692-7.14m-.14 1.26c2.548 0 4.116 2.324 4.116 6.104 0 3.948-1.568 6.356-4.116 6.356-2.632 0-4.228-2.492-4.228-6.496 0-3.724 1.596-5.964 4.228-5.964m19.432-7.56c-3.164-1.428-8.064-.896-8.064 4.676V264h-2.1v1.26h2.1v10.136c0 1.232 0 1.456-2.016 1.68V278h6.664v-.924c-2.128-.252-2.128-.476-2.128-1.68V265.26h3.724V264h-3.724v-3.22c0-3.276 2.1-3.444 3.332-2.856l.672 2.044h1.54zm12.375 5.908-2.156-1.372c.056-.952.812-2.24 2.38-2.94v-1.12c-2.548.812-3.892 2.968-3.892 5.068 0 1.764.98 2.408 1.904 2.408 1.008 0 1.848-.756 1.764-2.044m5.152 0-2.156-1.372c.056-.952.812-2.24 2.38-2.94v-1.12c-2.548.812-3.892 2.968-3.892 5.068 0 1.764.98 2.408 1.904 2.408 1.008 0 1.848-.756 1.764-2.044m11.284 4.088v-2.772c-3.332-1.82-8.96-1.008-8.96 3.08 0 4.508 7.252 4.004 7.252 7.308 0 2.548-3.248 3.024-5.096 1.848l-.84-2.324h-1.372v3.192c4.06 2.016 9.632.952 9.604-3.416-.028-4.788-7.42-4.144-7.42-7.252 0-2.212 3.276-2.604 4.62-1.624l.812 1.96zm13.328 11.2 4.48-.784v-.784c-2.044-.336-2.044-.448-2.044-1.428v-11.816l-4.452.784v.756c1.932.336 1.932.448 1.932 1.372v8.624c-1.036 1.148-2.184 1.624-3.36 1.624-1.792 0-2.912-1.092-2.912-3.948v-9.212l-4.452.784v.756c1.932.336 1.932.448 1.932 1.372v6.888c0 3.416 1.596 5.124 4.452 5.124 1.764 0 3.164-.644 4.424-2.072zm16.52-14.672c-2.324-.476-4.396.14-5.516 2.66v-2.772l-4.368.756v.756c1.932.336 1.932.448 1.932 1.372v8.96c0 1.232 0 1.456-2.016 1.68V278h6.468v-.924c-1.932-.252-1.932-.476-1.932-1.68v-7.364c.896-2.492 3.332-3.164 4.648-1.596h.784zm11.536-6.524c-3.164-1.428-8.064-.896-8.064 4.676V264h-2.1v1.26h2.1v10.136c0 1.232 0 1.456-2.016 1.68V278h6.664v-.924c-2.128-.252-2.128-.476-2.128-1.68V265.26h3.724V264h-3.724v-3.22c0-3.276 2.1-3.444 3.332-2.856l.672 2.044h1.54zm.896 7.952v2.716h1.82l.644-2.492c1.736-1.008 4.956-1.064 4.956 2.52v1.68c-4.368.616-8.344 1.316-8.344 5.096 0 4.312 5.768 5.096 8.484 1.82.336 2.212 2.604 2.324 4.424 1.176v-.784c-1.54.392-2.072-.56-2.072-1.876v-7.56c0-4.816-6.132-4.76-9.912-2.296m1.792 9.1c0-2.464 1.988-2.94 5.628-3.472v4.396c-2.156 2.66-5.628 2.1-5.628-.924m23.408-9.996c-5.46-2.156-11.144.364-11.172 6.888-.028 7.196 6.86 8.932 11.284 6.02v-1.148c-4.284 2.184-8.568.504-8.568-5.432 0-4.732 2.8-6.608 5.992-5.544l.672 2.464h1.792zm11.928 4.9h-6.636c.336-2.94 1.792-4.424 3.668-4.424 1.932 0 3.192 1.568 2.968 4.424m-9.352 2.016c0 7.588 7.28 8.82 11.732 5.824v-1.204c-3.864 2.1-9.072 1.68-9.072-5.348v-.028h9.268c.364-4.396-1.764-6.916-5.32-6.916-3.752 0-6.608 2.884-6.608 7.672m22.232.392v-2.016h-7.728v2.016zm3.64-6.412v2.716h1.82l.644-2.492c1.736-1.008 4.956-1.064 4.956 2.52v1.68c-4.368.616-8.344 1.316-8.344 5.096 0 4.312 5.768 5.096 8.484 1.82.336 2.212 2.604 2.324 4.424 1.176v-.784c-1.54.392-2.072-.56-2.072-1.876v-7.56c0-4.816-6.132-4.76-9.912-2.296m1.792 9.1c0-2.464 1.988-2.94 5.628-3.472v4.396c-2.156 2.66-5.628 2.1-5.628-.924m23.408-9.996c-5.46-2.156-11.144.364-11.172 6.888-.028 7.196 6.86 8.932 11.284 6.02v-1.148c-4.284 2.184-8.568.504-8.568-5.432 0-4.732 2.8-6.608 5.992-5.544l.672 2.464h1.792zm10.92 13.272v-1.148c-2.688 1.092-4.48.504-4.48-2.352v-8.708h4.34V264h-4.34v-3.416h-1.344L293.995 264h-1.484v1.26h1.932v9.156c0 4.536 4.032 4.648 7 3.052m6.16-13.944-4.452.784v.756c1.932.336 1.932.448 1.932 1.372v8.96c0 1.232 0 1.456-2.016 1.68V278h6.468v-.924c-1.932-.252-1.932-.476-1.932-1.68zm-3.136-4.676a1.72 1.72 0 0 0 1.736 1.708 1.72 1.72 0 0 0 1.736-1.708 1.72 1.72 0 0 0-1.736-1.708 1.72 1.72 0 0 0-1.736 1.708m8.26 7.392 4.76 11.984h1.428l4.9-11.984c.42-1.092.588-1.26 1.876-1.484v-.868h-5.068v.868c2.296.252 2.128.42 1.708 1.484l-3.528 8.708-3.36-8.708c-.42-1.064-.588-1.26 1.54-1.484v-.868h-6.076v.868c1.232.252 1.4.42 1.82 1.484m23.716 2.856h-6.636c.336-2.94 1.792-4.424 3.668-4.424 1.932 0 3.192 1.568 2.968 4.424m-9.352 2.016c0 7.588 7.28 8.82 11.732 5.824v-1.204c-3.864 2.1-9.072 1.68-9.072-5.348v-.028h9.268c.364-4.396-1.764-6.916-5.32-6.916-3.752 0-6.608 2.884-6.608 7.672m-292.795 27.98v2.716h1.82l.644-2.492c1.736-1.008 4.956-1.064 4.956 2.52v1.68c-4.368.616-8.344 1.316-8.344 5.096 0 4.312 5.768 5.096 8.484 1.82.336 2.212 2.604 2.324 4.424 1.176v-.784c-1.54.392-2.072-.56-2.072-1.876v-7.56c0-4.816-6.132-4.76-9.912-2.296m1.792 9.1c0-2.464 1.988-2.94 5.628-3.472v4.396c-2.156 2.66-5.628 2.1-5.628-.924m12.628-5.544c0 1.988 1.008 3.584 2.66 4.368-2.016 1.232-2.156 3.108-.98 4.256.112.112.224.196.336.28-1.596.868-2.716 2.128-2.716 3.696 0 2.296 2.324 3.668 5.796 3.668 3.78 0 7.392-1.932 7.392-5.348 0-3.584-3.752-3.584-6.748-3.584-.924 0-2.016 0-2.52-.504-.532-.532-.336-1.484.476-2.1.476.14 1.008.196 1.568.196 3.416 0 5.74-2.156 5.74-5.236 0-1.26-.42-2.352-1.148-3.192h2.744v-1.26h-4.564a6.7 6.7 0 0 0-2.436-.448c-3.304 0-5.6 2.128-5.6 5.208m2.604-.168c0-2.324 1.064-3.808 2.912-3.808s2.912 1.4 2.912 3.78c0 2.436-1.036 3.892-2.884 3.892-1.792 0-2.94-1.456-2.94-3.864m-.896 12.208c0-1.064.588-2.016 1.372-2.688.616.14 1.344.14 2.072.14 2.828 0 5.04 0 5.04 2.184 0 2.156-2.212 3.248-4.536 3.248-2.912 0-3.948-1.4-3.948-2.884m22.484-11.592h-6.636c.336-2.94 1.792-4.424 3.668-4.424 1.932 0 3.192 1.568 2.968 4.424m-9.352 2.016c0 7.588 7.28 8.82 11.732 5.824v-1.204c-3.864 2.1-9.072 1.68-9.072-5.348v-.028h9.268c.364-4.396-1.764-6.916-5.32-6.916-3.752 0-6.608 2.884-6.608 7.672m18.788-7.56-4.368.756v.756c1.932.336 1.932.448 1.932 1.372v8.96c0 1.232 0 1.456-2.016 1.68V312h6.468v-.924c-1.932-.252-1.932-.476-1.932-1.68v-8.204c1.148-1.428 2.52-2.016 3.724-2.016 1.512 0 2.828.924 2.828 3.444v6.776c0 1.232 0 1.456-2.016 1.68V312h6.468v-.924c-1.932-.252-1.932-.476-1.932-1.68v-7.364c0-2.996-1.708-4.592-4.312-4.592-1.904 0-3.612.868-4.844 2.408zm21.7 13.916v-1.148c-2.688 1.092-4.48.504-4.48-2.352v-8.708h4.34V298h-4.34v-3.416H98.22L96.596 298h-1.484v1.26h1.932v9.156c0 4.536 4.032 4.648 7 3.052m2.324-17.668 2.156 1.372c-.056.952-.812 2.24-2.38 2.94v1.12c2.548-.812 3.892-2.968 3.892-5.068 0-1.764-.98-2.408-1.904-2.408-1.008 0-1.848.756-1.764 2.044m5.152 0 2.156 1.372c-.056.952-.812 2.24-2.38 2.94v1.12c2.548-.812 3.892-2.968 3.892-5.068 0-1.764-.98-2.408-1.904-2.408-1.008 0-1.848.756-1.764 2.044m4.34 16.772 2.044 1.456c-.112 1.316-1.148 2.576-2.772 3.332v1.12c2.548-.756 4.396-2.996 4.396-5.432 0-1.736-.924-2.464-1.904-2.464-1.008 0-1.792.784-1.764 1.988m26.879-12.376c-5.46-2.156-11.144.364-11.172 6.888-.028 7.196 6.86 8.932 11.284 6.02v-1.148c-4.284 2.184-8.568.504-8.568-5.432 0-4.732 2.8-6.608 5.992-5.544l.672 2.464h1.792zm9.66-.756c-4.172 0-7.084 3.052-7.084 7.504 0 4.424 2.772 7.504 6.776 7.504 4.116 0 7-3.22 7-7.868 0-4.2-2.744-7.14-6.692-7.14m-.14 1.26c2.548 0 4.116 2.324 4.116 6.104 0 3.948-1.568 6.356-4.116 6.356-2.632 0-4.228-2.492-4.228-6.496 0-3.724 1.596-5.964 4.228-5.964m13.888-1.176-4.452.784v.756c1.932.336 1.932.448 1.932 1.372v8.96c0 1.232 0 1.456-2.016 1.68V312h6.468v-.924c-1.932-.252-1.932-.476-1.932-1.68zm-3.136-4.676a1.72 1.72 0 0 0 1.736 1.708 1.72 1.72 0 0 0 1.736-1.708 1.72 1.72 0 0 0-1.736-1.708 1.72 1.72 0 0 0-1.736 1.708m11.788 4.704-4.368.756v.756c1.932.336 1.932.448 1.932 1.372v8.96c0 1.232 0 1.456-2.016 1.68V312h6.468v-.924c-1.932-.252-1.932-.476-1.932-1.68v-8.204c1.148-1.428 2.52-2.016 3.724-2.016 1.512 0 2.828.924 2.828 3.444v6.776c0 1.232 0 1.456-2.016 1.68V312h6.468v-.924c-1.932-.252-1.932-.476-1.932-1.68v-7.364c0-2.996-1.708-4.592-4.312-4.592-1.904 0-3.612.868-4.844 2.408zm22.708 5.544h-6.636c.336-2.94 1.792-4.424 3.668-4.424 1.932 0 3.192 1.568 2.968 4.424m-9.352 2.016c0 7.588 7.28 8.82 11.732 5.824v-1.204c-3.864 2.1-9.072 1.68-9.072-5.348v-.028h9.268c.364-4.396-1.764-6.916-5.32-6.916-3.752 0-6.608 2.884-6.608 7.672m24.584 7.224 4.48-.784v-.784c-2.044-.336-2.044-.448-2.044-1.428v-18.956l-4.452.784v.756c1.932.336 1.932.448 1.932 1.372v4.844c-.952-.476-1.988-.7-3.136-.7-3.892 0-6.86 2.996-6.86 7.868 0 4.284 2.268 7.14 5.88 7.14 1.708 0 2.968-.644 4.2-1.932zm-7.364-7.42c0-3.92 1.624-6.16 4.088-6.16 1.4 0 2.464.672 3.192 1.876v8.568c-1.148 1.176-2.212 1.596-3.304 1.596-2.576 0-3.976-2.24-3.976-5.88m25.172-7.392-4.452.784v.756c1.932.336 1.932.448 1.932 1.372v8.96c0 1.232 0 1.456-2.016 1.68V312h6.468v-.924c-1.932-.252-1.932-.476-1.932-1.68zm-3.136-4.676a1.72 1.72 0 0 0 1.736 1.708 1.72 1.72 0 0 0 1.736-1.708 1.72 1.72 0 0 0-1.736-1.708 1.72 1.72 0 0 0-1.736 1.708m11.788 4.704-4.368.756v.756c1.932.336 1.932.448 1.932 1.372v8.96c0 1.232 0 1.456-2.016 1.68V312h6.468v-.924c-1.932-.252-1.932-.476-1.932-1.68v-8.204c1.148-1.428 2.52-2.016 3.724-2.016 1.512 0 2.828.924 2.828 3.444v6.776c0 1.232 0 1.456-2.016 1.68V312h6.468v-.924c-1.932-.252-1.932-.476-1.932-1.68v-7.364c0-2.996-1.708-4.592-4.312-4.592-1.904 0-3.612.868-4.844 2.408zm26.88 11.676v-17.22l-5.796 2.016v1.372l3.192-1.204v15.036c0 1.288 0 1.596-2.828 1.848V312h8.064v-.924c-2.632-.28-2.632-.588-2.632-1.848m7.14 2.744c1.064.28 2.184.42 3.248.42 6.468 0 8.792-5.152 8.792-11.256 0-5.208-1.792-9.072-6.384-9.072-3.948 0-6.44 2.772-6.44 6.58 0 4.06 2.744 6.076 5.684 6.076 1.876 0 3.276-.784 4.452-1.96-.28 3.836-1.484 8.288-5.516 8.288-.448 0-.952-.056-1.54-.168l-.784-2.492h-1.512zm1.764-13.832c.028-2.296 1.036-4.788 3.696-4.788 3.5 0 3.948 4.396 3.948 7.476v.476c-1.596 1.428-2.8 1.708-3.78 1.708-2.548 0-3.892-2.044-3.864-4.872m14.672-5.628-.308 9.548c5.936-1.036 8.568 1.288 8.568 4.676 0 3.696-3.276 5.236-6.776 3.892l-.784-2.52h-1.568v3.612c6.916 2.212 11.564-.868 11.564-5.88 0-4.172-3.164-6.888-9.296-6.02l.168-5.068h8.792v-2.24zm20.916-.392c-4.144 0-7 3.752-7 10.136s2.464 10.136 6.692 10.136c4.396 0 6.972-3.808 6.972-10.36 0-6.16-2.492-9.912-6.664-9.912m-.14 1.288c2.828 0 4.06 3.612 4.06 8.848 0 5.46-1.148 8.848-4.032 8.848-2.912 0-4.144-3.556-4.144-9.128 0-5.208 1.372-8.568 4.116-8.568m10.416 16.996c0 1.036.784 1.82 1.82 1.82s1.82-.784 1.82-1.82-.784-1.82-1.82-1.82-1.82.784-1.82 1.82"/></svg>
