<svg xmlns="http://www.w3.org/2000/svg" width="384" height="384" viewBox="0 0 384 384"><path fill="#fff" stroke="#c9c9cd" d="M.5.5h383v383H.5z"/><path fill="#3634a3" d="m36.465 161 2.002-10.023h-1.261l-.624 3.133c-.442-.13-.676-.156-1.014-.156-1.131 0-2.08.468-2.977 1.456-1.04 1.105-1.69 2.795-1.69 4.199 0 1.001.429 1.547 1.3 1.547 1.105 0 2.47-1.144 3.575-2.977L35.217 161zm-.39-4.316c-1.742 2.405-2.795 3.302-3.341 3.302-.325 0-.494-.182-.494-.689 0-.481.091-1.001.286-1.586.585-1.729 1.703-2.86 2.899-2.86.312 0 .689.091.962.234zm5.296 4.472c.923 0 1.859-.221 3.081-.845l.247-1.209c-1.053.715-2.197 1.066-2.925 1.066-.923 0-1.417-.481-1.417-1.716 2.444-.169 4.381-1.404 4.381-3.107 0-.884-.494-1.391-1.586-1.391-2.197 0-4.056 2.457-4.056 4.849 0 1.404.806 2.353 2.275 2.353m1.508-4.407c-.572.507-1.222.702-2.405.767.312-1.43 1.261-2.626 2.366-2.626.429 0 .689.26.689.689 0 .403-.234.806-.65 1.17m5.972-1.703h2.015l.182-.936h-2.002l.065-.377c.273-1.313.858-1.976 1.846-1.976.429 0 .78.078 1.157.247l.208-1.001c-.494-.143-.78-.182-1.196-.182-1.716 0-2.873 1.014-3.276 2.977l-.065.312h-1.092l-.195.936h1.105l-1.69 8.463h1.261zm9.222-.936h-1.261c-.429-.117-.663-.156-1.014-.156-1.105 0-2.093.468-2.977 1.456a6.5 6.5 0 0 0-1.235 1.989c-.299.754-.455 1.495-.455 2.21 0 .572.143.975.416 1.235.221.208.507.312.884.312.663 0 1.274-.299 2.015-.988.611-.559 1.053-1.144 1.56-1.989L55.447 161h1.248zm-1.768 2.574a24 24 0 0 1-1.105 1.443q-.429.526-.897.975c-.676.663-1.014.884-1.339.884-.156 0-.325-.078-.39-.182s-.104-.273-.104-.507c0-.481.091-1.001.286-1.586a6.5 6.5 0 0 1 .845-1.677c.572-.715 1.365-1.183 2.054-1.183.312 0 .689.091.962.234zm5.647-2.574h-1.248l-.949 4.758c-.091.455-.143.806-.143 1.066 0 .819.455 1.222 1.235 1.222 1.105 0 2.314-1.17 3.432-2.977L63.72 161h1.248l1.365-6.89h-1.248l-.507 2.574-.325.429c-1.56 2.041-2.301 2.873-2.977 2.873-.234 0-.351-.143-.351-.442 0-.169.039-.429.104-.767zm8.975-3.133h-1.248L67.677 161h1.248zm3.32 4.069h1.859l.195-.936h-1.859l.299-1.56-1.287.156-.273 1.404h-1.105l-.182.936h1.105l-.728 3.653a4.6 4.6 0 0 0-.117 1.001c0 .91.676 1.456 1.742 1.456.286 0 .455-.026.793-.13l.182-.936c-.299.104-.468.13-.689.13-.559 0-.793-.286-.793-.702 0-.104.039-.338.104-.689z"/><path fill="#8e8e93" d="M30.304 254.279v-.988q-1.15.429-2.067.429c-1.599 0-2.574-1.001-2.574-2.665s.923-2.665 2.431-2.665c.572 0 1.261.143 2.08.442v-1.053a7.7 7.7 0 0 0-2.21-.325c-2.275 0-3.627 1.326-3.627 3.601 0 2.301 1.339 3.601 3.731 3.601.741 0 1.495-.13 2.236-.377m5.689-4.537v.598h-.78c-1.482 0-3.471.559-3.471 2.379 0 1.222 1.04 1.898 2.171 1.898.754 0 1.508-.312 2.275-.949.221.637.624.949 1.235.949.221 0 .546-.065.962-.195l-.117-.754c-.767.182-1.027 0-1.027-1.014v-2.886c0-1.677-.65-2.314-2.379-2.314-.793 0-1.625.156-2.522.481v1.066c.78-.403 1.534-.611 2.262-.611.988 0 1.391.403 1.391 1.352m-2.951 2.769c0-.923.858-1.391 2.574-1.391h.377v1.742c-.611.507-1.196.754-1.742.754-.728 0-1.209-.442-1.209-1.105m9.979-.143v-7.891h-3.458v.936h2.21v7.189c0 1.612.988 2.054 2.431 2.054.351 0 .702-.013 1.04-.104v-.897a2.6 2.6 0 0 1-.624.065c-1.105 0-1.599-.13-1.599-1.352m10.057 2.132v-.962a7 7 0 0 1-1.573.182c-1.118 0-1.612-.299-1.612-1.222v-3.796h3.042v-.936h-3.042v-2.21l-1.261.169v2.041h-1.729v.936h1.729v3.458c0 1.859.624 2.496 2.639 2.496.585 0 1.183-.052 1.807-.156m5.897-2.158c0 1.404.832 2.314 2.275 2.314.949 0 1.703-.273 2.379-.858 1.04-.936 1.768-2.548 1.768-4.043 0-1.404-.819-2.301-2.288-2.301-.923 0-1.716.286-2.353.858-1.066.897-1.781 2.574-1.781 4.03m1.339-.286c0-1.911 1.17-3.666 2.509-3.666.845 0 1.248.507 1.248 1.664 0 1.898-1.157 3.666-2.535 3.666-.78 0-1.222-.494-1.222-1.664m8.936-3.51h2.015l.182-.936h-2.002l.065-.377c.273-1.313.858-1.976 1.846-1.976.429 0 .78.078 1.157.247l.208-1.001c-.494-.143-.78-.182-1.196-.182-1.716 0-2.873 1.014-3.276 2.977l-.065.312h-1.092l-.195.936h1.105l-1.69 8.463h1.261zm5.049 0h2.015l.182-.936h-2.002l.065-.377c.273-1.313.858-1.976 1.846-1.976.429 0 .78.078 1.157.247l.208-1.001c-.494-.143-.78-.182-1.196-.182-1.716 0-2.873 1.014-3.276 2.977l-.065.312h-1.092l-.195.936h1.105l-1.69 8.463h1.261z"/><path fill="#5856d6" d="M291.96 49h6v144h-6zm-39.245 0h6v144h-6zm-39.963 0h6v144h-6zm-43.918 0h6v144h-6zm-39.244 0h4.444v144h-4.444zM302.235 193.004h3.725v144h-3.725zm-42.362 0h4.444v144h-4.444zm-43.919 0h6v144h-6zm-43.207 0h5.287v144h-5.287zm-40.087 0h2.188v144h-2.188z" opacity=".25"/><path d="M129.6 101.12c-1.2-.36-2.88-.72-5.16-.72-10.32 0-14.16 7.2-15 11.76V101H99.6v60h10.2v-34.08c0-8.28 3.84-17.88 14.16-17.88 1.68 0 3.6.24 5.64.96zm15.24-16.92v17.04h-10.8v8.4h10.8v30.72c0 8.88 0 21.48 17.16 21.48 3.36 0 7.32-.48 11.04-1.8l-1.2-8.88c-3.24 1.44-6.12 2.04-8.64 2.04-8.28 0-8.28-6.6-8.28-14.04v-29.52h13.92v-8.4h-13.92V84.2zm40.8 0v17.04h-10.8v8.4h10.8v30.72c0 8.88 0 21.48 17.16 21.48 3.36 0 7.32-.48 11.04-1.8l-1.2-8.64c-3.24 1.44-6.12 2.04-8.64 2.04-8.28 0-8.28-6.6-8.28-14.04v-29.76h17.04v-8.4h-17.04V84.2zm74.04-9.96c-3.72-1.08-7.56-1.44-10.56-1.44-19.56 0-19.56 15.24-19.56 21.6v6.84h-10.8v8.4h10.8V161h10.2v-51.36h12.96v-8.4h-12.96V94.4c0-5.88 0-13.32 9.48-13.32 1.68 0 5.28.24 8.88 2.52zm39.96 0c-3.72-1.08-7.56-1.44-10.56-1.44-19.56 0-19.56 15.24-19.56 21.6v6.84h-10.8v8.4h10.8V161h10.2v-51.36h12.24v-8.4h-12.24V94.4c0-5.88 0-13.32 9.48-13.32 1.68 0 5.28.24 8.88 2.52zm9.12 9.96v17.04h-10.8v8.4h10.8v30.72c0 8.88 0 21.48 17.16 21.48 3.36 0 7.32-.48 11.04-1.8l-1.2-8.64c-3.24 1.44-6.12 2.04-8.64 2.04-8.28 0-8.28-6.6-8.28-14.04v-29.76h17.04v-8.4h-17.04V84.2z"/><path fill="#8e8e93" d="M132.68 244.88c-2.64-.6-5.16-.84-7.2-.84-11.28 0-15.24 7.2-16.08 12V245h-9.84v60h10.2v-34.44c0-8.04 3.84-17.4 14.16-17.4 2.04 0 4.44.36 7.32 1.8zm12.96-16.68v17.04h-10.8v8.4h10.8v30.72c0 8.88 0 21.48 17.16 21.48 3.36 0 7.32-.48 11.04-1.8l-1.2-8.64c-3.24 1.44-6.12 2.04-8.64 2.04-8.28 0-8.28-6.6-8.28-14.04v-29.76h17.04v-8.4h-17.04V228.2zm43.2 0v17.04h-10.8v8.4h10.8v30.72c0 8.88 0 21.48 17.16 21.48 3.36 0 7.32-.48 11.04-1.8l-1.2-8.64c-3.24 1.44-6.12 2.04-8.64 2.04-8.28 0-8.28-6.6-8.28-14.04v-29.76h17.04v-8.4h-17.04V228.2zm74.04-9.96c-3.72-1.08-7.56-1.44-10.56-1.44-19.56 0-19.56 15.24-19.56 21.6v6.84h-10.8v8.4h10.8V305h10.2v-51.36h16.92v-8.4h-16.92v-6.84c0-5.88 0-13.32 9.48-13.32 1.68 0 5.28.24 8.88 2.52zm42.36 0c-3.72-1.08-7.56-1.44-10.56-1.44-19.56 0-19.56 15.24-19.56 21.6v6.84h-10.8v8.4h10.8V305h10.2v-51.36h16.92v-8.4h-16.92v-6.84c0-5.88 0-13.32 9.48-13.32 1.68 0 5.28.24 8.88 2.52z"/><path d="M316.76 228.2v17.04h-10.8v8.4h10.8v30.72c0 8.88 0 21.48 17.16 21.48 3.36 0 7.32-.48 11.04-1.8l-1.2-8.64c-3.24 1.44-6.12 2.04-8.64 2.04-8.28 0-8.28-6.6-8.28-14.04v-29.76h17.04v-8.4h-17.04V228.2z"/></svg>
