<svg xmlns="http://www.w3.org/2000/svg" width="384" height="384" viewBox="0 0 384 384"><path d="M0 0h384v384H0z"/><path fill="#fff" d="M140.236 284.993c.205 38.722 27.046 41.32 46.979 29.257v4.64c-17.081 12.242-42.244 11.594-53.622-5.97-14.543 21.608-49.763 18.478-49.763-6.19 0-18.292 19.426-22.509 39.658-25.074l1.397-.175.698-.085 1.398-.169.609-.072.03-8.79c0-20.735-16.82-19.72-26.39-14.645l-3.335 14.645H88.47V258.3c15.771-10.759 41.44-13.065 49.102 2.296 5.606-7.226 13.942-11.144 24.558-10.996 18.125.29 27.985 13.205 26.825 35.39ZM97.75 304.7c0 18.44 21.668 21.268 29.736 6.54l.085-24.911c-18.194 2.332-29.821 4.783-29.821 18.371m62.205-50.17c-11.062 0-18.296 9.448-19.532 25.085h35.192c.58-15.37-4.495-25.085-15.66-25.085m81.055 15.225c19.865-8.41 26.245-17.835 26.245-27.695 0-12.76-11.02-20.3-25.52-20.3-16.385 0-28.275 9.86-28.275 23.345 0 14.79 14.065 24.36 63.945 79.895h21.315v-3.335c-9.715-2.61-13.34-7.395-17.69-12.035-46.4-49.155-54.955-54.665-54.955-67.425 0-9.715 6.09-15.515 14.5-15.515 8.845 0 14.065 6.67 14.065 16.82s-4.205 17.11-17.545 23.055zm-10.585-2.03c-19.43 7.83-28.13 17.835-28.13 31.465 0 15.805 11.745 27.985 31.32 27.985 25.085 0 40.02-20.59 49.445-47.125 2.175-6.235 3.915-8.12 12.325-9.425v-3.335h-30.45v3.335c12.035 1.45 11.745 3.625 10.15 10.005-5.655 23.2-20.01 39.295-36.54 39.295-12.615 0-22.185-9.57-22.185-24.07 0-10.15 4.35-19.43 18.125-25.085zm100.63-23.49h4.06l4.06-23.2h-12.18zm-3.045 5.075 1.305-3.915-21.025-11.165-3.77 11.745zm4.06 4.35-3.335-2.465-17.255 16.675 10.005 7.395zm5.365-2.465-3.335 2.465 10.585 21.605 10.005-7.25zm-.58-5.8 1.16 3.915 23.635-3.335-3.915-11.745zM48.95 41.624v-4.128C44.037 35 35.762 35.96 35.762 42.168c0 7.008 11 6.208 11 11.744 0 4.192-4.609 4.896-8.443 3.2l-.976-4.032h-1.648v5.088c6.19 2.816 14.229 1.28 14.195-5.248-.067-7.328-11.201-6.368-11.201-11.68 0-3.776 5.045-4.16 7.77-2.752l.807 3.136zm26.005 9.152V39.832c0-1.44 0-1.792 2.624-2.08v-1.024h-7.165v1.024c2.523.32 2.523.672 2.523 2.08v11.296c0 3.776-1.38 6.688-5.786 6.688-5.045 0-5.987-3.808-5.987-7.072V39.832c0-1.44 0-1.792 2.624-2.08v-1.024h-8.376v1.024c2.523.32 2.523.672 2.523 2.08v11.392c0 3.744 1.412 8.288 8.51 8.288s8.51-4.48 8.51-8.736m16.701-14.048h-9.418v1.056c2.523.32 2.523.672 2.523 2.112v15.936c0 1.472 0 1.824-2.624 2.112V59h8.376v-1.056c-2.523-.32-2.523-.672-2.523-2.112v-7.104h1.682l1.21-.032c1.615 2.432 4.037 6.496 6.09 10.304h4.406v-1.056c-1.144-.32-1.48-.576-2.22-1.824-1.85-3.04-3.835-6.144-5.046-7.936 3.565-1.056 4.945-3.488 4.945-6.08 0-3.36-2.389-5.376-7.4-5.376M87.99 47.224v-8.96c3.902-.288 7.602-.096 7.602 4.192 0 2.272-1.076 4.768-4.945 4.768zm33.89-10.496h-15.91v1.024c2.522.32 2.522.672 2.522 2.08v16c0 1.472 0 1.824-2.624 2.112V59h8.645v-1.056c-2.792-.32-2.792-.672-2.792-2.112v-7.264h5.954l.774 2.4h1.379v-6.304h-1.413l-.74 2.368h-5.954v-8.768h7.737l.84 3.424h1.582zm6.307 19.232 1.816-4.416h8.746l1.716 4.416c.538 1.376.773 1.696-2.254 1.984V59h8.241v-1.056c-1.75-.32-1.985-.64-2.523-1.984l-7.77-19.488h-1.951l-8.073 19.52c-.572 1.344-.807 1.664-2.792 1.952V59h7.198v-1.056c-3.162-.32-2.926-.64-2.354-1.984m2.422-5.952 3.834-9.376 3.7 9.376zm36.337-12.8c-7.367-2.624-18.165-.384-18.165 10.752 0 11.84 12.043 12.992 18.266 10.336l-.034-5.248h-1.48l-1.043 4.16c-5.752 2.304-12.09-.96-12.09-9.696 0-8.672 6.405-11.168 12.023-8.992l.807 3.328h1.716zm23.378-.48h-18.5v5.152h1.446l1.01-3.616h5.18v17.568c0 1.472 0 1.824-2.893 2.112V59h8.914v-1.056c-2.792-.32-2.792-.672-2.792-2.112V38.264h5.28l.808 3.52h1.547zm5.483 19.232 1.817-4.416h8.745l1.716 4.416c.538 1.376.774 1.696-2.254 1.984V59h8.241v-1.056c-1.749-.32-1.984-.64-2.522-1.984l-7.77-19.488h-1.952l-8.073 19.52c-.571 1.344-.807 1.664-2.792 1.952V59h7.199v-1.056c-3.162-.32-2.927-.64-2.355-1.984m2.422-5.952 3.835-9.376 3.7 9.376zm36.034 9.216h2.153V39.832c0-1.44 0-1.792 2.624-2.08v-1.024h-7.4v1.024c2.758.32 2.758.672 2.758 2.08v14.176l-12.21-17.28h-5.45v1.024c2.523.32 2.523.672 2.523 2.08v16c0 1.472 0 1.824-2.624 2.112V59h7.535v-1.056c-2.893-.32-2.893-.672-2.893-2.112V40.856zm27.331-22.496h-18.5v5.152h1.446l1.009-3.616h5.18v17.568c0 1.472 0 1.824-2.893 2.112V59h8.914v-1.056c-2.792-.32-2.792-.672-2.792-2.112V38.264h5.281l.808 3.52h1.547z"/></svg>
