<svg xmlns="http://www.w3.org/2000/svg" width="384" height="384" viewBox="0 0 384 384"><path fill="#ffe0aa" d="M0 0h384v384H0z"/><path fill="#a50" d="M46.71 59.32q-10.105 0-10.105-11.008 0-5.295 2.489-8.551t7.617-3.257q2.28 0 3.946.72 1.665.72 2.422 2.064l-2.102 2.075a5.1 5.1 0 0 0-1.83-1.66 5.1 5.1 0 0 0-2.43-.589q-2.457 0-4.054 1.249-1.596 1.248-2.317 3.267-.72 2.019-.72 4.437 0 8.642 7.597 8.642a11.4 11.4 0 0 0 4.62-.975l.62 2.5a15.8 15.8 0 0 1-5.752 1.086m19.565-22.496L72.444 59H69.49l-5.153-19.734h-.265L58.214 59h-2.98l6.963-22.176zm3.256 13.938-.032 2.69H58.242l.052-2.69zm11.527-13.938L80.675 59h-2.91l.384-22.176zm9.979 19.487V59H78.725l.032-2.689zm-1.344-9.772v2.688H78.89l.032-2.688zm1.702-9.715v2.663h-12.34l.053-2.663zm11.176 22.496q-1.859 0-3.473-.295a14.2 14.2 0 0 1-3.016-.892l.407-2.869q1.73.733 3.246 1.09a13.2 13.2 0 0 0 3.02.355q2.03 0 3.329-.716 1.298-.715 1.298-2.575 0-2.031-2.06-3.024l-4.195-2.044q-2.144-1.047-3.162-2.408-1.02-1.36-1.02-3.321 0-3.048 1.839-4.583 1.837-1.534 4.937-1.534 2.205 0 3.907.653 1.704.653 3.205 2.096l-1.992 2.017q-1.362-1.119-2.668-1.638a7 7 0 0 0-2.615-.517q-1.735 0-2.729.813t-.994 2.504q0 1.053.54 1.744t1.703 1.253l3.648 1.776q2.414 1.164 3.61 2.589 1.197 1.425 1.197 3.467 0 3.314-2.197 4.686-2.196 1.373-5.765 1.373m22.372-22.496L124.56 59h-2.936l.384-22.176zm4.862 19.487V59h-13.363v-2.689zm.352-19.487v2.663h-13.363v-2.663zM142.78 59.32q-7.071 0-6.912-7.456l.262-15.04h2.936l-.288 15.04q-.063 2.386.955 3.577t3.169 1.19q2.08 0 3.143-1.193t1.12-3.574l.288-15.04h2.904l-.256 15.04q-.064 3.712-1.918 5.584t-5.403 1.872m20.15-12.81 2.961-9.686h2.09l-.057 3.468h-.85l-2.966 9.423h-1.8l.46-3.206zm-4.408-9.686L157.754 59h-2.832l.768-22.176zm-.518 3.468.058-3.468h2.038l2.61 9.685h.11l.244 3.206h-1.649l-2.609-9.424zm12.297-3.468V59h-2.831V36.824zM40.133 86h-2.106l.468-13.209h1.752l.243 3.417zm3.27-10.178q.033-.628-.202-1.053-.235-.426-.836-.426-.915 0-1.42 1.4-.505 1.401-.591 4.06l-.268-4.786h.55q.154-1.269.736-1.863.582-.593 1.58-.593 1.411 0 1.922.999t.451 2.47L44.943 86h-1.914zm6.523 6.428q-.05 1.045.175 1.492.227.447.95.447h.562l-.068 1.939h-.588q-1.217 0-1.927-.39-.711-.39-.999-1.238-.287-.847-.194-2.25l.375-6.428q.035-.61-.192-1.045-.228-.435-.811-.434-.94 0-1.44 1.348-.501 1.348-.597 3.945l-.298-4.742h.621q.205-1.216.8-1.774t1.633-.559q1.395 0 1.914 1.008.52 1.006.434 2.46zm9.883-9.688q1.885 0 3.198.846 1.314.846 1.967 2.334.655 1.488.655 3.357 0 1.962-.664 3.581-.663 1.62-2.02 2.597-1.355.978-3.35.978-1.887 0-3.216-.846a5.23 5.23 0 0 1-1.991-2.322q-.663-1.475-.663-3.361 0-1.962.676-3.585.675-1.624 2.044-2.602t3.364-.978m.025 1.93q-1.338 0-2.243.738t-1.34 1.918a7.2 7.2 0 0 0-.436 2.502q0 1.92.939 3.29.938 1.367 2.774 1.367 1.34 0 2.248-.729t1.336-1.897a7.2 7.2 0 0 0 .427-2.506q0-1.938-.927-3.31-.925-1.373-2.778-1.373M77.7 77.974q.178-1.638-.249-2.56-.426-.922-1.713-.922-1.117 0-2.077.756-.96.755-1.595 2.329t-.712 3.904l-.23-5.627h1.045l-.485.944q.12-1.311.763-2.274.644-.963 1.652-1.463a4.9 4.9 0 0 1 2.2-.5q1.945 0 2.865 1.302t.708 3.547l-.408 4.33q-.118 1.325.146 1.887.264.561 1.121.562h.65l-.067 1.939h-.677q-1.959 0-2.758-1.04-.8-1.039-.562-3.348zm-6.385-5.183.26 3.446L71.21 86h-2.14l.468-13.209zm18.38-.229q1.886 0 3.198.846t1.967 2.334.655 3.357q0 1.962-.664 3.581-.663 1.62-2.02 2.597-1.355.978-3.35.978-1.887 0-3.216-.846a5.23 5.23 0 0 1-1.992-2.322q-.662-1.475-.662-3.361 0-1.962.676-3.585.675-1.624 2.044-2.602t3.364-.978m.025 1.93q-1.338 0-2.244.738-.905.738-1.34 1.918a7.2 7.2 0 0 0-.435 2.502q0 1.92.939 3.29.939 1.367 2.774 1.367 1.34 0 2.248-.729t1.336-1.897a7.2 7.2 0 0 0 .427-2.506q0-1.938-.927-3.31-.925-1.373-2.778-1.373m15.241.032q-.824.978-3.033 2.766-2.208 1.786-3.341 2.468l-1.188-1.641q1.513-.987 3.608-2.599t3.116-2.726h.88zm.742-1.732q.657 1.425 1.666 3.197l.458.806q.825 1.464 1.217 2.505t.392 2.248q0 2.269-1.458 3.488-1.458 1.22-4.15 1.22-1.36 0-2.426-.23a9.6 9.6 0 0 1-2.155-.755l.397-1.873q1.074.485 1.984.698a8.5 8.5 0 0 0 1.93.212q1.784 0 2.753-.75.968-.752.968-2.144 0-1.056-.434-2.048t-1.302-2.531q-.63-1.115-.987-1.8a9 9 0 0 1-.596-1.416l.188-.827zm8.417 0h1.794l.242 3.313-.526 14.614h-2.14zm3.274 13.464a28 28 0 0 1-3.7-.255l.832-1.999q.642.162 1.5.267t1.562.106q2.752 0 4.207-1.657t1.455-4.429q0-1.638-.591-2.717t-2.094-1.079q-1.17 0-2.188.751-1.02.75-1.692 2.325-.673 1.575-.75 3.913l-.22-5.38h1.027l-.535.943q.12-1.389.759-2.403a4.3 4.3 0 0 1 1.661-1.547q1.023-.532 2.299-.532 2.346 0 3.388 1.64t1.042 4.13q0 2.415-.947 4.204a6.53 6.53 0 0 1-2.745 2.754q-1.797.965-4.27.965m16.917-13.693q2.733 0 3.99 1.287t1.163 3.681l-.196 4.758q-.042 1.051.385 1.521.426.47 1.52.479h.372l-.068 1.84h-.51q-1.932 0-2.706-.875-.775-.874-.687-2.736h-.387l.17-4.878q.062-1.543-.665-2.344-.726-.803-2.447-.803-.86 0-1.87.204a11.4 11.4 0 0 0-1.938.57l-.6-1.847a10.6 10.6 0 0 1 2.19-.64 12.7 12.7 0 0 1 2.284-.218m2.305 10.955.738-.384q-.225 1.499-1.394 2.31-1.17.812-3.057.812-2.022 0-3.144-.965-1.123-.964-1.123-2.722 0-1.735 1.163-2.86 1.162-1.128 3.247-1.5 2.085-.375 4.751.08l.068 1.763q-1.922-.486-3.555-.323-1.635.163-2.588.889-.955.725-.955 1.868 0 .923.629 1.415.628.492 1.807.492 1.671 0 2.82-.942 1.147-.941 1.224-2.936l.952 3.003zm13.726 2.739q-3.186 0-4.872-1.632t-1.686-4.845q0-2.21.79-3.838t2.255-2.503q1.465-.876 3.453-.876 1.776 0 2.965.714a3.9 3.9 0 0 1 1.681 2.015l-1.678 1.23q-.486-1.015-1.25-1.522-.762-.506-1.803-.506-1.928 0-3.088 1.373t-1.16 3.744q0 2.337 1.184 3.517 1.185 1.181 3.46 1.181 1.617 0 3.499-.622l.438 1.915q-1.682.655-4.188.655m14.467-1.931q2.06 0 4.141-.918l.524 1.797q-1.054.51-2.293.78-1.24.272-2.49.272-3.05 0-4.64-1.646-1.588-1.647-1.588-4.554 0-2.202.802-3.896.802-1.695 2.32-2.646 1.516-.952 3.558-.952 1.935 0 3.175.981t1.241 2.756q0 2.105-2.39 3.302-2.39 1.196-6.774 1.326l-.433-1.756q3.62-.105 5.547-.84 1.927-.738 1.927-2.092 0-.872-.66-1.334-.659-.462-1.674-.461-1.41 0-2.463.68-1.053.682-1.62 1.92-.566 1.24-.566 2.885 0 2.04 1.077 3.219 1.078 1.177 3.279 1.177m-36.218 144.061q.42-12.132 4.533-17.97 4.113-5.84 11.149-5.839 5.366 0 8.115 3.328 2.748 3.33 2.749 8.78 0 9.654-9.756 17.672-9.756 8.02-26.76 13.36l-1.773-5.756q15.44-4.851 23.62-11.04 8.18-6.19 8.18-14.294 0-2.849-1.018-4.477-1.019-1.627-3.665-1.627-3.876 0-6.178 4.252-2.3 4.253-2.602 13.208l-1.395 43.338h-6.606zm25.402 17.868v5.933h-22.857v-5.933zm38.742 12.395q-5.895 0-8.74-3.455-2.843-3.454-2.843-9.45 0-1.493.17-3.392.171-1.9.512-3.917l2.362-13.974 4.624 3.082q-14.458 3.03-17.883-8.566h3.592q4.028 5.277 16.81 2.514l-2.625 16.667a73 73 0 0 0-.55 4.318q-.183 1.952-.183 3.34 0 3.333 1.221 5.05 1.221 1.72 4.188 1.72 1.676 0 3.404-.518l1.354 5.554q-2.16 1.027-5.413 1.027m-35.227-15.308q6.219-3.411 8.431-8.792 2.213-5.381 1.597-13.026l-.23-2.546h5.456q1.937 9.79-.664 17.448-2.603 7.657-10.88 12.214zm62.03-23.284q7.88 0 11.47 3.652t3.315 10.517l-.53 12.6q-.132 3.062 1.015 4.46 1.146 1.397 4.306 1.41h1.165l-.203 5.665h-1.713q-5.426 0-7.703-2.357t-2.145-7.614h-1.256l.458-13.797q.158-4.236-1.774-6.383t-6.64-2.148q-2.401 0-5.253.576-2.85.576-5.487 1.63l-1.845-5.744a29.7 29.7 0 0 1 6.289-1.855 36.4 36.4 0 0 1 6.531-.612m6.156 30.98 2.152-1.048q-.536 4.17-3.793 6.451t-8.585 2.281q-5.733 0-8.885-2.73-3.153-2.728-3.153-7.762 0-4.896 3.195-8.054 3.195-3.16 9.005-4.241 5.81-1.083 13.421.07l.204 5.448q-5.108-1.302-9.515-.89-4.406.412-7.002 2.344t-2.597 5.03q0 2.428 1.635 3.706 1.635 1.277 4.75 1.277 4.565 0 7.62-2.576 3.052-2.576 3.27-7.724l3.014 8.417zm45.171-15.638q.504-4.38-.505-6.858-1.009-2.48-4.526-2.479-3.024 0-5.61 2.026-2.587 2.027-4.299 6.26t-1.928 10.493l-.648-15.899h2.984l-1.368 2.664q.315-3.653 2.088-6.278t4.57-3.948q2.795-1.323 6.101-1.323 5.55 0 8.077 3.64t1.905 9.91l-1.152 11.824q-.345 3.777.37 5.328.718 1.552 3.185 1.552h1.683l-.202 6.05h-1.724q-5.98 0-8.393-3.01t-1.688-9.92zm-17.097-14.694.863 9.317L253.577 258h-6.723l1.309-37.296zm49.84 51.264q-5.884 0-10.458-2.173-4.575-2.173-7.776-6.742l5.37-4.016q1.827 2.966 5.306 4.976t7.911 2.01q2.888 0 5.144-.898 2.256-.897 3.503-2.357 1.246-1.46 1.247-3.19 0-1.387-.858-2.269-.858-.88-2.649-1.562-1.791-.681-5.85-1.794-8.508-2.343-12.199-5.907t-3.692-9.748q0-5.047 2.098-9.232t5.812-6.598 8.433-2.412q4.168 0 7.47 1.95 3.302 1.952 5.154 5.525 1.853 3.573 1.853 8.187 0 3.371-1.189 6.299-1.188 2.926-3.333 4.844t-4.86 2.383l1.578-1.335v3.402h-8.781v-2.375q2.919-.32 5.293-2.287t3.683-4.853 1.31-5.92q0-2.895-1.074-5.137t-2.973-3.49-4.38-1.247q-2.795 0-4.93 1.62t-3.316 4.36-1.182 6.086q0 2.77 1.1 4.574t3.646 3.087q2.547 1.282 7.115 2.454 5.091 1.27 7.87 2.606t3.995 3.204q1.215 1.87 1.214 4.84 0 3.81-2.097 6.797-2.098 2.988-5.875 4.663-3.776 1.675-8.633 1.675m21.58-49.824v6.05q-6.071 0-8.047-2.015l1.23-.301-2.041 2.513-6.483-6.247zM159.945 154.68q.36-10.368 4.031-16.236 3.672-5.868 10.297-5.868 4.895 0 7.38 3.24 2.484 3.24 2.484 8.28 0 9.36-9.756 17.496t-25.524 13.536l-1.008-3.168q14.616-4.968 23.796-12.276t9.18-15.588q0-3.672-1.548-5.976t-5.076-2.304q-5.113 0-7.885 5.076t-3.131 14.148l-1.512 44.28h-3.312zm24.048 20.808v3.168h-22.68v-3.168zm39.095 11.16q-4.896 0-7.416-2.808t-2.52-7.92q0-1.728.288-4.392t.864-5.976l2.304-13.68 1.8 1.728q-13.752 2.736-18.648-6.624h2.592q5.616 6.336 17.928 2.808l-2.448 14.256q-.72 4.248-1.08 7.2t-.36 4.752q0 3.744 1.692 5.58t5.364 1.836q2.088 0 3.816-.576l.648 3.024q-2.16.792-4.824.792m-34.992-13.896q6.336-4.176 8.784-9.792t1.656-13.32l-.288-2.664h2.808q1.584 9.144-.9 16.272t-10.116 12.096zm61.56-24.696q7.056 0 10.44 3.564t3.168 9.9l-.648 16.776q-.072 2.592 1.368 3.636t4.248 1.116h.576l-.144 3.312h-.36q-5.544 0-7.38-2.916t-1.116-8.172h-.432l.576-13.68q.216-4.824-2.304-7.56t-7.992-2.736q-2.52 0-5.4.576t-5.4 1.512l-1.08-3.096q2.52-1.008 5.76-1.62t6.12-.612m7.92 30.744 1.8-1.224q-1.008 4.464-4.5 6.804t-8.82 2.34q-5.616 0-8.856-2.7t-3.24-7.38q0-4.896 3.636-8.172t9.828-4.212 13.392.864l.144 3.096q-6.696-1.656-12.132-1.008t-8.532 3.168-3.096 6.264q0 3.312 2.34 5.148t6.516 1.836q5.328 0 9.324-2.988t4.212-10.548l1.368 8.712zm45.936-15.696q.504-5.616-1.476-8.712t-6.084-3.096q-3.672 0-6.876 2.556t-5.328 7.848-2.34 13.14L280.76 159h2.808l-1.368 2.664q.432-3.888 2.412-6.984t5.04-4.86 6.66-1.764q5.256 0 8.136 3.816t2.376 10.44l-1.152 13.824q-.288 3.6.576 5.328t3.096 1.728h2.448l-.144 3.168h-2.664q-3.744 0-5.364-2.628t-1.188-7.596zm-21.744-14.4.216 11.376-.936 25.92h-3.312l1.368-37.296zm51.84 51.264q-5.472 0-9.9-2.232t-7.452-6.624l2.664-2.016q2.592 3.672 6.336 5.652t8.352 1.98q3.888 0 6.732-1.044t4.356-2.916 1.512-4.248q0-1.8-1.152-3.24t-3.708-2.592-6.732-2.088q-7.92-1.872-11.376-5.436t-3.456-9.396q0-4.752 1.98-8.82t5.4-6.48 7.668-2.412q3.816 0 6.912 1.98t4.86 5.436 1.764 7.776q0 3.96-1.512 7.416t-4.068 5.58-5.508 2.412l1.872-1.512v2.52h-6.192v-1.728q2.448-.144 5.292-1.728t4.86-4.824 2.016-7.92q0-3.6-1.368-6.372t-3.708-4.284-5.292-1.512q-3.384 0-6.048 1.944t-4.14 5.184-1.476 7.056q0 3.24 1.188 5.544t3.852 3.852 7.056 2.484q5.328 1.152 8.46 2.664t4.464 3.528 1.332 4.752q0 3.456-1.98 6.12t-5.58 4.104-8.28 1.44m21.168-49.824v3.168q-8.424 0-10.224-1.368l1.584-.36-1.512 2.16-3.6-3.6zM97.353 300.768q.432-11.016 4.608-17.604t12.096-6.588q5.76 0 8.855 3.528t3.096 9.36q0 10.224-10.043 17.964-10.044 7.74-27.252 13.356l-2.736-7.776q14.256-4.68 22.68-10.296t8.424-12.816q0-2.016-.829-3.348-.827-1.332-2.7-1.332-3.383 0-5.184 4.392-1.8 4.392-2.015 11.52l-1.44 42.192H95.84zm26.64 16.416v8.496H100.88v-8.496zm38.375 13.464q-6.624 0-9.612-3.924t-2.988-10.044q0-1.44.216-3.708t.576-4.14l2.448-12.96 6.84 5.904q-16.776 4.032-18.864-10.8h4.32q5.544 5.256 17.712 2.016l-2.88 15.48a92 92 0 0 0-.612 4.284q-.252 2.124-.252 3.06 0 2.736 1.152 4.572t3.816 1.836q1.008 0 2.304-.216L168.2 330q-2.88.648-5.832.648m-35.064-17.136q4.968-2.304 7.272-7.596t1.512-12.564l-.216-2.376h6.984q3.384 10.656.828 18.576t-10.692 12.456zm62.496-21.456q7.704 0 11.808 3.456t3.888 9.36l-.432 13.176q-.072 2.232.54 3.24t2.772 1.008h1.584l-.288 8.064h-3.888q-4.392 0-6.3-2.52t-1.98-7.2h-1.728l.648-14.616q.144-2.664-1.872-4.284t-5.904-1.62q-2.232 0-4.86.54t-5.292 1.62l-2.664-7.704a35 35 0 0 1 6.984-1.908q3.672-.612 6.984-.612m4.824 32.04 2.304-1.584q-.36 3.672-3.492 5.94t-8.604 2.268q-5.904 0-9.18-2.88t-3.276-8.064q0-5.112 3.384-8.46t9.468-4.464 13.86.324l.288 6.984q-5.76-1.008-9.684-.684t-5.832 1.728-1.908 3.564q0 1.656 1.26 2.556t3.708.9q3.96 0 6.444-1.98t2.7-5.94l6.552 9.792zm44.352-16.632q.216-2.808-.648-4.608t-3.456-1.8q-2.232 0-4.104 1.656t-3.06 5.112-1.404 8.568l-.936-17.64h2.808l-.864 1.944q.216-2.88 1.8-4.824t4.068-2.88 5.436-.936q5.472 0 8.028 3.312t2.052 9.648l-.936 11.592q-.216 2.52.396 3.708t3.06 1.188h.648l-.288 8.856h-1.368q-6.408 0-9.504-3.204t-2.52-10.044zm-13.104-14.76.936 8.928L225.8 330h-9.504l1.368-37.296zm48.312 51.264q-5.976 0-11.196-2.232t-8.532-6.264l6.768-6.552q3.024 3.24 6.156 4.788t6.732 1.548q2.016 0 3.708-.468t2.7-1.368 1.008-2.052q0-.864-.72-1.548t-2.304-1.332-4.464-1.44q-8.712-2.376-12.6-6.264t-3.888-10.224q0-5.184 2.304-9.432t6.228-6.66 8.604-2.412q4.392 0 7.92 2.124t5.508 5.868 1.98 8.352q0 3.024-1.008 5.652t-3.132 4.32-5.292 1.836l2.232-1.368v4.104h-10.44l-.072-3.672q3.456-.504 5.328-2.556t2.484-4.356.612-4.032q0-2.088-.864-3.852t-2.34-2.772-3.204-1.008a5.77 5.77 0 0 0-3.708 1.296q-1.62 1.296-2.484 3.384t-.864 4.464.936 4.104 2.988 2.952 5.364 1.944q5.544 1.152 8.712 2.772t4.536 3.78 1.368 5.184q0 4.032-2.124 7.056t-5.976 4.68-8.964 1.656m21.456-49.824v8.784q-5.4-.144-7.272-1.872h1.512l-1.728 1.44-9.72-8.352z"/></svg>
