<svg xmlns="http://www.w3.org/2000/svg" width="384" height="384" viewBox="0 0 384 384"><path fill="#b35" d="M0 0h384v384H0z"/><path fill="#fff" d="M66.88 48.584c-.72-.192-1.44.432-.816 1.248 2.448 3.216 1.248 5.04 2.544 5.568H50.512c-1.968 0-.768 1.584.72 1.536 3.792-.144 8.928-.24 14.496-.24l-.48.864c-4.08 6.624-5.664 6.912-8.16 6.96-2.352.048-3.36-.192-3.36.48 0 1.104 2.736 5.376 3.792 5.376.48 0 1.2-.384 2.4-1.2a142 142 0 0 0 20.4-3.456c1.392 2.448 1.728 4.128 3.36 4.128s3.216-1.92 3.264-3.216c.048-2.064-2.928-4.752-10.272-7.536-1.104-.48-1.632.528-.864 1.2 1.728 1.44 2.88 2.832 3.744 4.128-8.448.192-13.92.288-17.616.288 2.496-1.056 5.856-2.976 8.016-4.944 2.112-.816 2.352-1.248 2.352-1.728 0-.384-.816-.912-1.872-1.392 6.384.048 13.008.096 18.768.288 1.008.048 1.296-.912.672-1.68-1.968-2.4-3.36-3.36-4.272-3.36-1.008 0-1.872 1.488-3.264 3.504H70.624c1.584-.384 3.648-1.632 3.648-2.784 0-2.016-3.264-2.88-7.392-4.032m-4.272 21.408c-1.296 0-.384 1.536-1.344 6.384H48.736c-1.968 0-.768 1.632.768 1.584 3.12-.096 7.104-.192 11.472-.24-1.2 5.232-3.504 10.128-9.696 15.168-.624.48-.192 1.392.672 1.104 8.736-3.072 12.912-8.448 14.544-16.32l8.256.048c0 3.36 0 8.112-.144 14.256-.096 3.504 5.808 2.16 5.616-1.68-.24-6.288-.48-9.744-.576-12.576l11.664.24c1.008 0 1.248-.96.672-1.728-1.968-2.4-3.36-3.408-4.272-3.408-1.008 0-1.872 1.488-3.264 3.552H79.6V74.12c1.344-1.2 1.44-1.632 1.44-2.16 0-.96-4.128-2.256-5.664-2.256-1.152 0-.864.672-.72 3.6l.048 3.072h-7.968l.288-1.92c1.44-1.2 1.632-1.728 1.632-2.16 0-1.008-4.416-2.304-6.048-2.304m56.448-20.688c-1.44 0-.576.864.048 7.968l.624 6.288-7.824.048.048-3.456c1.344-1.296 1.584-1.824 1.584-2.304-.048-.576-1.68-1.248-3.264-1.632 2.016-.432 3.6-.816 4.704-1.152 2.016.048 2.352-.192 2.352-.816.048-.72-3.792-3.6-4.896-3.6-.864 0-.816 1.584-13.008 6.144-.816.288-.576 1.392.24 1.248 2.88-.432 5.376-.816 7.536-1.248 0 1.008.24 2.976.336 6.864l-9.216.048c-2.016.048-.672 1.728.816 1.632l8.4-.288.144 8.016a327 327 0 0 1-7.728 2.064c-2.832.672-3.072.384-3.072 1.152 0 .912 2.736 4.8 3.744 4.752.384 0 .768-.384 1.968-1.488l5.04-2.4-.048 4.032c-.144 6-.432 5.952-6.816 5.328-.96-.096-1.104 1.2-.288 1.488 6.288 2.016 2.832 4.992 5.616 4.992 3.408 0 6.048-3.936 6.048-9.6l-.096-8.496c1.968-1.056 4.128-2.304 6.576-3.792.864-.528.336-1.392-.48-1.152L112 71.768l-.096-6.816 8.016-.048c.576 4.896 1.296 9.408 2.448 13.392-2.256 1.872-5.088 4.032-8.688 6.624-.816.624-.288 1.488.576 1.152 3.6-1.344 6.48-2.784 9.264-4.464 1.104 2.832 2.496 5.376 4.32 7.584 5.04 5.952 10.752 5.376 10.704 2.016 0-2.4-1.92-.096-1.392-10.08.048-1.2-1.392-1.2-1.536-.192-.864 6.672-1.44 6.96-4.368 4.128-1.584-1.584-2.88-3.552-3.888-6.096 2.016-1.44 4.08-3.168 6.384-5.136 2.064-.672 2.16-.96 2.16-1.44 0-.96-2.544-4.08-3.504-4.08-.576 0-.816.672-1.968 2.064-1.296 1.536-2.64 3.024-4.368 4.656-.72-2.88-1.296-6.24-1.68-10.128 4.176 0 8.352 0 12.144.096.912.048 1.2-.912.576-1.68-1.824-2.208-3.072-3.072-3.888-3.072-.96 0-1.776 1.344-3.024 3.216l-5.952.048c-.288-2.88-.48-6.096-.672-9.6 1.248-1.68 1.2-2.064 1.2-2.688.048-1.056-4.752-1.92-5.712-1.92m7.584 2.496c-.864-.288-1.488.576-.768 1.296 4.08 4.32 3.216 7.248 5.568 7.248.912 0 2.976-2.064 2.928-3.36 0-2.064-3.12-3.744-7.728-5.184m45.024 23.904c-1.152-.72-1.776.24-.96 1.248 2.16 2.688 3.6 5.232 4.656 7.392-8.544.528-14.016.768-18.384.96 3.312-3.024 6.384-6.384 9.552-11.136 2.112-1.2 2.352-1.776 2.352-2.256 0-.576-1.008-1.2-2.16-1.776 6.672.048 13.632.096 19.584.288 1.008.048 1.296-.96.672-1.728-2.016-2.496-3.408-3.552-4.368-3.552-1.008 0-1.92 1.536-3.36 3.6h-10.944c-.048-3.552 0-6.624.048-9.552 4.512.048 9.12.096 13.44.192 1.008.048 1.296-.912.624-1.728-1.968-2.4-3.312-3.36-4.224-3.36-1.008 0-1.872 1.488-3.264 3.456H168.4l.096-4.176c1.632-1.248 1.728-1.632 1.728-2.112 0-1.056-4.8-2.208-6.48-2.208-1.104 0-.96.672-.912 1.488l.192 7.008h-13.248c-1.968 0-.672 1.68.72 1.632 3.456-.096 7.824-.144 12.528-.192.048 3.12 0 6.24-.096 9.552h-17.664c-2.112 0-.672 1.776.816 1.728a453 453 0 0 1 15.744-.288 15 15 0 0 1-.672 1.824c-1.632 3.936-3.696 8.256-5.232 10.512s-2.208 2.64-4.08 2.688c-3.792.144-4.224.144-4.224.96 0 1.248 3.696 6.048 4.8 6.048.48 0 1.104-.384 2.88-1.584 5.136-.912 13.776-2.4 20.688-4.848 1.92 4.416 2.256 7.248 4.176 7.248 1.776 0 3.552-2.496 3.552-4.512 0-3.12-3.936-7.728-12.048-12.816m49.824-3.36h-10.8a75 75 0 0 0 8.16-5.616c5.136.048 10.32.144 14.784.336 1.008.048 1.392-.96.72-1.776-2.064-2.448-3.456-3.456-4.368-3.456-1.056 0-1.968 1.488-3.408 3.552h-6.144c2.496-2.112 5.04-4.56 7.824-7.44 2.544-.624 2.688-1.056 2.688-1.632 0-.816-2.928-3.888-4.464-3.888-.624 0-.624.48-1.92 2.064l-1.68 2.016-.096-.096c-1.344-1.68-2.496-2.592-3.216-2.592-.864 0-1.536 1.104-2.64 2.736h-3.552l.096-2.928c1.968-1.68 2.016-2.16 2.016-2.448 0-1.008-4.368-2.16-6.336-2.16-.96 0-1.008.528-.96 1.248.096 2.016.096 4.128.144 6.288h-10.992c-1.968 0-.864 1.584.576 1.536 2.88-.144 6.48-.192 10.416-.192l-.144 7.488h-14.544c-2.112 0-.768 1.728.816 1.68 4.464-.24 10.992-.384 17.952-.384-2.016 1.632-4.176 3.168-6.48 4.704-1.344-.48-2.736-.864-3.264-.864-.912 0-.672.768-.48 3.216a357 357 0 0 1-10.272 5.856c-1.056.576-.288 1.584.576 1.248 3.696-1.536 6.96-2.88 9.888-4.224v.864c.048 4.032-.24 10.416-.528 14.592-.288 3.408 5.664 1.824 5.664-1.344V89.48h14.016l-.048 3.12c-.048 2.304 5.616 1.584 5.52-2.16-.144-4.8-.336-11.904-.192-15.648 1.344-1.152 1.488-1.536 1.488-1.968 0-.912-3.552-2.976-4.512-2.976-1.056 0-1.68 1.344-2.304 2.496m-13.968 15.84v-6.96h14.112l-.096 6.96zm0-8.256v-5.856l.768-.384h13.44l-.096 6.24zm5.664-14.544.144-7.488 8.208.192c-2.448 2.688-4.896 5.088-7.488 7.296zM252.4 54.632h-4.32c-1.296-1.104-3.456-2.064-4.32-2.064-1.104 0-.48 1.392-.432 6.384.048 6.672-.096 18.384-.624 28.224-.192 3.072 4.944 1.44 4.992-1.776v-1.968h5.088l-.048 2.256c-.048 2.4 5.088 1.632 4.848-2.016-.192-3.552-.288-10.656-.288-16.704.144.384.672.432 1.056.048 2.304-2.496 4.272-4.704 6.144-7.584h1.008c.288 8.64 0 20.304-.528 32.256-.192 3.936 5.52 2.016 5.472-1.584l-.144-9.024a239 239 0 0 1 11.472.096c1.008.048 1.44-.72.624-1.776-1.584-1.92-2.928-3.072-3.792-3.072-1.008 0-1.776 1.392-3.072 3.456h-5.232l-.048-10.272c3.552-.048 6.288-.048 10.992.096 1.008.048 1.44-.72.624-1.776-1.536-1.92-2.88-3.024-3.744-3.024-.96 0-1.776 1.392-3.072 3.408h-4.752l.048-6.192c1.056-1.152 1.296-1.632 1.296-2.064 0-.192-.192-.384-.48-.576 3.6 0 7.488.048 11.52.144 1.008.048 1.392-.816.624-1.776-1.824-2.16-3.168-3.168-4.08-3.168-1.008 0-1.872 1.44-3.216 3.504h-10.704c.72-1.152 1.392-2.4 2.112-3.84 2.064-1.632 2.208-2.064 2.208-2.592 0-1.152-4.176-2.736-5.472-2.736-.864 0-.864.912-1.392 3.216-.96 3.504-2.88 8.784-5.424 14.016l-.048.144c-.048-4.608 0-8.544.048-9.552 1.008-.96 1.2-1.344 1.2-1.824 0-1.104-2.832-3.12-3.936-3.12-.864 0-1.584 1.392-2.208 2.832m-4.656 27.504.096-13.296h5.136c-.048 4.368-.048 9.072-.144 13.296zm.096-14.592.096-11.616h4.944l.096 11.616zm70.704-13.44h-16.8c-1.488-1.2-4.128-2.4-5.328-2.4-1.296 0-.816 1.296-.72 4.224.336 8.88.144 22.512-.72 34.944-.24 3.84 5.952 2.304 5.952-1.296v-1.584h17.904v3.216c0 2.784 5.904 1.824 5.712-2.4-.432-10.752-.528-25.104-.24-31.632 1.296-1.296 1.488-1.968 1.488-2.544 0-1.056-3.456-3.36-4.608-3.36-.864 0-1.536.864-2.64 2.832M300.928 86.6l.096-16.224h17.904l-.096 16.224zm.096-17.616.048-13.488h17.904l-.048 13.488zM66.016 129.16c-.912-.24-1.536.576-.912 1.296 3.84 4.512 2.256 8.256 4.944 8.256 1.728 0 4.08-2.496 4.08-4.224 0-2.4-3.456-4.032-8.112-5.328m-15.84 37.152c0 .96 2.88 5.568 3.792 5.568 1.44 0 2.832-5.616 5.712-7.872.432-.336.816-.336 1.152.096 5.616 7.104 9.792 7.824 25.296 7.392 3.168-.096 1.056-2.784 4.464-5.04.912-.624.864-1.68-.48-1.488-17.328 2.544-22.704 1.776-28.464-2.304l-.384-.24c9.744-4.656 17.904-12.384 23.472-18.912 2.304-1.296 2.496-1.728 2.496-2.496 0-1.344-3.552-4.272-4.896-4.272-.816 0-2.208 1.44-3.312 2.976l-25.824.432c-2.256.048-.768 1.776.816 1.68 5.568-.432 15.504-.624 24.816-.72-4.848 7.248-10.32 13.248-19.056 20.496-.432-.048-.816.048-1.344.288-5.328 2.448-8.256 3.408-8.256 4.416m76.368-32.208h-16.8c-1.488-1.2-4.128-2.4-5.328-2.4-1.296 0-.816 1.296-.72 4.224.336 8.88.144 22.512-.72 34.944-.24 3.84 5.952 2.304 5.952-1.296v-1.584h17.904v3.216c0 2.784 5.904 1.824 5.712-2.4-.432-10.752-.528-25.104-.24-31.632 1.296-1.296 1.488-1.968 1.488-2.544 0-1.056-3.456-3.36-4.608-3.36-.864 0-1.536.864-2.64 2.832M108.928 166.6l.096-16.224h17.904l-.096 16.224zm.096-17.616.048-13.488h17.904l-.048 13.488zm54.624-11.616c-4.512 7.92-9.216 14.544-19.296 23.28-.816.72 0 1.584.72 1.2 8.112-4.416 13.488-8.688 18.192-14.544.048 6.144-.192 10.848-.528 24.528-.096 3.984 5.952 2.304 5.856-1.632-.192-8.256-.288-17.808-.24-23.088 1.248-1.152 1.728-1.68 1.728-2.256 0-.672-1.728-1.536-3.408-2.16l2.544-3.888c1.968-1.248 2.112-1.776 2.112-2.304 0-.336-.624-.864-1.488-1.344 5.28 0 10.56.096 15.216.24 1.056.048 1.344-1.008.672-1.728-2.4-2.832-3.792-3.648-4.752-3.648-1.104 0-2.112 1.632-3.648 3.696h-30.864c-2.064 0-.672 1.728.768 1.68 4.512-.144 10.848-.24 17.568-.288-.24.576-.624 1.296-1.152 2.256m8.352 7.824c-1.008-.48-1.584.48-.912 1.104 8.016 7.44 9.12 13.776 11.424 13.776 1.872 0 3.456-2.4 3.456-4.128 0-2.784-4.224-5.856-13.968-10.752m54.96-11.808h-33.552c-2.064 0-.672 1.776.816 1.68 6.72-.24 17.472-.336 27.792-.192l.096 3.312c.096 9.552-.048 17.76-.144 23.424-.096 5.184.096 5.808-7.344 5.184-1.104-.096-1.104 1.152-.192 1.44 7.632 2.352 3.408 5.424 6.528 5.424 3.6 0 6.432-4.224 6.336-10.272-.144-10.368-.096-20.832 0-25.248 1.488-1.44 1.776-2.112 1.776-2.64 0-.192-.192-.336-.48-.528l5.712.144c1.008.048 1.296-1.008.672-1.776-2.16-2.64-3.552-3.648-4.56-3.648-1.056 0-1.968 1.584-3.456 3.696m-16.272 8.496h-7.152c-1.392-1.008-3.744-1.824-4.608-1.824-1.2 0-.768.912-.768 6.288 0 3.696-.048 8.256-.384 13.344-.24 3.408 5.232 2.016 5.232-1.248v-2.112h7.632l-.048 2.256c-.048 2.208 5.52 1.728 5.232-2.352-.384-4.944-.384-8.832-.288-11.472 1.2-1.152 1.344-1.68 1.344-2.16 0-.96-2.928-2.88-3.984-2.88-.768 0-1.344.816-2.208 2.16m-7.68 13.104.048-11.808h7.728l-.144 11.808zm54.768-26.016c-.768 0-1.152 1.344-8.736 5.184-1.152-.576-3.072-1.2-4.128-1.2-.96 0-.72 1.008-.48 2.4.24 2.304.384 4.704.528 7.536.096 2.064-.192 2.64-1.488 3.072-.768.288-1.008.432-1.008.864 0 1.248 2.832 4.128 3.84 4.128.288 0 .672-.048 1.536-1.296 2.688-1.824 5.52-3.792 8.832-6.72.672 2.256.672 3.552 2.112 3.504 1.536-.048 2.784-2.352 2.784-3.84-.048-2.208-3.168-4.512-6.192-5.568-.816-.288-1.44.096-.864 1.008a18 18 0 0 1 1.776 3.696c-2.4 1.104-4.8 1.968-6.96 2.784-.144-3.744-.192-6.768-.144-8.832 5.184-.72 8.544-1.584 10.944-2.208 1.728 0 2.064-.288 2.064-.864 0-.672-3.504-3.648-4.416-3.648m13.968 24.144h-19.44c-1.2-.864-3.216-1.872-4.896-1.872-1.104 0-.672 1.152-.528 5.616.144 4.848-.048 9.888-.384 15.696-.144 2.64 5.28 1.728 5.28-1.488v-.336h20.352v1.92c0 1.632 5.52 1.536 5.28-2.4-.24-4.8-.384-11.04-.144-14.064.528-.576 1.488-1.536 1.488-2.352 0-.864-3.312-2.832-4.608-2.832-1.104 0-1.824 1.296-2.4 2.112M259.6 156.76v4.224h-7.824v-6.576h7.776zm-7.824 12.672v-7.152h7.824l-.144 7.152zm5.28-18.336c-.624.528.048 1.248.624 1.008 7.488-3.168 11.616-8.544 13.248-13.104 1.68-1.296 1.776-1.68 1.776-2.16-.048-.672-1.248-1.44-2.496-2.016l6.24.096c-.24 4.752-.576 6.816-1.104 8.4-.672 1.92-.864 2.304-5.376 1.728-.96-.144-1.056 1.104-.192 1.392 4.56 1.584 2.496 4.08 4.416 4.08 2.256 0 3.744-1.296 4.704-3.36 1.152-2.496 1.632-5.28 1.968-10.272 1.152-1.2 1.344-1.776 1.344-2.4 0-.912-3.408-2.976-4.32-2.976-.72 0-1.296.768-1.968 2.16h-13.392c-1.872 0-.96 1.392.432 1.344a59 59 0 0 1 4.272-.144c-.144.336-.288.816-.432 1.488-1.728 6-4.8 10.752-9.744 14.736m7.296 18.336v-7.152h7.872l-.048 7.152zm.048-8.448.048-4.704c1.008-.864 1.008-1.344 1.008-1.632 0-.096-.048-.144-.144-.24h6.96l-.048 6.576zm51.6-29.472c.432 11.712.24 23.808.096 31.92-.096 6.816 1.536 9.408 7.968 9.408 4.992 0 8.256-2.16 8.256-4.608 0-2.304-1.968.672-1.824-7.632 0-1.248-1.296-1.248-1.44-.096-.288 2.736-.72 4.8-1.248 5.808-.624 1.104-1.968 1.728-3.648 1.728-3.168 0-3.504-1.536-3.504-5.088 0-6.384.144-15.984.528-28.656 1.008-.864 1.392-1.632 1.392-2.112-.048-.864-3.936-2.4-5.76-2.4-.672 0-.864.384-.816 1.728m-8.496-1.488c-1.008 0-1.056 1.44-15.456 6-.864.24-.72 1.392.288 1.248l7.584-.912v7.584h-10.416c-1.824 0-.816 1.488.528 1.488 2.88-.096 6.24-.144 9.84-.144-.048 2.88-.144 5.808-.288 8.88h-1.104c-1.296-.768-3.792-1.632-4.656-1.632-1.248 0-.528 1.296-.528 6 0 3.552-.24 9.984-.528 13.392-.288 3.12 5.232 1.584 5.184-1.2v-2.256h8.976v2.256c0 2.4 5.232 1.728 5.04-2.064-.192-4.08-.336-8.544-.24-11.952.624-.672 1.392-1.488 1.392-2.256-.048-.768-3.12-2.688-4.08-2.688s-1.488 1.152-2.16 2.4h-2.928l.576-8.88 9.408.144c.912.048 1.296-.768.576-1.728-1.392-1.776-2.688-2.88-3.504-2.88-.864 0-1.584 1.2-2.784 3.12h-3.6l.24-4.416c1.392-1.296 1.488-1.776 1.488-2.16 0-.576-1.152-1.152-2.448-1.584 2.784-.432 4.848-.816 6.192-1.2 2.208.096 2.592-.144 2.592-.768 0-.72-4.08-3.792-5.184-3.792m-9.552 37.104.096-11.664h9.024l-.096 11.664zM71.056 209.304c-1.44 0-.576.864.048 7.968l.624 6.288-7.824.048.048-3.456c1.344-1.296 1.584-1.824 1.584-2.304-.048-.576-1.68-1.248-3.264-1.632 2.016-.432 3.6-.816 4.704-1.152 2.016.048 2.352-.192 2.352-.816.048-.72-3.792-3.6-4.896-3.6-.864 0-.816 1.584-13.008 6.144-.816.288-.576 1.392.24 1.248 2.88-.432 5.376-.816 7.536-1.248 0 1.008.24 2.976.336 6.864l-9.216.048c-2.016.048-.672 1.728.816 1.632l8.4-.288.144 8.016a327 327 0 0 1-7.728 2.064c-2.832.672-3.072.384-3.072 1.152 0 .912 2.736 4.8 3.744 4.752.384 0 .768-.384 1.968-1.488l5.04-2.4-.048 4.032c-.144 6-.432 5.952-6.816 5.328-.96-.096-1.104 1.2-.288 1.488 6.288 2.016 2.832 4.992 5.616 4.992 3.408 0 6.048-3.936 6.048-9.6l-.096-8.496c1.968-1.056 4.128-2.304 6.576-3.792.864-.528.336-1.392-.48-1.152L64 231.768l-.096-6.816 8.016-.048c.576 4.896 1.296 9.408 2.448 13.392-2.256 1.872-5.088 4.032-8.688 6.624-.816.624-.288 1.488.576 1.152 3.6-1.344 6.48-2.784 9.264-4.464 1.104 2.832 2.496 5.376 4.32 7.584 5.04 5.952 10.752 5.376 10.704 2.016 0-2.4-1.92-.096-1.392-10.08.048-1.2-1.392-1.2-1.536-.192-.864 6.672-1.44 6.96-4.368 4.128-1.584-1.584-2.88-3.552-3.888-6.096 2.016-1.44 4.08-3.168 6.384-5.136 2.064-.672 2.16-.96 2.16-1.44 0-.96-2.544-4.08-3.504-4.08-.576 0-.816.672-1.968 2.064-1.296 1.536-2.64 3.024-4.368 4.656-.72-2.88-1.296-6.24-1.68-10.128 4.176 0 8.352 0 12.144.096.912.048 1.2-.912.576-1.68-1.824-2.208-3.072-3.072-3.888-3.072-.96 0-1.776 1.344-3.024 3.216l-5.952.048c-.288-2.88-.48-6.096-.672-9.6 1.248-1.68 1.2-2.064 1.2-2.688.048-1.056-4.752-1.92-5.712-1.92m7.584 2.496c-.864-.288-1.488.576-.768 1.296 4.08 4.32 3.216 7.248 5.568 7.248.912 0 2.976-2.064 2.928-3.36 0-2.064-3.12-3.744-7.728-5.184m28.128 9.696c.816 4.272.48 10.56.624 15.84.24 10.896 4.8 15.312 14.4 15.312 6.576 0 10.656-1.44 10.656-4.032 0-2.4-2.016-.384-2.496-9.552-.096-1.344-1.536-1.488-1.584-.144-.192 3.648-.528 5.856-1.584 7.056-.672.816-2.304 1.44-5.664 1.44-5.808 0-8.016-2.928-8.64-8.448-.432-4.032-.48-8.448-.432-14.544 1.056-1.296 1.104-1.92 1.104-2.352 0-.816-3.84-2.352-5.712-2.352-.672 0-.912.432-.672 1.776m-4.416 6.384c-.336-1.44-1.2-1.632-1.584-.192-1.92 7.104-4.992 8.016-4.992 10.992 0 1.776 1.248 4.416 3.12 4.416 3.12 0 5.184-7.92 3.456-15.216m11.856-18.144c-1.008-.48-1.776.48-1.152 1.296 5.28 6.48 3.984 11.328 6.672 11.328 1.68 0 3.744-2.352 3.744-4.608 0-1.824-1.824-4.608-9.264-8.016m15.6 14.112c-1.008-.384-1.728.576-1.008 1.344 5.568 5.856 4.56 11.328 7.296 11.328 1.632 0 3.504-2.592 3.504-4.8 0-1.824-2.448-5.04-9.792-7.872m43.68 8.496h-10.8a75 75 0 0 0 8.16-5.616c5.136.048 10.32.144 14.784.336 1.008.048 1.392-.96.72-1.776-2.064-2.448-3.456-3.456-4.368-3.456-1.056 0-1.968 1.488-3.408 3.552h-6.144c2.496-2.112 5.04-4.56 7.824-7.44 2.544-.624 2.688-1.056 2.688-1.632 0-.816-2.928-3.888-4.464-3.888-.624 0-.624.48-1.92 2.064l-1.68 2.016-.096-.096c-1.344-1.68-2.496-2.592-3.216-2.592-.864 0-1.536 1.104-2.64 2.736h-3.552l.096-2.928c1.968-1.68 2.016-2.16 2.016-2.448 0-1.008-4.368-2.16-6.336-2.16-.96 0-1.008.528-.96 1.248.096 2.016.096 4.128.144 6.288h-10.992c-1.968 0-.864 1.584.576 1.536 2.88-.144 6.48-.192 10.416-.192l-.144 7.488h-14.544c-2.112 0-.768 1.728.816 1.68 4.464-.24 10.992-.384 17.952-.384-2.016 1.632-4.176 3.168-6.48 4.704-1.344-.48-2.736-.864-3.264-.864-.912 0-.672.768-.48 3.216a357 357 0 0 1-10.272 5.856c-1.056.576-.288 1.584.576 1.248 3.696-1.536 6.96-2.88 9.888-4.224v.864c.048 4.032-.24 10.416-.528 14.592-.288 3.408 5.664 1.824 5.664-1.344v-1.248h14.016l-.048 3.12c-.048 2.304 5.616 1.584 5.52-2.16-.144-4.8-.336-11.904-.192-15.648 1.344-1.152 1.488-1.536 1.488-1.968 0-.912-3.552-2.976-4.512-2.976-1.056 0-1.68 1.344-2.304 2.496m-13.968 15.84v-6.96h14.112l-.096 6.96zm0-8.256v-5.856l.768-.384h13.44l-.096 6.24zm5.664-14.544.144-7.488 8.208.192c-2.448 2.688-4.896 5.088-7.488 7.296zm45.168-13.584c-2.88 4.272-8.496 11.28-18.528 19.824-.72.624-.192 1.488.624 1.056 9.648-5.232 16.464-10.656 23.184-18.528 6.624 8.976 13.872 17.376 15.648 17.376 1.728 0 .48-2.4 4.704-3.648.72-.24.912-1.152.096-1.488-2.448-1.104-9.216-4.944-19.584-13.104 1.776-.624 1.92-1.056 1.92-1.536.048-.912-3.792-3.36-5.232-3.36-1.008 0-1.152.96-2.832 3.408m4.56 15.168h-9.456c-1.728 0-.768 1.44.48 1.44 4.752-.144 9.504-.144 15.552.048 1.008.048 1.44-.816.624-1.776-1.824-2.16-3.12-3.12-4.032-3.12-.96 0-1.824 1.44-3.168 3.408m-15.408 8.64c-2.016 0-.864 1.584.576 1.536 4.704-.24 11.472-.192 18.528-.144-1.488 4.992-3.312 10.416-5.232 15.216-1.2 3.024 4.944 3.888 6.192-.672 1.104-3.696 2.112-6.96 4.032-12.576 1.488-1.248 1.92-1.824 1.968-2.352 0-1.152-3.216-3.504-4.128-3.504s-1.584.336-3.072 2.496zm71.04-21.504h-16.8c-1.488-1.2-4.128-2.4-5.328-2.4-1.296 0-.816 1.296-.72 4.224.336 8.88.144 22.512-.72 34.944-.24 3.84 5.952 2.304 5.952-1.296v-1.584h17.904v3.216c0 2.784 5.904 1.824 5.712-2.4-.432-10.752-.528-25.104-.24-31.632 1.296-1.296 1.488-1.968 1.488-2.544 0-1.056-3.456-3.36-4.608-3.36-.864 0-1.536.864-2.64 2.832M252.928 246.6l.096-16.224h17.904l-.096 16.224zm.096-17.616.048-13.488h17.904l-.048 13.488zm52.992-19.824c-.912-.24-1.536.576-.912 1.296 3.84 4.512 2.256 8.256 4.944 8.256 1.728 0 4.08-2.496 4.08-4.224 0-2.4-3.456-4.032-8.112-5.328m-15.84 37.152c0 .96 2.88 5.568 3.792 5.568 1.44 0 2.832-5.616 5.712-7.872.432-.336.816-.336 1.152.096 5.616 7.104 9.792 7.824 25.296 7.392 3.168-.096 1.056-2.784 4.464-5.04.912-.624.864-1.68-.48-1.488-17.328 2.544-22.704 1.776-28.464-2.304l-.384-.24c9.744-4.656 17.904-12.384 23.472-18.912 2.304-1.296 2.496-1.728 2.496-2.496 0-1.344-3.552-4.272-4.896-4.272-.816 0-2.208 1.44-3.312 2.976l-25.824.432c-2.256.048-.768 1.776.816 1.68 5.568-.432 15.504-.624 24.816-.72-4.848 7.248-10.32 13.248-19.056 20.496-.432-.048-.816.048-1.344.288-5.328 2.448-8.256 3.408-8.256 4.416M78.544 294.104h-16.8c-1.488-1.2-4.128-2.4-5.328-2.4-1.296 0-.816 1.296-.72 4.224.336 8.88.144 22.512-.72 34.944-.24 3.84 5.952 2.304 5.952-1.296v-1.584h17.904v3.216c0 2.784 5.904 1.824 5.712-2.4-.432-10.752-.528-25.104-.24-31.632 1.296-1.296 1.488-1.968 1.488-2.544 0-1.056-3.456-3.36-4.608-3.36-.864 0-1.536.864-2.64 2.832M60.928 326.6l.096-16.224h17.904l-.096 16.224zm.096-17.616.048-13.488h17.904l-.048 13.488zm53.856-19.872c-.864 0-1.008.912-3.072 3.216-2.88 3.216-6.144 6.432-12.672 11.28-.672.528-.096 1.296.624 1.008a68 68 0 0 0 10.896-5.856c3.12 4.128 1.824 5.952 4.032 5.952 1.248 0 3.12-1.344 3.12-3.216 0-1.152-1.536-2.544-5.664-3.744l2.784-2.016h11.232c-3.6 4.512-11.232 11.328-24.96 17.04-.816.336-.288 1.392.48 1.2 16.128-3.84 25.824-11.952 29.088-15.456 2.16-1.632 2.4-2.016 2.4-2.688 0-.96-3.168-3.456-4.32-3.456-.864 0-1.296.48-2.688 2.016h-9.6l.864-.72c2.928-1.248 3.072-1.824 3.072-2.208 0-.816-4.608-2.352-5.616-2.352m5.616 18.384c-.672 0-1.056.528-1.872 1.392-3.888 3.984-9.12 7.872-16.848 12.576-.624.384-.192 1.248.432 1.056 4.32-1.488 8.112-3.12 11.28-4.752 3.12 4.272 2.352 6.48 4.464 6.48 1.296 0 3.264-1.488 3.264-3.264 0-1.2-1.776-2.784-6.096-4.08 1.776-1.008 3.36-1.968 4.656-2.832h10.8c-3.936 6.288-13.152 13.584-31.824 19.104-.912.288-.576 1.488.24 1.344 23.616-3.504 31.968-11.856 35.904-17.088 2.208-1.728 2.688-2.304 2.688-3.024 0-1.248-3.312-3.84-4.368-3.84-.864 0-1.344.576-2.688 2.112h-8.736l.768-.576c2.544-1.152 2.976-1.584 2.976-1.968 0-.72-4.128-2.592-5.04-2.64m28.08-6.72c-.24-1.104-1.104-1.056-1.344.048-1.152 5.232-2.592 6.048-2.592 8.304 0 1.344.816 3.36 2.208 3.36 2.112 0 2.88-6.096 1.728-11.712m-4.944 31.008c-.48.672.24 1.344.816.912 6.72-5.232 9.024-10.368 9.84-16.224 2.352 5.136 1.728 8.736 4.176 8.736 1.488 0 2.544-2.4 2.544-3.264 0-2.448-2.64-4.704-6.528-7.296.144-1.248.192-2.544.24-3.84l.144-4.8.096-.048c1.632-.768 3.408-1.824 4.992-3.12 1.584-.864 2.304-.96 2.304-1.584s-2.448-3.888-3.216-3.888c-.672 0-.864.672-1.536 2.16a51 51 0 0 1-2.592 4.848l.288-10.368c1.104-.864 1.536-1.584 1.536-2.064 0-.912-3.984-2.352-5.664-2.352-.864 0-.96.528-.864 1.2.816 7.008.72 13.488.384 19.872-.48 9.648-2.208 14.256-6.96 21.12m34.704-38.736H160.24c-1.92 0-.72 1.584.624 1.584a202 202 0 0 1 8.064-.144l-.096.864c-.192 1.488-.624 3.744-1.008 5.568h-.576c-1.296-.768-3.216-1.536-4.32-1.536-.672 0-.624.384-.576 2.496.096 7.488 0 13.344-.288 19.2-.144 2.496 4.752 1.68 4.752-1.68v-17.184h10.944l-.048 18.768c0 2.112 5.04 1.104 4.848-2.016-.336-5.328-.432-12.24-.192-15.6 1.296-.96 1.392-1.2 1.392-1.584 0-.912-2.832-2.976-3.984-2.976-1.056 0-1.728 1.152-2.256 2.112h-7.632c1.344-1.056 2.4-2.256 2.976-3.072 1.632-1.248 1.92-1.68 1.92-2.064s-.72-.864-1.68-1.344c3.888 0 7.92.096 11.856.192 1.008.048 1.392-.864.624-1.728-1.824-2.256-3.168-3.264-4.032-3.264-1.008 0-1.872 1.44-3.216 3.408m-22.224 39.936c-.816.432-.192 1.392.432 1.2 18-5.376 17.856-12.768 17.904-25.056 1.008-1.488 1.056-1.92 1.056-2.304 0-.912-3.36-1.968-4.944-1.968-1.056 0-.624.672-.576 5.184.096 9.84.144 15.456-13.872 22.944m18.24-10.176c-.72-.288-1.2.624-.672 1.104 5.904 5.28 6.144 9.6 8.688 9.6 1.2 0 2.592-2.016 2.592-3.456 0-2.544-3.36-4.416-10.608-7.248m22.368-22.464c-.288-1.152-1.152-1.056-1.344.096-.912 5.424-2.496 6.432-2.496 8.736 0 1.584.864 3.36 2.16 3.36 2.4 0 3.12-6.48 1.68-12.192m1.344 31.536c-.144 3.648 5.232 2.208 5.184-1.296-.048-17.136 0-26.112.096-31.824 3.168 4.848 1.968 6.96 3.888 6.96.768 0 1.824-.864 2.352-1.872.144.048.288.048.432.048l4.176-.096c-.72 12.72-3.696 20.4-9.84 27.888-.624.768.24 1.488.912.96 9.072-6.912 12.432-12.864 13.632-28.896 4.56 0 9.504.048 14.496.144.912 0 1.296-.816.528-1.728-1.68-2.064-2.88-2.976-3.696-2.976-.96 0-1.728 1.296-2.976 3.12h-8.256c.144-2.544.24-5.328.336-8.4 1.824-1.44 1.92-1.872 1.92-2.352 0-.864-4.656-2.112-6.288-2.112-1.008 0-.768.672-.672 4.656.048 2.976.048 5.664-.048 8.208h-4.464c-.192-1.632-1.872-2.784-5.808-4.656-.288-.096-.48-.048-.624.048l.048-3.6c1.248-1.056 1.824-1.584 1.776-2.256 0-.864-4.032-1.968-5.664-1.968-1.008 0-.912.672-.864 1.44.48 8.784.384 20.736-.576 40.56m21.792-24.24c.192 5.424-.096 11.904-.192 16.32-.144 6.528 1.68 8.928 7.536 8.928 4.848 0 8.16-1.92 8.16-4.272.048-2.208-1.872.48-1.68-7.488.048-1.2-1.296-1.2-1.392-.096-.288 2.64-.72 4.704-1.248 5.664-.624 1.104-2.016 1.536-3.696 1.536-2.448 0-3.168-1.344-3.168-3.84 0-4.08 0-9.024.192-14.256 1.056-.816 1.344-1.584 1.344-2.016-.048-.864-3.312-2.112-5.088-2.112-.624 0-.816.336-.768 1.632m4.272-16.272c-.768-.288-1.248.384-.768 1.056 3.312 4.704 2.256 7.152 4.512 7.152.912 0 2.928-1.776 2.928-3.168 0-1.872-2.4-3.504-6.672-5.04m23.904 35.952c-1.344.528-1.44.72-1.44 1.248 0 1.2 2.928 4.944 3.984 4.944.912 0 1.584-.672 4.176-3.024a66 66 0 0 0 9.36-7.296c.528-.528 0-1.248-.576-1.008l-8.688 3.648.192-16.8 4.368-.048c6.864 13.824 15.84 23.712 17.856 23.712 1.632 0 .864-2.064 4.56-3.696.912-.384.864-1.152 0-1.632-4.032-2.16-9.6-6.288-20.832-18.384 6.912 0 14.256.096 20.544.288 1.008.048 1.296-.96.624-1.728-2.064-2.592-3.456-3.648-4.464-3.648-1.056 0-1.968 1.536-3.408 3.696H255.04c.096-4.56.192-8.736.384-13.536 1.632-1.296 1.728-1.872 1.728-2.4.048-1.056-4.56-2.256-6.24-2.256-1.104 0-.96.672-.912 1.488.192 5.616.192 11.136.144 16.704h-8.064c-2.064 0-.672 1.728.816 1.68l7.248-.192c-.048 5.04-.144 10.128-.24 15.36-.048 1.728-.528 2.352-1.872 2.88m23.04-35.808c-3.168 3.216-5.808 5.28-13.536 11.616-.672.576-.288 1.44.528 1.104 6.96-2.832 10.944-4.992 16.224-8.496 2.736-.768 3.12-1.296 3.12-1.776 0-.768-3.168-3.984-4.32-3.984-.528 0-1.008.432-2.016 1.536m24.144 9.6c.132 14.509-1.104 24.192-6.384 31.92-.576.864.192 1.68.96 1.008 8.928-8.208 11.232-16.32 10.476-39.792h19.38c-1.728 19.344-.816 33.12 7.104 38.352 2.448 1.632 6.096 1.104 6.144-1.44 0-2.16-1.872-.96-1.344-11.232.048-1.056-1.296-1.2-1.44-.144-.912 6.768-.912 8.4-3.168 5.28-2.976-4.08-4.416-14.928-2.208-29.376 1.488-1.248 1.632-1.872 1.632-2.256-.048-1.2-3.408-3.408-4.416-3.408-.624 0-1.248.48-2.496 2.88h-18.948c-1.392-1.008-3.936-2.16-4.944-2.16-1.44 0-.432 1.152-.348 10.368m17.28-3.888c-.912 0-.24.912-1.392 4.848-.48 1.632-1.008 3.456-1.728 5.472a68 68 0 0 0-6.72-6.144c-.72-.528-1.824.144-.96 1.248a87 87 0 0 1 6.24 8.736c-1.92 4.752-4.896 10.08-9.936 15.408-.624.672 0 1.44.768.912 5.52-3.744 9.12-7.92 11.616-12.096 3.36 6.24 3.984 9.504 5.76 9.504 1.296 0 3.168-3.024 1.68-6.432-.768-1.728-2.64-4.464-5.136-7.44 1.488-3.264 2.448-6.432 3.36-9.36.912-1.008 1.152-1.44 1.152-1.872 0-1.008-3.168-2.832-4.704-2.784"/></svg>
