<svg xmlns="http://www.w3.org/2000/svg" width="384" height="384" viewBox="0 0 384 384"><path fill="#fff" stroke="#c9c9cd" d="M.5.5h383v383H.5z"/><path fill="#3634a3" d="M32.638 91.436V104h1.584v-5.742l4.95.018v-1.332h-4.95v-4.176h5.346v-1.332zm14.068 8.316v.954c0 1.224-.882 2.358-2.376 2.358-1.044 0-1.8-.576-1.8-1.728 0-1.584 1.44-1.584 2.052-1.584zm-4.734-2.7c1.044-.81 1.926-1.008 2.7-1.008 2.034 0 2.034 1.386 2.034 2.088v.486h-2.16c-.756 0-3.582 0-3.582 2.772 0 1.836 1.26 2.862 3.096 2.862 1.458 0 2.376-.648 2.682-1.602V104h1.494v-6.012c0-.81 0-3.168-3.42-3.168a7.6 7.6 0 0 0-3.312.756zm14.14-2.07a5 5 0 0 0-1.08-.126c-1.692 0-2.286 1.08-2.412 1.8V95h-1.476v9h1.53v-5.166c0-1.206.576-2.61 2.124-2.61.306 0 .666.054 1.098.27zm9.92-.198c-2.574 0-4.302 1.854-4.302 4.734 0 2.862 1.71 4.698 4.284 4.698 2.556 0 4.266-1.854 4.266-4.734s-1.71-4.698-4.248-4.698m0 1.278c1.692 0 2.628 1.296 2.628 3.438 0 2.16-.954 3.438-2.646 3.438s-2.664-1.314-2.664-3.438c0-2.16.99-3.438 2.682-3.438M79.938 104v-9h-1.53v5.112c0 1.35-.72 2.826-2.448 2.826-1.98 0-1.98-1.944-1.98-2.862V95h-1.53v5.13c0 1.404 0 4.104 3.15 4.104 1.98 0 2.592-1.08 2.862-1.692V104zm3.502-11.52v2.556h-1.62v1.26h1.62v4.608c0 1.332 0 3.222 2.574 3.222.504 0 1.098-.072 1.656-.27l-.18-1.296c-.486.216-.918.306-1.296.306-1.242 0-1.242-.99-1.242-2.106v-4.464h2.556v-1.26h-2.556V92.48zM94.35 95v9h1.548v-9zm-.27-3.24c0 .594.45 1.044 1.044 1.044s1.044-.45 1.044-1.044-.45-1.044-1.044-1.044-1.044.45-1.044 1.044M98.95 95v9h1.53v-5.184c0-1.386.774-2.754 2.466-2.754 1.998 0 1.998 1.89 1.998 2.736V104h1.53v-5.274c0-1.17 0-3.96-3.132-3.96-1.944 0-2.628 1.08-2.916 1.71V95zm15.68-2.52v2.556h-1.62v1.26h1.62v4.608c0 1.332 0 3.222 2.574 3.222.504 0 1.098-.072 1.656-.27l-.18-1.296c-.486.216-.918.306-1.296.306-1.242 0-1.242-.99-1.242-2.106v-4.464h2.556v-1.26h-2.556V92.48zm6.094-1.62V104h1.53v-5.184c0-1.386.774-2.754 2.466-2.754 1.998 0 1.998 1.89 1.998 2.736V104h1.53v-5.274c0-1.17 0-3.96-3.132-3.96-1.944 0-2.628 1.08-2.916 1.71.054-.54.054-1.116.054-1.476v-4.14zm17.722 8.982v-.846c0-2.646-1.512-4.23-3.834-4.23-2.502 0-4.194 1.854-4.194 4.752 0 2.808 1.584 4.698 4.446 4.698 1.242 0 2.412-.342 3.204-.864l-.468-1.422c-.9.792-1.854 1.044-2.682 1.044-1.746 0-2.808-1.242-2.88-3.132zm-3.852-3.852c1.458 0 2.34 1.008 2.304 2.682h-4.842c.126-1.674 1.098-2.682 2.538-2.682M152.74 104v-9h-1.53v5.112c0 1.35-.72 2.826-2.448 2.826-1.98 0-1.98-1.944-1.98-2.862V95h-1.53v5.13c0 1.404 0 4.104 3.15 4.104 1.98 0 2.592-1.08 2.862-1.692V104zm3.016-9v9h1.53v-5.184c0-1.386.774-2.754 2.466-2.754 1.998 0 1.998 1.89 1.998 2.736V104h1.53v-5.274c0-1.17 0-3.96-3.132-3.96-1.944 0-2.628 1.08-2.916 1.71V95zm16.84.432a5.86 5.86 0 0 0-2.664-.63c-2.772 0-4.5 1.872-4.5 4.752 0 2.772 1.62 4.644 4.446 4.644.756 0 1.71-.126 2.682-.72l-.54-1.368c-.648.522-1.278.792-2.124.792-1.782 0-2.844-1.35-2.844-3.402s1.08-3.42 2.862-3.42c.774 0 1.44.252 2.052.648zm1.972-4.572V104h1.53v-5.184c0-1.386.774-2.754 2.466-2.754 1.998 0 1.998 1.89 1.998 2.736V104h1.53v-5.274c0-1.17 0-3.96-3.132-3.96-1.944 0-2.628 1.08-2.916 1.71.054-.54.054-1.116.054-1.476v-4.14zm15.562 8.892v.954c0 1.224-.882 2.358-2.376 2.358-1.044 0-1.8-.576-1.8-1.728 0-1.584 1.44-1.584 2.052-1.584zm-4.734-2.7c1.044-.81 1.926-1.008 2.7-1.008 2.034 0 2.034 1.386 2.034 2.088v.486h-2.16c-.756 0-3.582 0-3.582 2.772 0 1.836 1.26 2.862 3.096 2.862 1.458 0 2.376-.648 2.682-1.602V104h1.494v-6.012c0-.81 0-3.168-3.42-3.168a7.6 7.6 0 0 0-3.312.756zm13.672-2.034a2.6 2.6 0 0 0-.774-.108c-1.548 0-2.124 1.08-2.25 1.764V95h-1.476v9h1.53v-5.112c0-1.242.576-2.682 2.124-2.682.252 0 .54.036.846.144zm2.386-2.538v2.556h-1.62v1.26h1.62v4.608c0 1.332 0 3.222 2.574 3.222.504 0 1.098-.072 1.656-.27l-.18-1.296c-.486.216-.918.306-1.296.306-1.242 0-1.242-.99-1.242-2.106v-4.464h2.556v-1.26h-2.556V92.48zm13.402 7.362v-.846c0-2.646-1.512-4.23-3.834-4.23-2.502 0-4.194 1.854-4.194 4.752 0 2.808 1.584 4.698 4.446 4.698 1.242 0 2.412-.342 3.204-.864l-.468-1.422c-.9.792-1.854 1.044-2.682 1.044-1.746 0-2.808-1.242-2.88-3.132zm-3.852-3.852c1.458 0 2.34 1.008 2.304 2.682h-4.842c.126-1.674 1.098-2.682 2.538-2.682m11.944-5.13V95c0 .324 0 .774.054 1.278-.432-.99-1.44-1.494-2.7-1.494-2.466 0-4.014 1.944-4.014 4.77s1.566 4.662 3.906 4.662c1.53 0 2.43-.756 2.808-1.638V104h1.476V90.86zm.018 7.686v1.62c0 1.278-.756 2.772-2.502 2.772-1.638 0-2.556-1.368-2.556-3.456 0-2.106.918-3.42 2.61-3.42 1.764 0 2.448 1.404 2.448 2.484m9.308-7.686V104h1.476v-1.386c.36.99 1.422 1.602 2.79 1.602 2.43 0 3.924-1.962 3.924-4.806 0-2.808-1.494-4.626-3.852-4.626-1.386 0-2.448.612-2.862 1.728.054-.558.054-1.134.054-1.512v-4.14zm1.512 7.956c0-1.296.738-2.754 2.52-2.754 1.692 0 2.538 1.35 2.538 3.438 0 2.106-.864 3.438-2.592 3.438-1.8 0-2.466-1.494-2.466-2.574zm14.014.936v.954c0 1.224-.882 2.358-2.376 2.358-1.044 0-1.8-.576-1.8-1.728 0-1.584 1.44-1.584 2.052-1.584zm-4.734-2.7c1.044-.81 1.926-1.008 2.7-1.008 2.034 0 2.034 1.386 2.034 2.088v.486h-2.16c-.756 0-3.582 0-3.582 2.772 0 1.836 1.26 2.862 3.096 2.862 1.458 0 2.376-.648 2.682-1.602V104h1.494v-6.012c0-.81 0-3.168-3.42-3.168a7.6 7.6 0 0 0-3.312.756zm15.598-1.62a5.86 5.86 0 0 0-2.664-.63c-2.772 0-4.5 1.872-4.5 4.752 0 2.772 1.62 4.644 4.446 4.644.756 0 1.71-.126 2.682-.72l-.54-1.368c-.648.522-1.278.792-2.124.792-1.782 0-2.844-1.35-2.844-3.402s1.08-3.42 2.862-3.42c.774 0 1.44.252 2.052.648zm1.972-4.572V104h1.44v-4.536h.036L265.91 104h1.98l-4.32-4.878L267.494 95h-1.944l-3.438 3.888h-.036V90.86zM268.89 95l2.196 9h1.872c1.728-6.174 1.728-6.174 2.07-7.614.288 1.44.288 1.44 1.908 7.614h1.836l2.34-9h-1.476c-1.458 6.246-1.458 6.246-1.782 7.956-.342-1.71-.342-1.71-2.016-7.92H274.2c-1.746 6.21-1.746 6.21-2.106 7.92-.288-1.71-.288-1.71-1.602-7.956zm19.558 4.752v.954c0 1.224-.882 2.358-2.376 2.358-1.044 0-1.8-.576-1.8-1.728 0-1.584 1.44-1.584 2.052-1.584zm-4.734-2.7c1.044-.81 1.926-1.008 2.7-1.008 2.034 0 2.034 1.386 2.034 2.088v.486h-2.16c-.756 0-3.582 0-3.582 2.772 0 1.836 1.26 2.862 3.096 2.862 1.458 0 2.376-.648 2.682-1.602V104h1.494v-6.012c0-.81 0-3.168-3.42-3.168a7.6 7.6 0 0 0-3.312.756zm9.658-4.572v2.556h-1.62v1.26h1.62v4.608c0 1.332 0 3.222 2.574 3.222.504 0 1.098-.072 1.656-.27l-.18-1.296c-.486.216-.918.306-1.296.306-1.242 0-1.242-.99-1.242-2.106v-4.464h2.556v-1.26h-2.556V92.48zm13.402 7.362v-.846c0-2.646-1.512-4.23-3.834-4.23-2.502 0-4.194 1.854-4.194 4.752 0 2.808 1.584 4.698 4.446 4.698 1.242 0 2.412-.342 3.204-.864l-.468-1.422c-.9.792-1.854 1.044-2.682 1.044-1.746 0-2.808-1.242-2.88-3.132zm-3.852-3.852c1.458 0 2.34 1.008 2.304 2.682h-4.842c.126-1.674 1.098-2.682 2.538-2.682m10.972-1.008a5 5 0 0 0-1.08-.126c-1.692 0-2.286 1.08-2.412 1.8V95h-1.476v9h1.53v-5.166c0-1.206.576-2.61 2.124-2.61.306 0 .666.054 1.098.27zm6.976.306a6.4 6.4 0 0 0-2.502-.522c-1.962 0-3.312.936-3.312 2.682 0 3.186 4.554 1.98 4.554 4.158 0 .9-.774 1.35-1.764 1.35-.918 0-1.818-.378-2.52-.972l-.504 1.512c.9.468 1.872.72 2.934.72 1.962 0 3.348-.864 3.348-2.754 0-3.42-4.572-2.016-4.572-4.122 0-.81.684-1.35 1.728-1.35.774 0 1.53.288 2.07.702zm10.892-.504c-2.574 0-4.302 1.854-4.302 4.734 0 2.862 1.71 4.698 4.284 4.698 2.556 0 4.266-1.854 4.266-4.734s-1.71-4.698-4.248-4.698m0 1.278c1.692 0 2.628 1.296 2.628 3.438 0 2.16-.954 3.438-2.646 3.438s-2.664-1.314-2.664-3.438c0-2.16.99-3.438 2.682-3.438m11.656-5.076a5.8 5.8 0 0 0-1.584-.216c-2.934 0-2.934 2.286-2.934 3.24v1.026h-1.62v1.26h1.62V104h1.53v-7.704h2.538v-1.26h-2.538V94.01c0-.882 0-1.998 1.422-1.998a2.5 2.5 0 0 1 1.332.378zM32.944 116.48v2.556h-1.62v1.26h1.62v4.608c0 1.332 0 3.222 2.574 3.222.504 0 1.098-.072 1.656-.27l-.18-1.296c-.486.216-.918.306-1.296.306-1.242 0-1.242-.99-1.242-2.106v-4.464h2.556v-1.26h-2.556v-2.556zm6.094-1.62V128h1.53v-5.184c0-1.386.774-2.754 2.466-2.754 1.998 0 1.998 1.89 1.998 2.736V128h1.53v-5.274c0-1.17 0-3.96-3.132-3.96-1.944 0-2.628 1.08-2.916 1.71.054-.54.054-1.116.054-1.476v-4.14zm17.722 8.982v-.846c0-2.646-1.512-4.23-3.834-4.23-2.502 0-4.194 1.854-4.194 4.752 0 2.808 1.584 4.698 4.446 4.698 1.242 0 2.412-.342 3.204-.864l-.468-1.422c-.9.792-1.854 1.044-2.682 1.044-1.746 0-2.808-1.242-2.88-3.132zm-3.852-3.852c1.458 0 2.34 1.008 2.304 2.682H50.37c.126-1.674 1.098-2.682 2.538-2.682M71.054 128v-9h-1.53v5.112c0 1.35-.72 2.826-2.448 2.826-1.98 0-1.98-1.944-1.98-2.862V119h-1.53v5.13c0 1.404 0 4.104 3.15 4.104 1.98 0 2.592-1.08 2.862-1.692V128zm3.016-9v9h1.53v-5.184c0-1.386.774-2.754 2.466-2.754 1.998 0 1.998 1.89 1.998 2.736V128h1.53v-5.274c0-1.17 0-3.96-3.132-3.96-1.944 0-2.628 1.08-2.916 1.71V119zm15.526-4.014a5.8 5.8 0 0 0-1.584-.216c-2.934 0-2.934 2.286-2.934 3.24v1.026h-1.62v1.26h1.62V128h1.53v-7.704h2.538v-1.26h-2.538v-1.026c0-.882 0-1.998 1.422-1.998a2.5 2.5 0 0 1 1.332.378zm6.49 8.766v.954c0 1.224-.882 2.358-2.376 2.358-1.044 0-1.8-.576-1.8-1.728 0-1.584 1.44-1.584 2.052-1.584zm-4.734-2.7c1.044-.81 1.926-1.008 2.7-1.008 2.034 0 2.034 1.386 2.034 2.088v.486h-2.16c-.756 0-3.582 0-3.582 2.772 0 1.836 1.26 2.862 3.096 2.862 1.458 0 2.376-.648 2.682-1.602V128h1.494v-6.012c0-.81 0-3.168-3.42-3.168a7.6 7.6 0 0 0-3.312.756zm14.59-1.764a6.4 6.4 0 0 0-2.502-.522c-1.962 0-3.312.936-3.312 2.682 0 3.186 4.554 1.98 4.554 4.158 0 .9-.774 1.35-1.764 1.35-.918 0-1.818-.378-2.52-.972l-.504 1.512c.9.468 1.872.72 2.934.72 1.962 0 3.348-.864 3.348-2.754 0-3.42-4.572-2.016-4.572-4.122 0-.81.684-1.35 1.728-1.35.774 0 1.53.288 2.07.702zm2.53-4.428V128h1.53v-5.184c0-1.386.774-2.754 2.466-2.754 1.998 0 1.998 1.89 1.998 2.736V128h1.53v-5.274c0-1.17 0-3.96-3.132-3.96-1.944 0-2.628 1.08-2.916 1.71.054-.54.054-1.116.054-1.476v-4.14zm10.45 4.14v9h1.548v-9zm-.27-3.24c0 .594.45 1.044 1.044 1.044s1.044-.45 1.044-1.044-.45-1.044-1.044-1.044-1.044.45-1.044 1.044m8.452 3.024c-2.574 0-4.302 1.854-4.302 4.734 0 2.862 1.71 4.698 4.284 4.698 2.556 0 4.266-1.854 4.266-4.734s-1.71-4.698-4.248-4.698m0 1.278c1.692 0 2.628 1.296 2.628 3.438 0 2.16-.954 3.438-2.646 3.438s-2.664-1.314-2.664-3.438c0-2.16.99-3.438 2.682-3.438m6.544-1.062v9h1.53v-5.184c0-1.386.774-2.754 2.466-2.754 1.998 0 1.998 1.89 1.998 2.736V128h1.53v-5.274c0-1.17 0-3.96-3.132-3.96-1.944 0-2.628 1.08-2.916 1.71V119zm15.562 4.752v.954c0 1.224-.882 2.358-2.376 2.358-1.044 0-1.8-.576-1.8-1.728 0-1.584 1.44-1.584 2.052-1.584zm-4.734-2.7c1.044-.81 1.926-1.008 2.7-1.008 2.034 0 2.034 1.386 2.034 2.088v.486h-2.16c-.756 0-3.582 0-3.582 2.772 0 1.836 1.26 2.862 3.096 2.862 1.458 0 2.376-.648 2.682-1.602V128h1.494v-6.012c0-.81 0-3.168-3.42-3.168a7.6 7.6 0 0 0-3.312.756zm9.172-6.192V128h1.476v-1.386c.36.99 1.422 1.602 2.79 1.602 2.43 0 3.924-1.962 3.924-4.806 0-2.808-1.494-4.626-3.852-4.626-1.386 0-2.448.612-2.862 1.728.054-.558.054-1.134.054-1.512v-4.14zm1.512 7.956c0-1.296.738-2.754 2.52-2.754 1.692 0 2.538 1.35 2.538 3.438 0 2.106-.864 3.438-2.592 3.438-1.8 0-2.466-1.494-2.466-2.574zm9.01-7.956V128h1.548v-13.14zm11.908 8.982v-.846c0-2.646-1.512-4.23-3.834-4.23-2.502 0-4.194 1.854-4.194 4.752 0 2.808 1.584 4.698 4.446 4.698 1.242 0 2.412-.342 3.204-.864l-.468-1.422c-.9.792-1.854 1.044-2.682 1.044-1.746 0-2.808-1.242-2.88-3.132zm-3.852-3.852c1.458 0 2.34 1.008 2.304 2.682h-4.842c.126-1.674 1.098-2.682 2.538-2.682m18.092 3.852v-.846c0-2.646-1.512-4.23-3.834-4.23-2.502 0-4.194 1.854-4.194 4.752 0 2.808 1.584 4.698 4.446 4.698 1.242 0 2.412-.342 3.204-.864l-.468-1.422c-.9.792-1.854 1.044-2.682 1.044-1.746 0-2.808-1.242-2.88-3.132zm-3.852-3.852c1.458 0 2.34 1.008 2.304 2.682h-4.842c.126-1.674 1.098-2.682 2.538-2.682m6.004-.99v9H194v-5.184c0-1.386.774-2.754 2.466-2.754 1.998 0 1.998 1.89 1.998 2.736V128h1.53v-5.274c0-1.17 0-3.96-3.132-3.96-1.944 0-2.628 1.08-2.916 1.71V119zm16.354-4.14V119c0 .324 0 .774.054 1.278-.432-.99-1.44-1.494-2.7-1.494-2.466 0-4.014 1.944-4.014 4.77s1.566 4.662 3.906 4.662c1.53 0 2.43-.756 2.808-1.638V128h1.476v-13.14zm.018 7.686v1.62c0 1.278-.756 2.772-2.502 2.772-1.638 0-2.556-1.368-2.556-3.456 0-2.106.918-3.42 2.61-3.42 1.764 0 2.448 1.404 2.448 2.484m12.89-3.762c-2.574 0-4.302 1.854-4.302 4.734 0 2.862 1.71 4.698 4.284 4.698 2.556 0 4.266-1.854 4.266-4.734s-1.71-4.698-4.248-4.698m0 1.278c1.692 0 2.628 1.296 2.628 3.438 0 2.16-.954 3.438-2.646 3.438s-2.664-1.314-2.664-3.438c0-2.16.99-3.438 2.682-3.438m11.656-5.076a5.8 5.8 0 0 0-1.584-.216c-2.934 0-2.934 2.286-2.934 3.24v1.026h-1.62v1.26h1.62V128h1.53v-7.704h2.538v-1.26H230.4v-1.026c0-.882 0-1.998 1.422-1.998a2.5 2.5 0 0 1 1.332.378zm6.608 1.494v2.556h-1.62v1.26h1.62v4.608c0 1.332 0 3.222 2.574 3.222.504 0 1.098-.072 1.656-.27l-.18-1.296c-.486.216-.918.306-1.296.306-1.242 0-1.242-.99-1.242-2.106v-4.464h2.556v-1.26h-2.556v-2.556zm6.094-1.62V128h1.53v-5.184c0-1.386.774-2.754 2.466-2.754 1.998 0 1.998 1.89 1.998 2.736V128h1.53v-5.274c0-1.17 0-3.96-3.132-3.96-1.944 0-2.628 1.08-2.916 1.71.054-.54.054-1.116.054-1.476v-4.14zm17.722 8.982v-.846c0-2.646-1.512-4.23-3.834-4.23-2.502 0-4.194 1.854-4.194 4.752 0 2.808 1.584 4.698 4.446 4.698 1.242 0 2.412-.342 3.204-.864l-.468-1.422c-.9.792-1.854 1.044-2.682 1.044-1.746 0-2.808-1.242-2.88-3.132zm-3.852-3.852c1.458 0 2.34 1.008 2.304 2.682h-4.842c.126-1.674 1.098-2.682 2.538-2.682m9.992-.99 2.196 9h1.872c1.728-6.174 1.728-6.174 2.07-7.614.288 1.44.288 1.44 1.908 7.614h1.836l2.34-9h-1.476c-1.458 6.246-1.458 6.246-1.782 7.956-.342-1.71-.342-1.71-2.016-7.92h-1.638c-1.746 6.21-1.746 6.21-2.106 7.92-.288-1.71-.288-1.71-1.602-7.956zm21.718 4.842v-.846c0-2.646-1.512-4.23-3.834-4.23-2.502 0-4.194 1.854-4.194 4.752 0 2.808 1.584 4.698 4.446 4.698 1.242 0 2.412-.342 3.204-.864l-.468-1.422c-.9.792-1.854 1.044-2.682 1.044-1.746 0-2.808-1.242-2.88-3.132zm-3.852-3.852c1.458 0 2.34 1.008 2.304 2.682h-4.842c.126-1.674 1.098-2.682 2.538-2.682m11.422-.702a6.4 6.4 0 0 0-2.502-.522c-1.962 0-3.312.936-3.312 2.682 0 3.186 4.554 1.98 4.554 4.158 0 .9-.774 1.35-1.764 1.35-.918 0-1.818-.378-2.52-.972l-.504 1.512c.9.468 1.872.72 2.934.72 1.962 0 3.348-.864 3.348-2.754 0-3.42-4.572-2.016-4.572-4.122 0-.81.684-1.35 1.728-1.35.774 0 1.53.288 2.07.702zm3.016-2.808v2.556h-1.62v1.26h1.62v4.608c0 1.332 0 3.222 2.574 3.222.504 0 1.098-.072 1.656-.27l-.18-1.296c-.486.216-.918.306-1.296.306-1.242 0-1.242-.99-1.242-2.106v-4.464h2.556v-1.26h-2.556v-2.556zm13.402 7.362v-.846c0-2.646-1.512-4.23-3.834-4.23-2.502 0-4.194 1.854-4.194 4.752 0 2.808 1.584 4.698 4.446 4.698 1.242 0 2.412-.342 3.204-.864l-.468-1.422c-.9.792-1.854 1.044-2.682 1.044-1.746 0-2.808-1.242-2.88-3.132zm-3.852-3.852c1.458 0 2.34 1.008 2.304 2.682h-4.842c.126-1.674 1.098-2.682 2.538-2.682m10.972-1.008a5 5 0 0 0-1.08-.126c-1.692 0-2.286 1.08-2.412 1.8V119h-1.476v9h1.53v-5.166c0-1.206.576-2.61 2.124-2.61.306 0 .666.054 1.098.27zm1.558.018v9h1.53v-5.184c0-1.386.774-2.754 2.466-2.754 1.998 0 1.998 1.89 1.998 2.736V128h1.53v-5.274c0-1.17 0-3.96-3.132-3.96-1.944 0-2.628 1.08-2.916 1.71V119zm-286.46 24.288a6.4 6.4 0 0 0-2.502-.522c-1.962 0-3.312.936-3.312 2.682 0 3.186 4.554 1.98 4.554 4.158 0 .9-.774 1.35-1.764 1.35-.918 0-1.818-.378-2.52-.972l-.504 1.512c.9.468 1.872.72 2.934.72 1.962 0 3.348-.864 3.348-2.754 0-3.42-4.572-2.016-4.572-4.122 0-.81.684-1.35 1.728-1.35.774 0 1.53.288 2.07.702zm2.53-.288v13.05h1.53V152c0-.342 0-.864-.054-1.386.36.99 1.422 1.602 2.79 1.602 2.43 0 3.924-1.962 3.924-4.806 0-2.808-1.494-4.626-3.852-4.626-1.386 0-2.448.612-2.862 1.728V143zm1.512 3.816c0-1.296.738-2.754 2.52-2.754 1.692 0 2.538 1.35 2.538 3.438 0 2.106-.864 3.438-2.592 3.438-1.8 0-2.466-1.494-2.466-2.574zm9.01-3.816v9h1.548v-9zm-.27-3.24c0 .594.45 1.044 1.044 1.044s1.044-.45 1.044-1.044-.45-1.044-1.044-1.044-1.044.45-1.044 1.044m9.838 3.222a5 5 0 0 0-1.08-.126c-1.692 0-2.286 1.08-2.412 1.8V143h-1.476v9h1.53v-5.166c0-1.206.576-2.61 2.124-2.61.306 0 .666.054 1.098.27zm6.544 4.77v.954c0 1.224-.882 2.358-2.376 2.358-1.044 0-1.8-.576-1.8-1.728 0-1.584 1.44-1.584 2.052-1.584zm-4.734-2.7c1.044-.81 1.926-1.008 2.7-1.008 2.034 0 2.034 1.386 2.034 2.088v.486h-2.16c-.756 0-3.582 0-3.582 2.772 0 1.836 1.26 2.862 3.096 2.862 1.458 0 2.376-.648 2.682-1.602V152h1.494v-6.012c0-.81 0-3.168-3.42-3.168a7.6 7.6 0 0 0-3.312.756zm9.208-6.192V152h1.548v-13.14zm14.528 8.892v.954c0 1.224-.882 2.358-2.376 2.358-1.044 0-1.8-.576-1.8-1.728 0-1.584 1.44-1.584 2.052-1.584zm-4.734-2.7c1.044-.81 1.926-1.008 2.7-1.008 2.034 0 2.034 1.386 2.034 2.088v.486h-2.16c-.756 0-3.582 0-3.582 2.772 0 1.836 1.26 2.862 3.096 2.862 1.458 0 2.376-.648 2.682-1.602V152h1.494v-6.012c0-.81 0-3.168-3.42-3.168a7.6 7.6 0 0 0-3.312.756zm14.14-2.07a5 5 0 0 0-1.08-.126c-1.692 0-2.286 1.08-2.412 1.8V143H90.48v9h1.53v-5.166c0-1.206.576-2.61 2.124-2.61.306 0 .666.054 1.098.27zm1.558.018v9h1.53v-5.202c0-1.386.684-2.754 2.142-2.754 1.764 0 1.764 1.926 1.764 2.736V152h1.53v-5.4c0-1.296.522-2.556 1.98-2.556 1.764 0 1.764 1.818 1.764 2.808V152h1.53v-5.22c0-1.278 0-4.014-2.916-4.014-1.44 0-2.268.666-2.754 1.512-.36-.828-1.08-1.512-2.502-1.512-1.728 0-2.34 1.062-2.592 1.692V143zm23.492-.216c-2.574 0-4.302 1.854-4.302 4.734 0 2.862 1.71 4.698 4.284 4.698 2.556 0 4.266-1.854 4.266-4.734s-1.71-4.698-4.248-4.698m0 1.278c1.692 0 2.628 1.296 2.628 3.438 0 2.16-.954 3.438-2.646 3.438s-2.664-1.314-2.664-3.438c0-2.16.99-3.438 2.682-3.438m11.656-5.076a5.8 5.8 0 0 0-1.584-.216c-2.934 0-2.934 2.286-2.934 3.24v1.026h-1.62v1.26h1.62V152h1.53v-7.704h2.538v-1.26h-2.538v-1.026c0-.882 0-1.998 1.422-1.998a2.5 2.5 0 0 1 1.332.378zm6.608 1.494v2.556h-1.62v1.26h1.62v4.608c0 1.332 0 3.222 2.574 3.222.504 0 1.098-.072 1.656-.27l-.18-1.296c-.486.216-.918.306-1.296.306-1.242 0-1.242-.99-1.242-2.106v-4.464h2.556v-1.26h-2.556v-2.556zm6.094-1.62V152h1.53v-5.184c0-1.386.774-2.754 2.466-2.754 1.998 0 1.998 1.89 1.998 2.736V152h1.53v-5.274c0-1.17 0-3.96-3.132-3.96-1.944 0-2.628 1.08-2.916 1.71.054-.54.054-1.116.054-1.476v-4.14zm17.722 8.982v-.846c0-2.646-1.512-4.23-3.834-4.23-2.502 0-4.194 1.854-4.194 4.752 0 2.808 1.584 4.698 4.446 4.698 1.242 0 2.412-.342 3.204-.864l-.468-1.422c-.9.792-1.854 1.044-2.682 1.044-1.746 0-2.808-1.242-2.88-3.132zm-3.852-3.852c1.458 0 2.34 1.008 2.304 2.682h-4.842c.126-1.674 1.098-2.682 2.538-2.682m10.046 1.782c0 3.978 2.178 6.444 5.94 6.444 1.494 0 2.808-.378 3.816-.936v-6.102h-3.996v1.314h2.484v3.816a4.8 4.8 0 0 1-2.286.558c-2.502 0-4.302-1.728-4.302-5.13 0-3.204 1.656-5.184 4.428-5.184 1.08 0 2.178.288 3.078.954l.702-1.476c-.954-.522-2.322-.846-3.726-.846-3.852 0-6.138 2.484-6.138 6.588m17.974 1.98v.954c0 1.224-.882 2.358-2.376 2.358-1.044 0-1.8-.576-1.8-1.728 0-1.584 1.44-1.584 2.052-1.584zm-4.734-2.7c1.044-.81 1.926-1.008 2.7-1.008 2.034 0 2.034 1.386 2.034 2.088v.486h-2.16c-.756 0-3.582 0-3.582 2.772 0 1.836 1.26 2.862 3.096 2.862 1.458 0 2.376-.648 2.682-1.602V152h1.494v-6.012c0-.81 0-3.168-3.42-3.168a7.6 7.6 0 0 0-3.312.756zm9.208-6.192V152h1.548v-13.14zm9.748 8.892v.954c0 1.224-.882 2.358-2.376 2.358-1.044 0-1.8-.576-1.8-1.728 0-1.584 1.44-1.584 2.052-1.584zm-4.734-2.7c1.044-.81 1.926-1.008 2.7-1.008 2.034 0 2.034 1.386 2.034 2.088v.486h-2.16c-.756 0-3.582 0-3.582 2.772 0 1.836 1.26 2.862 3.096 2.862 1.458 0 2.376-.648 2.682-1.602V152h1.494v-6.012c0-.81 0-3.168-3.42-3.168a7.6 7.6 0 0 0-3.312.756zM212.552 152l-3.222-4.626 3.168-4.374h-1.692l-2.304 3.528-2.196-3.528h-1.782l3.06 4.464-3.222 4.536h1.8l2.268-3.636 2.286 3.636zm1.324 3.978c.36.072.63.09.846.09 2.268 0 3.06-2.07 3.438-3.132l3.6-9.936h-1.62l-2.466 7.704-2.502-7.704h-1.728l3.492 9.36c-.342.9-.918 2.412-2.232 2.412-.144 0-.378-.018-.702-.126zm14.564-17.118V152h1.548v-13.14zm4.636 4.14v9h1.548v-9zm-.27-3.24c0 .594.45 1.044 1.044 1.044s1.044-.45 1.044-1.044-.45-1.044-1.044-1.044-1.044.45-1.044 1.044m12.178 8.082v-.846c0-2.646-1.512-4.23-3.834-4.23-2.502 0-4.194 1.854-4.194 4.752 0 2.808 1.584 4.698 4.446 4.698 1.242 0 2.412-.342 3.204-.864l-.468-1.422c-.9.792-1.854 1.044-2.682 1.044-1.746 0-2.808-1.242-2.88-3.132zm-3.852-3.852c1.458 0 2.34 1.008 2.304 2.682h-4.842c.126-1.674 1.098-2.682 2.538-2.682m11.422-.702a6.4 6.4 0 0 0-2.502-.522c-1.962 0-3.312.936-3.312 2.682 0 3.186 4.554 1.98 4.554 4.158 0 .9-.774 1.35-1.764 1.35-.918 0-1.818-.378-2.52-.972l-.504 1.512c.9.468 1.872.72 2.934.72 1.962 0 3.348-.864 3.348-2.754 0-3.42-4.572-2.016-4.572-4.122 0-.81.684-1.35 1.728-1.35.774 0 1.53.288 2.07.702zm12.458 4.464v.954c0 1.224-.882 2.358-2.376 2.358-1.044 0-1.8-.576-1.8-1.728 0-1.584 1.44-1.584 2.052-1.584zm-4.734-2.7c1.044-.81 1.926-1.008 2.7-1.008 2.034 0 2.034 1.386 2.034 2.088v.486h-2.16c-.756 0-3.582 0-3.582 2.772 0 1.836 1.26 2.862 3.096 2.862 1.458 0 2.376-.648 2.682-1.602V152h1.494v-6.012c0-.81 0-3.168-3.42-3.168a7.6 7.6 0 0 0-3.312.756zm19.37-1.764a6.4 6.4 0 0 0-2.502-.522c-1.962 0-3.312.936-3.312 2.682 0 3.186 4.554 1.98 4.554 4.158 0 .9-.774 1.35-1.764 1.35-.918 0-1.818-.378-2.52-.972l-.504 1.512c.9.468 1.872.72 2.934.72 1.962 0 3.348-.864 3.348-2.754 0-3.42-4.572-2.016-4.572-4.122 0-.81.684-1.35 1.728-1.35.774 0 1.53.288 2.07.702zm2.53-.288v9h1.53v-5.202c0-1.386.684-2.754 2.142-2.754 1.764 0 1.764 1.926 1.764 2.736V152h1.53v-5.4c0-1.296.522-2.556 1.98-2.556 1.764 0 1.764 1.818 1.764 2.808V152h1.53v-5.22c0-1.278 0-4.014-2.916-4.014-1.44 0-2.268.666-2.754 1.512-.36-.828-1.08-1.512-2.502-1.512-1.728 0-2.34 1.062-2.592 1.692V143zm20.278 4.752v.954c0 1.224-.882 2.358-2.376 2.358-1.044 0-1.8-.576-1.8-1.728 0-1.584 1.44-1.584 2.052-1.584zm-4.734-2.7c1.044-.81 1.926-1.008 2.7-1.008 2.034 0 2.034 1.386 2.034 2.088v.486h-2.16c-.756 0-3.582 0-3.582 2.772 0 1.836 1.26 2.862 3.096 2.862 1.458 0 2.376-.648 2.682-1.602V152h1.494v-6.012c0-.81 0-3.168-3.42-3.168a7.6 7.6 0 0 0-3.312.756zm9.208-6.192V152h1.548v-13.14zm4.636 0V152h1.548v-13.14zM39.82 176v-9h-1.53v5.112c0 1.35-.72 2.826-2.448 2.826-1.98 0-1.98-1.944-1.98-2.862V167h-1.53v5.13c0 1.404 0 4.104 3.15 4.104 1.98 0 2.592-1.08 2.862-1.692V176zm3.016-9v9h1.53v-5.184c0-1.386.774-2.754 2.466-2.754 1.998 0 1.998 1.89 1.998 2.736V176h1.53v-5.274c0-1.17 0-3.96-3.132-3.96-1.944 0-2.628 1.08-2.916 1.71V167zm15.382-.018a5 5 0 0 0-1.08-.126c-1.692 0-2.286 1.08-2.412 1.8V167H53.25v9h1.53v-5.166c0-1.206.576-2.61 2.124-2.61.306 0 .666.054 1.098.27zm8.794 4.86v-.846c0-2.646-1.512-4.23-3.834-4.23-2.502 0-4.194 1.854-4.194 4.752 0 2.808 1.584 4.698 4.446 4.698 1.242 0 2.412-.342 3.204-.864l-.468-1.422c-.9.792-1.854 1.044-2.682 1.044-1.746 0-2.808-1.242-2.88-3.132zm-3.852-3.852c1.458 0 2.34 1.008 2.304 2.682h-4.842c.126-1.674 1.098-2.682 2.538-2.682m11.998-.99v1.206c-.396-.918-1.404-1.422-2.682-1.422-2.448 0-3.996 1.926-3.996 4.716 0 2.808 1.548 4.626 3.888 4.626 1.404 0 2.304-.63 2.772-1.566l-.018.612c-.018 1.368-.018 3.636-2.898 3.636-.936 0-1.944-.234-2.988-.99l-.342 1.566c1.098.522 2.412.684 3.366.684 4.374 0 4.374-3.294 4.374-4.806V167zm-5.058 4.428c0-2.07.918-3.384 2.592-3.384 1.764 0 2.43 1.404 2.43 2.646v1.242c0 1.44-.756 2.916-2.484 2.916-1.638 0-2.538-1.35-2.538-3.42m14.59.324v.954c0 1.224-.882 2.358-2.376 2.358-1.044 0-1.8-.576-1.8-1.728 0-1.584 1.44-1.584 2.052-1.584zm-4.734-2.7c1.044-.81 1.926-1.008 2.7-1.008 2.034 0 2.034 1.386 2.034 2.088v.486h-2.16c-.756 0-3.582 0-3.582 2.772 0 1.836 1.26 2.862 3.096 2.862 1.458 0 2.376-.648 2.682-1.602V176h1.494v-6.012c0-.81 0-3.168-3.42-3.168a7.6 7.6 0 0 0-3.312.756zm14.14-2.07a5 5 0 0 0-1.08-.126c-1.692 0-2.286 1.08-2.412 1.8V167h-1.476v9h1.53v-5.166c0-1.206.576-2.61 2.124-2.61.306 0 .666.054 1.098.27zm7.426-4.122V167c0 .324 0 .774.054 1.278-.432-.99-1.44-1.494-2.7-1.494-2.466 0-4.014 1.944-4.014 4.77s1.566 4.662 3.906 4.662c1.53 0 2.43-.756 2.808-1.638V176h1.476v-13.14zm.018 7.686v1.62c0 1.278-.756 2.772-2.502 2.772-1.638 0-2.556-1.368-2.556-3.456 0-2.106.918-3.42 2.61-3.42 1.764 0 2.448 1.404 2.448 2.484m11.836 1.296v-.846c0-2.646-1.512-4.23-3.834-4.23-2.502 0-4.194 1.854-4.194 4.752 0 2.808 1.584 4.698 4.446 4.698 1.242 0 2.412-.342 3.204-.864l-.468-1.422c-.9.792-1.854 1.044-2.682 1.044-1.746 0-2.808-1.242-2.88-3.132zm-3.852-3.852c1.458 0 2.34 1.008 2.304 2.682h-4.842c.126-1.674 1.098-2.682 2.538-2.682m11.944-5.13V167c0 .324 0 .774.054 1.278-.432-.99-1.44-1.494-2.7-1.494-2.466 0-4.014 1.944-4.014 4.77s1.566 4.662 3.906 4.662c1.53 0 2.43-.756 2.808-1.638V176h1.476v-13.14zm.018 7.686v1.62c0 1.278-.756 2.772-2.502 2.772-1.638 0-2.556-1.368-2.556-3.456 0-2.106.918-3.42 2.61-3.42 1.764 0 2.448 1.404 2.448 2.484m8.624 9.432c.36.072.63.09.846.09 2.268 0 3.06-2.07 3.438-3.132l3.6-9.936h-1.62l-2.466 7.704-2.502-7.704h-1.728l3.492 9.36c-.342.9-.918 2.412-2.232 2.412-.144 0-.378-.018-.702-.126zm17.056-8.136v-.846c0-2.646-1.512-4.23-3.834-4.23-2.502 0-4.194 1.854-4.194 4.752 0 2.808 1.584 4.698 4.446 4.698 1.242 0 2.412-.342 3.204-.864l-.468-1.422c-.9.792-1.854 1.044-2.682 1.044-1.746 0-2.808-1.242-2.88-3.132zm-3.852-3.852c1.458 0 2.34 1.008 2.304 2.682h-4.842c.126-1.674 1.098-2.682 2.538-2.682m6.04-5.13V176h1.548v-13.14zm4.636 0V176h1.548v-13.14zm8.182 3.924c-2.574 0-4.302 1.854-4.302 4.734 0 2.862 1.71 4.698 4.284 4.698 2.556 0 4.266-1.854 4.266-4.734s-1.71-4.698-4.248-4.698m0 1.278c1.692 0 2.628 1.296 2.628 3.438 0 2.16-.954 3.438-2.646 3.438s-2.664-1.314-2.664-3.438c0-2.16.99-3.438 2.682-3.438m5.752-1.062 2.196 9h1.872c1.728-6.174 1.728-6.174 2.07-7.614.288 1.44.288 1.44 1.908 7.614h1.836l2.34-9h-1.476c-1.458 6.246-1.458 6.246-1.782 7.956-.342-1.71-.342-1.71-2.016-7.92h-1.638c-1.746 6.21-1.746 6.21-2.106 7.92-.288-1.71-.288-1.71-1.602-7.956zm24.608.288a6.4 6.4 0 0 0-2.502-.522c-1.962 0-3.312.936-3.312 2.682 0 3.186 4.554 1.98 4.554 4.158 0 .9-.774 1.35-1.764 1.35-.918 0-1.818-.378-2.52-.972l-.504 1.512c.9.468 1.872.72 2.934.72 1.962 0 3.348-.864 3.348-2.754 0-3.42-4.572-2.016-4.572-4.122 0-.81.684-1.35 1.728-1.35.774 0 1.53.288 2.07.702zm9.892 8.712v-9h-1.53v5.112c0 1.35-.72 2.826-2.448 2.826-1.98 0-1.98-1.944-1.98-2.862V167h-1.53v5.13c0 1.404 0 4.104 3.15 4.104 1.98 0 2.592-1.08 2.862-1.692V176zm3.016-9v9h1.53v-5.184c0-1.386.774-2.754 2.466-2.754 1.998 0 1.998 1.89 1.998 2.736V176h1.53v-5.274c0-1.17 0-3.96-3.132-3.96-1.944 0-2.628 1.08-2.916 1.71V167zm10.234 7.884c0 .63.486 1.116 1.116 1.116s1.116-.486 1.116-1.116-.486-1.116-1.116-1.116-1.116.486-1.116 1.116m14.384-10.332c2.358 0 3.888 1.89 3.888 5.094 0 3.186-1.512 5.202-3.906 5.202-2.376 0-3.924-1.998-3.924-5.184 0-3.204 1.566-5.112 3.942-5.112m.054-1.368c-3.438 0-5.652 2.538-5.652 6.498 0 3.924 2.142 6.534 5.562 6.534 3.438 0 5.58-2.664 5.58-6.624 0-3.924-2.106-6.408-5.49-6.408m12.826 3.798a5 5 0 0 0-1.08-.126c-1.692 0-2.286 1.08-2.412 1.8V167h-1.476v9h1.53v-5.166c0-1.206.576-2.61 2.124-2.61.306 0 .666.054 1.098.27zm1.558-4.122V176h1.476v-1.386c.36.99 1.422 1.602 2.79 1.602 2.43 0 3.924-1.962 3.924-4.806 0-2.808-1.494-4.626-3.852-4.626-1.386 0-2.448.612-2.862 1.728.054-.558.054-1.134.054-1.512v-4.14zm1.512 7.956c0-1.296.738-2.754 2.52-2.754 1.692 0 2.538 1.35 2.538 3.438 0 2.106-.864 3.438-2.592 3.438-1.8 0-2.466-1.494-2.466-2.574zm9.01-3.816v9h1.548v-9zm-.27-3.24c0 .594.45 1.044 1.044 1.044s1.044-.45 1.044-1.044-.45-1.044-1.044-1.044-1.044.45-1.044 1.044m5.356.72v2.556h-1.62v1.26h1.62v4.608c0 1.332 0 3.222 2.574 3.222.504 0 1.098-.072 1.656-.27l-.18-1.296c-.486.216-.918.306-1.296.306-1.242 0-1.242-.99-1.242-2.106v-4.464h2.556v-1.26h-2.556v-2.556zm6.13 2.52v9h1.548v-9zm-.27-3.24c0 .594.45 1.044 1.044 1.044s1.044-.45 1.044-1.044-.45-1.044-1.044-1.044-1.044.45-1.044 1.044m4.87 3.24v9h1.53v-5.184c0-1.386.774-2.754 2.466-2.754 1.998 0 1.998 1.89 1.998 2.736V176h1.53v-5.274c0-1.17 0-3.96-3.132-3.96-1.944 0-2.628 1.08-2.916 1.71V167zm16.408 0v1.206c-.396-.918-1.404-1.422-2.682-1.422-2.448 0-3.996 1.926-3.996 4.716 0 2.808 1.548 4.626 3.888 4.626 1.404 0 2.304-.63 2.772-1.566l-.018.612c-.018 1.368-.018 3.636-2.898 3.636-.936 0-1.944-.234-2.988-.99l-.342 1.566c1.098.522 2.412.684 3.366.684 4.374 0 4.374-3.294 4.374-4.806V167zm-5.058 4.428c0-2.07.918-3.384 2.592-3.384 1.764 0 2.43 1.404 2.43 2.646v1.242c0 1.44-.756 2.916-2.484 2.916-1.638 0-2.538-1.35-2.538-3.42m14.708-6.948v2.556h-1.62v1.26h1.62v4.608c0 1.332 0 3.222 2.574 3.222.504 0 1.098-.072 1.656-.27l-.18-1.296c-.486.216-.918.306-1.296.306-1.242 0-1.242-.99-1.242-2.106v-4.464h2.556v-1.26h-2.556v-2.556zm6.094-1.62V176h1.53v-5.184c0-1.386.774-2.754 2.466-2.754 1.998 0 1.998 1.89 1.998 2.736V176h1.53v-5.274c0-1.17 0-3.96-3.132-3.96-1.944 0-2.628 1.08-2.916 1.71.054-.54.054-1.116.054-1.476v-4.14zm10.45 4.14v9h1.548v-9zm-.27-3.24c0 .594.45 1.044 1.044 1.044s1.044-.45 1.044-1.044-.45-1.044-1.044-1.044-1.044.45-1.044 1.044m10.288 3.528a6.4 6.4 0 0 0-2.502-.522c-1.962 0-3.312.936-3.312 2.682 0 3.186 4.554 1.98 4.554 4.158 0 .9-.774 1.35-1.764 1.35-.918 0-1.818-.378-2.52-.972l-.504 1.512c.9.468 1.872.72 2.934.72 1.962 0 3.348-.864 3.348-2.754 0-3.42-4.572-2.016-4.572-4.122 0-.81.684-1.35 1.728-1.35.774 0 1.53.288 2.07.702zm12.458 4.464v.954c0 1.224-.882 2.358-2.376 2.358-1.044 0-1.8-.576-1.8-1.728 0-1.584 1.44-1.584 2.052-1.584zm-4.734-2.7c1.044-.81 1.926-1.008 2.7-1.008 2.034 0 2.034 1.386 2.034 2.088v.486h-2.16c-.756 0-3.582 0-3.582 2.772 0 1.836 1.26 2.862 3.096 2.862 1.458 0 2.376-.648 2.682-1.602V176h1.494v-6.012c0-.81 0-3.168-3.42-3.168a7.6 7.6 0 0 0-3.312.756zm9.658-4.572v2.556h-1.62v1.26h1.62v4.608c0 1.332 0 3.222 2.574 3.222.504 0 1.098-.072 1.656-.27l-.18-1.296c-.486.216-.918.306-1.296.306-1.242 0-1.242-.99-1.242-2.106v-4.464h2.556v-1.26h-2.556v-2.556zm16.022 7.272v.954c0 1.224-.882 2.358-2.376 2.358-1.044 0-1.8-.576-1.8-1.728 0-1.584 1.44-1.584 2.052-1.584zm-4.734-2.7c1.044-.81 1.926-1.008 2.7-1.008 2.034 0 2.034 1.386 2.034 2.088v.486h-2.16c-.756 0-3.582 0-3.582 2.772 0 1.836 1.26 2.862 3.096 2.862 1.458 0 2.376-.648 2.682-1.602V176h1.494v-6.012c0-.81 0-3.168-3.42-3.168a7.6 7.6 0 0 0-3.312.756zM38.398 186.86V191c0 .324 0 .774.054 1.278-.432-.99-1.44-1.494-2.7-1.494-2.466 0-4.014 1.944-4.014 4.77s1.566 4.662 3.906 4.662c1.53 0 2.43-.756 2.808-1.638V200h1.476v-13.14zm.018 7.686v1.62c0 1.278-.756 2.772-2.502 2.772-1.638 0-2.556-1.368-2.556-3.456 0-2.106.918-3.42 2.61-3.42 1.764 0 2.448 1.404 2.448 2.484M42.98 191v9h1.548v-9zm-.27-3.24c0 .594.45 1.044 1.044 1.044s1.044-.45 1.044-1.044-.45-1.044-1.044-1.044-1.044.45-1.044 1.044m10.288 3.528a6.4 6.4 0 0 0-2.502-.522c-1.962 0-3.312.936-3.312 2.682 0 3.186 4.554 1.98 4.554 4.158 0 .9-.774 1.35-1.764 1.35-.918 0-1.818-.378-2.52-.972l-.504 1.512c.9.468 1.872.72 2.934.72 1.962 0 3.348-.864 3.348-2.754 0-3.42-4.572-2.016-4.572-4.122 0-.81.684-1.35 1.728-1.35.774 0 1.53.288 2.07.702zm3.016-2.808v2.556h-1.62v1.26h1.62v4.608c0 1.332 0 3.222 2.574 3.222.504 0 1.098-.072 1.656-.27l-.18-1.296c-.486.216-.918.306-1.296.306-1.242 0-1.242-.99-1.242-2.106v-4.464h2.556v-1.26h-2.556v-2.556zm11.242 7.272v.954c0 1.224-.882 2.358-2.376 2.358-1.044 0-1.8-.576-1.8-1.728 0-1.584 1.44-1.584 2.052-1.584zm-4.734-2.7c1.044-.81 1.926-1.008 2.7-1.008 2.034 0 2.034 1.386 2.034 2.088v.486h-2.16c-.756 0-3.582 0-3.582 2.772 0 1.836 1.26 2.862 3.096 2.862 1.458 0 2.376-.648 2.682-1.602V200h1.494v-6.012c0-.81 0-3.168-3.42-3.168a7.6 7.6 0 0 0-3.312.756zM71.694 191v9h1.53v-5.184c0-1.386.774-2.754 2.466-2.754 1.998 0 1.998 1.89 1.998 2.736V200h1.53v-5.274c0-1.17 0-3.96-3.132-3.96-1.944 0-2.628 1.08-2.916 1.71V191zm16.84.432a5.86 5.86 0 0 0-2.664-.63c-2.772 0-4.5 1.872-4.5 4.752 0 2.772 1.62 4.644 4.446 4.644.756 0 1.71-.126 2.682-.72l-.54-1.368c-.648.522-1.278.792-2.124.792-1.782 0-2.844-1.35-2.844-3.402s1.08-3.42 2.862-3.42c.774 0 1.44.252 2.052.648zm9.28 4.41v-.846c0-2.646-1.512-4.23-3.834-4.23-2.502 0-4.194 1.854-4.194 4.752 0 2.808 1.584 4.698 4.446 4.698 1.242 0 2.412-.342 3.204-.864l-.468-1.422c-.9.792-1.854 1.044-2.682 1.044-1.746 0-2.808-1.242-2.88-3.132zm-3.852-3.852c1.458 0 2.34 1.008 2.304 2.682h-4.842c.126-1.674 1.098-2.682 2.538-2.682m14.366-1.206c-2.574 0-4.302 1.854-4.302 4.734 0 2.862 1.71 4.698 4.284 4.698 2.556 0 4.266-1.854 4.266-4.734s-1.71-4.698-4.248-4.698m0 1.278c1.692 0 2.628 1.296 2.628 3.438 0 2.16-.954 3.438-2.646 3.438s-2.664-1.314-2.664-3.438c0-2.16.99-3.438 2.682-3.438m11.656-5.076a5.8 5.8 0 0 0-1.584-.216c-2.934 0-2.934 2.286-2.934 3.24v1.026h-1.62v1.26h1.62V200h1.53v-7.704h2.538v-1.26h-2.538v-1.026c0-.882 0-1.998 1.422-1.998a2.5 2.5 0 0 1 1.332.378zm11.09 3.996a5 5 0 0 0-1.08-.126c-1.692 0-2.286 1.08-2.412 1.8V191h-1.476v9h1.53v-5.166c0-1.206.576-2.61 2.124-2.61.306 0 .666.054 1.098.27zm5.068-.198c-2.574 0-4.302 1.854-4.302 4.734 0 2.862 1.71 4.698 4.284 4.698 2.556 0 4.266-1.854 4.266-4.734s-1.71-4.698-4.248-4.698m0 1.278c1.692 0 2.628 1.296 2.628 3.438 0 2.16-.954 3.438-2.646 3.438s-2.664-1.314-2.664-3.438c0-2.16.99-3.438 2.682-3.438M150.048 200v-9h-1.53v5.112c0 1.35-.72 2.826-2.448 2.826-1.98 0-1.98-1.944-1.98-2.862V191h-1.53v5.13c0 1.404 0 4.104 3.15 4.104 1.98 0 2.592-1.08 2.862-1.692V200zm9.01-9v1.206c-.396-.918-1.404-1.422-2.682-1.422-2.448 0-3.996 1.926-3.996 4.716 0 2.808 1.548 4.626 3.888 4.626 1.404 0 2.304-.63 2.772-1.566l-.018.612c-.018 1.368-.018 3.636-2.898 3.636-.936 0-1.944-.234-2.988-.99l-.342 1.566c1.098.522 2.412.684 3.366.684 4.374 0 4.374-3.294 4.374-4.806V191zM154 195.428c0-2.07.918-3.384 2.592-3.384 1.764 0 2.43 1.404 2.43 2.646v1.242c0 1.44-.756 2.916-2.484 2.916-1.638 0-2.538-1.35-2.538-3.42m9.442-8.568V200h1.53v-5.184c0-1.386.774-2.754 2.466-2.754 1.998 0 1.998 1.89 1.998 2.736V200h1.53v-5.274c0-1.17 0-3.96-3.132-3.96-1.944 0-2.628 1.08-2.916 1.71.054-.54.054-1.116.054-1.476v-4.14zm10.45 0V200h1.548v-13.14zm3.916 17.118c.36.072.63.09.846.09 2.268 0 3.06-2.07 3.438-3.132l3.6-9.936h-1.62l-2.466 7.704-2.502-7.704h-1.728l3.492 9.36c-.342.9-.918 2.412-2.232 2.412-.144 0-.378-.018-.702-.126zm14.222-4.482c.918.522 1.944.72 2.898.72 3.348 0 4.968-2.394 4.968-7.182 0-3.78-1.26-5.832-4.104-5.832-2.412 0-4.05 1.602-4.05 4.158 0 2.448 1.494 3.996 3.69 3.996 1.512 0 2.376-.684 2.898-1.512-.072 2.772-.9 5.058-3.33 5.058-.954 0-1.8-.36-2.448-.9zm6.156-8.064c0 1.674-.972 2.61-2.448 2.61-1.458 0-2.412-.972-2.412-2.736 0-1.782.99-2.844 2.43-2.844 1.53 0 2.43 1.332 2.43 2.97m3.61-3.024.684 1.476c.882-.882 1.854-1.386 3.006-1.386 1.422 0 2.268.792 2.268 2.178 0 3.474-5.004 4.698-5.85 7.974v1.332h7.614v-1.386l-5.904.036c.468-2.448 5.778-3.942 5.778-8.046 0-2.088-1.35-3.402-3.798-3.402-1.548 0-2.862.522-3.798 1.224M216.72 191v9h1.53v-5.202c0-1.386.684-2.754 2.142-2.754 1.764 0 1.764 1.926 1.764 2.736V200h1.53v-5.4c0-1.296.522-2.556 1.98-2.556 1.764 0 1.764 1.818 1.764 2.808V200h1.53v-5.22c0-1.278 0-4.014-2.916-4.014-1.44 0-2.268.666-2.754 1.512-.36-.828-1.08-1.512-2.502-1.512-1.728 0-2.34 1.062-2.592 1.692V191zm15.166 0v9h1.548v-9zm-.27-3.24c0 .594.45 1.044 1.044 1.044s1.044-.45 1.044-1.044-.45-1.044-1.044-1.044-1.044.45-1.044 1.044m4.906-.9V200h1.548v-13.14zm4.636 0V200h1.548v-13.14zm4.636 4.14v9h1.548v-9zm-.27-3.24c0 .594.45 1.044 1.044 1.044s1.044-.45 1.044-1.044-.45-1.044-1.044-1.044-1.044.45-1.044 1.044m8.452 3.024c-2.574 0-4.302 1.854-4.302 4.734 0 2.862 1.71 4.698 4.284 4.698 2.556 0 4.266-1.854 4.266-4.734s-1.71-4.698-4.248-4.698m0 1.278c1.692 0 2.628 1.296 2.628 3.438 0 2.16-.954 3.438-2.646 3.438s-2.664-1.314-2.664-3.438c0-2.16.99-3.438 2.682-3.438M260.52 191v9h1.53v-5.184c0-1.386.774-2.754 2.466-2.754 1.998 0 1.998 1.89 1.998 2.736V200h1.53v-5.274c0-1.17 0-3.96-3.132-3.96-1.944 0-2.628 1.08-2.916 1.71V191zm15.194 0v9h1.53v-5.202c0-1.386.684-2.754 2.142-2.754 1.764 0 1.764 1.926 1.764 2.736V200h1.53v-5.4c0-1.296.522-2.556 1.98-2.556 1.764 0 1.764 1.818 1.764 2.808V200h1.53v-5.22c0-1.278 0-4.014-2.916-4.014-1.44 0-2.268.666-2.754 1.512-.36-.828-1.08-1.512-2.502-1.512-1.728 0-2.34 1.062-2.592 1.692V191zm15.166 0v9h1.548v-9zm-.27-3.24c0 .594.45 1.044 1.044 1.044s1.044-.45 1.044-1.044-.45-1.044-1.044-1.044-1.044.45-1.044 1.044m4.906-.9V200h1.548v-13.14zm11.908 8.982v-.846c0-2.646-1.512-4.23-3.834-4.23-2.502 0-4.194 1.854-4.194 4.752 0 2.808 1.584 4.698 4.446 4.698 1.242 0 2.412-.342 3.204-.864l-.468-1.422c-.9.792-1.854 1.044-2.682 1.044-1.746 0-2.808-1.242-2.88-3.132zm-3.852-3.852c1.458 0 2.34 1.008 2.304 2.682h-4.842c.126-1.674 1.098-2.682 2.538-2.682m11.422-.702a6.4 6.4 0 0 0-2.502-.522c-1.962 0-3.312.936-3.312 2.682 0 3.186 4.554 1.98 4.554 4.158 0 .9-.774 1.35-1.764 1.35-.918 0-1.818-.378-2.52-.972l-.504 1.512c.9.468 1.872.72 2.934.72 1.962 0 3.348-.864 3.348-2.754 0-3.42-4.572-2.016-4.572-4.122 0-.81.684-1.35 1.728-1.35.774 0 1.53.288 2.07.702zm7.346-.288v9h1.548v-9zm-.27-3.24c0 .594.45 1.044 1.044 1.044s1.044-.45 1.044-1.044-.45-1.044-1.044-1.044-1.044.45-1.044 1.044m10.288 3.528a6.4 6.4 0 0 0-2.502-.522c-1.962 0-3.312.936-3.312 2.682 0 3.186 4.554 1.98 4.554 4.158 0 .9-.774 1.35-1.764 1.35-.918 0-1.818-.378-2.52-.972l-.504 1.512c.9.468 1.872.72 2.934.72 1.962 0 3.348-.864 3.348-2.754 0-3.42-4.572-2.016-4.572-4.122 0-.81.684-1.35 1.728-1.35.774 0 1.53.288 2.07.702zm12.458 4.464v.954c0 1.224-.882 2.358-2.376 2.358-1.044 0-1.8-.576-1.8-1.728 0-1.584 1.44-1.584 2.052-1.584zm-4.734-2.7c1.044-.81 1.926-1.008 2.7-1.008 2.034 0 2.034 1.386 2.034 2.088v.486h-2.16c-.756 0-3.582 0-3.582 2.772 0 1.836 1.26 2.862 3.096 2.862 1.458 0 2.376-.648 2.682-1.602V200h1.494v-6.012c0-.81 0-3.168-3.42-3.168a7.6 7.6 0 0 0-3.312.756zm9.172-2.052v9h1.53v-5.184c0-1.386.774-2.754 2.466-2.754 1.998 0 1.998 1.89 1.998 2.736V200h1.53v-5.274c0-1.17 0-3.96-3.132-3.96-1.944 0-2.628 1.08-2.916 1.71V191zM39.82 224v-9h-1.53v5.112c0 1.35-.72 2.826-2.448 2.826-1.98 0-1.98-1.944-1.98-2.862V215h-1.53v5.13c0 1.404 0 4.104 3.15 4.104 1.98 0 2.592-1.08 2.862-1.692V224zm3.502-11.52v2.556h-1.62v1.26h1.62v4.608c0 1.332 0 3.222 2.574 3.222.504 0 1.098-.072 1.656-.27l-.18-1.332c-.486.216-.918.306-1.296.306-1.242 0-1.242-.99-1.242-2.106v-4.428h2.088v-1.26h-2.088v-2.556zm6.22 0v2.556h-1.62v1.26h1.62v4.608c0 1.332 0 3.222 2.574 3.222.504 0 1.098-.072 1.656-.27l-.18-1.296c-.486.216-.918.306-1.296.306-1.242 0-1.242-.99-1.242-2.106v-4.464h2.556v-1.26h-2.556v-2.556zm13.402 7.362v-.846c0-2.646-1.512-4.23-3.834-4.23-2.502 0-4.194 1.854-4.194 4.752 0 2.808 1.584 4.698 4.446 4.698 1.242 0 2.412-.342 3.204-.864l-.468-1.422c-.9.792-1.854 1.044-2.682 1.044-1.746 0-2.808-1.242-2.88-3.132zm-3.852-3.852c1.458 0 2.34 1.008 2.304 2.682h-4.842c.126-1.674 1.098-2.682 2.538-2.682m10.972-1.008a5 5 0 0 0-1.08-.126c-1.692 0-2.286 1.08-2.412 1.8V215h-1.476v9h1.53v-5.166c0-1.206.576-2.61 2.124-2.61.306 0 .666.054 1.098.27zm1.594-4.122V224h1.548v-13.14zm3.916 17.118c.36.072.63.09.846.09 2.268 0 3.06-2.07 3.438-3.132l3.6-9.936h-1.62l-2.466 7.704L76.87 215h-1.728l3.492 9.36c-.342.9-.918 2.412-2.232 2.412-.144 0-.378-.018-.702-.126zM90.138 215v9h1.548v-9zm-.27-3.24c0 .594.45 1.044 1.044 1.044s1.044-.45 1.044-1.044-.45-1.044-1.044-1.044-1.044.45-1.044 1.044m4.87 3.24v9h1.53v-5.184c0-1.386.774-2.754 2.466-2.754 1.998 0 1.998 1.89 1.998 2.736V224h1.53v-5.274c0-1.17 0-3.96-3.132-3.96-1.944 0-2.628 1.08-2.916 1.71V215zm15.832.288a6.4 6.4 0 0 0-2.502-.522c-1.962 0-3.312.936-3.312 2.682 0 3.186 4.554 1.98 4.554 4.158 0 .9-.774 1.35-1.764 1.35-.918 0-1.818-.378-2.52-.972l-.504 1.512c.9.468 1.872.72 2.934.72 1.962 0 3.348-.864 3.348-2.754 0-3.42-4.572-2.016-4.572-4.122 0-.81.684-1.35 1.728-1.35.774 0 1.53.288 2.07.702zm2.566-.288v9h1.548v-9zm-.27-3.24c0 .594.45 1.044 1.044 1.044s1.044-.45 1.044-1.044-.45-1.044-1.044-1.044-1.044.45-1.044 1.044M123.73 215v1.206c-.396-.918-1.404-1.422-2.682-1.422-2.448 0-3.996 1.926-3.996 4.716 0 2.808 1.548 4.626 3.888 4.626 1.404 0 2.304-.63 2.772-1.566l-.018.612c-.018 1.368-.018 3.636-2.898 3.636-.936 0-1.944-.234-2.988-.99l-.342 1.566c1.098.522 2.412.684 3.366.684 4.374 0 4.374-3.294 4.374-4.806V215zm-5.058 4.428c0-2.07.918-3.384 2.592-3.384 1.764 0 2.43 1.404 2.43 2.646v1.242c0 1.44-.756 2.916-2.484 2.916-1.638 0-2.538-1.35-2.538-3.42m9.442-4.428v9h1.53v-5.184c0-1.386.774-2.754 2.466-2.754 1.998 0 1.998 1.89 1.998 2.736V224h1.53v-5.274c0-1.17 0-3.96-3.132-3.96-1.944 0-2.628 1.08-2.916 1.71V215zm10.45 0v9h1.548v-9zm-.27-3.24c0 .594.45 1.044 1.044 1.044s1.044-.45 1.044-1.044-.45-1.044-1.044-1.044-1.044.45-1.044 1.044m9.568-.864a6 6 0 0 0-1.188-.126c-2.916 0-2.916 2.214-2.916 3.24v1.026h-1.62v1.26h1.62V224h1.53v-7.704h2.538v-1.26h-2.538v-1.026c0-.954 0-1.998 1.494-1.998.27 0 .612.036.936.18zm1.792 4.104v9h1.548v-9zm-.27-3.24c0 .594.45 1.044 1.044 1.044s1.044-.45 1.044-1.044-.45-1.044-1.044-1.044-1.044.45-1.044 1.044m11.296 3.672a5.86 5.86 0 0 0-2.664-.63c-2.772 0-4.5 1.872-4.5 4.752 0 2.772 1.62 4.644 4.446 4.644.756 0 1.71-.126 2.682-.72l-.54-1.368c-.648.522-1.278.792-2.124.792-1.782 0-2.844-1.35-2.844-3.402s1.08-3.42 2.862-3.42c.774 0 1.44.252 2.052.648zm7.12 4.32v.954c0 1.224-.882 2.358-2.376 2.358-1.044 0-1.8-.576-1.8-1.728 0-1.584 1.44-1.584 2.052-1.584zm-4.734-2.7c1.044-.81 1.926-1.008 2.7-1.008 2.034 0 2.034 1.386 2.034 2.088v.486h-2.16c-.756 0-3.582 0-3.582 2.772 0 1.836 1.26 2.862 3.096 2.862 1.458 0 2.376-.648 2.682-1.602V224h1.494v-6.012c0-.81 0-3.168-3.42-3.168a7.6 7.6 0 0 0-3.312.756zm9.172-2.052v9h1.53v-5.184c0-1.386.774-2.754 2.466-2.754 1.998 0 1.998 1.89 1.998 2.736V224h1.53v-5.274c0-1.17 0-3.96-3.132-3.96-1.944 0-2.628 1.08-2.916 1.71V215zm10.9-2.52v2.556h-1.62v1.26h1.62v4.608c0 1.332 0 3.222 2.574 3.222.504 0 1.098-.072 1.656-.27l-.18-1.296c-.486.216-.918.306-1.296.306-1.242 0-1.242-.99-1.242-2.106v-4.464h2.556v-1.26h-2.556v-2.556zm10.91-1.62V224h1.548v-13.14zm4.636 4.14v9h1.548v-9zm-.27-3.24c0 .594.45 1.044 1.044 1.044s1.044-.45 1.044-1.044-.45-1.044-1.044-1.044-1.044.45-1.044 1.044m5.356.72v2.556h-1.62v1.26h1.62v4.608c0 1.332 0 3.222 2.574 3.222.504 0 1.098-.072 1.656-.27l-.18-1.332c-.486.216-.918.306-1.296.306-1.242 0-1.242-.99-1.242-2.106v-4.428h2.088v-1.26h-2.088v-2.556zm6.22 0v2.556h-1.62v1.26h1.62v4.608c0 1.332 0 3.222 2.574 3.222.504 0 1.098-.072 1.656-.27l-.18-1.296c-.486.216-.918.306-1.296.306-1.242 0-1.242-.99-1.242-2.106v-4.464h2.556v-1.26h-2.556v-2.556zm6.13-1.62V224h1.548v-13.14zm11.908 8.982v-.846c0-2.646-1.512-4.23-3.834-4.23-2.502 0-4.194 1.854-4.194 4.752 0 2.808 1.584 4.698 4.446 4.698 1.242 0 2.412-.342 3.204-.864l-.468-1.422c-.9.792-1.854 1.044-2.682 1.044-1.746 0-2.808-1.242-2.88-3.132zm-3.852-3.852c1.458 0 2.34 1.008 2.304 2.682h-4.842c.126-1.674 1.098-2.682 2.538-2.682m10.784-5.13V224h1.476v-1.386c.36.99 1.422 1.602 2.79 1.602 2.43 0 3.924-1.962 3.924-4.806 0-2.808-1.494-4.626-3.852-4.626-1.386 0-2.448.612-2.862 1.728.054-.558.054-1.134.054-1.512v-4.14zm1.512 7.956c0-1.296.738-2.754 2.52-2.754 1.692 0 2.538 1.35 2.538 3.438 0 2.106-.864 3.438-2.592 3.438-1.8 0-2.466-1.494-2.466-2.574zm9.01-7.956V224h1.548v-13.14zM257.444 224v-9h-1.53v5.112c0 1.35-.72 2.826-2.448 2.826-1.98 0-1.98-1.944-1.98-2.862V215h-1.53v5.13c0 1.404 0 4.104 3.15 4.104 1.98 0 2.592-1.08 2.862-1.692V224zm10.324-4.158v-.846c0-2.646-1.512-4.23-3.834-4.23-2.502 0-4.194 1.854-4.194 4.752 0 2.808 1.584 4.698 4.446 4.698 1.242 0 2.412-.342 3.204-.864l-.468-1.422c-.9.792-1.854 1.044-2.682 1.044-1.746 0-2.808-1.242-2.88-3.132zm-3.852-3.852c1.458 0 2.34 1.008 2.304 2.682h-4.842c.126-1.674 1.098-2.682 2.538-2.682m16.778-.99v1.206c-.396-.918-1.404-1.422-2.682-1.422-2.448 0-3.996 1.926-3.996 4.716 0 2.808 1.548 4.626 3.888 4.626 1.404 0 2.304-.63 2.772-1.566l-.018.612c-.018 1.368-.018 3.636-2.898 3.636-.936 0-1.944-.234-2.988-.99l-.342 1.566c1.098.522 2.412.684 3.366.684 4.374 0 4.374-3.294 4.374-4.806V215zm-5.058 4.428c0-2.07.918-3.384 2.592-3.384 1.764 0 2.43 1.404 2.43 2.646v1.242c0 1.44-.756 2.916-2.484 2.916-1.638 0-2.538-1.35-2.538-3.42m14.41-4.446a5 5 0 0 0-1.08-.126c-1.692 0-2.286 1.08-2.412 1.8V215h-1.476v9h1.53v-5.166c0-1.206.576-2.61 2.124-2.61.306 0 .666.054 1.098.27zm8.794 4.86v-.846c0-2.646-1.512-4.23-3.834-4.23-2.502 0-4.194 1.854-4.194 4.752 0 2.808 1.584 4.698 4.446 4.698 1.242 0 2.412-.342 3.204-.864l-.468-1.422c-.9.792-1.854 1.044-2.682 1.044-1.746 0-2.808-1.242-2.88-3.132zm-3.852-3.852c1.458 0 2.34 1.008 2.304 2.682h-4.842c.126-1.674 1.098-2.682 2.538-2.682m13.312 3.852v-.846c0-2.646-1.512-4.23-3.834-4.23-2.502 0-4.194 1.854-4.194 4.752 0 2.808 1.584 4.698 4.446 4.698 1.242 0 2.412-.342 3.204-.864l-.468-1.422c-.9.792-1.854 1.044-2.682 1.044-1.746 0-2.808-1.242-2.88-3.132zm-3.852-3.852c1.458 0 2.34 1.008 2.304 2.682h-4.842c.126-1.674 1.098-2.682 2.538-2.682m6.004-.99v9h1.53v-5.184c0-1.386.774-2.754 2.466-2.754 1.998 0 1.998 1.89 1.998 2.736V224h1.53v-5.274c0-1.17 0-3.96-3.132-3.96-1.944 0-2.628 1.08-2.916 1.71V215zM32.458 239v13.05h1.53V248c0-.342 0-.864-.054-1.386.36.99 1.422 1.602 2.79 1.602 2.43 0 3.924-1.962 3.924-4.806 0-2.808-1.494-4.626-3.852-4.626-1.386 0-2.448.612-2.862 1.728V239zm1.512 3.816c0-1.296.738-2.754 2.52-2.754 1.692 0 2.538 1.35 2.538 3.438 0 2.106-.864 3.438-2.592 3.438-1.8 0-2.466-1.494-2.466-2.574zm9.01-7.956V248h1.548v-13.14zm9.748 8.892v.954c0 1.224-.882 2.358-2.376 2.358-1.044 0-1.8-.576-1.8-1.728 0-1.584 1.44-1.584 2.052-1.584zm-4.734-2.7c1.044-.81 1.926-1.008 2.7-1.008 2.034 0 2.034 1.386 2.034 2.088v.486h-2.16c-.756 0-3.582 0-3.582 2.772 0 1.836 1.26 2.862 3.096 2.862 1.458 0 2.376-.648 2.682-1.602V248h1.494v-6.012c0-.81 0-3.168-3.42-3.168a7.6 7.6 0 0 0-3.312.756zM57.166 239v9h1.53v-5.184c0-1.386.774-2.754 2.466-2.754 1.998 0 1.998 1.89 1.998 2.736V248h1.53v-5.274c0-1.17 0-3.96-3.132-3.96-1.944 0-2.628 1.08-2.916 1.71V239zm17.722 4.842v-.846c0-2.646-1.512-4.23-3.834-4.23-2.502 0-4.194 1.854-4.194 4.752 0 2.808 1.584 4.698 4.446 4.698 1.242 0 2.412-.342 3.204-.864l-.468-1.422c-.9.792-1.854 1.044-2.682 1.044-1.746 0-2.808-1.242-2.88-3.132zm-3.852-3.852c1.458 0 2.34 1.008 2.304 2.682h-4.842c.126-1.674 1.098-2.682 2.538-2.682m6.49-3.51v2.556h-1.62v1.26h1.62v4.608c0 1.332 0 3.222 2.574 3.222.504 0 1.098-.072 1.656-.27l-.18-1.296c-.486.216-.918.306-1.296.306-1.242 0-1.242-.99-1.242-2.106v-4.464h2.556v-1.26h-2.556v-2.556zM87.608 239l2.196 9h1.872c1.728-6.174 1.728-6.174 2.07-7.614.288 1.44.288 1.44 1.908 7.614h1.836l2.34-9h-1.476c-1.458 6.246-1.458 6.246-1.782 7.956-.342-1.71-.342-1.71-2.016-7.92h-1.638c-1.746 6.21-1.746 6.21-2.106 7.92-.288-1.71-.288-1.71-1.602-7.956zm14.41-4.14V248h1.53v-5.184c0-1.386.774-2.754 2.466-2.754 1.998 0 1.998 1.89 1.998 2.736V248h1.53v-5.274c0-1.17 0-3.96-3.132-3.96-1.944 0-2.628 1.08-2.916 1.71.054-.54.054-1.116.054-1.476v-4.14zm13.996 3.924c-2.574 0-4.302 1.854-4.302 4.734 0 2.862 1.71 4.698 4.284 4.698 2.556 0 4.266-1.854 4.266-4.734s-1.71-4.698-4.248-4.698m0 1.278c1.692 0 2.628 1.296 2.628 3.438 0 2.16-.954 3.438-2.646 3.438s-2.664-1.314-2.664-3.438c0-2.16.99-3.438 2.682-3.438m11.962-.774a6.4 6.4 0 0 0-2.502-.522c-1.962 0-3.312.936-3.312 2.682 0 3.186 4.554 1.98 4.554 4.158 0 .9-.774 1.35-1.764 1.35-.918 0-1.818-.378-2.52-.972l-.504 1.512c.9.468 1.872.72 2.934.72 1.962 0 3.348-.864 3.348-2.754 0-3.42-4.572-2.016-4.572-4.122 0-.81.684-1.35 1.728-1.35.774 0 1.53.288 2.07.702zm9.838 4.554v-.846c0-2.646-1.512-4.23-3.834-4.23-2.502 0-4.194 1.854-4.194 4.752 0 2.808 1.584 4.698 4.446 4.698 1.242 0 2.412-.342 3.204-.864l-.468-1.422c-.9.792-1.854 1.044-2.682 1.044-1.746 0-2.808-1.242-2.88-3.132zm-3.852-3.852c1.458 0 2.34 1.008 2.304 2.682h-4.842c.126-1.674 1.098-2.682 2.538-2.682m15.932 3.762v.954c0 1.224-.882 2.358-2.376 2.358-1.044 0-1.8-.576-1.8-1.728 0-1.584 1.44-1.584 2.052-1.584zm-4.734-2.7c1.044-.81 1.926-1.008 2.7-1.008 2.034 0 2.034 1.386 2.034 2.088v.486h-2.16c-.756 0-3.582 0-3.582 2.772 0 1.836 1.26 2.862 3.096 2.862 1.458 0 2.376-.648 2.682-1.602V248h1.494v-6.012c0-.81 0-3.168-3.42-3.168a7.6 7.6 0 0 0-3.312.756zm9.172-2.052v13.05h1.53V248c0-.342 0-.864-.054-1.386.36.99 1.422 1.602 2.79 1.602 2.43 0 3.924-1.962 3.924-4.806 0-2.808-1.494-4.626-3.852-4.626-1.386 0-2.448.612-2.862 1.728V239zm1.512 3.816c0-1.296.738-2.754 2.52-2.754 1.692 0 2.538 1.35 2.538 3.438 0 2.106-.864 3.438-2.592 3.438-1.8 0-2.466-1.494-2.466-2.574zm16.282 1.026v-.846c0-2.646-1.512-4.23-3.834-4.23-2.502 0-4.194 1.854-4.194 4.752 0 2.808 1.584 4.698 4.446 4.698 1.242 0 2.412-.342 3.204-.864l-.468-1.422c-.9.792-1.854 1.044-2.682 1.044-1.746 0-2.808-1.242-2.88-3.132zm-3.852-3.852c1.458 0 2.34 1.008 2.304 2.682h-4.842c.126-1.674 1.098-2.682 2.538-2.682m11.944-5.13V239c0 .324 0 .774.054 1.278-.432-.99-1.44-1.494-2.7-1.494-2.466 0-4.014 1.944-4.014 4.77s1.566 4.662 3.906 4.662c1.53 0 2.43-.756 2.808-1.638V248h1.476v-13.14zm.018 7.686v1.62c0 1.278-.756 2.772-2.502 2.772-1.638 0-2.556-1.368-2.556-3.456 0-2.106.918-3.42 2.61-3.42 1.764 0 2.448 1.404 2.448 2.484m11.836 1.296v-.846c0-2.646-1.512-4.23-3.834-4.23-2.502 0-4.194 1.854-4.194 4.752 0 2.808 1.584 4.698 4.446 4.698 1.242 0 2.412-.342 3.204-.864l-.468-1.422c-.9.792-1.854 1.044-2.682 1.044-1.746 0-2.808-1.242-2.88-3.132zm-3.852-3.852c1.458 0 2.34 1.008 2.304 2.682h-4.842c.126-1.674 1.098-2.682 2.538-2.682m11.422-.702a6.4 6.4 0 0 0-2.502-.522c-1.962 0-3.312.936-3.312 2.682 0 3.186 4.554 1.98 4.554 4.158 0 .9-.774 1.35-1.764 1.35-.918 0-1.818-.378-2.52-.972l-.504 1.512c.9.468 1.872.72 2.934.72 1.962 0 3.348-.864 3.348-2.754 0-3.42-4.572-2.016-4.572-4.122 0-.81.684-1.35 1.728-1.35.774 0 1.53.288 2.07.702zm8.956.144a5.86 5.86 0 0 0-2.664-.63c-2.772 0-4.5 1.872-4.5 4.752 0 2.772 1.62 4.644 4.446 4.644.756 0 1.71-.126 2.682-.72l-.54-1.368c-.648.522-1.278.792-2.124.792-1.782 0-2.844-1.35-2.844-3.402s1.08-3.42 2.862-3.42c.774 0 1.44.252 2.052.648zm9.28 4.41v-.846c0-2.646-1.512-4.23-3.834-4.23-2.502 0-4.194 1.854-4.194 4.752 0 2.808 1.584 4.698 4.446 4.698 1.242 0 2.412-.342 3.204-.864l-.468-1.422c-.9.792-1.854 1.044-2.682 1.044-1.746 0-2.808-1.242-2.88-3.132zm-3.852-3.852c1.458 0 2.34 1.008 2.304 2.682h-4.842c.126-1.674 1.098-2.682 2.538-2.682m6.004-.99v9h1.53v-5.184c0-1.386.774-2.754 2.466-2.754 1.998 0 1.998 1.89 1.998 2.736V248h1.53v-5.274c0-1.17 0-3.96-3.132-3.96-1.944 0-2.628 1.08-2.916 1.71V239zm16.354-4.14V239c0 .324 0 .774.054 1.278-.432-.99-1.44-1.494-2.7-1.494-2.466 0-4.014 1.944-4.014 4.77s1.566 4.662 3.906 4.662c1.53 0 2.43-.756 2.808-1.638V248h1.476v-13.14zm.018 7.686v1.62c0 1.278-.756 2.772-2.502 2.772-1.638 0-2.556-1.368-2.556-3.456 0-2.106.918-3.42 2.61-3.42 1.764 0 2.448 1.404 2.448 2.484m11.836 1.296v-.846c0-2.646-1.512-4.23-3.834-4.23-2.502 0-4.194 1.854-4.194 4.752 0 2.808 1.584 4.698 4.446 4.698 1.242 0 2.412-.342 3.204-.864l-.468-1.422c-.9.792-1.854 1.044-2.682 1.044-1.746 0-2.808-1.242-2.88-3.132zm-3.852-3.852c1.458 0 2.34 1.008 2.304 2.682h-4.842c.126-1.674 1.098-2.682 2.538-2.682m11.944-5.13V239c0 .324 0 .774.054 1.278-.432-.99-1.44-1.494-2.7-1.494-2.466 0-4.014 1.944-4.014 4.77s1.566 4.662 3.906 4.662c1.53 0 2.43-.756 2.808-1.638V248h1.476v-13.14zm.018 7.686v1.62c0 1.278-.756 2.772-2.502 2.772-1.638 0-2.556-1.368-2.556-3.456 0-2.106.918-3.42 2.61-3.42 1.764 0 2.448 1.404 2.448 2.484m9.344-7.686V248h1.548v-13.14zm4.636 4.14v9h1.548v-9zm-.27-3.24c0 .594.45 1.044 1.044 1.044s1.044-.45 1.044-1.044-.45-1.044-1.044-1.044-1.044.45-1.044 1.044m9.982-.774a5.8 5.8 0 0 0-1.584-.216c-2.934 0-2.934 2.286-2.934 3.24v1.026h-1.62v1.26h1.62V248h1.53v-7.704h2.538v-1.26h-2.538v-1.026c0-.882 0-1.998 1.422-1.998a2.5 2.5 0 0 1 1.332.378zm8.47 8.856v-.846c0-2.646-1.512-4.23-3.834-4.23-2.502 0-4.194 1.854-4.194 4.752 0 2.808 1.584 4.698 4.446 4.698 1.242 0 2.412-.342 3.204-.864l-.468-1.422c-.9.792-1.854 1.044-2.682 1.044-1.746 0-2.808-1.242-2.88-3.132zm-3.852-3.852c1.458 0 2.34 1.008 2.304 2.682h-4.842c.126-1.674 1.098-2.682 2.538-2.682m15.896-5.004a5.8 5.8 0 0 0-1.584-.216c-2.934 0-2.934 2.286-2.934 3.24v1.026h-1.62v1.26h1.62V248h1.53v-7.704h2.538v-1.26h-2.538v-1.026c0-.882 0-1.998 1.422-1.998a2.5 2.5 0 0 1 1.332.378zm4.744 3.798c-2.574 0-4.302 1.854-4.302 4.734 0 2.862 1.71 4.698 4.284 4.698 2.556 0 4.266-1.854 4.266-4.734s-1.71-4.698-4.248-4.698m0 1.278c1.692 0 2.628 1.296 2.628 3.438 0 2.16-.954 3.438-2.646 3.438s-2.664-1.314-2.664-3.438c0-2.16.99-3.438 2.682-3.438m11.512-1.08a5 5 0 0 0-1.08-.126c-1.692 0-2.286 1.08-2.412 1.8V239h-1.476v9h1.53v-5.166c0-1.206.576-2.61 2.124-2.61.306 0 .666.054 1.098.27zm1.558.018v9h1.53v-5.202c0-1.386.684-2.754 2.142-2.754 1.764 0 1.764 1.926 1.764 2.736V248h1.53v-5.4c0-1.296.522-2.556 1.98-2.556 1.764 0 1.764 1.818 1.764 2.808V248h1.53v-5.22c0-1.278 0-4.014-2.916-4.014-1.44 0-2.268.666-2.754 1.512-.36-.828-1.08-1.512-2.502-1.512-1.728 0-2.34 1.062-2.592 1.692V239zm20.548.288a6.4 6.4 0 0 0-2.502-.522c-1.962 0-3.312.936-3.312 2.682 0 3.186 4.554 1.98 4.554 4.158 0 .9-.774 1.35-1.764 1.35-.918 0-1.818-.378-2.52-.972l-.504 1.512c.9.468 1.872.72 2.934.72 1.962 0 3.348-.864 3.348-2.754 0-3.42-4.572-2.016-4.572-4.122 0-.81.684-1.35 1.728-1.35.774 0 1.53.288 2.07.702zm12.458 4.464v.954c0 1.224-.882 2.358-2.376 2.358-1.044 0-1.8-.576-1.8-1.728 0-1.584 1.44-1.584 2.052-1.584zm-4.734-2.7c1.044-.81 1.926-1.008 2.7-1.008 2.034 0 2.034 1.386 2.034 2.088v.486h-2.16c-.756 0-3.582 0-3.582 2.772 0 1.836 1.26 2.862 3.096 2.862 1.458 0 2.376-.648 2.682-1.602V248h1.494v-6.012c0-.81 0-3.168-3.42-3.168a7.6 7.6 0 0 0-3.312.756zm14.14-2.07a5 5 0 0 0-1.08-.126c-1.692 0-2.286 1.08-2.412 1.8V239h-1.476v9h1.53v-5.166c0-1.206.576-2.61 2.124-2.61.306 0 .666.054 1.098.27zm8.794 4.86v-.846c0-2.646-1.512-4.23-3.834-4.23-2.502 0-4.194 1.854-4.194 4.752 0 2.808 1.584 4.698 4.446 4.698 1.242 0 2.412-.342 3.204-.864l-.468-1.422c-.9.792-1.854 1.044-2.682 1.044-1.746 0-2.808-1.242-2.88-3.132zm-3.852-3.852c1.458 0 2.34 1.008 2.304 2.682h-4.842c.126-1.674 1.098-2.682 2.538-2.682M37.876 263.288a6.4 6.4 0 0 0-2.502-.522c-1.962 0-3.312.936-3.312 2.682 0 3.186 4.554 1.98 4.554 4.158 0 .9-.774 1.35-1.764 1.35-.918 0-1.818-.378-2.52-.972l-.504 1.512c.9.468 1.872.72 2.934.72 1.962 0 3.348-.864 3.348-2.754 0-3.42-4.572-2.016-4.572-4.122 0-.81.684-1.35 1.728-1.35.774 0 1.53.288 2.07.702zm6.112-.504c-2.574 0-4.302 1.854-4.302 4.734 0 2.862 1.71 4.698 4.284 4.698 2.556 0 4.266-1.854 4.266-4.734s-1.71-4.698-4.248-4.698m0 1.278c1.692 0 2.628 1.296 2.628 3.438 0 2.16-.954 3.438-2.646 3.438s-2.664-1.314-2.664-3.438c0-2.16.99-3.438 2.682-3.438m16.472 3.69v.954c0 1.224-.882 2.358-2.376 2.358-1.044 0-1.8-.576-1.8-1.728 0-1.584 1.44-1.584 2.052-1.584zm-4.734-2.7c1.044-.81 1.926-1.008 2.7-1.008 2.034 0 2.034 1.386 2.034 2.088v.486H58.3c-.756 0-3.582 0-3.582 2.772 0 1.836 1.26 2.862 3.096 2.862 1.458 0 2.376-.648 2.682-1.602V272h1.494v-6.012c0-.81 0-3.168-3.42-3.168a7.6 7.6 0 0 0-3.312.756zM64.898 263v9h1.53v-5.202c0-1.386.684-2.754 2.142-2.754 1.764 0 1.764 1.926 1.764 2.736V272h1.53v-5.4c0-1.296.522-2.556 1.98-2.556 1.764 0 1.764 1.818 1.764 2.808V272h1.53v-5.22c0-1.278 0-4.014-2.916-4.014-1.44 0-2.268.666-2.754 1.512-.36-.828-1.08-1.512-2.502-1.512-1.728 0-2.34 1.062-2.592 1.692V263zm20.278 4.752v.954c0 1.224-.882 2.358-2.376 2.358-1.044 0-1.8-.576-1.8-1.728 0-1.584 1.44-1.584 2.052-1.584zm-4.734-2.7c1.044-.81 1.926-1.008 2.7-1.008 2.034 0 2.034 1.386 2.034 2.088v.486h-2.16c-.756 0-3.582 0-3.582 2.772 0 1.836 1.26 2.862 3.096 2.862 1.458 0 2.376-.648 2.682-1.602V272h1.494v-6.012c0-.81 0-3.168-3.42-3.168a7.6 7.6 0 0 0-3.312.756zM88.84 272h6.894v-1.35l-5.202.018 5.094-6.318v-1.314h-6.57v1.332l4.932-.018-5.148 6.318zm9.208-9v9h1.548v-9zm-.27-3.24c0 .594.45 1.044 1.044 1.044s1.044-.45 1.044-1.044-.45-1.044-1.044-1.044-1.044.45-1.044 1.044m4.87 3.24v9h1.53v-5.184c0-1.386.774-2.754 2.466-2.754 1.998 0 1.998 1.89 1.998 2.736V272h1.53v-5.274c0-1.17 0-3.96-3.132-3.96-1.944 0-2.628 1.08-2.916 1.71V263zm16.408 0v1.206c-.396-.918-1.404-1.422-2.682-1.422-2.448 0-3.996 1.926-3.996 4.716 0 2.808 1.548 4.626 3.888 4.626 1.404 0 2.304-.63 2.772-1.566l-.018.612c-.018 1.368-.018 3.636-2.898 3.636-.936 0-1.944-.234-2.988-.99l-.342 1.566c1.098.522 2.412.684 3.366.684 4.374 0 4.374-3.294 4.374-4.806V263zm-5.058 4.428c0-2.07.918-3.384 2.592-3.384 1.764 0 2.43 1.404 2.43 2.646v1.242c0 1.44-.756 2.916-2.484 2.916-1.638 0-2.538-1.35-2.538-3.42m9.478-8.568V272h1.548v-13.14zm3.916 17.118c.36.072.63.09.846.09 2.268 0 3.06-2.07 3.438-3.132l3.6-9.936h-1.62l-2.466 7.704-2.502-7.704h-1.728l3.492 9.36c-.342.9-.918 2.412-2.232 2.412-.144 0-.378-.018-.702-.126zM141.92 263v13.05h1.53V272c0-.342 0-.864-.054-1.386.36.99 1.422 1.602 2.79 1.602 2.43 0 3.924-1.962 3.924-4.806 0-2.808-1.494-4.626-3.852-4.626-1.386 0-2.448.612-2.862 1.728V263zm1.512 3.816c0-1.296.738-2.754 2.52-2.754 1.692 0 2.538 1.35 2.538 3.438 0 2.106-.864 3.438-2.592 3.438-1.8 0-2.466-1.494-2.466-2.574zm13.942-3.834a5 5 0 0 0-1.08-.126c-1.692 0-2.286 1.08-2.412 1.8V263h-1.476v9h1.53v-5.166c0-1.206.576-2.61 2.124-2.61.306 0 .666.054 1.098.27zm1.594.018v9h1.548v-9zm-.27-3.24c0 .594.45 1.044 1.044 1.044s1.044-.45 1.044-1.044-.45-1.044-1.044-1.044-1.044.45-1.044 1.044m4.87 3.24v9h1.53v-5.202c0-1.386.684-2.754 2.142-2.754 1.764 0 1.764 1.926 1.764 2.736V272h1.53v-5.4c0-1.296.522-2.556 1.98-2.556 1.764 0 1.764 1.818 1.764 2.808V272h1.53v-5.22c0-1.278 0-4.014-2.916-4.014-1.44 0-2.268.666-2.754 1.512-.36-.828-1.08-1.512-2.502-1.512-1.728 0-2.34 1.062-2.592 1.692V263zm15.166 0v9h1.548v-9zm-.27-3.24c0 .594.45 1.044 1.044 1.044s1.044-.45 1.044-1.044-.45-1.044-1.044-1.044-1.044.45-1.044 1.044m5.356.72v2.556h-1.62v1.26h1.62v4.608c0 1.332 0 3.222 2.574 3.222.504 0 1.098-.072 1.656-.27l-.18-1.296c-.486.216-.918.306-1.296.306-1.242 0-1.242-.99-1.242-2.106v-4.464h2.556v-1.26h-2.556v-2.556zm6.13 2.52v9h1.548v-9zm-.27-3.24c0 .594.45 1.044 1.044 1.044s1.044-.45 1.044-1.044-.45-1.044-1.044-1.044-1.044.45-1.044 1.044m3.592 3.24 3.312 9h1.764l3.366-9h-1.62l-2.592 7.74-2.52-7.74zm17.488 4.842v-.846c0-2.646-1.512-4.23-3.834-4.23-2.502 0-4.194 1.854-4.194 4.752 0 2.808 1.584 4.698 4.446 4.698 1.242 0 2.412-.342 3.204-.864l-.468-1.422c-.9.792-1.854 1.044-2.682 1.044-1.746 0-2.808-1.242-2.88-3.132zm-3.852-3.852c1.458 0 2.34 1.008 2.304 2.682h-4.842c.126-1.674 1.098-2.682 2.538-2.682m11.27-3.51v2.556h-1.62v1.26h1.62v4.608c0 1.332 0 3.222 2.574 3.222.504 0 1.098-.072 1.656-.27l-.18-1.296c-.486.216-.918.306-1.296.306-1.242 0-1.242-.99-1.242-2.106v-4.464h2.556v-1.26h-2.556v-2.556zm6.094-1.62V272h1.53v-5.184c0-1.386.774-2.754 2.466-2.754 1.998 0 1.998 1.89 1.998 2.736V272h1.53v-5.274c0-1.17 0-3.96-3.132-3.96-1.944 0-2.628 1.08-2.916 1.71.054-.54.054-1.116.054-1.476v-4.14zm15.562 8.892v.954c0 1.224-.882 2.358-2.376 2.358-1.044 0-1.8-.576-1.8-1.728 0-1.584 1.44-1.584 2.052-1.584zm-4.734-2.7c1.044-.81 1.926-1.008 2.7-1.008 2.034 0 2.034 1.386 2.034 2.088v.486h-2.16c-.756 0-3.582 0-3.582 2.772 0 1.836 1.26 2.862 3.096 2.862 1.458 0 2.376-.648 2.682-1.602V272h1.494v-6.012c0-.81 0-3.168-3.42-3.168a7.6 7.6 0 0 0-3.312.756zm9.658-4.572v2.556h-1.62v1.26h1.62v4.608c0 1.332 0 3.222 2.574 3.222.504 0 1.098-.072 1.656-.27l-.18-1.296c-.486.216-.918.306-1.296.306-1.242 0-1.242-.99-1.242-2.106v-4.464h2.556v-1.26h-2.556v-2.556zm11.36 0v2.556h-1.62v1.26h1.62v4.608c0 1.332 0 3.222 2.574 3.222.504 0 1.098-.072 1.656-.27l-.18-1.296c-.486.216-.918.306-1.296.306-1.242 0-1.242-.99-1.242-2.106v-4.464h2.556v-1.26h-2.556v-2.556zm6.094-1.62V272h1.53v-5.184c0-1.386.774-2.754 2.466-2.754 1.998 0 1.998 1.89 1.998 2.736V272h1.53v-5.274c0-1.17 0-3.96-3.132-3.96-1.944 0-2.628 1.08-2.916 1.71.054-.54.054-1.116.054-1.476v-4.14zm17.722 8.982v-.846c0-2.646-1.512-4.23-3.834-4.23-2.502 0-4.194 1.854-4.194 4.752 0 2.808 1.584 4.698 4.446 4.698 1.242 0 2.412-.342 3.204-.864l-.468-1.422c-.9.792-1.854 1.044-2.682 1.044-1.746 0-2.808-1.242-2.88-3.132zm-3.852-3.852c1.458 0 2.34 1.008 2.304 2.682h-4.842c.126-1.674 1.098-2.682 2.538-2.682m5.32 11.988c.36.072.63.09.846.09 2.268 0 3.06-2.07 3.438-3.132l3.6-9.936h-1.62l-2.466 7.704-2.502-7.704h-1.728l3.492 9.36c-.342.9-.918 2.412-2.232 2.412-.144 0-.378-.018-.702-.126zm19.946-12.69a6.4 6.4 0 0 0-2.502-.522c-1.962 0-3.312.936-3.312 2.682 0 3.186 4.554 1.98 4.554 4.158 0 .9-.774 1.35-1.764 1.35-.918 0-1.818-.378-2.52-.972l-.504 1.512c.9.468 1.872.72 2.934.72 1.962 0 3.348-.864 3.348-2.754 0-3.42-4.572-2.016-4.572-4.122 0-.81.684-1.35 1.728-1.35.774 0 1.53.288 2.07.702zm3.016-2.808v2.556h-1.62v1.26h1.62v4.608c0 1.332 0 3.222 2.574 3.222.504 0 1.098-.072 1.656-.27l-.18-1.296c-.486.216-.918.306-1.296.306-1.242 0-1.242-.99-1.242-2.106v-4.464h2.556v-1.26h-2.556v-2.556zm6.13 2.52v9h1.548v-9zm-.27-3.24c0 .594.45 1.044 1.044 1.044s1.044-.45 1.044-1.044-.45-1.044-1.044-1.044-1.044.45-1.044 1.044m4.906-.9V272h1.548v-13.14zm4.636 0V272h1.548v-13.14zm9.866 1.62v2.556h-1.62v1.26h1.62v4.608c0 1.332 0 3.222 2.574 3.222.504 0 1.098-.072 1.656-.27l-.18-1.296c-.486.216-.918.306-1.296.306-1.242 0-1.242-.99-1.242-2.106v-4.464h2.556v-1.26h-2.556v-2.556zm6.094-1.62V272h1.53v-5.184c0-1.386.774-2.754 2.466-2.754 1.998 0 1.998 1.89 1.998 2.736V272h1.53v-5.274c0-1.17 0-3.96-3.132-3.96-1.944 0-2.628 1.08-2.916 1.71.054-.54.054-1.116.054-1.476v-4.14zm10.45 4.14v9h1.548v-9zm-.27-3.24c0 .594.45 1.044 1.044 1.044s1.044-.45 1.044-1.044-.45-1.044-1.044-1.044-1.044.45-1.044 1.044m4.87 3.24v9h1.53v-5.184c0-1.386.774-2.754 2.466-2.754 1.998 0 1.998 1.89 1.998 2.736V272h1.53v-5.274c0-1.17 0-3.96-3.132-3.96-1.944 0-2.628 1.08-2.916 1.71V263zm10.414-4.14V272h1.44v-4.536h.036l3.798 4.536h1.98l-4.32-4.878 3.924-4.122h-1.944l-3.438 3.888h-.036v-8.028zm-322.792 24V287c0 .324 0 .774.054 1.278-.432-.99-1.44-1.494-2.7-1.494-2.466 0-4.014 1.944-4.014 4.77s1.566 4.662 3.906 4.662c1.53 0 2.43-.756 2.808-1.638V296h1.476v-13.14zm.018 7.686v1.62c0 1.278-.756 2.772-2.502 2.772-1.638 0-2.556-1.368-2.556-3.456 0-2.106.918-3.42 2.61-3.42 1.764 0 2.448 1.404 2.448 2.484M42.98 287v9h1.548v-9zm-.27-3.24c0 .594.45 1.044 1.044 1.044s1.044-.45 1.044-1.044-.45-1.044-1.044-1.044-1.044.45-1.044 1.044M53.574 287v1.206c-.396-.918-1.404-1.422-2.682-1.422-2.448 0-3.996 1.926-3.996 4.716 0 2.808 1.548 4.626 3.888 4.626 1.404 0 2.304-.63 2.772-1.566l-.018.612c-.018 1.368-.018 3.636-2.898 3.636-.936 0-1.944-.234-2.988-.99l-.342 1.566c1.098.522 2.412.684 3.366.684 4.374 0 4.374-3.294 4.374-4.806V287zm-5.058 4.428c0-2.07.918-3.384 2.592-3.384 1.764 0 2.43 1.404 2.43 2.646v1.242c0 1.44-.756 2.916-2.484 2.916-1.638 0-2.538-1.35-2.538-3.42M57.994 287v9h1.548v-9zm-.27-3.24c0 .594.45 1.044 1.044 1.044s1.044-.45 1.044-1.044-.45-1.044-1.044-1.044-1.044.45-1.044 1.044m5.356.72v2.556h-1.62v1.26h1.62v4.608c0 1.332 0 3.222 2.574 3.222.504 0 1.098-.072 1.656-.27l-.18-1.296c-.486.216-.918.306-1.296.306-1.242 0-1.242-.99-1.242-2.106v-4.464h2.556v-1.26h-2.556v-2.556zm11.242 7.272v.954c0 1.224-.882 2.358-2.376 2.358-1.044 0-1.8-.576-1.8-1.728 0-1.584 1.44-1.584 2.052-1.584zm-4.734-2.7c1.044-.81 1.926-1.008 2.7-1.008 2.034 0 2.034 1.386 2.034 2.088v.486h-2.16c-.756 0-3.582 0-3.582 2.772 0 1.836 1.26 2.862 3.096 2.862 1.458 0 2.376-.648 2.682-1.602V296h1.494v-6.012c0-.81 0-3.168-3.42-3.168a7.6 7.6 0 0 0-3.312.756zm9.208-6.192V296h1.548v-13.14zm8.588 4.14 2.196 9h1.872c1.728-6.174 1.728-6.174 2.07-7.614.288 1.44.288 1.44 1.908 7.614h1.836l2.34-9H98.13c-1.458 6.246-1.458 6.246-1.782 7.956-.342-1.71-.342-1.71-2.016-7.92h-1.638c-1.746 6.21-1.746 6.21-2.106 7.92-.288-1.71-.288-1.71-1.602-7.956zm19.558 4.752v.954c0 1.224-.882 2.358-2.376 2.358-1.044 0-1.8-.576-1.8-1.728 0-1.584 1.44-1.584 2.052-1.584zm-4.734-2.7c1.044-.81 1.926-1.008 2.7-1.008 2.034 0 2.034 1.386 2.034 2.088v.486h-2.16c-.756 0-3.582 0-3.582 2.772 0 1.836 1.26 2.862 3.096 2.862 1.458 0 2.376-.648 2.682-1.602V296h1.494v-6.012c0-.81 0-3.168-3.42-3.168a7.6 7.6 0 0 0-3.312.756zm9.658-4.572v2.556h-1.62v1.26h1.62v4.608c0 1.332 0 3.222 2.574 3.222.504 0 1.098-.072 1.656-.27l-.18-1.296c-.486.216-.918.306-1.296.306-1.242 0-1.242-.99-1.242-2.106v-4.464h2.556v-1.26h-2.556v-2.556zm12.52 2.952a5.86 5.86 0 0 0-2.664-.63c-2.772 0-4.5 1.872-4.5 4.752 0 2.772 1.62 4.644 4.446 4.644.756 0 1.71-.126 2.682-.72l-.54-1.368c-.648.522-1.278.792-2.124.792-1.782 0-2.844-1.35-2.844-3.402s1.08-3.42 2.862-3.42c.774 0 1.44.252 2.052.648zm1.972-4.572V296h1.53v-5.184c0-1.386.774-2.754 2.466-2.754 1.998 0 1.998 1.89 1.998 2.736V296h1.53v-5.274c0-1.17 0-3.96-3.132-3.96-1.944 0-2.628 1.08-2.916 1.71.054-.54.054-1.116.054-1.476v-4.14zm17.722 8.982v-.846c0-2.646-1.512-4.23-3.834-4.23-2.502 0-4.194 1.854-4.194 4.752 0 2.808 1.584 4.698 4.446 4.698 1.242 0 2.412-.342 3.204-.864l-.468-1.422c-.9.792-1.854 1.044-2.682 1.044-1.746 0-2.808-1.242-2.88-3.132zm-3.852-3.852c1.458 0 2.34 1.008 2.304 2.682h-4.842c.126-1.674 1.098-2.682 2.538-2.682m11.422-.702a6.4 6.4 0 0 0-2.502-.522c-1.962 0-3.312.936-3.312 2.682 0 3.186 4.554 1.98 4.554 4.158 0 .9-.774 1.35-1.764 1.35-.918 0-1.818-.378-2.52-.972l-.504 1.512c.9.468 1.872.72 2.934.72 1.962 0 3.348-.864 3.348-2.754 0-3.42-4.572-2.016-4.572-4.122 0-.81.684-1.35 1.728-1.35.774 0 1.53.288 2.07.702zm12.458 4.464v.954c0 1.224-.882 2.358-2.376 2.358-1.044 0-1.8-.576-1.8-1.728 0-1.584 1.44-1.584 2.052-1.584zm-4.734-2.7c1.044-.81 1.926-1.008 2.7-1.008 2.034 0 2.034 1.386 2.034 2.088v.486h-2.16c-.756 0-3.582 0-3.582 2.772 0 1.836 1.26 2.862 3.096 2.862 1.458 0 2.376-.648 2.682-1.602V296h1.494v-6.012c0-.81 0-3.168-3.42-3.168a7.6 7.6 0 0 0-3.312.756zm14.14-2.07a5 5 0 0 0-1.08-.126c-1.692 0-2.286 1.08-2.412 1.8V287h-1.476v9h1.53v-5.166c0-1.206.576-2.61 2.124-2.61.306 0 .666.054 1.098.27zm8.794 4.86v-.846c0-2.646-1.512-4.23-3.834-4.23-2.502 0-4.194 1.854-4.194 4.752 0 2.808 1.584 4.698 4.446 4.698 1.242 0 2.412-.342 3.204-.864l-.468-1.422c-.9.792-1.854 1.044-2.682 1.044-1.746 0-2.808-1.242-2.88-3.132zm-3.852-3.852c1.458 0 2.34 1.008 2.304 2.682h-4.842c.126-1.674 1.098-2.682 2.538-2.682m15.932 3.762v.954c0 1.224-.882 2.358-2.376 2.358-1.044 0-1.8-.576-1.8-1.728 0-1.584 1.44-1.584 2.052-1.584zm-4.734-2.7c1.044-.81 1.926-1.008 2.7-1.008 2.034 0 2.034 1.386 2.034 2.088v.486h-2.16c-.756 0-3.582 0-3.582 2.772 0 1.836 1.26 2.862 3.096 2.862 1.458 0 2.376-.648 2.682-1.602V296h1.494v-6.012c0-.81 0-3.168-3.42-3.168a7.6 7.6 0 0 0-3.312.756zM203.606 287v13.05h1.53V296c0-.342 0-.864-.054-1.386.36.99 1.422 1.602 2.79 1.602 2.43 0 3.924-1.962 3.924-4.806 0-2.808-1.494-4.626-3.852-4.626-1.386 0-2.448.612-2.862 1.728V287zm1.512 3.816c0-1.296.738-2.754 2.52-2.754 1.692 0 2.538 1.35 2.538 3.438 0 2.106-.864 3.438-2.592 3.438-1.8 0-2.466-1.494-2.466-2.574zm13.942-3.834a5 5 0 0 0-1.08-.126c-1.692 0-2.286 1.08-2.412 1.8V287h-1.476v9h1.53v-5.166c0-1.206.576-2.61 2.124-2.61.306 0 .666.054 1.098.27zm8.794 4.86v-.846c0-2.646-1.512-4.23-3.834-4.23-2.502 0-4.194 1.854-4.194 4.752 0 2.808 1.584 4.698 4.446 4.698 1.242 0 2.412-.342 3.204-.864l-.468-1.422c-.9.792-1.854 1.044-2.682 1.044-1.746 0-2.808-1.242-2.88-3.132zm-3.852-3.852c1.458 0 2.34 1.008 2.304 2.682h-4.842c.126-1.674 1.098-2.682 2.538-2.682m6.49-3.51v2.556h-1.62v1.26h1.62v4.608c0 1.332 0 3.222 2.574 3.222.504 0 1.098-.072 1.656-.27l-.18-1.332c-.486.216-.918.306-1.296.306-1.242 0-1.242-.99-1.242-2.106v-4.428h2.088v-1.26h-2.088v-2.556zm6.22 0v2.556h-1.62v1.26h1.62v4.608c0 1.332 0 3.222 2.574 3.222.504 0 1.098-.072 1.656-.27l-.18-1.296c-.486.216-.918.306-1.296.306-1.242 0-1.242-.99-1.242-2.106v-4.464h2.556v-1.26h-2.556v-2.556zm5.41 15.498c.36.072.63.09.846.09 2.268 0 3.06-2.07 3.438-3.132l3.6-9.936h-1.62l-2.466 7.704-2.502-7.704h-1.728l3.492 9.36c-.342.9-.918 2.412-2.232 2.412-.144 0-.378-.018-.702-.126zM256.65 287v9h1.53v-5.184c0-1.386.774-2.754 2.466-2.754 1.998 0 1.998 1.89 1.998 2.736V296h1.53v-5.274c0-1.17 0-3.96-3.132-3.96-1.944 0-2.628 1.08-2.916 1.71V287zm17.722 4.842v-.846c0-2.646-1.512-4.23-3.834-4.23-2.502 0-4.194 1.854-4.194 4.752 0 2.808 1.584 4.698 4.446 4.698 1.242 0 2.412-.342 3.204-.864l-.468-1.422c-.9.792-1.854 1.044-2.682 1.044-1.746 0-2.808-1.242-2.88-3.132zm-3.852-3.852c1.458 0 2.34 1.008 2.304 2.682h-4.842c.126-1.674 1.098-2.682 2.538-2.682m11.044 3.762v.954c0 1.224-.882 2.358-2.376 2.358-1.044 0-1.8-.576-1.8-1.728 0-1.584 1.44-1.584 2.052-1.584zm-4.734-2.7c1.044-.81 1.926-1.008 2.7-1.008 2.034 0 2.034 1.386 2.034 2.088v.486h-2.16c-.756 0-3.582 0-3.582 2.772 0 1.836 1.26 2.862 3.096 2.862 1.458 0 2.376-.648 2.682-1.602V296h1.494v-6.012c0-.81 0-3.168-3.42-3.168a7.6 7.6 0 0 0-3.312.756zm9.658-4.572v2.556h-1.62v1.26h1.62v4.608c0 1.332 0 3.222 2.574 3.222.504 0 1.098-.072 1.656-.27l-.18-1.296c-.486.216-.918.306-1.296.306-1.242 0-1.242-.99-1.242-2.106v-4.464h2.556v-1.26H288v-2.556zm10.91 2.52v9h1.548v-9zm-.27-3.24c0 .594.45 1.044 1.044 1.044s1.044-.45 1.044-1.044-.45-1.044-1.044-1.044-1.044.45-1.044 1.044m10.81-.9V287c0 .324 0 .774.054 1.278-.432-.99-1.44-1.494-2.7-1.494-2.466 0-4.014 1.944-4.014 4.77s1.566 4.662 3.906 4.662c1.53 0 2.43-.756 2.808-1.638V296h1.476v-13.14zm.018 7.686v1.62c0 1.278-.756 2.772-2.502 2.772-1.638 0-2.556-1.368-2.556-3.456 0-2.106.918-3.42 2.61-3.42 1.764 0 2.448 1.404 2.448 2.484m11.836 1.296v-.846c0-2.646-1.512-4.23-3.834-4.23-2.502 0-4.194 1.854-4.194 4.752 0 2.808 1.584 4.698 4.446 4.698 1.242 0 2.412-.342 3.204-.864l-.468-1.422c-.9.792-1.854 1.044-2.682 1.044-1.746 0-2.808-1.242-2.88-3.132zm-3.852-3.852c1.458 0 2.34 1.008 2.304 2.682h-4.842c.126-1.674 1.098-2.682 2.538-2.682m11.044 3.762v.954c0 1.224-.882 2.358-2.376 2.358-1.044 0-1.8-.576-1.8-1.728 0-1.584 1.44-1.584 2.052-1.584zm-4.734-2.7c1.044-.81 1.926-1.008 2.7-1.008 2.034 0 2.034 1.386 2.034 2.088v.486h-2.16c-.756 0-3.582 0-3.582 2.772 0 1.836 1.26 2.862 3.096 2.862 1.458 0 2.376-.648 2.682-1.602V296h1.494v-6.012c0-.81 0-3.168-3.42-3.168a7.6 7.6 0 0 0-3.312.756zm8.992 5.832c0 .63.486 1.116 1.116 1.116s1.116-.486 1.116-1.116-.486-1.116-1.116-1.116-1.116.486-1.116 1.116"/></svg>
