<svg xmlns="http://www.w3.org/2000/svg" width="384" height="384" viewBox="0 0 384 384"><path fill="#fff" stroke="#c9c9cd" d="M.5.5h383v383H.5z"/><path fill="#04b" d="M49.168 46.052 55.936 71h-3.803l-5.416-21.623h-.324L40.2 71h-3.835l7.664-24.948zm3.388 15.559-.039 3.44H39.848l.072-3.44zm15.228 5.949q2.16 0 3.504-1.01t1.343-3.063q0-1.875-1.294-2.918t-3.664-1.043H62.92l-.396-1.609h6.194q3.69 0 5.713 1.595 2.021 1.596 2.021 4.5 0 3.463-2.098 5.226T68.72 71h-6.088l.072-3.44zm-4.108-21.508L63.244 71h-3.736l.432-24.948zm5.52 10.944-.034 1.728H62.02l.036-1.728zm-1.556-.91q1.85 0 3.004-.834 1.152-.834 1.156-2.598 0-1.552-1.124-2.375t-3.18-.823h-4.365l-.356-3.404h4.973q3.76 0 5.801 1.598 2.043 1.6 2.043 4.547 0 2.967-2.175 4.25-2.175 1.284-5.347 1.284h-5.186l.036-1.645zM91.328 71.36q-11.476 0-11.476-12.387 0-5.98 2.837-9.63 2.835-3.651 8.64-3.651 2.58 0 4.47.808 1.89.809 2.765 2.317l-2.628 2.673a5.5 5.5 0 0 0-1.981-1.804q-1.19-.637-2.63-.637-2.633 0-4.34 1.35-1.71 1.35-2.476 3.52-.767 2.17-.767 4.766 0 9.318 8.234 9.318 2.62 0 5.04-1.047l.756 3.216a18 18 0 0 1-6.444 1.188m16.492-3.814q4.125 0 5.977-2.4 1.851-2.4 1.851-6.667 0-4.515-1.885-6.76t-5.623-2.245h-2.488l-.36-3.422h2.92q5.631 0 8.427 3.062 2.797 3.06 2.797 9.253 0 6.128-2.816 9.38Q113.803 71 107.78 71h-2.56l.04-3.454zm-1.916-21.494L105.436 71h-3.732l.432-24.948zm22.14 0L127.612 71h-3.736l.432-24.948zm10.98 21.508V71h-14.068l.04-3.44zm-1.516-10.79v3.44h-12.372l.04-3.44zm1.908-10.718v3.404h-14.1l.072-3.404zm10.444 0L149.428 71h-3.768l.464-24.948zm9.4 11.795v3.443h-12.34l.072-3.443zm1.972-11.795v3.404h-14.1l.072-3.404zm13.472 25.308q-5.487 0-8.232-3.096t-2.744-9.288q0-3.819 1.193-6.81t3.72-4.732 6.388-1.742q2.635 0 4.564.83t2.88 2.316l-2.693 2.666a5.9 5.9 0 0 0-2.017-1.816 5.4 5.4 0 0 0-2.594-.643q-3.953 0-5.768 2.755t-1.815 6.917q0 4.625 1.906 6.956 1.906 2.33 5.683 2.33 1.365 0 2.481-.218 1.116-.217 2.27-.577l.29-.072 1.356 3.144q-1.163.396-2.984.738a21 21 0 0 1-3.884.342m7.084-12.895-.216 11.815h-3.601l.216-11.815zm-1.583 0-.072 3.44h-6.113v-3.44zm22.179-12.413L201.948 71h-3.767l.468-24.948zm-12.456 0L189.46 71h-3.732l.432-24.948zm11.624 10.79-.072 3.44h-14.82l.04-3.44zm15.682-10.79L216.798 71h-3.767l.435-24.948zm5.346 21.518V71h-15.252v-3.43zm.392-21.518v3.394H207.72v-3.394zm17.936 0-.04 3.404h-9.643v-3.404zm1.648 15.624q-.072 4.86-2.446 7.272t-7.082 2.412q-2.798 0-6.174-1.279l.77-3.36q1.457.536 2.94.854 1.48.317 2.558.317 2.761 0 4.196-1.518t1.47-4.525l.288-15.797h3.732zm9.404-2.205q3.427 0 5.788-1.874 2.36-1.874 3.539-4.925 1.18-3.052 1.25-6.62h3.743q-.072 4.536-1.875 8.424-1.804 3.888-5.123 6.228t-7.718 2.34zm1.4-13.419L252.926 71h-3.735l.436-24.948zm6.608 11.09L267.036 71h-4.393l-5.992-12.058zm14.667-11.09L274.203 71h-3.735l.432-24.948zm12.42 21.508V71h-15.867l.04-3.44zm12.641-10.77 2.827-10.738h2.495l-.044 4.428h-1.018L301.1 60.954h-2.2l.58-4.164zm-4.667-10.738L294.165 71h-3.605l.864-24.948zm-.648 4.428.101-4.428h2.494l2.432 10.738h.144l.298 4.164h-1.99L295.4 50.48zm13.695-4.428V71h-3.606V46.052zm12.501 11.828q-1.214 0-2.08-.865a2.83 2.83 0 0 1-.865-2.08q0-1.212.864-2.06a2.86 2.86 0 0 1 2.08-.847q1.216 0 2.08.847.863.848.863 2.06 0 1.214-.864 2.079a2.83 2.83 0 0 1-2.078.866m0 13.48q-1.214 0-2.08-.865a2.84 2.84 0 0 1-.865-2.08q0-1.215.865-2.063a2.87 2.87 0 0 1 2.08-.847q1.215 0 2.079.848.863.848.863 2.063t-.864 2.08a2.83 2.83 0 0 1-2.078.864m17.769 3.67q1.152-1.077 1.813-1.928.66-.852.801-1.705.14-.948-.353-1.423t-1.624-.475h-.687v-3.227h1.737q2.566 0 3.688 1.29t.686 3.8q-.288 1.56-1.272 3.203-.985 1.641-2.659 3.207l-1.08 1.012-2.205-2.642zm3.326-17.15a2.83 2.83 0 0 1-2.078-.866 2.84 2.84 0 0 1-.866-2.078q0-1.214.864-2.06a2.86 2.86 0 0 1 2.08-.848q1.215 0 2.063.847.848.848.848 2.06 0 1.214-.848 2.079a2.78 2.78 0 0 1-2.063.866M40.981 95.975l.105-5.923h2.482l6.567 19.025h.896L50.923 115h-1.726L42.63 95.975zm1.368-5.923L41.914 115h-3.718l.436-24.948zm12.22 0L54.132 115h-3.717l.435-24.948zm12.675 25.308q-9.027 0-9.028-12.063 0-5.876 2.079-9.74 2.079-3.865 7.417-3.865 8.996 0 8.996 12.39 0 5.797-2.08 9.538-2.081 3.74-7.384 3.74m.073-3.357q5.534 0 5.534-9.886 0-9.068-5.212-9.068-3.333 0-4.435 3.062-1.101 3.063-1.101 7.114 0 8.778 5.214 8.778m21.419-8.123q2.823 0 4.33-1.442t1.507-4.236q0-2.315-1.435-3.53-1.434-1.215-4.222-1.216h-3.964l.072-3.404h3.964q4.612 0 7.018 2.045t2.406 6q0 4.608-2.534 6.914t-7.214 2.306h-4.036l.072-3.437zm-3.388-13.828L84.916 115H81.18l.432-24.948zm29.732 31.968q-3.858 0-5.753-1.926-1.894-1.926-1.823-5.814l3.61.035q-.037 2.208.964 3.311t3.074 1.102h1.483l.073 3.292zm-5.644-6.66q-9.027 0-9.028-12.063 0-5.876 2.079-9.74 2.079-3.865 7.417-3.865 8.996 0 8.996 12.39 0 5.797-2.08 9.538-2.081 3.74-7.384 3.74m.073-3.357q5.535 0 5.534-9.886 0-9.068-5.212-9.068-3.333 0-4.435 3.062-1.102 3.063-1.102 7.114 0 8.778 5.215 8.778m21.747-9.879q2.049 0 3.223-1.123 1.174-1.124 1.174-3.173 0-2.082-1.109-3.227-1.11-1.145-3.115-1.145h-5.041l-.36-3.404h5.44q3.831 0 5.927 1.91 2.097 1.91 2.097 5.434 0 3.902-2.187 6.019-2.186 2.115-6.089 2.116H126.1l.072-3.407zM127 90.052 126.532 115H122.8l.432-24.948zm7.433 13.212L140.1 115h-4.339l-5.315-11.736zm16.331 12.096q-2.124 0-3.974-.344a16 16 0 0 1-3.434-1.024l.525-3.681q1.977.862 3.68 1.276 1.701.416 3.383.416 2.132 0 3.468-.745 1.335-.746 1.336-2.647 0-2.11-2.21-3.152l-4.214-1.994q-2.559-1.231-3.778-2.844t-1.218-3.916q0-3.467 2.114-5.24 2.115-1.773 5.625-1.773 2.499 0 4.437.743 1.938.744 3.652 2.389l-2.562 2.633q-1.48-1.25-2.908-1.83-1.427-.582-2.839-.582-1.776 0-2.785.86-1.01.858-1.014 2.562-.004 1.132.59 1.87.594.74 1.876 1.349l3.608 1.725q2.851 1.36 4.279 3.003t1.427 3.987q.005 3.777-2.501 5.368-2.505 1.59-6.563 1.591m24.278-25.308L174.61 115h-3.735l.432-24.948zm7.286 0v3.404H163.98v-3.404zm11.42 25.308q-8.06 0-7.88-8.388l.292-16.92h3.768l-.324 16.92q-.069 2.468.993 3.699t3.295 1.231q2.164 0 3.264-1.233t1.169-3.697l.324-16.92h3.735l-.292 16.92q-.072 4.176-2.185 6.282t-6.159 2.106m15.698-25.308 5.365 21.843h.324l6.154-21.843h3.88L217.74 115h-5.612l-6.532-24.948zm20.574 0 1.672 22.009h.341l2.547-15.709h3.584l-1.288 3.623h-.687L234.11 115h-5.522l-2.361-24.948zm5.668 9.923-1.108-3.623h3.584l1.941 15.709h.374l2.424-22.009h3.793L243.471 115h-5.525l-1.541-15.025zm12.399-9.923h4.239l6.326 11.812L266.597 115h-4.238l-6.107-11.164zm14.736 0h4.206l-8.633 13.784L251.861 115h-4.206l8.38-13.136zm9.796 0 5.768 12.371h.32l6.202-12.371h3.875l-8.871 16.717h-3.098l-8.287-16.717zm7.686 12.636L280.09 115h-3.735l.216-12.312zm24.658-11.628 2.67 2.396-13.546 20.356-2.67-2.252zm2.674 20.5V115h-16.22v-3.44zm-.004-21.508v3.404h-15.86v-3.404zm10.435 15.193q0-1.732.732-3.058.732-1.328 2.208-2.256 1.357-.871 2.057-1.892.698-1.022.698-2.184 0-1.304-.866-2.006-.866-.703-2.457-.703-1.48 0-3.029.636a15.2 15.2 0 0 0-3.077 1.733l-1.843-2.86q1.457-1.315 3.572-2.139a12.1 12.1 0 0 1 4.44-.824q3.435 0 5.334 1.548t1.899 4.392q0 1.961-.981 3.58-.981 1.617-2.94 2.885-1.123.706-1.667 1.573a3.5 3.5 0 0 0-.543 1.883v1.07h-3.537zm1.824 10.115a2.56 2.56 0 0 1-1.879-.774q-.774-.774-.773-1.91 0-1.105.773-1.88a2.56 2.56 0 0 1 1.879-.773q1.104 0 1.878.774t.774 1.878q0 1.137-.774 1.911a2.56 2.56 0 0 1-1.878.774m23.701-25.488-.389 16.638h-3.137l-.316-16.638zm-1.921 25.488a2.56 2.56 0 0 1-1.879-.774q-.774-.774-.774-1.91 0-1.105.774-1.88a2.56 2.56 0 0 1 1.879-.773q1.104 0 1.878.774t.774 1.878q0 1.137-.774 1.911a2.56 2.56 0 0 1-1.878.774"/><path fill="#b35" d="M45.824 140.028q4.032 0 5.85 1.836t1.674 5.328l-.252 5.832q-.072 1.584.468 2.322t2.16.738h.648l-.108 3.096h-1.008q-2.7 0-3.888-1.116t-1.188-3.744h-.72l.216-6.912q.072-2.052-.828-3.06t-3.168-1.008q-1.188 0-2.61.288t-2.754.828l-1.008-3.168a14.8 14.8 0 0 1 3.204-.954 18.6 18.6 0 0 1 3.312-.306m2.88 15.516 1.116-.504q-.216 2.052-1.818 3.186t-4.266 1.134q-2.88 0-4.446-1.368t-1.566-3.924q0-2.448 1.548-4.014t4.41-2.124 6.714-.054l.108 2.988q-2.376-.612-4.464-.432t-3.33 1.08-1.242 2.376q0 1.116.738 1.692t2.178.576q2.196 0 3.618-1.242t1.53-3.546l1.692 4.176zm16.56 3.816q-2.844 0-5.508-.36l1.296-3.42q1.044.252 2.286.414a18 18 0 0 0 2.25.162q3.672 0 5.508-2.196t1.836-5.76q0-2.088-.666-3.474t-2.538-1.386q-1.476 0-2.79.954t-2.214 2.952-1.008 4.95l-.288-7.596h1.476l-.684 1.332q.144-1.836.954-3.168a5.4 5.4 0 0 1 2.16-2.034q1.35-.702 3.078-.702 3.312 0 4.752 2.322t1.44 5.85q0 3.384-1.35 5.904t-3.906 3.888-6.084 1.368m-.792-26.712L63.5 159h-3.744l.972-26.352zm26.172 26.712q-4.536 0-6.966-2.304t-2.43-6.84q0-3.096 1.134-5.4t3.24-3.546 4.95-1.242q2.556 0 4.266 1.008a5.58 5.58 0 0 1 2.43 2.844l-2.844 2.16q-.648-1.296-1.638-1.998t-2.322-.702q-2.448 0-3.942 1.782t-1.494 4.806 1.566 4.554 4.554 1.53q2.196 0 4.752-.828l.756 3.276q-2.412.9-6.012.9m27.828-.18q-2.196 0-3.348-.918t-1.44-2.898a9 9 0 0 1-.108-1.44l-.684-3.24.684-18.036h3.744l-.756 20.772q0 .576.036.828.144.936.702 1.386t1.566.45h1.044l-.108 3.096zm-6.264-19.188q1.908 0 4.788.36l-1.296 3.384q-1.224-.432-3.384-.432-2.34 0-4.14 1.044a7.24 7.24 0 0 0-2.79 2.88q-.99 1.836-.99 4.176 0 1.908.648 3.24t2.376 1.332q1.512 0 2.736-.936t1.998-2.916.882-4.968l.828 7.164h-1.476l1.044-.936q-.504 2.844-2.286 4.392t-4.662 1.548q-3.096 0-4.428-2.268t-1.332-5.544q0-3.348 1.422-5.958a10.24 10.24 0 0 1 4.032-4.086q2.61-1.476 6.03-1.476m19.98 16.056q2.808 0 5.76-1.296l.864 3.06a14.2 14.2 0 0 1-3.294 1.152 16.5 16.5 0 0 1-3.582.396q-4.284 0-6.57-2.268t-2.286-6.336q0-3.132 1.17-5.562t3.33-3.798 4.968-1.368q2.88 0 4.626 1.422t1.746 3.978q0 3.06-3.312 4.842t-9.252 1.89l-.648-2.952q4.536-.072 7.02-1.062t2.484-2.79q0-1.008-.738-1.566t-2.034-.558q-1.728 0-3.078.918t-2.106 2.574-.756 3.816q0 2.52 1.44 4.014t4.248 1.494m15.696-11.664q.216-6.264 2.322-9.18t5.67-2.916q2.736 0 4.14 1.674t1.404 4.446q0 4.86-4.878 8.856t-13.518 6.66l-.972-3.168q7.812-2.412 11.79-5.382t3.978-7.002q0-1.332-.45-2.07t-1.674-.738q-1.8 0-2.898 2.034t-1.242 6.498l-.684 21.564H147.2zm12.852 8.604v3.276h-11.448v-3.276zm11.52 12.996q-2.988 0-5.292-1.08t-3.924-3.384l2.988-2.232q.828 1.404 2.538 2.412t3.906 1.008q1.332 0 2.394-.432t1.656-1.116.594-1.476q0-.648-.396-1.026t-1.206-.666-2.826-.864q-4.32-1.224-6.192-3.006t-1.872-4.914q0-2.556 1.062-4.662t2.952-3.312 4.302-1.206q2.124 0 3.798.972t2.61 2.772.936 4.14q0 1.62-.558 3.024t-1.584 2.34a4.75 4.75 0 0 1-2.358 1.188l.756-.648v1.8h-4.68v-1.26a4.68 4.68 0 0 0 2.646-1.206 6.6 6.6 0 0 0 1.71-2.43q.576-1.404.576-2.736 0-1.368-.504-2.43t-1.404-1.656-2.088-.594q-1.332 0-2.34.774t-1.566 2.088-.558 2.934q0 1.332.54 2.178t1.8 1.458 3.564 1.224q2.52.648 3.87 1.296t1.944 1.566.594 2.43q0 1.944-1.062 3.474t-2.97 2.394-4.356.864m10.836-24.912v3.348q-2.772 0-3.78-1.08l.576-.144-1.08 1.296-3.564-3.42zm14.724 6.66q.252-2.052-.162-3.222t-2.106-1.17q-1.44 0-2.664.954t-2.034 2.952-.918 4.95l-.324-7.956h1.512l-.684 1.332q.144-1.8 1.008-3.06a5.3 5.3 0 0 1 2.232-1.872q1.368-.612 2.988-.612 2.808 0 3.996 1.782t.864 4.914l-.576 5.688q-.18 1.872.198 2.646t1.638.774h.756l-.108 3.348h-.756q-3.24 0-4.518-1.548t-.882-5.22zm-7.128-15.084L189.716 159h-3.744l.972-26.352zm29.304 26.712q-2.7 0-4.23-1.17t-1.998-3.114-.144-4.428l1.332-10.296h3.456l-1.044 10.296q-.18 1.98-.036 3.096t.846 1.692 2.178.576q1.044 0 1.836-.252t1.836-.9l1.44 2.844q-1.296.792-2.574 1.224t-2.898.432m-4.212-16.2q-.9 1.404-3.366 3.474t-5.67 3.978l-2.052-2.88q3.528-2.124 6.138-4.068t3.978-3.312h.972zm1.008-6.48a2.5 2.5 0 0 1-1.836-.756 2.5 2.5 0 0 1-.756-1.836 2.5 2.5 0 0 1 .756-1.836 2.5 2.5 0 0 1 1.836-.756 2.5 2.5 0 0 1 1.836.756 2.5 2.5 0 0 1 .756 1.836 2.5 2.5 0 0 1-.756 1.836 2.5 2.5 0 0 1-1.836.756m23.724 20.232q-.18 4.536-2.214 6.786t-6.03 2.25q-2.412 0-4.752-.648l.468-3.204q2.592.504 3.996.504 2.304 0 3.492-1.44t1.296-4.356l.576-16.452h3.744zm-2.196-13.752q-.9 1.404-3.366 3.474t-5.67 3.978l-2.052-2.88q3.528-2.124 6.138-4.068t3.978-3.312h.972zm1.008-6.48a2.5 2.5 0 0 1-1.836-.756 2.5 2.5 0 0 1-.756-1.836 2.5 2.5 0 0 1 .756-1.836 2.5 2.5 0 0 1 1.836-.756 2.5 2.5 0 0 1 1.836.756 2.5 2.5 0 0 1 .756 1.836 2.5 2.5 0 0 1-.756 1.836 2.5 2.5 0 0 1-1.836.756m25.992 22.68q-3.276 0-5.526-2.016t-3.33-5.832q5.256-2.736 5.256-5.94 0-1.044-.558-1.638t-1.602-.594q-1.404 0-2.718 1.008t-2.178 2.898-.936 4.374l-.072-6.3h.684q.252-2.376 1.836-3.834t3.96-1.458q2.52 0 3.942 1.656t1.422 4.14q0 2.34-1.332 4.194t-3.888 3.258l-.54-2.7q.972 2.988 2.232 4.212t3.312 1.224q.54 0 1.404-.072l.792 3.168a9.8 9.8 0 0 1-2.16.252m-10.908-26.712L253.436 159h-3.744l.972-26.352zm33.048 25.92q-2.232.792-4.212.792-4.176 0-6.498-1.836t-3.168-4.86-.846-7.2q0-3.816 1.008-6.804t2.79-4.68 4.086-1.692q2.952 0 4.284 2.124t1.332 5.256q0 5.868-4.338 10.386t-12.402 7.002l-.972-3.168q4.752-1.476 7.884-3.528t4.68-4.788 1.548-6.228q0-1.656-.414-2.718t-1.782-1.062q-1.188 0-2.106 1.296t-1.422 3.492-.504 4.86q0 2.844.504 5.202t2.016 3.978 4.284 1.62a9.3 9.3 0 0 0 3.42-.648zm6.804.432h-3.672l.648-18.648h3.06l.468 4.824zm3.78-14.544q.036-.648-.234-1.044t-.918-.396q-1.08 0-1.656 1.872t-.648 5.364l-.54-7.056h.9q.18-1.656.99-2.412t2.142-.756q1.944 0 2.628 1.422t.612 3.474l-.54 14.076H297.5zm9.684 8.676q-.072 1.476.216 2.088t1.26.612h.756l-.108 3.348h-.756q-1.98 0-3.114-.576t-1.584-1.89-.306-3.582l.468-8.676q.036-.612-.216-1.026t-.864-.414q-1.152 0-1.728 1.854t-.648 5.382l-.684-7.056h1.152q.252-1.692 1.08-2.43t2.268-.738q1.944 0 2.646 1.422t.594 3.474zm19.008 11.196q-3.816 0-6.498-1.89t-4.104-5.508-1.422-8.73q0-5.04 1.422-8.604t4.104-5.418 6.498-1.854h.828v3.168h-.468q-4.14 0-6.426 3.33t-2.286 9.378q0 6.156 2.286 9.558t6.426 3.402h.468v3.168zm8.424-3.168q4.14 0 6.426-3.402t2.286-9.558q0-6.048-2.286-9.378t-6.426-3.33h-.468v-3.168h.828q3.816 0 6.498 1.854t4.104 5.418 1.422 8.604q0 5.112-1.422 8.73t-4.104 5.508-6.498 1.89h-.828v-3.168zM50.108 191.732q.252-2.052-.144-3.222t-2.088-1.17q-1.44 0-2.664.954t-2.034 2.952-.918 4.95l-.324-7.956h1.512l-.684 1.332q.144-1.8 1.008-3.06a5.3 5.3 0 0 1 2.232-1.872q1.368-.612 2.988-.612 2.808 0 4.032 1.8t.9 4.896l-.576 5.688q-.18 1.908.162 2.664t1.602.756h.756l-.108 3.348h-.756q-3.24 0-4.536-1.548t-.9-5.22zm-8.028-7.38.504 4.428-.54 14.22H38.3l.648-18.648zm25.524-.324q2.7 0 4.572 1.17t2.808 3.258.936 4.752q0 2.844-.918 5.13t-2.844 3.654-4.806 1.368q-2.7 0-4.608-1.17t-2.862-3.24-.954-4.77q0-2.844.954-5.13t2.898-3.654 4.824-1.368m.036 3.312q-1.728 0-2.862.954t-1.674 2.484a9.7 9.7 0 0 0-.54 3.258q0 2.412 1.17 4.194t3.474 1.782q1.728 0 2.88-.936t1.674-2.448.522-3.276q0-2.448-1.152-4.23t-3.492-1.782m13.896-2.988h3.132l.504 4.428-.756 20.88h-3.744zm4.86 19.008q-2.88 0-5.436-.36l1.224-3.42q1.044.252 2.286.414a18 18 0 0 0 2.25.162q3.672 0 5.508-2.196t1.836-5.76q0-2.088-.666-3.474t-2.538-1.386q-1.476 0-2.79.954t-2.214 2.952-1.008 4.95l-.288-7.596h1.476l-.756 1.332q.144-1.836.972-3.168a5.54 5.54 0 0 1 2.178-2.034q1.35-.702 3.114-.702 3.312 0 4.752 2.322t1.44 5.85q0 3.384-1.35 5.904t-3.906 3.888-6.084 1.368m25.992-19.368q2.268 0 5.148.36l-1.296 3.384q-1.224-.432-3.744-.432-2.376 0-4.212 1.044a7.35 7.35 0 0 0-2.862 2.916q-1.026 1.872-1.026 4.212 0 1.872.666 3.186t2.358 1.314q1.548 0 2.898-.954t2.25-2.934 1.008-4.932l.324 7.56h-1.512l.72-1.332q-.216 2.808-1.962 4.374t-4.662 1.566q-3.06 0-4.41-2.268t-1.35-5.508q0-3.348 1.476-5.976a10.5 10.5 0 0 1 4.122-4.104q2.646-1.476 6.066-1.476m1.404.36h3.744l-.9 25.308h-3.744zm24.084 18.972q-3.06 0-4.518-1.8t-1.458-4.896q0-.72.072-1.584t.216-1.728l1.188-7.02 2.628 1.692q-7.308 1.548-8.856-4.5h1.908q1.836 2.52 8.28 1.224l-1.332 8.604q-.144.972-.216 1.836t-.072 1.512q0 1.62.558 2.466t1.962.846a6 6 0 0 0 1.656-.252l.756 3.06q-1.08.54-2.772.54m-17.64-7.812q3.096-1.62 4.176-4.284t.792-6.48l-.108-1.26h3.024q1.008 4.968-.306 8.856t-5.526 6.12zm32.904-7.992q-1.152 1.332-4.176 3.78t-4.536 3.348l-2.052-2.916q2.124-1.368 5.076-3.6t4.392-3.78h1.368zm1.296-3.168q.828 1.8 2.34 4.464l.684 1.188q1.116 2.016 1.656 3.492t.54 3.168q0 3.24-2.07 4.968t-5.922 1.728q-1.98 0-3.492-.324a12 12 0 0 1-3.024-1.116l.648-3.168q1.44.684 2.7.972t2.7.288q2.232 0 3.456-.936t1.224-2.664q0-1.404-.594-2.754t-1.782-3.474a99 99 0 0 1-1.35-2.484 12.5 12.5 0 0 1-.81-1.944l.54-1.404zm21.384 19.008q-3.204 0-4.932-1.386t-2.124-4.302a21 21 0 0 1-.126-2.052 39 39 0 0 1 .054-2.556l.54-14.328h3.744l-.504 13.932a69 69 0 0 0-.09 2.718q-.018 1.35.054 1.926.18 1.368 1.062 2.034t2.538.666q1.26 0 2.214-.216t2.214-.756l1.08 3.024a16.7 16.7 0 0 1-2.718.954q-1.35.342-3.006.342m4.824-18.288v3.348h-16.272v-3.348zm11.268 18.288q-3.096 0-4.626-1.98t-1.53-6.012q0-2.268.414-5.04t1.314-6.3l3.78.648q-.936 3.78-1.35 6.3t-.414 4.428q0 2.304.756 3.456t2.232 1.152q2.268 0 3.474-2.214t1.422-6.534l.648 7.308h-1.116l.828-.792q-.396 1.908-1.026 3.096a4.45 4.45 0 0 1-1.782 1.836q-1.152.648-3.024.648m11.448-.18q-2.736 0-4.068-1.134t-1.332-3.726l-.72-3.78.396-10.188h3.78l-.504 12.672q-.072 1.584.468 2.322t2.16.738h.756l-.108 3.096zm7.128-19.152 3.996 15.696h.324q3.096-2.88 4.374-6.714t.774-8.658h3.528q.612 6.048-1.242 10.692T216.068 203h-4.356l-5.04-18.648zm25.416 10.764-1.368-10.44 3.132-.144 2.124 15.516h.36q2.628-6.408 1.836-15.372h3.708q.504 5.904-.576 10.584T241.556 203h-3.384l-1.152-8.892zm.324.612.72-.396L233.24 203h-3.564l-2.592-18.648 3.672-.144 1.692 15.516h.324l4.068-9.072.684 4.752zM257 192.092l6.732-8.424 2.7 2.628-8.424 8.64-7.308 8.784-2.52-2.628zm5.112 11.268q-2.088 0-3.384-1.296t-2.052-4.14l-2.052-7.776q-.396-1.44-.972-2.124t-1.44-.684a6 6 0 0 0-2.664.612l-1.08-3.06q2.304-.864 4.032-.864 2.088 0 3.384 1.296t2.052 4.14l2.088 7.776q.396 1.44.954 2.106t1.458.666q1.476 0 2.952-.72l1.152 3.06q-1.152.504-2.196.756a9.5 9.5 0 0 1-2.232.252m6.948 3.924q13.572-5.976 14.292-22.932h3.78q-1.404 19.224-16.38 25.956zm4.752-23.256q3.024 10.08 7.38 16.344l-2.808 2.088q-5.076-7.308-8.46-18.108zm25.596 25.956q-3.6 0-5.724-1.71t-2.484-4.95l3.492-.864q.252 1.332.756 2.25a3.7 3.7 0 0 0 1.404 1.44q.9.522 2.304.522 2.124 0 3.42-1.26t1.296-3.24q0-1.62-.828-2.61t-2.16-1.422-2.916-.432h-.504q-.72 0-1.08.036l4.752-1.908q1.944 0 3.402.864a5.97 5.97 0 0 1 2.268 2.394q.81 1.53.81 3.438 0 2.268-1.098 3.96t-2.97 2.592-4.14.9m2.088-14.832.108 1.008-5.22 1.584-.468-2.7zm-5.58-.108q2.268-.468 3.888-1.332t2.448-1.926.828-2.178q0-1.188-.972-1.71t-2.988-.522q-1.764 0-3.51.432t-3.906 1.476l-1.152-3.06a18.5 18.5 0 0 1 4.482-1.674 20.4 20.4 0 0 1 4.554-.522q3.456 0 5.292 1.242t1.836 3.654q0 1.404-.63 2.682t-1.89 2.286-3.132 1.656zm24.3-18.972v32.472h-3.636v-32.472zm7.344 29.16v3.312h-7.704v-3.312zm0-29.16v3.348h-7.704v-3.348zm18.108 0v32.472h-3.636v-32.472zm-3.276 29.16v3.312h-7.704v-3.312zm0-29.16v3.348h-7.704v-3.348z"/><path fill="#c70" d="M48.668 222.052V247h-3.636v-24.948zm-3.276 21.6V247h-6.624v-3.348zm8.892 0V247h-5.94v-3.348zm-9.252-21.6v3.6l-5.904 2.052v-3.564zm14.508 20.952q4.104-3.204 6.57-5.562t3.708-4.446 1.242-4.14q0-1.908-1.08-2.916t-3.204-1.008q-1.404 0-2.952.828a8.7 8.7 0 0 0-2.664 2.196l-2.412-2.412q1.224-1.764 3.438-2.808a10.8 10.8 0 0 1 4.662-1.044q3.924 0 5.904 1.8t1.98 5.22q0 2.232-1.134 4.536t-3.51 4.77-6.12 5.238V247H59.54zm16.236.648V247H60.62v-3.348zm11.232 3.708q-3.564 0-6.408-.864l.432-3.348.504.144q1.404.396 2.574.612t2.754.216q2.736 0 4.248-1.08t1.512-3.06q0-1.404-.864-2.394t-2.52-1.494-4.032-.504h-.54l-.432-2.304 5.364.432q3.06.252 4.896 1.98t1.836 4.608q0 3.348-2.43 5.202t-6.894 1.854m-2.772-14.076q4.032-.54 5.958-1.854t1.926-3.258q0-1.548-1.008-2.394t-2.844-.846q-1.368 0-2.862.684t-2.826 1.98l-2.412-2.412q1.584-1.8 3.708-2.646t4.788-.846q3.42 0 5.274 1.458t1.854 4.122q0 2.232-1.422 3.906t-3.762 2.286v2.124h-5.94zm25.236-9.828-5.328 17.532h-3.78l5.328-17.532zm3.276 14.292v3.24h-12.384l2.448-3.24zm6.372 0v3.24h-3.42v-3.24zm-3.06-15.696V247h-3.672v-24.948zm23.328 16.884q0 3.996-2.484 6.21t-7.02 2.214q-3.708 0-6.552-.864l.468-3.348.396.108q1.404.396 2.628.63t2.952.234q2.808 0 4.374-1.314t1.566-3.69q0-2.16-1.332-3.33t-3.816-1.17a9.8 9.8 0 0 0-4.608 1.152l.324-2.988q1.296-.72 2.61-1.026t2.682-.306q3.78 0 5.796 1.944t2.016 5.544m-11.34-16.884-.18 11.52-1.908 2.196h-1.62v-13.716zm10.476 0v3.24h-12.492l-.324-3.24zm13.428 25.308q-4.356 0-6.39-2.16t-2.034-6.732l2.916-3.204h1.296q.504-1.944 2.088-3.006t3.852-1.062q3.276 0 5.04 2.016t1.764 5.688q0 3.996-2.25 6.228t-6.282 2.232m.108-3.24q2.232 0 3.492-1.386t1.26-3.834q0-2.16-1.152-3.33t-3.312-1.17q-2.412 0-3.744 1.26t-1.332 3.6q0 2.304 1.26 3.582t3.528 1.278m-8.532-7.2q0-7.164 3.636-10.89t11.052-4.086l.324 3.312q-5.616.252-8.37 2.736t-2.754 7.308v1.98l-3.888 1.188zm39.456-14.868L172.472 247h-4.104l10.944-24.948zm-13.86.504v7.524h-3.744v-7.524zm13.86-.504-2.484 3.312h-15.12v-3.312zM194 247.36q-4.032 0-6.264-1.89t-2.232-5.31q0-3.168 2.214-4.878t6.282-1.71 6.282 1.71 2.214 4.878q0 3.42-2.232 5.31T194 247.36m0-3.24q2.304 0 3.564-1.08t1.26-3.06q0-2.124-1.26-3.294t-3.564-1.17-3.564 1.17-1.26 3.294q0 1.98 1.26 3.06t3.564 1.08m2.952-11.34v1.8h-5.868v-1.8zm-2.952-.648q1.98 0 3.042-.9t1.062-2.52q0-1.8-1.062-2.79t-3.042-.99-3.042.99-1.062 2.79q0 1.62 1.062 2.52t3.042.9m0 1.764q-3.708 0-5.76-1.548t-2.052-4.32q0-3.024 2.034-4.68t5.778-1.656 5.778 1.656 2.034 4.68q0 2.772-2.052 4.32t-5.76 1.548m19.404 4.212q-3.276 0-5.04-2.016t-1.764-5.724q0-3.96 2.25-6.192t6.282-2.232q4.356 0 6.39 2.16t2.034 6.732l-2.916 3.204h-1.296q-.504 1.944-2.088 3.006t-3.852 1.062m-4.896 5.904q5.616-.252 8.388-2.736t2.772-7.272v-2.016l3.888-1.152v1.548q0 7.164-3.636 10.89t-11.052 4.086zm6.228-9.144q2.412 0 3.744-1.26t1.332-3.6q0-2.268-1.26-3.546t-3.528-1.278q-2.232 0-3.492 1.368t-1.26 3.816q0 2.16 1.152 3.33t3.312 1.17m21.276 12.492q-4.212 0-6.264-3.132t-2.052-9.54q0-6.48 2.214-9.738t6.462-3.258q4.212 0 6.264 3.222t2.052 9.774q0 6.336-2.196 9.504t-6.48 3.168m0-3.24q2.412 0 3.672-2.376t1.26-7.056q0-4.932-1.116-7.344t-3.456-2.412q-2.412 0-3.672 2.466t-1.26 7.29q0 4.788 1.116 7.11t3.456 2.322m4.968-16.812 1.728 1.404-11.592 14.22-1.44-1.872zm22.752-5.256L261.608 247h-3.096l2.124-24.948zm2.34 15.624v2.988h-17.568v-2.988zm-10.008-15.624L253.94 247h-3.096l2.124-24.948zm10.008 6.3v2.988h-17.568v-2.988zm13.752-9.756v31.86h-2.412v-31.86zm-8.028 22.068q1.8 1.332 3.222 2.016t2.898.684q2.088 0 3.402-.828t1.314-2.34q0-1.044-.846-1.944t-2.178-1.476l-3.456-1.44q-2.664-1.116-4.014-2.628t-1.35-3.672q0-2.988 2.106-4.662t5.706-1.674q2.52 0 4.392.684t3.6 2.232l-2.088 2.628q-1.656-1.296-2.97-1.926a6.2 6.2 0 0 0-2.718-.63q-1.944 0-3.114.828t-1.17 2.34q0 1.044.666 1.764t1.998 1.296l3.456 1.476q2.7 1.152 4.23 2.808t1.53 3.816q0 2.952-2.25 4.626t-5.994 1.674q-2.628 0-4.59-.684t-3.726-2.196zm35.136-13.104 1.62 2.268-16.344 11.808-1.62-2.412zm-2.988 19.8q-2.52 0-4.014-1.548t-1.494-4.104q0-2.592 1.494-4.158t4.014-1.566q2.484 0 3.978 1.566t1.494 4.158q0 2.556-1.494 4.104t-3.978 1.548m0-2.88q1.044 0 1.674-.756t.63-2.016q0-1.296-.63-2.07t-1.674-.774q-1.08 0-1.71.774t-.63 2.07q0 1.26.63 2.016t1.71.756m-8.532-11.448q-2.52 0-4.032-1.548t-1.512-4.104q0-2.592 1.512-4.14t4.032-1.548q2.484 0 3.978 1.53t1.494 4.158q0 2.556-1.512 4.104t-3.96 1.548m0-2.844q1.008 0 1.656-.774t.648-2.034q0-1.296-.63-2.088t-1.674-.792q-1.08 0-1.71.792t-.63 2.088q0 1.26.63 2.034t1.71.774m28.944 22.356q-1.944 0-3.438-.792t-2.214-2.25-.36-3.438q.144-.828.684-2.376.36-1.152.558-1.926t.198-1.602q0-1.224-1.764-1.8a11.8 11.8 0 0 0-3.672-.576v-2.772q1.008 0 2.304-.342t2.214-.954.918-1.404q0-.864-.198-1.656a21 21 0 0 0-.594-1.908q-.504-1.548-.648-2.34-.36-1.872.36-3.276t2.214-2.16 3.438-.756q1.728 0 2.988.36l-.396 3.06q-1.368-.18-2.268-.18-1.296 0-2.052.792t-.504 2.16q.144.864.72 2.484.396 1.08.594 1.818t.198 1.53q0 1.8-1.404 2.808t-3.924 1.044v.612q2.52.036 3.924.972t1.404 2.556q0 .828-.198 1.602a17 17 0 0 1-.63 1.89q-.54 1.548-.684 2.34-.18 1.008.126 1.746t.954 1.134 1.476.396q.9 0 2.268-.18l.396 3.06q-1.116.324-2.988.324m13.536 0q-1.872 0-3.024-.324l.432-3.06q1.368.18 2.268.18 1.296 0 2.052-.882t.504-2.394q-.144-.792-.684-2.34a17 17 0 0 1-.63-1.89 6.4 6.4 0 0 1-.198-1.602q0-1.62 1.404-2.556t3.888-.972v-.612q-2.52-.036-3.906-1.044t-1.386-2.808q0-.792.198-1.53t.594-1.818q.576-1.62.72-2.484.252-1.368-.504-2.16t-2.052-.792q-.9 0-2.268.18l-.432-3.06q1.26-.36 3.024-.36 1.944 0 3.42.756t2.196 2.16.36 3.276q-.144.792-.648 2.34-.396 1.116-.594 1.908a6.8 6.8 0 0 0-.198 1.656q0 .792.936 1.404t2.232.954 2.304.342v2.772q-1.908 0-3.69.576t-1.782 1.8q0 .828.198 1.602t.558 1.926q.54 1.548.684 2.376.36 1.98-.36 3.438t-2.196 2.25-3.42.792M47.984 271.2v18.252h-3.312V271.2zm7.128 7.488v3.276H37.544v-3.276zm21.096 0v3.276H58.64v-3.276zm13.104-1.296 6.084 5.904-2.916 2.448-4.752-7.02zm-1.584 0 1.584 1.332-4.752 7.02-2.916-2.448zm-6.48-4.032 7.632 3.708-.72 1.944-8.208-2.052zm9.18-3.744-.864 8.424h-2.088l-.864-8.424zm5.364 3.744 1.296 3.6-8.208 2.052-.72-1.944zm22.68-8.496-14.148 31.644h-3.564l14.112-31.644zm3.456 17.64q0-3.06 1.134-4.446t3.618-1.386q1.332 0 2.61.702t2.934 1.998q1.044.756 1.602 1.116t.99.36q.792 0 1.134-.54t.342-1.908v-1.908h3.204v1.728q0 3.06-.99 4.428t-3.222 1.368q-1.26 0-2.394-.63t-2.646-1.782q-1.188-.9-1.89-1.314t-1.35-.414q-1.008 0-1.458.54t-.45 1.908v1.908h-3.168zm36.504.072a7.3 7.3 0 0 1 .468 2.556q0 1.944-1.062 3.348t-2.898 2.142-4.14.738q-3.96 0-6.21-2.07t-2.25-5.526q0-3.528 2.466-5.58t7.182-2.664l2.196-.504.396 2.448q-4.104.54-6.336 2.232t-2.232 4.284q0 2.052 1.386 3.096t3.654 1.044q2.124 0 3.276-.882t1.152-2.538q0-.396-.072-.756a2.4 2.4 0 0 0-.252-.684zm3.42-.468q-1.8.828-4.5 1.404t-5.688.72l-.54-3.168q2.808-.18 5.4-.72t4.428-1.26zm-4.968-11.124q-1.08-1.044-2.286-1.548a6.5 6.5 0 0 0-2.538-.504q-1.656 0-2.754.738t-1.098 2.106q0 1.764 1.872 2.502t4.104.738l-4.572 1.908-.216-1.188q-2.196-.072-3.582-1.368t-1.386-3.42q0-2.556 1.998-3.906t5.238-1.35q2.412 0 4.158.684t3.186 2.088zm17.64-8.244v35.856h-3.24V262.74zm28.26 11.916v3.276h-17.568v-3.276zm0 8.064v3.276h-17.568v-3.276zm12.024-18.54 4.32 9.108h-3.744l-5.004-9.108zm23.436 1.872-.36 11.232H234.5l-.36-11.232zm21.42 0 4.932 14.148h-3.888l-3.276-11.34h-.288l-3.276 11.34h-3.888l4.932-14.148zm29.412 26.424v3.276h-21.384v-3.276zM302 295.284q-6.408 0-8.856-4.302t-2.448-11.178q0-4.176 1.17-7.362t3.33-4.968 5.076-1.782q3.024 0 4.878 1.674t2.43 4.878q.144.828.18 2.808t.036 4.86v1.872h-2.952q0-3.924-.036-5.976t-.144-2.736q-.432-2.376-1.458-3.294t-2.898-.918q-1.944 0-3.456 1.494t-2.322 4.122-.81 5.94q0 5.148 1.566 8.424t6.174 3.276q2.268 0 3.456-.432v3.168q-1.152.432-2.916.432m-.972-6.912q-1.692 0-2.736-1.134t-1.494-2.808-.45-3.366q0-3.852 2.34-6.3t6.264-2.916l.072 3.276q-2.484.144-4.05 1.818t-1.566 4.194q0 1.512.594 2.79t1.89 1.278q.9 0 1.53-.774t.99-2.268.432-3.654h2.952v9.54h-2.556l-.396-5.184 1.224 1.44h-2.016l.72-1.188q-.144 2.484-1.134 3.87t-2.61 1.386m10.692-9.828 16.848-6.912v3.888l-13.032 4.644v.324l13.032 4.68v3.888l-16.848-6.948zm34.272 1.944v-.324l-12.312-4.644v-3.888l16.848 6.912v3.564l-16.848 6.948v-3.888z"/><path fill="#280" d="M44.06 322.868q-2.736 0-4.176-1.35t-1.44-3.942q0-1.656.774-3.402t2.322-3.402l.972-1.08 2.628 2.304-1.044 1.152q-1.008 1.116-1.53 2.232t-.522 2.196q0 1.008.648 1.53t1.908.522h.792v3.24zm8.82 0q-2.736 0-4.176-1.35t-1.44-3.942q0-1.656.774-3.402t2.322-3.402l.972-1.08 2.628 2.304-1.044 1.152q-1.008 1.116-1.53 2.232t-.522 2.196q0 1.008.648 1.53t1.908.522h.792v3.24zm22.896-12.816L75.344 335h-3.672l.468-24.948zm-12.492 0L62.816 335H59.18l.432-24.948zm11.664 10.836-.072 3.348h-14.76l.036-3.348zm15.048 11.16q2.808 0 5.76-1.296l.864 3.06a14.2 14.2 0 0 1-3.294 1.152 16.5 16.5 0 0 1-3.582.396q-4.284 0-6.57-2.268t-2.286-6.336q0-3.132 1.17-5.562t3.33-3.798 4.968-1.368q2.88 0 4.626 1.422t1.746 3.978q0 3.06-3.312 4.842t-9.252 1.89l-.648-2.952q4.536-.072 7.02-1.062t2.484-2.79q0-1.008-.738-1.566t-2.034-.558q-1.728 0-3.078.918t-2.106 2.574-.756 3.816q0 2.52 1.44 4.014t4.248 1.494m28.692 2.52q-2.232.792-4.212.792-4.176 0-6.498-1.836t-3.168-4.86-.846-7.2q0-3.816 1.008-6.804t2.79-4.68 4.086-1.692q2.952 0 4.284 2.124t1.332 5.256q0 5.868-4.338 10.386t-12.402 7.002l-.972-3.168q4.752-1.476 7.884-3.528t4.68-4.788 1.548-6.228q0-1.656-.414-2.718t-1.782-1.062q-1.188 0-2.106 1.296t-1.422 3.492-.504 4.86q0 2.844.504 5.202t2.016 3.978 4.284 1.62a9.3 9.3 0 0 0 3.42-.648zm21.096 0q-2.232.792-4.212.792-4.176 0-6.498-1.836t-3.168-4.86-.846-7.2q0-3.816 1.008-6.804t2.79-4.68 4.086-1.692q2.952 0 4.284 2.124t1.332 5.256q0 5.868-4.338 10.386t-12.402 7.002l-.972-3.168q4.752-1.476 7.884-3.528t4.68-4.788 1.548-6.228q0-1.656-.414-2.718t-1.782-1.062q-1.188 0-2.106 1.296t-1.422 3.492-.504 4.86q0 2.844.504 5.202t2.016 3.978 4.284 1.62a9.3 9.3 0 0 0 3.42-.648zm12.204-18.54q2.7 0 4.572 1.17t2.808 3.258.936 4.752q0 2.844-.918 5.13t-2.844 3.654-4.806 1.368q-2.7 0-4.608-1.17t-2.862-3.24-.954-4.77q0-2.844.954-5.13t2.898-3.654 4.824-1.368m.036 3.312q-1.728 0-2.862.954t-1.674 2.484a9.7 9.7 0 0 0-.54 3.258q0 2.412 1.17 4.194t3.474 1.782q1.728 0 2.88-.936t1.674-2.448.522-3.276q0-2.448-1.152-4.23t-3.492-1.782m17.388 20.016q1.26-1.152 1.962-2.07t.846-1.818q.18-1.008-.36-1.548t-1.8-.54h-.72v-3.24h1.836q2.736 0 3.924 1.35t.72 3.978q-.324 1.656-1.35 3.366t-2.826 3.33l-1.188 1.08-2.304-2.772zm39.456-29.304 1.728 22.14h.324l2.592-15.84h3.528l-1.26 3.492h-.684L212.972 335h-5.436l-2.376-24.948zm5.724 9.792-1.08-3.492h3.528l1.98 15.84h.36l2.484-22.14h3.708L222.332 335h-5.436l-1.584-15.156zm21.78-3.816q2.7 0 4.572 1.17t2.808 3.258.936 4.752q0 2.844-.918 5.13t-2.844 3.654-4.806 1.368q-2.7 0-4.608-1.17t-2.862-3.24-.954-4.77q0-2.844.954-5.13t2.898-3.654 4.824-1.368m.036 3.312q-1.728 0-2.862.954t-1.674 2.484a9.7 9.7 0 0 0-.54 3.258q0 2.412 1.17 4.194t3.474 1.782q1.728 0 2.88-.936t1.674-2.448.522-3.276q0-2.448-1.152-4.23t-3.492-1.782m28.044 15.984q-3.06 0-4.518-1.8t-1.458-4.896q0-.72.072-1.584t.216-1.728l1.188-7.02 2.628 1.692q-7.308 1.548-8.856-4.5h1.908q1.836 2.52 8.28 1.224l-1.332 8.604q-.144.972-.216 1.836t-.072 1.512q0 1.62.558 2.466t1.962.846a6 6 0 0 0 1.656-.252l.756 3.06q-1.08.54-2.772.54m-17.64-7.812q3.096-1.62 4.176-4.284t.792-6.48l-.108-1.26h3.024q1.008 4.968-.306 8.856t-5.526 6.12zm40.644 7.056q-2.232.792-4.212.792-4.176 0-6.498-1.836t-3.168-4.86-.846-7.2q0-3.816 1.008-6.804t2.79-4.68 4.086-1.692q2.952 0 4.284 2.124t1.332 5.256q0 5.868-4.338 10.386t-12.402 7.002l-.972-3.168q4.752-1.476 7.884-3.528t4.68-4.788 1.548-6.228q0-1.656-.414-2.718t-1.782-1.062q-1.188 0-2.106 1.296t-1.422 3.492-.504 4.86q0 2.844.504 5.202t2.016 3.978 4.284 1.62a9.3 9.3 0 0 0 3.42-.648zm20.88.612q-2.196 0-3.348-.918t-1.44-2.898a9 9 0 0 1-.108-1.44l-.684-3.24.684-18.036h3.744l-.756 20.772q0 .576.036.828.144.936.702 1.386t1.566.45h1.044l-.108 3.096zm-6.264-19.188q1.908 0 4.788.36l-1.296 3.384q-1.224-.432-3.384-.432-2.34 0-4.14 1.044a7.24 7.24 0 0 0-2.79 2.88q-.99 1.836-.99 4.176 0 1.908.648 3.24t2.376 1.332q1.512 0 2.736-.936t1.998-2.916.882-4.968l.828 7.164h-1.476l1.044-.936q-.504 2.844-2.286 4.392t-4.662 1.548q-3.096 0-4.428-2.268t-1.332-5.544q0-3.348 1.422-5.958a10.24 10.24 0 0 1 4.032-4.086q2.61-1.476 6.03-1.476m20.34-6.12-.36 16.776h-3.024l-.288-16.776zm-1.836 25.488a2.5 2.5 0 0 1-1.836-.756q-.756-.756-.756-1.872a2.5 2.5 0 0 1 .756-1.836 2.5 2.5 0 0 1 1.836-.756 2.5 2.5 0 0 1 1.836.756 2.5 2.5 0 0 1 .756 1.836q0 1.116-.756 1.872a2.5 2.5 0 0 1-1.836.756m23.328-15.588q1.008-1.116 1.53-2.232t.522-2.196q0-1.008-.648-1.53t-1.908-.522h-.792v-3.24h1.332q2.772 0 4.194 1.332t1.422 3.96q0 1.656-.774 3.402t-2.322 3.402l-.972 1.08-2.628-2.34zm-8.82 0q1.008-1.116 1.53-2.232t.522-2.196q0-1.008-.648-1.53t-1.908-.522h-.792v-3.24h1.332q2.772 0 4.194 1.332t1.422 3.96q0 1.656-.774 3.402t-2.322 3.402l-.972 1.08-2.628-2.34z"/></svg>
