<svg xmlns="http://www.w3.org/2000/svg" width="384" height="384" viewBox="0 0 384 384"><path fill="#fff" stroke="#c9c9cd" d="M.5.5h383v383H.5z"/><g fill="#446"><path d="M43 172v8h-8v-8zm64 0v8h-8v-8zm-24-8h8v8h-8zm0 0h-8v-8h8zm-16-8v8h-8v8h-8v-8h8v-8zm32-40v8H75v16h32v8H35v-8h32v-16H43v-8z"/><path d="M51 172v8h-8v-8zm48 0v8h-8v-8zm-24-24v8h-8v-8z" opacity=".67"/><path d="M91 164h8v8h-8Zm-56-48h8v8h-8Zm64 0h8v8h-8Zm-56 48h8v8h-8Zm16-16h8v8h-8Zm16 0h8v8h-8Z" opacity=".33"/><path d="M155 108v8h32v8h-32v8h-8v8h-8v8h8v8h8v-8h8v-8h8v-8h8.8v8H171v8h-8v8h-8v8.8h-8V156h-8v-8h-8v-8h8v-8h8v-8h-32v-8h32v-8zm-40 64h32v8h-32Zm64-8h8v16h-8Z"/><path d="M147 164v8h15.998l.002 8h-16v-8h-8v-8zm32-8v16h-16v-8h8v-8zm-48-16v8h-8v-8z" opacity=".67"/><path d="M163 164v8h8v8h-8v-8h-8v-8zm-24 0v8h-8v-8zm48-8v8h-8v-8zm-48-8v8h-8v-8zm23.998-8 .002 8h-8v-8zm8.002-8v8h-8v-8z" opacity=".33"/><path d="M219 108v24h8v-16h8v16h8v-24h8v48h8v8h8v8h-8v8h-24v-8h-8v-8h-8v-8h-8v-16h-16v-8h16v-24zm24 32h-8v32h24v-8h-8v-8h-8zm24-16v32h-8v-32zm-40 16h-8v16h8zm-24 24v8h-8v-8z"/><path d="M267 172v8h-8v-8zm-56-8v8h-8v-8zm8-8v8h-8v-8zm40-32v8h-8v-8z" opacity=".67"/><path d="M235 172v8h-8v-8zm-24-8h8v8h-8zm0 0h-8v-8h8zm56-8v8h-8v-8zm-8-24v8h-8v-8z" opacity=".33"/><path d="M291 172v8h-16v-8zm56 0v8h-16v-8zm-48-64v8h24v-8h8v8h8v8h-8v8h16v8h-8v24h-8v8h-40v-8h-8v-24h-8v-8h16v-8h-8v-8h8v-8zm32 48h-16v8h16zm-24 0h-16v8h16zm24-16h-16v8h16zm-24 0h-16v8h16zm16-16h-24v8h24z"/><path d="M339 164v8h-8v-8zm-48 0v8h-8v-8z" opacity=".67"/><path d="M299 172v8h-8v-8zm32 0v8h-8v-8zm-48-56v8h-8v-8zm64 0v8h-8v-8z" opacity=".33"/><path d="M99 228v8H75v8h32v8H75v16h-8v8h-8v-8h8v-16H35v-8h32v-8H43v-8zm-24-24v8h24v8H43v-8h24v-8z"/><path d="M67 268h8v8h-8z" opacity=".33"/><path d="M59 268v8h-8v-8zm-16-56v16h-8v-16zm64 0v16h-8v-16z" opacity=".67"/><path d="M155 204v8h24v8h-24v8h24v48h-56v-48h24v-8h-24v-8h24v-8zm16 32h-16v32h16zm-24 0h-16v32h16z"/><path d="M147 244v8h-16v-8zm24 0v8h-16v-8zm-48-32v16h-8v-16zm64 0v16h-8v-16z" opacity=".67"/><path d="M147 252v8h-16v-8zm24 0v8h-16v-8z" opacity=".33"/><path d="M211 244v32h-8v-24h-8v-8zm32 8v8h8v-8h8v8h-8v8h-8v8h-8v-8h8v-8h-8v-8zm24 16v8h-8v-8zm-40-16v16h-8v-16zm16-16v8h-24v-8zm16-24h8v24h-8zm0 0h-8v-8h8zm-56 16h8v8h-8zm0 0h-8v-8h8zm32-24h8v16h8v8h-32v-24h8v16h8zm-24 0v8h-8v-8z"/><path d="M219 268v8h-8v-8zm48-8v8h-8v-8zm-8-16v-8h8v8zm-16 0v8h-8v-8zm8 0h-8v-8h8zm8 0v8h-8v-8zm-32 0v8h-8v-8zm-16-8v8h-8v-8zm48-24v8h-8v-8zm-48 0v8h-8v-8z" opacity=".67"/><path d="M251 268v8h-8v-8zm8-8v8h-8v-8zm-24 8v8h-8v-8zm-16-8v8h-8v-8zm48-16v8h-8v-8zm-16 0v8h-8v-8zm-48-8v8h-8v-8zm48-24v8h8v8h-8v-8h-8v-8zm-48 0v8h-8v-8z" opacity=".33"/><path d="M339 268v-16h8v16zm-16 0h-8v-32h-8v16h-8v-16h-24v-8h32v-24h8v24h32v8h-24zm16 0v8h-16v-8zm-56 0v8h-8v-8zm8-64v8h-8v-8zm48 0v8h-8v-8z"/><path d="M347 268v8h-8v-8zm-48-16v16h-16v-8h8v-8zm0-40v16h-8v-16zm32 8v8h-8v-8zm0 0v-8h8v8z" opacity=".67"/><path d="M291 268v8h-8v-8zm32 0v8h-8v-8zm-16-16v8h-8v-8zm-16-40v8h-8v-8zm40 0v8h-8v-8zM188.287 108.927h-1.307v.823H186V108h5.88v1.75h-.98v-.823h-1.307v5.137h.98V115h-3.266v-.936h.98zm8.272 5.487-2.066-5.364V115h-1.633v-.936h.76v-5.137h-.76V108h2.56l1.554 4.153 1.607-4.153H201v.927h-.768v5.137H201V115h-1.96l-.026-5.76-1.952 5.174z" opacity=".33"/></g></svg>
