<svg xmlns="http://www.w3.org/2000/svg" width="384" height="384" viewBox="0 0 384 384"><path fill="#5856d6" d="M0 0h384v384H0z"/><path fill="#fff" d="M37.915 218.5V264H43.7v-20.995h21.84V264h5.785v-45.5H65.54v19.565H43.7V218.5zm63.18 30.16v3.445c0 4.42-3.185 8.515-8.58 8.515-3.77 0-6.5-2.08-6.5-6.24 0-5.72 5.2-5.72 7.41-5.72zM84 238.91c3.77-2.925 6.955-3.64 9.75-3.64 7.345 0 7.345 5.005 7.345 7.54v1.755h-7.8c-2.73 0-12.935 0-12.935 10.01 0 6.63 4.55 10.335 11.18 10.335 5.265 0 8.58-2.34 9.685-5.785V264h5.395v-21.71c0-2.925 0-11.44-12.35-11.44-3.77 0-7.995.78-11.96 2.73zm32.76-7.41V264h5.525v-18.785c0-5.005 2.47-9.945 7.735-9.945 6.37 0 6.37 6.955 6.37 9.88V264h5.525v-19.5c0-4.68 1.885-9.23 7.15-9.23 6.37 0 6.37 6.565 6.37 10.14V264h5.525v-18.85c0-4.615 0-14.495-10.53-14.495-5.2 0-8.19 2.405-9.945 5.46-1.3-2.99-3.9-5.46-9.035-5.46-6.24 0-8.45 3.835-9.36 6.11V231.5zm54.275-14.95V264h5.33v-5.005c1.3 3.575 5.135 5.785 10.075 5.785 8.775 0 14.17-7.085 14.17-17.355 0-10.14-5.395-16.705-13.91-16.705-5.005 0-8.84 2.21-10.335 6.24.195-2.015.195-4.095.195-5.46v-14.95zm5.46 28.73c0-4.68 2.665-9.945 9.1-9.945 6.11 0 9.165 4.875 9.165 12.415 0 7.605-3.12 12.415-9.36 12.415-6.5 0-8.905-5.395-8.905-9.295zm58.63 18.72v-32.5H229.6v18.46c0 4.875-2.6 10.205-8.84 10.205-7.15 0-7.15-7.02-7.15-10.335V231.5h-5.525v18.525c0 5.07 0 14.82 11.375 14.82 7.15 0 9.36-3.9 10.335-6.11V264zm28.47-32.565a18 18 0 0 0-3.9-.455c-6.11 0-8.255 3.9-8.71 6.5v-5.98h-5.33V264h5.525v-18.655c0-4.355 2.08-9.425 7.67-9.425 1.105 0 2.405.195 3.965.975zm26.65.065v4.355c-1.43-3.315-5.07-5.135-9.685-5.135-8.84 0-14.43 6.955-14.43 17.03 0 10.14 5.59 16.705 14.04 16.705 5.07 0 8.32-2.275 10.01-5.655l-.065 2.21c-.065 4.94-.065 13.13-10.465 13.13-3.38 0-7.02-.845-10.79-3.575l-1.235 5.655c3.965 1.885 8.71 2.47 12.155 2.47 15.795 0 15.795-11.895 15.795-17.355V231.5zm-18.265 15.99c0-7.475 3.315-12.22 9.36-12.22 6.37 0 8.775 5.07 8.775 9.555v4.485c0 5.2-2.73 10.53-8.97 10.53-5.915 0-9.165-4.875-9.165-12.35m60.125 1.495v-3.055c0-9.555-5.46-15.275-13.845-15.275-9.035 0-15.145 6.695-15.145 17.16 0 10.14 5.72 16.965 16.055 16.965 4.485 0 8.71-1.235 11.57-3.12l-1.69-5.135c-3.25 2.86-6.695 3.77-9.685 3.77-6.305 0-10.14-4.485-10.4-11.31zm-13.91-13.91c5.265 0 8.45 3.64 8.32 9.685H309.03c.455-6.045 3.965-9.685 9.165-9.685m17.875 8.84v4.81h18.59v-4.81zm-280.345 48.09c-2.015-.585-4.095-.78-5.72-.78-10.595 0-10.595 8.255-10.595 11.7v3.705h-5.85v4.55h5.85V339h5.525v-27.82H54.1v-4.55h-9.165v-3.705c0-3.185 0-7.215 5.135-7.215.91 0 2.86.13 4.81 1.365zm16.77 13.715c-9.295 0-15.535 6.695-15.535 17.095 0 10.335 6.175 16.965 15.47 16.965 9.23 0 15.405-6.695 15.405-17.095s-6.175-16.965-15.34-16.965m0 4.615c6.11 0 9.49 4.68 9.49 12.415 0 7.8-3.445 12.415-9.555 12.415s-9.62-4.745-9.62-12.415c0-7.8 3.575-12.415 9.685-12.415m23.27-3.835V339h5.525v-18.72c0-5.005 2.795-9.945 8.905-9.945 7.215 0 7.215 6.825 7.215 9.88V339h5.525v-19.045c0-4.225 0-14.3-11.31-14.3-7.02 0-9.49 3.9-10.53 6.175v-5.33zm56.81 1.04a23 23 0 0 0-9.035-1.885c-7.085 0-11.96 3.38-11.96 9.685 0 11.505 16.445 7.15 16.445 15.015 0 3.25-2.795 4.875-6.37 4.875-3.315 0-6.565-1.365-9.1-3.51l-1.82 5.46c3.25 1.69 6.76 2.6 10.595 2.6 7.085 0 12.09-3.12 12.09-9.945 0-12.35-16.51-7.28-16.51-14.885 0-2.925 2.47-4.875 6.24-4.875 2.795 0 5.525 1.04 7.475 2.535zm8.905-1.04V339h5.59v-32.5zm-.975-11.7c0 2.145 1.625 3.77 3.77 3.77s3.77-1.625 3.77-3.77-1.625-3.77-3.77-3.77-3.77 1.625-3.77 3.77m18.98 2.6v9.23h-5.85v4.55h5.85v16.64c0 4.81 0 11.635 9.295 11.635 1.82 0 3.965-.26 5.98-.975l-.65-4.68c-1.755.78-3.315 1.105-4.68 1.105-4.485 0-4.485-3.575-4.485-7.605v-16.12h9.23v-4.55h-9.23v-9.23zm19.175 55.965c1.3.26 2.275.325 3.055.325 8.19 0 11.05-7.475 12.415-11.31l13-35.88h-5.85l-8.905 27.82-9.035-27.82h-6.24l12.61 33.8c-1.235 3.25-3.315 8.71-8.06 8.71-.52 0-1.365-.065-2.535-.455zm61.49-50.31c0-7.085-5.85-10.465-12.09-10.465-6.5 0-12.155 3.575-12.155 10.4 0 4.225 2.21 6.89 5.72 10.075-5.46 2.015-10.855 5.525-10.855 13.39 0 8.84 6.89 13.325 14.82 13.325 6.045 0 10.92-2.6 14.56-6.695 2.145 3.185 4.29 6.89 6.435 11.245l5.59-2.08c-3.055-5.525-5.98-10.01-8.775-13.715 2.34-4.03 3.9-8.775 4.745-13.65l-5.135-.78c-.65 4.16-1.69 7.605-2.86 10.335a88 88 0 0 0-9.815-9.88c5.005-2.015 9.815-5.005 9.815-11.505m-2.73 26.13c-3.575 4.745-7.93 6.045-11.505 6.045-5.85 0-9.295-3.705-9.295-8.97 0-5.655 3.965-8.515 8.45-10.14 3.575 3.12 7.8 7.02 12.35 13.065m-15.99-25.935c0-3.965 2.925-6.305 6.695-6.305 3.445 0 6.5 2.015 6.5 6.175 0 4.485-3.64 6.89-7.865 8.45-3.38-2.86-5.33-4.94-5.33-8.32"/><path fill="#fff" d="M34.32 58.997h3.04l2.176-6.72h8.64l2.144 6.72h3.104l-7.68-22.4h-3.648zm5.952-9.088 3.584-11.104 3.552 11.104zm21.544 9.088v-9.312h1.812c.736 0 1.856 0 3.072-.16l4.692 9.472h3.264l-5.46-10.048c2.176-.8 4.064-2.464 4.064-6.016 0-6.304-5.76-6.304-8.48-6.304H59v22.368zm0-20h2.772c2.368 0 5.728 0 5.728 4.032 0 4.288-3.936 4.288-6.208 4.288h-2.292zm16.704 8.928c0 7.072 3.872 11.456 10.56 11.456 2.656 0 4.992-.672 6.784-1.664V46.869H88.76v2.336h4.416v6.784c-1.184.608-2.464.992-4.064.992-4.448 0-7.648-3.072-7.648-9.12 0-5.696 2.944-9.216 7.872-9.216 1.92 0 3.872.512 5.472 1.696l1.248-2.624c-1.696-.928-4.128-1.504-6.624-1.504-6.848 0-10.912 4.416-10.912 11.712m32.424-9.28c4.192 0 6.912 3.36 6.912 9.056 0 5.664-2.688 9.248-6.944 9.248-4.224 0-6.976-3.552-6.976-9.216 0-5.696 2.784-9.088 7.008-9.088m.096-2.432c-6.112 0-10.048 4.512-10.048 11.552 0 6.976 3.808 11.616 9.888 11.616 6.112 0 9.92-4.736 9.92-11.776 0-6.976-3.744-11.392-9.76-11.392m15.112.384v22.4h2.784c-.032-14.688-.032-14.688-.224-19.392 2.24 4.384 2.24 4.384 10.944 19.392h3.584v-22.4h-2.784c.032 14.624.032 14.624.224 19.424-2.304-4.48-2.304-4.48-10.976-19.424z" opacity=".75"/></svg>
