<svg xmlns="http://www.w3.org/2000/svg" width="384" height="384" viewBox="0 0 384 384"><path fill="#fff" stroke="#c9c9cd" d="M.5.5h383v383H.5z"/><path fill="#3634a3" d="m33.465 133 2.002-10.023h-1.261l-.624 3.133c-.442-.13-.676-.156-1.014-.156-1.131 0-2.08.468-2.977 1.456-1.04 1.105-1.69 2.795-1.69 4.199 0 1.001.429 1.547 1.3 1.547 1.105 0 2.47-1.144 3.575-2.977L32.217 133zm-.39-4.316c-1.742 2.405-2.795 3.302-3.341 3.302-.325 0-.494-.182-.494-.689 0-.481.091-1.001.286-1.586.585-1.729 1.703-2.86 2.899-2.86.312 0 .689.091.962.234zm5.296 4.472c.923 0 1.859-.221 3.081-.845l.247-1.209c-1.053.715-2.197 1.066-2.925 1.066-.923 0-1.417-.481-1.417-1.716 2.444-.169 4.381-1.404 4.381-3.107 0-.884-.494-1.391-1.586-1.391-2.197 0-4.056 2.457-4.056 4.849 0 1.404.806 2.353 2.275 2.353m1.508-4.407c-.572.507-1.222.702-2.405.767.312-1.43 1.261-2.626 2.366-2.626.429 0 .689.26.689.689 0 .403-.234.806-.65 1.17m5.972-1.703h2.015l.182-.936h-2.002l.065-.377c.273-1.313.858-1.976 1.846-1.976.429 0 .78.078 1.157.247l.208-1.001c-.494-.143-.78-.182-1.196-.182-1.716 0-2.873 1.014-3.276 2.977l-.065.312h-1.092l-.195.936h1.105l-1.69 8.463h1.261zm9.222-.936h-1.261c-.429-.117-.663-.156-1.014-.156-1.105 0-2.093.468-2.977 1.456a6.5 6.5 0 0 0-1.235 1.989c-.299.754-.455 1.495-.455 2.21 0 .572.143.975.416 1.235.221.208.507.312.884.312.663 0 1.274-.299 2.015-.988.611-.559 1.053-1.144 1.56-1.989L52.447 133h1.248zm-1.768 2.574a24 24 0 0 1-1.105 1.443q-.429.526-.897.975c-.676.663-1.014.884-1.339.884-.156 0-.325-.078-.39-.182s-.104-.273-.104-.507c0-.481.091-1.001.286-1.586a6.5 6.5 0 0 1 .845-1.677c.572-.715 1.365-1.183 2.054-1.183.312 0 .689.091.962.234zm5.647-2.574h-1.248l-.949 4.758c-.091.455-.143.806-.143 1.066 0 .819.455 1.222 1.235 1.222 1.105 0 2.314-1.17 3.432-2.977L60.72 133h1.248l1.365-6.89h-1.248l-.507 2.574-.325.429c-1.56 2.041-2.301 2.873-2.977 2.873-.234 0-.351-.143-.351-.442 0-.169.039-.429.104-.767zm8.975-3.133h-1.248L64.677 133h1.248zm3.32 4.069h1.859l.195-.936h-1.859l.299-1.56-1.287.156-.273 1.404h-1.105l-.182.936h1.105l-.728 3.653a4.6 4.6 0 0 0-.117 1.001c0 .91.676 1.456 1.742 1.456.286 0 .455-.026.793-.13l.182-.936c-.299.104-.468.13-.689.13-.559 0-.793-.286-.793-.702 0-.104.039-.338.104-.689zm-47.955 154.05v1.131q1.346.429 2.535.429c1.82 0 2.977-.832 2.977-2.132 0-.845-.533-1.443-1.612-1.82l-1.586-.559c-.624-.221-.936-.494-.936-.832 0-.572.598-.923 1.521-.923.676 0 1.43.13 2.249.377v-1.014c-.858-.195-1.612-.299-2.249-.299-1.729 0-2.717.715-2.717 1.963 0 .858.52 1.456 1.573 1.794l1.339.442c.793.247 1.183.572 1.183.975 0 .637-.754 1.092-1.755 1.092-.715 0-1.547-.208-2.522-.624m7.6 0v1.131q1.345.429 2.535.429c1.82 0 2.977-.832 2.977-2.132 0-.845-.533-1.443-1.612-1.82l-1.586-.559c-.624-.221-.936-.494-.936-.832 0-.572.598-.923 1.521-.923.676 0 1.43.13 2.249.377v-1.014c-.858-.195-1.612-.299-2.249-.299-1.729 0-2.717.715-2.717 1.963 0 .858.52 1.456 1.573 1.794l1.339.442c.793.247 1.183.572 1.183.975 0 .637-.754 1.092-1.755 1.092-.715 0-1.547-.208-2.522-.624m10.33 1.638q1.462 0 2.34-1.326c.585-.897.871-2.106.871-3.627 0-1.495-.286-2.691-.871-3.575-.585-.897-1.365-1.339-2.34-1.339s-1.755.442-2.34 1.339-.871 2.093-.871 3.588.286 2.691.871 3.588 1.365 1.352 2.34 1.352m-1.911-5.005c0-2.613.624-3.913 1.885-3.913 1.001 0 1.599.767 1.82 2.288l-3.679 2.418-.013-.143zm.13 1.781 3.679-2.431.013.754c0 2.639-.637 3.965-1.911 3.965-.975 0-1.573-.767-1.781-2.288m6.508 1.898v1.092h5.785v-1.092h-4.277c.169-.78.871-1.599 1.872-2.444l.481-.416c.728-.611 1.222-1.144 1.495-1.586s.403-.936.403-1.495c0-.78-.26-1.404-.793-1.885-.533-.468-1.365-.715-2.249-.715-.819 0-1.651.195-2.483.598v1.105c.884-.507 1.651-.754 2.301-.754 1.105 0 1.898.637 1.898 1.677 0 .819-.247 1.43-1.443 2.483l-.715.65c-1.131 1.001-1.911 1.911-2.275 2.782m11.851-1.066c0 1.404.832 2.314 2.275 2.314.949 0 1.703-.273 2.379-.858 1.04-.936 1.768-2.548 1.768-4.043 0-1.404-.819-2.301-2.288-2.301-.923 0-1.716.286-2.353.858-1.066.897-1.781 2.574-1.781 4.03m1.339-.286c0-1.911 1.17-3.666 2.509-3.666.845 0 1.248.507 1.248 1.664 0 1.898-1.157 3.666-2.535 3.666-.78 0-1.222-.494-1.222-1.664m8.104-.143.325-.416c1.521-2.08 2.327-2.873 2.964-2.873.26 0 .364.13.364.455 0 .13-.039.377-.104.754l-.923 4.667h1.248l.949-4.758c.091-.455.13-.806.13-1.066 0-.819-.429-1.222-1.222-1.222-1.105 0-2.366 1.183-3.432 2.977l.559-2.821h-1.248l-1.378 6.89h1.248zm-43.951-74.817v1.131q1.346.429 2.535.429c1.82 0 2.977-.832 2.977-2.132 0-.845-.533-1.443-1.612-1.82l-1.586-.559c-.624-.221-.936-.494-.936-.832 0-.572.598-.923 1.521-.923.676 0 1.43.13 2.249.377v-1.014c-.858-.195-1.612-.299-2.249-.299-1.729 0-2.717.715-2.717 1.963 0 .858.52 1.456 1.573 1.794l1.339.442c.793.247 1.183.572 1.183.975 0 .637-.754 1.092-1.755 1.092-.715 0-1.547-.208-2.522-.624m7.6 0v1.131q1.345.429 2.535.429c1.82 0 2.977-.832 2.977-2.132 0-.845-.533-1.443-1.612-1.82l-1.586-.559c-.624-.221-.936-.494-.936-.832 0-.572.598-.923 1.521-.923.676 0 1.43.13 2.249.377v-1.014c-.858-.195-1.612-.299-2.249-.299-1.729 0-2.717.715-2.717 1.963 0 .858.52 1.456 1.573 1.794l1.339.442c.793.247 1.183.572 1.183.975 0 .637-.754 1.092-1.755 1.092-.715 0-1.547-.208-2.522-.624m10.33 1.638q1.462 0 2.34-1.326c.585-.897.871-2.106.871-3.627 0-1.495-.286-2.691-.871-3.575-.585-.897-1.365-1.339-2.34-1.339s-1.755.442-2.34 1.339-.871 2.093-.871 3.588.286 2.691.871 3.588 1.365 1.352 2.34 1.352m-1.911-5.005c0-2.613.624-3.913 1.885-3.913 1.001 0 1.599.767 1.82 2.288l-3.679 2.418-.013-.143zm.13 1.781 3.679-2.431.013.754c0 2.639-.637 3.965-1.911 3.965-.975 0-1.573-.767-1.781-2.288m6.638 2.99h6.266v-.936h-2.509v-8.697l-3.757 1.131v.988l2.509-.754v7.332h-2.509zm11.721-2.158c0 1.404.832 2.314 2.275 2.314.949 0 1.703-.273 2.379-.858 1.04-.936 1.768-2.548 1.768-4.043 0-1.404-.819-2.301-2.288-2.301-.923 0-1.716.286-2.353.858-1.066.897-1.781 2.574-1.781 4.03m1.339-.286c0-1.911 1.17-3.666 2.509-3.666.845 0 1.248.507 1.248 1.664 0 1.898-1.157 3.666-2.535 3.666-.78 0-1.222-.494-1.222-1.664m8.104-.143.325-.416c1.521-2.08 2.327-2.873 2.964-2.873.26 0 .364.13.364.455 0 .13-.039.377-.104.754l-.923 4.667h1.248l.949-4.758c.091-.455.13-.806.13-1.066 0-.819-.429-1.222-1.222-1.222-1.105 0-2.366 1.183-3.432 2.977l.559-2.821h-1.248l-1.378 6.89h1.248z"/><path d="M110.136 98.824c-9.168 0-15.072 6.768-15.072 17.328 0 10.464 5.712 17.424 14.832 17.424l6.096 7.584h5.808l-7.632-8.256c6.624-1.824 10.608-8.16 10.608-16.992 0-10.464-5.616-17.088-14.64-17.088m-.144 3.648c6.288 0 10.368 5.04 10.368 13.584 0 8.496-4.032 13.872-10.416 13.872-6.336 0-10.464-5.328-10.464-13.824 0-8.544 4.176-13.632 10.512-13.632"/><path fill="#3c3c43" fill-opacity=".6" d="M150.312 106.456c0-5.232-4.32-7.728-8.928-7.728-4.8 0-8.976 2.64-8.976 7.68 0 2.256.96 4.416 3.6 7.68-3.792 1.488-7.392 4.032-7.392 9.648 0 6.528 4.896 9.84 10.752 9.84 4.368 0 7.872-1.776 10.56-4.608 1.248 1.248 2.544 2.592 3.936 4.032h5.856c-2.784-2.592-5.232-4.944-7.44-7.056 1.968-3.12 3.264-6.96 3.936-10.896h-3.888c-.624 3.552-1.536 6.288-2.688 8.4-3.36-3.216-5.952-5.808-7.92-7.968 4.128-1.488 8.592-3.648 8.592-9.024m-2.736 20.064c-2.544 2.88-5.52 3.696-7.92 3.696-4.608 0-6.72-2.928-6.72-6.528 0-3.744 2.304-5.856 5.136-7.152 2.304 2.592 5.376 5.808 9.504 9.984m-11.088-19.92c0-2.928 2.16-4.656 4.944-4.656 2.544 0 4.8 1.488 4.8 4.56 0 3.648-3.168 5.376-6.624 6.528-2.208-2.736-3.12-4.656-3.12-6.432"/><path d="M167.208 133v-13.968h1.968c1.104 0 2.784 0 4.608-.24L180.072 133h4.896l-7.44-15.072c3.264-1.2 6.096-3.696 6.096-9.024 0-9.456-8.64-9.456-12.72-9.456h-7.92V133zm0-30h3.408c3.552 0 8.592 0 8.592 6.048 0 6.432-5.904 6.432-9.312 6.432h-2.688zm23.472 24.096v1.248c0 2.208 0 6.768-2.448 10.848l2.4 1.344c4.08-4.896 4.08-10.56 4.08-12.432v-1.008zm33.504-27.84-2.688-1.968c-1.824 2.208-6.816 8.016-6.816 18.816s4.992 16.752 6.816 18.96l2.688-2.016c-1.44-1.824-5.568-6.864-5.568-16.944s4.128-15.024 5.568-16.848m3.504 5.424 1.2 3.696 7.728-5.088-.048 29.712h4.224V99.4h-4.176zm22.8 26.976c2.448 1.392 5.184 1.92 7.728 1.92 8.928 0 13.248-6.384 13.248-19.152 0-10.08-3.36-15.552-10.944-15.552-6.432 0-10.8 4.272-10.8 11.088 0 6.528 3.984 10.656 9.84 10.656 4.032 0 6.336-1.824 7.728-4.032-.192 7.392-2.4 13.488-8.88 13.488-2.544 0-4.8-.96-6.528-2.4zm16.416-21.504c0 4.464-2.592 6.96-6.528 6.96-3.888 0-6.432-2.592-6.432-7.296 0-4.752 2.64-7.584 6.48-7.584 4.08 0 6.48 3.552 6.48 7.92m9.36-8.064 1.824 3.936c2.352-2.352 4.944-3.696 8.016-3.696 3.792 0 6.048 2.112 6.048 5.808 0 9.264-13.344 12.528-15.6 21.264v3.552h20.304v-3.696l-15.744.096c1.248-6.528 15.408-10.512 15.408-21.456 0-5.568-3.6-9.072-10.128-9.072-4.128 0-7.632 1.392-10.128 3.264m36.624-3.36c-6.144 0-10.416 3.312-10.416 8.592 0 4.176 2.592 6.336 5.76 7.872-4.176 1.44-6.672 4.656-6.672 8.928 0 5.856 4.416 9.552 10.944 9.552 6.672 0 11.28-3.984 11.28-9.744 0-4.704-3.12-6.864-6.672-8.4 3.168-1.488 5.76-4.272 5.76-8.304 0-5.184-4.128-8.496-9.984-8.496m6.576 25.392c0 3.6-2.496 6.048-6.768 6.048-4.032 0-6.864-2.208-6.864-6.192 0-3.264 2.112-5.76 6.384-7.008 3.792 1.536 7.248 3.168 7.248 7.152m-12.72-16.704c0-3.216 2.304-5.232 6-5.232 3.6 0 5.952 1.92 5.952 5.28 0 2.976-2.304 5.376-5.424 6.528-3.504-1.44-6.528-2.976-6.528-6.576m26.4.24-4.704 5.808 2.64 1.872 4.176-6.096 4.176 6.096 2.64-1.872-4.704-5.808 6.384-1.68-.96-2.928-6.192 2.208.192-6.528h-3.072l.192 6.528-6.192-2.208-.96 2.928zm13.296-8.4c1.44 1.824 5.568 6.768 5.568 16.848s-4.128 15.12-5.568 16.944l2.688 2.016c1.824-2.208 6.816-8.16 6.816-18.96s-4.992-16.608-6.816-18.816zM110.136 247.824c-9.168 0-15.072 6.768-15.072 17.328 0 10.32 5.52 17.232 14.4 17.424 2.256 2.208 4.896 4.656 8.64 7.872l4.416-2.4c-3.648-2.4-6.24-4.224-8.64-6.048 6.816-1.728 10.896-8.112 10.896-17.088 0-10.464-5.616-17.088-14.64-17.088m-.144 3.648c6.288 0 10.368 5.04 10.368 13.584 0 8.496-4.032 13.872-10.416 13.872-6.336 0-10.464-5.328-10.464-13.824 0-8.544 4.176-13.632 10.512-13.632m40.32 3.984c0-5.232-4.32-7.728-8.928-7.728-4.8 0-8.976 2.64-8.976 7.68 0 3.12 1.632 5.088 4.224 7.44-4.032 1.488-8.016 4.08-8.016 9.888 0 6.528 5.088 9.84 10.944 9.84 4.464 0 8.064-1.92 10.752-4.944 1.584 2.352 3.168 5.088 4.752 8.304l4.128-1.536c-2.256-4.08-4.416-7.392-6.48-10.128 1.728-2.976 2.88-6.48 3.504-10.08l-3.792-.576c-.48 3.072-1.248 5.616-2.112 7.632a65 65 0 0 0-7.248-7.296c3.696-1.488 7.248-3.696 7.248-8.496m-2.016 19.296c-2.64 3.504-5.856 4.464-8.496 4.464-4.32 0-6.864-2.736-6.864-6.624 0-4.176 2.928-6.288 6.24-7.488 2.64 2.304 5.76 5.184 9.12 9.648M136.488 255.6c0-2.928 2.16-4.656 4.944-4.656 2.544 0 4.8 1.488 4.8 4.56 0 3.312-2.688 5.088-5.808 6.24-2.496-2.112-3.936-3.648-3.936-6.144m26.496 26.4h4.224v-14.112h2.544c3.36 0 3.984.144 10.848 14.112h4.8c-6.144-12.048-7.632-14.304-9.936-15.072 4.272-.72 8.112-3.216 8.112-9.264 0-9.216-8.688-9.216-12.672-9.216h-7.92zm4.224-17.616V252h3.408c3.552 0 8.544 0 8.544 5.952 0 6.432-5.856 6.432-9.264 6.432zm25.392 11.664c-1.968 0-2.976 1.344-2.976 2.928 0 1.824 1.344 2.832 3.264 2.736-.048 1.776-1.152 4.704-5.424 5.232l.288 2.4c6.576-.672 7.968-6 7.968-9.12 0-2.064-.624-4.176-3.12-4.176"/><path fill="#3c3c43" fill-opacity=".6" d="m224.184 248.256-2.688-1.968c-1.824 2.208-6.816 8.016-6.816 18.816s4.992 16.752 6.816 18.96l2.688-2.016c-1.44-1.824-5.568-6.864-5.568-16.944s4.128-15.024 5.568-16.848m3.504 5.424 1.2 3.696 7.728-5.088-.048 29.712h4.224v-33.6h-4.176zm22.8 26.976c2.448 1.392 5.184 1.92 7.728 1.92 8.928 0 13.248-6.384 13.248-19.152 0-10.08-3.36-15.552-10.944-15.552-6.432 0-10.8 4.272-10.8 11.088 0 6.528 3.984 10.656 9.84 10.656 4.032 0 6.336-1.824 7.728-4.032-.192 7.392-2.4 13.488-8.88 13.488-2.544 0-4.8-.96-6.528-2.4zm16.416-21.504c0 4.464-2.592 6.96-6.528 6.96-3.888 0-6.432-2.592-6.432-7.296 0-4.752 2.64-7.584 6.48-7.584 4.08 0 6.48 3.552 6.48 7.92m9.36-8.064 1.824 3.936c2.352-2.352 4.944-3.696 8.016-3.696 3.792 0 6.048 2.112 6.048 5.808 0 9.264-13.344 12.528-15.6 21.264v3.552h20.304v-3.696l-15.744.096c1.248-6.528 15.408-10.512 15.408-21.456 0-5.568-3.6-9.072-10.128-9.072-4.128 0-7.632 1.392-10.128 3.264"/><path d="M301.32 272.928c0 5.808 4.56 9.744 11.328 9.744s11.328-3.936 11.328-9.744c0-4.944-3.264-7.92-6.144-8.544 2.4-.672 5.184-3.264 5.184-7.632 0-5.376-4.272-9.024-10.368-9.024s-10.368 3.648-10.368 9.024c0 4.368 2.784 7.056 5.232 7.728-2.928.528-6.192 3.504-6.192 8.448m4.32-.24c0-5.232 4.272-6.48 7.008-6.48s7.008 1.248 7.008 6.48c0 4.08-2.688 6.624-7.008 6.624s-7.008-2.544-7.008-6.624m.912-15.648c0-3.6 2.4-5.952 6.096-5.952s6.096 2.352 6.096 5.952c0 4.416-3.6 5.904-6.096 5.904s-6.096-1.488-6.096-5.904m27.216 7.584h2.976l-.336-6.624 5.376 3.552 1.488-2.496-5.856-3.024 5.76-3.024-1.488-2.496-5.28 3.504.336-6.48h-2.976l.336 6.48-5.28-3.504-1.488 2.496 5.76 3.024-5.952 3.168 1.488 2.496 5.472-3.696z"/><path fill="#3c3c43" fill-opacity=".6" d="M346.44 248.256c1.44 1.824 5.568 6.768 5.568 16.848s-4.128 15.12-5.568 16.944l2.688 2.016c1.824-2.208 6.816-8.16 6.816-18.96s-4.992-16.608-6.816-18.816zm-236.304-75.432c-9.168 0-15.072 6.768-15.072 17.328 0 10.464 5.712 17.424 14.832 17.424l6.096 7.584h5.808l-7.632-8.256c6.624-1.824 10.608-8.16 10.608-16.992 0-10.464-5.616-17.088-14.64-17.088m-.144 3.648c6.288 0 10.368 5.04 10.368 13.584 0 8.496-4.032 13.872-10.416 13.872-6.336 0-10.464-5.328-10.464-13.824 0-8.544 4.176-13.632 10.512-13.632m40.32 3.984c0-5.232-4.32-7.728-8.928-7.728-4.8 0-8.976 2.64-8.976 7.68 0 2.256.96 4.416 3.6 7.68-3.792 1.488-7.392 4.032-7.392 9.648 0 6.528 4.896 9.84 10.752 9.84 4.368 0 7.872-1.776 10.56-4.608 1.248 1.248 2.544 2.592 3.936 4.032h5.856c-2.784-2.592-5.232-4.944-7.44-7.056 1.968-3.12 3.264-6.96 3.936-10.896h-3.888c-.624 3.552-1.536 6.288-2.688 8.4-3.36-3.216-5.952-5.808-7.92-7.968 4.128-1.488 8.592-3.648 8.592-9.024m-2.736 20.064c-2.544 2.88-5.52 3.696-7.92 3.696-4.608 0-6.72-2.928-6.72-6.528 0-3.744 2.304-5.856 5.136-7.152 2.304 2.592 5.376 5.808 9.504 9.984m-11.088-19.92c0-2.928 2.16-4.656 4.944-4.656 2.544 0 4.8 1.488 4.8 4.56 0 3.648-3.168 5.376-6.624 6.528-2.208-2.736-3.12-4.656-3.12-6.432m30.72 26.4v-13.968h1.968c1.104 0 2.784 0 4.608-.24L180.072 207h4.896l-7.44-15.072c3.264-1.2 6.096-3.696 6.096-9.024 0-9.456-8.64-9.456-12.72-9.456h-7.92V207zm0-30h3.408c3.552 0 8.592 0 8.592 6.048 0 6.432-5.904 6.432-9.312 6.432h-2.688z"/><path d="m190.632 201.096-2.544 13.104h2.976l4.08-13.104zm34.08-28.56h-3.936c-2.256 2.544-6.096 8.064-6.096 17.568 0 9.6 3.84 15.312 6.096 17.76h3.936c-2.928-3.312-6.096-8.832-6.096-17.76 0-8.832 3.168-14.16 6.096-17.568"/><path fill="#3c3c43" fill-opacity=".6" d="m227.688 178.68 1.2 3.696 7.728-5.088-.048 29.712h4.224v-33.6h-4.176zm22.8 26.976c2.448 1.392 5.184 1.92 7.728 1.92 8.928 0 13.248-6.384 13.248-19.152 0-10.08-3.36-15.552-10.944-15.552-6.432 0-10.8 4.272-10.8 11.088 0 6.528 3.984 10.656 9.84 10.656 4.032 0 6.336-1.824 7.728-4.032-.192 7.392-2.4 13.488-8.88 13.488-2.544 0-4.8-.96-6.528-2.4zm16.416-21.504c0 4.464-2.592 6.96-6.528 6.96-3.888 0-6.432-2.592-6.432-7.296 0-4.752 2.64-7.584 6.48-7.584 4.08 0 6.48 3.552 6.48 7.92"/><path d="m276.024 176.088 1.824 3.936c2.544-2.448 5.136-3.696 8.064-3.696 3.792 0 6 2.064 6 5.76 0 4.176-2.832 7.344-15.888 21.312v3.552h20.736v-3.696l-15.744.096c11.664-12.192 15.312-15.888 15.312-21.36 0-5.616-3.84-9.168-10.128-9.168a17.5 17.5 0 0 0-10.176 3.264"/><path fill="#3c3c43" fill-opacity=".6" d="M312.792 172.728c-6.144 0-10.416 3.312-10.416 8.592 0 4.176 2.592 6.336 5.76 7.872-4.176 1.44-6.672 4.656-6.672 8.928 0 5.856 4.416 9.552 10.944 9.552 6.672 0 11.28-3.984 11.28-9.744 0-4.704-3.12-6.864-6.672-8.4 3.168-1.488 5.76-4.272 5.76-8.304 0-5.184-4.128-8.496-9.984-8.496m6.576 25.392c0 3.6-2.496 6.048-6.768 6.048-4.032 0-6.864-2.208-6.864-6.192 0-3.264 2.112-5.76 6.384-7.008 3.792 1.536 7.248 3.168 7.248 7.152m-12.72-16.704c0-3.216 2.304-5.232 6-5.232 3.6 0 5.952 1.92 5.952 5.28 0 2.976-2.304 5.376-5.424 6.528-3.504-1.44-6.528-2.976-6.528-6.576m26.4.24-4.704 5.808 2.64 1.872 4.176-6.096 4.176 6.096 2.64-1.872-4.704-5.808 6.384-1.68-.96-2.928-6.192 2.208.192-6.528h-3.072l.192 6.528-6.192-2.208-.96 2.928z"/><path d="M345.768 172.536c2.928 3.408 6.096 8.736 6.096 17.568 0 8.928-3.168 14.448-6.096 17.76h3.984c2.256-2.448 6.048-8.16 6.048-17.76 0-9.504-3.792-15.024-6.048-17.568z"/></svg>
