<svg xmlns="http://www.w3.org/2000/svg" width="384" height="384" viewBox="0 0 384 384"><path fill="#fff" stroke="#c9c9cd" d="M.5.5h383v383H.5z"/><path d="m73.936 128.912-7.36 1.28-.192 1.408c3.264 1.152 3.52 6.656 2.368 12.544-2.176 10.88-8.384 15.552-12.032 15.552-3.584 0-4.8-4.48-3.136-14.08l2.944-16.704-10.56 1.856-.32 1.728c4.416.704 4.416.768 4.032 3.072l-1.664 10.112c-2.176 13.248 1.152 17.344 6.976 17.344 9.216 0 17.6-10.624 19.712-21.696.64-3.456 1.024-8.96-.768-12.416m56.992 24.256v-3.84H100.72v3.84zm0-12.48v-3.84H100.72v3.84zm49.568 22.08 10.24-1.792v-1.792c-4.672-.768-4.672-1.024-4.672-3.264v-43.328l-10.176 1.792v1.728c4.416.768 4.416 1.024 4.416 3.136v11.072c-2.176-1.088-4.544-1.6-7.168-1.6-8.896 0-15.68 6.848-15.68 17.984 0 9.792 5.184 16.32 13.44 16.32 3.904 0 6.784-1.472 9.6-4.416zm-16.832-16.96c0-8.96 3.712-14.08 9.344-14.08 3.2 0 5.632 1.536 7.296 4.288V155.6c-2.624 2.688-5.056 3.648-7.552 3.648-5.888 0-9.088-5.12-9.088-13.44m44.752-16.896-8.704 1.536-.256 1.728c3.84.768 4.288.832 5.12 3.008l4.032 10.688c-8.32 11.84-9.536 12.8-12.864 10.432h-1.024l-1.28 5.952c5.824 1.152 7.488.512 16.32-13.12l2.944 8.256c2.24 6.272 6.4 6.656 11.072 3.328l.512-2.432c-4.16 1.792-4.864.512-7.04-5.184l-3.2-8.32c7.936-10.88 8.896-11.584 12.16-9.28h1.024l1.28-5.952c-5.76-1.088-7.488-.384-15.616 12.096zm37.84-14.336-16.384 60.544h4.096l16.384-60.544zm32.208 48.192 10.24-1.792v-1.792c-4.672-.768-4.672-1.024-4.672-3.264v-43.328l-10.176 1.792v1.728c4.416.768 4.416 1.024 4.416 3.136v11.072c-2.176-1.088-4.544-1.6-7.168-1.6-8.896 0-15.68 6.848-15.68 17.984 0 9.792 5.184 16.32 13.44 16.32 3.904 0 6.784-1.472 9.6-4.416zm-16.832-16.96c0-8.96 3.712-14.08 9.344-14.08 3.2 0 5.632 1.536 7.296 4.288V155.6c-2.624 2.688-5.056 3.648-7.552 3.648-5.888 0-9.088-5.12-9.088-13.44m49.96 14.4.576-2.816c-6.72 3.072-11.072 2.432-9.536-5.376l3.84-19.136h8.832l.576-2.88h-8.832l1.856-9.344-5.952 1.088-1.664 8.256h-5.376l-.576 2.88h5.376l-3.904 19.712c-2.432 12.096 8.256 12.224 14.784 7.616M49.296 226.44l2.496 27.264h3.136c14.656-14.528 19.84-23.936 19.84-33.792l-7.616 1.28-.192 1.408c3.968 2.112 1.344 11.584-10.176 25.472l-2.432-28.16-8.896 1.536-.32 1.728c3.712.832 3.904.896 4.16 3.264m54.056 16.896 4.672-23.232h-2.816l-1.408 1.088c-2.56-1.024-4.864-1.472-6.912-1.472-8.512 0-16.896 6.912-19.328 18.56-1.984 9.792 1.664 15.744 8.384 15.744 4.544 0 8.32-2.752 11.392-7.232-.512 7.872 5.824 8.064 10.752 5.12l.512-2.432c-4.672 1.6-6.656.704-5.248-6.144m-19.52-6.784c1.664-7.36 5.952-13.76 11.584-13.76 2.048 0 4.16.832 5.824 2.752l-3.328 16.32c-2.304 3.648-6.08 8.256-9.984 8.256-4.544 0-5.696-6.4-4.096-13.568m44.072-16.576-10.368 1.728-.32 1.728c4.224.768 4.224.832 3.776 3.136L115.744 253h5.76l3.392-17.216c5.376-11.2 9.92-12.16 12.48-9.344h1.216l1.28-6.208c-4.928-1.024-9.216.256-13.952 9.408zm20.968 23.36 4.736-23.424-10.56 1.792-.32 1.728c4.224.768 4.224.832 3.776 3.136l-3.584 17.792c-2.112 10.56 5.312 10.944 11.008 7.552l.512-2.432c-4.992 1.6-6.976.704-5.568-6.144m-.32-34.112c0 2.112 1.728 3.904 3.968 3.904s3.968-1.792 3.968-3.904-1.728-3.904-3.968-3.904-3.968 1.792-3.968 3.904m11.776 27.52c-3.84 18.88 14.528 20.544 24.256 13.12l.704-3.264c-12.352 6.912-20.48 3.84-19.136-8.256 10.688-1.152 19.648-4.16 20.864-10.24.768-3.712-1.408-8.384-8.384-8.384-7.68 0-16 5.696-18.304 17.024m6.336-1.344c2.048-9.664 7.168-12.736 10.944-12.672 3.456.064 4.16 2.816 3.776 5.056-.832 4.224-5.44 6.4-14.72 7.616m26.52-5.184c-.896 4.224.576 8.256 4.032 10.368-4.224 2.24-4.352 5.248-3.712 7.04.32.896.896 1.6 1.6 2.176-4.096 2.048-7.68 5.312-8.512 9.344-1.216 5.76 4.096 9.664 12.608 9.664 6.464 0 14.592-2.368 16.256-9.728 1.792-8.192-6.784-10.24-10.496-11.136-3.52-.832-6.72-1.664-7.232-3.328-.32-.96.256-2.176 1.536-3.072 1.216.384 2.624.64 4.224.64 6.464 0 12.416-3.84 13.824-10.432.64-3.008.128-5.952-1.472-8.128h5.76l.576-2.88h-9.984c-1.472-.64-3.264-1.024-5.376-1.024-6.336 0-12.288 3.776-13.632 10.496m5.632 0c.96-5.44 4.288-7.744 7.552-7.744 4.416 0 6.272 4.224 5.248 9.344-1.024 5.184-4.096 7.552-7.488 7.552-4.48 0-6.208-4.288-5.312-9.152m-6.72 27.392c.576-2.496 2.304-4.928 5.312-6.464 1.6.704 3.52 1.152 5.248 1.664 3.2.832 8.64 2.304 7.552 7.296-.832 3.712-4.672 5.696-9.472 5.696-6.272 0-9.664-3.52-8.64-8.192m57.176-14.272 4.672-23.232h-2.816l-1.408 1.088c-2.56-1.024-4.864-1.472-6.912-1.472-8.512 0-16.896 6.912-19.328 18.56-1.984 9.792 1.664 15.744 8.384 15.744 4.544 0 8.32-2.752 11.392-7.232-.512 7.872 5.824 8.064 10.752 5.12l.512-2.432c-4.672 1.6-6.656.704-5.248-6.144m-19.52-6.784c1.664-7.36 5.952-13.76 11.584-13.76 2.048 0 4.16.832 5.824 2.752l-3.328 16.32c-2.304 3.648-6.08 8.256-9.984 8.256-4.544 0-5.696-6.4-4.096-13.568m47.616 14.656.576-2.816c-6.72 3.072-11.072 2.432-9.536-5.376l3.84-19.136h8.832l.576-2.88h-8.832l1.856-9.344-5.952 1.088-1.664 8.256h-5.376l-.576 2.88h5.376l-3.904 19.712c-2.432 12.096 8.256 12.224 14.784 7.616m5.848-14.464c-3.84 18.88 14.528 20.544 24.256 13.12l.704-3.264c-12.352 6.912-20.48 3.84-19.136-8.256 10.688-1.152 19.648-4.16 20.864-10.24.768-3.712-1.408-8.384-8.384-8.384-7.68 0-16 5.696-18.304 17.024m6.336-1.344c2.048-9.664 7.168-12.736 10.944-12.672 3.456.064 4.16 2.816 3.776 5.056-.832 4.224-5.44 6.4-14.72 7.616m49.944 7.936 8-39.744-10.56 1.792-.32 1.728c4.224.768 4.224.832 3.776 3.136l-2.048 10.368c-1.92-.64-3.712-.896-5.312-.896-8.512 0-16.896 6.912-19.328 18.56-1.984 9.792 1.664 15.744 8.384 15.744 4.544 0 8.32-2.752 11.392-7.232-.512 7.872 5.824 8.064 10.752 5.12l.512-2.432c-4.672 1.6-6.656.704-5.248-6.144m-19.52-6.784c1.664-7.36 5.952-13.76 11.584-13.76 2.048 0 4.16.832 5.76 2.752l-3.264 16.32c-2.304 3.648-6.08 8.256-9.984 8.256-4.544 0-5.696-6.4-4.096-13.568m29.952 12.8c0 2.368 1.792 4.16 4.16 4.16s4.16-1.792 4.16-4.16-1.792-4.16-4.16-4.16-4.16 1.792-4.16 4.16"/></svg>
