<svg xmlns="http://www.w3.org/2000/svg" width="384" height="384" viewBox="0 0 384 384"><path fill="#d1d1d6" d="M0 0h384v384H0z"/><path d="M115.036 344.912q1.323 0 2.128-.623t.805-1.868q0-1.142-.805-1.765-.804-.623-2.232-.623h-2.958l-.285-1.323h4.956q2.31 0 3.568 1.103 1.26 1.102 1.259 3.127 0 2.543-1.583 3.801-1.583 1.26-4.178 1.259h-3.945l.052-3.088zm-2.517-14.895L112.208 348h-3.348l.311-17.983zm3.815 7.888v1.246h-5.009l.026-1.246zm-1.402-.96q1.194 0 1.79-.519.598-.519.624-1.557 0-.907-.623-1.35-.623-.44-1.894-.44h-2.492l-.233-3.062h2.906q2.803 0 4.334 1.128 1.53 1.13 1.53 3.231 0 1.998-1.31 2.959-1.31.96-3.386.96h-4.23l.026-1.35zm15.129-2.621q1.92 0 3.348.857a5.7 5.7 0 0 1 2.193 2.361q.765 1.505.765 3.426 0 1.998-.753 3.658a6.2 6.2 0 0 1-2.218 2.647q-1.467.986-3.49.986-1.92 0-3.348-.856a5.7 5.7 0 0 1-2.193-2.374q-.765-1.518-.765-3.439 0-1.998.752-3.659t2.219-2.634q1.465-.973 3.49-.973m.052 3.244q-1.012 0-1.7.571-.687.57-1.012 1.48a5.6 5.6 0 0 0-.324 1.893q0 1.428.7 2.453.702 1.025 2.077 1.025 1.01 0 1.7-.571.687-.57 1.011-1.48a5.6 5.6 0 0 0 .325-1.894q0-1.427-.7-2.452-.702-1.025-2.077-1.025m21.85 10.121q-1.817.57-3.425.57-2.959 0-4.646-1.297-1.686-1.298-2.348-3.464t-.662-5.1q0-2.88.727-5.06.726-2.18 2.076-3.386 1.35-1.207 3.114-1.207 2.31 0 3.4 1.544t1.09 3.957q0 4.36-3.206 7.669-3.204 3.308-9.121 5.125l-1.012-2.88q3.14-.96 5.423-2.479 2.284-1.518 3.517-3.412 1.232-1.895 1.232-3.97 0-.987-.26-1.713-.258-.727-1.063-.727-.78 0-1.337.817-.557.818-.856 2.284t-.298 3.387q0 1.868.246 3.27.246 1.4 1.129 2.387.882.986 2.647.986 1.427 0 2.673-.441zm14.74.441q-1.635 0-2.673-.454t-1.246-1.908a6 6 0 0 1-.026-.934l-.545-1.66.545-14.17h3.426l-.52 14.299q-.025.389.026.934.078.545.468.766t1.349.22h.519l-.104 2.907zm-3.633-13.806q1.27 0 2.906.234l-1.038 3.321q-.752-.31-2.102-.31-1.635 0-2.906.648t-1.973 1.803-.7 2.634q0 1.09.402 1.713t1.466.623q.882 0 1.583-.584.7-.584 1.142-1.817.441-1.232.545-3.1l2.854 5.838h-3.685l.96-.467q-.415 1.635-1.479 2.517t-2.75.882q-2.31 0-3.4-1.634-1.09-1.635-1.09-4.023t1.168-4.268 3.27-2.946q2.101-1.064 4.827-1.064M53.197 310.26q-1.53 0-2.915-.255a12.3 12.3 0 0 1-2.527-.732l.455-3.074q1.413.608 2.678.914 1.266.306 2.44.306 1.434 0 2.282-.5.849-.498.848-1.589 0-1.342-1.517-2.08l-2.782-1.361q-1.857-.913-2.78-2.177t-.923-2.925q0-2.538 1.62-3.784t4.213-1.246q1.725 0 3.167.555a7.8 7.8 0 0 1 2.626 1.703l-2.127 2.306q-.952-.861-1.937-1.3-.984-.438-1.9-.438-1.19 0-1.86.536-.672.536-.686 1.548-.015.738.412 1.278.43.54 1.301.965l2.499 1.23q1.953.955 3.001 2.223 1.049 1.267 1.048 2.842.015 2.71-1.867 3.882t-4.769 1.172m17.177-2.785q2.07 0 4.152-.919l.684 2.65q-1.151.53-2.428.792-1.278.262-2.651.262-3.24 0-4.935-1.634-1.695-1.635-1.694-4.66 0-2.226.882-3.963.88-1.737 2.5-2.707 1.617-.97 3.764-.97 2.107 0 3.427 1.093 1.32 1.095 1.32 3.044 0 2.175-2.372 3.345-2.373 1.17-6.853 1.247l-.651-2.45q3.224-.036 5.014-.627t1.79-1.659q0-.65-.539-.96-.54-.31-1.336-.31-1.215 0-2.134.615-.92.615-1.427 1.71-.506 1.094-.506 2.498 0 1.725 1 2.664t2.993.939M80.845 310h-3.03l.499-13.442h2.557l.323 3.477zm2.358-9.795q.026-.467-.154-.79-.18-.324-.646-.324-.594 0-.918.828-.323.83-.375 2.427l-.435-3.953h.71q.19-1.086.729-1.577.537-.492 1.467-.492 1.31 0 1.772 1.056.462 1.055.41 2.474L85.374 310h-2.53zm7.18 5.52q-.052.803.14 1.167.191.365.878.365h.376l-.093 2.873h-.514q-1.428 0-2.291-.43-.864-.432-1.234-1.371t-.266-2.498l.368-5.626a1.53 1.53 0 0 0-.14-.777q-.167-.337-.593-.337-.632 0-.985.83-.354.832-.39 2.425l-.463-3.953h.815q.228-1.112.794-1.59.565-.48 1.543-.479 1.448 0 1.991 1.01t.452 2.52zm12.884 4.535q-2.206 0-3.378-.982-1.172-.981-1.478-2.597-.308-1.615-.027-3.743l.822-6.38h2.92l-.584 6.38q-.16 1.734-.095 2.607.066.873.54 1.335.476.46 1.57.46.693 0 1.225-.158.532-.159 1.239-.58l1.19 2.617a10.6 10.6 0 0 1-1.87.767q-.92.273-2.074.273m-2.99-11.25q-.863.967-2.862 2.528t-3.728 2.63l-1.739-2.428a64 64 0 0 0 4.064-2.695q2.027-1.456 3.06-2.487h1.267zm.36-4.778q-.886 0-1.508-.613a2.03 2.03 0 0 1-.621-1.5q0-.885.621-1.507a2.05 2.05 0 0 1 1.507-.622q.886 0 1.508.622.621.621.621 1.507t-.621 1.5-1.508.613m12.783 16.029q-1.759 0-4.262-.26l.996-2.97q.845.165 1.808.275t1.63.109q2.416 0 3.603-1.33 1.186-1.33 1.186-3.792 0-1.338-.427-2.206-.426-.87-1.638-.87-.957 0-1.805.635-.847.634-1.412 1.96-.564 1.325-.642 3.284l-.269-5.842h1.08l-.356.806q.09-1.17.611-2.015a3.4 3.4 0 0 1 1.412-1.283q.889-.437 2.073-.437 2.372 0 3.433 1.666 1.06 1.667 1.061 4.164 0 2.5-.958 4.324a6.6 6.6 0 0 1-2.777 2.803q-1.82.978-4.347.978m-.433-19.255-.7 18.995h-3.129l.7-18.995zm17.096 5.32q1.932 0 3.327.851a5.5 5.5 0 0 1 2.123 2.357q.729 1.505.729 3.425 0 2.019-.716 3.675-.715 1.655-2.15 2.641-1.433.986-3.479.986-1.931 0-3.337-.85a5.5 5.5 0 0 1-2.14-2.359q-.733-1.507-.733-3.439 0-2.019.726-3.674.726-1.656 2.165-2.634 1.44-.98 3.485-.979m.042 2.893q-1.108 0-1.849.619-.741.618-1.092 1.607a6.2 6.2 0 0 0-.35 2.08q0 1.555.758 2.686.76 1.132 2.252 1.132 1.108 0 1.854-.614.745-.613 1.092-1.596a6.2 6.2 0 0 0 .345-2.086q0-1.565-.754-2.697-.753-1.131-2.256-1.131m21.743 10.472q-1.731.57-3.266.57-2.98 0-4.66-1.308-1.683-1.308-2.323-3.48t-.64-5.136q0-2.827.727-4.997.726-2.169 2.049-3.381t3.045-1.212q2.234 0 3.272 1.539 1.035 1.539 1.036 3.888 0 4.305-3.173 7.594-3.172 3.287-9.047 5.093l-.884-2.636q3.257-1.002 5.53-2.505t3.458-3.428a7.84 7.84 0 0 0 1.184-4.183q0-1.071-.275-1.814-.276-.743-1.154-.743-.81 0-1.411.866-.601.865-.926 2.379t-.325 3.434q0 1.943.295 3.467.294 1.524 1.261 2.584.968 1.06 2.828 1.06 1.364 0 2.588-.451zm14.868.441q-1.614 0-2.567-.54t-1.16-1.981a6.5 6.5 0 0 1-.048-.977l-.523-1.937.523-13.69h3.128l-.53 14.575q-.015.399.026.795.09.599.483.862.394.263 1.26.263h.614l-.093 2.63zm-3.995-13.816q1.314 0 3.13.244l-.996 2.96q-.806-.312-2.24-.312-1.657 0-2.938.692a4.96 4.96 0 0 0-1.989 1.915q-.706 1.224-.706 2.788 0 1.207.43 1.968.428.76 1.566.76.968 0 1.743-.62.775-.621 1.264-1.934t.582-3.297l1.93 5.562h-2.611l.875-.552q-.394 1.804-1.548 2.783-1.155.978-3.001.978-2.278 0-3.314-1.635-1.038-1.635-1.037-4.012 0-2.397 1.11-4.279 1.108-1.881 3.12-2.945 2.01-1.064 4.63-1.064m-78.221-34.529 1.985-7.768h1.805l-.015 3.191h-.74l-2.023 7.635h-1.588l.42-3.058zm-3.334-7.768L80.562 272h-2.646l.623-17.983zm-.467 3.191.09-3.191h1.804l1.7 7.768h.103l.222 3.058h-1.441l-1.737-7.635zm9.859-3.191V272H87.93v-17.983zm10.103 15.733q2.039 0 4.153-.929l.641 2.341q-1.109.54-2.39.82-1.282.277-2.604.277-3.135 0-4.796-1.634-1.662-1.635-1.662-4.596 0-2.247.855-3.995.855-1.747 2.43-2.728 1.577-.982 3.638-.982 2.085 0 3.363 1.046 1.277 1.047 1.277 2.922 0 2.196-2.383 3.445-2.383 1.25-6.725 1.328l-.523-2.226q3.255-.048 5.046-.724 1.79-.675 1.79-1.903 0-.704-.534-1.078t-1.426-.374q-1.236 0-2.193.648t-1.49 1.81q-.534 1.164-.534 2.674 0 1.79 1.027 2.824t3.04 1.034m20.466 2.38q-1.591 0-2.46-.625-.868-.624-1.075-2.056a6.4 6.4 0 0 1-.069-1.02l-.502-2.213.502-13.211h2.83l-.54 14.851q-.005.41.026.658.099.651.499.957t1.168.305h.71l-.082 2.354zm-4.356-13.827q1.357 0 3.353.255l-.953 2.598q-.858-.312-2.378-.311-1.678 0-2.97.734a5.14 5.14 0 0 0-2.005 2.027q-.71 1.293-.71 2.942 0 1.325.455 2.223.455.9 1.668.9 1.051 0 1.902-.659.85-.658 1.386-2.05.537-1.392.62-3.495l1.004 5.286h-1.537l.79-.637q-.373 1.975-1.617 3.048-1.245 1.074-3.251 1.074-2.245 0-3.23-1.634-.983-1.635-.983-4.002 0-2.408 1.05-4.29a7.5 7.5 0 0 1 2.973-2.945q1.92-1.064 4.433-1.064m16.774 13.957q-2.025 0-3.15-.886-1.123-.886-1.452-2.352-.327-1.467-.08-3.36l.918-7.104h2.622l-.7 7.103q-.141 1.52-.048 2.347.092.825.589 1.254.496.43 1.57.43.734 0 1.293-.175t1.298-.628l1.084 2.223a9.6 9.6 0 0 1-1.86.848q-.921.3-2.084.3m-3.022-11.547q-.715.998-2.56 2.511a33.5 33.5 0 0 1-3.977 2.795l-1.559-2.184a57 57 0 0 0 4.315-2.86q1.927-1.416 2.926-2.417h.874zm.614-4.704q-.81 0-1.38-.566a1.87 1.87 0 0 1-.568-1.377q0-.81.569-1.38a1.88 1.88 0 0 1 1.38-.568q.81 0 1.379.568.568.57.568 1.38t-.568 1.377a1.88 1.88 0 0 1-1.38.566m12.492 16.251q-2.28 0-3.373-1.482-1.093-1.48-1.093-4.34 0-1.617.298-3.598.3-1.982.938-4.516l2.86.472q-.66 2.697-.954 4.506t-.293 3.167q0 1.59.512 2.409t1.585.818q1.58 0 2.413-1.556.835-1.555.985-4.6l.495 5.334h-.804l.54-.712q-.275 1.409-.708 2.276a3.15 3.15 0 0 1-1.247 1.345q-.815.476-2.154.476m8.064-.13q-1.911 0-2.838-.822-.929-.823-.932-2.644l-.52-2.762.286-7.344h2.856l-.354 9.13q-.048 1.08.311 1.584.36.504 1.457.504h.554l-.082 2.354zm4.997-.129h-2.764l.476-13.442h2.314l.332 3.477zm2.612-10.273q.027-.468-.164-.765-.189-.297-.657-.297-.721 0-1.11 1.19-.386 1.191-.438 3.428l-.404-4.74h.668q.148-1.162.718-1.69.57-.53 1.52-.529 1.374 0 1.858 1.035.483 1.034.432 2.495l-.39 10.146h-2.413zm7.042 6.029q-.053.985.15 1.402.204.418.9.418h.493l-.082 2.554h-.536q-1.427 0-2.259-.42t-1.17-1.365-.234-2.556l.346-6.062q.026-.442-.15-.752-.178-.31-.614-.31-.77 0-1.166 1.182-.397 1.182-.444 3.436l-.483-4.74h.825q.196-1.188.783-1.703.588-.516 1.607-.516 1.416 0 1.933 1.02t.435 2.51zm-65.288-51.739L100.764 234h-2.621l.311-17.983zm5.268 0v2.387H93.16v-2.387zm11.184 9.861q.181-1.48-.117-2.323-.299-.843-1.518-.843-1.038 0-1.92.687t-1.466 2.128-.662 3.568l-.233-5.735h1.09l-.494.96q.105-1.297.727-2.205a3.8 3.8 0 0 1 1.609-1.35 5.2 5.2 0 0 1 2.154-.44q2.025 0 2.88 1.284.857 1.284.623 3.542l-.415 4.1q-.131 1.35.143 1.907.272.558 1.18.558h.545l-.078 2.414h-.545q-2.335 0-3.256-1.116t-.636-3.763zm-5.138-10.873-.7 18.995h-2.7l.701-18.995zm21.123 19.255q-1.945 0-3.049-.844-1.103-.843-1.44-2.245-.338-1.401-.104-3.191l.96-7.422h2.492l-.753 7.422q-.13 1.427-.026 2.231.105.805.61 1.22t1.57.415q.753 0 1.323-.182.571-.18 1.324-.648l1.038 2.05a9.2 9.2 0 0 1-1.856.882q-.92.311-2.089.311m-3.036-11.678q-.648 1.013-2.426 2.504-1.777 1.492-4.087 2.868l-1.48-2.076q2.543-1.532 4.425-2.933t2.868-2.387h.7zm.727-4.671q-.779 0-1.324-.545a1.8 1.8 0 0 1-.545-1.323q0-.779.545-1.324a1.8 1.8 0 0 1 1.324-.545q.779 0 1.323.545.546.545.545 1.324 0 .779-.545 1.323a1.8 1.8 0 0 1-1.323.545m15.518 16.35q-3.27 0-5.021-1.661-1.752-1.662-1.752-4.93 0-2.233.817-3.893.818-1.662 2.336-2.556 1.518-.896 3.568-.896 1.842 0 3.075.727a4.02 4.02 0 0 1 1.752 2.05l-2.05 1.557q-.468-.934-1.181-1.44t-1.674-.506q-1.764 0-2.841 1.284t-1.077 3.465 1.129 3.282 3.282 1.103q1.583 0 3.426-.597l.545 2.362q-1.74.648-4.334.648m19.462.001q-2.361 0-3.983-1.454t-2.4-4.204q3.788-1.972 3.788-4.281 0-.753-.402-1.181t-1.155-.428q-1.011 0-1.959.726-.947.727-1.57 2.09-.623 1.361-.674 3.152l-.052-4.541h.493q.18-1.713 1.323-2.764 1.142-1.05 2.855-1.05 1.816 0 2.841 1.193t1.025 2.984q0 1.687-.96 3.023t-2.803 2.349l-.389-1.946q.7 2.154 1.61 3.036.907.882 2.387.882.388 0 1.012-.052l.57 2.284a7 7 0 0 1-1.557.181m-7.862-19.255L157.62 234h-2.699l.7-18.995zm39.011 7.215v2.361h-12.664v-2.361zm0 5.812v2.362h-12.664v-2.362zm-.312-157.06v1.142h-12.04v-1.142zm0 5.554v1.141h-12.04v-1.141zm.52 259.278v3.166h-13.08v-3.166zm0 5.84v3.165h-13.08v-3.166zM69.636 186.87q1.577 0 2.472-.864.895-.865.895-2.441 0-1.612-.848-2.5-.848-.89-2.384-.889h-3.994l-.264-2.16h4.284q2.684 0 4.148 1.364 1.465 1.363 1.465 3.883 0 2.755-1.522 4.264-1.523 1.508-4.273 1.508h-4.046l.043-2.164zm-3.413-8.853L65.886 196H63.53l.311-17.983zm5.46 9.523 4.164 8.46H73.11l-3.974-8.46zm13.739 6.555q2.062 0 4.186-.934l.575 2.007q-1.08.53-2.353.81-1.272.281-2.556.281-3.097 0-4.729-1.656-1.63-1.656-1.63-4.603 0-2.247.828-3.985.83-1.737 2.38-2.714 1.548-.977 3.602-.977 2.02 0 3.28 1.011t1.26 2.834q0 2.174-2.41 3.422-2.412 1.248-6.788 1.355L80.614 189q3.488-.081 5.369-.813 1.88-.734 1.88-2.073 0-.812-.605-1.25t-1.592-.438q-1.346 0-2.37.678-1.026.679-1.588 1.908-.561 1.23-.561 2.848 0 1.954 1.069 3.095 1.068 1.14 3.206 1.141m13.681 6.938q-2.12 0-3.77-.783-1.648-.783-2.802-2.43l1.935-1.447q.66 1.068 1.913 1.793t2.851.724q1.041 0 1.854-.323.813-.324 1.262-.85t.45-1.15q0-.5-.31-.817-.308-.318-.954-.563-.645-.246-2.108-.647-3.066-.844-4.397-2.129-1.33-1.284-1.33-3.513 0-1.82.755-3.328.757-1.508 2.095-2.377 1.338-.87 3.04-.87 1.502 0 2.692.703 1.19.704 1.858 1.991.667 1.29.667 2.951 0 1.215-.428 2.27-.429 1.055-1.201 1.746-.774.692-1.752.86l.568-.482v1.226h-3.164v-.856a3.55 3.55 0 0 0 1.907-.824 4.8 4.8 0 0 0 1.328-1.75 5.1 5.1 0 0 0 .472-2.133q0-1.044-.387-1.851a3.03 3.03 0 0 0-1.071-1.258q-.685-.45-1.579-.45-1.008 0-1.777.584-.77.585-1.195 1.572t-.426 2.193q0 .999.396 1.649t1.314 1.112 2.565.885q1.835.458 2.837.939 1 .48 1.439 1.155.438.673.438 1.744 0 1.373-.756 2.45t-2.118 1.68q-1.36.604-3.111.604m7.778-17.957v2.18q-2.189 0-2.9-.726l.443-.108-.736.905-2.336-2.251zm6.429 13.183q-2.243 0-3.345-1.43t-1.103-4.34q0-1.631.297-3.596.295-1.965.94-4.57l2.44.425q-.665 2.748-.96 4.565-.293 1.816-.293 3.225 0 1.775.597 2.655.598.88 1.77.88 1.758 0 2.695-1.68.935-1.677 1.096-5.015l.443 5.315h-.804l.568-.694q-.304 1.427-.768 2.333a3.4 3.4 0 0 1-1.322 1.417q-.86.51-2.251.51m8.2-.13q-1.978 0-2.883-.86-.906-.86-.858-2.734l-.434-2.634.286-7.344h2.44l-.368 9.414q-.048 1.104.368 1.61t1.55.506h.483l-.073 2.042zm15.022-.437q-1.614.566-3.04.566-2.968 0-4.628-1.354-1.659-1.354-2.271-3.555t-.612-5.164q0-2.732.712-4.874t1.985-3.354 2.924-1.213q2.118 0 3.071 1.54.954 1.542.953 3.794 0 4.177-3.117 7.396t-8.921 4.996l-.634-2.075q3.444-1.055 5.742-2.555t3.445-3.487 1.146-4.48q0-1.29-.35-2.137-.351-.849-1.436-.849-.929 0-1.644.956-.716.956-1.106 2.588t-.39 3.624q0 2.136.385 3.885.384 1.75 1.527 2.942 1.142 1.191 3.23 1.191 1.272 0 2.475-.472zm8.304-13.369q2.84 0 4.134 1.317 1.293 1.315 1.195 3.79l-.191 4.541q-.048 1.104.365 1.608.413.503 1.553.508h.42l-.074 2.042h-.617q-1.956 0-2.777-.85-.82-.85-.773-2.744h-.452l.165-4.973q.057-1.526-.64-2.3-.696-.774-2.393-.774a9.6 9.6 0 0 0-1.893.207 11.4 11.4 0 0 0-1.978.587l-.665-2.07q1.057-.447 2.267-.668 1.21-.22 2.354-.22m2.219 11.166.775-.378q-.193 1.503-1.367 2.325t-3.094.822q-2.066 0-3.202-.983-1.137-.984-1.136-2.798 0-1.764 1.151-2.903 1.152-1.138 3.245-1.529 2.094-.39 4.838.026l.073 1.964q-1.84-.47-3.43-.321-1.588.148-2.523.845-.936.696-.936 1.812 0 .876.59 1.336.588.46 1.712.46 1.645 0 2.745-.928 1.1-.93 1.18-2.784l1.086 3.034zm18.535 2.743q-2.127 0-3.15-1.246-1.026-1.245-1.026-3.406 0-.537.062-1.222.06-.684.184-1.412l.852-5.036 1.666 1.11q-5.21 1.093-6.445-3.087h1.294q1.452 1.902 6.059.906l-.946 6.007a26 26 0 0 0-.198 1.556q-.066.704-.066 1.204 0 1.202.44 1.82.44.62 1.51.62.602 0 1.226-.186l.488 2.001q-.78.37-1.95.37m-12.697-5.518q2.241-1.23 3.038-3.168.798-1.94.576-4.695l-.083-.918h1.966q.699 3.53-.239 6.289t-3.922 4.402zM37.99 158.26q-1.464 0-2.748-.227a11.5 11.5 0 0 1-2.412-.694l.27-1.894q1.362.543 2.608.815 1.246.273 2.466.273 1.807 0 2.98-.645 1.17-.645 1.17-2.296 0-1.808-1.78-2.706l-3.961-2.022q-1.552-.79-2.302-1.826t-.75-2.498q0-2.44 1.465-3.61 1.465-1.173 3.97-1.173 1.736 0 3.105.525 1.368.526 2.535 1.653l-1.302 1.314q-1.13-.909-2.227-1.337a6 6 0 0 0-2.201-.428q-1.602 0-2.527.702t-.925 2.251q0 .897.455 1.508.455.612 1.415 1.092l3.56 1.788q1.746.868 2.619 2.002.873 1.135.873 2.688 0 2.62-1.764 3.682t-4.591 1.062M55 156.494q2.13 0 4.245-.935l.491 1.65q-1.063.507-2.315.778-1.25.272-2.51.272-3.113 0-4.715-1.694-1.602-1.695-1.602-4.667 0-2.23.804-3.943.804-1.71 2.34-2.671 1.538-.96 3.641-.96 1.918 0 3.183.986 1.265.984 1.265 2.775 0 2.113-2.454 3.298-2.453 1.185-7 1.343l-.427-1.626q3.879-.13 5.92-.897 2.043-.767 2.042-2.184 0-.964-.737-1.466-.737-.501-1.816-.501-1.524 0-2.643.708-1.117.708-1.71 2-.59 1.294-.59 3.022 0 2.201 1.123 3.456 1.125 1.256 3.466 1.256M64.799 158h-1.906l.48-13.442h1.584l.205 3.477zm3.61-10.299q.04-.718-.221-1.222-.26-.504-.94-.504-1.003 0-1.563 1.462-.561 1.463-.666 4.257l-.217-4.769h.516q.17-1.339.767-1.97.597-.63 1.636-.63 1.455 0 1.987 1.011.533 1.013.468 2.517L69.786 158h-1.752zm6.479 6.678q-.052 1.063.188 1.525.24.46.995.46h.584l-.064 1.766h-.625q-1.149 0-1.828-.39-.677-.388-.956-1.21-.279-.82-.188-2.151l.404-6.678q.039-.705-.216-1.216-.255-.51-.92-.51-1.015 0-1.57 1.39-.553 1.389-.672 4.078l-.215-4.703h.54q.22-1.245.83-1.83.611-.585 1.675-.586 1.428 0 1.967 1.025t.448 2.505zm13.414 3.881q-2.118 0-3.194-1.023-1.077-1.021-1.321-2.588-.245-1.567.015-3.57l.841-6.521h1.777l-.686 6.522q-.182 1.784-.086 2.913.098 1.128.729 1.808.632.68 2.026.68.7 0 1.317-.208.618-.208 1.33-.688l.813 1.547a7.7 7.7 0 0 1-1.696.836 5.7 5.7 0 0 1-1.865.291m-3.036-12.313q-.82 1.078-3.1 2.914t-4.035 2.868l-1.056-1.494a51 51 0 0 0 4.233-2.9q2.193-1.66 3.271-2.777h.727zm.25-4.645q-.645 0-1.104-.452a1.5 1.5 0 0 1-.46-1.099q0-.645.46-1.105a1.5 1.5 0 0 1 1.105-.458q.646 0 1.105.458.46.46.46 1.105 0 .647-.46 1.099a1.52 1.52 0 0 1-1.105.452m20.619 16.401q-1.622.558-3.05.557-2.89 0-4.525-1.409t-2.25-3.649q-.617-2.24-.617-5.117 0-2.698.687-4.819t1.939-3.32 2.885-1.2q2.101 0 3.042 1.557.94 1.558.94 3.803 0 4.083-3.1 7.235-3.101 3.15-8.887 4.901l-.515-1.7q3.478-1.039 5.848-2.577 2.37-1.54 3.572-3.551t1.202-4.463q0-1.458-.444-2.455t-1.708-.997q-1.054 0-1.869.994-.813.993-1.25 2.715-.436 1.722-.436 3.84 0 2.289.423 4.128t1.659 3.072 3.485 1.234q1.271 0 2.491-.48zm12.58.558q-2.118 0-3.195-1.023-1.076-1.021-1.32-2.588-.246-1.567.014-3.57l.841-6.521h1.777l-.686 6.522q-.183 1.784-.086 2.913t.73 1.808q.63.68 2.026.68.699 0 1.317-.208.616-.208 1.33-.688l.813 1.547a7.7 7.7 0 0 1-1.697.836 5.7 5.7 0 0 1-1.864.291m-3.036-12.313q-.82 1.078-3.101 2.914-2.28 1.836-4.034 2.868l-1.056-1.494a51 51 0 0 0 4.232-2.9q2.193-1.66 3.271-2.777h.727zm.25-4.645q-.646 0-1.105-.452a1.5 1.5 0 0 1-.46-1.099q0-.645.46-1.105a1.5 1.5 0 0 1 1.105-.458q.647 0 1.106.458.459.46.459 1.105 0 .647-.46 1.099a1.52 1.52 0 0 1-1.105.452m13.586 21.733q-2.061 0-3.689-.791-1.627-.792-2.756-2.413l1.546-1.16q.769 1.171 2.06 1.891 1.293.72 2.915.72 1.186 0 2.083-.344.898-.345 1.386-.93t.488-1.302q0-.56-.352-.958-.351-.399-1.107-.712-.757-.313-2.236-.689-2.982-.776-4.278-2.06t-1.296-3.464q0-1.776.739-3.268.738-1.49 2.035-2.36 1.296-.87 2.929-.87 1.452 0 2.612.708 1.161.706 1.815 1.978.655 1.27.655 2.892 0 1.299-.475 2.43t-1.307 1.853-1.845.863l.61-.507v1.1h-2.79v-.764q.983-.09 1.906-.743.924-.654 1.498-1.745t.574-2.422q0-1.145-.43-2.03-.429-.885-1.177-1.372t-1.71-.488q-1.094 0-1.938.63-.846.632-1.314 1.691-.47 1.06-.469 2.334 0 1.065.41 1.788.408.722 1.343 1.223.934.5 2.556.888 1.869.441 2.922.948 1.052.506 1.507 1.202.455.694.455 1.731 0 1.323-.74 2.352-.738 1.03-2.074 1.6t-3.06.57m7.719-17.957v1.765q-2.528 0-3.214-.633l.494-.117-.66.855-1.92-1.87zm11.287 4.735q.182-1.758-.328-2.74-.51-.981-1.863-.982-1.183 0-2.205.807-1.02.807-1.69 2.485t-.748 4.163l-.247-5.722h1.05l-.493.96q.13-1.35.8-2.364a4.5 4.5 0 0 1 1.714-1.554 4.9 4.9 0 0 1 2.28-.54q1.957 0 2.907 1.33.949 1.33.742 3.655l-.416 4.55q-.116 1.322.176 1.914.293.59 1.148.59h.717l-.065 1.766h-.756q-1.833 0-2.583-1.03-.749-1.03-.53-3.24zm-6.29-10.807-.7 18.995h-1.918l.7-18.995zm20.557 19.255q-2.099-.001-3.271-.986-1.173-.987-1.458-2.982-.092-.728-.104-1.506-.014-.779.052-2.094l.362-10.182h1.932l-.35 10.042a43 43 0 0 0-.065 2.118q0 .84.079 1.428.156 1.185.878 1.784.72.6 1.995.6a7.4 7.4 0 0 0 1.681-.17q.72-.168 1.669-.611l.58 1.624q-.946.442-1.886.688a8.3 8.3 0 0 1-2.094.246m3.186-13.183v1.765h-11.61v-1.765zm-70.112-43.059L95.553 120h-1.427l.311-17.983zm9.673 16.634V120H94.645l.026-1.35zm13.442 1.609q-2.229 0-3.288-1.137-1.059-1.136-1.245-2.81-.185-1.671.092-3.81l.765-5.945h1.318l-.644 5.945q-.216 2.015-.123 3.35.092 1.336.805 2.186.712.85 2.319.85a4 4 0 0 0 1.312-.226 5.4 5.4 0 0 0 1.335-.714l.669 1.225a6.8 6.8 0 0 1-1.595.807 5.3 5.3 0 0 1-1.72.278m-3.036-12.72q-.93 1.12-3.534 3.177-2.602 2.057-4 2.868l-.784-1.121q1.717-1.053 4.11-2.878 2.39-1.825 3.529-3.028h.744zm-.055-4.628q-.561 0-.965-.393a1.28 1.28 0 0 1-.404-.954q0-.561.404-.965.403-.404.965-.404t.965.404q.405.403.404.965 0 .561-.404.954t-.965.393m13.628 22.123q-2.001 0-3.608-.8-1.606-.8-2.71-2.396l1.156-.87a6.26 6.26 0 0 0 2.21 1.988q1.33.715 2.978.715 1.328 0 2.312-.365.983-.366 1.508-1.01.526-.646.526-1.456 0-.618-.394-1.097-.394-.48-1.26-.86-.867-.382-2.363-.732-2.897-.708-4.16-1.993-1.262-1.284-1.262-3.412 0-1.734.722-3.208t1.976-2.344a4.83 4.83 0 0 1 2.819-.87q1.401 0 2.531.712T134.27 109t.642 2.833q0 1.385-.521 2.592-.523 1.208-1.413 1.958-.892.75-1.94.867l.654-.532v.972h-2.418v-.67q.917-.064 1.907-.663.992-.599 1.667-1.74.675-1.144.676-2.71 0-1.248-.472-2.208-.471-.96-1.283-1.487a3.3 3.3 0 0 0-1.842-.526q-1.177 0-2.1.677-.92.678-1.432 1.81a5.9 5.9 0 0 0-.51 2.473q0 1.133.421 1.928.423.795 1.374 1.333.951.54 2.547.893 1.903.424 3.007.956 1.103.532 1.575 1.248.471.716.471 1.72 0 1.27-.722 2.254-.722.983-2.032 1.52-1.31.535-3.01.535m7.66-17.957v1.35q-2.868 0-3.529-.54l.545-.126-.583.804-1.505-1.488zm11.72 4.693q.181-1.935-.464-3.006-.646-1.072-2.083-1.072-1.277 0-2.387.883-1.11.884-1.835 2.714-.724 1.832-.803 4.545l-.255-5.713h1.024l-.493.96q.147-1.383.847-2.466a5 5 0 0 1 1.782-1.686 4.77 4.77 0 0 1 2.36-.604q1.916 0 2.924 1.36 1.008 1.362.818 3.728l-.415 4.838q-.108 1.305.197 1.918.305.612 1.127.612h.827l-.056 1.35h-.893q-1.51 0-2.15-.975t-.461-2.905zm-7.027-10.764-.7 18.995h-1.418l.7-18.995zm21.107 19.255q-1.962 0-3.088-.978-1.125-.978-1.412-2.906a14 14 0 0 1-.112-1.522 37 37 0 0 1 .06-2.255l.346-10.09h1.44l-.342 10.043q-.073 1.464-.065 2.22t.104 1.453q.173 1.312.95 1.988t2.101.675q.996 0 1.737-.177.743-.177 1.716-.654l.452 1.268q-.92.442-1.84.688a8 8 0 0 1-2.047.246m3-13.183v1.35h-11.534v-1.35zm-50.395-43.059L115.244 82h-1.194l.337-17.983zm5.657 0v1.141h-12.56v-1.141zm12.638 9.731q.181-2.024-.532-3.14t-2.193-1.116q-1.323 0-2.478.921t-1.907 2.829-.83 4.736l-.26-5.71h1.012l-.493.96a5.8 5.8 0 0 1 .869-2.516 5.25 5.25 0 0 1 1.816-1.752 4.7 4.7 0 0 1 2.4-.636q1.896 0 2.933 1.376 1.038 1.375.857 3.762l-.416 4.983q-.104 1.297.208 1.92t1.116.623h.882l-.052 1.142h-.96q-1.35 0-1.933-.947-.584-.948-.428-2.738zm-7.396-10.743L125.78 82h-1.168l.7-18.995zm23.044 19.255q-2.284 0-3.335-1.194-1.05-1.194-1.207-2.92-.155-1.725.13-3.931l.727-5.657h1.09l-.623 5.657q-.233 2.128-.143 3.568t.843 2.374 2.466.935q.649 0 1.31-.234a5.2 5.2 0 0 0 1.337-.726l.596 1.063a6.4 6.4 0 0 1-1.544.792 5 5 0 0 1-1.647.272m-3.037-12.924q-.986 1.142-3.75 3.309-2.763 2.167-3.983 2.867l-.648-.934q1.557-.96 4.048-2.867t3.659-3.153h.752zm-.207-4.619q-.52 0-.895-.363a1.18 1.18 0 0 1-.377-.882q0-.52.377-.896.375-.376.895-.376.519 0 .895.376.376.377.376.896t-.376.882-.895.363m18.01 9.032q.18-2.024-.533-3.14t-2.193-1.116q-1.323 0-2.478.921t-1.92 2.829-.843 4.736l-.234-5.71h1.012l-.493.96a5.8 5.8 0 0 1 .87-2.516 5.25 5.25 0 0 1 1.816-1.752 4.7 4.7 0 0 1 2.4-.636q1.894 0 2.933 1.376t.856 3.762l-.415 4.983q-.104 1.297.207 1.92.312.623 1.116.623h.882l-.051 1.142h-.96q-1.35 0-1.934-.947-.584-.948-.428-2.738zm-7.838-5.19.078 4.1-.337 9.342h-1.194l.493-13.442zM218.98 348v-3.08h3.205q1.372 0 2.13-.646.76-.646.76-1.811 0-1.154-.799-1.787-.798-.633-2.268-.633h-2.978l-.304-1.343h4.967q2.344 0 3.618 1.138 1.273 1.14 1.273 3.22 0 2.357-1.475 3.65T222.92 348zm-3.168 0v-17.993h3.345V348zm2.306-8.844v-1.242h4.992v1.242zm.862-.862v-1.343h2.445q1.18 0 1.78-.513.603-.513.602-1.514 0-.913-.64-1.375-.639-.463-1.92-.463h-2.217l-.304-3.079h2.648q2.84 0 4.392 1.159 1.551 1.158 1.551 3.301 0 1.839-1.201 2.833t-3.411.994zm17.828 9.959q-2.902 0-4.499-1.824t-1.596-5.145q0-3.332 1.596-5.15 1.597-1.82 4.499-1.819 2.902 0 4.498 1.819t1.596 5.15q0 3.32-1.596 5.145t-4.498 1.824m.006-3.256q1.236 0 1.907-.97t.671-2.744q0-1.785-.672-2.748-.673-.963-1.912-.963-1.23 0-1.907.964-.678.964-.678 2.748 0 1.774.678 2.744.678.969 1.913.969m17.201 3.256q-2.534 0-3.656-1.393-1.12-1.394-1.121-4.46v-13.406h3.42v13.279q0 .836.178 1.368.179.533.684.786.507.253 1.508.253 1.115 0 2.813-.481l.393 3.522q-1.077.279-2.078.406-1 .126-2.141.126m-8.579-16.104v-3.155h4.03v3.155zm20.451 16.104q-2.496 0-3.883-1.799-1.388-1.8-1.388-5.157 0-3.332 1.388-5.157 1.387-1.824 3.909-1.825 1.47 0 2.236.666.767.665.995 2.02h1.115l-.786 4.296q0-1.95-.652-2.85-.653-.9-1.97-.9-1.305 0-2.015.981-.71.982-.71 2.769 0 1.85.69 2.788.692.937 2.034.937 1.47 0 2.047-.887.576-.887.576-2.838l.912 4.27h-1.19q-.203 1.344-1.052 2.015-.849.672-2.256.671m4.08-.126-.494-2.661v-16.472h3.434V348zm-48.985-56.874q-1.533 0-2.935-.254a12.2 12.2 0 0 1-2.542-.734l.406-3.076q1.394.587 2.738.902t2.535.314q1.524 0 2.301-.537.779-.537.778-1.584 0-1.35-1.548-2.068l-2.798-1.32q-1.883-.897-2.906-2.197t-1.024-3.003q0-2.358 1.503-3.65t4.252-1.292q1.72 0 3.171.562a8.1 8.1 0 0 1 2.66 1.706l-2.093 2.309q-.97-.867-1.89-1.302a4.3 4.3 0 0 0-1.835-.434q-1.191 0-1.85.536-.66.536-.66 1.567 0 .707.45 1.247t1.302.97l2.514 1.25q1.941.968 2.976 2.23a4.45 4.45 0 0 1 1.035 2.907q0 2.415-1.67 3.683t-4.87 1.268m16.931 0q-3.468 0-5.354-1.805-1.887-1.806-1.887-5.189 0-3.295 1.602-5.119t4.523-1.825q2.815 0 4.354 1.671 1.538 1.671 1.538 4.857 0 .918-.078 1.731h-9.683v-2.25h6.766q0-1.536-.759-2.359-.759-.82-2.112-.821-1.49 0-2.313 1.04-.822 1.04-.822 2.948 0 2.072 1.178 3.152t3.35 1.08q.884 0 1.74-.095.855-.095 1.745-.26l.33 2.89a19 19 0 0 1-2.285.291 30 30 0 0 1-1.833.063m17.315-.253v-9.564q0-1.395-.902-1.394-1.074 0-1.074 1.635l-.912-2.436h1.1q.093-.853.672-1.39t1.583-.536q1.37 0 2 .748.63.747.63 2.42V291zm-9.528 0v-13.431h2.8l.304 2.838V291zm5.111 0v-9.817q0-1.14-.912-1.14-1.095 0-1.095 1.634l-.785-2.436h.922q.228-1.926 2.147-1.926 1.008 0 1.586.723.578.722.578 2.192V291zm15.73 0v-12.67h3.127V291zm-5.028 0v-2.843h5.281V291zm7.902 0v-2.843h4.293V291zm-7.141-10.588v-2.843h7.394v2.843zm5.704-4.782q-.894 0-1.48-.585-.585-.586-.585-1.48 0-.9.585-1.483.586-.582 1.48-.583.9 0 1.482.583.584.583.583 1.483 0 .894-.583 1.48-.582.585-1.482.585m12.506 15.623q-.944 0-1.86-.07a43 43 0 0 1-1.868-.183l1.169-3.028a4.1 4.1 0 0 0 1.482.373q.81.057 1.61.057 2.238 0 3.463-1.308 1.224-1.308 1.225-3.697 0-1.55-.706-2.39t-2.006-.84q-3.102 0-3.102 3.281l-.785-3.446h1.1q.28-2.687 3.233-2.687 2.595 0 4.016 1.584t1.42 4.498q0 3.738-2.19 5.797-2.192 2.06-6.2 2.06m-3.728-.253v-19.006h3.135v18.778zm20.871.252q-2.856 0-4.432-1.824t-1.577-5.145q0-3.332 1.577-5.15 1.576-1.82 4.432-1.819 2.862 0 4.435 1.819t1.573 5.15q0 3.32-1.573 5.145t-4.435 1.824m.004-2.917q1.334 0 2.059-1.058.724-1.058.724-2.995 0-1.947-.725-3-.725-1.05-2.062-1.05-1.33 0-2.06 1.052-.728 1.051-.728 3 0 1.935.729 2.993.728 1.059 2.063 1.058m17.203 2.917q-2.453 0-3.542-1.343t-1.088-4.298v-13.618h3.127v13.492q0 .927.188 1.515.187.587.727.867.54.279 1.602.278 1.09 0 2.762-.481l.357 3.056q-1.056.279-2.035.406-.978.126-2.098.126m-8.492-16.424v-2.835h4.09v2.835zm20.487 16.424q-2.553.001-3.93-1.774-1.377-1.773-1.377-5.136 0-3.399 1.377-5.213t3.944-1.815q1.486 0 2.323.683t1.04 2.004h1.085l-.786 4.108q0-2.002-.718-2.973-.718-.97-2.143-.97-1.431 0-2.192 1.075-.76 1.075-.76 3.1 0 2.013.749 3.037.749 1.023 2.203 1.023 1.515 0 2.188-.963t.673-2.965l.913 4.093h-1.181q-.172 1.313-1.06 2-.886.686-2.349.686m4.084-.126-.408-2.651v-16.482h3.135V291zM220.982 183.253q-1.491 0-2.8-.236a11.8 11.8 0 0 1-2.446-.71l.279-2.116q1.364.555 2.652.84a11.6 11.6 0 0 0 2.517.288q1.964 0 2.93-.684.964-.685.964-2.074 0-1.779-1.765-2.631l-3.696-1.804q-1.65-.785-2.525-1.886t-.875-2.713q0-2.31 1.384-3.542 1.383-1.23 3.993-1.231 1.761 0 3.147.53t2.614 1.687l-1.457 1.474q-1.136-.908-2.169-1.332a5.5 5.5 0 0 0-2.122-.425q-1.546 0-2.361.69-.816.691-.815 2.064 0 .917.481 1.514.481.598 1.42 1.058l3.26 1.605q1.828.884 2.764 2.04.936 1.158.936 2.868 0 2.365-1.567 3.546t-4.743 1.18m16.995 0q-3.383 0-5.228-1.828-1.845-1.83-1.846-5.217 0-3.277 1.558-5.085 1.56-1.808 4.401-1.808 2.67 0 4.133 1.635t1.464 4.7q0 .854-.076 1.521h-9.668v-1.748h7.716q0-1.995-.935-3.07-.936-1.078-2.608-1.078-1.868 0-2.895 1.271-1.029 1.272-1.029 3.586 0 2.496 1.388 3.829t3.93 1.333q.794 0 1.613-.095.82-.095 1.622-.26l.283 1.96q-1.034.207-2.013.28-.978.075-1.81.074m17.93-.253v-10.263q0-1.682-1.31-1.682-1.625 0-1.626 2.112l-.912-1.926h.989q.11-.849.698-1.387.59-.54 1.662-.539 1.386 0 2.036.763.65.762.65 2.405V183zm-9.976 0v-13.431h1.926l.262 2.838V183zm5.123 0v-10.517q0-1.428-1.33-1.428-1.605 0-1.605 2.112l-.786-1.926h.84q.255-1.926 2.429-1.926 1.136 0 1.753.723.616.722.616 2.192V183zm15.956 0v-12.722h2.189V183zm-5.266 0v-1.951h5.524V183zm7.197 0v-1.951h4.536V183zm-6.437-11.48v-1.951h6.695v1.951zm5.49-4.481q-.688 0-1.18-.49a1.6 1.6 0 0 1-.492-1.177q0-.698.492-1.186a1.62 1.62 0 0 1 1.18-.488q.697 0 1.186.488.487.487.487 1.186 0 .687-.487 1.177-.488.49-1.187.49m16.727 16.214q-2.314 0-3.385-1.235t-1.07-3.875v-14.15h2.187v14.065q0 1.102.264 1.81t.915 1.05 1.807.342q1.044 0 2.64-.444l.25 1.947q-.926.258-1.777.374-.85.117-1.83.116m-8.557-17.308v-1.951h4.33v1.95zM297.421 183v-12.722h2.188V183zm-5.267 0v-1.951h5.525V183zm7.197 0v-1.951h4.536V183zm-6.437-11.48v-1.951h6.695v1.951zm5.49-4.481q-.687 0-1.18-.49a1.6 1.6 0 0 1-.492-1.177q0-.698.492-1.186a1.62 1.62 0 0 1 1.181-.488q.697 0 1.185.488.488.487.488 1.186 0 .687-.488 1.177t-1.186.49m9.234 22.018-.101-2.01 4.18-.136q2.244-.076 3.268-1.246t1.033-3.45v-9.723l.21-2.923h1.977v12.24q0 3.585-1.61 5.294-1.613 1.71-5.13 1.827zm4.27-5.804q-2.636 0-3.998-1.736t-1.362-5.106q0-3.497 1.369-5.296 1.367-1.8 4.016-1.8 1.686 0 2.718.748 1.034.748 1.248 2.133h.989l-.87 3.763q0-2.331-.923-3.533t-2.714-1.201q-1.8 0-2.726 1.311-.927 1.311-.927 3.875 0 2.433.929 3.683.93 1.25 2.732 1.25 1.788 0 2.708-1.201t.92-3.53l.913 3.71h-1.12q-.19 1.372-1.19 2.151-1.002.78-2.712.78m19.315-.254v-8.76q0-1.449-.74-2.232-.738-.783-2.065-.783-3.565 0-3.565 4.206l-.794-3.43h.997q.199-1.355 1.126-2.02.927-.666 2.62-.666 2.201 0 3.405 1.293t1.204 3.649V183zm-8.557 0v-19.006h2.187V183zm23.01.253q-2.826 0-4.127-1.298t-1.3-4.066v-2.238h2.187v2.154q0 1.778.835 2.616.834.84 2.658.839.685 0 1.386-.07t1.533-.188l.25 1.947q-.863.153-1.682.228t-1.74.076m-5.427-6.588v-11.15h2.187v11.15zm-3.62-5.145v-1.951h11.961v1.951zM216.23 133v-17.993h1.673V133zm0 0v-1.563h11.505V133zm20.62 0v-12.772h1.69V133zm-5.415 0v-1.546h5.677V133zm6.842 0v-1.546h4.689V133zm-6.082-11.885v-1.546h6.344v1.546zm5.366-4.477q-.602 0-1.034-.43a1.4 1.4 0 0 1-.433-1.03q0-.61.432-1.04.432-.432 1.038-.432t1.039.431q.43.431.43 1.042 0 .6-.43 1.03a1.42 1.42 0 0 1-1.042.429m9.358 22.419-.076-1.563 4.055-.144q2.445-.089 3.569-1.364 1.123-1.275 1.127-3.772v-9.638l.17-3.007h1.52v12.24q0 3.586-1.588 5.292-1.59 1.707-5.052 1.829zm4.27-5.804q-2.636 0-3.998-1.736t-1.362-5.106q0-3.497 1.375-5.296t4.036-1.8q1.8 0 2.889.786 1.09.786 1.355 2.29h.938l-.828 3.7q0-2.586-1.028-3.912-1.03-1.326-3.026-1.326-1.977 0-2.995 1.406-1.018 1.407-1.018 4.152 0 2.61 1.022 3.958 1.022 1.347 3.008 1.347 1.989 0 3.013-1.326t1.024-3.903l.913 3.59h-1.073q-.254 1.478-1.312 2.327-1.058.85-2.933.85M270.8 133v-8.777q0-1.618-.845-2.494-.846-.876-2.357-.876-3.962 0-3.962 4.561l-.802-3.412h.954q.284-1.356 1.263-2.021.98-.666 2.682-.666 2.272 0 3.514 1.293t1.242 3.649V133zm-8.853 0v-19.006h1.689V133zm22.909.253q-2.598 0-3.838-1.33t-1.24-4.076v-2.196h1.69v2.154q0 1.96.89 2.914.889.955 2.751.955.735 0 1.428-.07.692-.069 1.444-.192l.194 1.537q-.836.153-1.632.228t-1.687.076m-5.077-6.588v-11.15h1.69v11.15zm-3.869-5.55v-1.546h11.759v1.546zM216.331 82V64.007h1.191V82zm0 0v-1.14h11.303V82zm0-8.439v-1.14h9.022v1.14zm0-8.413v-1.14h11.303v1.14zM230.852 82l5.6-7.096 4.816-6.335h1.495l-5.55 7.197L232.347 82zm10.416 0-4.828-6.297-5.588-7.134h1.495l4.879 6.272L242.763 82zm13.177.253q-2.37 0-3.547-1.362-1.179-1.362-1.179-4.086V74.65h1.191v2.154q0 2.14.944 3.212.945 1.07 2.845 1.07a14.5 14.5 0 0 0 2.825-.265l.14 1.127q-.81.153-1.584.228-.772.076-1.635.076m-4.726-6.588v-11.15h1.191v11.15zm-4.118-5.956v-1.14h11.556v1.14zm19.957 6.514-.786-4.207h.887q.583-3.7 4.093-3.7 2.184 0 3.17 1.191t.986 3.852h-1.216q0-2.052-.707-2.965-.706-.912-2.284-.912-2.087 0-3.115 1.754-1.028 1.753-1.028 4.987M260.933 82v-1.14h8.667V82zm3.434 0V68.569h.937l.254 3.852V82zm-2.927-12.29v-1.141h3.434v1.14zm24.505 12.417-.215-5.297-.076.317v-2.876q0-2.421-1.185-3.504t-3.82-1.121l-2.661-.038.253-1.166 2.408.038q3.27.051 4.745 1.464 1.476 1.412 1.476 4.491v6.602l2.32.165V82zm-5.448.126q-1.989 0-3.073-.912t-1.083-2.56q0-2.115 1.45-3.16 1.452-1.046 4.353-1.046 1.42 0 2.648.12 1.23.12 1.888.374l-.114 1.026q-.81-.316-2.078-.367a60 60 0 0 0-2.407-.05q-4.524 0-4.524 3.015 0 1.153.773 1.774.773.62 2.167.62 1.47 0 2.635-.5 1.166-.5 1.844-1.356a3.03 3.03 0 0 0 .678-1.932v-1.584l.95 3.447h-1.115l.216-.254q-.102.951-.811 1.704-.71.754-1.844 1.198t-2.553.443m20.02 0q-2.28 0-3.415-1.172-1.134-1.172-1.134-3.516V62.994h1.191v14.571q0 1.179.387 1.958.386.78 1.159 1.172.772.393 1.939.393 1.026 0 2.546-.368l.14 1.128a10 10 0 0 1-1.388.31q-.664.095-1.425.095m-8.946-18.119v-1.14h4.625v1.14zM313.124 82V69.177h1.191V82zm-5.562 0v-1.14h5.828V82zm6.487 0v-1.14h4.84V82zm-5.727-12.29v-1.141h5.993v1.14zm5.242-4.474q-.515 0-.89-.367a1.2 1.2 0 0 1-.373-.883q0-.524.372-.897.373-.375.895-.374.52 0 .893.374.375.374.374.897 0 .516-.374.883t-.897.367m9.482 22.821-.051-1.115 3.928-.152q2.648-.102 3.871-1.483 1.223-1.38 1.223-4.093V71.66l.126-3.091h1.065v12.24q0 3.585-1.565 5.29-1.565 1.704-4.973 1.83zm4.27-5.804q-2.636 0-3.998-1.736t-1.362-5.106q0-3.497 1.381-5.296 1.38-1.8 4.055-1.8 1.912 0 3.06.824 1.146.824 1.463 2.445h.887l-.785 3.637q0-2.838-1.134-4.29-1.135-1.45-3.34-1.45-2.153 0-3.262 1.502-1.109 1.5-1.109 4.428 0 2.788 1.115 4.232 1.116 1.445 3.282 1.445 2.193 0 3.32-1.451 1.128-1.45 1.128-4.277l.912 3.472h-1.026q-.318 1.584-1.432 2.503-1.115.918-3.155.918M347.222 82v-8.794q0-1.786-.95-2.756-.951-.969-2.649-.969-4.359 0-4.359 4.916l-.81-3.395h.912q.368-1.356 1.4-2.021 1.032-.666 2.743-.666 2.344 0 3.624 1.293t1.28 3.649V82zm-9.149 0V62.994h1.191V82zm22.808.253q-2.37 0-3.548-1.362t-1.178-4.086V74.65h1.19v2.154q0 2.14.945 3.212.944 1.07 2.844 1.07a14.5 14.5 0 0 0 2.826-.265l.14 1.127q-.812.153-1.584.228-.773.076-1.635.076m-4.726-6.588v-11.15h1.19v11.15zm-4.118-5.956v-1.14h11.556v1.14zm-133.805 157.45v-2.408h3.725q1.509 0 2.35-.798.843-.798.843-2.243 0-1.584-.842-2.439-.843-.855-2.35-.855h-3.675l-.304-2.408h3.978q2.801 0 4.327 1.42 1.527 1.419 1.527 4.029 0 2.711-1.527 4.206t-4.327 1.496zM215.774 234v-17.993h2.635V234zm9.655 0-4.03-8.464h2.788L228.47 234zm12.544.253q-3.433 0-5.302-1.805-1.87-1.806-1.87-5.189 0-3.295 1.584-5.119 1.584-1.825 4.473-1.825 2.724 0 4.213 1.648 1.49 1.646 1.49 4.79 0 .924-.077 1.722h-9.427v-2.052h7.07q0-1.812-.861-2.782-.863-.969-2.382-.969-1.71 0-2.655 1.166t-.944 3.294q0 2.332 1.299 3.548t3.693 1.217q.837 0 1.648-.095t1.647-.26l.33 2.357q-1.192.228-2.18.291a28 28 0 0 1-1.749.063m8.743 5.804-.126-2.459 4.308-.126q2.04-.063 2.965-1.128t.937-3.13v-9.807l.254-2.838h2.432v12.24q0 3.585-1.634 5.296-1.635 1.71-5.208 1.825zm4.27-5.804q-2.636 0-3.997-1.736-1.362-1.736-1.362-5.106 0-3.497 1.362-5.296t3.997-1.8q1.572 0 2.547.71t1.14 1.977h1.04l-.913 3.826q0-2.078-.817-3.155t-2.401-1.077q-1.621 0-2.458 1.217-.837 1.215-.837 3.598 0 2.256.837 3.409.836 1.153 2.458 1.153 1.584 0 2.401-1.077t.817-3.155l.913 3.826h-1.166q-.128 1.267-1.07 1.977-.945.71-2.49.71m14.913-.001q-2.116 0-3.275-1.26-1.16-1.26-1.16-3.555v-8.87h2.686v8.87q0 1.155.66 1.78.658.628 1.85.628 1.47 0 2.217-.931t.747-3.124l.684 3.624h-.887q-.316 1.369-1.241 2.103t-2.281.735m3.953-.126-.228-3.219v-2.357h2.686v3.016l1.85.279V234zm-.228-3.928v-9.63h2.686v8.87zm14.8 4.054q-2.332 0-3.37-1.267-1.04-1.266-1.04-4.054v-13.938h2.687v13.81q0 1.066.202 1.737.203.671.792.988.59.317 1.742.317 1.053 0 2.687-.482l.304 2.357q-1.026.279-1.97.406-.945.126-2.034.126m-8.363-16.903v-2.356h4.181v2.356zm24.328 16.777-.177-3.979-.355-1.115v-3.472q0-1.343-.944-1.97-.945-.627-2.807-.678l-3.218-.089.253-2.382 2.712.038q3.332.05 4.948 1.438 1.615 1.388 1.615 4.049v5.6l2.281.279V234zm-4.739.126q-2.103 0-3.256-1.013t-1.153-2.864q0-2.13 1.59-3.269t4.492-1.14q1.203 0 2.148.145.943.146 1.678.437l-.557 1.825a9 9 0 0 0-1.66-.222 43 43 0 0 0-1.66-.031q-3.497 0-3.497 2.128 0 .888.602 1.369.602.48 1.704.481 1.254 0 2.097-.43.843-.432 1.26-1.103.42-.672.419-1.381v-1.47l.786 3.447h-1.065l.431-.406q0 1.166-.538 1.945-.54.78-1.515 1.166-.975.387-2.306.386m16.269-6.031-.785-4.207h1.04q.226-3.7 3.699-3.7 2.077 0 3.016 1.191.937 1.191.937 3.852h-2.66q0-1.47-.438-2.116-.436-.645-1.413-.646-1.71 0-2.553 1.464-.842 1.463-.842 4.162M306.245 234v-2.357h8.971V234zm2.99 0v-13.431h2.18l.507 3.852V234zm-2.483-11.074v-2.357h4.485l.254 2.357z"/><path fill="#8e8e93" d="M98.123 37.189c2.016 0 3.323-.96 4.142-2.63l-1.953-1.134c-.331.898-1.008 1.638-2.19 1.638-1.401 0-2.33-.945-2.33-2.678v-1.764c0-1.732.929-2.677 2.33-2.677 1.182 0 1.765.614 2.048 1.527l2.063-1.07c-.803-1.765-2.094-2.584-4.11-2.584-2.961 0-4.867 2.048-4.867 5.765s1.906 5.607 4.867 5.607M113.726 37l-3.576-10.994h-2.96L103.566 37h2.425l.788-2.614h3.67l.787 2.614zm-3.86-4.646h-2.52l1.214-4.174h.078zM123.39 37v-2.126h-5.086v-2.379h4.362v-2.11h-4.362v-2.252h5.087v-2.126h-7.481V37zm6.296.189c2.74 0 4.284-1.465 4.284-3.575 0-1.89-1.087-2.898-3.34-3.26l-1.086-.174c-.914-.142-1.307-.425-1.307-1.181 0-.662.52-1.071 1.59-1.071 1.134 0 1.843.425 2.363 1.04l1.59-1.607c-.897-.992-2.157-1.544-3.811-1.544-2.583 0-4.126 1.37-4.126 3.34 0 1.842 1.055 2.976 3.37 3.275l1.087.142c1.024.142 1.276.583 1.276 1.181 0 .804-.567 1.323-1.733 1.323-1.071 0-2.016-.425-2.756-1.26l-1.575 1.591c.945 1.04 2.252 1.78 4.174 1.78M141.414 37v-1.906h-1.417v-7.182h1.417v-1.905h-5.229v1.905h1.418v7.182h-1.418V37zm2.594-10.993v6.488c0 3.245 1.165 4.694 4.315 4.694s4.316-1.449 4.316-4.693v-6.49h-2.331v6.742c0 1.543-.567 2.315-1.985 2.315-1.417 0-1.984-.772-1.984-2.315v-6.741zM163.879 37h2.252V26.006h-2.551l-2.662 5.15h-.032l-2.693-5.15h-2.536V37h2.253v-7.324h.047l.835 1.733 2.094 3.874 2.142-3.89.804-1.607h.047zm24.398 0 2.709-8.269h-2.205l-.993 3.34-.771 2.992h-.126l-.772-2.993-1.024-3.339h-2.3l2.71 8.269zm7.365.189c2.127 0 3.544-1.166 3.544-2.756 0-1.434-.93-2.252-2.725-2.489l-.929-.126c-.677-.094-.866-.33-.866-.772 0-.409.315-.693 1.102-.693.693 0 1.386.331 1.906.851l1.339-1.37c-.835-.82-1.638-1.292-3.37-1.292-1.97 0-3.214 1.103-3.214 2.693 0 1.497.914 2.316 2.788 2.552l.898.11c.583.079.835.284.835.693 0 .488-.315.788-1.229.788-.898 0-1.606-.41-2.19-1.056l-1.37 1.386c.851.946 1.89 1.481 3.481 1.481m24.012 0c2.016 0 3.324-.96 4.143-2.63l-1.953-1.134c-.331.898-1.008 1.638-2.19 1.638-1.401 0-2.33-.945-2.33-2.678v-1.764c0-1.732.929-2.677 2.33-2.677 1.182 0 1.764.614 2.048 1.527l2.063-1.07c-.803-1.765-2.095-2.584-4.11-2.584-2.962 0-4.867 2.048-4.867 5.765s1.905 5.607 4.866 5.607M235.257 37l-3.575-10.994h-2.96L225.098 37h2.425l.788-2.614h3.67l.787 2.614zm-3.858-4.646h-2.52l1.212-4.174h.079zM241 37.189c2.741 0 4.285-1.465 4.285-3.575 0-1.89-1.087-2.898-3.34-3.26l-1.086-.174c-.913-.142-1.307-.425-1.307-1.181 0-.662.52-1.071 1.59-1.071 1.135 0 1.843.425 2.363 1.04l1.59-1.607c-.897-.992-2.157-1.544-3.81-1.544-2.584 0-4.127 1.37-4.127 3.34 0 1.842 1.055 2.976 3.37 3.275l1.087.142c1.024.142 1.276.583 1.276 1.181 0 .804-.567 1.323-1.733 1.323-1.07 0-2.016-.425-2.756-1.26l-1.575 1.591c.945 1.04 2.252 1.78 4.174 1.78m11.366 0c2.016 0 3.323-.96 4.142-2.63l-1.953-1.134c-.33.898-1.008 1.638-2.189 1.638-1.402 0-2.331-.945-2.331-2.678v-1.764c0-1.732.93-2.677 2.331-2.677 1.181 0 1.764.614 2.048 1.527l2.063-1.07c-.803-1.765-2.095-2.584-4.111-2.584-2.96 0-4.867 2.048-4.867 5.765s1.906 5.607 4.867 5.607M267.97 37l-3.575-10.994h-2.961L257.81 37h2.426l.787-2.614h3.67l.788 2.614zm-3.859-4.646h-2.52l1.213-4.174h.079zM270.154 37h4.142c2.914 0 4.836-1.843 4.836-5.497s-1.922-5.497-4.836-5.497h-4.142zm2.394-2.126v-6.741h1.748c1.418 0 2.3.771 2.3 2.52v1.7c0 1.749-.882 2.52-2.3 2.52zM286.592 37v-1.906h-1.418v-7.182h1.418v-1.905h-5.23v1.905h1.418v7.182h-1.417V37zm11.918 0-3.576-10.994h-2.961L288.351 37h2.425l.788-2.614h3.67L296.02 37zm-3.86-4.646h-2.52l1.213-4.174h.079z"/></svg>
