<svg xmlns="http://www.w3.org/2000/svg" width="647" height="137" viewBox="0 0 647 137"><path fill="#334" d="M-.25 0h647v137h-647z"/><path fill="#48cbff" d="M317.836 106.82v4.875h3.89v-4.875h4.852v-3.89h-4.851v-4.875h-3.891v4.875h-4.852v3.89z"/><path fill="#ffdf29" d="M353.461 104.875a6.44 6.44 0 0 0 6.445 6.445 6.44 6.44 0 0 0 6.446-6.445 6.44 6.44 0 0 0-6.446-6.445 6.44 6.44 0 0 0-6.445 6.445"/><path fill="#eef" d="M374.65 99.131v14.51h1.863v-7.177c3.845-2.39 7.344 3.234 10.229-.024v-7.543c-3.177 3.047-5.28-3.352-12.093.234"/><path fill="#f78" d="m333.117 109.5 2.602 2.602 4.148-4.266 4.125 4.266 2.578-2.579-4.265-4.148 4.265-4.125-2.601-2.602-4.125 4.266-4.149-4.266-2.578 2.579 4.266 4.148z"/><path fill="#eef" d="m37.016 27.36-.258 14.624h8.039V44H34.53l.282-16.64zm15.75 3.984q5.086 0 4.945 4.734l-.188 4.195q-.046 1.008.329 1.477.374.47 1.43.492h.187l-.07 1.875h-.352q-1.57 0-2.332-.574-.762-.575-.903-1.863h-.328a2.8 2.8 0 0 1-1.336 1.898q-1.077.657-2.742.656-1.922 0-2.965-.914t-1.043-2.578q0-2.016 1.63-3.14 1.628-1.125 4.44-1.125.798 0 1.97.117l.023-.399q.047-1.406-.574-2.12-.621-.716-2.192-.716a9 9 0 0 0-1.758.188q-.96.188-1.851.539l-.61-1.922a11.6 11.6 0 0 1 2.133-.61q1.126-.21 2.157-.21m-3.118 9.304q0 .82.54 1.243.538.421 1.593.422 1.5 0 2.496-.868.996-.867 1.067-2.578l.023.047.024-.562a11 11 0 0 0-1.852-.188q-1.734 0-2.812.668-1.08.667-1.079 1.816m19.196-9.07q.375.82.82 1.652t.82 1.489q.188.28.352.61.75 1.312 1.113 2.308.364.996.364 2.168 0 2.156-1.372 3.293-1.37 1.136-3.902 1.136-1.312 0-2.32-.222a9 9 0 0 1-2.016-.715l.399-1.922q1.007.445 1.851.645.844.198 1.805.199 1.593 0 2.449-.668t.856-1.887a4.5 4.5 0 0 0-.399-1.875q-.399-.89-1.219-2.39l-.82-1.5q-1.008 1.007-2.812 2.425-1.806 1.419-2.672 1.934l-1.22-1.735q1.36-.843 3.352-2.367 1.993-1.523 2.954-2.578zm14.672 12.656q-2.063 0-3.2-.914-1.136-.914-1.394-2.789a14 14 0 0 1-.117-1.758l.047-1.57.117-3.187H75.64v-1.97h3.398l.164-4.218h2.156l-.14 4.219h5.39v1.969h-5.46l-.118 3.047-.023 1.406q0 1.171.094 1.758.163 1.007.785 1.511.62.504 1.793.504.703 0 1.382-.152.68-.153 1.524-.504l.656 1.828q-.89.399-1.781.61t-1.945.21m19.195-3.562q4.806-1.476 7.196-3.879t2.39-5.848q0-1.195-.327-1.992-.328-.797-1.36-.797-.843 0-1.5.89-.656.892-1.02 2.415-.362 1.524-.362 3.352 0 3.75 1.171 5.578 1.173 1.828 3.586 1.828 1.126 0 2.368-.446l.421 1.97a8.3 8.3 0 0 1-2.859.491q-3.516 0-5.203-2.285t-1.688-7.02q0-2.53.657-4.511.656-1.98 1.828-3.105t2.695-1.125q1.97 0 2.848 1.43.879 1.428.879 3.515 0 3.844-2.871 6.832t-8.239 4.629zm20.813-9.328q1.806 0 3.047.797a4.93 4.93 0 0 1 1.864 2.18q.62 1.382.62 3.163 0 1.875-.62 3.399-.621 1.523-1.91 2.437-1.29.915-3.188.914-2.696 0-4.137-1.699t-1.441-4.441q0-1.852.633-3.387.632-1.535 1.933-2.45 1.3-.913 3.2-.913m.024 2.015q-1.195 0-2.004.668-.81.669-1.195 1.735a6.6 6.6 0 0 0-.387 2.261q0 1.735.832 2.965t2.473 1.23q1.781 0 2.683-1.359.903-1.36.903-3.28 0-1.736-.832-2.977-.833-1.243-2.473-1.243m13.499 15.446q-3.89 0-5.977-2.79l1.64-1.593q.61 1.031 1.782 1.71 1.172.68 2.672.68.96 0 1.711-.304.75-.305 1.172-.797t.422-1.078a1.04 1.04 0 0 0-.293-.75q-.294-.305-.938-.54-.645-.234-1.91-.562-2.835-.773-4.055-2.004-1.218-1.23-1.218-3.316 0-1.71.691-3.106.692-1.395 1.922-2.203t2.8-.808q1.407 0 2.509.656 1.101.657 1.722 1.863.621 1.207.621 2.778 0 1.734-.879 3.035-.88 1.3-2.261 1.535l.515-.445v1.125h-2.93v-.797a3.14 3.14 0 0 0 1.77-.762 4.66 4.66 0 0 0 1.23-1.652q.446-.985.446-1.992 0-1.478-.785-2.415-.786-.937-2.051-.937-1.406 0-2.262 1.172-.855 1.172-.855 2.906 0 .938.363 1.559.363.622 1.219 1.066.855.445 2.379.82 1.688.422 2.613.868.926.445 1.336 1.066.41.622.41 1.605 0 1.266-.691 2.274-.692 1.008-1.957 1.57t-2.883.563m7.195-16.758v2.016q-2.04 0-2.695-.657l.422-.117-.68.844-2.156-2.086zm10.664 12.187q-2.274 0-3.281-1.336-1.008-1.335-1.008-3.468 0-.775.094-1.36l.844-6.492h2.062l-.656 6.469q-.094.68-.094 1.453 0 1.359.504 2.04.504.678 1.77.679 1.265 0 2.437-.797l.89 1.805a6.76 6.76 0 0 1-3.562 1.007m-2.789-11.015q-2.273 2.765-6.234 5.11l-1.219-1.735q4.032-2.437 6.82-5.016h.633zm.516-4.313a1.6 1.6 0 0 1-1.16-.468 1.54 1.54 0 0 1-.48-1.149q0-.68.48-1.148a1.6 1.6 0 0 1 1.16-.47 1.6 1.6 0 0 1 1.16.47q.48.468.48 1.148t-.48 1.148a1.6 1.6 0 0 1-1.16.47m15.68 7.546q.07-.468.07-.914 0-1.008-.399-1.594-.397-.585-1.359-.586-1.43 0-2.508 1.313t-1.36 3.89l-.21 5.438h-2.227l.422-12.422h1.875l.258 2.742h.305q.398-1.43 1.511-2.203 1.114-.773 2.567-.773 1.688 0 2.531.996t.844 2.754q0 .258-.047.773l-.375 3.961-.047.774q0 .796.281 1.148t.961.352h.54l-.071 2.015h-.562q-1.758 0-2.59-.762-.832-.761-.832-2.496l.047-1.03zm11.343-1.523q-.726 0-1.265-.54-.54-.538-.54-1.265t.528-1.254a1.74 1.74 0 0 1 1.277-.527q.75 0 1.278.527.527.528.527 1.254t-.527 1.266a1.72 1.72 0 0 1-1.278.539m0 9.304q-.726 0-1.265-.539-.54-.539-.54-1.265 0-.728.528-1.254a1.74 1.74 0 0 1 1.277-.528q.75 0 1.278.528.527.527.527 1.254 0 .726-.527 1.265a1.72 1.72 0 0 1-1.278.54m23.789-16.875 1.29 14.93h.21l1.805-10.712h2.297l1.406 10.711h.234l1.805-14.93h2.227L212.445 44h-3.351l-1.172-10.383h-.14L206.257 44h-3.352l-1.71-16.64zm19.383 14.882q1.97 0 3.867-.867l.516 1.852a9.2 9.2 0 0 1-2.156.75q-1.172.257-2.368.257-2.882 0-4.382-1.523-1.5-1.524-1.5-4.242 0-2.085.761-3.703.762-1.617 2.192-2.52 1.43-.902 3.328-.902 1.875 0 3.047.937t1.172 2.625q0 1.992-2.18 3.14-2.18 1.15-6.164 1.267.234 1.358 1.207 2.144.972.785 2.66.785m-3.914-4.734q2.977-.117 4.57-.797t1.594-1.852q0-.75-.562-1.16t-1.477-.41q-1.687 0-2.812 1.148-1.125 1.15-1.313 3.07m22.946 6.61q-1.454 0-2.192-.61-.738-.608-.926-1.874l-.07-.89h-.211q-.446 1.663-1.547 2.566t-2.742.902q-1.969 0-3.059-1.36-1.09-1.358-1.09-3.773 0-2.25.961-4.02a6.83 6.83 0 0 1 2.72-2.753q1.757-.985 4.054-.985.54 0 .82.024l.188-4.922h2.226l-.515 13.969q0 .397.023.586.117.632.48.949.364.316 1.067.316h.726l-.07 1.875zm-9.61-5.133q0 1.548.61 2.38t1.757.831q1.524 0 2.578-1.511 1.055-1.512 1.196-4.489l.093-2.836a7 7 0 0 0-.703-.023q-1.64 0-2.894.715a4.95 4.95 0 0 0-1.946 2.004q-.69 1.29-.691 2.93m32.79 5.249q-3.306 0-5.192-2.12t-1.887-5.989q0-2.718.89-4.758.891-2.04 2.555-3.14 1.665-1.102 3.938-1.102 2.179 0 3.773.973 1.594.972 2.438 2.836.843 1.863.843 4.464 0 2.696-.878 4.688-.88 1.992-2.543 3.07-1.665 1.078-3.938 1.078m.046-1.945q2.391 0 3.738-1.828 1.348-1.828 1.348-4.945 0-3.048-1.29-4.746-1.288-1.7-3.585-1.7-2.391 0-3.738 1.887-1.348 1.887-1.348 5.098 0 2.953 1.289 4.593 1.29 1.641 3.586 1.641m16.665 1.945q-3.024 0-4.617-1.535-1.594-1.535-1.594-4.558 0-2.063.75-3.598t2.145-2.367 3.27-.832q1.687 0 2.812.668a3.77 3.77 0 0 1 1.617 1.91l-1.735 1.266q-.89-1.83-2.765-1.829-1.734 0-2.778 1.23-1.043 1.231-1.043 3.388 0 2.109 1.079 3.175 1.077 1.067 3.164 1.067 1.593 0 3.234-.586l.445 2.015q-1.617.586-3.984.586m13.734 0q-2.062 0-3.175-.914-1.114-.914-1.395-2.836a11 11 0 0 1-.094-1.523l.047-1.64.117-3.258h-2.836v-2.016h2.907l.164-4.219h2.226l-.14 4.219h4.64v2.016h-4.71l-.118 3.046a52 52 0 0 0-.047 1.758q0 .891.07 1.383.282 1.97 2.532 1.969 1.078 0 2.25-.469l.633 1.828a7.3 7.3 0 0 1-3.07.656m24.796 0q-2.695 0-4.16-1.242-1.464-1.242-1.465-3.515 0-1.687.95-2.778.948-1.089 2.73-1.488v-.14q-1.546-.375-2.379-1.337-.832-.96-.832-2.437 0-1.992 1.348-3.082t3.808-1.09 3.809 1.09 1.348 3.082q0 1.477-.82 2.437-.822.961-2.368 1.336v.164q1.758.375 2.707 1.465.95 1.09.95 2.778 0 2.273-1.466 3.515-1.464 1.242-4.16 1.242m0-1.945q1.617 0 2.508-.773.89-.774.89-2.157 0-1.477-.89-2.308-.891-.832-2.508-.832t-2.508.832q-.89.831-.89 2.308 0 1.383.89 2.157.891.773 2.508.773m0-8.086q1.406 0 2.168-.644.762-.645.762-1.793 0-1.29-.762-1.993-.762-.702-2.168-.703-1.406 0-2.168.703-.762.704-.761 1.993 0 1.148.761 1.793.762.645 2.168.644m11.813 12.937q.984-.89 1.488-1.652t.504-1.488q0-1.172-1.617-1.172h-.399V40.86h1.078q1.548 0 2.332.668.786.669.786 1.957 0 .399-.07.868-.375 2.296-2.79 4.476l-.726.656-1.383-1.64zm29.414-9.07q-2.227 0-3.445-1.347-1.22-1.348-1.22-3.832 0-2.649 1.477-4.125 1.477-1.477 4.172-1.477 2.86 0 4.219 1.441t1.36 4.465v1.172q0 4.734-2.403 7.184t-7.3 2.683l-.212-2.015q3.82-.165 5.696-1.875t1.898-4.992h-.21q-.353 1.289-1.419 2.003t-2.613.715m.726-1.945q1.712 0 2.649-.902.937-.903.937-2.543 0-1.617-.902-2.532-.902-.914-2.52-.914-1.593 0-2.46.961-.868.961-.868 2.696 0 1.546.82 2.39.822.844 2.344.844m14.297-3.07q-.726 0-1.265-.54-.54-.538-.54-1.265t.528-1.254a1.74 1.74 0 0 1 1.277-.527q.75 0 1.278.527.527.528.527 1.254t-.527 1.266a1.72 1.72 0 0 1-1.278.539m0 9.304q-.726 0-1.265-.539-.54-.539-.54-1.265 0-.728.528-1.254a1.74 1.74 0 0 1 1.277-.528q.75 0 1.278.528.527.527.527 1.254 0 .726-.527 1.265a1.72 1.72 0 0 1-1.278.54m13.852-14.063-3.047 9.68h5.18V27.359h2.203v10.618h2.156v1.968h-2.156V44h-2.203v-4.055h-8.04v-.023l3.633-11.625zm13.523 13.687V29.54l-4.008 1.36v-2.133l4.008-1.407h2.203v14.625h3.797V44h-10.242v-2.016zm14.813-8.929q-.727 0-1.266-.54-.54-.538-.539-1.265 0-.726.527-1.254a1.74 1.74 0 0 1 1.278-.527q.75 0 1.277.527.527.528.527 1.254t-.527 1.266a1.72 1.72 0 0 1-1.277.539m0 9.304q-.727 0-1.266-.539-.54-.539-.539-1.265 0-.728.527-1.254a1.74 1.74 0 0 1 1.278-.528q.75 0 1.277.528.527.527.527 1.254 0 .726-.527 1.265a1.72 1.72 0 0 1-1.277.54m13.054 1.874q-2.32 0-4.218-.562l.257-2.04q1.125.33 1.922.493.798.165 1.946.164 1.92 0 2.976-.762 1.055-.761 1.055-2.12 0-1.477-1.348-2.25-1.347-.774-3.785-.774h-.398l-.258-1.688q2.695-.21 4.066-1.113 1.371-.902 1.371-2.262 0-1.055-.703-1.652t-1.992-.598q-.96 0-1.992.457t-1.969 1.348l-1.312-1.617q1.125-1.102 2.472-1.617 1.348-.516 3.035-.516 2.227 0 3.457.973 1.23.972 1.23 2.754 0 1.5-1.007 2.625-1.008 1.125-2.672 1.546v.211q1.852.282 2.942 1.43t1.09 2.93q0 2.227-1.606 3.433-1.605 1.207-4.559 1.207m14.954 0q-2.79 0-4.149-2.086-1.36-2.085-1.36-6.351 0-4.313 1.454-6.492t4.289-2.18q2.79 0 4.148 2.156 1.36 2.157 1.36 6.516 0 4.218-1.453 6.328t-4.29 2.11m0-1.945q1.71 0 2.601-1.629.89-1.629.89-4.863 0-1.335-.163-2.719l-5.907 7.36q.82 1.851 2.579 1.851m-3.258-6.492q0 1.665.21 2.93l5.977-7.383q-.773-2.274-2.695-2.274-1.71 0-2.602 1.688-.89 1.688-.89 5.039m31.618-4.454q1.805 0 3.047.797a4.93 4.93 0 0 1 1.863 2.18q.621 1.382.621 3.163 0 1.875-.62 3.399-.623 1.523-1.911 2.437-1.29.915-3.188.914-2.694 0-4.136-1.699t-1.442-4.441q0-1.852.633-3.387t1.934-2.45q1.3-.913 3.199-.913m.023 2.015q-1.194 0-2.004.668-.808.669-1.195 1.735a6.6 6.6 0 0 0-.387 2.261q0 1.735.832 2.965.833 1.23 2.473 1.23 1.781 0 2.684-1.359.902-1.36.902-3.28 0-1.736-.832-2.977-.832-1.243-2.473-1.243m16.641 3.094q.07-.468.07-.914 0-1.008-.398-1.594-.399-.585-1.36-.586-1.43 0-2.507 1.313-1.079 1.313-1.36 3.89l-.21 5.438h-2.227l.422-12.422h1.875l.257 2.742h.305q.399-1.43 1.512-2.203 1.114-.773 2.566-.773 1.688 0 2.532.996.843.996.843 2.754 0 .258-.047.773l-.375 3.961-.046.774q0 .796.28 1.148.282.351.962.352h.539l-.07 2.015h-.563q-1.758 0-2.59-.762-.832-.761-.832-2.496l.047-1.03zm27.703 7.781q-2.062 0-3.2-.914-1.136-.914-1.394-2.789a14 14 0 0 1-.117-1.758l.047-1.57.117-3.187h-3.328v-1.97h3.399l.164-4.218h2.156l-.14 4.219h5.39v1.969h-5.461l-.117 3.047-.024 1.406q0 1.171.094 1.758.164 1.007.785 1.511t1.793.504q.703 0 1.383-.152.679-.153 1.523-.504l.657 1.828q-.891.399-1.782.61-.89.21-1.945.21m14.063 0q-2.063 0-3.2-.914-1.136-.914-1.394-2.789a14 14 0 0 1-.117-1.758l.047-1.57.117-3.187h-3.328v-1.97h3.398l.164-4.218h2.156l-.14 4.219h5.39v1.969h-5.46l-.118 3.047-.023 1.406q0 1.171.094 1.758.163 1.007.785 1.511.62.504 1.793.504.703 0 1.383-.152.679-.153 1.523-.504l.656 1.828q-.89.399-1.781.61t-1.945.21m5.672 2.836q9.188-3.984 9.609-15.492h2.273q-.89 12.915-10.875 17.297zM542 31.367q2.11 6.891 5.063 11.04l-1.618 1.335q-3.398-4.733-5.789-12.164zm19.031.211q.375.82.82 1.652t.82 1.489q.189.28.352.61.75 1.312 1.114 2.308.363.996.363 2.168 0 2.156-1.371 3.293-1.371 1.136-3.902 1.136-1.313 0-2.32-.222a9 9 0 0 1-2.016-.715l.398-1.922q1.009.445 1.852.645.844.198 1.804.199 1.595 0 2.45-.668t.855-1.887a4.5 4.5 0 0 0-.398-1.875q-.399-.89-1.22-2.39l-.82-1.5q-1.007 1.007-2.812 2.425-1.805 1.419-2.672 1.934l-1.219-1.735q1.36-.843 3.352-2.367 1.992-1.523 2.953-2.578zm12.259 12.656q-2.79 0-4.15-2.086-1.359-2.085-1.359-6.351 0-4.313 1.453-6.492t4.29-2.18q2.789 0 4.148 2.156 1.36 2.157 1.36 6.516 0 4.218-1.454 6.328t-4.289 2.11m0-1.945q1.71 0 2.6-1.629t.891-4.863q0-1.335-.164-2.719l-5.906 7.36q.82 1.851 2.578 1.851m-3.259-6.492q0 1.665.211 2.93l5.977-7.383q-.773-2.274-2.696-2.274-1.71 0-2.601 1.688-.89 1.688-.89 5.039m17.322 8.436q-2.79 0-4.149-2.086-1.36-2.085-1.36-6.351 0-4.313 1.454-6.492t4.289-2.18q2.79 0 4.148 2.156 1.36 2.157 1.36 6.516 0 4.218-1.453 6.328t-4.29 2.11m0-1.945q1.71 0 2.601-1.629.89-1.629.89-4.863 0-1.335-.163-2.719l-5.907 7.36q.82 1.851 2.579 1.851m-3.258-6.492q0 1.665.21 2.93l5.977-7.383q-.773-2.274-2.695-2.274-1.71 0-2.602 1.688-.89 1.688-.89 5.039m16.688 6.186V29.54l-4.008 1.36v-2.133l4.008-1.407h2.203v14.625h3.797V44H596.54v-2.016zM33.219 70.375q0-2.016.738-2.953.738-.938 2.379-.938.89 0 1.676.457t1.933 1.348q.657.54 1.102.809.446.27.773.27.563 0 .82-.411.258-.41.258-1.394v-1.196h1.946v1.055q0 2.04-.657 2.953-.655.915-2.109.914-.844 0-1.582-.41-.738-.411-1.77-1.23-.82-.657-1.277-.938a1.75 1.75 0 0 0-.926-.281q-.727 0-1.054.422-.328.421-.328 1.406v1.172h-1.922zm25.734-11.789L49.391 79.68h-2.157l9.563-21.094zm6.187.774-.257 14.624h8.039V76H62.656l.282-16.64zm21.938-.774L77.516 79.68h-2.157l9.563-21.094zm8.391 10.148q1.968 0 3.035-1.007 1.066-1.008 1.066-2.977 0-1.665-1.02-2.52-1.019-.855-2.964-.855H92.89l-.118 7.36zm.164-9.375q3.022 0 4.605 1.371 1.582 1.372 1.582 3.997 0 3-1.675 4.5-1.677 1.5-4.723 1.5H92.75L92.656 76h-2.203l.281-16.64zm19.57-.773-9.562 21.094h-2.157l9.563-21.094zm10.031 17.648q-3.609 0-5.449-2.074t-1.84-6.176q0-3.937 1.793-6.398 1.794-2.46 5.473-2.461 1.617 0 2.812.54 1.196.538 1.758 1.546l-1.547 1.57a3.66 3.66 0 0 0-1.3-1.265 3.4 3.4 0 0 0-1.7-.446q-1.757 0-2.882.938t-1.641 2.46q-.516 1.524-.516 3.329 0 6.492 5.39 6.492 1.689 0 3.282-.75l.469 1.875q-1.992.82-4.102.82m11.906-12.89q5.087 0 4.946 4.734l-.188 4.195q-.046 1.008.329 1.477t1.43.492h.187l-.07 1.875h-.352q-1.57 0-2.332-.574-.762-.575-.903-1.863h-.328a2.8 2.8 0 0 1-1.336 1.898q-1.077.657-2.742.656-1.922 0-2.965-.914t-1.043-2.578q0-2.016 1.63-3.14 1.628-1.125 4.44-1.125.797 0 1.97.117l.023-.399q.047-1.406-.574-2.12-.621-.716-2.192-.716a9 9 0 0 0-1.757.188q-.961.188-1.852.539l-.61-1.922a11.6 11.6 0 0 1 2.133-.61q1.126-.21 2.157-.21m-3.117 9.304q0 .82.54 1.243.538.42 1.593.421 1.5 0 2.496-.867t1.067-2.578l.023.047.024-.562a11 11 0 0 0-1.852-.188q-1.734 0-2.812.668-1.08.667-1.079 1.816m18.492 1.594q1.968 0 3.867-.867l.515 1.852a9.2 9.2 0 0 1-2.156.75q-1.171.257-2.367.257-2.883 0-4.383-1.523-1.5-1.524-1.5-4.242 0-2.085.762-3.703t2.191-2.52 3.328-.902q1.875 0 3.047.937t1.172 2.625q0 1.992-2.18 3.14-2.179 1.149-6.164 1.266.235 1.36 1.207 2.145.974.785 2.66.785m-3.914-4.734q2.976-.117 4.57-.797t1.594-1.852q0-.75-.563-1.16t-1.476-.41q-1.688 0-2.813 1.148-1.125 1.15-1.312 3.07m18.68-5.929q.375.82.82 1.652t.82 1.489q.189.28.352.61.75 1.311 1.114 2.308.363.995.363 2.168 0 2.156-1.371 3.293-1.371 1.136-3.902 1.136-1.313 0-2.32-.222a9 9 0 0 1-2.016-.715l.398-1.922q1.008.446 1.852.645.844.198 1.804.199 1.595 0 2.45-.668t.855-1.887a4.5 4.5 0 0 0-.398-1.875q-.399-.89-1.22-2.39l-.82-1.5q-1.007 1.007-2.812 2.425t-2.672 1.934l-1.219-1.735q1.36-.843 3.352-2.367 1.992-1.523 2.953-2.578zm14.532 12.656q-2.18 0-3.2-1.254-1.02-1.252-1.02-3.316 0-.398.095-1.289l.914-6.797h2.062l-.726 6.797q-.07.703-.07 1.29 0 1.335.491 1.944.492.61 1.641.61.89 0 1.828-.375l.61 1.828a6.5 6.5 0 0 1-2.625.562m-2.672-11.062q-1.853 2.601-5.203 4.758l-1.22-1.688q3.423-2.273 5.813-4.664h.633zm.492-4.266a1.6 1.6 0 0 1-1.16-.468 1.54 1.54 0 0 1-.48-1.149q0-.68.48-1.148a1.6 1.6 0 0 1 1.16-.47 1.6 1.6 0 0 1 1.16.47q.48.468.48 1.148t-.48 1.148a1.6 1.6 0 0 1-1.16.47m10.477 15.327q-4.102 0-4.102-5.32 0-2.953 1.148-7.57l2.25.398q-.61 2.484-.89 4.184-.282 1.699-.282 3.035 0 3.258 2.203 3.258 1.57 0 2.426-1.442.855-1.44 1.043-4.324l.188-4.875h2.273l-.351 8.695q-.048 1.032.34 1.5.386.47 1.417.47h.47l-.071 1.874h-.492q-1.782 0-2.614-.762-.832-.761-.832-2.425h-.257q-.445 1.664-1.301 2.484t-2.567.82m15.633-9.211q.094-1.804-1.148-1.804-.96 0-1.57 1.219-.61 1.218-.75 3.539L202.061 76h-2.226l.445-12.422h1.852l.187 2.227h.258q.211-1.243.902-1.852.691-.61 1.77-.61 2.109 0 2.484 2.415h.258q.54-2.415 2.813-2.414 1.476 0 2.039 1.031.562 1.031.445 2.648l-.328 5.11q-.024.21-.024.61 0 .702.247 1.03.246.33.855.329h.516l-.07 2.015h-.54q-1.71 0-2.472-.738-.762-.739-.762-2.473 0-.492.023-.773l.352-5.11.023-.445q0-1.36-1.054-1.36-.96 0-1.582 1.184-.621 1.185-.762 3.434L207.477 76h-2.11zm34.266 12.54q-2.508 0-4.301-1.266-1.792-1.265-2.73-3.68t-.938-5.812q0-3.352.938-5.73.937-2.38 2.718-3.622t4.313-1.242h.515v1.922h-.328q-2.835 0-4.382 2.273t-1.547 6.399q0 4.196 1.547 6.504t4.382 2.308h.328v1.945z"/><path fill="#eeb0ff" d="M249.852 67.727q.023-.61-.2-1.008-.222-.399-.761-.399-.633 0-1.032.668-.398.669-.492 2.004L247.133 76h-3.094l.469-12.422h2.648l.164 1.688h.352q.516-1.922 2.484-1.922 1.782 0 2.274 1.922h.351q.586-1.922 2.649-1.922 1.5 0 2.11.984.608.984.491 2.625l-.375 4.922q-.07.657.117.973t.868.316h.234l-.094 2.953h-.469q-1.85 0-2.812-.832-.96-.833-.96-2.613l.023-.633.328-4.312q.046-.586-.141-.997-.188-.41-.703-.41-.563 0-.973.54-.41.538-.55 1.593L252.218 76h-2.672zm16.195-4.383q2.555 0 3.926 1.16t1.3 3.129l-.14 4.383q-.024.75.176 1.078t.925.328h.54l-.118 2.695h-1.289q-2.226 0-2.648-2.086h-.399q-.304 1.008-1.3 1.606-.997.597-2.637.597-1.969 0-3.059-.949-1.09-.95-1.09-2.637 0-2.109 1.641-3.293 1.64-1.183 4.453-1.183.914 0 1.899.14l.023-.304q.047-.867-.633-1.418t-1.969-.55q-1.617 0-3.375.726l-.89-2.579a13 13 0 0 1 2.355-.632q1.23-.21 2.309-.211m-2.625 8.883q0 .585.422.878t1.242.293q1.29 0 2.121-.62.832-.623.926-1.887v-.258a13 13 0 0 0-1.594-.094q-1.547 0-2.332.445t-.785 1.243m19.288 4.007q-4.71 0-4.71-5.226 0-1.008.188-2.203l.773-5.227h2.789l-.445 5.227q-.117 1.289-.118 2.015 0 1.266.375 1.828t1.36.563q.891 0 1.71-.328l.587 2.953a8.2 8.2 0 0 1-2.508.398m-2.554-10.5a25.5 25.5 0 0 1-5.11 4.664l-1.78-2.53a45 45 0 0 0 5.343-4.29h1.547zm-.047-4.101a2.06 2.06 0 0 1-1.511-.621 2.03 2.03 0 0 1-.621-1.489q0-.89.62-1.523a2.04 2.04 0 0 1 1.512-.633q.891 0 1.512.633t.621 1.523a2.03 2.03 0 0 1-.62 1.489 2.06 2.06 0 0 1-1.513.62m14.132 6.845q.024-.141.024-.422 0-1.71-1.383-1.711-1.149 0-1.957 1.289-.81 1.29-.903 3.82v-.07L289.86 76h-3.164l.446-12.422h2.742l.21 2.016h.376a2.7 2.7 0 0 1 1.312-1.676q1.008-.574 2.344-.574 1.665 0 2.52.926T297.5 67q0 .445-.023.68l-.305 3.867a3 3 0 0 0-.024.445q0 .563.247.867.246.305.925.305h.211l-.094 2.953h-.445q-4.03 0-4.031-3.75 0-.422.023-.656z"/><path fill="#eef" d="M307.203 57.156v23.907h-1.969V57.156z"/><path fill="#7bf048" d="m319.344 71.852 5.531-13.032 3.328 1.5L321.22 76h-3.633l-4.805-8.25 3.14-1.828z"/><path fill="#eef" d="M330.055 77.617q2.835 0 4.382-2.308 1.548-2.31 1.547-6.504 0-4.125-1.546-6.399-1.548-2.273-4.383-2.273h-.328V58.21h.515q2.531 0 4.313 1.242 1.78 1.242 2.718 3.621t.938 5.73q0 3.4-.938 5.813-.937 2.414-2.73 3.68t-4.3 1.266h-.516v-1.946z"/><path fill="#7bf048" d="m367.367 63.04 1.36 1.827-11.18 7.547-1.36-1.875zm-1.851 13.194q-1.711 0-2.743-1.03-1.03-1.032-1.03-2.743t1.03-2.754 2.743-1.043q1.687 0 2.718 1.043 1.032 1.042 1.032 2.754 0 1.71-1.032 2.742-1.03 1.032-2.718 1.031m0-2.484q.514 0 .832-.363.315-.363.316-.926 0-.585-.316-.95a1.05 1.05 0 0 0-.832-.363q-.54 0-.856.364-.315.363-.316.949 0 .563.316.926t.856.363m-5.93-7.055q-1.71 0-2.742-1.03-1.031-1.032-1.031-2.743t1.03-2.754 2.743-1.043q1.687 0 2.719 1.043 1.03 1.043 1.03 2.754 0 1.71-1.03 2.742t-2.72 1.031m0-2.507q.516 0 .832-.34t.316-.926-.304-.938-.844-.351q-.54 0-.856.34t-.316.949q0 .586.316.926.317.34.856.34"/><path fill="#48cbff" d="M390.36 80.805a9.4 9.4 0 0 1-3.61-.692q-1.687-.69-2.812-1.933l1.992-2.485q1.055 1.125 2.12 1.664 1.067.54 2.286.54 1.031 0 1.746-.376.715-.375.715-.96 0-.423-.54-.739-.538-.316-1.945-.691-2.906-.797-4.207-2.11t-1.3-3.421q0-1.782.75-3.211.75-1.43 2.05-2.239a5.3 5.3 0 0 1 2.848-.808 4.94 4.94 0 0 1 2.649.738 5.16 5.16 0 0 1 1.875 2.027q.68 1.29.68 2.836 0 1.594-.798 2.707-.796 1.114-2.343 1.207l.75-.468v1.382h-3.493l-.023-1.242q1.64-.234 2.227-1.418.585-1.183.586-2.285 0-1.101-.622-1.851-.621-.75-1.511-.75-1.055 0-1.7.925-.645.927-.644 2.192 0 1.219.726 1.957.727.738 2.368 1.09 2.695.585 3.773 1.5 1.078.914 1.078 2.414 0 1.335-.703 2.355t-1.992 1.582q-1.29.563-2.977.563m7.148-16.758v2.93q-1.805-.048-2.367-.844h.468l-.75.89-3.093-2.976zm10.688 12.187q-2.648 0-3.761-1.418-1.114-1.418-1.114-3.855 0-.844.164-2.156l.68-5.227h2.977l-.446 5.227q-.14 1.687-.14 2.156 0 1.195.41 1.723.41.527 1.512.527.609 0 1.066-.129t1.09-.48l1.195 2.765a9.3 9.3 0 0 1-1.723.645 7.6 7.6 0 0 1-1.91.222m-2.648-10.453q-2.672 2.812-6.235 4.969l-1.78-2.484q3.609-2.18 6.468-4.688h1.547zm0-4.148a2.06 2.06 0 0 1-1.512-.621 2.03 2.03 0 0 1-.62-1.489q0-.89.62-1.523a2.04 2.04 0 0 1 1.512-.633q.891 0 1.512.633.62.633.62 1.523a2.03 2.03 0 0 1-.62 1.489 2.06 2.06 0 0 1-1.512.62m15.469 14.602q-2.18 0-3.493-.925-1.312-.927-1.546-2.707-.141-1.126-.141-2.368 0-.89.023-1.453l.07-1.804H413v-2.93h3.023l.164-4.219h3.211l-.164 4.219h5.133v2.93h-5.226l-.07 1.804-.048 1.617q0 .705.094 1.336.094.774.574 1.125.48.352 1.418.352a8.6 8.6 0 0 0 1.512-.117q.645-.117 1.535-.399l.961 2.79q-.984.35-1.945.55t-2.156.2"/><path fill="#eeb0ff" d="M442.25 63.578h1.875l.281 2.953h.211q.375-1.5 1.488-2.344 1.114-.843 2.684-.843 2.203 0 3.176 1.547t.973 3.914q0 2.273-.891 3.949a6.1 6.1 0 0 1-2.59 2.578q-1.699.903-4.043.902l-1.36-.046-.163 4.242h-2.227zm1.875 10.617q1.032.094 1.477.094 2.507 0 3.82-1.512 1.312-1.511 1.312-3.996 0-3.422-2.343-3.422-.961 0-1.84.586t-1.488 1.793-.797 3.012zm15.422 2.039q-4.102 0-4.102-5.32 0-2.953 1.149-7.57l2.25.398q-.61 2.484-.89 4.184-.282 1.699-.282 3.035 0 3.258 2.203 3.258 1.57 0 2.426-1.442.855-1.44 1.043-4.324l.187-4.875h2.274l-.352 8.695q-.047 1.032.34 1.5.387.47 1.418.47h.469l-.07 1.874h-.493q-1.78 0-2.613-.762-.832-.761-.832-2.425h-.258q-.445 1.664-1.3 2.484-.856.82-2.567.82m8.789-3.562q4.804-1.476 7.195-3.879t2.39-5.848q0-1.195-.327-1.992-.328-.797-1.36-.797-.843 0-1.5.89-.656.892-1.02 2.415-.362 1.524-.362 3.352 0 3.75 1.171 5.578 1.173 1.828 3.586 1.828 1.126 0 2.368-.446l.421 1.97a8.3 8.3 0 0 1-2.859.491q-3.516 0-5.203-2.285-1.688-2.284-1.688-7.02 0-2.53.657-4.511.656-1.98 1.828-3.105t2.695-1.126q1.97 0 2.848 1.43.879 1.43.879 3.516 0 3.844-2.871 6.832t-8.239 4.629zm14.062 0q4.805-1.476 7.196-3.879t2.39-5.848q0-1.195-.328-1.992t-1.36-.797q-.843 0-1.5.89-.655.892-1.019 2.415t-.363 3.352q0 3.75 1.172 5.578t3.586 1.828q1.125 0 2.367-.446l.422 1.97a8.3 8.3 0 0 1-2.86.491q-3.515 0-5.203-2.285-1.687-2.284-1.687-7.02 0-2.53.656-4.511.657-1.98 1.828-3.105t2.696-1.126q1.968 0 2.847 1.43.88 1.43.88 3.516 0 3.844-2.872 6.832t-8.238 4.629zm34.875-9.328q1.806 0 3.047.797a4.93 4.93 0 0 1 1.864 2.18q.62 1.382.62 3.163 0 1.875-.62 3.399-.621 1.523-1.91 2.437-1.29.915-3.188.914-2.696 0-4.137-1.699t-1.441-4.441q0-1.852.633-3.387t1.933-2.45q1.3-.913 3.2-.913m.024 2.015q-1.196 0-2.004.668-.81.669-1.195 1.735a6.6 6.6 0 0 0-.387 2.261q0 1.735.832 2.965t2.473 1.23q1.781 0 2.683-1.359.903-1.36.903-3.28 0-1.736-.832-2.977-.833-1.243-2.473-1.243m18.725 10.851q-1.992 0-2.976-1.1-.984-1.102-.985-3.118 0-1.266.235-2.437l.89-4.735 1.5 1.032q-5.062 1.171-5.976-2.86h1.219q1.335 1.758 5.625.844l-.985 5.508q-.327 1.758-.328 2.578 0 1.055.504 1.687t1.465.633q.28 0 .621-.07t.645-.14l.445 1.85a5.7 5.7 0 0 1-1.899.329m-11.765-5.015q1.781-1.29 2.578-2.789t.797-3.445q0-.727-.047-1.125l-.07-.844h2.109l.54 1.969h-1.15l.165-1.547q.28 1.195.28 2.367 0 2.086-.983 3.926-.985 1.84-2.977 3.246zm20.602 9.609q-3.892 0-5.977-2.79l1.64-1.593q.61 1.031 1.782 1.71 1.171.68 2.672.68.96 0 1.71-.304.75-.305 1.172-.797.423-.493.422-1.078a1.04 1.04 0 0 0-.293-.75q-.293-.304-.937-.54-.645-.234-1.91-.562-2.837-.773-4.055-2.004-1.22-1.23-1.219-3.316 0-1.71.692-3.106.69-1.395 1.921-2.203 1.23-.808 2.801-.808 1.407 0 2.508.656 1.101.657 1.723 1.863.62 1.207.62 2.778 0 1.734-.878 3.035-.879 1.3-2.262 1.535l.516-.445v1.125h-2.93v-.797a3.14 3.14 0 0 0 1.77-.762 4.66 4.66 0 0 0 1.23-1.652q.445-.984.445-1.993 0-1.476-.785-2.414-.785-.937-2.05-.937-1.407 0-2.262 1.172-.856 1.172-.856 2.906 0 .938.364 1.559.363.621 1.218 1.066.856.445 2.38.82 1.686.422 2.613.868.925.445 1.335 1.066.41.622.41 1.605 0 1.266-.69 2.274-.693 1.008-1.958 1.57t-2.883.563m7.195-16.758v2.016q-2.04 0-2.696-.657l.422-.117-.68.844-2.156-2.086zm10.665 12.187q-2.274 0-3.282-1.336-1.007-1.335-1.007-3.468 0-.775.093-1.36l.844-6.492h2.063l-.657 6.469q-.093.68-.093 1.453 0 1.359.504 2.04.503.678 1.77.679 1.264 0 2.437-.797l.89 1.805a6.76 6.76 0 0 1-3.562 1.007m-2.79-11.015q-2.272 2.766-6.234 5.11l-1.218-1.735q4.03-2.437 6.82-5.016h.633zm.516-4.313a1.6 1.6 0 0 1-1.16-.468 1.54 1.54 0 0 1-.48-1.149q0-.68.48-1.148a1.6 1.6 0 0 1 1.16-.47 1.6 1.6 0 0 1 1.16.47q.48.468.48 1.148t-.48 1.148a1.6 1.6 0 0 1-1.16.47m15.68 7.546q.07-.468.07-.914 0-1.008-.398-1.594-.399-.585-1.36-.586-1.43 0-2.507 1.313-1.079 1.313-1.36 3.89L570.36 76h-2.227l.422-12.422h1.875l.258 2.742h.304q.399-1.43 1.512-2.203t2.566-.773q1.688 0 2.532.996.843.996.843 2.754 0 .258-.047.773l-.375 3.961-.046.774q0 .796.28 1.148.282.352.962.352h.539l-.07 2.015h-.563q-1.758 0-2.59-.762-.832-.761-.832-2.496l.047-1.03z"/></svg>
